<svg id="Layer_1" xmlns="http://www.w3.org/2000/svg" viewBox="-376 341 527 120"><style>.st0{fill:gray}.st1{fill:#bfbfbf}.st2{fill:#999}</style><path class="st0" d="M-154.5 396.1c-.7 1.1-1.5 2.1-2.4 3.1s-2 1.8-3.2 2.5c-1.2.7-2.6 1.3-4.3 1.7-1.6.4-3.5.6-5.7.6-6.3 0-11-1.8-14-5.4s-4.6-8.9-4.6-16.1 1.5-12.6 4.6-16.1c3.1-3.6 7.6-5.3 13.7-5.3 2.1 0 3.9.2 5.5.6s3 .9 4.3 1.6c1.2.7 2.3 1.5 3.2 2.4s1.6 1.9 2.3 3l-5.5 4c-.4-.7-.9-1.3-1.4-2-.5-.7-1.2-1.2-1.9-1.7s-1.6-.9-2.6-1.2-2.2-.5-3.6-.5c-3.9 0-6.7 1.3-8.5 3.8-1.8 2.6-2.7 6.4-2.7 11.5 0 2.7.2 5 .7 7 .5 1.9 1.2 3.5 2.2 4.8 1 1.2 2.1 2.1 3.5 2.7 1.4.6 3 .9 4.9.9 1.4 0 2.6-.1 3.6-.4 1-.3 1.9-.7 2.7-1.2s1.5-1.1 2.1-1.8c.6-.7 1.2-1.4 1.7-2.2l5.4 3.7zM-125.5 403.1l-10.5-16.2h-5.7v16.2h-6.9v-41.2h13.9c2.5 0 4.6.2 6.5.6s3.4 1.1 4.6 2.1c1.2.9 2.2 2.2 2.8 3.7s.9 3.4.9 5.6c0 1.9-.2 3.6-.6 5-.4 1.4-1 2.6-1.8 3.6s-1.7 1.7-2.7 2.3c-1.1.6-2.2 1-3.4 1.2l11.1 17.1h-8.2zm-1.6-28.9c0-1.2-.1-2.2-.4-3-.3-.8-.8-1.4-1.4-1.9-.6-.5-1.4-.8-2.4-1-1-.2-2.1-.3-3.5-.3h-6.9v12.8h6.5c1.6 0 2.9-.1 3.9-.3s1.9-.6 2.5-1.1 1.1-1.2 1.3-2c.3-1 .4-2 .4-3.2zM-79.9 382.5c0 3.4-.3 6.4-1 9-.6 2.7-1.7 4.9-3.1 6.7-1.4 1.8-3.2 3.3-5.4 4.2-2.2 1-4.8 1.5-7.9 1.5s-5.7-.5-7.8-1.5c-2.2-1-4-2.4-5.4-4.2-1.4-1.8-2.4-4.1-3.1-6.7-.7-2.7-1-5.7-1-9 0-3.4.3-6.4 1-9.1.7-2.7 1.7-4.9 3.1-6.7 1.4-1.8 3.2-3.2 5.4-4.2s4.8-1.5 7.8-1.5c3.1 0 5.7.5 7.9 1.4 2.2 1 4 2.4 5.4 4.2 1.4 1.8 2.4 4.1 3.1 6.7.7 2.8 1 5.8 1 9.2zm-7.2 0c0-2.6-.2-4.8-.5-6.7-.4-1.9-.9-3.5-1.7-4.8-.8-1.3-1.8-2.2-3.1-2.9-1.3-.6-2.8-1-4.6-1-1.8 0-3.4.3-4.7 1-1.3.6-2.3 1.6-3.1 2.9-.8 1.3-1.4 2.9-1.7 4.8-.4 1.9-.5 4.2-.5 6.7s.2 4.8.5 6.7c.4 1.9.9 3.5 1.7 4.8.8 1.3 1.8 2.2 3.1 2.9 1.3.6 2.8 1 4.7 1 1.8 0 3.4-.3 4.6-.9 1.3-.6 2.3-1.6 3.1-2.8.8-1.3 1.4-2.9 1.7-4.8.3-2.1.5-4.3.5-6.9zM-44.4 391.5c0 2.3-.4 4.3-1.2 5.9-.8 1.6-1.9 2.9-3.4 3.8-1.4 1-3.1 1.7-4.9 2.1-1.9.4-3.9.6-6 .6-2.2 0-4.2-.2-5.8-.6-1.6-.4-3.1-1-4.4-1.7-1.3-.7-2.3-1.5-3.2-2.5-.9-1-1.7-2-2.3-3.1l5.5-4c.5.8 1 1.5 1.7 2.2.6.7 1.3 1.3 2.1 1.8s1.7.9 2.8 1.2c1.1.3 2.3.5 3.7.5 1.1 0 2.1-.1 3.1-.3 1-.2 1.9-.5 2.7-1 .8-.5 1.4-1.1 1.9-1.8s.7-1.6.7-2.7c0-1-.2-1.9-.7-2.6-.4-.7-1-1.3-1.8-1.8s-1.6-.9-2.7-1.2c-1-.3-2.1-.6-3.2-.9-2.1-.5-4.1-1.1-5.9-1.7-1.8-.6-3.4-1.3-4.7-2.2-1.3-.9-2.4-2-3.1-3.3-.8-1.4-1.1-3.1-1.1-5.2 0-1.9.3-3.5 1-5 .6-1.5 1.6-2.8 2.8-3.8 1.2-1.1 2.8-1.9 4.6-2.4 1.8-.6 3.9-.8 6.3-.8 1.8 0 3.4.2 4.9.5s2.8.8 4 1.4 2.3 1.4 3.2 2.3c1 .9 1.8 2 2.5 3.1l-5.4 4c-1.1-1.7-2.4-3.1-3.9-3.9-1.5-.9-3.3-1.3-5.5-1.3-2.3 0-4.2.5-5.5 1.4-1.4 1-2 2.3-2 4.1 0 .9.2 1.6.6 2.2.4.6.9 1.1 1.7 1.5.8.4 1.7.8 2.9 1.2 1.2.3 2.5.7 4.1 1.1 1.2.3 2.4.6 3.6 1 1.2.3 2.3.7 3.3 1.2 1 .4 2 1 2.9 1.6s1.6 1.3 2.2 2.2 1.1 1.9 1.5 3c.2 1.1.4 2.4.4 3.9zM-8.4 391.5c0 2.3-.4 4.3-1.2 5.9-.8 1.6-1.9 2.9-3.4 3.8-1.4 1-3.1 1.7-4.9 2.1-1.9.4-3.9.6-6 .6-2.2 0-4.2-.2-5.8-.6-1.6-.4-3.1-1-4.4-1.7-1.3-.7-2.3-1.5-3.2-2.5-.9-1-1.7-2-2.3-3.1l5.5-4c.5.8 1 1.5 1.7 2.2.6.7 1.3 1.3 2.1 1.8s1.7.9 2.8 1.2c1.1.3 2.3.5 3.7.5 1.1 0 2.1-.1 3.1-.3 1-.2 1.9-.5 2.7-1 .8-.5 1.4-1.1 1.9-1.8s.7-1.6.7-2.7c0-1-.2-1.9-.7-2.6-.4-.7-1-1.3-1.8-1.8s-1.6-.9-2.7-1.2c-1-.3-2.1-.6-3.2-.9-2.1-.5-4.1-1.1-5.9-1.7-1.8-.6-3.4-1.3-4.7-2.2-1.3-.9-2.4-2-3.1-3.3-.8-1.4-1.1-3.1-1.1-5.2 0-1.9.3-3.5 1-5 .6-1.5 1.6-2.8 2.8-3.8 1.2-1.1 2.8-1.9 4.6-2.4 1.8-.6 3.9-.8 6.3-.8 1.8 0 3.4.2 4.9.5s2.8.8 4 1.4 2.3 1.4 3.2 2.3c1 .9 1.8 2 2.5 3.1l-5.4 4c-1.1-1.7-2.4-3.1-3.9-3.9-1.5-.9-3.3-1.3-5.5-1.3-2.3 0-4.2.5-5.5 1.4-1.4 1-2 2.3-2 4.1 0 .9.2 1.6.6 2.2.4.6.9 1.1 1.7 1.5.8.4 1.7.8 2.9 1.2 1.2.3 2.5.7 4.1 1.1 1.2.3 2.4.6 3.6 1 1.2.3 2.3.7 3.3 1.2 1 .4 2 1 2.9 1.6s1.6 1.3 2.2 2.2 1.1 1.9 1.5 3c.2 1.1.4 2.4.4 3.9zM34.9 403.1h-7.6L20 372.9 12.6 403H5.1L-5 361.9h6.9L9 392l7.3-30.1h7.3l7.4 30.3 7.2-30.3h6.9l-10.2 41.2zM44.3 403.1l13.8-41.2h9L81 403.1h-7.2l-3.2-9.5H54.2l-3.1 9.5h-6.8zm12.1-15.7h12.3l-6.1-18.6-6.2 18.6zM86.5 403.1v-41.2h6.9v34.9h18v6.3H86.5zM139.7 403.1l-12.8-17.8-3.2 3.7v14.1h-6.9v-41.2h6.9V380l15.5-18.2h8.3l-16.1 18.3 17.1 22.9h-8.8v.1zM-167.1 420.5c0 1.6-.2 3-.6 4.2-.4 1.2-1 2.2-1.7 2.9-.8.8-1.8 1.3-3 1.7s-2.7.6-4.4.6h-4.4v8.8h-4.6v-27h9.1c1.5 0 2.9.2 4.1.5 1.2.3 2.2.8 3 1.5.8.7 1.4 1.6 1.9 2.7.4 1.1.6 2.5.6 4.1zm-4.7 0c0-1-.1-1.8-.4-2.4-.3-.6-.7-1.1-1.2-1.5s-1.1-.6-1.9-.8c-.7-.1-1.6-.2-2.6-.2h-3.4v10.2h2.9c1.1 0 2.1-.1 3-.2.8-.1 1.5-.4 2-.7.5-.3.9-.9 1.2-1.6.2-.7.4-1.6.4-2.8zM-147.7 438.6l-6.9-10.6h-3.8v10.6h-4.6v-27h9.1c1.6 0 3 .1 4.2.4s2.2.7 3 1.3c.8.6 1.4 1.4 1.8 2.4.4 1 .6 2.2.6 3.6 0 1.3-.1 2.4-.4 3.3-.3.9-.7 1.7-1.2 2.3-.5.6-1.1 1.1-1.8 1.5-.7.4-1.4.6-2.2.8l7.3 11.2h-5.1v.2zm-1-18.9c0-.8-.1-1.5-.3-2s-.5-.9-.9-1.2-.9-.5-1.6-.7c-.6-.1-1.4-.2-2.3-.2h-4.5v8.4h4.3c1 0 1.9-.1 2.6-.2.7-.1 1.2-.4 1.6-.7.4-.3.7-.8.9-1.3.1-.6.2-1.3.2-2.1zM-117.5 425.1c0 2.2-.2 4.2-.6 5.9s-1.1 3.2-2 4.4c-.9 1.2-2.1 2.1-3.5 2.8-1.4.6-3.2 1-5.2 1s-3.7-.3-5.1-1c-1.4-.7-2.6-1.6-3.5-2.8-.9-1.2-1.6-2.7-2-4.4s-.6-3.7-.6-5.9.2-4.2.6-5.9c.4-1.7 1.1-3.2 2-4.4.9-1.2 2.1-2.1 3.5-2.8 1.4-.6 3.1-1 5.1-1s3.7.3 5.2.9c1.4.6 2.6 1.5 3.5 2.8.9 1.2 1.6 2.7 2 4.4.4 1.8.6 3.8.6 6zm-4.8 0c0-1.7-.1-3.1-.4-4.4-.2-1.3-.6-2.3-1.1-3.1-.5-.8-1.2-1.5-2-1.9-.8-.4-1.8-.6-3-.6s-2.2.2-3.1.6c-.8.4-1.5 1-2 1.9-.5.8-.9 1.9-1.1 3.1-.2 1.3-.4 2.7-.4 4.4 0 1.7.1 3.1.4 4.4.2 1.3.6 2.3 1.1 3.1.5.8 1.2 1.5 2.1 1.9.8.4 1.9.6 3.1.6 1.2 0 2.2-.2 3-.6s1.5-1 2-1.9c.5-.8.9-1.9 1.1-3.1.2-1.2.3-2.7.3-4.4zM-102.3 431.3c0 1.4-.2 2.6-.5 3.6s-.8 1.8-1.5 2.5-1.5 1.1-2.6 1.5c-1 .3-2.3.5-3.7.5-.4 0-.8 0-1.2-.1-.5 0-.9-.1-1.4-.2l-1.5-.3c-.5-.1-.9-.3-1.3-.4l1.5-4c.2.1.5.2.8.3.3.1.7.2 1 .3.4.1.7.2 1.1.2.4.1.7.1 1 .1.7 0 1.4-.1 1.8-.3.5-.2.9-.5 1.1-.9.3-.4.5-1 .6-1.7.1-.7.2-1.6.2-2.6v-18.2h4.6v19.7zM-96.3 438.6v-27h17v4.1h-12.5v6.9h10.6v4.1h-10.6v7.9h12.5v4.2h-17v-.2zM-53.7 434c-.5.7-1 1.4-1.6 2s-1.3 1.2-2.1 1.6c-.8.5-1.7.8-2.8 1.1-1.1.3-2.3.4-3.7.4-4.1 0-7.2-1.2-9.2-3.5-2-2.3-3-5.9-3-10.6s1-8.3 3-10.6c2-2.3 5-3.5 9-3.5 1.4 0 2.6.1 3.6.4 1 .3 2 .6 2.8 1 .8.4 1.5 1 2.1 1.6s1.1 1.3 1.5 2l-3.6 2.6c-.3-.4-.6-.9-.9-1.3-.3-.4-.8-.8-1.2-1.1-.4-.3-1.1-.6-1.7-.8-.7-.2-1.5-.3-2.4-.3-2.5 0-4.4.8-5.6 2.5-1.2 1.7-1.8 4.2-1.8 7.5 0 1.8.2 3.3.5 4.6.3 1.3.8 2.3 1.4 3.1.6.8 1.4 1.4 2.3 1.8.9.4 2 .6 3.2.6.9 0 1.7-.1 2.4-.3.7-.2 1.3-.5 1.8-.8.5-.3 1-.7 1.4-1.2s.8-.9 1.1-1.4l3.5 2.6zM-37.9 415.8v22.9h-4.6v-22.9h-8.6v-4.2h21.8v4.2h-8.6z"/><path class="st1" d="M-262.5 361l-28.4 38.3 28.5 38.4L-206 361z"/><path class="st2" d="M-319.3 361H-376l56.8 76.7 28.3-38.4z"/><path class="st0" d="M-319.3 361h56.8l-28.4 38.3z"/><path class="st2" d="M-262.5 361l-20.3 49.2-8.1-10.9z"/></svg>