<svg id="Layer_1" xmlns="http://www.w3.org/2000/svg" viewBox="-383 312.2 512 177.8"><style>.st0{fill:gray}</style><path class="st0" d="M-155.2 378.2h3.7v69.6h-3.7v-69.6zm55.9-1.7c-20.9 0-36.6 15.8-36.6 36.5 0 20.9 15.8 36.5 36.6 36.5 20.9 0 36.6-15.6 36.6-36.5.1-20.8-15.7-36.5-36.6-36.5zm0 69.6c-18.8 0-33-14.2-33-33.1 0-18.9 14.2-33.1 33-33.1s33 14.2 33 33.1c0 18.9-14.2 33.1-33 33.1zM6.8 383.4c-7.9-6.4-17.3-7-22.2-7-11 0-23.2 5.1-27.6 15.1h-.3v-13.4H-47v69.6h3.7v-40.1c0-17.5 10.8-27.8 28.2-27.8 10.5 0 16.1 3.4 19.7 6.6 5.3 4.7 8.5 12.5 8.5 24.6v36.8h3.7V411c.1-12.5-3.1-21.8-10-27.6zm30.5-5.2H41v69.6h-3.7v-69.6zm55.9 67.9c-17.7 0-33-13.4-33-33.1 0-9.5 3.9-18.6 9.6-23.8 7.2-6.4 13.7-9.3 23.5-9.3 13.7 0 25.7 7.6 30.5 20.9h4.1c-5.5-16.4-20.5-24.3-34.7-24.3-21.1 0-36.6 16-36.6 36.6 0 21.7 16.4 36.4 36.6 36.4 16.5 0 29.7-9.5 34.5-23.6h-4.1c-3.3 10.3-14.6 20.2-30.4 20.2z"/><circle class="st0" cx="-153.4" cy="356.6" r="4"/><circle class="st0" cx="39.1" cy="356.6" r="4"/><circle class="st0" cx="-293" cy="401.1" r="36.3"/><path class="st0" d="M-218.9 339.5c0-6.9-5.6-12.5-12.5-12.5-3.1 0-6 1.2-8.2 3.1-14.9-11.2-33.4-17.9-53.4-17.9-49 0-88.9 39.9-88.9 88.9 0 49 39.9 88.9 88.9 88.9s88.9-39.9 88.9-88.9c0-20-6.7-38.5-17.9-53.4 2-2.2 3.1-5.1 3.1-8.2zM-293 487c-47.4 0-85.9-38.5-85.9-85.9s38.5-85.9 85.9-85.9c19.3 0 37.1 6.4 51.4 17.1-1.4 2-2.3 4.5-2.3 7.2 0 6.9 5.6 12.5 12.5 12.5 2.7 0 5.2-.9 7.2-2.3 10.7 14.3 17.1 32.2 17.1 51.4.1 47.4-38.5 85.9-85.9 85.9z"/></svg>