<svg id="Layer_1" xmlns="http://www.w3.org/2000/svg" viewBox="212 147 1704 507"><style>.st0{fill:gray}</style><path class="st0" d="M1537 373.1c27.6 32.9 54.9 65.5 82.9 98.9h-55.6c-22.1-26.1-44.4-52.5-66.8-78.9-.5.1-1 .3-1.4.4-.3 26 .1 52-.2 78.5H1452c-1.2-3.8-1.6-239.5-.4-246.2h43.9c.2 2.3.5 4.7.5 7.1v116c0 2.3.2 4.5.3 6.8l1.1.6c21-21.9 42-43.8 62.9-65.7h56.1c.2.3.4.6.7.8-26.3 27.3-53.3 54-80.1 81.7zm-340.7 45.5v41.3c-9.9 7.6-21.3 12.1-33.5 14.5-17.4 3.3-34.8 3.8-52-.8-32.4-8.6-53.3-29.5-61.7-61.8-8.2-31.6-5.1-62.2 12.2-90.4 13.3-21.7 33.1-34 58.6-37.1 14.2-1.7 28-.4 41.2 4.7 22.2 8.5 35.3 25.4 42.2 47.5 3.6 11.3 5.1 23 5.1 34.9v19.5c-2.9.2-5.3.4-7.7.5h-103c-2.5 0-4.9.2-8.2.4.9 4 1.3 7.6 2.4 11 6.4 21.1 22.9 31.9 43.6 33.7 21.2 1.9 40.2-3.7 57.3-16.1 1-.5 1.9-.9 3.5-1.8zm-31.5-63.3c-.9-9-3.7-16.7-9.7-23-8.2-8.6-18.5-10.3-29.8-9.3-15.2 1.4-30.4 16.7-31.9 32.2 23.7.1 47.3.1 71.4.1zm-233 64v40.4c-5.6 4.9-12.3 8.3-19.4 10.7-25.1 8.4-50.3 9.1-75.4.2-21.6-7.7-37.7-22.2-46.7-43.3-14.7-34.5-13.3-69 4.4-102 13-24.1 33.8-37.8 61.4-41 11.8-1.4 23.3-.5 34.6 2.7 20.3 5.7 34.7 18.6 43.7 37.5 9.9 20.9 10.5 43.4 10.1 66.6-2.7.2-5.1.4-7.5.5H833.5c-2.4 0-4.9.2-8.1.4.8 3.9 1.4 7.3 2.3 10.6 5.8 20 21.4 32.1 43.3 34.1 21.1 2 40.2-3.4 57.3-15.9.5-.4 1.1-.7 1.7-1.1.3-.2.6-.2 1.8-.4zm-31.4-63.9c-.2-2.1-.2-3.8-.5-5.3-5.2-22.8-23.2-30.3-42-26.3-13.8 2.9-22 12.4-27.1 24.9-.8 2-1.3 4.2-2.1 6.8 24.1-.1 47.5-.1 71.7-.1zM686.7 471.7V267.4h-81.4c-1.5-4.1-1.8-35.4-.5-41.5h211.5v41.2h-82.4v204.1c-4.5 1.5-39.6 1.9-47.2.5zm286.7-246h44.7v246.4c-14.8.7-29.6.4-44.7.2V225.7zm310.5 77.6c9.9-11.2 21.3-19.4 36.9-19 7.4.1 15 0 21.7 4.2v47.1c-1.2-.5-2.1-.8-2.9-1.3-9.7-6-20.2-7.7-31.1-5-14.9 3.7-25.8 18.1-25.8 33.5v108.6c-4.3 1.5-38.9 1.8-45 .5V291h44.9v11.8c.4.1.8.3 1.3.5zM1417.4 472H1374c-1.5-3.8-2-174-.5-181.1h43.9V472zm5.4-226.8c-.1 14.9-12.4 26.9-27.6 26.9-15.1 0-27.4-12.3-27.4-27.2 0-14.8 12.5-27.2 27.4-27.2 15.2-.1 27.6 12.3 27.6 27.5zM687.1 623.6V521.7c2.1-.2 3.8-.6 5.6-.6 10 .1 20 0 30 .3 22.5.8 40.1 16.2 44.1 38.3 2.2 12.3 1.9 24.6-3.1 36.2-7.3 17.1-20.8 26.2-38.9 27.8-11.6 1-23.3.3-34.9.3-.8.1-1.4-.1-2.8-.4zm7.8-6.9c9.6 0 18.9.4 28.1-.1 19-1.1 31.5-14.1 35.2-30.1 1.8-7.7 2.1-15.4 1-23.2-2.4-17.1-14.2-30.8-31-33.5-10.6-1.7-21.5-.9-32.3-1.1-.3 0-.5.4-1 .7v87.3zm413.5-66.5c.3 3.6.4 6.2.7 9.7 1.5-1.2 2.5-1.8 3.3-2.7 15.2-14.8 39-10.9 48 8.3 6.7 14.3 6.6 29.1-.1 43.4-9 19-33.8 22.5-47.8 8.1-.8-.8-1.7-1.5-3.5-3.1-.4 13.4 0 25.8-.3 38.6h-7.2V550.6c2.1-.1 4.3-.2 6.9-.4zm.4 36.9c0 4-.1 8 .1 12 .1 2.1.2 4.5 1.3 6.2 5.3 8.7 12.7 13.9 23.4 13.3 9.8-.6 16.6-5.8 20.4-14.5 4.9-11.2 4.9-22.7 0-33.9-3.8-8.8-10.7-13.6-20.4-14.6-11.2-1.2-27.1 9.7-24.8 22.6.4 2.8 0 5.9 0 8.9zm253.9 26.9v38.7c-2.5.1-4.7.2-6.8.3-1.5-4.5-1.7-96.9-.2-102.4h6.5c.2 2.9.5 5.8.8 9.4 1.4-1.3 2.2-2 3-2.8 13.3-14.5 40.4-11.3 48.9 10.3 5.3 13.5 5.2 27-.5 40.3-8.5 19.7-34.2 24.4-48.9 8.8-.6-.6-1.2-1.1-2.8-2.6zm21.7 4.7c10.2 0 17.3-4.1 21.7-12.2 6.5-12.3 6.5-25 .7-37.4-4.1-8.7-11.4-13.4-21.1-13.4-9.9-.1-17.1 4.8-22 13.1-.8 1.3-1 3.1-1.1 4.7-.1 9.2-.1 18.3 0 27.5 0 1.6.3 3.4 1.1 4.7 5 7.9 11.8 12.9 20.7 13zm100.9-5.9v6.7c-7.5 5.8-16.4 7.2-25.7 6.1-20.1-2.4-29.1-16.8-30.3-34.4-.7-10 1-19.6 6.2-28.3 8.8-15 26.7-17.4 38.8-11.8 3.1 1.4 6.1 3.7 8.2 6.3 7 8.4 8.7 18.3 8 29.8h-53.6c0 10.1 1.9 18.8 9.2 25 12.5 10.5 25.7 8.2 39.2.6zm-2-31.8c-.7-9.5-2.7-17.8-10.9-22.9-7.6-4.7-15.7-4.3-23.1.6-7.8 5.1-11 12.8-11.8 22.3h45.8zm-647.9 31.4c.1 1.2.2 1.9.2 2.6v4.3c-7.7 6.1-16.6 7.6-25.8 6.5-22.2-2.7-29.3-18.8-30.5-33.8-.8-9.2.6-18.2 4.8-26.7 7.6-15.1 23.6-20.1 38.5-14.9 6.1 2.2 10.5 6.4 13.3 12.1 3.8 7.4 5.3 15.3 4.5 24.6h-53.5c.1 11.4 2.5 21 11.6 27 12.1 8.1 24.5 6.2 36.9-1.7zm-2.3-31.3c-.3-9.7-2.7-17.7-10.7-22.9-7-4.7-16.9-4.2-23.9 1-7.2 5.3-10.6 12.7-10.9 22 15.3-.1 30-.1 45.5-.1zm1015.2 31.6v6.8c-7.4 5.8-16.3 7.3-25.3 6.2-17.4-2.2-27.4-12.8-30.1-30.3-1.6-10.2-.3-20 3.9-29.2 6.6-14.4 21.4-21 36.6-16.6 6 1.7 10.8 5.2 14.2 10.4 5.2 8 6.7 16.9 5.9 27.1h-53.4c0 10.7 2.1 19.9 10.2 26 12.2 9.2 24.9 7.3 38-.4zM1846 581c.2-9.2-2.3-16.9-9.6-22.1-7.3-5.2-15.4-5.1-23.1-.7-8.5 4.9-11.7 13-12.9 22.8h45.6zm-867 6.2h-52.4c-.6 10.5 1.8 19.4 9.6 25.6 12.2 9.7 25 7.5 38 .3.2 1.2.3 2.1.4 3.1.1 1 0 2 0 3.3-7.5 5.9-16.3 7.4-25.3 6.3-18.1-2.3-28.8-14-30.3-32.2-.7-8.7-.2-17.3 3.2-25.5 6.4-15.5 21.5-23.1 37.4-18.3 4 1.2 7.7 3.8 11 6.4 6.1 4.7 11.3 20.3 8.4 31zm-51.8-6.3H972c1.4-14.1-7.8-25.5-20.5-25.9-13.1-.3-24.9 12-24.3 25.9zm338.5 38.6c-7.8 5.7-16.4 7.3-25.3 6.1-18.4-2.5-28.9-14.1-30.3-32.7-.7-9.1 0-17.9 3.8-26.3 7.3-15.8 22.3-21.1 37.7-16.9 1.9.5 3.7 1.6 5.4 2.5 10 5.4 16.1 22.3 13 34.8h-52.5c-.3 11 2.1 20.4 10.8 26.5 11.8 8.4 24.1 6.7 37-.8.1 2.7.3 4.7.4 6.8zm-2.6-38.5c.9-14.7-8.2-25.7-20.9-25.9-13-.2-24.4 11.9-23.9 25.9h44.8zm374.9 6.3h-52.4c-.3 10.5 1.9 19.5 10.1 25.8 12.1 9.4 24.8 7.1 37.7 0v6.6c-5.1 4.7-12 5.9-19 6.2-20.2.9-34.7-12.3-36.3-32.4-.8-9.9 0-19.6 4.7-28.6 7.5-14.5 22.6-19.3 37.3-14.9 1.1.3 2.1.9 3.2 1.4 11.9 5.3 17.8 23.6 14.7 35.9zm-51.8-6.9c3.8 1.3 40.2 1.5 44.8.2 1.6-13.2-7.4-24.7-19.9-25.5-13.3-.9-25 11-24.9 25.3zm-500.7 6.9c-.4 10-2.5 19.2-8.8 27.2-13.7 17.3-44.2 15.6-53.8-8.6-4.5-11.4-4.7-23-1-34.7 3.7-12 14.4-23.9 33-22.7 13.6.8 25 10.4 28.7 25.1 1 4.4 1.3 9.1 1.9 13.7zm-8.3 0c.4-7.2-1-14.3-4.9-20.8-9.3-15.3-30.7-15.6-39.6-.2-7.8 13.5-7.8 27.9 0 41.4 8.8 15.2 30 15.1 39.4.3 3.9-6.1 5.4-13 5.1-20.7zm578.2-36.7h6.9c.2 3.2.4 6.1.7 10.1 1.8-1.7 3.1-2.8 4.3-4 7.5-7.3 16.5-9.7 26.6-7.5 11 2.4 18.1 10.2 18.5 21.9.5 17.1.1 34.3.1 51.5 0 .3-.2.6-.5 1.3h-6.5c-.1-1.8-.3-3.6-.3-5.4v-43c-.7-16.3-15-24.8-29.7-17.4-5.3 2.6-9.2 6.6-11.7 11.9-.8 1.7-1 3.8-1 5.8-.1 14 0 28 0 42v6.1c-2.4.1-4.6.3-7.2.4-.2-24.8-.2-48.9-.2-73.7zm256 4.1v8.1c-2.1-1.3-3.7-2.3-5.4-3.2-8.1-4.4-16.4-6.3-25.3-2.6-6.8 2.9-9.9 9.6-6.6 15.3 1.5 2.7 4.5 5 7.3 6.3 5.5 2.7 11.4 4.6 17.1 6.8 2 .8 4 1.6 5.9 2.6 7 3.9 10.7 9.8 10.3 17.9-.4 7.9-4.4 13.6-11.5 16.7-13.1 5.7-25.6 3.5-37.7-3.7v-8c1.7 1 3.2 1.8 4.5 2.6 7.7 4.8 16.1 6.2 24.9 4.7 10.1-1.7 15.5-11.3 10.4-19-1.8-2.7-5-4.8-8-6.3-4.3-2.1-9-3.4-13.5-5.2-3.2-1.3-6.5-2.6-9.5-4.3-6.2-3.5-9.1-9-9-16.1.2-7.1 3.4-12.7 9.7-15.7 12.6-5.8 24.7-3.8 36.4 3.1zm-597.8 31.5c8.8 12.3 17.6 24.6 26.9 37.5h-8.5c-7.2-9.9-14.7-20.2-22.7-31.2-8.7 10.2-15.4 21.3-23.6 31.4h-7.9c9.2-12.8 17.9-24.8 27.1-37.4-8.4-11.7-16.7-23.4-25.7-35.8h8.5c6.9 9.5 14 19.3 21.6 29.9 7.6-10.4 14.8-20.2 22-30.1h7.8c-8.3 12.5-17.3 23.6-25.5 35.7zm-433.4 26c8-20.5 16-40.9 24.1-61.6h7.9c-9.8 24.9-19.4 49-29 73.3H876c-9.6-24-19.2-48.2-29.2-73.2 3-.2 5.3-.4 8-.6C863 571 871 591.5 879 612l1.2.2zm901.3.5v7.1c-6.9 5.2-14.8 7.1-23.3 5.8-17.9-2.7-29.1-15.6-30.2-33.7-.6-9.3.3-18.2 4.9-26.6 9.4-17 29-20.2 43.2-14.2 1.9.8 3.7 2.2 5.6 3.3v4.7c0 .6-.2 1.2-.4 2.2-2.3-1.2-4.3-2.4-6.3-3.4-14-6.6-29.8-1.1-36.1 13-4.9 10.9-4.9 22.1.3 32.9 8.1 17 26.3 17.7 37.4 11.7 1.3-.7 2.7-1.5 4.9-2.8zm-152.3-293.9c0-19.7 14.4-34.3 33.8-34.2 19.2 0 33.8 14.9 33.7 34.4 0 16.4-11.3 33.6-33.9 33.7-21.8.1-34-17-33.6-33.9zm33.7 28.8c15.9 0 28.2-12.6 28.2-28.8 0-16.4-12.6-29.3-28.4-29.3-16.1.1-28.1 12.7-28.1 29.4.1 16.4 12.3 28.7 28.3 28.7zm-667.2 168h7.6v108h-7.6v-108zm518 108.1c-1.8.2-3 .4-4.1.4-1 0-1.9-.3-3.1-.4v-73c2.2-.1 4.4-.2 6.9-.4.4 3.4.8 6.3 1.4 10.5 6.6-9.6 14.6-14.2 25.8-11.5v6.6c-1.7 0-3 .1-4.3 0-11.9-.6-22 8.6-22.1 20.6l-.1 40.4c0 2.1-.2 4.3-.4 6.8zm40.7-73.1h6.9v73.2c-2.1.1-4.2.2-6.9.4v-73.6zm-2.2-23.7c1.9-4.7 3.4-6 6.7-5.3 2.7.5 3.9 2.4 4 5 .1 2.6-1.1 4.5-3.6 5.3-3.1.9-5-.5-7.1-5zm97.3-226.2c6.4 0 12.6-.4 18.7.1 5.2.4 9.1 3.5 10.2 8.9 1 5.2.3 10-4.6 13.2l-1.5 1.4c2.2 3.6 4.3 7.2 6.9 11.4h-9.7c-4-2.7-3.7-9.9-10.8-10.8v10.8h-9.1c-.1-11.4-.1-22.8-.1-35zm19.3 14.6c1-6.3-1.9-8.1-9.9-6v8c3.8.1 7.3 1.2 9.9-2zM383.5 232.7L297.8 147 212 232.8l33.9 33.9 51.9-51.9 51.8 51.8-85.9 85.9 119.7 119.7 119.9-119.9-85.7-85.7 51.4-51.4 51.9 51.9 33.9-33.9-85.9-85.8-85.4 85.3zm51.8 119.8l-51.9 51.9-51.8-51.8 51.9-51.9 51.8 51.8z"/></svg>