<svg id="Layer_1" xmlns="http://www.w3.org/2000/svg" viewBox="-489 366 300 70"><style>.st0{display:none}.st1{display:inline;fill:#662d91}.st2{fill:gray}</style><path class="st0 st1" d="M-237.7 1109.8h-2.6l1.1-4.8-2.4 4.8h-1.8l-.1-4.8-1.2 4.8h-2.6l2-9h3.6l.1 5 2.4-5h3.6l-2.1 9zm3.1 0h-2.4l1.5-6.7h2.4l-1.5 6.7zm1.6-7.5h-2.4l.3-1.5h2.4l-.3 1.5zm4.1 3.4c0-.1.1-1.1-.7-1.1-1.5 0-2.5 3.7-.9 3.7.8 0 1.1-.8 1.2-1h2.5c0 .1-.8 2.7-4.1 2.7-4.5-.1-3.3-7.3 1.8-7 2.9.2 2.7 2.6 2.7 2.7h-2.5zm7.2-1.2c.8-1 2-1.7 3.7-1.6 2.3.1 3.2 1.8 2.8 3.6 0 .2-.2.2-.4.3l-2 .7h4.5s-.4 1 1.1 1c1 0 1.4-1.1 0-1.3-.6-.1-2.9-.5-2.7-2.3.2-1.5 1.8-2 3.5-2 3.5.1 2.8 2.1 2.9 2.2h-2.3s.2-.8-.8-.8-1.2.8-.1 1.1c1.3.3 2.9.4 3 2.1 0 .5-.2 2.7-3.7 2.7-3.1 0-3.4-1.4-3.4-2.2-.6 1.2-2.1 2.2-4 2.2-2.9-.1-3.6-2.8-2.5-4.8-.5 0-1.6.3-2.1 2.3l-.5 2.4h-2.3l1.5-6.7h2.2l-.2.8c.3-.4.7-.6 1.1-.8.4-.1.7-.2 1.1-.2l-.4 1.3zm2.2 3.8c1.7.4 2.9-3.6 1.3-3.9-1.6-.2-2.8 3.6-1.3 3.9zm14.2 1.7c-4.9-.2-3.4-7.4 1.6-7.1 4.6.3 3.3 7.4-1.6 7.1zm.1-1.7c1.7.4 2.8-3.6 1.3-3.9-1.6-.2-2.8 3.6-1.3 3.9zm12.5-3.6h-1.1l-.6 2.9c0 .1-.1.3 0 .5.1.3 1 .2 1 .2l-.4 1.5s-1.9.2-2.6-.2c-.3-.2-.6-.6-.4-1.5l.7-3.4h-1.3l-1.1 5.1h-2.4l1.1-5.1h-1.2l.3-1.6h1.2c.2-1 .4-1.4.9-1.8.8-.6 2.6-.3 2.6-.3l-.3 1.2c-.8 0-.8.3-.9.8v.2h1.4l.4-1.6h2.2l-.4 1.6h1.2l-.3 1.5zm1.4-.1c-.4 0-.7-.3-.7-.7 0-.4.3-.7.7-.7.4 0 .7.3.7.7.1.3-.3.7-.7.7zm0-1.4c-.3 0-.6.3-.6.6s.3.6.6.6.6-.3.6-.6c.1-.3-.2-.6-.6-.6zm.1.7l.2.3h-.1l-.1-.3h-.1l-.1.3h-.1l.2-.8h.3c.2 0 .2.1.2.2-.2.2-.2.3-.4.3zm0-.4h-.2v.2h.1c.1 0 .2 0 .3-.1 0 0-.1-.1-.2-.1z"/><path class="st2" d="M-394.3 385.5l-11.5 31.2h-4l-11.4-31.2h4.1l8.7 24.8c.3.9.5 1.8.6 2.8h.1c.1-.7.3-1.6.7-2.8l8.8-24.7 3.9-.1zM-369.6 410.8c0 1.9-.7 3.5-2.2 4.7s-3.5 1.8-5.9 1.8c-2.1 0-4-.5-5.5-1.4V412c1.8 1.4 3.7 2.1 5.8 2.1 2.8 0 4.2-1 4.2-3.1 0-.8-.3-1.5-.8-2.1-.6-.5-1.8-1.2-3.8-2.1-2-.8-3.4-1.7-4.2-2.7s-1.2-2.2-1.2-3.8c0-1.8.7-3.4 2.2-4.6 1.5-1.2 3.4-1.9 5.6-1.9 1.8 0 3.3.3 4.8 1v3.6c-1.5-1.1-3.1-1.6-5.1-1.6-1.2 0-2.1.3-2.8.9-.7.6-1.1 1.3-1.1 2.2 0 1 .3 1.7.8 2.3.6.5 1.7 1.2 3.4 1.9 2.1.9 3.6 1.8 4.5 2.8.8 1.1 1.3 2.3 1.3 3.9zM-347.8 416.6h-3.6v-3.5h-.1c-1.5 2.7-3.8 4.1-6.9 4.1-5.3 0-8-3.2-8-9.5v-13.3h3.6v12.8c0 4.7 1.8 7 5.4 7 1.8 0 3.2-.6 4.3-1.9 1.1-1.3 1.7-3 1.7-5v-12.9h3.6v22.2zM-326.4 416.6h-3.6v-3.5h-.1c-1.6 2.7-3.8 4-6.9 4-2.1 0-3.9-.6-5.2-1.8-1.3-1.2-1.9-2.7-1.9-4.7 0-4.2 2.5-6.6 7.4-7.3l6.7-.9c0-3.8-1.5-5.7-4.6-5.7-2.7 0-5.1.9-7.3 2.7v-3.7c.7-.5 1.8-1 3.4-1.4 1.6-.5 3-.7 4.2-.7 5.2 0 7.9 2.8 7.9 8.3v14.7zm-3.6-11.3l-5.4.8c-1.8.3-3.1.7-3.9 1.3-.7.6-1.1 1.6-1.1 3 0 1.1.4 2 1.2 2.7.8.7 1.8 1 3.1 1 1.8 0 3.2-.6 4.4-1.9 1.2-1.2 1.7-2.8 1.7-4.7v-2.2zM-317.6 416.6h-3.6v-33h3.6v33zM-289.3 408.8c0 2.6-.9 4.7-2.8 6.2s-4.4 2.2-7.6 2.2c-1.2 0-2.5-.2-3.9-.6-1.5-.4-2.5-.8-3.1-1.2v-4.3c.9.8 2.1 1.5 3.5 2s2.8.8 4 .8c4 0 6-1.6 6-4.7 0-1.3-.4-2.4-1.3-3.4-.9-.9-2.6-2.2-5.3-3.7-2.6-1.5-4.4-2.8-5.4-4.1s-1.5-2.9-1.5-4.8c0-2.5.9-4.5 2.8-6 1.8-1.5 4.2-2.3 7.1-2.3 2.8 0 4.9.4 6.1 1.1v4.1c-1.6-1.3-3.7-1.9-6.3-1.9-1.7 0-3.1.4-4.2 1.3s-1.6 2-1.6 3.4c0 1 .2 1.9.5 2.5.3.6.9 1.2 1.7 1.9.8.6 2.1 1.4 3.9 2.5 2.8 1.5 4.7 3 5.8 4.4 1.1 1.3 1.6 2.8 1.6 4.6zM-275 416.5c-.9.5-2 .7-3.4.7-3.9 0-5.8-2.2-5.8-6.6v-13.2h-3.8v-3h3.8V389l3.6-1.2v6.6h5.6v3h-5.6V410c0 1.5.3 2.6.8 3.2.5.6 1.4.9 2.5.9.9 0 1.7-.2 2.3-.7v3.1zM-253.5 416.6h-3.5v-3.5h-.1c-1.5 2.7-3.8 4.1-6.9 4.1-5.3 0-8-3.2-8-9.5v-13.3h3.6v12.8c0 4.7 1.8 7 5.4 7 1.8 0 3.2-.6 4.3-1.9 1.1-1.3 1.7-3 1.7-5v-12.9h3.6l-.1 22.2zM-229 416.6h-3.6v-3.8h-.1c-1.7 2.9-4.2 4.3-7.7 4.3-2.8 0-5.1-1-6.7-3-1.7-2-2.5-4.7-2.5-8.1 0-3.7.9-6.7 2.8-8.9s4.3-3.4 7.4-3.4c3.1 0 5.3 1.2 6.7 3.6h.1v-13.8h3.6v33.1zm-3.6-10.1v-3.3c0-1.8-.6-3.4-1.8-4.6-1.2-1.2-2.7-1.8-4.5-1.8-2.2 0-3.9.8-5.1 2.4-1.3 1.6-1.9 3.8-1.9 6.6 0 2.6.6 4.6 1.8 6.1s2.8 2.2 4.8 2.2 3.6-.7 4.8-2.1c1.3-1.4 1.9-3.2 1.9-5.5zM-194 405.5c0 3.5-1 6.4-3 8.6-2 2.2-4.7 3.2-8.1 3.2-3.3 0-5.9-1-7.9-3.1s-3-4.9-3-8.3c0-3.7 1-6.6 3-8.7 2-2.1 4.8-3.2 8.3-3.2 3.3 0 5.9 1 7.8 3.1 2 1.9 2.9 4.7 2.9 8.4zm-3.7 0c0-2.8-.6-5-1.9-6.4-1.2-1.5-3-2.2-5.3-2.2s-4.1.8-5.4 2.3c-1.3 1.5-2 3.7-2 6.5 0 2.7.7 4.8 2 6.3s3.2 2.3 5.4 2.3c2.3 0 4.1-.7 5.3-2.2 1.3-1.6 1.9-3.8 1.9-6.6zM-387.1 387c0 .7-.2 1.2-.7 1.7-.5.4-1 .7-1.7.7s-1.2-.2-1.7-.6c-.5-.4-.7-1-.7-1.7 0-.6.2-1.2.7-1.6.4-.5 1-.7 1.7-.7s1.2.2 1.7.7c.4.3.7.8.7 1.5zm-.7 29.8h-3.6v-22.3h3.6v22.3zM-219.4 387c0 .7-.2 1.2-.7 1.7-.5.4-1 .7-1.7.7s-1.2-.2-1.7-.6c-.5-.4-.7-1-.7-1.7 0-.6.2-1.2.7-1.6.4-.5 1-.7 1.7-.7s1.2.2 1.7.7c.4.3.7.8.7 1.5zm-.6 29.8h-3.6v-22.3h3.6v22.3zM-449.9 375l-20.7 20.7-13.2-10.3-5.2 2.7v26l5.2 2.6 13.2-10.3 20.7 20.7 13-5.2v-41.7l-13-5.2zm-33.9 33.8v-15.6l7.8 7.8-7.8 7.8zm20.1-7.8l13.8-10.7v21.4l-13.8-10.7z"/><g><path class="st2" d="M-189 396.2c0 1.4-1.1 2.5-2.6 2.5-1.4 0-2.6-1.1-2.6-2.5s1.1-2.5 2.6-2.5 2.6 1.1 2.6 2.5zm-4.5 0c0 1.1.8 2 2 2 1.1 0 1.9-.9 1.9-2s-.8-2-1.9-2c-1.2 0-2 .9-2 2zm1.5 1.4h-.6V395c.2 0 .6-.1 1-.1.5 0 .7.1.9.2.1.1.2.3.2.6s-.2.5-.5.6c.2.1.4.3.5.6.1.4.1.5.2.6h-.7c-.1-.1-.1-.3-.2-.6 0-.3-.2-.4-.5-.4h-.3v1.1zm0-1.5h.3c.3 0 .6-.1.6-.4 0-.2-.2-.4-.5-.4h-.3v.8h-.1z"/></g><g><path class="st2" d="M-432.1 417.8v.5h-.9v2.5h-.6v-2.5h-.9v-.5h2.4zm3.2 3l-.1-1.7v-.8c-.1.3-.2.6-.2.9l-.5 1.6h-.6l-.7-1.7c-.1-.2-.1-.6-.2-.8v.8l-.1 1.7h-.6l.2-2.9h.9l.5 1.4c.1.2.1.4.2.7.1-.3.1-.5.2-.7l.5-1.5h.8l.2 2.9-.5.1z"/></g></svg>