<?xml version="1.0" encoding="utf-8"?>
<!-- Generator: Adobe Illustrator 19.1.0, SVG Export Plug-In . SVG Version: 6.00 Build 0)  -->
<!DOCTYPE svg PUBLIC "-//W3C//DTD SVG 1.1//EN" "http://www.w3.org/Graphics/SVG/1.1/DTD/svg11.dtd">
<svg version="1.1" id="Layer_1" xmlns="http://www.w3.org/2000/svg" xmlns:xlink="http://www.w3.org/1999/xlink" x="0px" y="0px"
	 viewBox="0 0 52 87" style="enable-background:new 0 0 52 87;" xml:space="preserve">
<style type="text/css">
	.st0{fill:#FF0000;}
	.st1{fill:#FFFFFF;}
</style>
<rect class="st0" width="52" height="87"/>
<path class="st1" d="M31.8,64.6h-3.6l-2-4.5H22l4-9.3L31.8,64.6L31.8,64.6z M38.4,64.5V42h-9.5L38.4,64.5L38.4,64.5z M23,42h-9.5
	v22.3L23,42L23,42z M38.5,74.6h-2.7c0.1,0.9,0.4,1.4,1.2,1.4c0.4,0,0.7-0.1,1-0.3l0.3,1.2c-0.3,0.2-0.5,0.3-1.4,0.4
	c-1.7,0-2.5-1.3-2.5-3c0-1.7,0.8-3.1,2.1-3.1c1.5,0,1.9,1.4,1.9,3.1C38.5,74.4,38.5,74.5,38.5,74.6z M37.1,73.5
	c-0.1-0.7-0.3-1.1-0.6-1.1c-0.3,0-0.6,0.5-0.7,1.1H37.1z M28.8,74.3c0,1.7-0.7,3.1-2.1,3.1c-1.4,0-2.1-1.4-2.1-3.1
	c0-1.7,0.7-3.1,2.1-3.1C28.1,71.2,28.8,72.6,28.8,74.3z M27.3,74.3c0-1-0.3-1.9-0.7-1.9s-0.7,0.8-0.7,1.9s0.3,1.9,0.7,1.9
	S27.3,75.3,27.3,74.3z M33.7,74.3c0,1.2-0.6,3-1.9,3c-0.4,0-0.8-0.2-1.1-0.4v0.3h-1.3v-8.4H31v2.6c0.3-0.1,0.5-0.2,0.8-0.2
	C33.2,71.2,33.7,73.1,33.7,74.3z M32.3,74.4c0-0.7-0.2-1.8-0.7-1.9c-0.3,0-0.5,0.2-0.6,0.5v2.5c0.1,0.4,0.3,0.7,0.6,0.6
	C32,76.2,32.3,75,32.3,74.4z M23.6,68.9v8.4h-1.3V77c-0.3,0.2-0.6,0.4-1.1,0.4c-1.2,0-1.9-1.8-1.9-3c0-1.2,0.6-3.1,1.9-3.1
	c0.3,0,0.6,0.1,0.8,0.2v-2.6H23.6z M22.1,73c-0.1-0.3-0.3-0.6-0.6-0.5c-0.5,0.1-0.7,1.2-0.7,1.9c0,0.7,0.3,1.8,0.7,1.8
	c0.3,0,0.5-0.3,0.6-0.6V73z M19.1,77.3h-1.5l-0.4-2.1h-1.4l-0.4,2.1H14l1.8-8.2h1.5L19.1,77.3z M17.1,73.9l-0.5-2.5l-0.5,2.5H17.1z"
	/>
</svg>
