<svg xmlns="http://www.w3.org/2000/svg" viewBox="0 0 368 190" enable-background="new 0 0 368 190"><style type="text/css">.st0{opacity:0.2;} .st1{fill:#808080;} .st2{fill:#4D4D4D;} .st3{fill:#132133;} .st4{fill:#B6C3D4;} .st5{fill:none;stroke:#333333;stroke-width:0.4126;stroke-miterlimit:10;} .st6{fill:#333333;} .st7{fill:none;stroke:#CCCCCC;stroke-width:1.25;stroke-linecap:round;stroke-miterlimit:10;} .st8{fill:none;stroke:#CCCCCC;stroke-width:1.25;stroke-linecap:round;stroke-linejoin:round;stroke-miterlimit:10;} .st9{fill:#02050A;} .st10{fill:#071829;} .st11{fill:#181C21;} .st12{fill:#31302C;} .st13{fill:#3E5D7E;} .st14{opacity:0.5;fill:#FAFEFF;} .st15{opacity:0.5;} .st16{fill:#798B99;} .st17{opacity:0.25;} .st18{fill-rule:evenodd;clip-rule:evenodd;fill:#E6E6E6;} .st19{fill:#0F0E14;}</style><path d="M30.1 187.2c-14.9 0-26.9-12.1-26.9-26.9-2.6-40.7-2.6-82.3 0-123.7 0-14.8 12.1-26.9 26.9-26.9h301.3c14.9 0 26.9 12.1 26.9 26.9 2.6 40.7 2.6 82.3 0 123.6 0 14.8-12.1 26.9-26.9 26.9h-301.3zm301.3-176.5c14.4 0 26 11.6 26 26 2.6 41 2.6 82.2 0 123.6 0 14.4-11.6 26-26 26h-301.3c-14.4 0-26-11.6-26-26-2.6-41-2.6-82.2 0-123.6 0-14.4 11.6-26 26-26h301.3m0-1.9h-301.3c-15.3 0-27.8 12.5-27.9 27.8-2.6 41.3-2.6 82.9 0 123.7 0 15.3 12.5 27.8 27.9 27.8h301.3c15.3 0 27.8-12.5 27.9-27.8 2.6-41.3 2.6-82.9 0-123.7 0-15.3-12.5-27.8-27.9-27.8z" class="st0"/><path class="st1" d="M36.4 179.7c-14.9 0-26.9-12.1-26.9-26.9-2.6-40.7-2.6-82.3 0-123.6 0-14.8 12.1-26.9 26.9-26.9h301.3c14.9 0 26.9 12.1 26.9 26.9 2.6 40.7 2.6 82.3 0 123.6 0 14.8-12.1 26.9-26.9 26.9h-301.3z"/><path class="st2" d="M337.7 3.2c14.4 0 26 11.6 26 26 2.6 41 2.6 82.2 0 123.6 0 14.4-11.6 26-26 26h-301.3c-14.4 0-26-11.6-26-26-2.6-41-2.6-82.2 0-123.6 0-14.4 11.6-26 26-26h301.3m0-1.9h-301.3c-15.4 0-27.9 12.5-27.9 27.8-2.6 41.3-2.6 82.9 0 123.7 0 15.3 12.5 27.8 27.9 27.8h301.3c15.3 0 27.8-12.5 27.9-27.8 2.6-41.3 2.6-82.9 0-123.7-.1-15.3-12.6-27.8-27.9-27.8z"/><path d="M363.6 153.6h-9v4.3h8.6c.2-1 .3-2 .4-4.3zm-.4-129.5h-8.6v4.9h9c-.1-2.9-.2-4-.4-4.9zM10.6 153.6h9v4.3h-8.6c-.2-1-.3-2-.4-4.3zm.4-129.5h8.6v4.9h-9c.1-2.9.2-4 .4-4.9z" class="st0"/><path class="st3" d="M11.6 91.2c0-20.4.6-41.2 1.9-61.8v-.2c0-12.6 10.3-22.9 22.9-22.9h301.3c12.6 0 22.9 10.3 22.9 22.9v.2c1.3 20.3 1.9 40.9 1.9 61.4 0 20.4-.6 41.2-1.9 61.8v.2c0 12.6-10.3 22.9-22.9 22.9h-301.3c-12.6 0-22.9-10.3-22.9-22.9v-.2c-1.3-20.3-1.9-41-1.9-61.4z"/><path class="st4" d="M19.1 102.9v-23.2c0-4.8 3.9-8.6 8.6-8.6 4.8 0 8.6 3.9 8.6 8.6v23.3c0 4.8-3.9 8.6-8.6 8.6-4.7 0-8.6-3.9-8.6-8.7z"/><path class="st5" d="M45.4 11.5h282v159h-282z"/><path class="st6" d="M47.3 13.4h278.3v155.2h-278.3z"/><path class="st7" d="M23.4 8.1c3.8-2.3 8.2-3.7 13-3.7h301.3c5.5 0 10.6 1.8 14.7 4.8m-335.7 158.5c-3.2-4.2-5.1-9.3-5.1-15v-.1c-1.3-20.3-1.9-41-1.9-61.5s.6-41.3 1.9-61.9v-.1c0-5.6 1.9-10.8 5.1-15m9.8 161.4c-1-.4-2-.9-2.9-1.5m329.2-1.7c-4.2 3.2-9.4 5.2-15.1 5.2h-301.3c-1.5 0-3-.1-4.4-.4"/><path class="st8" d="M358.6 15.9c2.4 3.8 3.9 8.4 3.9 13.3v.1c1.3 20.3 1.9 41 1.9 61.5s-.6 41.3-1.9 61.9v.1c0 4.9-1.4 9.5-3.9 13.3"/><path class="st9" d="M23.4 103.9s-.6 2.6-1.5 5.3c1.5 1.4 3.5 2.3 5.7 2.3-1.3-3-2.6-6.5-2.5-8.8.1-4.6 0-25.9 0-25.9s-.1-2.4-.1-5.3c-1.4.5-2.7 1.3-3.7 2.4 1 2.7 2.1 6.3 2.1 9.8v20.2z"/><path class="st10" d="M21 79.7c0-3.7 3-6.7 6.7-6.7s6.7 3 6.7 6.7v23.3c0 3.7-3 6.7-6.7 6.7s-6.7-3-6.7-6.7v-23.3z"/><circle cx="352.1" cy="57.6" r="2.5"/><circle class="st11" cx="352.1" cy="65.2" r="2.5"/><circle class="st12" cx="352.1" cy="132.4" r="3.5"/><path class="st13" d="M351.9 73.6c1.3 0 2.3 1 2.3 2.3v30.1c0 1.3-1 2.3-2.3 2.3-1.3 0-2.3-1-2.3-2.3v-30.1c0-1.2 1-2.3 2.3-2.3m0-.9c-1.8 0-3.3 1.5-3.3 3.3v30c0 1.8 1.5 3.3 3.3 3.3 1.8 0 3.3-1.5 3.3-3.3v-30.1c0-1.7-1.5-3.2-3.3-3.2z"/><path class="st14" d="M350.2 106v-30.1c0-.9.8-1.7 1.7-1.7.9 0 1.7.8 1.7 1.7v30.1c0 .9-.8 1.7-1.7 1.7-.9 0-1.7-.8-1.7-1.7z"/><circle cx="352" cy="77.4" r=".7"/><circle cx="352" cy="79.4" r=".7"/><circle cx="352" cy="81.4" r=".7"/><circle cx="352" cy="83.4" r=".7"/><circle cx="352" cy="85.4" r=".7"/><circle cx="352" cy="87.4" r=".7"/><circle cx="352" cy="89.4" r=".7"/><circle cx="352" cy="91.4" r=".7"/><circle cx="352" cy="93.4" r=".7"/><circle cx="352" cy="95.4" r=".7"/><circle cx="352" cy="97.3" r=".7"/><circle cx="352" cy="99.3" r=".7"/><circle cx="352" cy="101.3" r=".7"/><circle cx="352" cy="103.3" r=".7"/><circle cx="352" cy="105.3" r=".7"/><path class="st16" d="M30.1 44.7v-7.8c0-.2-.2-.4-.4-.4h-4.3c-.2 0-.4.2-.4.4v7.8c0 .2.2.4.4.4h4.3c.2 0 .4-.2.4-.4zm-1.4-.5h-2.9v-7h3.5v7h-.6zm3.1 2.1v-7.5c0-.2-.2-.4-.4-.4h-.4v7.5h-4.2v.4c0 .2.2.4.4.4h4.2c.2 0 .4-.1.4-.4zm-2 96.6v-3.2h1.1l-1.1-3.3s-.1-.3-.4-.3c-.3 0-.4.3-.4.3l-1.1 3.3h1.1v3.2c0 .9-.8 1.7-1.7 1.7-.9 0-1.7-.8-1.7-1.7v-5.9h-.8v5.9c0 1.4 1.1 2.5 2.5 2.5 1.3.1 2.5-1.1 2.5-2.5z"/><path class="st18" d="M337.9 94.4s.3-.4.4-.6c0 0 .4-.8.5-.9 0 0 .3-.3.6-.1 0 0 .2.1.2.4 0 0 0 .4-.4.4h-.5v1.4h.7s1.2.1 1.2-1.7c0 0 .1-1.4-.7-1.8 0 0-.2-.2-.8-.2h-.5s-.5 0-.9.2c0 0-.2.1-.5.5 0 0-.4.7-.6 1.2 0 0-.3.4-.7.4 0 0-.4 0-.4-.5 0 0 0-.4.4-.4h.5v-1.5h-.7s-1.4 0-1.4 1.9c0 0 0 1.9 1.4 2h.6c.2-.1 1.1 0 1.6-.7zm2.6-7.4l-3.1-.5v-.1l3.1-.5v-2.4l-5.8-.1v1.4h4.4v.1l-4.4.8v1.5l4.4.7v.1l-4.4.1v1.4l5.8-.1v-2.4zm0-8.5l-5.7-1v1.5l4.4.6v.1l-4.4.6v1.5l5.7-.9v-2.4zm-2.5 32.3h-.9v.4h-.9c-.4 0-.5-.4-.5-.4 0-.4.4-.4.4-.4h3.2c.3 0 .3.4.3.4 0 .4-.4.4-.4.4h-.5v1.4c.9 0 1.2-.1 1.2-.1.8-.4.8-1.7.8-1.7 0-2.1-1.7-1.9-1.7-1.9h-3c-1.6 0-1.4 2.1-1.4 2.1.1.9.4 1.2.4 1.2.2.3.5.3.5.3.2.1.7.1.7.1h1.8v-1.8zm-1-4.8v-.1l3.5-1.5v-1.7h-5.8v1.4l3.6-.1v.1l-3.6 1.5v1.7h5.8v-1.5l-3.5.2zm-.8-6.8s-.5 0-.5-.4c0 0 0-.4.5-.4h4.4v-1.6h-4.3s-1.6-.2-1.6 2c0 0 0 1.9 1.6 1.9h4.4v-1.5h-4.5zm1.7-23.7s.3-.4.4-.6c0 0 .4-.8.5-.9 0 0 .3-.3.6-.1 0 0 .2.1.2.4 0 0 0 .4-.4.4h-.5v1.3h.7s1.2.1 1.2-1.7v-.3s-.1-1.1-.7-1.5c0 0-.2-.2-.8-.2h-.5s-.5 0-.9.2c0 0-.2.1-.5.5 0 0-.4.7-.6 1.1 0 0-.3.4-.7.4 0 0-.4 0-.4-.5 0 0 0-.4.4-.4h.5v-1.5h-.7s-1.4 0-1.4 1.9c0 0 0 1.9 1.4 2h.6c.2.1 1.1.2 1.6-.5z"/><circle class="st19" cx="352.1" cy="132.4" r="2.5"/><path id="Content" class="st6" d="M48 14h278v154h-278z"/></svg>