<svg xmlns="http://www.w3.org/2000/svg" width="512" height="177.846" viewBox="0 0 512 177.846"><g fill="#4E8EF7"><path d="M227.792 66.04h3.678v69.597h-3.678zm55.937-1.707c-20.88 0-36.633 15.76-36.633 36.506 0 20.878 15.753 36.504 36.632 36.504 20.88 0 36.638-15.626 36.638-36.505-.002-20.748-15.76-36.507-36.64-36.507zm0 69.597c-18.777 0-32.958-14.182-32.958-33.09 0-18.91 14.18-33.09 32.957-33.09s32.963 14.18 32.963 33.09c-.002 18.908-14.185 33.09-32.964 33.09zm106.1-62.637c-7.88-6.435-17.332-6.96-22.19-6.96-11.03 0-23.245 5.123-27.574 15.102h-.267V66.04h-3.678v69.597h3.677v-40.05c0-17.465 10.77-27.838 28.233-27.838 10.505 0 16.147 3.413 19.694 6.563 5.253 4.728 8.536 12.475 8.536 24.553v36.77h3.68v-36.77c0-12.472-3.284-21.796-10.113-27.573zm30.465-5.252h3.677v69.597h-3.677zm55.938 67.89c-17.73 0-32.96-13.396-32.96-33.09 0-9.455 3.937-18.647 9.586-23.77 7.22-6.434 13.653-9.32 23.504-9.32 13.654 0 25.736 7.613 30.463 20.875h4.072c-5.517-16.413-20.486-24.292-34.667-24.292-21.144 0-36.64 16.02-36.64 36.638 0 21.668 16.414 36.374 36.64 36.374 16.546 0 29.676-9.454 34.533-23.636h-4.068c-3.414 10.374-14.708 20.222-30.465 20.222z"/><circle cx="229.632" cy="44.468" r="3.969"/><circle cx="422.132" cy="44.468" r="3.969"/><circle cx="90.024" cy="88.922" r="36.306"/><path d="M164.115 27.317c0-6.896-5.592-12.484-12.486-12.484a12.42 12.42 0 0 0-8.172 3.06C128.57 6.665 110.062 0 90.023 0 40.99 0 1.1 39.89 1.1 88.923c0 49.03 39.892 88.923 88.924 88.923s88.922-39.892 88.922-88.923c0-20.04-6.665-38.548-17.892-53.436a12.416 12.416 0 0 0 3.06-8.17zM90.023 174.854c-47.382 0-85.932-38.55-85.932-85.932S42.64 2.99 90.024 2.99c19.266 0 37.07 6.374 51.417 17.123a12.42 12.42 0 0 0-2.297 7.203c0 6.895 5.59 12.483 12.484 12.483 2.686 0 5.165-.856 7.202-2.298 10.748 14.348 17.122 32.15 17.122 51.42.002 47.382-38.546 85.932-85.93 85.932z"/></g></svg>