<svg xmlns="http://www.w3.org/2000/svg" viewBox="0 0 570 386"><style>.st0{opacity:.2}.st1{fill:#868991}.st2{fill:#474747}.st3{fill:#444}.st4{fill:#292929}.st5{fill:#1a1a1a}.st6{fill:#5a9c9c}</style><path d="M1.7 368.9V24.1c0-9 7.3-16.4 16.4-16.4h529c9 0 16.4 7.3 16.4 16.4v344.8c0 9-7.3 16.4-16.4 16.4h-529c-9-.1-16.4-7.4-16.4-16.4z" class="st0"/><path class="st1" d="M8 361.4V16.6C8 7.6 15.3.2 24.4.2h529c9 0 16.4 7.3 16.4 16.4v344.8c0 9-7.3 16.4-16.4 16.4h-529c-9.1-.1-16.4-7.4-16.4-16.4z"/><path class="st2" d="M569.8 323.6L101.1.2H52.7L569.8 357zm-35.9 54.1L8.1 15c-.1.5-.1 1-.1 1.6v31.8l477.4 329.4h48.5z"/><path class="st3" d="M10.5 16.6c0-7.6 6.2-13.9 13.9-13.9h529c7.6 0 13.9 6.2 13.9 13.9v344.8c0 7.6-6.2 13.9-13.9 13.9h-529c-7.6 0-13.9-6.2-13.9-13.9V16.6z"/><path class="st4" d="M13 16.6c0-6.3 5.1-11.4 11.4-11.4h529c6.3 0 11.4 5.1 11.4 11.4v344.8c0 6.3-5.1 11.4-11.4 11.4h-529c-6.3 0-11.4-5.1-11.4-11.4V16.6z"/><path class="st5" d="M564.8 136.7l-3.3 2.5v98.7l3.3 2.5zM13 240.4l3.3-2.5v-98.7l-3.3-2.5zM65.6 21.5h446.9v335H65.6z"/><path class="st6" d="M538.1 191.8c-1.6 0-2.8-1.3-2.8-2.8s1.3-2.8 2.8-2.8c1.6 0 2.8 1.3 2.8 2.8s-1.2 2.8-2.8 2.8z"/><path class="st2" d="M538.1 187.7c.7 0 1.3.6 1.3 1.3s-.6 1.3-1.3 1.3-1.2-.6-1.2-1.3.6-1.3 1.2-1.3m0-3.1c-2.4 0-4.4 2-4.4 4.4 0 2.4 2 4.4 4.4 4.4 2.4 0 4.4-2 4.4-4.4 0-2.4-1.9-4.4-4.4-4.4z"/><circle class="st2" cx="40" cy="189" r="2.5"/><path class="st1" d="M456.4 379.4l-1.2-2h25l-1.3 2zm-78.9 0l-1.2-2h64l-1.2 2z"/><path class="st3" d="M456.4 376.7l-1.2.7h25l-1.3-.7zm-78.9 0l-1.2.7h64l-1.2-.7z"/><path id="Content" class="st5" d="M66 22h446v334H66z"/></svg>