<svg id="Layer_1" xmlns="http://www.w3.org/2000/svg" viewBox="-575 347 300 80"><style>.st0{fill:#ed3427}</style><g id="icn_frameworkssvg"><path id="path-3" class="st0" d="M-540.6 413.8c-16.3 4.7-31 .5-33.9-10.1-1.9-6.6 3.3-13.4 2.6-10.2-.4 2-.6 4.2 0 6.1 2.6 9.2 16.3 13 30.4 9 14.1-4 23.7-14.6 21.1-23.7-.5-1.9-1.8-3.8-3.2-5.2-2.3-2.3 5.7.8 7.5 7.3 2.8 10.6-8.2 22.1-24.5 26.8zm1.7-16.6c10.4-13.9 2.3-29.6 4.7-34.4 2.4-4.8 10.5-4.4 10.5-4.4-8.8 9.3 4.1 29.3-15.2 38.8zm-3.9-1.7c-.6.9-1.3 1.5-1.9 2-5.3 4.5-13.2 3.8-22.7 1.3 4.5-5.4 1.7-12.7 2.9-19.4 1.1-6.4 7.6-12 14.9-14.1-9 7.4-8.1 20-6.6 25 .8 2.8 2.3 4.4 4 5.4 9.3 4.4-6.5-25.3 14.3-33.7-7.2 10.6-.4 27.2-4.9 33.5z"/></g><path class="st0" d="M-502.8 390.1c0-6.7 1.9-12.2 5.8-16.3 3.9-4.2 8.6-6.2 14.1-6.2 4.7 0 8.5 1.5 11.5 4.6 3 3.1 4.4 7.2 4.4 12.3 0 3.7-.7 7.1-2.2 10.2-1.1 2.4-2.5 4.4-4.2 6.1-1.7 1.7-3.5 3-5.5 4-2.6 1.2-5.3 1.9-8.2 1.9-3 0-5.8-.7-8.2-2.2s-4.4-3.5-5.6-6c-1.3-2.8-1.9-5.5-1.9-8.4zm4.9.2c0 2.2.5 4.2 1.4 6.1.9 1.9 2.3 3.3 4.1 4.3 1.8 1 3.7 1.6 5.7 1.6 1.9 0 3.8-.5 5.5-1.4 1.8-.9 3.3-2.2 4.7-3.8 1.4-1.6 2.5-3.7 3.3-6 .8-2.4 1.2-4.7 1.2-7.1 0-3.8-1.1-6.8-3.2-9s-4.7-3.3-7.8-3.3c-3.9 0-7.4 1.7-10.5 5.1-2.9 3.3-4.4 7.8-4.4 13.5zM-463.1 405.9l5.7-27.3h4.2l-1 4.8c1.8-1.9 3.6-3.2 5.1-4.1 1.6-.9 3.2-1.3 4.9-1.3 2.2 0 4 .6 5.2 1.8 1.3 1.2 1.9 2.8 1.9 4.8 0 1-.2 2.6-.7 4.8l-3.5 16.6h-4.7l3.6-17.3c.4-1.7.5-2.9.5-3.7 0-.9-.3-1.6-.9-2.2-.6-.6-1.5-.8-2.7-.8-2.4 0-4.5.9-6.4 2.6-1.9 1.7-3.2 4.7-4.1 8.8l-2.7 12.7h-4.4zM-432 396.5l4.7-.3c0 1.3.2 2.5.6 3.4.4.9 1.2 1.7 2.3 2.3 1.1.6 2.4.9 3.9.9 2.1 0 3.6-.4 4.6-1.2 1-.8 1.5-1.8 1.5-2.9 0-.8-.3-1.6-.9-2.3-.6-.7-2.2-1.6-4.6-2.7-2.5-1.1-4-1.8-4.7-2.2-1.1-.7-2-1.5-2.6-2.5-.6-1-.9-2-.9-3.3 0-2.2.9-4 2.6-5.6 1.7-1.5 4.1-2.3 7.2-2.3 3.4 0 6 .8 7.8 2.4 1.8 1.6 2.7 3.7 2.8 6.3l-4.6.3c-.1-1.6-.7-3-1.8-3.9-1.1-1-2.7-1.4-4.7-1.4-1.6 0-2.9.4-3.8 1.1-.9.7-1.3 1.5-1.3 2.4 0 .9.4 1.6 1.2 2.3.5.4 1.8 1.1 4 2.1 3.6 1.5 5.8 2.8 6.7 3.7 1.5 1.4 2.2 3.2 2.2 5.2 0 1.4-.4 2.7-1.2 4-.8 1.3-2.1 2.3-3.8 3.1-1.7.8-3.7 1.2-6 1.2-3.2 0-5.8-.8-8.1-2.3-2.1-1.7-3.2-4.3-3.1-7.8zM-383.7 396.6l4.5.5c-.7 2.2-2.1 4.4-4.5 6.4-2.3 2-5.1 3-8.4 3-2 0-3.9-.5-5.6-1.4-1.7-.9-3-2.3-3.9-4.1-.9-1.8-1.3-3.8-1.3-6.1 0-3 .7-5.9 2.1-8.7 1.4-2.8 3.2-4.9 5.4-6.3 2.2-1.4 4.6-2 7.1-2 3.3 0 5.9 1 7.8 3 1.9 2 2.9 4.8 2.9 8.3 0 1.3-.1 2.7-.4 4.1h-20c-.1.5-.1 1-.1 1.4 0 2.6.6 4.5 1.8 5.9 1.2 1.3 2.6 2 4.3 2 1.6 0 3.2-.5 4.7-1.6 1.5-.9 2.7-2.5 3.6-4.4zm-13.6-6.8h15.3v-1c0-2.3-.6-4.1-1.8-5.4-1.2-1.2-2.7-1.9-4.5-1.9-2 0-3.8.7-5.4 2.1-1.5 1.4-2.8 3.4-3.6 6.2zM-374.8 405.9l5.7-27.3h4.2l-1 4.8c1.8-1.9 3.6-3.2 5.1-4.1 1.6-.9 3.2-1.3 4.9-1.3 2.2 0 4 .6 5.2 1.8 1.3 1.2 1.9 2.8 1.9 4.8 0 1-.2 2.6-.7 4.8L-353 406h-4.7l3.6-17.3c.4-1.7.5-2.9.5-3.7 0-.9-.3-1.6-.9-2.2-.6-.6-1.5-.8-2.7-.8-2.4 0-4.5.9-6.4 2.6-1.9 1.7-3.2 4.7-4.1 8.8l-2.7 12.7h-4.4zM-325.4 368.1h7.7l-4.3 20.5-1.1 5c-.1.4-.1.8-.1 1.2 0 1.5.5 2.7 1.6 3.7s2.7 1.5 4.7 1.5c1.9 0 3.4-.4 4.6-1.1 1.2-.7 2.2-1.8 2.8-3.1.7-1.4 1.3-3.7 2-7.1l4.3-20.6h7.7l-4.3 20.6c-.9 4.3-2 7.7-3.1 10-1.2 2.3-3 4.2-5.4 5.6-2.4 1.4-5.4 2.2-9.1 2.2-4.4 0-7.8-1.1-10.1-3.2-2.3-2.2-3.5-4.9-3.5-8.3 0-.7.1-1.5.2-2.3.1-.5.4-2.1.9-4.7l4.5-19.9zM-290.6 405.9l7.9-37.7h7.7l-7.9 37.7h-7.7z"/></svg>