<?xml version="1.0" encoding="utf-8"?>
<!-- Generator: Adobe Illustrator 19.1.0, SVG Export Plug-In . SVG Version: 6.00 Build 0)  -->
<!DOCTYPE svg PUBLIC "-//W3C//DTD SVG 1.1//EN" "http://www.w3.org/Graphics/SVG/1.1/DTD/svg11.dtd">
<svg version="1.1" id="Layer_1" xmlns="http://www.w3.org/2000/svg" xmlns:xlink="http://www.w3.org/1999/xlink" x="0px" y="0px"
	 viewBox="0 0 283 152" style="enable-background:new 0 0 283 152;" xml:space="preserve">
<style type="text/css">
	.st0{opacity:0.9;}
	.st1{fill:#FFFFFF;}
</style>
<g class="st0">
	<path class="st1" d="M39.6,2c21.2,0,37.1,10.9,37.1,33.4c0,22.4-15.9,34.9-37.1,34.9H24.7v40.3H0V2H39.6z M31.7,50.5
		c9.7,0,19-3.3,19-14.3c0-11.2-9.2-14.5-19-14.5h-7v28.8H31.7z"/>
	<path class="st1" d="M185.8,73.3c-5.9,27.5-28.8,39.2-50.1,39.2c-29.2,0-52.9-25.1-52.9-56.2C82.8,25.1,105.2,0,135.7,0
		c19.1,0,32.4,7.1,41.9,18.6l-16.2,17.8c-6.3-10.1-14.6-14-24.2-14c-15.3,0-27.6,15.1-27.6,34c0,18.4,12.4,33.4,27.6,33.4
		c11.8,0,23.6-7.6,23.6-20.9h-25V49.8h50.1V73.3z"/>
	<path class="st1" d="M228.2,2C258,2,283,24.6,283,56.2c0,31.7-24.9,54.4-54.8,54.4h-31.5V2H228.2z M225.3,88.5
		c18.3,0,30.8-14,30.9-32.1c0-18.2-12.5-32.2-30.9-32.2h-3.8v64.4H225.3z"/>
</g>
<g class="st0">
	<path class="st1" d="M8.5,129.7c0-0.1,0.1-0.1,0.1-0.1h1c0.1,0,0.1,0,0.1,0.1v14c0,4.1-1.9,4.8-3.8,4.8c-0.6,0-1.1-0.1-1.5-0.2
		c-0.1-0.1-0.1-0.1-0.1-0.2v-0.9c0-0.1,0.1-0.1,0.1-0.1c0.4,0.2,1,0.3,1.4,0.3c1.8,0,2.6-1,2.6-3.8V129.7z"/>
	<path class="st1" d="M16.4,140.6l-2.3,6.4c0,0.1-0.1,0.1-0.2,0.1h-1c-0.1,0-0.1-0.1-0.1-0.2l6-16.6c0.1-0.1,0.1-0.3,0.1-0.7
		c0-0.1,0.1-0.1,0.1-0.1h1.5c0.1,0,0.1,0,0.1,0.1l6.3,17.3c0,0.1,0,0.2-0.1,0.2h-1.1c-0.1,0-0.1,0-0.2-0.1l-2.3-6.4H16.4z
		 M23.1,139.5c-0.6-1.7-2.7-7.3-3.2-9h0c-0.4,1.5-2,5.7-3.1,9H23.1z"/>
	<path class="st1" d="M30.4,147.1c-0.1,0-0.2,0-0.2-0.2v-17.3c0-0.1,0-0.1,0.1-0.1h1.5c0.1,0,0.1,0.1,0.2,0.1
		c2.6,4.3,8.4,14,9.7,16.1h0c-0.1-0.6-0.1-1.9-0.1-3.9v-12.2c0-0.1,0.1-0.1,0.2-0.1h0.9c0.1,0,0.1,0.1,0.1,0.2V147
		c0,0.1,0,0.2-0.2,0.2h-1.4c-0.1,0-0.2,0-0.2-0.1c-1-1.8-9.1-15.1-9.7-16.4h0c0.1,0.7,0.1,2.1,0.1,4.3v12c0,0.1-0.1,0.2-0.1,0.2
		H30.4z"/>
	<path class="st1" d="M52.3,147.1c-0.1,0-0.1-0.1-0.1-0.2v-0.6c0-0.1,0-0.1,0.1-0.2c0.9-0.9,3.2-3.1,5.2-5.4c2.1-2.3,3-4.3,3-6.4
		c0-2.2-1.2-4-3.7-4c-1.4,0-2.7,0.5-3.8,1.3c-0.1,0.1-0.1,0-0.1-0.1v-0.9c0-0.1,0-0.1,0.1-0.2c1.1-0.8,2.5-1.2,4-1.2
		c3.3,0,4.7,2.4,4.7,5c0,2.3-0.7,4.3-3.2,7c-1.7,1.9-3.4,3.7-4.5,4.8c1.6,0,3.2,0,4.9,0h3.8c0.1,0,0.1,0,0.1,0.1l-0.2,0.8
		c0,0.1-0.1,0.1-0.2,0.1H52.3z"/>
	<path class="st1" d="M66.9,146.3c0-0.1,0.1-0.1,0.1-0.1c4.6-0.1,7.3-3,7.9-7.2c-1.2,1-2.9,1.4-4.3,1.4c-3.3,0-5.3-2.2-5.3-5.5
		c0-3.1,2.1-5.6,5.5-5.6c3.4,0,5.5,2.7,5.5,7.4c0,7.3-4.4,10.6-9.3,10.7c-0.1,0-0.1-0.1-0.1-0.2V146.3z M75,137.8
		c0.1-0.5,0.1-1,0.1-1.2c0-3.7-1.4-6.3-4.3-6.3c-2.6,0-4.2,1.9-4.2,4.6c0,3,2.1,4.4,4.3,4.4C72.6,139.3,74.1,138.8,75,137.8z"/>
	<path class="st1" d="M77.7,151.2c-0.1,0-0.2,0-0.1-0.1c1.2-2.2,1.6-4,1.5-6.2c0-0.1,0-0.1,0.1-0.1h0.9c0.1,0,0.1,0,0.2,0.2
		c0.2,2.3-0.4,4.5-1.5,6.2c0,0.1-0.1,0.1-0.1,0.1H77.7z"/>
	<path class="st1" d="M88.9,147.1c-0.1,0-0.1-0.1-0.1-0.2v-0.6c0-0.1,0-0.1,0.1-0.2c0.9-0.9,3.2-3.1,5.2-5.4c2.1-2.3,3-4.3,3-6.4
		c0-2.2-1.2-4-3.7-4c-1.4,0-2.7,0.5-3.8,1.3c-0.1,0.1-0.1,0-0.1-0.1v-0.9c0-0.1,0-0.1,0.1-0.2c1.1-0.8,2.5-1.2,4-1.2
		c3.3,0,4.7,2.4,4.7,5c0,2.3-0.7,4.3-3.2,7c-1.7,1.9-3.4,3.7-4.5,4.8c1.6,0,3.2,0,4.9,0h3.8c0.1,0,0.1,0,0.1,0.1l-0.2,0.8
		c0,0.1-0.1,0.1-0.2,0.1H88.9z"/>
	<path class="st1" d="M102.1,138.3c0-4.6,1.6-9,5.4-9c4.5,0,5.3,5.5,5.3,9c0,4.1-1,9.1-5.2,9.1C103.7,147.4,102.1,143,102.1,138.3z
		 M103.4,138.3c0,4.2,1.3,8.1,4.3,8.1s3.9-3.8,3.9-8c0-4.9-1.3-8-4.1-8C105,130.3,103.4,133.3,103.4,138.3z"/>
	<path class="st1" d="M120.4,130.9c-0.9,0.6-2.5,1.2-3.4,1.4c-0.1,0-0.2,0-0.2-0.1v-0.8c0-0.1,0-0.1,0.1-0.2
		c1.4-0.4,2.8-1.1,3.6-1.6c0.1-0.1,0.2-0.1,0.3-0.1h0.7c0.1,0,0.1,0.1,0.1,0.1v16.4h3.5c0.1,0,0.1,0,0.2,0.1v0.8
		c0,0.1,0,0.2-0.1,0.2h-8.4c-0.1,0-0.1,0-0.1-0.2v-0.8c0-0.1,0.1-0.1,0.2-0.1h3.6V130.9z"/>
	<path class="st1" d="M138.1,130.3c0,0.1,0,0.1-0.1,0.1c-4.7-0.1-7.6,2.6-8.3,7.5c1.1-1,2.6-1.7,4.5-1.7c3.1,0,5.1,2.4,5.1,5.5
		c0,3.1-1.9,5.7-5.4,5.7c-3.4,0-5.5-2.9-5.5-7.4c0-6,3.2-10.7,9.7-10.7c0.1,0,0.1,0.1,0.1,0.1V130.3z M129.6,139.1
		c0,0.2,0,0.3,0,0.9c0,4.2,1.9,6.4,4.3,6.4c2.5,0,4.1-1.9,4.1-4.6c0-2.8-1.8-4.5-4.2-4.5C132.5,137.2,130.8,137.8,129.6,139.1z"/>
	<path class="st1" d="M149.9,139.1c1.1,0,1.7,0.8,1.7,1.7s-0.6,1.7-1.7,1.7s-1.7-0.7-1.7-1.7S148.8,139.1,149.9,139.1z"/>
	<path class="st1" d="M161.9,147.1c-0.1,0-0.2-0.1-0.2-0.2v-17.2c0-0.1,0-0.2,0.1-0.2h1c0.1,0,0.1,0.1,0.1,0.1v16.4h8.4
		c0.1,0,0.1,0.1,0.1,0.1l-0.2,0.8c0,0.1-0.1,0.1-0.2,0.1H161.9z"/>
	<path class="st1" d="M184.1,147c0,0.1-0.1,0.1-0.2,0.1h-9.4c-0.2,0-0.2-0.1-0.2-0.2v-17.2c0-0.1,0-0.2,0.2-0.2h8.9
		c0.1,0,0.1,0,0.2,0.1l0.1,0.8c0,0.1,0,0.2-0.1,0.2h-8v7h7c0.1,0,0.1,0,0.1,0.1v0.8c0,0.1-0.1,0.1-0.1,0.1h-7v7.4h8.6
		c0.1,0,0.1,0,0.1,0.1L184.1,147z"/>
	<path class="st1" d="M198.9,147.1c-0.1,0-0.1,0-0.1-0.1v-8.2h-10.1v8.2c0,0.1,0,0.2-0.1,0.2h-1c-0.1,0-0.1-0.1-0.1-0.2v-17.3
		c0-0.1,0-0.1,0.1-0.1h1c0.1,0,0.1,0.1,0.1,0.1v8h10.1v-8c0-0.1,0-0.2,0.1-0.2h1c0.1,0,0.1,0.1,0.1,0.2V147c0,0.1-0.1,0.1-0.1,0.1
		H198.9z"/>
	<path class="st1" d="M206,147c0,0.1,0,0.2-0.1,0.2h-1c-0.1,0-0.2,0-0.2-0.2v-17.3c0-0.1,0.1-0.2,0.1-0.2h1c0.1,0,0.1,0.1,0.1,0.1
		V147z"/>
	<path class="st1" d="M208.7,151.2c-0.1,0-0.2,0-0.1-0.1c1.2-2.2,1.6-4,1.5-6.2c0-0.1,0-0.1,0.1-0.1h0.9c0.1,0,0.1,0,0.2,0.2
		c0.2,2.3-0.4,4.5-1.5,6.2c0,0.1-0.1,0.1-0.1,0.1H208.7z"/>
	<path class="st1" d="M222.2,141.1c0,3.3,2,5.2,5.1,5.2c2.2,0,5-1,5-5.4v-11.2c0-0.1,0-0.1,0.1-0.1h1c0.1,0,0.1,0.1,0.1,0.1v11.4
		c0,4.5-2.8,6.3-6.3,6.3c-3.7,0-6.3-2-6.3-6.2v-11.5c0-0.1,0-0.1,0.1-0.1h1c0.1,0,0.1,0,0.1,0.1V141.1z"/>
	<path class="st1" d="M242.3,130.6h-6c-0.1,0-0.1-0.1-0.1-0.2l0.2-0.8c0-0.1,0.1-0.1,0.2-0.1h12.7c0.1,0,0.2,0.1,0.2,0.1l0.1,0.8
		c0,0.1,0,0.2-0.1,0.2h-6V147c0,0.1-0.1,0.2-0.2,0.2h-1c-0.1,0-0.1,0-0.1-0.2V130.6z"/>
	<path class="st1" d="M252.3,140.6L250,147c0,0.1-0.1,0.1-0.2,0.1h-1c-0.1,0-0.1-0.1-0.1-0.2l6-16.6c0.1-0.1,0.1-0.3,0.1-0.7
		c0-0.1,0.1-0.1,0.1-0.1h1.5c0.1,0,0.1,0,0.1,0.1l6.3,17.3c0,0.1,0,0.2-0.1,0.2h-1.1c-0.1,0-0.1,0-0.2-0.1l-2.3-6.4H252.3z
		 M259,139.5c-0.6-1.7-2.7-7.3-3.2-9h0c-0.4,1.5-2,5.7-3.1,9H259z"/>
	<path class="st1" d="M277.6,147.1c-0.1,0-0.1,0-0.1-0.1v-8.2h-10.1v8.2c0,0.1,0,0.2-0.1,0.2h-1c-0.1,0-0.1-0.1-0.1-0.2v-17.3
		c0-0.1,0-0.1,0.1-0.1h1c0.1,0,0.1,0.1,0.1,0.1v8h10.1v-8c0-0.1,0-0.2,0.1-0.2h1c0.1,0,0.1,0.1,0.1,0.2V147c0,0.1-0.1,0.1-0.1,0.1
		H277.6z"/>
</g>
</svg>
