<?xml version="1.0" encoding="utf-8"?>
<!-- Generator: Adobe Illustrator 19.1.0, SVG Export Plug-In . SVG Version: 6.00 Build 0)  -->
<!DOCTYPE svg PUBLIC "-//W3C//DTD SVG 1.1//EN" "http://www.w3.org/Graphics/SVG/1.1/DTD/svg11.dtd">
<svg version="1.1" id="Layer_1" xmlns="http://www.w3.org/2000/svg" xmlns:xlink="http://www.w3.org/1999/xlink" x="0px" y="0px"
	 viewBox="100 0 1000 800" enable-background="new 100 0 1000 800" xml:space="preserve">
<g>
	<g>
		<g>
			<g opacity="0.2">
				<path d="M921.9,570.1c-10.2,0-18.5-8.3-18.5-18.5V290.7c0-10.2,8.3-18.5,18.5-18.5h118.8c10.2,0,18.5,8.3,18.5,18.5v260.9
					c0,10.2-8.3,18.5-18.5,18.5H921.9z"/>
			</g>
			<g>
				<path fill="#FF7F54" d="M926.6,564.4c-10.2,0-18.5-8.3-18.5-18.5V285c0-10.2,8.3-18.5,18.5-18.5h118.8
					c10.2,0,18.5,8.3,18.5,18.5v260.9c0,10.2-8.3,18.5-18.5,18.5H926.6z"/>
			</g>
		</g>
		<path fill="#444444" d="M926.6,560.6c-8.1,0-14.7-6.6-14.7-14.7V285c0-8.1,6.6-14.7,14.7-14.7h118.8c8.1,0,14.7,6.6,14.7,14.7
			v260.9c0,8.1-6.6,14.7-14.7,14.7L926.6,560.6L926.6,560.6z"/>
		
			<path opacity="0.2" fill="none" stroke="#FFFFFF" stroke-width="1.4232" stroke-linecap="round" stroke-miterlimit="10" enable-background="new    " d="
			M914.3,362.6V285c0-6.8,5.5-12.3,12.3-12.3h99.6"/>
		
			<line opacity="0.2" fill="none" stroke="#FFFFFF" stroke-width="1.4232" stroke-linecap="round" stroke-miterlimit="10" enable-background="new    " x1="966" y1="558.3" x2="960.8" y2="558.3"/>
		
			<path opacity="0.2" fill="none" stroke="#FFFFFF" stroke-width="1.4232" stroke-linecap="round" stroke-miterlimit="10" enable-background="new    " d="
			M1057.8,449.4v96.5c0,6.8-5.5,12.3-12.3,12.3h-72.3"/>
		
			<line opacity="0.2" fill="none" stroke="#FFFFFF" stroke-width="1.4232" stroke-linecap="round" stroke-miterlimit="10" enable-background="new    " x1="1057.8" y1="429" x2="1057.8" y2="441.8"/>
		<path fill="none" stroke="#000000" stroke-width="1.8976" stroke-linecap="round" stroke-miterlimit="10" d="M1041,274.1h4.5
			c6,0,10.9,4.9,10.9,10.9v60"/>
		<path fill="none" stroke="#000000" stroke-width="1.8976" stroke-linecap="round" stroke-miterlimit="10" d="M947.5,556.8h-20.9
			c-6,0-10.9-4.9-10.9-10.9V374.4"/>
		<path d="M991.1,279h-11.4c-0.5,0-1-0.4-1-1l0,0c0-0.6,0.4-1,1-1h11.4c0.5,0,1,0.4,1,1l0,0C992.1,278.6,991.7,279,991.1,279z"/>
		<circle opacity="0.2" fill="#FFFFFF" enable-background="new    " cx="999.8" cy="279.2" r="1"/>
		<path opacity="0.2" fill="#FFFFFF" enable-background="new    " d="M1019.2,281.3h-4.5c-1.2,0-2.1-0.9-2.1-2.1l0,0
			c0-1.2,0.9-2.1,2.1-2.1h4.5c1.2,0,2.1,0.9,2.1,2.1l0,0C1021.3,280.3,1020.3,281.3,1019.2,281.3z"/>
		<path d="M998.4,557.6l1-1.5c0.3-0.4,0.7-0.6,1.2-0.6h1.6c0.5,0,0.9,0.2,1.2,0.6l1,1.5H998.4z"/>
		<path d="M1064,336.4l1.5,1c0.4,0.3,0.6,0.7,0.6,1.2v42.5c0,0.5-0.2,0.9-0.6,1.2l-1.5,1V336.4z"/>
		<path d="M1064,404.7l1.5,1c0.4,0.3,0.6,0.7,0.6,1.2v19.4c0,0.5-0.2,0.9-0.6,1.2l-1.5,1V404.7z"/>
		<rect x="922.9" y="296.8" fill="#222222" width="126.3" height="237.2"/>
		<path id="path5056_1_" opacity="5.000000e-02" fill="#FFFFFF" enable-background="new    " d="M999.1,287.1v-0.6h-0.8v-1l0,0
			l-0.7,0.2l0,0v0.7h-1.2V286c0-0.2,0-0.3,0.1-0.4s0.2-0.1,0.4-0.1c0.1,0,0.2,0,0.3,0.1l0,0v-0.7l0,0c-0.1,0-0.3-0.1-0.4-0.1
			c-0.2,0-0.4,0.1-0.6,0.1c-0.2,0.1-0.3,0.2-0.4,0.4c-0.1,0.2-0.2,0.4-0.2,0.6v0.5H995v0.6h0.5v2.7h0.8V287h1.2v1.7
			c0,0.7,0.3,1.1,1,1.1c0.1,0,0.2,0,0.3,0s0.2-0.1,0.2-0.1l0,0v-0.6l0,0c0,0-0.1,0.1-0.2,0.1c-0.1,0-0.1,0-0.2,0
			c-0.2,0-0.3,0-0.3-0.1c-0.1-0.1-0.1-0.2-0.1-0.4v-1.6H999.1L999.1,287.1z M993.3,289.2c-0.3,0-0.5-0.1-0.7-0.3
			c-0.2-0.2-0.2-0.5-0.2-0.8c0-0.4,0.1-0.6,0.2-0.8c0.2-0.2,0.4-0.3,0.7-0.3s0.5,0.1,0.6,0.3c0.2,0.2,0.2,0.5,0.2,0.8
			c0,0.4-0.1,0.6-0.2,0.8C993.8,289.1,993.6,289.2,993.3,289.2 M993.3,286.4c-0.5,0-1,0.2-1.3,0.5s-0.5,0.8-0.5,1.3s0.2,0.9,0.5,1.2
			c0.3,0.3,0.7,0.5,1.2,0.5s1-0.2,1.3-0.5s0.5-0.8,0.5-1.3s-0.1-0.9-0.4-1.2C994.2,286.5,993.8,286.4,993.3,286.4 M990.3,286.4
			c-0.4,0-0.7,0.1-0.9,0.3c-0.2,0.2-0.4,0.4-0.4,0.7c0,0.2,0,0.3,0.1,0.4s0.1,0.2,0.2,0.3c0.1,0.1,0.3,0.2,0.5,0.3
			c0.2,0.1,0.3,0.1,0.4,0.2c0.1,0,0.1,0.1,0.2,0.1c0,0,0,0.1,0,0.2c0,0.2-0.2,0.3-0.5,0.3c-0.1,0-0.3,0-0.4-0.1
			c-0.2-0.1-0.3-0.1-0.4-0.2l0,0v0.8l0,0c0.1,0.1,0.3,0.1,0.4,0.1c0.2,0,0.3,0.1,0.4,0.1c0.4,0,0.7-0.1,1-0.3
			c0.2-0.2,0.4-0.4,0.4-0.8c0-0.2-0.1-0.4-0.2-0.6c-0.1-0.2-0.3-0.3-0.7-0.4c-0.2-0.1-0.4-0.2-0.5-0.2c-0.1-0.1-0.1-0.1-0.1-0.3
			c0-0.1,0-0.2,0.1-0.2c0.1-0.1,0.2-0.1,0.3-0.1s0.3,0,0.4,0.1c0.1,0,0.3,0.1,0.3,0.2l0,0v-0.7l0,0c-0.1,0-0.2-0.1-0.4-0.1
			C990.5,286.4,990.4,286.4,990.3,286.4 M987,289.2c-0.3,0-0.5-0.1-0.7-0.3c-0.2-0.2-0.2-0.5-0.2-0.8c0-0.4,0.1-0.6,0.2-0.8
			c0.2-0.2,0.4-0.3,0.7-0.3s0.5,0.1,0.6,0.3c0.2,0.2,0.2,0.5,0.2,0.8c0,0.4-0.1,0.6-0.2,0.8C987.5,289.1,987.2,289.2,987,289.2
			 M987,286.4c-0.5,0-1,0.2-1.3,0.5s-0.5,0.8-0.5,1.3s0.2,0.9,0.5,1.2c0.3,0.3,0.7,0.5,1.2,0.5s1-0.2,1.3-0.5s0.5-0.8,0.5-1.3
			s-0.1-0.9-0.4-1.2C987.9,286.5,987.5,286.4,987,286.4 M984,287v-0.6h-0.8v3.3h0.8V288c0-0.3,0.1-0.5,0.2-0.7
			c0.1-0.2,0.3-0.3,0.5-0.3c0.1,0,0.1,0,0.2,0c0.1,0,0.1,0,0.2,0.1l0,0v-0.8l0,0c-0.1,0-0.2,0-0.3,0c-0.2,0-0.4,0.1-0.5,0.2
			C984.2,286.7,984.1,286.9,984,287L984,287z M981.9,286.4c-0.4,0-0.7,0.1-0.9,0.2c-0.3,0.2-0.5,0.4-0.6,0.6c-0.1,0.3-0.2,0.6-0.2,1
			c0,0.3,0.1,0.6,0.2,0.9c0.1,0.3,0.3,0.5,0.6,0.6c0.2,0.1,0.5,0.2,0.9,0.2s0.7-0.1,0.9-0.2l0,0V289l0,0c-0.1,0.1-0.2,0.2-0.4,0.2
			c-0.1,0-0.3,0.1-0.4,0.1c-0.3,0-0.6-0.1-0.7-0.3c-0.2-0.2-0.3-0.5-0.3-0.8s0.1-0.6,0.3-0.8c0.2-0.2,0.4-0.3,0.7-0.3
			s0.5,0.1,0.7,0.3l0,0v-0.8l0,0c-0.1,0-0.2-0.1-0.4-0.1C982.2,286.4,982,286.4,981.9,286.4 M979.5,286.5h-0.8v3.3h0.8V286.5z
			 M979.2,285.1c-0.1,0-0.2,0-0.3,0.1s-0.1,0.2-0.1,0.3c0,0.1,0,0.2,0.1,0.3c0.1,0.1,0.2,0.1,0.3,0.1s0.2,0,0.3-0.1s0.1-0.2,0.1-0.3
			c0-0.1,0-0.2-0.1-0.3C979.4,285.1,979.3,285.1,979.2,285.1 M977.2,286.2v3.6h0.8v-4.6h-1.1l-1.4,3.4l-1.4-3.4H973v4.6h0.7v-3.6
			l0,0l1.4,3.6h0.6L977.2,286.2L977.2,286.2L977.2,286.2z"/>
		
			<line opacity="0.3" fill="none" stroke="#FFFFFF" stroke-width="0.9488" stroke-linecap="round" stroke-miterlimit="10" enable-background="new    " x1="1065.3" y1="339.3" x2="1065.3" y2="374.8"/>
		
			<line opacity="0.3" fill="none" stroke="#FFFFFF" stroke-width="0.9488" stroke-linecap="round" stroke-miterlimit="10" enable-background="new    " x1="1065.3" y1="407.5" x2="1065.3" y2="419.1"/>
	</g>
	<g>
		<g>
			<g opacity="0.2">
				<path d="M180.3,553.5c-11,0-20-9-20-20V194.3c0-11,9-20,20-20h216.1c11,0,20,9,20,20v339.2c0,11-9,20-20,20H180.3z"/>
				<path d="M396.5,175.3c10.5,0,19.1,8.5,19.1,19.1v339.2c0,10.5-8.5,19-19.1,19H180.3c-10.5,0-19.1-8.5-19.1-19V194.3
					c0-10.5,8.5-19.1,19.1-19.1h216.2 M396.5,173.4H180.3c-11.6,0-20.9,9.4-20.9,20.9v339.2c0,11.6,9.4,20.9,20.9,20.9h216.1
					c11.6,0,20.9-9.4,20.9-20.9V194.3C417.4,182.8,408,173.4,396.5,173.4L396.5,173.4z"/>
			</g>
			<g>
				<path fill="#E9D19C" d="M185.1,547.9c-11,0-20-9-20-20V188.6c0-11,9-20,20-20h216.1c11,0,20,9,20,20v339.2c0,11-9,20-20,20
					L185.1,547.9L185.1,547.9z"/>
				<path fill="#333333" d="M401.2,169.6c10.5,0,19.1,8.5,19.1,19.1v339.2c0,10.5-8.5,19-19.1,19H185.1c-10.5,0-19.1-8.5-19.1-19
					V188.6c0-10.5,8.5-19.1,19.1-19.1h216.1 M401.2,167.7H185.1c-11.6,0-20.9,9.4-20.9,20.9v339.2c0,11.6,9.4,20.9,20.9,20.9h216.1
					c11.6,0,20.9-9.4,20.9-20.9V188.6C422.2,177.1,412.8,167.7,401.2,167.7L401.2,167.7z"/>
			</g>
		</g>
		<path fill="#6A5944" d="M420.3,527.9v-34.6L197.8,169.6h-12.7c-10.5,0-19,8.5-19,19.1v18.1l233.8,340.1h1.4
			C411.7,546.9,420.3,538.4,420.3,527.9z"/>
		<path fill="#F7EBDE" d="M415.6,540.3c2-2.3,3.5-5.1,4.2-8.3L173.4,173.6c-2.2,1.7-4.1,4-5.4,6.5L415.6,540.3z"/>
		<path fill="#6A5944" d="M166,527.9v-34.6l222.5-323.7h12.7c10.5,0,19,8.5,19,19.1v18.1L186.5,546.9h-1.4
			C174.5,546.9,166,538.4,166,527.9z"/>
		<path fill="#F7EBDE" d="M170.6,540.3c-2-2.3-3.5-5.1-4.2-8.3l246.4-358.5c2.2,1.7,4.1,4,5.4,6.5L170.6,540.3z"/>
		<g>
			<path fill="#F5F6F8" d="M185.1,544.1c-8.9,0-16.2-7.3-16.2-16.2V188.6c0-8.9,7.3-16.2,16.2-16.2h216.1c8.9,0,16.2,7.3,16.2,16.2
				v339.2c0,8.9-7.3,16.2-16.2,16.2L185.1,544.1L185.1,544.1z"/>
			<path fill="#666666" d="M401.2,172.9c8.7,0,15.7,7.1,15.7,15.7v339.2c0,8.7-7.1,15.7-15.7,15.7H185.1c-8.7,0-15.7-7.1-15.7-15.7
				V188.6c0-8.7,7.1-15.7,15.7-15.7L401.2,172.9 M401.2,171.9H185.1c-9.2,0-16.7,7.5-16.7,16.7v339.2c0,9.2,7.5,16.7,16.7,16.7
				h216.1c9.2,0,16.7-7.5,16.7-16.7V188.6C417.9,179.4,410.4,171.9,401.2,171.9L401.2,171.9z"/>
		</g>
		<path fill="#4D4D4D" d="M406.1,510.8H179.6c-0.5,0-0.9-0.4-0.9-0.9V207.2c0-0.5,0.4-0.9,0.9-0.9h226.5c0.5,0,0.9,0.4,0.9,0.9
			v302.7C407.1,510.4,406.7,510.8,406.1,510.8z"/>
		<circle fill="#6A5944" cx="293.1" cy="529.9" r="10"/>
		<path fill="#E9D19C" d="M285.5,536.2l16.9-2.6c0.5-1.1,0.7-2.4,0.7-3.7c0-1.6-0.4-3.1-1.1-4.5c-5.8,2-14.6,5-18.7,6.3
			C283.7,533.4,284.4,535,285.5,536.2z"/>
		<circle fill="#F5F6F8" cx="293.1" cy="529.9" r="8.5"/>
		<g>
			<circle fill="#4C7070" cx="292.9" cy="189.6" r="1.7"/>
			<path fill="#474747" d="M292.9,188.6c0.6,0,1,0.5,1,1s-0.5,1-1,1c-0.6,0-1-0.5-1-1S292.3,188.6,292.9,188.6 M292.9,187.2
				c-1.3,0-2.4,1.1-2.4,2.4s1.1,2.4,2.4,2.4c1.3,0,2.4-1.1,2.4-2.4S294.2,187.2,292.9,187.2L292.9,187.2z"/>
		</g>
		<circle fill="#474747" cx="285.4" cy="189.8" r="1.1"/>
	</g>
	<g>
		<g>
			<g opacity="0.2">
				<path d="M465.1,468.4V206.7c0-6.9,5.6-12.4,12.4-12.4H879c6.9,0,12.4,5.6,12.4,12.4v261.7c0,6.9-5.6,12.4-12.4,12.4H477.5
					C470.6,480.8,465.1,475.2,465.1,468.4z"/>
			</g>
			<g>
				<path fill="#868991" d="M469.8,462.7V201c0-6.9,5.6-12.4,12.4-12.4h401.5c6.9,0,12.4,5.6,12.4,12.4v261.7
					c0,6.9-5.6,12.4-12.4,12.4H482.2C475.4,475.1,469.8,469.5,469.8,462.7z"/>
			</g>
		</g>
		<g>
			<polygon fill="#474747" points="896.2,434 540.4,188.5 503.7,188.5 896.2,459.4 			"/>
			<path fill="#474747" d="M868.9,475.1l-399-275.3c0,0.4-0.1,0.8-0.1,1.2v24.1l362.4,250H868.9z"/>
		</g>
		<path fill="#444444" d="M471.7,201c0-5.8,4.7-10.5,10.5-10.5h401.5c5.8,0,10.5,4.7,10.5,10.5v261.7c0,5.8-4.7,10.5-10.5,10.5
			H482.2c-5.8,0-10.5-4.7-10.5-10.5V201z"/>
		<path fill="#292929" d="M473.6,201c0-4.8,3.9-8.6,8.6-8.6h401.5c4.8,0,8.6,3.9,8.6,8.6v261.7c0,4.8-3.9,8.6-8.6,8.6H482.2
			c-4.8,0-8.6-3.9-8.6-8.6V201z"/>
		<polygon fill="#1A1A1A" points="892.4,292.2 889.9,294 889.9,369 892.4,370.9 		"/>
		<polygon fill="#1A1A1A" points="473.6,370.9 476.1,369 476.1,294 473.6,292.2 		"/>
		<rect x="513.5" y="204.7" fill="#1A1A1A" width="339.2" height="254.3"/>
		<g>
			<path fill="#5A9C9C" d="M872.2,334c-1.2,0-2.1-1-2.1-2.1s1-2.1,2.1-2.1c1.2,0,2.1,1,2.1,2.1S873.4,334,872.2,334z"/>
			<path fill="#474747" d="M872.2,330.9c0.5,0,0.9,0.4,0.9,0.9s-0.4,0.9-0.9,0.9s-0.9-0.4-0.9-0.9S871.7,330.9,872.2,330.9
				 M872.2,328.5c-1.8,0-3.3,1.5-3.3,3.3s1.5,3.3,3.3,3.3s3.3-1.5,3.3-3.3S874,328.5,872.2,328.5L872.2,328.5z"/>
		</g>
		<circle fill="#474747" cx="494.1" cy="331.8" r="1.9"/>
		<polygon fill="#868991" points="810.2,476.4 809.2,474.8 828.2,474.8 827.2,476.4 		"/>
		<polygon fill="#868991" points="750.3,476.4 749.3,474.8 797.9,474.8 797,476.4 		"/>
		<polygon fill="#444444" points="810.2,474.3 809.2,474.8 828.2,474.8 827.2,474.3 		"/>
		<polygon fill="#444444" points="750.3,474.3 749.3,474.8 797.9,474.8 797,474.3 		"/>
	</g>
	<g>
		<path fill="none" d="M860,787H455.6c-8.7,0-15.7-7-15.7-15.7V507c0-8.7,7-15.7,15.7-15.7H860c8.7,0,15.7,7,15.7,15.7v264.3
			C875.7,780,868.7,787,860,787z"/>
		<g>
			<g opacity="0.2">
				<path d="M855.3,792.7H450.8c-8.7,0-15.7-7-15.7-15.7V512.7c0-8.7,7-15.7,15.7-15.7h404.5c8.7,0,15.7,7,15.7,15.7V777
					C871,785.7,863.9,792.7,855.3,792.7z"/>
			</g>
			<g>
				<path fill="#545454" d="M860,787H455.6c-8.7,0-15.7-7-15.7-15.7V507c0-8.7,7-15.7,15.7-15.7H860c8.7,0,15.7,7,15.7,15.7v264.3
					C875.7,780,868.7,787,860,787z"/>
			</g>
		</g>
		<path fill="#333333" d="M455.6,785.1c-7.6,0-13.8-6.2-13.8-13.8V507c0-7.6,6.2-13.8,13.8-13.8H860c7.6,0,13.8,6.2,13.8,13.8v264.3
			c0,7.6-6.2,13.8-13.8,13.8H455.6z"/>
		<path fill="#1A1A1A" d="M455.6,782.3c-6,0-10.9-4.9-10.9-10.9V507c0-6,4.9-10.9,10.9-10.9H860c6,0,10.9,4.9,10.9,10.9v264.3
			c0,6-4.9,10.9-10.9,10.9L455.6,782.3L455.6,782.3z"/>
		<rect x="476.2" y="526.6" width="363.3" height="227.6"/>
		<rect x="476.2" y="526.6" width="363.3" height="227.6"/>
		<g>
			<path fill="#4C7070" d="M657.8,513.3c-1.2,0-2.1-1-2.1-2.1c0-1.2,1-2.1,2.1-2.1c1.2,0,2.1,1,2.1,2.1
				C659.9,512.4,659,513.3,657.8,513.3z"/>
			<path fill="#474747" d="M657.8,510.2c0.5,0,0.9,0.4,0.9,0.9s-0.4,0.9-0.9,0.9s-0.9-0.4-0.9-0.9S657.3,510.2,657.8,510.2
				 M657.8,507.9c-1.8,0-3.3,1.5-3.3,3.3c0,1.8,1.5,3.3,3.3,3.3s3.3-1.5,3.3-3.3C661.1,509.4,659.6,507.9,657.8,507.9L657.8,507.9z"
				/>
		</g>
	</g>
	<g>
		<g>
			<g opacity="0.2">
				<path d="M149,717.9c-11.8,0-21.4-9.6-21.4-21.4v-92.8c0-11.8,9.6-21.4,21.4-21.4h232.9c11.8,0,21.4,9.6,21.4,21.4v92.8
					c0,11.8-9.6,21.4-21.4,21.4H149z"/>
			</g>
			<g>
				<path fill="#333333" d="M153.7,712.2c-11.8,0-21.4-9.6-21.4-21.4V598c0-11.8,9.6-21.4,21.4-21.4h232.9
					c11.8,0,21.4,9.6,21.4,21.4v92.8c0,11.8-9.6,21.4-21.4,21.4H153.7z"/>
			</g>
		</g>
		<path fill="#464646" d="M404.2,690.8c0,9.7-7.9,17.6-17.6,17.6H153.7c-9.7,0-17.6-7.9-17.6-17.6V598c0-9.7,7.9-17.6,17.6-17.6
			h232.9c9.7,0,17.6,7.9,17.6,17.6L404.2,690.8L404.2,690.8z"/>
		<g>
			<circle fill="#1A1A1A" cx="145.8" cy="679.6" r="0.4"/>
			<circle fill="#1A1A1A" cx="147.3" cy="679.6" r="0.4"/>
			<circle fill="#1A1A1A" cx="148.8" cy="679.6" r="0.4"/>
			<circle fill="#1A1A1A" cx="150.3" cy="679.6" r="0.4"/>
			<circle fill="#1A1A1A" cx="145.8" cy="678.1" r="0.4"/>
			<circle fill="#1A1A1A" cx="147.3" cy="678.1" r="0.4"/>
			<circle fill="#1A1A1A" cx="148.8" cy="678.1" r="0.4"/>
			<circle fill="#1A1A1A" cx="150.3" cy="678.1" r="0.4"/>
			<circle fill="#1A1A1A" cx="145.8" cy="676.5" r="0.4"/>
			<circle fill="#1A1A1A" cx="147.3" cy="676.5" r="0.4"/>
			<circle fill="#1A1A1A" cx="148.8" cy="676.5" r="0.4"/>
			<circle fill="#1A1A1A" cx="150.3" cy="676.5" r="0.4"/>
			<circle fill="#1A1A1A" cx="145.8" cy="675" r="0.4"/>
			<circle fill="#1A1A1A" cx="147.3" cy="675" r="0.4"/>
			<circle fill="#1A1A1A" cx="148.8" cy="675" r="0.4"/>
			<circle fill="#1A1A1A" cx="150.3" cy="675" r="0.4"/>
			<circle fill="#1A1A1A" cx="145.8" cy="673.5" r="0.4"/>
			<circle fill="#1A1A1A" cx="147.3" cy="673.5" r="0.4"/>
			<circle fill="#1A1A1A" cx="148.8" cy="673.5" r="0.4"/>
			<circle fill="#1A1A1A" cx="150.3" cy="673.5" r="0.4"/>
			<circle fill="#1A1A1A" cx="145.8" cy="672" r="0.4"/>
			<circle fill="#1A1A1A" cx="147.3" cy="672" r="0.4"/>
			<circle fill="#1A1A1A" cx="148.8" cy="672" r="0.4"/>
			<circle fill="#1A1A1A" cx="150.3" cy="672" r="0.4"/>
			<circle fill="#1A1A1A" cx="145.8" cy="670.4" r="0.4"/>
			<circle fill="#1A1A1A" cx="147.3" cy="670.4" r="0.4"/>
			<circle fill="#1A1A1A" cx="148.8" cy="670.4" r="0.4"/>
			<circle fill="#1A1A1A" cx="150.3" cy="670.4" r="0.4"/>
			<circle fill="#1A1A1A" cx="145.8" cy="668.9" r="0.4"/>
			<circle fill="#1A1A1A" cx="147.3" cy="668.9" r="0.4"/>
			<circle fill="#1A1A1A" cx="148.8" cy="668.9" r="0.4"/>
			<circle fill="#1A1A1A" cx="150.3" cy="668.9" r="0.4"/>
			<circle fill="#1A1A1A" cx="145.8" cy="667.4" r="0.4"/>
			<circle fill="#1A1A1A" cx="147.3" cy="667.4" r="0.4"/>
			<circle fill="#1A1A1A" cx="148.8" cy="667.4" r="0.4"/>
			<circle fill="#1A1A1A" cx="150.3" cy="667.4" r="0.4"/>
			<circle fill="#1A1A1A" cx="145.8" cy="665.9" r="0.4"/>
			<circle fill="#1A1A1A" cx="147.3" cy="665.9" r="0.4"/>
			<circle fill="#1A1A1A" cx="148.8" cy="665.9" r="0.4"/>
			<circle fill="#1A1A1A" cx="150.3" cy="665.9" r="0.4"/>
			<circle fill="#1A1A1A" cx="145.8" cy="664.3" r="0.4"/>
			<circle fill="#1A1A1A" cx="147.3" cy="664.3" r="0.4"/>
			<circle fill="#1A1A1A" cx="148.8" cy="664.3" r="0.4"/>
			<circle fill="#1A1A1A" cx="150.3" cy="664.3" r="0.4"/>
			<circle fill="#1A1A1A" cx="145.8" cy="662.8" r="0.4"/>
			<circle fill="#1A1A1A" cx="147.3" cy="662.8" r="0.4"/>
			<circle fill="#1A1A1A" cx="148.8" cy="662.8" r="0.4"/>
			<circle fill="#1A1A1A" cx="150.3" cy="662.8" r="0.4"/>
			<circle fill="#1A1A1A" cx="145.8" cy="661.3" r="0.4"/>
			<circle fill="#1A1A1A" cx="147.3" cy="661.3" r="0.4"/>
			<circle fill="#1A1A1A" cx="148.8" cy="661.3" r="0.4"/>
			<circle fill="#1A1A1A" cx="150.3" cy="661.3" r="0.4"/>
			<circle fill="#1A1A1A" cx="145.8" cy="659.8" r="0.4"/>
			<circle fill="#1A1A1A" cx="147.3" cy="659.8" r="0.4"/>
			<circle fill="#1A1A1A" cx="148.8" cy="659.8" r="0.4"/>
			<circle fill="#1A1A1A" cx="150.3" cy="659.8" r="0.4"/>
			<circle fill="#1A1A1A" cx="145.8" cy="658.2" r="0.4"/>
			<circle fill="#1A1A1A" cx="147.3" cy="658.2" r="0.4"/>
			<circle fill="#1A1A1A" cx="148.8" cy="658.2" r="0.4"/>
			<circle fill="#1A1A1A" cx="150.3" cy="658.2" r="0.4"/>
			<circle fill="#1A1A1A" cx="145.8" cy="656.7" r="0.4"/>
			<circle fill="#1A1A1A" cx="147.3" cy="656.7" r="0.4"/>
			<circle fill="#1A1A1A" cx="148.8" cy="656.7" r="0.4"/>
			<circle fill="#1A1A1A" cx="150.3" cy="656.7" r="0.4"/>
			<circle fill="#1A1A1A" cx="145.8" cy="655.2" r="0.4"/>
			<circle fill="#1A1A1A" cx="147.3" cy="655.2" r="0.4"/>
			<circle fill="#1A1A1A" cx="148.8" cy="655.2" r="0.4"/>
			<circle fill="#1A1A1A" cx="150.3" cy="655.2" r="0.4"/>
			<circle fill="#1A1A1A" cx="145.8" cy="653.7" r="0.4"/>
			<circle fill="#1A1A1A" cx="147.3" cy="653.7" r="0.4"/>
			<circle fill="#1A1A1A" cx="148.8" cy="653.7" r="0.4"/>
			<circle fill="#1A1A1A" cx="150.3" cy="653.7" r="0.4"/>
			<circle fill="#1A1A1A" cx="145.8" cy="652.1" r="0.4"/>
			<circle fill="#1A1A1A" cx="147.3" cy="652.1" r="0.4"/>
			<circle fill="#1A1A1A" cx="148.8" cy="652.1" r="0.4"/>
			<circle fill="#1A1A1A" cx="150.3" cy="652.1" r="0.4"/>
			<circle fill="#1A1A1A" cx="145.8" cy="650.6" r="0.4"/>
			<circle fill="#1A1A1A" cx="147.3" cy="650.6" r="0.4"/>
			<circle fill="#1A1A1A" cx="148.8" cy="650.6" r="0.4"/>
			<circle fill="#1A1A1A" cx="150.3" cy="650.6" r="0.4"/>
			<circle fill="#1A1A1A" cx="145.8" cy="649.1" r="0.4"/>
			<circle fill="#1A1A1A" cx="147.3" cy="649.1" r="0.4"/>
			<circle fill="#1A1A1A" cx="148.8" cy="649.1" r="0.4"/>
			<circle fill="#1A1A1A" cx="150.3" cy="649.1" r="0.4"/>
			<circle fill="#1A1A1A" cx="145.8" cy="647.6" r="0.4"/>
			<circle fill="#1A1A1A" cx="147.3" cy="647.6" r="0.4"/>
			<circle fill="#1A1A1A" cx="148.8" cy="647.6" r="0.4"/>
			<circle fill="#1A1A1A" cx="150.3" cy="647.6" r="0.4"/>
			<circle fill="#1A1A1A" cx="145.8" cy="646.1" r="0.4"/>
			<circle fill="#1A1A1A" cx="147.3" cy="646.1" r="0.4"/>
			<circle fill="#1A1A1A" cx="148.8" cy="646.1" r="0.4"/>
			<circle fill="#1A1A1A" cx="150.3" cy="646.1" r="0.4"/>
			<circle fill="#1A1A1A" cx="145.8" cy="644.5" r="0.4"/>
			<circle fill="#1A1A1A" cx="147.3" cy="644.5" r="0.4"/>
			<circle fill="#1A1A1A" cx="148.8" cy="644.5" r="0.4"/>
			<circle fill="#1A1A1A" cx="150.3" cy="644.5" r="0.4"/>
			<circle fill="#1A1A1A" cx="145.8" cy="643" r="0.4"/>
			<circle fill="#1A1A1A" cx="147.3" cy="643" r="0.4"/>
			<circle fill="#1A1A1A" cx="148.8" cy="643" r="0.4"/>
			<circle fill="#1A1A1A" cx="150.3" cy="643" r="0.4"/>
			<circle fill="#1A1A1A" cx="145.8" cy="641.5" r="0.4"/>
			<circle fill="#1A1A1A" cx="147.3" cy="641.5" r="0.4"/>
			<circle fill="#1A1A1A" cx="148.8" cy="641.5" r="0.4"/>
			<circle fill="#1A1A1A" cx="150.3" cy="641.5" r="0.4"/>
			<circle fill="#1A1A1A" cx="145.8" cy="640" r="0.4"/>
			<circle fill="#1A1A1A" cx="147.3" cy="640" r="0.4"/>
			<circle fill="#1A1A1A" cx="148.8" cy="640" r="0.4"/>
			<circle fill="#1A1A1A" cx="150.3" cy="640" r="0.4"/>
			<circle fill="#1A1A1A" cx="145.8" cy="638.4" r="0.4"/>
			<circle fill="#1A1A1A" cx="147.3" cy="638.4" r="0.4"/>
			<circle fill="#1A1A1A" cx="148.8" cy="638.4" r="0.4"/>
			<circle fill="#1A1A1A" cx="150.3" cy="638.4" r="0.4"/>
			<circle fill="#1A1A1A" cx="145.8" cy="636.9" r="0.4"/>
			<circle fill="#1A1A1A" cx="147.3" cy="636.9" r="0.4"/>
			<circle fill="#1A1A1A" cx="148.8" cy="636.9" r="0.4"/>
			<circle fill="#1A1A1A" cx="150.3" cy="636.9" r="0.4"/>
			<circle fill="#1A1A1A" cx="145.8" cy="635.4" r="0.4"/>
			<circle fill="#1A1A1A" cx="147.3" cy="635.4" r="0.4"/>
			<circle fill="#1A1A1A" cx="148.8" cy="635.4" r="0.4"/>
			<circle fill="#1A1A1A" cx="150.3" cy="635.4" r="0.4"/>
			<circle fill="#1A1A1A" cx="145.8" cy="633.9" r="0.4"/>
			<circle fill="#1A1A1A" cx="147.3" cy="633.9" r="0.4"/>
			<circle fill="#1A1A1A" cx="148.8" cy="633.9" r="0.4"/>
			<circle fill="#1A1A1A" cx="150.3" cy="633.9" r="0.4"/>
			<circle fill="#1A1A1A" cx="145.8" cy="632.3" r="0.4"/>
			<circle fill="#1A1A1A" cx="147.3" cy="632.3" r="0.4"/>
			<circle fill="#1A1A1A" cx="148.8" cy="632.3" r="0.4"/>
			<circle fill="#1A1A1A" cx="150.3" cy="632.3" r="0.4"/>
			<circle fill="#1A1A1A" cx="145.8" cy="630.8" r="0.4"/>
			<circle fill="#1A1A1A" cx="147.3" cy="630.8" r="0.4"/>
			<circle fill="#1A1A1A" cx="148.8" cy="630.8" r="0.4"/>
			<circle fill="#1A1A1A" cx="150.3" cy="630.8" r="0.4"/>
		</g>
		<path fill="#1A1A1A" d="M152.8,626L152.8,626c0,1-0.8,1.8-1.8,1.8h-5.9c-1,0-1.8-0.8-1.8-1.8l0,0c0-1,0.8-1.8,1.8-1.8h5.9
			C152,624.2,152.8,625,152.8,626z"/>
		<circle fill="#1A1A1A" cx="148" cy="614.7" r="4.8"/>
		<circle fill="#333333" cx="148" cy="614.7" r="2.9"/>
		<circle fill="#1A1A1A" cx="148" cy="614.7" r="2"/>
		<ellipse fill="#CCCCCC" cx="148.2" cy="614.2" rx="0.6" ry="0.5"/>
		<ellipse fill="#CCCCCC" cx="147.9" cy="615.9" rx="0.3" ry="0.5"/>
		<g>
			<circle fill="#1A1A1A" cx="391.7" cy="679.6" r="0.4"/>
			<circle fill="#1A1A1A" cx="393.2" cy="679.6" r="0.4"/>
			<circle fill="#1A1A1A" cx="394.7" cy="679.6" r="0.4"/>
			<circle fill="#1A1A1A" cx="396.2" cy="679.6" r="0.4"/>
			<circle fill="#1A1A1A" cx="391.7" cy="678" r="0.4"/>
			<circle fill="#1A1A1A" cx="393.2" cy="678" r="0.4"/>
			<circle fill="#1A1A1A" cx="394.7" cy="678" r="0.4"/>
			<circle fill="#1A1A1A" cx="396.2" cy="678" r="0.4"/>
			<circle fill="#1A1A1A" cx="391.7" cy="676.5" r="0.4"/>
			<circle fill="#1A1A1A" cx="393.2" cy="676.5" r="0.4"/>
			<circle fill="#1A1A1A" cx="394.7" cy="676.5" r="0.4"/>
			<circle fill="#1A1A1A" cx="396.2" cy="676.5" r="0.4"/>
			<circle fill="#1A1A1A" cx="391.7" cy="675" r="0.4"/>
			<circle fill="#1A1A1A" cx="393.2" cy="675" r="0.4"/>
			<circle fill="#1A1A1A" cx="394.7" cy="675" r="0.4"/>
			<circle fill="#1A1A1A" cx="396.2" cy="675" r="0.4"/>
			<circle fill="#1A1A1A" cx="391.7" cy="673.5" r="0.4"/>
			<circle fill="#1A1A1A" cx="393.2" cy="673.5" r="0.4"/>
			<circle fill="#1A1A1A" cx="394.7" cy="673.5" r="0.4"/>
			<circle fill="#1A1A1A" cx="396.2" cy="673.5" r="0.4"/>
			<circle fill="#1A1A1A" cx="391.7" cy="671.9" r="0.4"/>
			<circle fill="#1A1A1A" cx="393.2" cy="671.9" r="0.4"/>
			<circle fill="#1A1A1A" cx="394.7" cy="671.9" r="0.4"/>
			<circle fill="#1A1A1A" cx="396.2" cy="671.9" r="0.4"/>
			<circle fill="#1A1A1A" cx="391.7" cy="670.4" r="0.4"/>
			<circle fill="#1A1A1A" cx="393.2" cy="670.4" r="0.4"/>
			<circle fill="#1A1A1A" cx="394.7" cy="670.4" r="0.4"/>
			<circle fill="#1A1A1A" cx="396.2" cy="670.4" r="0.4"/>
			<circle fill="#1A1A1A" cx="391.7" cy="668.9" r="0.4"/>
			<circle fill="#1A1A1A" cx="393.2" cy="668.9" r="0.4"/>
			<circle fill="#1A1A1A" cx="394.7" cy="668.9" r="0.4"/>
			<circle fill="#1A1A1A" cx="396.2" cy="668.9" r="0.4"/>
			<circle fill="#1A1A1A" cx="391.7" cy="667.4" r="0.4"/>
			<circle fill="#1A1A1A" cx="393.2" cy="667.4" r="0.4"/>
			<circle fill="#1A1A1A" cx="394.7" cy="667.4" r="0.4"/>
			<circle fill="#1A1A1A" cx="396.2" cy="667.4" r="0.4"/>
			<circle fill="#1A1A1A" cx="391.7" cy="665.8" r="0.4"/>
			<circle fill="#1A1A1A" cx="393.2" cy="665.8" r="0.4"/>
			<circle fill="#1A1A1A" cx="394.7" cy="665.8" r="0.4"/>
			<circle fill="#1A1A1A" cx="396.2" cy="665.8" r="0.4"/>
			<circle fill="#1A1A1A" cx="391.7" cy="664.3" r="0.4"/>
			<circle fill="#1A1A1A" cx="393.2" cy="664.3" r="0.4"/>
			<circle fill="#1A1A1A" cx="394.7" cy="664.3" r="0.4"/>
			<circle fill="#1A1A1A" cx="396.2" cy="664.3" r="0.4"/>
			<circle fill="#1A1A1A" cx="391.7" cy="662.8" r="0.4"/>
			<circle fill="#1A1A1A" cx="393.2" cy="662.8" r="0.4"/>
			<circle fill="#1A1A1A" cx="394.7" cy="662.8" r="0.4"/>
			<circle fill="#1A1A1A" cx="396.2" cy="662.8" r="0.4"/>
			<circle fill="#1A1A1A" cx="391.7" cy="661.3" r="0.4"/>
			<circle fill="#1A1A1A" cx="393.2" cy="661.3" r="0.4"/>
			<circle fill="#1A1A1A" cx="394.7" cy="661.3" r="0.4"/>
			<circle fill="#1A1A1A" cx="396.2" cy="661.3" r="0.4"/>
			<circle fill="#1A1A1A" cx="391.7" cy="659.7" r="0.4"/>
			<circle fill="#1A1A1A" cx="393.2" cy="659.7" r="0.4"/>
			<circle fill="#1A1A1A" cx="394.7" cy="659.7" r="0.4"/>
			<circle fill="#1A1A1A" cx="396.2" cy="659.7" r="0.4"/>
			<circle fill="#1A1A1A" cx="391.7" cy="658.2" r="0.4"/>
			<circle fill="#1A1A1A" cx="393.2" cy="658.2" r="0.4"/>
			<circle fill="#1A1A1A" cx="394.7" cy="658.2" r="0.4"/>
			<circle fill="#1A1A1A" cx="396.2" cy="658.2" r="0.4"/>
			<circle fill="#1A1A1A" cx="391.7" cy="656.7" r="0.4"/>
			<circle fill="#1A1A1A" cx="393.2" cy="656.7" r="0.4"/>
			<circle fill="#1A1A1A" cx="394.7" cy="656.7" r="0.4"/>
			<circle fill="#1A1A1A" cx="396.2" cy="656.7" r="0.4"/>
			<circle fill="#1A1A1A" cx="391.7" cy="655.2" r="0.4"/>
			<circle fill="#1A1A1A" cx="393.2" cy="655.2" r="0.4"/>
			<circle fill="#1A1A1A" cx="394.7" cy="655.2" r="0.4"/>
			<circle fill="#1A1A1A" cx="396.2" cy="655.2" r="0.4"/>
			<circle fill="#1A1A1A" cx="391.7" cy="653.6" r="0.4"/>
			<circle fill="#1A1A1A" cx="393.2" cy="653.6" r="0.4"/>
			<circle fill="#1A1A1A" cx="394.7" cy="653.6" r="0.4"/>
			<circle fill="#1A1A1A" cx="396.2" cy="653.6" r="0.4"/>
			<circle fill="#1A1A1A" cx="391.7" cy="652.1" r="0.4"/>
			<circle fill="#1A1A1A" cx="393.2" cy="652.1" r="0.4"/>
			<circle fill="#1A1A1A" cx="394.7" cy="652.1" r="0.4"/>
			<circle fill="#1A1A1A" cx="396.2" cy="652.1" r="0.4"/>
			<circle fill="#1A1A1A" cx="391.7" cy="650.6" r="0.4"/>
			<circle fill="#1A1A1A" cx="393.2" cy="650.6" r="0.4"/>
			<circle fill="#1A1A1A" cx="394.7" cy="650.6" r="0.4"/>
			<circle fill="#1A1A1A" cx="396.2" cy="650.6" r="0.4"/>
			<circle fill="#1A1A1A" cx="391.7" cy="649.1" r="0.4"/>
			<circle fill="#1A1A1A" cx="393.2" cy="649.1" r="0.4"/>
			<circle fill="#1A1A1A" cx="394.7" cy="649.1" r="0.4"/>
			<circle fill="#1A1A1A" cx="396.2" cy="649.1" r="0.4"/>
			<circle fill="#1A1A1A" cx="391.7" cy="647.5" r="0.4"/>
			<circle fill="#1A1A1A" cx="393.2" cy="647.5" r="0.4"/>
			<circle fill="#1A1A1A" cx="394.7" cy="647.5" r="0.4"/>
			<circle fill="#1A1A1A" cx="396.2" cy="647.5" r="0.4"/>
			<circle fill="#1A1A1A" cx="391.7" cy="646" r="0.4"/>
			<circle fill="#1A1A1A" cx="393.2" cy="646" r="0.4"/>
			<circle fill="#1A1A1A" cx="394.7" cy="646" r="0.4"/>
			<circle fill="#1A1A1A" cx="396.2" cy="646" r="0.4"/>
			<circle fill="#1A1A1A" cx="391.7" cy="644.5" r="0.4"/>
			<circle fill="#1A1A1A" cx="393.2" cy="644.5" r="0.4"/>
			<circle fill="#1A1A1A" cx="394.7" cy="644.5" r="0.4"/>
			<circle fill="#1A1A1A" cx="396.2" cy="644.5" r="0.4"/>
			<circle fill="#1A1A1A" cx="391.7" cy="643" r="0.4"/>
			<circle fill="#1A1A1A" cx="393.2" cy="643" r="0.4"/>
			<circle fill="#1A1A1A" cx="394.7" cy="643" r="0.4"/>
			<circle fill="#1A1A1A" cx="396.2" cy="643" r="0.4"/>
			<circle fill="#1A1A1A" cx="391.7" cy="641.4" r="0.4"/>
			<circle fill="#1A1A1A" cx="393.2" cy="641.4" r="0.4"/>
			<circle fill="#1A1A1A" cx="394.7" cy="641.4" r="0.4"/>
			<circle fill="#1A1A1A" cx="396.2" cy="641.4" r="0.4"/>
			<circle fill="#1A1A1A" cx="391.7" cy="639.9" r="0.4"/>
			<circle fill="#1A1A1A" cx="393.2" cy="639.9" r="0.4"/>
			<circle fill="#1A1A1A" cx="394.7" cy="639.9" r="0.4"/>
			<circle fill="#1A1A1A" cx="396.2" cy="639.9" r="0.4"/>
			<circle fill="#1A1A1A" cx="391.7" cy="638.4" r="0.4"/>
			<circle fill="#1A1A1A" cx="393.2" cy="638.4" r="0.4"/>
			<circle fill="#1A1A1A" cx="394.7" cy="638.4" r="0.4"/>
			<circle fill="#1A1A1A" cx="396.2" cy="638.4" r="0.4"/>
			<circle fill="#1A1A1A" cx="391.7" cy="636.9" r="0.4"/>
			<circle fill="#1A1A1A" cx="393.2" cy="636.9" r="0.4"/>
			<circle fill="#1A1A1A" cx="394.7" cy="636.9" r="0.4"/>
			<circle fill="#1A1A1A" cx="396.2" cy="636.9" r="0.4"/>
			<circle fill="#1A1A1A" cx="391.7" cy="635.3" r="0.4"/>
			<circle fill="#1A1A1A" cx="393.2" cy="635.3" r="0.4"/>
			<circle fill="#1A1A1A" cx="394.7" cy="635.3" r="0.4"/>
			<circle fill="#1A1A1A" cx="396.2" cy="635.3" r="0.4"/>
			<circle fill="#1A1A1A" cx="391.7" cy="633.8" r="0.4"/>
			<circle fill="#1A1A1A" cx="393.2" cy="633.8" r="0.4"/>
			<circle fill="#1A1A1A" cx="394.7" cy="633.8" r="0.4"/>
			<circle fill="#1A1A1A" cx="396.2" cy="633.8" r="0.4"/>
			<circle fill="#1A1A1A" cx="391.7" cy="632.3" r="0.4"/>
			<circle fill="#1A1A1A" cx="393.2" cy="632.3" r="0.4"/>
			<circle fill="#1A1A1A" cx="394.7" cy="632.3" r="0.4"/>
			<circle fill="#1A1A1A" cx="396.2" cy="632.3" r="0.4"/>
			<circle fill="#1A1A1A" cx="391.7" cy="630.8" r="0.4"/>
			<circle fill="#1A1A1A" cx="393.2" cy="630.8" r="0.4"/>
			<circle fill="#1A1A1A" cx="394.7" cy="630.8" r="0.4"/>
			<circle fill="#1A1A1A" cx="396.2" cy="630.8" r="0.4"/>
			<circle fill="#1A1A1A" cx="391.7" cy="629.3" r="0.4"/>
			<circle fill="#1A1A1A" cx="393.2" cy="629.3" r="0.4"/>
			<circle fill="#1A1A1A" cx="394.7" cy="629.3" r="0.4"/>
			<circle fill="#1A1A1A" cx="396.2" cy="629.3" r="0.4"/>
			<circle fill="#1A1A1A" cx="391.7" cy="627.7" r="0.4"/>
			<circle fill="#1A1A1A" cx="393.2" cy="627.7" r="0.4"/>
			<circle fill="#1A1A1A" cx="394.7" cy="627.7" r="0.4"/>
			<circle fill="#1A1A1A" cx="396.2" cy="627.7" r="0.4"/>
			<circle fill="#1A1A1A" cx="391.7" cy="626.2" r="0.4"/>
			<circle fill="#1A1A1A" cx="393.2" cy="626.2" r="0.4"/>
			<circle fill="#1A1A1A" cx="394.7" cy="626.2" r="0.4"/>
			<circle fill="#1A1A1A" cx="396.2" cy="626.2" r="0.4"/>
			<circle fill="#1A1A1A" cx="391.7" cy="624.7" r="0.4"/>
			<circle fill="#1A1A1A" cx="393.2" cy="624.7" r="0.4"/>
			<circle fill="#1A1A1A" cx="394.7" cy="624.7" r="0.4"/>
			<circle fill="#1A1A1A" cx="396.2" cy="624.7" r="0.4"/>
			<circle fill="#1A1A1A" cx="391.7" cy="623.2" r="0.4"/>
			<circle fill="#1A1A1A" cx="393.2" cy="623.2" r="0.4"/>
			<circle fill="#1A1A1A" cx="394.7" cy="623.2" r="0.4"/>
			<circle fill="#1A1A1A" cx="396.2" cy="623.2" r="0.4"/>
			<circle fill="#1A1A1A" cx="391.7" cy="621.6" r="0.4"/>
			<circle fill="#1A1A1A" cx="393.2" cy="621.6" r="0.4"/>
			<circle fill="#1A1A1A" cx="394.7" cy="621.6" r="0.4"/>
			<circle fill="#1A1A1A" cx="396.2" cy="621.6" r="0.4"/>
			<circle fill="#1A1A1A" cx="391.7" cy="620.1" r="0.4"/>
			<circle fill="#1A1A1A" cx="393.2" cy="620.1" r="0.4"/>
			<circle fill="#1A1A1A" cx="394.7" cy="620.1" r="0.4"/>
			<circle fill="#1A1A1A" cx="396.2" cy="620.1" r="0.4"/>
			<circle fill="#1A1A1A" cx="391.7" cy="618.6" r="0.4"/>
			<circle fill="#1A1A1A" cx="393.2" cy="618.6" r="0.4"/>
			<circle fill="#1A1A1A" cx="394.7" cy="618.6" r="0.4"/>
			<circle fill="#1A1A1A" cx="396.2" cy="618.6" r="0.4"/>
			<circle fill="#1A1A1A" cx="391.7" cy="617.1" r="0.4"/>
			<circle fill="#1A1A1A" cx="393.2" cy="617.1" r="0.4"/>
			<circle fill="#1A1A1A" cx="394.7" cy="617.1" r="0.4"/>
			<circle fill="#1A1A1A" cx="396.2" cy="617.1" r="0.4"/>
			<circle fill="#1A1A1A" cx="391.7" cy="615.5" r="0.4"/>
			<circle fill="#1A1A1A" cx="393.2" cy="615.5" r="0.4"/>
			<circle fill="#1A1A1A" cx="394.7" cy="615.5" r="0.4"/>
			<circle fill="#1A1A1A" cx="396.2" cy="615.5" r="0.4"/>
			<circle fill="#1A1A1A" cx="391.7" cy="614" r="0.4"/>
			<circle fill="#1A1A1A" cx="393.2" cy="614" r="0.4"/>
			<circle fill="#1A1A1A" cx="394.7" cy="614" r="0.4"/>
			<circle fill="#1A1A1A" cx="396.2" cy="614" r="0.4"/>
			<circle fill="#1A1A1A" cx="391.7" cy="612.5" r="0.4"/>
			<circle fill="#1A1A1A" cx="393.2" cy="612.5" r="0.4"/>
			<circle fill="#1A1A1A" cx="394.7" cy="612.5" r="0.4"/>
			<circle fill="#1A1A1A" cx="396.2" cy="612.5" r="0.4"/>
			<circle fill="#1A1A1A" cx="391.7" cy="611" r="0.4"/>
			<circle fill="#1A1A1A" cx="393.2" cy="611" r="0.4"/>
			<circle fill="#1A1A1A" cx="394.7" cy="611" r="0.4"/>
			<circle fill="#1A1A1A" cx="396.2" cy="611" r="0.4"/>
			<circle fill="#1A1A1A" cx="391.7" cy="609.4" r="0.4"/>
			<circle fill="#1A1A1A" cx="393.2" cy="609.4" r="0.4"/>
			<circle fill="#1A1A1A" cx="394.7" cy="609.4" r="0.4"/>
			<circle fill="#1A1A1A" cx="396.2" cy="609.4" r="0.4"/>
		</g>
		<path d="M386.3,582.7v123.4c0,0.5-0.4,0.9-0.9,0.9H156.5c-0.5,0-0.9-0.4-0.9-0.9V582.7c0-0.5,0.4-0.9,0.9-0.9h228.9
			C385.9,581.7,386.3,582.2,386.3,582.7z"/>
		<rect x="161.4" y="585.1" fill="none" width="210.3" height="118.6"/>
		<g id="htc_1_">
			<polygon fill="#333333" points="376,641.7 376,647 377,647 377,644.8 380.5,644.8 380.5,643.9 377,643.9 377,641.7 			"/>
			<path fill="#333333" d="M376,635.4c0,0,0,2.1,0,3.4c0,1.3,0.7,2.1,2.2,2.1c1.3,0,2.3-0.5,2.3-2.1s0-3.3,0-3.3h-0.9
				c0,0,0,2.6,0,3.3s-0.1,1.2-1.3,1.2c-1.2,0-1.3-0.7-1.3-1.1c0-0.4,0-3.4,0-3.4h-1V635.4z"/>
			<path fill="#333333" d="M376,650.1c0,1.4,0,1.2,0,1.5s0.1,0.6,0.3,0.9h-1.7v0.9h6v-0.9h-2.1H378c-0.5,0-1-0.3-1-1s0-0.8,0-1.5
				c0-0.6,0.3-1.1,1.1-1.1c0.7,0,2.6,0,2.6,0V648c0,0-2.1,0-2.6,0C376.9,648,376,648.7,376,650.1z"/>
		</g>
	</g>
	<g>
		<circle fill="none" cx="687.4" cy="134.8" r="1.1"/>
		<rect x="703.8" y="178.1" fill="#94959A" width="10.4" height="1.3"/>
		<rect x="749.9" y="178.1" fill="#94959A" width="19.4" height="1.3"/>
		<rect x="726.4" y="49.5" fill="#94959A" width="19.4" height="1.3"/>
		<rect x="726.4" y="178.1" fill="#94959A" width="19.4" height="1.3"/>
		<g>
			<g opacity="0.2">
				<path d="M907.7,183.8c10.8,0,19.5-8.8,19.5-19.5V76.1c0-10.8-8.8-19.5-19.5-19.5h-1.4v127.3L907.7,183.8L907.7,183.8z"/>
				<rect x="689.4" y="56.5" width="213.1" height="127.3"/>
				<path d="M685.4,56.5c-10.8,0-19.5,8.8-19.5,19.5v88.2c0,10.8,8.8,19.5,19.5,19.5h0.2V56.5H685.4z"/>
				<rect x="685.6" y="56.5" width="3.8" height="127.3"/>
				<rect x="902.5" y="56.5" width="3.8" height="127.3"/>
			</g>
			<g>
				<g>
					<path fill="#94959A" d="M912.5,178.1c10.8,0,19.5-8.8,19.5-19.5V70.4c0-10.8-8.8-19.5-19.5-19.5h-1.4v127.3h1.4V178.1z"/>
					<rect x="694.1" y="50.8" fill="#94959A" width="213.1" height="127.3"/>
					<path fill="#94959A" d="M690.1,50.8c-10.8,0-19.5,8.8-19.5,19.5v88.2c0,10.8,8.8,19.5,19.5,19.5h0.2V50.8H690.1z"/>
					<rect x="690.4" y="50.8" fill="#787A7D" width="3.8" height="127.3"/>
					<rect x="907.3" y="50.8" fill="#787A7D" width="3.8" height="127.3"/>
				</g>
			</g>
		</g>
		<path fill="#292929" d="M929.6,158.6c0,9.5-7.7,17.2-17.2,17.2H690.1c-9.5,0-17.2-7.7-17.2-17.2V70.4c0-9.5,7.7-17.2,17.2-17.2
			h222.3c9.5,0,17.2,7.7,17.2,17.2V158.6z"/>
		<rect x="702.4" y="59.2" fill="#333333" width="197" height="110.5"/>
		<rect x="702.4" y="59.2" fill="#333333" width="197" height="110.5"/>
		<rect x="702.9" y="59.7" fill="#333333" width="196.1" height="109.5"/>
		<rect x="702.9" y="59.7" fill="#333333" width="196.1" height="109.5"/>
		
			<path opacity="0.4" fill="none" stroke="#333333" stroke-width="0.9488" stroke-linecap="round" stroke-miterlimit="10" enable-background="new    " d="
			M880.3,175.2H690.1c-4.6,0-8.8-1.9-11.8-4.9"/>
		
			<path opacity="0.4" fill="none" stroke="#333333" stroke-width="0.9488" stroke-linecap="round" stroke-miterlimit="10" enable-background="new    " d="
			M929.2,82.9v75.7c0,6.9-4.2,12.8-10.2,15.4"/>
		
			<line opacity="0.4" fill="none" stroke="#333333" stroke-width="0.9488" stroke-linecap="round" stroke-miterlimit="10" enable-background="new    " x1="850.4" y1="53.7" x2="909.2" y2="53.7"/>
		
			<line opacity="0.4" fill="none" stroke="#333333" stroke-width="0.9488" stroke-linecap="round" stroke-miterlimit="10" enable-background="new    " x1="842" y1="53.7" x2="845.1" y2="53.7"/>
		
			<line opacity="0.4" fill="none" stroke="#333333" stroke-width="0.9488" stroke-linecap="round" stroke-miterlimit="10" enable-background="new    " x1="690.1" y1="53.7" x2="796.2" y2="53.7"/>
		
			<path opacity="0.4" fill="none" stroke="#333333" stroke-width="0.9488" stroke-linecap="round" stroke-linejoin="round" stroke-miterlimit="10" enable-background="new    " d="
			M680.4,56.8c1.2-0.9,2.5-1.6,3.8-2.1"/>
		<path fill="none" d="M901.1,54.6h11.3c8.7,0,15.7,7.1,15.7,15.7"/>
		<path fill="none" d="M928.2,70.4v88.2c0,8.7-7.1,15.7-15.7,15.7H690.1c-8.7,0-15.7-7.1-15.7-15.7V70.4c0-8.7,7.1-15.7,15.7-15.7
			h211"/>
		<circle fill="#666666" cx="914.1" cy="114.8" r="10"/>
		<path opacity="0.4" fill="#333333" enable-background="new    " d="M904.2,114.8c0,5.1,3.8,9.2,8.7,9.9l-6.5-16.1
			C905,110.3,904.2,112.4,904.2,114.8z"/>
		<path opacity="0.4" fill="#333333" enable-background="new    " d="M923.8,117.1c0.2-0.8,0.3-1.5,0.3-2.3c0-3.5-1.8-6.6-4.6-8.4
			L923.8,117.1z"/>
		<circle fill="#292929" cx="914.1" cy="114.8" r="8.5"/>
		<path fill="#333333" d="M688.7,105.7v17.6c0,0.7-0.5,1.2-1.2,1.2l0,0c-0.7,0-1.2-0.5-1.2-1.2v-17.6c0-0.7,0.5-1.2,1.2-1.2l0,0
			C688.2,104.5,688.7,105,688.7,105.7z"/>
		<circle fill="#333333" cx="687.4" cy="134.8" r="2.1"/>
		<circle fill="#333333" cx="679.8" cy="114.5" r="0.9"/>
		<polyline opacity="0.4" fill="#333333" enable-background="new    " points="714.2,178.1 713.7,177.7 704.4,177.7 703.8,178.1 		
			"/>
		<polyline opacity="0.4" fill="#333333" enable-background="new    " points="745.8,178.1 745.2,177.7 726.9,177.7 726.4,178.1 		
			"/>
		<polyline opacity="0.4" fill="#333333" enable-background="new    " points="726.4,50.8 726.9,51.2 745.2,51.2 745.8,50.8 		"/>
		<polyline opacity="0.4" fill="#333333" enable-background="new    " points="769.3,178.1 768.8,177.7 750.5,177.7 749.9,178.1 		
			"/>
		<path opacity="5.000000e-02" fill="#FFFFFF" enable-background="new    " d="M708.6,53.2h-18.4c-9.5,0-17.2,7.7-17.2,17.2v88.2
			c0,9.5,7.7,17.2,17.2,17.2H855L708.6,53.2z"/>
		<g opacity="0.4">
			
				<path opacity="0.5" fill="none" stroke="#FFFFFF" stroke-width="1.4232" stroke-linecap="round" stroke-miterlimit="10" enable-background="new    " d="
				M921.2,170.5c-2.4,1.8-5.5,2.8-8.7,2.8H690.1c-5.2,0-9.8-2.7-12.4-6.8"/>
			
				<path opacity="0.5" fill="none" stroke="#FFFFFF" stroke-width="1.4232" stroke-linecap="round" stroke-miterlimit="10" enable-background="new    " d="
				M926.7,162.7c-0.4,1.3-1,2.6-1.7,3.7"/>
			
				<path opacity="0.5" fill="none" stroke="#FFFFFF" stroke-width="1.4232" stroke-linecap="round" stroke-miterlimit="10" enable-background="new    " d="
				M898.8,55.6h13.7c8.2,0,14.8,6.6,14.8,14.8v5.9"/>
			
				<line opacity="0.5" fill="none" stroke="#FFFFFF" stroke-width="1.4232" stroke-linecap="round" stroke-miterlimit="10" enable-background="new    " x1="887.4" y1="55.6" x2="894" y2="55.6"/>
			
				<path opacity="0.5" fill="none" stroke="#FFFFFF" stroke-width="1.4232" stroke-linecap="round" stroke-miterlimit="10" enable-background="new    " d="
				M676,65.9c1.9-6,7.5-10.3,14.1-10.3h132.7"/>
			
				<path opacity="0.5" fill="none" stroke="#FFFFFF" stroke-width="1.4232" stroke-linecap="round" stroke-miterlimit="10" enable-background="new    " d="
				M676.5,164.3c-0.5-1.1-0.8-2.4-1-3.6"/>
		</g>
	</g>
	<g>
		<g>
			<g opacity="0.2">
				<path d="M383.1,150.4c-11.3,0-20.4-9.2-20.4-20.4c-1.9-30.9-1.9-62.5,0-93.8c0-11.2,9.2-20.4,20.4-20.4h228.7
					c11.3,0,20.4,9.2,20.4,20.4c1.9,30.9,1.9,62.5,0,93.8c0,11.2-9.2,20.4-20.4,20.4H383.1z"/>
				<path d="M611.8,16.5c10.9,0,19.7,8.8,19.7,19.7c2,31.1,1.9,62.4,0,93.8c0,10.9-8.8,19.7-19.7,19.7H383.1
					c-10.9,0-19.7-8.8-19.7-19.7c-2-31.1-1.9-62.4,0-93.8c0-10.9,8.8-19.7,19.7-19.7L611.8,16.5 M611.8,15H383.1
					c-11.7,0-21.1,9.5-21.2,21.1c-1.9,31.4-1.9,62.9,0,93.9c0,11.6,9.5,21.1,21.2,21.1h228.7c11.7,0,21.1-9.5,21.2-21.1
					c1.9-31.4,1.9-62.9,0-93.9C632.9,24.5,623.4,15,611.8,15L611.8,15z"/>
			</g>
			<g>
				<path fill="#808080" d="M387.8,144.7c-11.3,0-20.4-9.2-20.4-20.4c-1.9-30.9-1.9-62.5,0-93.8c0-11.2,9.2-20.4,20.4-20.4h228.7
					c11.3,0,20.4,9.2,20.4,20.4c1.9,30.9,1.9,62.5,0,93.8c0,11.2-9.2,20.4-20.4,20.4H387.8z"/>
				<path fill="#4D4D4D" d="M616.5,10.8c10.9,0,19.7,8.8,19.7,19.7c2,31.1,1.9,62.4,0,93.8c0,10.9-8.8,19.7-19.7,19.7H387.8
					c-10.9,0-19.7-8.8-19.7-19.7c-2-31.1-1.9-62.4,0-93.8c0-10.9,8.8-19.7,19.7-19.7L616.5,10.8 M616.5,9.3H387.8
					c-11.7,0-21.1,9.5-21.2,21.1c-1.9,31.4-1.9,62.9,0,93.9c0,11.6,9.5,21.1,21.2,21.1h228.7c11.7,0,21.1-9.5,21.2-21.1
					c1.9-31.4,1.9-62.9,0-93.9C637.7,18.8,628.2,9.3,616.5,9.3L616.5,9.3z"/>
			</g>
		</g>
		<g opacity="0.2">
			<path d="M636.2,124.9h-6.9v3.3h6.5C636,127.4,636.1,126.6,636.2,124.9z"/>
			<path d="M635.9,26.6h-6.5v3.7h6.9C636.1,28.1,636,27.3,635.9,26.6z"/>
		</g>
		<g opacity="0.2">
			<path d="M368.2,124.9h6.9v3.3h-6.5C368.4,127.4,368.3,126.6,368.2,124.9z"/>
			<path d="M368.6,26.6h6.5v3.7h-6.9C368.3,28.1,368.4,27.3,368.6,26.6z"/>
		</g>
		<path fill="#132133" d="M369,77.5c0-15.5,0.5-31.3,1.5-46.9v-0.1v-0.1c0-9.6,7.8-17.4,17.4-17.4h228.7c9.6,0,17.4,7.8,17.4,17.4
			v0.1v0.1c1,15.4,1.5,31.1,1.5,46.6s-0.5,31.3-1.5,46.9v0.1v0.1c0,9.6-7.8,17.4-17.4,17.4H387.8c-9.6,0-17.4-7.8-17.4-17.4v-0.1
			v-0.1C369.5,108.7,369,93.1,369,77.5z"/>
		<path fill="#B6C3D4" d="M374.7,86.5V68.8c0-3.6,2.9-6.5,6.5-6.5l0,0c3.6,0,6.5,2.9,6.5,6.5v17.7c0,3.6-2.9,6.5-6.5,6.5l0,0
			C377.6,93,374.7,90.1,374.7,86.5z"/>
		
			<rect x="394.7" y="17" fill="none" stroke="#333333" stroke-width="0.3132" stroke-miterlimit="10" width="214.1" height="120.7"/>
		<rect x="396.1" y="18.5" fill="#333333" width="211.2" height="117.8"/>
		<path fill="none" stroke="#CCCCCC" stroke-width="0.9488" stroke-linecap="round" stroke-miterlimit="10" d="M378,14.5
			c2.9-1.8,6.2-2.8,9.8-2.8h228.7c4.2,0,8,1.4,11.1,3.7"/>
		<path fill="none" stroke="#CCCCCC" stroke-width="0.9488" stroke-linecap="round" stroke-miterlimit="10" d="M372.9,135.6
			c-2.4-3.2-3.8-7.1-3.8-11.4v-0.1c-1-15.4-1.5-31.1-1.5-46.7c0-15.5,0.5-31.3,1.5-47v-0.1c0-4.3,1.4-8.2,3.9-11.4"/>
		<path fill="none" stroke="#CCCCCC" stroke-width="0.9488" stroke-linecap="round" stroke-miterlimit="10" d="M380.3,141.5
			c-0.8-0.3-1.5-0.7-2.2-1.1"/>
		<path fill="none" stroke="#CCCCCC" stroke-width="0.9488" stroke-linecap="round" stroke-miterlimit="10" d="M628,139.1
			c-3.2,2.5-7.2,3.9-11.5,3.9H387.8c-1.1,0-2.2-0.1-3.3-0.3"/>
		
			<path fill="none" stroke="#CCCCCC" stroke-width="0.9488" stroke-linecap="round" stroke-linejoin="round" stroke-miterlimit="10" d="
			M632.4,20.4c1.9,2.9,2.9,6.4,2.9,10.1v0.1c1,15.4,1.5,31.1,1.5,46.7c0,15.5-0.5,31.3-1.5,47v0.1c0,3.7-1.1,7.2-3,10.1"/>
		<path fill="#02050A" d="M378,87.2c0,0-0.4,2-1.2,4.1c1.1,1.1,2.7,1.7,4.4,1.7c-1-2.3-1.9-4.9-1.9-6.7c0.1-3.5,0-19.6,0-19.6
			s-0.1-1.9-0.1-4.1c-1.1,0.4-2.1,1-2.8,1.8c0.8,2,1.6,4.8,1.6,7.5C378,76.9,378,87.2,378,87.2z"/>
		<path fill="#071829" d="M376.1,68.8c0-2.8,2.3-5.1,5.1-5.1c2.8,0,5.1,2.3,5.1,5.1v17.7c0,2.8-2.3,5.1-5.1,5.1
			c-2.8,0-5.1-2.3-5.1-5.1V68.8z"/>
		<circle cx="627.4" cy="52" r="1.9"/>
		<circle fill="#181C21" cx="627.4" cy="57.8" r="1.9"/>
		<circle fill="#31302C" cx="627.4" cy="108.8" r="2.6"/>
		<g>
			<g>
				<g>
					<path fill="#3E5D7E" d="M627.3,64.2c1,0,1.8,0.8,1.8,1.8v22.8c0,1-0.8,1.8-1.8,1.8s-1.8-0.8-1.8-1.8V66
						C625.6,65,626.4,64.2,627.3,64.2 M627.3,63.5c-1.4,0-2.5,1.1-2.5,2.5v22.8c0,1.4,1.1,2.5,2.5,2.5s2.5-1.1,2.5-2.5V66
						C629.8,64.6,628.7,63.5,627.3,63.5L627.3,63.5z"/>
				</g>
			</g>
			<path opacity="0.5" fill="#FAFEFF" enable-background="new    " d="M626,88.8V66c0-0.7,0.6-1.3,1.3-1.3l0,0
				c0.7,0,1.3,0.6,1.3,1.3v22.8c0,0.7-0.6,1.3-1.3,1.3l0,0C626.6,90.1,626,89.5,626,88.8z"/>
			<circle cx="627.4" cy="67.1" r="0.5"/>
			<circle cx="627.4" cy="68.6" r="0.5"/>
			<circle cx="627.4" cy="70.1" r="0.5"/>
			<circle cx="627.4" cy="71.6" r="0.5"/>
			<circle cx="627.4" cy="73.1" r="0.5"/>
			<circle cx="627.4" cy="74.7" r="0.5"/>
			<circle cx="627.4" cy="76.2" r="0.5"/>
			<circle cx="627.4" cy="77.7" r="0.5"/>
			<circle cx="627.4" cy="79.2" r="0.5"/>
			<circle cx="627.4" cy="80.7" r="0.5"/>
			<circle cx="627.4" cy="82.2" r="0.5"/>
			<circle cx="627.4" cy="83.7" r="0.5"/>
			<circle cx="627.4" cy="85.2" r="0.5"/>
			<circle cx="627.4" cy="86.8" r="0.5"/>
			<circle cx="627.4" cy="88.3" r="0.5"/>
		</g>
		<g opacity="0.5">
			<g>
				<path fill="#798B99" d="M383.1,42.2v-0.3v-1.4v-2.4v-1.4v-0.3c0-0.2-0.1-0.3-0.3-0.3c-0.2,0-0.2,0-0.3,0H382h-1.8h-0.4
					c-0.1,0-0.1,0-0.3,0c-0.2,0-0.3,0.1-0.3,0.3v0.3v1.4v2.4v1.4v0.3c0,0.2,0.1,0.3,0.3,0.3c0.2,0,0.2,0,0.3,0h0.4h1.8h0.4
					c0.1,0,0.1,0,0.3,0C382.9,42.5,383.1,42.4,383.1,42.2z M382,41.9h-1.8h-0.4v-1.4v-2.4v-1.4h0.4h1.8h0.4v1.4v2.4v1.4H382z"/>
				<path fill="#798B99" d="M384.4,43.5C384.4,43.5,384.3,43.5,384.4,43.5C384.3,43.5,384.4,43.4,384.4,43.5v-5.7
					c0-0.2-0.1-0.3-0.3-0.3c-0.2,0-0.2,0-0.3,0v5.7h-3.2c0,0.1,0,0.1,0,0.3s0.1,0.3,0.3,0.3h3.2C384.2,43.8,384.4,43.7,384.4,43.5z"
					/>
			</g>
			<path fill="#798B99" d="M382.8,116.8v-2.4h0.8l-0.9-2.5c0,0-0.1-0.2-0.3-0.2c-0.2,0-0.3,0.2-0.3,0.2l-0.9,2.5h0.8v2.4
				c0,0.7-0.6,1.3-1.3,1.3c-0.7,0-1.3-0.6-1.3-1.3v-4.5h-0.6v4.5c0,1.1,0.9,1.9,1.9,1.9C381.9,118.7,382.8,117.9,382.8,116.8z"/>
		</g>
		<g opacity="0.25">
			<path fill="#E6E6E6" d="M616.7,80c0,0,0.2-0.3,0.3-0.5c0,0,0.3-0.6,0.4-0.7c0,0,0.2-0.2,0.5-0.1c0,0,0.2,0.1,0.2,0.3
				c0,0,0,0.3-0.3,0.3h-0.4v1.1h0.5c0,0,0.9,0.1,0.9-1.3c0,0,0.1-1.1-0.5-1.4c0,0-0.1-0.1-0.6-0.1h-0.3c0,0-0.4,0-0.7,0.2
				c0,0-0.2,0.1-0.4,0.4c0,0-0.3,0.5-0.5,0.9c0,0-0.2,0.3-0.5,0.3c0,0-0.3,0-0.3-0.3c0,0,0-0.3,0.3-0.3h0.4v-1.2h-0.5c0,0-1,0-1,1.5
				c0,0,0,1.4,1.1,1.5h0.4C615.6,80.5,616.3,80.5,616.7,80L616.7,80z"/>
			<polygon fill="#E6E6E6" points="618.7,74.3 616.3,74 616.3,73.9 618.7,73.5 618.7,71.7 614.3,71.6 614.3,72.7 617.6,72.7 
				617.6,72.8 614.3,73.4 614.3,74.5 617.6,75.1 617.6,75.2 614.3,75.2 614.3,76.3 618.7,76.2 			"/>
			<polygon fill="#E6E6E6" points="618.7,67.9 614.3,67.2 614.3,68.3 617.7,68.8 617.7,68.8 614.3,69.3 614.3,70.4 618.7,69.7 			
				"/>
			<path fill="#E6E6E6" d="M616.7,92.4h-0.6v0.3h-0.7c-0.3,0-0.3-0.3-0.3-0.3c0-0.3,0.3-0.3,0.3-0.3h2.4c0.2,0,0.3,0.3,0.3,0.3
				c0,0.3-0.3,0.3-0.3,0.3h-0.4v1.1c0.7,0,0.9-0.1,0.9-0.1c0.6-0.3,0.6-1.3,0.6-1.3c0-1.6-1.3-1.4-1.3-1.4h-2.3
				c-1.2,0-1.1,1.6-1.1,1.6c0.1,0.7,0.3,0.9,0.3,0.9c0.2,0.2,0.4,0.2,0.4,0.2c0.1,0.1,0.5,0.1,0.5,0.1h1.4v-1.4H616.7z"/>
			<polygon fill="#E6E6E6" points="616,88.7 616,88.7 618.7,87.6 618.7,86.2 614.3,86.2 614.3,87.3 617,87.3 617,87.3 614.3,88.5 
				614.3,89.8 618.7,89.8 618.7,88.7 			"/>
			<path fill="#E6E6E6" d="M615.4,83.6c0,0-0.4,0-0.4-0.3c0,0,0-0.3,0.4-0.3h3.3v-1.2h-3.3c0,0-1.2-0.1-1.2,1.5c0,0,0,1.5,1.2,1.5
				h3.3v-1.2H615.4L615.4,83.6z"/>
			<path fill="#E6E6E6" d="M616.7,65.6c0,0,0.2-0.3,0.3-0.5c0,0,0.3-0.6,0.4-0.7c0,0,0.2-0.2,0.5-0.1c0,0,0.2,0.1,0.2,0.3
				c0,0,0,0.3-0.3,0.3h-0.4V66h0.5c0,0,0.9,0.1,0.9-1.3c0,0,0-0.1,0-0.3c0,0,0-0.8-0.5-1.1l0,0c0,0-0.1-0.1-0.6-0.1h-0.3
				c0,0-0.4,0-0.7,0.2c0,0-0.2,0.1-0.4,0.4c0,0-0.3,0.5-0.5,0.9c0,0-0.2,0.3-0.5,0.3c0,0-0.3,0-0.3-0.3c0,0,0-0.3,0.3-0.3h0.4v-1.2
				h-0.5c0,0-1,0-1,1.5c0,0,0,1.4,1.1,1.5h0.4C615.6,66.1,616.3,66.2,616.7,65.6L616.7,65.6z"/>
		</g>
		<circle fill="#0F0E14" cx="627.4" cy="108.8" r="1.9"/>
	</g>
	<g>
		<g>
			<defs>
				<path id="SVGID_1_" d="M1049.2,534H922.9V296.8h126.3V534z M396.1,18.5h211.2v117.8H396.1V18.5z M839.4,754.1H476.2V526.6h363.3
					L839.4,754.1L839.4,754.1z M371.6,585.1v118.6H161.4V585.1H371.6z M405.8,207.9H180v301.2h225.8V207.9z M513.5,459V204.7h339.2
					V459H513.5z M899,169.2H702.9V59.7H899V169.2z"/>
			</defs>
			<clipPath id="SVGID_2_">
				<use xlink:href="#SVGID_1_"  overflow="visible"/>
			</clipPath>
			<rect x="-115.7" y="-102.1" clip-path="url(#SVGID_2_)" fill="#F4B504" width="1460.3" height="1003.5"/>
		</g>
		<g>
			<defs>
				<path id="SVGID_3_" d="M1049.2,534H922.9V296.8h126.3V534z M396.1,18.5h211.2v117.8H396.1V18.5z M839.4,754.1H476.2V526.6h363.3
					L839.4,754.1L839.4,754.1z M371.6,585.1v118.6H161.4V585.1H371.6z M405.8,207.9H180v301.2h225.8V207.9z M513.5,459V204.7h339.2
					V459H513.5z M899,169.2H702.9V59.7H899V169.2z"/>
			</defs>
			<clipPath id="SVGID_4_">
				<use xlink:href="#SVGID_3_"  overflow="visible"/>
			</clipPath>
			<g clip-path="url(#SVGID_4_)">
				
					<line fill="none" stroke="#333333" stroke-width="8.8759" stroke-linecap="round" stroke-linejoin="round" x1="992.6" y1="482.4" x2="992.6" y2="445.6"/>
				<g>
					<path fill="#333333" d="M569.7,59.5l257.4,128.7v46l91.9,46l73.6,36.8v36.8l-55.2,27.6l-18.4-9.2V409l73.6,36.8v36.8L937.4,510
						l-73.6-36.8L827,454.8v27.6L569.7,611.1l-36.8-18.4v-9.2l-36.8,18.4l-18.4-9.2v36.8l73.6,36.8v36.8l-55.2,27.6l-73.6-36.8
						L220.3,592.7V427.2l55.2-27.6l73.6,36.8v-82.7l-36.8-18.4V188.2L569.7,59.5 M569.7,45.7c-2.1,0-4.2,0.5-6.2,1.5L306.1,175.8
						c-4.7,2.3-7.6,7.1-7.6,12.3v147.1c0,5.2,3,10,7.6,12.3l29.2,14.6V414l-53.6-26.8c-1.9-1-4.1-1.5-6.2-1.5
						c-2.1,0-4.2,0.5-6.2,1.5l-55.2,27.6c-4.7,2.3-7.6,7.1-7.6,12.3v165.5c0,5.2,3,10,7.6,12.3L416.4,706l73.6,36.8
						c1.9,1,4.1,1.5,6.2,1.5s4.2-0.5,6.2-1.5l55.2-27.6c4.7-2.3,7.6-7.1,7.6-12.3v-36.8c0-5.2-3-10-7.6-12.3l-65.9-33v-6.1
						c1.5,0.5,3,0.8,4.6,0.8c2.1,0,4.2-0.5,6.2-1.5l21.8-10.9c0.8,0.7,1.7,1.2,2.6,1.7l36.8,18.4c1.9,1,4.1,1.5,6.2,1.5
						s4.2-0.5,6.2-1.5l257.4-128.7c4.7-2.3,7.6-7.1,7.6-12.3v-5.3l16.8,8.4l73.6,36.8c1.9,1,4.1,1.5,6.2,1.5s4.2-0.5,6.2-1.5
						l55.2-27.6c4.7-2.3,7.6-7.1,7.6-12.3v-36.8c0-5.2-3-10-7.6-12.3l-65.9-33V394c1.5,0.5,3,0.8,4.6,0.8c2.1,0,4.2-0.5,6.2-1.5
						l55.2-27.6c4.7-2.3,7.6-7.1,7.6-12.3v-36.8c0-5.2-3-10-7.6-12.3l-73.6-36.8l-84.3-42.2v-37.4c0-5.2-3-10-7.6-12.3L575.8,47.1
						C573.9,46.2,571.8,45.7,569.7,45.7L569.7,45.7z"/>
				</g>
				<g>
					<path fill="#B3B3B3" d="M569.7,59.5l257.4,128.7v46l91.9,46l73.6,36.8v36.8l-55.2,27.6l-18.4-9.2V409l73.6,36.8v36.8L937.4,510
						l-73.6-36.8L827,454.8v27.6L569.7,611.1l-36.8-18.4v-9.2l-36.8,18.4l-18.4-9.2v36.8l73.6,36.8v36.8l-55.2,27.6l-73.6-36.8
						L220.3,592.7V427.2l55.2-27.6l73.6,36.8v-82.7l-36.8-18.4V188.2L569.7,59.5"/>
					<g opacity="0.2">
						<path d="M422.6,565.1v68.2c0-28,25.7-40.5,44.6-45.9L422.6,565.1z"/>
					</g>
					
						<line opacity="0.6" fill="none" stroke="#FFFFFF" stroke-width="8.8759" stroke-linecap="round" stroke-linejoin="round" enable-background="new    " x1="657.3" y1="436.4" x2="758.4" y2="385.8"/>
					
						<line opacity="0.6" fill="none" stroke="#FFFFFF" stroke-width="8.8759" stroke-linecap="round" stroke-linejoin="round" enable-background="new    " x1="614" y1="458" x2="630.2" y2="449.9"/>
					<polygon fill="#999999" points="349,353.7 532.9,445.6 532.9,528.4 349,436.4 					"/>
					<polygon fill="#999999" points="569.7,400 827.1,271.2 827.1,335.3 569.7,464 					"/>
					<g opacity="0.4">
						<polygon fill="#FFFFFF" points="551.3,537.6 496.1,565.1 220.3,427.2 275.4,399.6 						"/>
						<polygon fill="#FFFFFF" points="477.7,629.5 551.3,666.3 496.1,693.9 422.6,657.1 						"/>
						<polygon fill="#FFFFFF" points="569.7,316.9 827.1,188.2 569.7,59.5 312.2,188.2 						"/>
						<polygon fill="#FFFFFF" points="992.6,316.9 937.4,344.5 827.1,289.3 827.1,234.1 						"/>
						<polygon fill="#FFFFFF" points="992.6,445.6 937.4,473.2 863.9,436.4 919,408.8 						"/>
					</g>
					<g opacity="0.2">
						<polygon points="937.4,344.5 937.4,381.3 863.9,344.5 863.9,436.4 937.4,473.2 937.4,510 827.1,454.8 827.1,289.3 						"/>
						<polygon points="220.3,427.2 220.3,592.7 496.1,730.6 496.1,693.9 422.6,657.1 422.6,565.1 496.1,601.9 496.1,565.1 						"/>
						<polygon points="312.2,188.2 312.2,335.3 532.9,445.6 532.9,528.4 551.3,537.6 551.3,574.3 532.9,583.5 532.9,592.7 
							569.7,611.1 569.7,316.9 						"/>
					</g>
					
						<line fill="none" stroke="#333333" stroke-width="8.8759" stroke-linecap="round" stroke-linejoin="round" x1="863.9" y1="344.5" x2="937.4" y2="381.3"/>
					
						<line fill="none" stroke="#333333" stroke-width="8.8759" stroke-linecap="round" stroke-linejoin="round" x1="992.6" y1="482.4" x2="937.4" y2="510"/>
					
						<line fill="none" stroke="#333333" stroke-width="8.8759" stroke-linecap="round" stroke-linejoin="round" x1="863.9" y1="473.2" x2="937.4" y2="510"/>
					
						<path opacity="0.6" fill="none" stroke="#FFFFFF" stroke-width="8.8759" stroke-linecap="round" stroke-linejoin="round" enable-background="new    " d="
						M915.6,449.9c7.3,3.6,14.6,7.3,21.8,10.9c6.8-3.4,13.7-6.8,20.5-10.3"/>
					
						<path opacity="0.6" fill="none" stroke="#FFFFFF" stroke-width="8.8759" stroke-linecap="round" stroke-linejoin="round" enable-background="new    " d="
						M957.9,321.8c-6.8,3.4-13.7,6.8-20.5,10.3c-10.6-5.3-21.2-10.6-31.8-15.9"/>
					
						<line fill="none" stroke="#333333" stroke-width="8.8759" stroke-linecap="round" stroke-linejoin="round" x1="919" y1="280.1" x2="992.6" y2="316.9"/>
					
						<line fill="none" stroke="#333333" stroke-width="8.8759" stroke-linecap="round" stroke-linejoin="round" x1="863.9" y1="307.7" x2="919" y2="280.1"/>
					
						<line fill="none" stroke="#333333" stroke-width="8.8759" stroke-linecap="round" stroke-linejoin="round" x1="919" y1="408.8" x2="992.6" y2="445.6"/>
					
						<line fill="none" stroke="#333333" stroke-width="8.8759" stroke-linecap="round" stroke-linejoin="round" x1="863.9" y1="436.4" x2="919" y2="408.8"/>
					
						<line fill="none" stroke="#333333" stroke-width="8.8759" stroke-linecap="round" stroke-linejoin="round" x1="919" y1="408.8" x2="919" y2="372.1"/>
					<polyline fill="none" stroke="#333333" stroke-width="8.8759" stroke-linecap="round" stroke-linejoin="round" points="
						937.4,381.3 992.6,353.7 992.6,316.9 					"/>
					<polyline fill="none" stroke="#333333" stroke-width="8.8759" stroke-linecap="round" stroke-linejoin="round" points="
						827.1,188.2 827.1,482.4 569.7,611.1 					"/>
					
						<line fill="none" stroke="#333333" stroke-width="8.8759" stroke-linecap="round" stroke-linejoin="round" x1="863.9" y1="473.2" x2="863.9" y2="307.7"/>
					
						<line fill="none" stroke="#333333" stroke-width="8.8759" stroke-linecap="round" stroke-linejoin="round" x1="919" y1="280.1" x2="827.1" y2="234.1"/>
					<polyline fill="none" stroke="#333333" stroke-width="8.8759" stroke-linecap="round" stroke-linejoin="round" points="
						312.2,188.2 569.7,59.5 827.1,188.2 					"/>
					<path fill="none" stroke="#333333" stroke-width="4.5971" stroke-linecap="round" stroke-linejoin="round" d="M440.9,555.9"/>
					<polygon fill="#999999" points="385.8,188.2 422.6,206.6 606.4,114.6 569.7,96.2 					"/>
					<polygon fill="none" stroke="#333333" stroke-width="8.8759" stroke-linecap="round" stroke-linejoin="round" points="
						385.8,188.2 422.6,206.6 606.4,114.6 569.7,96.2 					"/>
					<polygon fill="#46A3BD" points="606.4,390.4 606.4,445.6 670.8,413.4 670.8,358.3 					"/>
					<polygon fill="#46A3BD" points="726,330.7 726,385.9 790.3,353.7 790.3,298.5 					"/>
					<path opacity="0.2" enable-background="new    " d="M220.3,516.5v76.3l119,59.5C272,585.9,237.6,572,220.3,516.5z"/>
					
						<line fill="none" stroke="#333333" stroke-width="8.8759" stroke-linecap="round" stroke-linejoin="round" x1="422.6" y1="565.1" x2="496.1" y2="601.9"/>
					<polyline fill="none" stroke="#333333" stroke-width="8.8759" stroke-linecap="round" stroke-linejoin="round" points="
						551.3,666.3 551.3,703.1 496.1,730.6 					"/>
					
						<line fill="none" stroke="#333333" stroke-width="8.8759" stroke-linecap="round" stroke-linejoin="round" x1="422.6" y1="693.9" x2="496.1" y2="730.6"/>
					
						<path opacity="0.6" fill="none" stroke="#FFFFFF" stroke-width="8.8759" stroke-linecap="round" stroke-linejoin="round" enable-background="new    " d="
						M476.3,671.5c6.6,3.3,13.2,6.6,19.8,9.9c5.4-2.7,10.8-5.4,16.3-8.1"/>
					
						<line fill="none" stroke="#333333" stroke-width="8.8759" stroke-linecap="round" stroke-linejoin="round" x1="477.7" y1="500.8" x2="422.6" y2="528.4"/>
					<polyline fill="none" stroke="#333333" stroke-width="8.8759" stroke-linecap="round" stroke-linejoin="round" points="
						220.3,427.2 275.4,399.6 477.7,500.8 					"/>
					<path fill="#B3B3B3" d="M397.2,460.5l18.8-28.6c7.7-11.6,4.4-27.3-7.2-35c-4.1-2.7-8.9-4.2-13.9-4.2c-8.5,0-16.4,4.3-21.1,11.4
						l-22.2,33.6L397.2,460.5z"/>
					<g opacity="0.2">
						<path d="M395,392.7c-8.5,0-16.4,4.3-21.1,11.4l-22.2,33.6l14.2,7.1l34-51.6C398.3,392.9,396.7,392.7,395,392.7z"/>
					</g>
					<path fill="none" stroke="#333333" stroke-width="8.8759" stroke-linecap="round" stroke-linejoin="round" d="M397.2,460.5
						l18.8-28.6c7.7-11.6,4.4-27.3-7.2-35c-4.1-2.7-8.9-4.2-13.9-4.2c-8.5,0-16.4,4.3-21.1,11.4l-22.2,33.6L397.2,460.5z"/>
					
						<line fill="none" stroke="#333333" stroke-width="8.8759" stroke-linecap="round" stroke-linejoin="round" x1="477.7" y1="500.8" x2="551.3" y2="537.6"/>
					
						<line fill="none" stroke="#333333" stroke-width="8.8759" stroke-linecap="round" stroke-linejoin="round" x1="477.7" y1="629.5" x2="551.3" y2="666.3"/>
					
						<line fill="none" stroke="#333333" stroke-width="8.8759" stroke-linecap="round" stroke-linejoin="round" x1="422.6" y1="657.1" x2="477.7" y2="629.5"/>
					
						<line fill="none" stroke="#333333" stroke-width="8.8759" stroke-linecap="round" stroke-linejoin="round" x1="477.7" y1="629.5" x2="477.7" y2="592.7"/>
					<polyline fill="none" stroke="#333333" stroke-width="8.8759" stroke-linecap="round" stroke-linejoin="round" points="
						220.3,427.2 220.3,592.7 422.6,693.9 					"/>
					
						<line fill="none" stroke="#333333" stroke-width="8.8759" stroke-linecap="round" stroke-linejoin="round" x1="422.6" y1="693.9" x2="422.6" y2="528.4"/>
					<polyline fill="none" stroke="#333333" stroke-width="8.8759" stroke-linecap="round" stroke-linejoin="round" points="
						551.3,537.6 551.3,574.3 496.1,601.9 					"/>
					
						<line opacity="0.6" fill="none" stroke="#FFFFFF" stroke-width="8.8759" stroke-linecap="round" stroke-linejoin="round" enable-background="new    " x1="418.4" y1="227.1" x2="402.5" y2="219.1"/>
					
						<polyline opacity="0.6" fill="none" stroke="#FFFFFF" stroke-width="8.8759" stroke-linecap="round" stroke-linejoin="round" enable-background="new    " points="
						436.9,238.1 569.7,304.5 773.8,202.4 					"/>
					<g opacity="0.2">
						<path d="M312.2,259.6v75.7l159.9,80C372,352.2,329.8,314.2,312.2,259.6z"/>
					</g>
					<polyline fill="none" stroke="#333333" stroke-width="8.8759" stroke-linecap="round" stroke-linejoin="round" points="
						312.2,188.2 312.2,335.3 532.9,445.6 532.9,528.4 551.3,537.6 551.3,574.3 532.9,583.5 532.9,592.7 569.7,611.1 					"/>
					
						<line fill="none" stroke="#333333" stroke-width="8.8759" stroke-linecap="round" stroke-linejoin="round" x1="349" y1="353.7" x2="349" y2="436.4"/>
					
						<path opacity="0.6" fill="none" stroke="#FFFFFF" stroke-width="8.8759" stroke-linecap="round" stroke-linejoin="round" enable-background="new    " d="
						M518,541.8c-7.3,3.7-14.6,7.3-21.9,11c-7.8-3.9-15.6-7.8-23.4-11.7"/>
					
						<line opacity="0.6" fill="none" stroke="#FFFFFF" stroke-width="8.8759" stroke-linecap="round" stroke-linejoin="round" enable-background="new    " x1="309.8" y1="457.8" x2="290.4" y2="448.1"/>
					
						<line opacity="0.6" fill="none" stroke="#FFFFFF" stroke-width="8.8759" stroke-linecap="round" stroke-linejoin="round" enable-background="new    " x1="406.9" y1="506.4" x2="328.8" y2="467.3"/>
				</g>
			</g>
		</g>
	</g>
	<g opacity="0.1">
		<path fill="#FFFFFF" d="M387.9,36.6c18.6,0,210,0,228.6,0c13.6,0,16.5,11.3,17.1,17.4c-0.2-7.8-0.6-15.6-1.1-23.3v-0.1v-0.1
			c0-8.8-7.1-15.9-15.9-15.9H387.8c-8.8,0-15.9,7.1-15.9,15.9v0.1v0.1c-0.5,7.7-0.8,15.5-1.1,23.2C371.4,47.9,374.3,36.6,387.9,36.6
			z"/>
	</g>
	<g>
		<g>
			<defs>
				<path id="SVGID_5_" d="M926.6,560.6c-8.1,0-14.7-6.6-14.7-14.7V285c0-8.1,6.6-14.7,14.7-14.7h118.8c8.1,0,14.7,6.6,14.7,14.7
					v260.9c0,8.1-6.6,14.7-14.7,14.7L926.6,560.6L926.6,560.6z M401.2,544.5c9.2,0,16.7-7.5,16.7-16.7V188.6
					c0-9.2-7.5-16.7-16.7-16.7H185.1c-9.2,0-16.7,7.5-16.7,16.7v339.2c0,9.2,7.5,16.7,16.7,16.7L401.2,544.5L401.2,544.5z
					 M473.6,462.7c0,4.8,3.9,8.6,8.6,8.6h401.5c4.8,0,8.6-3.9,8.6-8.6V201c0-4.8-3.9-8.6-8.6-8.6H482.2c-4.8,0-8.6,3.9-8.6,8.6
					V462.7z M860,782.3c6,0,10.9-4.9,10.9-10.9V507c0-6-4.9-10.9-10.9-10.9H455.6c-6,0-10.9,4.9-10.9,10.9v264.3
					c0,6,4.9,10.9,10.9,10.9L860,782.3L860,782.3z M385.4,581.7H156.5c-0.5,0-0.9,0.4-0.9,0.9V706c0,0.5,0.4,0.9,0.9,0.9h228.9
					c0.5,0,0.9-0.4,0.9-0.9V582.7C386.3,582.2,385.9,581.7,385.4,581.7z M929.6,70.4c0-9.5-7.7-17.2-17.2-17.2H690.1
					c-9.5,0-17.2,7.7-17.2,17.2v88.2c0,9.5,7.7,17.2,17.2,17.2h222.3c9.5,0,17.2-7.7,17.2-17.2V70.4z M370.4,124.1L370.4,124.1
					L370.4,124.1c0,9.7,7.8,17.5,17.4,17.5h228.7c9.6,0,17.4-7.8,17.4-17.4v-0.1V124c1-15.6,1.5-31.4,1.5-46.9s-0.5-31.2-1.5-46.6
					v-0.1v-0.1c0-9.6-7.8-17.4-17.4-17.4H387.8c-9.6,0-17.4,7.8-17.4,17.4v0.1v0.1c-1,15.6-1.5,31.4-1.5,46.9
					C369,93.1,369.5,108.7,370.4,124.1z"/>
			</defs>
			<clipPath id="SVGID_6_">
				<use xlink:href="#SVGID_5_"  overflow="visible"/>
			</clipPath>
			<g opacity="0.15" clip-path="url(#SVGID_6_)">
				<path fill="#FFFFFF" d="M15.1,541.7l175.5-387.6h244.9L117.3,549.3L15.1,541.7z M460.9,150L543.4,3.6H421.8l-40.4,147.5
					L460.9,150z M1215.4,553.8L1098.2,240h-21.1l-72.2,313.7L1215.4,553.8z M-42.6,752.9l209.1-206.6H-8.1l-97.4,208.3L-42.6,752.9z
					 M865,44.5H731.5l-52.1,139.9l153.1,0.1L865,44.5z M308.5,694.3L272,791.6l248.5-2.2L719.7,480h-84.2l-159.9,0.5L308.5,694.3z
					 M487.9,480h212.9l29.5-0.3l116.2-294.9H655.8L487.9,480z"/>
			</g>
		</g>
		<g>
			<defs>
				<path id="SVGID_7_" d="M926.6,560.6c-8.1,0-14.7-6.6-14.7-14.7V285c0-8.1,6.6-14.7,14.7-14.7h118.8c8.1,0,14.7,6.6,14.7,14.7
					v260.9c0,8.1-6.6,14.7-14.7,14.7L926.6,560.6L926.6,560.6z M401.2,544.5c9.2,0,16.7-7.5,16.7-16.7V188.6
					c0-9.2-7.5-16.7-16.7-16.7H185.1c-9.2,0-16.7,7.5-16.7,16.7v339.2c0,9.2,7.5,16.7,16.7,16.7L401.2,544.5L401.2,544.5z
					 M473.6,462.7c0,4.8,3.9,8.6,8.6,8.6h401.5c4.8,0,8.6-3.9,8.6-8.6V201c0-4.8-3.9-8.6-8.6-8.6H482.2c-4.8,0-8.6,3.9-8.6,8.6
					V462.7z M860,782.3c6,0,10.9-4.9,10.9-10.9V507c0-6-4.9-10.9-10.9-10.9H455.6c-6,0-10.9,4.9-10.9,10.9v264.3
					c0,6,4.9,10.9,10.9,10.9L860,782.3L860,782.3z M385.4,581.7H156.5c-0.5,0-0.9,0.4-0.9,0.9V706c0,0.5,0.4,0.9,0.9,0.9h228.9
					c0.5,0,0.9-0.4,0.9-0.9V582.7C386.3,582.2,385.9,581.7,385.4,581.7z M929.6,70.4c0-9.5-7.7-17.2-17.2-17.2H690.1
					c-9.5,0-17.2,7.7-17.2,17.2v88.2c0,9.5,7.7,17.2,17.2,17.2h222.3c9.5,0,17.2-7.7,17.2-17.2V70.4z M370.4,124.1L370.4,124.1
					L370.4,124.1c0,9.7,7.8,17.5,17.4,17.5h228.7c9.6,0,17.4-7.8,17.4-17.4v-0.1V124c1-15.6,1.5-31.4,1.5-46.9s-0.5-31.2-1.5-46.6
					v-0.1v-0.1c0-9.6-7.8-17.4-17.4-17.4H387.8c-9.6,0-17.4,7.8-17.4,17.4v0.1v0.1c-1,15.6-1.5,31.4-1.5,46.9
					C369,93.1,369.5,108.7,370.4,124.1z"/>
			</defs>
			<clipPath id="SVGID_8_">
				<use xlink:href="#SVGID_7_"  overflow="visible"/>
			</clipPath>
			<polygon opacity="0.2" clip-path="url(#SVGID_8_)" fill="#FFFFFF" enable-background="new    " points="548.8,480 453.6,480 
				453.6,481.1 548.6,480.5 			"/>
		</g>
		<g>
			<defs>
				<path id="SVGID_9_" d="M926.6,560.6c-8.1,0-14.7-6.6-14.7-14.7V285c0-8.1,6.6-14.7,14.7-14.7h118.8c8.1,0,14.7,6.6,14.7,14.7
					v260.9c0,8.1-6.6,14.7-14.7,14.7L926.6,560.6L926.6,560.6z M401.2,544.5c9.2,0,16.7-7.5,16.7-16.7V188.6
					c0-9.2-7.5-16.7-16.7-16.7H185.1c-9.2,0-16.7,7.5-16.7,16.7v339.2c0,9.2,7.5,16.7,16.7,16.7L401.2,544.5L401.2,544.5z
					 M473.6,462.7c0,4.8,3.9,8.6,8.6,8.6h401.5c4.8,0,8.6-3.9,8.6-8.6V201c0-4.8-3.9-8.6-8.6-8.6H482.2c-4.8,0-8.6,3.9-8.6,8.6
					V462.7z M860,782.3c6,0,10.9-4.9,10.9-10.9V507c0-6-4.9-10.9-10.9-10.9H455.6c-6,0-10.9,4.9-10.9,10.9v264.3
					c0,6,4.9,10.9,10.9,10.9L860,782.3L860,782.3z M385.4,581.7H156.5c-0.5,0-0.9,0.4-0.9,0.9V706c0,0.5,0.4,0.9,0.9,0.9h228.9
					c0.5,0,0.9-0.4,0.9-0.9V582.7C386.3,582.2,385.9,581.7,385.4,581.7z M929.6,70.4c0-9.5-7.7-17.2-17.2-17.2H690.1
					c-9.5,0-17.2,7.7-17.2,17.2v88.2c0,9.5,7.7,17.2,17.2,17.2h222.3c9.5,0,17.2-7.7,17.2-17.2V70.4z M370.4,124.1L370.4,124.1
					L370.4,124.1c0,9.7,7.8,17.5,17.4,17.5h228.7c9.6,0,17.4-7.8,17.4-17.4v-0.1V124c1-15.6,1.5-31.4,1.5-46.9s-0.5-31.2-1.5-46.6
					v-0.1v-0.1c0-9.6-7.8-17.4-17.4-17.4H387.8c-9.6,0-17.4,7.8-17.4,17.4v0.1v0.1c-1,15.6-1.5,31.4-1.5,46.9
					C369,93.1,369.5,108.7,370.4,124.1z"/>
			</defs>
			<clipPath id="SVGID_10_">
				<use xlink:href="#SVGID_9_"  overflow="visible"/>
			</clipPath>
			<polygon opacity="0.2" clip-path="url(#SVGID_10_)" fill="#FFFFFF" enable-background="new    " points="548.8,480 453.6,480 
				453.6,481.1 548.6,480.5 			"/>
		</g>
		<g>
			<defs>
				<path id="SVGID_11_" d="M926.6,560.6c-8.1,0-14.7-6.6-14.7-14.7V285c0-8.1,6.6-14.7,14.7-14.7h118.8c8.1,0,14.7,6.6,14.7,14.7
					v260.9c0,8.1-6.6,14.7-14.7,14.7L926.6,560.6L926.6,560.6z M401.2,544.5c9.2,0,16.7-7.5,16.7-16.7V188.6
					c0-9.2-7.5-16.7-16.7-16.7H185.1c-9.2,0-16.7,7.5-16.7,16.7v339.2c0,9.2,7.5,16.7,16.7,16.7L401.2,544.5L401.2,544.5z
					 M473.6,462.7c0,4.8,3.9,8.6,8.6,8.6h401.5c4.8,0,8.6-3.9,8.6-8.6V201c0-4.8-3.9-8.6-8.6-8.6H482.2c-4.8,0-8.6,3.9-8.6,8.6
					V462.7z M860,782.3c6,0,10.9-4.9,10.9-10.9V507c0-6-4.9-10.9-10.9-10.9H455.6c-6,0-10.9,4.9-10.9,10.9v264.3
					c0,6,4.9,10.9,10.9,10.9L860,782.3L860,782.3z M385.4,581.7H156.5c-0.5,0-0.9,0.4-0.9,0.9V706c0,0.5,0.4,0.9,0.9,0.9h228.9
					c0.5,0,0.9-0.4,0.9-0.9V582.7C386.3,582.2,385.9,581.7,385.4,581.7z M929.6,70.4c0-9.5-7.7-17.2-17.2-17.2H690.1
					c-9.5,0-17.2,7.7-17.2,17.2v88.2c0,9.5,7.7,17.2,17.2,17.2h222.3c9.5,0,17.2-7.7,17.2-17.2V70.4z M370.4,124.1L370.4,124.1
					L370.4,124.1c0,9.7,7.8,17.5,17.4,17.5h228.7c9.6,0,17.4-7.8,17.4-17.4v-0.1V124c1-15.6,1.5-31.4,1.5-46.9s-0.5-31.2-1.5-46.6
					v-0.1v-0.1c0-9.6-7.8-17.4-17.4-17.4H387.8c-9.6,0-17.4,7.8-17.4,17.4v0.1v0.1c-1,15.6-1.5,31.4-1.5,46.9
					C369,93.1,369.5,108.7,370.4,124.1z"/>
			</defs>
			<clipPath id="SVGID_12_">
				<use xlink:href="#SVGID_11_"  overflow="visible"/>
			</clipPath>
			<polygon opacity="0.2" clip-path="url(#SVGID_12_)" fill="#FFFFFF" enable-background="new    " points="548.6,480.5 643.2,480 
				548.8,480 			"/>
		</g>
		<g>
			<defs>
				<path id="SVGID_13_" d="M926.6,560.6c-8.1,0-14.7-6.6-14.7-14.7V285c0-8.1,6.6-14.7,14.7-14.7h118.8c8.1,0,14.7,6.6,14.7,14.7
					v260.9c0,8.1-6.6,14.7-14.7,14.7L926.6,560.6L926.6,560.6z M401.2,544.5c9.2,0,16.7-7.5,16.7-16.7V188.6
					c0-9.2-7.5-16.7-16.7-16.7H185.1c-9.2,0-16.7,7.5-16.7,16.7v339.2c0,9.2,7.5,16.7,16.7,16.7L401.2,544.5L401.2,544.5z
					 M473.6,462.7c0,4.8,3.9,8.6,8.6,8.6h401.5c4.8,0,8.6-3.9,8.6-8.6V201c0-4.8-3.9-8.6-8.6-8.6H482.2c-4.8,0-8.6,3.9-8.6,8.6
					V462.7z M860,782.3c6,0,10.9-4.9,10.9-10.9V507c0-6-4.9-10.9-10.9-10.9H455.6c-6,0-10.9,4.9-10.9,10.9v264.3
					c0,6,4.9,10.9,10.9,10.9L860,782.3L860,782.3z M385.4,581.7H156.5c-0.5,0-0.9,0.4-0.9,0.9V706c0,0.5,0.4,0.9,0.9,0.9h228.9
					c0.5,0,0.9-0.4,0.9-0.9V582.7C386.3,582.2,385.9,581.7,385.4,581.7z M929.6,70.4c0-9.5-7.7-17.2-17.2-17.2H690.1
					c-9.5,0-17.2,7.7-17.2,17.2v88.2c0,9.5,7.7,17.2,17.2,17.2h222.3c9.5,0,17.2-7.7,17.2-17.2V70.4z M370.4,124.1L370.4,124.1
					L370.4,124.1c0,9.7,7.8,17.5,17.4,17.5h228.7c9.6,0,17.4-7.8,17.4-17.4v-0.1V124c1-15.6,1.5-31.4,1.5-46.9s-0.5-31.2-1.5-46.6
					v-0.1v-0.1c0-9.6-7.8-17.4-17.4-17.4H387.8c-9.6,0-17.4,7.8-17.4,17.4v0.1v0.1c-1,15.6-1.5,31.4-1.5,46.9
					C369,93.1,369.5,108.7,370.4,124.1z"/>
			</defs>
			<clipPath id="SVGID_14_">
				<use xlink:href="#SVGID_13_"  overflow="visible"/>
			</clipPath>
			<polygon opacity="0.2" clip-path="url(#SVGID_14_)" fill="#FFFFFF" enable-background="new    " points="548.6,480.5 643.2,480 
				548.8,480 			"/>
		</g>
	</g>
</g>
</svg>
