<?xml version="1.0" encoding="utf-8"?>
<!-- Generator: Adobe Illustrator 19.1.0, SVG Export Plug-In . SVG Version: 6.00 Build 0)  -->
<!DOCTYPE svg PUBLIC "-//W3C//DTD SVG 1.1//EN" "http://www.w3.org/Graphics/SVG/1.1/DTD/svg11.dtd">
<svg version="1.1" id="Layer_1" xmlns="http://www.w3.org/2000/svg" xmlns:xlink="http://www.w3.org/1999/xlink" x="0px" y="0px"
	 viewBox="0 0 1000 800" style="enable-background:new 0 0 1000 800;" xml:space="preserve">
<style type="text/css">
	.st0{opacity:0.2;}
	.st1{fill:#FF7F54;}
	.st2{fill:#444444;}
	.st3{opacity:0.2;fill:none;stroke:#FFFFFF;stroke-width:1.4232;stroke-linecap:round;stroke-miterlimit:10;}
	.st4{fill:none;stroke:#000000;stroke-width:1.8976;stroke-linecap:round;stroke-miterlimit:10;}
	.st5{opacity:0.2;fill:#FFFFFF;}
	.st6{fill:#222222;}
	.st7{opacity:5.000000e-02;fill:#FFFFFF;}
	.st8{opacity:0.3;fill:none;stroke:#FFFFFF;stroke-width:0.9488;stroke-linecap:round;stroke-miterlimit:10;}
	.st9{fill:#E9D19C;}
	.st10{fill:#333333;}
	.st11{fill:#6A5944;}
	.st12{fill:#F7EBDE;}
	.st13{fill:#F5F6F8;}
	.st14{fill:#666666;}
	.st15{fill:#4D4D4D;}
	.st16{fill:#4C7070;}
	.st17{fill:#474747;}
	.st18{fill:#868991;}
	.st19{fill:#292929;}
	.st20{fill:#1A1A1A;}
	.st21{fill:#5A9C9C;}
	.st22{fill:none;}
	.st23{fill:#545454;}
	.st24{fill:#464646;}
	.st25{fill:#CCCCCC;}
	.st26{fill:#94959A;}
	.st27{fill:#787A7D;}
	.st28{opacity:0.4;fill:none;stroke:#333333;stroke-width:0.9488;stroke-linecap:round;stroke-miterlimit:10;}
	
		.st29{opacity:0.4;fill:none;stroke:#333333;stroke-width:0.9488;stroke-linecap:round;stroke-linejoin:round;stroke-miterlimit:10;}
	.st30{opacity:0.4;fill:#333333;}
	.st31{opacity:0.4;}
	.st32{opacity:0.5;fill:none;stroke:#FFFFFF;stroke-width:1.4232;stroke-linecap:round;stroke-miterlimit:10;}
	.st33{fill:#808080;}
	.st34{fill:#132133;}
	.st35{fill:#B6C3D4;}
	.st36{fill:none;stroke:#333333;stroke-width:0.3132;stroke-miterlimit:10;}
	.st37{fill:none;stroke:#CCCCCC;stroke-width:0.9488;stroke-linecap:round;stroke-miterlimit:10;}
	.st38{fill:none;stroke:#CCCCCC;stroke-width:0.9488;stroke-linecap:round;stroke-linejoin:round;stroke-miterlimit:10;}
	.st39{fill:#02050A;}
	.st40{fill:#071829;}
	.st41{fill:#181C21;}
	.st42{fill:#31302C;}
	.st43{fill:#3E5D7E;}
	.st44{opacity:0.5;fill:#FAFEFF;}
	.st45{opacity:0.5;}
	.st46{fill:#798B99;}
	.st47{opacity:0.25;}
	.st48{fill-rule:evenodd;clip-rule:evenodd;fill:#E6E6E6;}
	.st49{fill:#0F0E14;}
	.st50{clip-path:url(#SVGID_2_);fill:#F4B504;}
	.st51{clip-path:url(#SVGID_2_);}
	.st52{fill:none;stroke:#333333;stroke-width:8.8759;stroke-linecap:round;stroke-linejoin:round;}
	.st53{fill:#B3B3B3;}
	.st54{opacity:0.6;fill:none;stroke:#FFFFFF;stroke-width:8.8759;stroke-linecap:round;stroke-linejoin:round;}
	.st55{fill:#999999;}
	.st56{fill:#FFFFFF;}
	.st57{fill:none;stroke:#333333;stroke-width:4.5971;stroke-linecap:round;stroke-linejoin:round;}
	.st58{fill:#46A3BD;}
	.st59{opacity:0.1;}
	.st60{opacity:0.15;clip-path:url(#SVGID_4_);}
	.st61{opacity:0.2;clip-path:url(#SVGID_4_);fill:#FFFFFF;}
</style>
<g>
	<g>
		<g>
			<g class="st0">
				<path d="M821.9,570.1c-10.2,0-18.5-8.3-18.5-18.5V290.7c0-10.2,8.3-18.5,18.5-18.5h118.8c10.2,0,18.5,8.3,18.5,18.5v260.9
					c0,10.2-8.3,18.5-18.5,18.5H821.9z"/>
			</g>
			<g>
				<path class="st1" d="M826.6,564.4c-10.2,0-18.5-8.3-18.5-18.5V285c0-10.2,8.3-18.5,18.5-18.5h118.8c10.2,0,18.5,8.3,18.5,18.5
					v260.9c0,10.2-8.3,18.5-18.5,18.5H826.6z"/>
			</g>
		</g>
		<path class="st2" d="M826.6,560.6c-8.1,0-14.7-6.6-14.7-14.7V285c0-8.1,6.6-14.7,14.7-14.7h118.8c8.1,0,14.7,6.6,14.7,14.7v260.9
			c0,8.1-6.6,14.7-14.7,14.7H826.6z"/>
		<path class="st3" d="M814.3,362.6V285c0-6.8,5.5-12.3,12.3-12.3h99.6"/>
		<line class="st3" x1="866" y1="558.3" x2="860.8" y2="558.3"/>
		<path class="st3" d="M957.8,449.4v96.5c0,6.8-5.5,12.3-12.3,12.3h-72.3"/>
		<line class="st3" x1="957.8" y1="429" x2="957.8" y2="441.8"/>
		<path class="st4" d="M941,274.1h4.5c6,0,10.9,4.9,10.9,10.9v60"/>
		<path class="st4" d="M847.5,556.8h-20.9c-6,0-10.9-4.9-10.9-10.9V374.4"/>
		<path d="M891.1,279h-11.4c-0.5,0-1-0.4-1-1l0,0c0-0.6,0.4-1,1-1h11.4c0.5,0,1,0.4,1,1l0,0C892.1,278.6,891.7,279,891.1,279z"/>
		<circle class="st5" cx="899.8" cy="279.2" r="1"/>
		<path class="st5" d="M919.2,281.3h-4.5c-1.2,0-2.1-0.9-2.1-2.1v0c0-1.2,0.9-2.1,2.1-2.1h4.5c1.2,0,2.1,0.9,2.1,2.1v0
			C921.3,280.3,920.3,281.3,919.2,281.3z"/>
		<path d="M898.4,557.6l1-1.5c0.3-0.4,0.7-0.6,1.2-0.6h1.6c0.5,0,0.9,0.2,1.2,0.6l1,1.5H898.4z"/>
		<path d="M964,336.4l1.5,1c0.4,0.3,0.6,0.7,0.6,1.2v42.5c0,0.5-0.2,0.9-0.6,1.2l-1.5,1V336.4z"/>
		<path d="M964,404.7l1.5,1c0.4,0.3,0.6,0.7,0.6,1.2v19.4c0,0.5-0.2,0.9-0.6,1.2l-1.5,1V404.7z"/>
		<rect x="822.9" y="296.8" class="st6" width="126.3" height="237.2"/>
		<path id="path5056_1_" class="st7" d="M899.1,287.1v-0.6h-0.8v-1l0,0l-0.7,0.2l0,0v0.7h-1.2V286c0-0.2,0-0.3,0.1-0.4
			c0.1-0.1,0.2-0.1,0.4-0.1c0.1,0,0.2,0,0.3,0.1l0,0v-0.7l0,0c-0.1,0-0.3-0.1-0.4-0.1c-0.2,0-0.4,0.1-0.6,0.1
			c-0.2,0.1-0.3,0.2-0.4,0.4c-0.1,0.2-0.2,0.4-0.2,0.6v0.5H895v0.6h0.5v2.7h0.8v-2.7h1.2v1.7c0,0.7,0.3,1.1,1,1.1c0.1,0,0.2,0,0.3,0
			c0.1,0,0.2-0.1,0.2-0.1l0,0v-0.6l0,0c0,0-0.1,0.1-0.2,0.1c-0.1,0-0.1,0-0.2,0c-0.2,0-0.3,0-0.3-0.1c-0.1-0.1-0.1-0.2-0.1-0.4v-1.6
			H899.1L899.1,287.1z M893.3,289.2c-0.3,0-0.5-0.1-0.7-0.3c-0.2-0.2-0.2-0.5-0.2-0.8c0-0.4,0.1-0.6,0.2-0.8
			c0.2-0.2,0.4-0.3,0.7-0.3c0.3,0,0.5,0.1,0.6,0.3c0.2,0.2,0.2,0.5,0.2,0.8c0,0.4-0.1,0.6-0.2,0.8
			C893.8,289.1,893.6,289.2,893.3,289.2 M893.3,286.4c-0.5,0-1,0.2-1.3,0.5c-0.3,0.3-0.5,0.8-0.5,1.3c0,0.5,0.2,0.9,0.5,1.2
			c0.3,0.3,0.7,0.5,1.2,0.5c0.5,0,1-0.2,1.3-0.5c0.3-0.3,0.5-0.8,0.5-1.3c0-0.5-0.1-0.9-0.4-1.2
			C894.2,286.5,893.8,286.4,893.3,286.4 M890.3,286.4c-0.4,0-0.7,0.1-0.9,0.3c-0.2,0.2-0.4,0.4-0.4,0.7c0,0.2,0,0.3,0.1,0.4
			c0.1,0.1,0.1,0.2,0.2,0.3c0.1,0.1,0.3,0.2,0.5,0.3c0.2,0.1,0.3,0.1,0.4,0.2c0.1,0,0.1,0.1,0.2,0.1c0,0,0,0.1,0,0.2
			c0,0.2-0.2,0.3-0.5,0.3c-0.1,0-0.3,0-0.4-0.1c-0.2-0.1-0.3-0.1-0.4-0.2l0,0v0.8l0,0c0.1,0.1,0.3,0.1,0.4,0.1
			c0.2,0,0.3,0.1,0.4,0.1c0.4,0,0.7-0.1,1-0.3c0.2-0.2,0.4-0.4,0.4-0.8c0-0.2-0.1-0.4-0.2-0.6c-0.1-0.2-0.3-0.3-0.7-0.4
			c-0.2-0.1-0.4-0.2-0.5-0.2c-0.1-0.1-0.1-0.1-0.1-0.3c0-0.1,0-0.2,0.1-0.2c0.1-0.1,0.2-0.1,0.3-0.1c0.1,0,0.3,0,0.4,0.1
			c0.1,0,0.3,0.1,0.3,0.2l0,0v-0.7l0,0c-0.1,0-0.2-0.1-0.4-0.1C890.5,286.4,890.4,286.4,890.3,286.4 M887,289.2
			c-0.3,0-0.5-0.1-0.7-0.3c-0.2-0.2-0.2-0.5-0.2-0.8c0-0.4,0.1-0.6,0.2-0.8c0.2-0.2,0.4-0.3,0.7-0.3c0.3,0,0.5,0.1,0.6,0.3
			c0.2,0.2,0.2,0.5,0.2,0.8c0,0.4-0.1,0.6-0.2,0.8C887.5,289.1,887.2,289.2,887,289.2 M887,286.4c-0.5,0-1,0.2-1.3,0.5
			c-0.3,0.3-0.5,0.8-0.5,1.3c0,0.5,0.2,0.9,0.5,1.2c0.3,0.3,0.7,0.5,1.2,0.5c0.5,0,1-0.2,1.3-0.5c0.3-0.3,0.5-0.8,0.5-1.3
			c0-0.5-0.1-0.9-0.4-1.2C887.9,286.5,887.5,286.4,887,286.4 M884,287v-0.6h-0.8v3.3h0.8v-1.7c0-0.3,0.1-0.5,0.2-0.7
			c0.1-0.2,0.3-0.3,0.5-0.3c0.1,0,0.1,0,0.2,0c0.1,0,0.1,0,0.2,0.1l0,0v-0.8l0,0c-0.1,0-0.2,0-0.3,0c-0.2,0-0.4,0.1-0.5,0.2
			C884.2,286.7,884.1,286.9,884,287L884,287z M881.9,286.4c-0.4,0-0.7,0.1-0.9,0.2c-0.3,0.2-0.5,0.4-0.6,0.6c-0.1,0.3-0.2,0.6-0.2,1
			c0,0.3,0.1,0.6,0.2,0.9c0.1,0.3,0.3,0.5,0.6,0.6c0.2,0.1,0.5,0.2,0.9,0.2c0.4,0,0.7-0.1,0.9-0.2l0,0v-0.7l0,0
			c-0.1,0.1-0.2,0.2-0.4,0.2c-0.1,0-0.3,0.1-0.4,0.1c-0.3,0-0.6-0.1-0.7-0.3c-0.2-0.2-0.3-0.5-0.3-0.8c0-0.3,0.1-0.6,0.3-0.8
			c0.2-0.2,0.4-0.3,0.7-0.3c0.3,0,0.5,0.1,0.7,0.3l0,0v-0.8l0,0c-0.1,0-0.2-0.1-0.4-0.1C882.2,286.4,882,286.4,881.9,286.4
			 M879.5,286.5h-0.8v3.3h0.8V286.5z M879.2,285.1c-0.1,0-0.2,0-0.3,0.1c-0.1,0.1-0.1,0.2-0.1,0.3c0,0.1,0,0.2,0.1,0.3
			c0.1,0.1,0.2,0.1,0.3,0.1c0.1,0,0.2,0,0.3-0.1c0.1-0.1,0.1-0.2,0.1-0.3c0-0.1,0-0.2-0.1-0.3C879.4,285.1,879.3,285.1,879.2,285.1
			 M877.2,286.2v3.6h0.8v-4.6h-1.1l-1.4,3.4l-1.4-3.4H873v4.6h0.7v-3.6h0l1.4,3.6h0.6L877.2,286.2L877.2,286.2L877.2,286.2z"/>
		<line class="st8" x1="965.3" y1="339.3" x2="965.3" y2="374.8"/>
		<line class="st8" x1="965.3" y1="407.5" x2="965.3" y2="419.1"/>
	</g>
	<g>
		<g>
			<g class="st0">
				<path d="M80.3,553.5c-11,0-20-9-20-20V194.3c0-11,9-20,20-20h216.1c11,0,20,9,20,20v339.2c0,11-9,20-20,20H80.3z"/>
				<path d="M296.5,175.3c10.5,0,19.1,8.5,19.1,19.1v339.2c0,10.5-8.5,19-19.1,19H80.3c-10.5,0-19.1-8.5-19.1-19V194.3
					c0-10.5,8.5-19.1,19.1-19.1H296.5 M296.5,173.4H80.3c-11.6,0-20.9,9.4-20.9,20.9v339.2c0,11.6,9.4,20.9,20.9,20.9h216.1
					c11.6,0,20.9-9.4,20.9-20.9V194.3C317.4,182.8,308,173.4,296.5,173.4L296.5,173.4z"/>
			</g>
			<g>
				<path class="st9" d="M85.1,547.9c-11,0-20-9-20-20V188.6c0-11,9-20,20-20h216.1c11,0,20,9,20,20v339.2c0,11-9,20-20,20H85.1z"/>
				<path class="st10" d="M301.2,169.6c10.5,0,19.1,8.5,19.1,19.1v339.2c0,10.5-8.5,19-19.1,19H85.1c-10.5,0-19.1-8.5-19.1-19V188.6
					c0-10.5,8.5-19.1,19.1-19.1H301.2 M301.2,167.7H85.1c-11.6,0-20.9,9.4-20.9,20.9v339.2c0,11.6,9.4,20.9,20.9,20.9h216.1
					c11.6,0,20.9-9.4,20.9-20.9V188.6C322.2,177.1,312.8,167.7,301.2,167.7L301.2,167.7z"/>
			</g>
		</g>
		<path class="st11" d="M320.3,527.9v-34.6L97.8,169.6H85.1c-10.5,0-19,8.5-19,19.1v18.1l233.8,340.1h1.4
			C311.7,546.9,320.3,538.4,320.3,527.9z"/>
		<path class="st12" d="M315.6,540.3c2-2.3,3.5-5.1,4.2-8.3L73.4,173.6c-2.2,1.7-4.1,4-5.4,6.5L315.6,540.3z"/>
		<path class="st11" d="M66,527.9v-34.6l222.5-323.7h12.7c10.5,0,19,8.5,19,19.1v18.1L86.5,546.9h-1.4C74.5,546.9,66,538.4,66,527.9
			z"/>
		<path class="st12" d="M70.6,540.3c-2-2.3-3.5-5.1-4.2-8.3l246.4-358.5c2.2,1.7,4.1,4,5.4,6.5L70.6,540.3z"/>
		<g>
			<path class="st13" d="M85.1,544.1c-8.9,0-16.2-7.3-16.2-16.2V188.6c0-8.9,7.3-16.2,16.2-16.2h216.1c8.9,0,16.2,7.3,16.2,16.2
				v339.2c0,8.9-7.3,16.2-16.2,16.2H85.1z"/>
			<path class="st14" d="M301.2,172.9c8.7,0,15.7,7.1,15.7,15.7v339.2c0,8.7-7.1,15.7-15.7,15.7H85.1c-8.7,0-15.7-7.1-15.7-15.7
				V188.6c0-8.7,7.1-15.7,15.7-15.7H301.2 M301.2,171.9H85.1c-9.2,0-16.7,7.5-16.7,16.7v339.2c0,9.2,7.5,16.7,16.7,16.7h216.1
				c9.2,0,16.7-7.5,16.7-16.7V188.6C317.9,179.4,310.4,171.9,301.2,171.9L301.2,171.9z"/>
		</g>
		<path class="st15" d="M306.1,510.8H79.6c-0.5,0-0.9-0.4-0.9-0.9V207.2c0-0.5,0.4-0.9,0.9-0.9h226.5c0.5,0,0.9,0.4,0.9,0.9v302.7
			C307.1,510.4,306.7,510.8,306.1,510.8z"/>
		<circle class="st11" cx="193.1" cy="529.9" r="10"/>
		<path class="st9" d="M185.5,536.2l16.9-2.6c0.5-1.1,0.7-2.4,0.7-3.7c0-1.6-0.4-3.1-1.1-4.5c-5.8,2-14.6,5-18.7,6.3
			C183.7,533.4,184.4,535,185.5,536.2z"/>
		<circle class="st13" cx="193.1" cy="529.9" r="8.5"/>
		<g>
			<circle class="st16" cx="192.9" cy="189.6" r="1.7"/>
			<path class="st17" d="M192.9,188.6c0.6,0,1,0.5,1,1s-0.5,1-1,1c-0.6,0-1-0.5-1-1S192.3,188.6,192.9,188.6 M192.9,187.2
				c-1.3,0-2.4,1.1-2.4,2.4s1.1,2.4,2.4,2.4c1.3,0,2.4-1.1,2.4-2.4S194.2,187.2,192.9,187.2L192.9,187.2z"/>
		</g>
		<circle class="st17" cx="185.4" cy="189.8" r="1.1"/>
	</g>
	<g>
		<g>
			<g class="st0">
				<path d="M365.1,468.4V206.7c0-6.9,5.6-12.4,12.4-12.4H779c6.9,0,12.4,5.6,12.4,12.4v261.7c0,6.9-5.6,12.4-12.4,12.4H377.5
					C370.6,480.8,365.1,475.2,365.1,468.4z"/>
			</g>
			<g>
				<path class="st18" d="M369.8,462.7V201c0-6.9,5.6-12.4,12.4-12.4h401.5c6.9,0,12.4,5.6,12.4,12.4v261.7
					c0,6.9-5.6,12.4-12.4,12.4H382.2C375.4,475.1,369.8,469.5,369.8,462.7z"/>
			</g>
		</g>
		<g>
			<polygon class="st17" points="796.2,434 440.4,188.5 403.7,188.5 796.2,459.4 			"/>
			<path class="st17" d="M768.9,475.1L369.9,199.8c0,0.4-0.1,0.8-0.1,1.2v24.1l362.4,250H768.9z"/>
		</g>
		<path class="st2" d="M371.7,201c0-5.8,4.7-10.5,10.5-10.5h401.5c5.8,0,10.5,4.7,10.5,10.5v261.7c0,5.8-4.7,10.5-10.5,10.5H382.2
			c-5.8,0-10.5-4.7-10.5-10.5V201z"/>
		<path class="st19" d="M373.6,201c0-4.8,3.9-8.6,8.6-8.6h401.5c4.8,0,8.6,3.9,8.6,8.6v261.7c0,4.8-3.9,8.6-8.6,8.6H382.2
			c-4.8,0-8.6-3.9-8.6-8.6V201z"/>
		<polygon class="st20" points="792.4,292.2 789.9,294 789.9,369 792.4,370.9 		"/>
		<polygon class="st20" points="373.6,370.9 376.1,369 376.1,294 373.6,292.2 		"/>
		<rect x="413.5" y="204.7" class="st20" width="339.2" height="254.3"/>
		<g>
			<path class="st21" d="M772.2,334c-1.2,0-2.1-1-2.1-2.1s1-2.1,2.1-2.1c1.2,0,2.1,1,2.1,2.1S773.4,334,772.2,334z"/>
			<path class="st17" d="M772.2,330.9c0.5,0,0.9,0.4,0.9,0.9s-0.4,0.9-0.9,0.9c-0.5,0-0.9-0.4-0.9-0.9S771.7,330.9,772.2,330.9
				 M772.2,328.5c-1.8,0-3.3,1.5-3.3,3.3s1.5,3.3,3.3,3.3c1.8,0,3.3-1.5,3.3-3.3S774,328.5,772.2,328.5L772.2,328.5z"/>
		</g>
		<circle class="st17" cx="394.1" cy="331.8" r="1.9"/>
		<polygon class="st18" points="710.2,476.4 709.2,474.8 728.2,474.8 727.2,476.4 		"/>
		<polygon class="st18" points="650.3,476.4 649.3,474.8 697.9,474.8 697,476.4 		"/>
		<polygon class="st2" points="710.2,474.3 709.2,474.8 728.2,474.8 727.2,474.3 		"/>
		<polygon class="st2" points="650.3,474.3 649.3,474.8 697.9,474.8 697,474.3 		"/>
	</g>
	<g>
		<path class="st22" d="M760,787H355.6c-8.7,0-15.7-7-15.7-15.7V507c0-8.7,7-15.7,15.7-15.7H760c8.7,0,15.7,7,15.7,15.7v264.3
			C775.7,780,768.7,787,760,787z"/>
		<g>
			<g class="st0">
				<path d="M755.3,792.7H350.8c-8.7,0-15.7-7-15.7-15.7V512.7c0-8.7,7-15.7,15.7-15.7h404.5c8.7,0,15.7,7,15.7,15.7V777
					C771,785.7,763.9,792.7,755.3,792.7z"/>
			</g>
			<g>
				<path class="st23" d="M760,787H355.6c-8.7,0-15.7-7-15.7-15.7V507c0-8.7,7-15.7,15.7-15.7H760c8.7,0,15.7,7,15.7,15.7v264.3
					C775.7,780,768.7,787,760,787z"/>
			</g>
		</g>
		<path class="st10" d="M355.6,785.1c-7.6,0-13.8-6.2-13.8-13.8V507c0-7.6,6.2-13.8,13.8-13.8H760c7.6,0,13.8,6.2,13.8,13.8v264.3
			c0,7.6-6.2,13.8-13.8,13.8H355.6z"/>
		<path class="st20" d="M355.6,782.3c-6,0-10.9-4.9-10.9-10.9V507c0-6,4.9-10.9,10.9-10.9H760c6,0,10.9,4.9,10.9,10.9v264.3
			c0,6-4.9,10.9-10.9,10.9H355.6z"/>
		<rect x="376.2" y="526.6" width="363.3" height="227.6"/>
		<rect x="376.2" y="526.6" width="363.3" height="227.6"/>
		<g>
			<path class="st16" d="M557.8,513.3c-1.2,0-2.1-1-2.1-2.1c0-1.2,1-2.1,2.1-2.1c1.2,0,2.1,1,2.1,2.1
				C559.9,512.4,559,513.3,557.8,513.3z"/>
			<path class="st17" d="M557.8,510.2c0.5,0,0.9,0.4,0.9,0.9s-0.4,0.9-0.9,0.9s-0.9-0.4-0.9-0.9S557.3,510.2,557.8,510.2
				 M557.8,507.9c-1.8,0-3.3,1.5-3.3,3.3c0,1.8,1.5,3.3,3.3,3.3s3.3-1.5,3.3-3.3C561.1,509.4,559.6,507.9,557.8,507.9L557.8,507.9z"
				/>
		</g>
	</g>
	<g>
		<g>
			<g class="st0">
				<path d="M49,717.9c-11.8,0-21.4-9.6-21.4-21.4v-92.8c0-11.8,9.6-21.4,21.4-21.4h232.9c11.8,0,21.4,9.6,21.4,21.4v92.8
					c0,11.8-9.6,21.4-21.4,21.4H49z"/>
			</g>
			<g>
				<path class="st10" d="M53.7,712.2c-11.8,0-21.4-9.6-21.4-21.4V598c0-11.8,9.6-21.4,21.4-21.4h232.9c11.8,0,21.4,9.6,21.4,21.4
					v92.8c0,11.8-9.6,21.4-21.4,21.4H53.7z"/>
			</g>
		</g>
		<path class="st24" d="M304.2,690.8c0,9.7-7.9,17.6-17.6,17.6H53.7c-9.7,0-17.6-7.9-17.6-17.6V598c0-9.7,7.9-17.6,17.6-17.6h232.9
			c9.7,0,17.6,7.9,17.6,17.6V690.8z"/>
		<g>
			<circle class="st20" cx="45.8" cy="679.6" r="0.4"/>
			<circle class="st20" cx="47.3" cy="679.6" r="0.4"/>
			<circle class="st20" cx="48.8" cy="679.6" r="0.4"/>
			<circle class="st20" cx="50.3" cy="679.6" r="0.4"/>
			<circle class="st20" cx="45.8" cy="678.1" r="0.4"/>
			<circle class="st20" cx="47.3" cy="678.1" r="0.4"/>
			<circle class="st20" cx="48.8" cy="678.1" r="0.4"/>
			<circle class="st20" cx="50.3" cy="678.1" r="0.4"/>
			<circle class="st20" cx="45.8" cy="676.5" r="0.4"/>
			<circle class="st20" cx="47.3" cy="676.5" r="0.4"/>
			<circle class="st20" cx="48.8" cy="676.5" r="0.4"/>
			<circle class="st20" cx="50.3" cy="676.5" r="0.4"/>
			<circle class="st20" cx="45.8" cy="675" r="0.4"/>
			<circle class="st20" cx="47.3" cy="675" r="0.4"/>
			<circle class="st20" cx="48.8" cy="675" r="0.4"/>
			<circle class="st20" cx="50.3" cy="675" r="0.4"/>
			<circle class="st20" cx="45.8" cy="673.5" r="0.4"/>
			<circle class="st20" cx="47.3" cy="673.5" r="0.4"/>
			<circle class="st20" cx="48.8" cy="673.5" r="0.4"/>
			<circle class="st20" cx="50.3" cy="673.5" r="0.4"/>
			<circle class="st20" cx="45.8" cy="672" r="0.4"/>
			<circle class="st20" cx="47.3" cy="672" r="0.4"/>
			<circle class="st20" cx="48.8" cy="672" r="0.4"/>
			<circle class="st20" cx="50.3" cy="672" r="0.4"/>
			<circle class="st20" cx="45.8" cy="670.4" r="0.4"/>
			<circle class="st20" cx="47.3" cy="670.4" r="0.4"/>
			<circle class="st20" cx="48.8" cy="670.4" r="0.4"/>
			<circle class="st20" cx="50.3" cy="670.4" r="0.4"/>
			<circle class="st20" cx="45.8" cy="668.9" r="0.4"/>
			<circle class="st20" cx="47.3" cy="668.9" r="0.4"/>
			<circle class="st20" cx="48.8" cy="668.9" r="0.4"/>
			<circle class="st20" cx="50.3" cy="668.9" r="0.4"/>
			<circle class="st20" cx="45.8" cy="667.4" r="0.4"/>
			<circle class="st20" cx="47.3" cy="667.4" r="0.4"/>
			<circle class="st20" cx="48.8" cy="667.4" r="0.4"/>
			<circle class="st20" cx="50.3" cy="667.4" r="0.4"/>
			<circle class="st20" cx="45.8" cy="665.9" r="0.4"/>
			<circle class="st20" cx="47.3" cy="665.9" r="0.4"/>
			<circle class="st20" cx="48.8" cy="665.9" r="0.4"/>
			<circle class="st20" cx="50.3" cy="665.9" r="0.4"/>
			<circle class="st20" cx="45.8" cy="664.3" r="0.4"/>
			<circle class="st20" cx="47.3" cy="664.3" r="0.4"/>
			<circle class="st20" cx="48.8" cy="664.3" r="0.4"/>
			<circle class="st20" cx="50.3" cy="664.3" r="0.4"/>
			<circle class="st20" cx="45.8" cy="662.8" r="0.4"/>
			<circle class="st20" cx="47.3" cy="662.8" r="0.4"/>
			<circle class="st20" cx="48.8" cy="662.8" r="0.4"/>
			<circle class="st20" cx="50.3" cy="662.8" r="0.4"/>
			<circle class="st20" cx="45.8" cy="661.3" r="0.4"/>
			<circle class="st20" cx="47.3" cy="661.3" r="0.4"/>
			<circle class="st20" cx="48.8" cy="661.3" r="0.4"/>
			<circle class="st20" cx="50.3" cy="661.3" r="0.4"/>
			<circle class="st20" cx="45.8" cy="659.8" r="0.4"/>
			<circle class="st20" cx="47.3" cy="659.8" r="0.4"/>
			<circle class="st20" cx="48.8" cy="659.8" r="0.4"/>
			<circle class="st20" cx="50.3" cy="659.8" r="0.4"/>
			<circle class="st20" cx="45.8" cy="658.2" r="0.4"/>
			<circle class="st20" cx="47.3" cy="658.2" r="0.4"/>
			<circle class="st20" cx="48.8" cy="658.2" r="0.4"/>
			<circle class="st20" cx="50.3" cy="658.2" r="0.4"/>
			<circle class="st20" cx="45.8" cy="656.7" r="0.4"/>
			<circle class="st20" cx="47.3" cy="656.7" r="0.4"/>
			<circle class="st20" cx="48.8" cy="656.7" r="0.4"/>
			<circle class="st20" cx="50.3" cy="656.7" r="0.4"/>
			<circle class="st20" cx="45.8" cy="655.2" r="0.4"/>
			<circle class="st20" cx="47.3" cy="655.2" r="0.4"/>
			<circle class="st20" cx="48.8" cy="655.2" r="0.4"/>
			<circle class="st20" cx="50.3" cy="655.2" r="0.4"/>
			<circle class="st20" cx="45.8" cy="653.7" r="0.4"/>
			<circle class="st20" cx="47.3" cy="653.7" r="0.4"/>
			<circle class="st20" cx="48.8" cy="653.7" r="0.4"/>
			<circle class="st20" cx="50.3" cy="653.7" r="0.4"/>
			<circle class="st20" cx="45.8" cy="652.1" r="0.4"/>
			<circle class="st20" cx="47.3" cy="652.1" r="0.4"/>
			<circle class="st20" cx="48.8" cy="652.1" r="0.4"/>
			<circle class="st20" cx="50.3" cy="652.1" r="0.4"/>
			<circle class="st20" cx="45.8" cy="650.6" r="0.4"/>
			<circle class="st20" cx="47.3" cy="650.6" r="0.4"/>
			<circle class="st20" cx="48.8" cy="650.6" r="0.4"/>
			<circle class="st20" cx="50.3" cy="650.6" r="0.4"/>
			<circle class="st20" cx="45.8" cy="649.1" r="0.4"/>
			<circle class="st20" cx="47.3" cy="649.1" r="0.4"/>
			<circle class="st20" cx="48.8" cy="649.1" r="0.4"/>
			<circle class="st20" cx="50.3" cy="649.1" r="0.4"/>
			<circle class="st20" cx="45.8" cy="647.6" r="0.4"/>
			<circle class="st20" cx="47.3" cy="647.6" r="0.4"/>
			<circle class="st20" cx="48.8" cy="647.6" r="0.4"/>
			<circle class="st20" cx="50.3" cy="647.6" r="0.4"/>
			<circle class="st20" cx="45.8" cy="646.1" r="0.4"/>
			<circle class="st20" cx="47.3" cy="646.1" r="0.4"/>
			<circle class="st20" cx="48.8" cy="646.1" r="0.4"/>
			<circle class="st20" cx="50.3" cy="646.1" r="0.4"/>
			<circle class="st20" cx="45.8" cy="644.5" r="0.4"/>
			<circle class="st20" cx="47.3" cy="644.5" r="0.4"/>
			<circle class="st20" cx="48.8" cy="644.5" r="0.4"/>
			<circle class="st20" cx="50.3" cy="644.5" r="0.4"/>
			<circle class="st20" cx="45.8" cy="643" r="0.4"/>
			<circle class="st20" cx="47.3" cy="643" r="0.4"/>
			<circle class="st20" cx="48.8" cy="643" r="0.4"/>
			<circle class="st20" cx="50.3" cy="643" r="0.4"/>
			<circle class="st20" cx="45.8" cy="641.5" r="0.4"/>
			<circle class="st20" cx="47.3" cy="641.5" r="0.4"/>
			<circle class="st20" cx="48.8" cy="641.5" r="0.4"/>
			<circle class="st20" cx="50.3" cy="641.5" r="0.4"/>
			<circle class="st20" cx="45.8" cy="640" r="0.4"/>
			<circle class="st20" cx="47.3" cy="640" r="0.4"/>
			<circle class="st20" cx="48.8" cy="640" r="0.4"/>
			<circle class="st20" cx="50.3" cy="640" r="0.4"/>
			<circle class="st20" cx="45.8" cy="638.4" r="0.4"/>
			<circle class="st20" cx="47.3" cy="638.4" r="0.4"/>
			<circle class="st20" cx="48.8" cy="638.4" r="0.4"/>
			<circle class="st20" cx="50.3" cy="638.4" r="0.4"/>
			<circle class="st20" cx="45.8" cy="636.9" r="0.4"/>
			<circle class="st20" cx="47.3" cy="636.9" r="0.4"/>
			<circle class="st20" cx="48.8" cy="636.9" r="0.4"/>
			<circle class="st20" cx="50.3" cy="636.9" r="0.4"/>
			<circle class="st20" cx="45.8" cy="635.4" r="0.4"/>
			<circle class="st20" cx="47.3" cy="635.4" r="0.4"/>
			<circle class="st20" cx="48.8" cy="635.4" r="0.4"/>
			<circle class="st20" cx="50.3" cy="635.4" r="0.4"/>
			<circle class="st20" cx="45.8" cy="633.9" r="0.4"/>
			<circle class="st20" cx="47.3" cy="633.9" r="0.4"/>
			<circle class="st20" cx="48.8" cy="633.9" r="0.4"/>
			<circle class="st20" cx="50.3" cy="633.9" r="0.4"/>
			<circle class="st20" cx="45.8" cy="632.3" r="0.4"/>
			<circle class="st20" cx="47.3" cy="632.3" r="0.4"/>
			<circle class="st20" cx="48.8" cy="632.3" r="0.4"/>
			<circle class="st20" cx="50.3" cy="632.3" r="0.4"/>
			<circle class="st20" cx="45.8" cy="630.8" r="0.4"/>
			<circle class="st20" cx="47.3" cy="630.8" r="0.4"/>
			<circle class="st20" cx="48.8" cy="630.8" r="0.4"/>
			<circle class="st20" cx="50.3" cy="630.8" r="0.4"/>
		</g>
		<path class="st20" d="M52.8,626L52.8,626c0,1-0.8,1.8-1.8,1.8h-5.9c-1,0-1.8-0.8-1.8-1.8l0,0c0-1,0.8-1.8,1.8-1.8H51
			C52,624.2,52.8,625,52.8,626z"/>
		<circle class="st20" cx="48" cy="614.7" r="4.8"/>
		<circle class="st10" cx="48" cy="614.7" r="2.9"/>
		<circle class="st20" cx="48" cy="614.7" r="2"/>
		<ellipse class="st25" cx="48.2" cy="614.2" rx="0.6" ry="0.5"/>
		<ellipse class="st25" cx="47.9" cy="615.9" rx="0.3" ry="0.5"/>
		<g>
			<circle class="st20" cx="291.7" cy="679.6" r="0.4"/>
			<circle class="st20" cx="293.2" cy="679.6" r="0.4"/>
			<circle class="st20" cx="294.7" cy="679.6" r="0.4"/>
			<circle class="st20" cx="296.2" cy="679.6" r="0.4"/>
			<circle class="st20" cx="291.7" cy="678" r="0.4"/>
			<circle class="st20" cx="293.2" cy="678" r="0.4"/>
			<circle class="st20" cx="294.7" cy="678" r="0.4"/>
			<circle class="st20" cx="296.2" cy="678" r="0.4"/>
			<circle class="st20" cx="291.7" cy="676.5" r="0.4"/>
			<circle class="st20" cx="293.2" cy="676.5" r="0.4"/>
			<circle class="st20" cx="294.7" cy="676.5" r="0.4"/>
			<circle class="st20" cx="296.2" cy="676.5" r="0.4"/>
			<circle class="st20" cx="291.7" cy="675" r="0.4"/>
			<circle class="st20" cx="293.2" cy="675" r="0.4"/>
			<circle class="st20" cx="294.7" cy="675" r="0.4"/>
			<circle class="st20" cx="296.2" cy="675" r="0.4"/>
			<circle class="st20" cx="291.7" cy="673.5" r="0.4"/>
			<circle class="st20" cx="293.2" cy="673.5" r="0.4"/>
			<circle class="st20" cx="294.7" cy="673.5" r="0.4"/>
			<circle class="st20" cx="296.2" cy="673.5" r="0.4"/>
			<circle class="st20" cx="291.7" cy="671.9" r="0.4"/>
			<circle class="st20" cx="293.2" cy="671.9" r="0.4"/>
			<circle class="st20" cx="294.7" cy="671.9" r="0.4"/>
			<circle class="st20" cx="296.2" cy="671.9" r="0.4"/>
			<circle class="st20" cx="291.7" cy="670.4" r="0.4"/>
			<circle class="st20" cx="293.2" cy="670.4" r="0.4"/>
			<circle class="st20" cx="294.7" cy="670.4" r="0.4"/>
			<circle class="st20" cx="296.2" cy="670.4" r="0.4"/>
			<circle class="st20" cx="291.7" cy="668.9" r="0.4"/>
			<circle class="st20" cx="293.2" cy="668.9" r="0.4"/>
			<circle class="st20" cx="294.7" cy="668.9" r="0.4"/>
			<circle class="st20" cx="296.2" cy="668.9" r="0.4"/>
			<circle class="st20" cx="291.7" cy="667.4" r="0.4"/>
			<circle class="st20" cx="293.2" cy="667.4" r="0.4"/>
			<circle class="st20" cx="294.7" cy="667.4" r="0.4"/>
			<circle class="st20" cx="296.2" cy="667.4" r="0.4"/>
			<circle class="st20" cx="291.7" cy="665.8" r="0.4"/>
			<circle class="st20" cx="293.2" cy="665.8" r="0.4"/>
			<circle class="st20" cx="294.7" cy="665.8" r="0.4"/>
			<circle class="st20" cx="296.2" cy="665.8" r="0.4"/>
			<circle class="st20" cx="291.7" cy="664.3" r="0.4"/>
			<circle class="st20" cx="293.2" cy="664.3" r="0.4"/>
			<circle class="st20" cx="294.7" cy="664.3" r="0.4"/>
			<circle class="st20" cx="296.2" cy="664.3" r="0.4"/>
			<circle class="st20" cx="291.7" cy="662.8" r="0.4"/>
			<circle class="st20" cx="293.2" cy="662.8" r="0.4"/>
			<circle class="st20" cx="294.7" cy="662.8" r="0.4"/>
			<circle class="st20" cx="296.2" cy="662.8" r="0.4"/>
			<circle class="st20" cx="291.7" cy="661.3" r="0.4"/>
			<circle class="st20" cx="293.2" cy="661.3" r="0.4"/>
			<circle class="st20" cx="294.7" cy="661.3" r="0.4"/>
			<circle class="st20" cx="296.2" cy="661.3" r="0.4"/>
			<circle class="st20" cx="291.7" cy="659.7" r="0.4"/>
			<circle class="st20" cx="293.2" cy="659.7" r="0.4"/>
			<circle class="st20" cx="294.7" cy="659.7" r="0.4"/>
			<circle class="st20" cx="296.2" cy="659.7" r="0.4"/>
			<circle class="st20" cx="291.7" cy="658.2" r="0.4"/>
			<circle class="st20" cx="293.2" cy="658.2" r="0.4"/>
			<circle class="st20" cx="294.7" cy="658.2" r="0.4"/>
			<circle class="st20" cx="296.2" cy="658.2" r="0.4"/>
			<circle class="st20" cx="291.7" cy="656.7" r="0.4"/>
			<circle class="st20" cx="293.2" cy="656.7" r="0.4"/>
			<circle class="st20" cx="294.7" cy="656.7" r="0.4"/>
			<circle class="st20" cx="296.2" cy="656.7" r="0.4"/>
			<circle class="st20" cx="291.7" cy="655.2" r="0.4"/>
			<circle class="st20" cx="293.2" cy="655.2" r="0.4"/>
			<circle class="st20" cx="294.7" cy="655.2" r="0.4"/>
			<circle class="st20" cx="296.2" cy="655.2" r="0.4"/>
			<circle class="st20" cx="291.7" cy="653.6" r="0.4"/>
			<circle class="st20" cx="293.2" cy="653.6" r="0.4"/>
			<circle class="st20" cx="294.7" cy="653.6" r="0.4"/>
			<circle class="st20" cx="296.2" cy="653.6" r="0.4"/>
			<circle class="st20" cx="291.7" cy="652.1" r="0.4"/>
			<circle class="st20" cx="293.2" cy="652.1" r="0.4"/>
			<circle class="st20" cx="294.7" cy="652.1" r="0.4"/>
			<circle class="st20" cx="296.2" cy="652.1" r="0.4"/>
			<circle class="st20" cx="291.7" cy="650.6" r="0.4"/>
			<circle class="st20" cx="293.2" cy="650.6" r="0.4"/>
			<circle class="st20" cx="294.7" cy="650.6" r="0.4"/>
			<circle class="st20" cx="296.2" cy="650.6" r="0.4"/>
			<circle class="st20" cx="291.7" cy="649.1" r="0.4"/>
			<circle class="st20" cx="293.2" cy="649.1" r="0.4"/>
			<circle class="st20" cx="294.7" cy="649.1" r="0.4"/>
			<circle class="st20" cx="296.2" cy="649.1" r="0.4"/>
			<circle class="st20" cx="291.7" cy="647.5" r="0.4"/>
			<circle class="st20" cx="293.2" cy="647.5" r="0.4"/>
			<circle class="st20" cx="294.7" cy="647.5" r="0.4"/>
			<circle class="st20" cx="296.2" cy="647.5" r="0.4"/>
			<circle class="st20" cx="291.7" cy="646" r="0.4"/>
			<circle class="st20" cx="293.2" cy="646" r="0.4"/>
			<circle class="st20" cx="294.7" cy="646" r="0.4"/>
			<circle class="st20" cx="296.2" cy="646" r="0.4"/>
			<circle class="st20" cx="291.7" cy="644.5" r="0.4"/>
			<circle class="st20" cx="293.2" cy="644.5" r="0.4"/>
			<circle class="st20" cx="294.7" cy="644.5" r="0.4"/>
			<circle class="st20" cx="296.2" cy="644.5" r="0.4"/>
			<circle class="st20" cx="291.7" cy="643" r="0.4"/>
			<circle class="st20" cx="293.2" cy="643" r="0.4"/>
			<circle class="st20" cx="294.7" cy="643" r="0.4"/>
			<circle class="st20" cx="296.2" cy="643" r="0.4"/>
			<circle class="st20" cx="291.7" cy="641.4" r="0.4"/>
			<circle class="st20" cx="293.2" cy="641.4" r="0.4"/>
			<circle class="st20" cx="294.7" cy="641.4" r="0.4"/>
			<circle class="st20" cx="296.2" cy="641.4" r="0.4"/>
			<circle class="st20" cx="291.7" cy="639.9" r="0.4"/>
			<circle class="st20" cx="293.2" cy="639.9" r="0.4"/>
			<circle class="st20" cx="294.7" cy="639.9" r="0.4"/>
			<circle class="st20" cx="296.2" cy="639.9" r="0.4"/>
			<circle class="st20" cx="291.7" cy="638.4" r="0.4"/>
			<circle class="st20" cx="293.2" cy="638.4" r="0.4"/>
			<circle class="st20" cx="294.7" cy="638.4" r="0.4"/>
			<circle class="st20" cx="296.2" cy="638.4" r="0.4"/>
			<circle class="st20" cx="291.7" cy="636.9" r="0.4"/>
			<circle class="st20" cx="293.2" cy="636.9" r="0.4"/>
			<circle class="st20" cx="294.7" cy="636.9" r="0.4"/>
			<circle class="st20" cx="296.2" cy="636.9" r="0.4"/>
			<circle class="st20" cx="291.7" cy="635.3" r="0.4"/>
			<circle class="st20" cx="293.2" cy="635.3" r="0.4"/>
			<circle class="st20" cx="294.7" cy="635.3" r="0.4"/>
			<circle class="st20" cx="296.2" cy="635.3" r="0.4"/>
			<circle class="st20" cx="291.7" cy="633.8" r="0.4"/>
			<circle class="st20" cx="293.2" cy="633.8" r="0.4"/>
			<circle class="st20" cx="294.7" cy="633.8" r="0.4"/>
			<circle class="st20" cx="296.2" cy="633.8" r="0.4"/>
			<circle class="st20" cx="291.7" cy="632.3" r="0.4"/>
			<circle class="st20" cx="293.2" cy="632.3" r="0.4"/>
			<circle class="st20" cx="294.7" cy="632.3" r="0.4"/>
			<circle class="st20" cx="296.2" cy="632.3" r="0.4"/>
			<circle class="st20" cx="291.7" cy="630.8" r="0.4"/>
			<circle class="st20" cx="293.2" cy="630.8" r="0.4"/>
			<circle class="st20" cx="294.7" cy="630.8" r="0.4"/>
			<circle class="st20" cx="296.2" cy="630.8" r="0.4"/>
			<circle class="st20" cx="291.7" cy="629.3" r="0.4"/>
			<circle class="st20" cx="293.2" cy="629.3" r="0.4"/>
			<circle class="st20" cx="294.7" cy="629.3" r="0.4"/>
			<circle class="st20" cx="296.2" cy="629.3" r="0.4"/>
			<circle class="st20" cx="291.7" cy="627.7" r="0.4"/>
			<circle class="st20" cx="293.2" cy="627.7" r="0.4"/>
			<circle class="st20" cx="294.7" cy="627.7" r="0.4"/>
			<circle class="st20" cx="296.2" cy="627.7" r="0.4"/>
			<circle class="st20" cx="291.7" cy="626.2" r="0.4"/>
			<circle class="st20" cx="293.2" cy="626.2" r="0.4"/>
			<circle class="st20" cx="294.7" cy="626.2" r="0.4"/>
			<circle class="st20" cx="296.2" cy="626.2" r="0.4"/>
			<circle class="st20" cx="291.7" cy="624.7" r="0.4"/>
			<circle class="st20" cx="293.2" cy="624.7" r="0.4"/>
			<circle class="st20" cx="294.7" cy="624.7" r="0.4"/>
			<circle class="st20" cx="296.2" cy="624.7" r="0.4"/>
			<circle class="st20" cx="291.7" cy="623.2" r="0.4"/>
			<circle class="st20" cx="293.2" cy="623.2" r="0.4"/>
			<circle class="st20" cx="294.7" cy="623.2" r="0.4"/>
			<circle class="st20" cx="296.2" cy="623.2" r="0.4"/>
			<circle class="st20" cx="291.7" cy="621.6" r="0.4"/>
			<circle class="st20" cx="293.2" cy="621.6" r="0.4"/>
			<circle class="st20" cx="294.7" cy="621.6" r="0.4"/>
			<circle class="st20" cx="296.2" cy="621.6" r="0.4"/>
			<circle class="st20" cx="291.7" cy="620.1" r="0.4"/>
			<circle class="st20" cx="293.2" cy="620.1" r="0.4"/>
			<circle class="st20" cx="294.7" cy="620.1" r="0.4"/>
			<circle class="st20" cx="296.2" cy="620.1" r="0.4"/>
			<circle class="st20" cx="291.7" cy="618.6" r="0.4"/>
			<circle class="st20" cx="293.2" cy="618.6" r="0.4"/>
			<circle class="st20" cx="294.7" cy="618.6" r="0.4"/>
			<circle class="st20" cx="296.2" cy="618.6" r="0.4"/>
			<circle class="st20" cx="291.7" cy="617.1" r="0.4"/>
			<circle class="st20" cx="293.2" cy="617.1" r="0.4"/>
			<circle class="st20" cx="294.7" cy="617.1" r="0.4"/>
			<circle class="st20" cx="296.2" cy="617.1" r="0.4"/>
			<circle class="st20" cx="291.7" cy="615.5" r="0.4"/>
			<circle class="st20" cx="293.2" cy="615.5" r="0.4"/>
			<circle class="st20" cx="294.7" cy="615.5" r="0.4"/>
			<circle class="st20" cx="296.2" cy="615.5" r="0.4"/>
			<circle class="st20" cx="291.7" cy="614" r="0.4"/>
			<circle class="st20" cx="293.2" cy="614" r="0.4"/>
			<circle class="st20" cx="294.7" cy="614" r="0.4"/>
			<circle class="st20" cx="296.2" cy="614" r="0.4"/>
			<circle class="st20" cx="291.7" cy="612.5" r="0.4"/>
			<circle class="st20" cx="293.2" cy="612.5" r="0.4"/>
			<circle class="st20" cx="294.7" cy="612.5" r="0.4"/>
			<circle class="st20" cx="296.2" cy="612.5" r="0.4"/>
			<circle class="st20" cx="291.7" cy="611" r="0.4"/>
			<circle class="st20" cx="293.2" cy="611" r="0.4"/>
			<circle class="st20" cx="294.7" cy="611" r="0.4"/>
			<circle class="st20" cx="296.2" cy="611" r="0.4"/>
			<circle class="st20" cx="291.7" cy="609.4" r="0.4"/>
			<circle class="st20" cx="293.2" cy="609.4" r="0.4"/>
			<circle class="st20" cx="294.7" cy="609.4" r="0.4"/>
			<circle class="st20" cx="296.2" cy="609.4" r="0.4"/>
		</g>
		<path d="M286.3,582.7v123.4c0,0.5-0.4,0.9-0.9,0.9H56.5c-0.5,0-0.9-0.4-0.9-0.9V582.7c0-0.5,0.4-0.9,0.9-0.9h228.9
			C285.9,581.7,286.3,582.2,286.3,582.7z"/>
		<rect x="61.4" y="585.1" class="st22" width="210.3" height="118.6"/>
		<g id="htc_1_">
			<polygon class="st10" points="276,641.7 276,647 277,647 277,644.8 280.5,644.8 280.5,643.9 277,643.9 277,641.7 			"/>
			<path class="st10" d="M276,635.4c0,0,0,2.1,0,3.4c0,1.3,0.7,2.1,2.2,2.1c1.3,0,2.3-0.5,2.3-2.1c0-1.6,0-3.3,0-3.3h-0.9
				c0,0,0,2.6,0,3.3c0,0.7-0.1,1.2-1.3,1.2c-1.2,0-1.3-0.7-1.3-1.1c0-0.4,0-3.4,0-3.4H276z"/>
			<path class="st10" d="M276,650.1c0,1.4,0,1.2,0,1.5c0,0.3,0.1,0.6,0.3,0.9h-1.7v0.9h6v-0.9h-2.1h-0.5c-0.5,0-1-0.3-1-1
				c0-0.7,0-0.8,0-1.5c0-0.6,0.3-1.1,1.1-1.1c0.7,0,2.6,0,2.6,0l0-0.9c0,0-2.1,0-2.6,0C276.9,648,276,648.7,276,650.1z"/>
		</g>
	</g>
	<g>
		<circle class="st22" cx="587.4" cy="134.8" r="1.1"/>
		<rect x="603.8" y="178.1" class="st26" width="10.4" height="1.3"/>
		<rect x="649.9" y="178.1" class="st26" width="19.4" height="1.3"/>
		<rect x="626.4" y="49.5" class="st26" width="19.4" height="1.3"/>
		<rect x="626.4" y="178.1" class="st26" width="19.4" height="1.3"/>
		<g>
			<g class="st0">
				<path d="M807.7,183.8c10.8,0,19.5-8.8,19.5-19.5V76.1c0-10.8-8.8-19.5-19.5-19.5h-1.4v127.3H807.7z"/>
				<rect x="589.4" y="56.5" width="213.1" height="127.3"/>
				<path d="M585.4,56.5c-10.8,0-19.5,8.8-19.5,19.5v88.2c0,10.8,8.8,19.5,19.5,19.5h0.2V56.5H585.4z"/>
				<rect x="585.6" y="56.5" width="3.8" height="127.3"/>
				<rect x="802.5" y="56.5" width="3.8" height="127.3"/>
			</g>
			<g>
				<g>
					<path class="st26" d="M812.5,178.1c10.8,0,19.5-8.8,19.5-19.5V70.4c0-10.8-8.8-19.5-19.5-19.5h-1.4v127.3H812.5z"/>
					<rect x="594.1" y="50.8" class="st26" width="213.1" height="127.3"/>
					<path class="st26" d="M590.1,50.8c-10.8,0-19.5,8.8-19.5,19.5v88.2c0,10.8,8.8,19.5,19.5,19.5h0.2V50.8H590.1z"/>
					<rect x="590.4" y="50.8" class="st27" width="3.8" height="127.3"/>
					<rect x="807.3" y="50.8" class="st27" width="3.8" height="127.3"/>
				</g>
			</g>
		</g>
		<path class="st19" d="M829.6,158.6c0,9.5-7.7,17.2-17.2,17.2H590.1c-9.5,0-17.2-7.7-17.2-17.2V70.4c0-9.5,7.7-17.2,17.2-17.2
			h222.3c9.5,0,17.2,7.7,17.2,17.2V158.6z"/>
		<rect x="602.4" y="59.2" class="st10" width="197" height="110.5"/>
		<rect x="602.4" y="59.2" class="st10" width="197" height="110.5"/>
		<rect x="602.9" y="59.7" class="st10" width="196.1" height="109.5"/>
		<rect x="602.9" y="59.7" class="st10" width="196.1" height="109.5"/>
		<path class="st28" d="M780.3,175.2H590.1c-4.6,0-8.8-1.9-11.8-4.9"/>
		<path class="st28" d="M829.2,82.9v75.7c0,6.9-4.2,12.8-10.2,15.4"/>
		<line class="st28" x1="750.4" y1="53.7" x2="809.2" y2="53.7"/>
		<line class="st28" x1="742" y1="53.7" x2="745.1" y2="53.7"/>
		<line class="st28" x1="590.1" y1="53.7" x2="696.2" y2="53.7"/>
		<path class="st29" d="M580.4,56.8c1.2-0.9,2.5-1.6,3.8-2.1"/>
		<path class="st22" d="M801.1,54.6h11.3c8.7,0,15.7,7.1,15.7,15.7"/>
		<path class="st22" d="M828.2,70.4v88.2c0,8.7-7.1,15.7-15.7,15.7H590.1c-8.7,0-15.7-7.1-15.7-15.7V70.4c0-8.7,7.1-15.7,15.7-15.7
			h211"/>
		<circle class="st14" cx="814.1" cy="114.8" r="10"/>
		<path class="st30" d="M804.2,114.8c0,5.1,3.8,9.2,8.7,9.9l-6.5-16.1C805,110.3,804.2,112.4,804.2,114.8z"/>
		<path class="st30" d="M823.8,117.1c0.2-0.8,0.3-1.5,0.3-2.3c0-3.5-1.8-6.6-4.6-8.4L823.8,117.1z"/>
		<circle class="st19" cx="814.1" cy="114.8" r="8.5"/>
		<path class="st10" d="M588.7,105.7v17.6c0,0.7-0.5,1.2-1.2,1.2h0c-0.7,0-1.2-0.5-1.2-1.2v-17.6c0-0.7,0.5-1.2,1.2-1.2h0
			C588.2,104.5,588.7,105,588.7,105.7z"/>
		<circle class="st10" cx="587.4" cy="134.8" r="2.1"/>
		<circle class="st10" cx="579.8" cy="114.5" r="0.9"/>
		<polyline class="st30" points="614.2,178.1 613.7,177.7 604.4,177.7 603.8,178.1 		"/>
		<polyline class="st30" points="645.8,178.1 645.2,177.7 626.9,177.7 626.4,178.1 		"/>
		<polyline class="st30" points="626.4,50.8 626.9,51.2 645.2,51.2 645.8,50.8 		"/>
		<polyline class="st30" points="669.3,178.1 668.8,177.7 650.5,177.7 649.9,178.1 		"/>
		<path class="st7" d="M608.6,53.2h-18.4c-9.5,0-17.2,7.7-17.2,17.2v88.2c0,9.5,7.7,17.2,17.2,17.2H755L608.6,53.2z"/>
		<g class="st31">
			<path class="st32" d="M821.2,170.5c-2.4,1.8-5.5,2.8-8.7,2.8H590.1c-5.2,0-9.8-2.7-12.4-6.8"/>
			<path class="st32" d="M826.7,162.7c-0.4,1.3-1,2.6-1.7,3.7"/>
			<path class="st32" d="M798.8,55.6h13.7c8.2,0,14.8,6.6,14.8,14.8v5.9"/>
			<line class="st32" x1="787.4" y1="55.6" x2="794" y2="55.6"/>
			<path class="st32" d="M576,65.9c1.9-6,7.5-10.3,14.1-10.3h132.7"/>
			<path class="st32" d="M576.5,164.3c-0.5-1.1-0.8-2.4-1-3.6"/>
		</g>
	</g>
	<g>
		<g>
			<g class="st0">
				<path d="M283.1,150.4c-11.3,0-20.4-9.2-20.4-20.4c-1.9-30.9-1.9-62.5,0-93.8c0-11.2,9.2-20.4,20.4-20.4h228.7
					c11.3,0,20.4,9.2,20.4,20.4c1.9,30.9,1.9,62.5,0,93.8c0,11.2-9.2,20.4-20.4,20.4H283.1z"/>
				<path d="M511.8,16.5c10.9,0,19.7,8.8,19.7,19.7c2,31.1,1.9,62.4,0,93.8c0,10.9-8.8,19.7-19.7,19.7H283.1
					c-10.9,0-19.7-8.8-19.7-19.7c-2-31.1-1.9-62.4,0-93.8c0-10.9,8.8-19.7,19.7-19.7H511.8 M511.8,15H283.1
					c-11.7,0-21.1,9.5-21.2,21.1c-1.9,31.4-1.9,62.9,0,93.9c0,11.6,9.5,21.1,21.2,21.1h228.7c11.7,0,21.1-9.5,21.2-21.1
					c1.9-31.4,1.9-62.9,0-93.9C532.9,24.5,523.4,15,511.8,15L511.8,15z"/>
			</g>
			<g>
				<path class="st33" d="M287.8,144.7c-11.3,0-20.4-9.2-20.4-20.4c-1.9-30.9-1.9-62.5,0-93.8c0-11.2,9.2-20.4,20.4-20.4h228.7
					c11.3,0,20.4,9.2,20.4,20.4c1.9,30.9,1.9,62.5,0,93.8c0,11.2-9.2,20.4-20.4,20.4H287.8z"/>
				<path class="st15" d="M516.5,10.8c10.9,0,19.7,8.8,19.7,19.7c2,31.1,1.9,62.4,0,93.8c0,10.9-8.8,19.7-19.7,19.7H287.8
					c-10.9,0-19.7-8.8-19.7-19.7c-2-31.1-1.9-62.4,0-93.8c0-10.9,8.8-19.7,19.7-19.7H516.5 M516.5,9.3H287.8
					c-11.7,0-21.1,9.5-21.2,21.1c-1.9,31.4-1.9,62.9,0,93.9c0,11.6,9.5,21.1,21.2,21.1h228.7c11.7,0,21.1-9.5,21.2-21.1
					c1.9-31.4,1.9-62.9,0-93.9C537.7,18.8,528.2,9.3,516.5,9.3L516.5,9.3z"/>
			</g>
		</g>
		<g class="st0">
			<path d="M536.2,124.9h-6.9v3.3h6.5C536,127.4,536.1,126.6,536.2,124.9z"/>
			<path d="M535.9,26.6h-6.5v3.7h6.9C536.1,28.1,536,27.3,535.9,26.6z"/>
		</g>
		<g class="st0">
			<path d="M268.2,124.9h6.9v3.3h-6.5C268.4,127.4,268.3,126.6,268.2,124.9z"/>
			<path d="M268.6,26.6h6.5v3.7h-6.9C268.3,28.1,268.4,27.3,268.6,26.6z"/>
		</g>
		<path class="st34" d="M269,77.5c0-15.5,0.5-31.3,1.5-46.9l0-0.1v-0.1c0-9.6,7.8-17.4,17.4-17.4h228.7c9.6,0,17.4,7.8,17.4,17.4
			v0.1l0,0.1c1,15.4,1.5,31.1,1.5,46.6c0,15.5-0.5,31.3-1.5,46.9l0,0.1v0.1c0,9.6-7.8,17.4-17.4,17.4H287.8
			c-9.6,0-17.4-7.8-17.4-17.4v-0.1l0-0.1C269.5,108.7,269,93.1,269,77.5z"/>
		<path class="st35" d="M274.7,86.5V68.8c0-3.6,2.9-6.5,6.5-6.5l0,0c3.6,0,6.5,2.9,6.5,6.5v17.7c0,3.6-2.9,6.5-6.5,6.5l0,0
			C277.6,93,274.7,90.1,274.7,86.5z"/>
		<rect x="294.7" y="17" class="st36" width="214.1" height="120.7"/>
		<rect x="296.1" y="18.5" class="st10" width="211.2" height="117.8"/>
		<path class="st37" d="M278,14.5c2.9-1.8,6.2-2.8,9.8-2.8h228.7c4.2,0,8,1.4,11.1,3.7"/>
		<path class="st37" d="M272.9,135.6c-2.4-3.2-3.8-7.1-3.8-11.4l0-0.1c-1-15.4-1.5-31.1-1.5-46.7c0-15.5,0.5-31.3,1.5-47l0-0.1
			c0-4.3,1.4-8.2,3.9-11.4"/>
		<path class="st37" d="M280.3,141.5c-0.8-0.3-1.5-0.7-2.2-1.1"/>
		<path class="st37" d="M528,139.1c-3.2,2.5-7.2,3.9-11.5,3.9H287.8c-1.1,0-2.2-0.1-3.3-0.3"/>
		<path class="st38" d="M532.4,20.4c1.9,2.9,2.9,6.4,2.9,10.1l0,0.1c1,15.4,1.5,31.1,1.5,46.7c0,15.5-0.5,31.3-1.5,47l0,0.1
			c0,3.7-1.1,7.2-3,10.1"/>
		<path class="st39" d="M278,87.2c0,0-0.4,2-1.2,4.1c1.1,1.1,2.7,1.7,4.4,1.7c-1-2.3-1.9-4.9-1.9-6.7c0.1-3.5,0-19.6,0-19.6
			s-0.1-1.9-0.1-4.1c-1.1,0.4-2.1,1-2.8,1.8c0.8,2,1.6,4.8,1.6,7.5C278,76.9,278,87.2,278,87.2z"/>
		<path class="st40" d="M276.1,68.8c0-2.8,2.3-5.1,5.1-5.1c2.8,0,5.1,2.3,5.1,5.1v17.7c0,2.8-2.3,5.1-5.1,5.1
			c-2.8,0-5.1-2.3-5.1-5.1V68.8z"/>
		<circle cx="527.4" cy="52" r="1.9"/>
		<circle class="st41" cx="527.4" cy="57.8" r="1.9"/>
		<circle class="st42" cx="527.4" cy="108.8" r="2.6"/>
		<g>
			<g>
				<g>
					<path class="st43" d="M527.3,64.2c1,0,1.8,0.8,1.8,1.8v22.8c0,1-0.8,1.8-1.8,1.8c-1,0-1.8-0.8-1.8-1.8V66
						C525.6,65,526.4,64.2,527.3,64.2 M527.3,63.5c-1.4,0-2.5,1.1-2.5,2.5v22.8c0,1.4,1.1,2.5,2.5,2.5c1.4,0,2.5-1.1,2.5-2.5V66
						C529.8,64.6,528.7,63.5,527.3,63.5L527.3,63.5z"/>
				</g>
			</g>
			<path class="st44" d="M526,88.8V66c0-0.7,0.6-1.3,1.3-1.3h0c0.7,0,1.3,0.6,1.3,1.3v22.8c0,0.7-0.6,1.3-1.3,1.3h0
				C526.6,90.1,526,89.5,526,88.8z"/>
			<circle cx="527.4" cy="67.1" r="0.5"/>
			<circle cx="527.4" cy="68.6" r="0.5"/>
			<circle cx="527.4" cy="70.1" r="0.5"/>
			<circle cx="527.4" cy="71.6" r="0.5"/>
			<circle cx="527.4" cy="73.1" r="0.5"/>
			<circle cx="527.4" cy="74.7" r="0.5"/>
			<circle cx="527.4" cy="76.2" r="0.5"/>
			<circle cx="527.4" cy="77.7" r="0.5"/>
			<circle cx="527.4" cy="79.2" r="0.5"/>
			<circle cx="527.4" cy="80.7" r="0.5"/>
			<circle cx="527.4" cy="82.2" r="0.5"/>
			<circle cx="527.4" cy="83.7" r="0.5"/>
			<circle cx="527.4" cy="85.2" r="0.5"/>
			<circle cx="527.4" cy="86.8" r="0.5"/>
			<circle cx="527.4" cy="88.3" r="0.5"/>
		</g>
		<g class="st45">
			<g>
				<path class="st46" d="M283.1,42.2v-0.3v-1.4v-2.4v-1.4v-0.3c0-0.2-0.1-0.3-0.3-0.3c-0.2,0-0.2,0-0.3,0H282h-1.8h-0.4
					c-0.1,0-0.1,0-0.3,0c-0.2,0-0.3,0.1-0.3,0.3v0.3v1.4v2.4v1.4v0.3c0,0.2,0.1,0.3,0.3,0.3c0.2,0,0.2,0,0.3,0h0.4h1.8h0.4
					c0.1,0,0.1,0,0.3,0C282.9,42.5,283.1,42.4,283.1,42.2z M282,41.9h-1.8h-0.4v-1.4v-2.4v-1.4h0.4h1.8h0.4v1.4v2.4v1.4H282z"/>
				<path class="st46" d="M284.4,43.5C284.4,43.5,284.3,43.5,284.4,43.5C284.3,43.5,284.4,43.4,284.4,43.5v-5.7
					c0-0.2-0.1-0.3-0.3-0.3c-0.2,0-0.2,0-0.3,0v5.7h-3.2c0,0.1,0,0.1,0,0.3c0,0.2,0.1,0.3,0.3,0.3h3.2
					C284.2,43.8,284.4,43.7,284.4,43.5z"/>
			</g>
			<path class="st46" d="M282.8,116.8v-2.4h0.8l-0.9-2.5c0,0-0.1-0.2-0.3-0.2c-0.2,0-0.3,0.2-0.3,0.2l-0.9,2.5h0.8v2.4
				c0,0.7-0.6,1.3-1.3,1.3c-0.7,0-1.3-0.6-1.3-1.3v-4.5h-0.6v4.5c0,1.1,0.9,1.9,1.9,1.9C281.9,118.7,282.8,117.9,282.8,116.8z"/>
		</g>
		<g class="st47">
			<path class="st48" d="M516.7,80c0,0,0.2-0.3,0.3-0.5c0,0,0.3-0.6,0.4-0.7c0,0,0.2-0.2,0.5-0.1c0,0,0.2,0.1,0.2,0.3
				c0,0,0,0.3-0.3,0.3h-0.4v1.1l0.5,0c0,0,0.9,0.1,0.9-1.3c0,0,0.1-1.1-0.5-1.4c0,0-0.1-0.1-0.6-0.1h-0.3c0,0-0.4,0-0.7,0.2
				c0,0-0.2,0.1-0.4,0.4c0,0-0.3,0.5-0.5,0.9c0,0-0.2,0.3-0.5,0.3c0,0-0.3,0-0.3-0.3c0,0,0-0.3,0.3-0.3h0.4v-1.2h-0.5c0,0-1,0-1,1.5
				c0,0,0,1.4,1.1,1.5h0.4C515.6,80.5,516.3,80.5,516.7,80L516.7,80z"/>
			<polygon class="st48" points="518.7,74.3 516.3,74 516.3,73.9 518.7,73.5 518.7,71.7 514.3,71.6 514.3,72.7 517.6,72.7 
				517.6,72.8 514.3,73.4 514.3,74.5 517.6,75.1 517.6,75.2 514.3,75.2 514.3,76.3 518.7,76.2 518.7,74.3 			"/>
			<polygon class="st48" points="518.7,67.9 514.3,67.2 514.3,68.3 517.7,68.8 517.7,68.8 514.3,69.3 514.3,70.4 518.7,69.7 
				518.7,67.9 			"/>
			<path class="st48" d="M516.7,92.4h-0.6v0.3h-0.7c-0.3,0-0.3-0.3-0.3-0.3c0-0.3,0.3-0.3,0.3-0.3h2.4c0.2,0,0.3,0.3,0.3,0.3
				c0,0.3-0.3,0.3-0.3,0.3h-0.4v1.1c0.7,0,0.9-0.1,0.9-0.1c0.6-0.3,0.6-1.3,0.6-1.3c0-1.6-1.3-1.4-1.3-1.4h-2.3
				c-1.2,0-1.1,1.6-1.1,1.6c0.1,0.7,0.3,0.9,0.3,0.9c0.2,0.2,0.4,0.2,0.4,0.2c0.1,0.1,0.5,0.1,0.5,0.1h1.4V92.4L516.7,92.4z"/>
			<polygon class="st48" points="516,88.7 516,88.7 518.7,87.6 518.7,86.2 514.3,86.2 514.3,87.3 517,87.3 517,87.3 514.3,88.5 
				514.3,89.8 518.7,89.8 518.7,88.7 516,88.7 			"/>
			<path class="st48" d="M515.4,83.6c0,0-0.4,0-0.4-0.3c0,0,0-0.3,0.4-0.3l3.3,0v-1.2h-3.3c0,0-1.2-0.1-1.2,1.5c0,0,0,1.5,1.2,1.5
				h3.3v-1.2H515.4L515.4,83.6z"/>
			<path class="st48" d="M516.7,65.6c0,0,0.2-0.3,0.3-0.5c0,0,0.3-0.6,0.4-0.7c0,0,0.2-0.2,0.5-0.1c0,0,0.2,0.1,0.2,0.3
				c0,0,0,0.3-0.3,0.3h-0.4V66l0.5,0c0,0,0.9,0.1,0.9-1.3c0,0,0-0.1,0-0.3c0,0,0-0.8-0.5-1.1c0,0,0,0,0,0c0,0-0.1-0.1-0.6-0.1h-0.3
				c0,0-0.4,0-0.7,0.2c0,0-0.2,0.1-0.4,0.4c0,0-0.3,0.5-0.5,0.9c0,0-0.2,0.3-0.5,0.3c0,0-0.3,0-0.3-0.3c0,0,0-0.3,0.3-0.3h0.4v-1.2
				h-0.5c0,0-1,0-1,1.5c0,0,0,1.4,1.1,1.5h0.4C515.6,66.1,516.3,66.2,516.7,65.6L516.7,65.6z"/>
		</g>
		<circle class="st49" cx="527.4" cy="108.8" r="1.9"/>
	</g>
	<g>
		<defs>
			<path id="SVGID_1_" d="M949.2,534H822.9V296.8h126.3V534z M296.1,18.5h211.2v117.8H296.1V18.5z M739.4,754.1H376.2V526.6h363.3
				V754.1z M271.6,585.1v118.6H61.4V585.1H271.6z M305.8,207.9H80v301.2h225.8V207.9z M413.5,459V204.7h339.2V459H413.5z M799,169.2
				H602.9V59.7H799V169.2z"/>
		</defs>
		<clipPath id="SVGID_2_">
			<use xlink:href="#SVGID_1_"  style="overflow:visible;"/>
		</clipPath>
		<rect x="-215.7" y="-102.1" class="st50" width="1460.3" height="1003.5"/>
		<g class="st51">
			<line class="st52" x1="892.6" y1="482.4" x2="892.6" y2="445.6"/>
			<g>
				<path class="st10" d="M469.7,59.5l257.4,128.7v46l91.9,46l73.6,36.8v36.8l-55.2,27.6l-18.4-9.2v36.8l73.6,36.8v36.8L837.4,510
					l-73.6-36.8l-36.8-18.4v27.6L469.7,611.1l-36.8-18.4v-9.2l-36.8,18.4l-18.4-9.2v36.8l73.6,36.8v36.8l-55.2,27.6l-73.6-36.8
					L120.3,592.7V427.2l55.2-27.6l73.6,36.8v-82.7l-36.8-18.4V188.2L469.7,59.5 M469.7,45.7c-2.1,0-4.2,0.5-6.2,1.5L206.1,175.8
					c-4.7,2.3-7.6,7.1-7.6,12.3v147.1c0,5.2,3,10,7.6,12.3l29.2,14.6v51.9l-53.6-26.8c-1.9-1-4.1-1.5-6.2-1.5
					c-2.1,0-4.2,0.5-6.2,1.5l-55.2,27.6c-4.7,2.3-7.6,7.1-7.6,12.3v165.5c0,5.2,3,10,7.6,12.3l202.3,101.1l73.6,36.8
					c1.9,1,4.1,1.5,6.2,1.5c2.1,0,4.2-0.5,6.2-1.5l55.2-27.6c4.7-2.3,7.6-7.1,7.6-12.3v-36.8c0-5.2-3-10-7.6-12.3l-65.9-33v-6.1
					c1.5,0.5,3,0.8,4.6,0.8c2.1,0,4.2-0.5,6.2-1.5l21.8-10.9c0.8,0.7,1.7,1.2,2.6,1.7l36.8,18.4c1.9,1,4.1,1.5,6.2,1.5
					c2.1,0,4.2-0.5,6.2-1.5l257.4-128.7c4.7-2.3,7.6-7.1,7.6-12.3v-5.3l16.8,8.4l73.6,36.8c1.9,1,4.1,1.5,6.2,1.5s4.2-0.5,6.2-1.5
					l55.2-27.6c4.7-2.3,7.6-7.1,7.6-12.3v-36.8c0-5.2-3-10-7.6-12.3l-65.9-33v-6.1c1.5,0.5,3,0.8,4.6,0.8c2.1,0,4.2-0.5,6.2-1.5
					l55.2-27.6c4.7-2.3,7.6-7.1,7.6-12.3v-36.8c0-5.2-3-10-7.6-12.3l-73.6-36.8l-84.3-42.2v-37.4c0-5.2-3-10-7.6-12.3L475.8,47.1
					C473.9,46.2,471.8,45.7,469.7,45.7L469.7,45.7z"/>
			</g>
			<g>
				<path class="st53" d="M469.7,59.5l257.4,128.7v46l91.9,46l73.6,36.8v36.8l-55.2,27.6l-18.4-9.2v36.8l73.6,36.8v36.8L837.4,510
					l-73.6-36.8l-36.8-18.4v27.6L469.7,611.1l-36.8-18.4v-9.2l-36.8,18.4l-18.4-9.2v36.8l73.6,36.8v36.8l-55.2,27.6l-73.6-36.8
					L120.3,592.7V427.2l55.2-27.6l73.6,36.8v-82.7l-36.8-18.4V188.2L469.7,59.5"/>
				<g class="st0">
					<path d="M322.6,565.1v68.2c0-28,25.7-40.5,44.6-45.9L322.6,565.1z"/>
				</g>
				<line class="st54" x1="557.3" y1="436.4" x2="658.4" y2="385.8"/>
				<line class="st54" x1="514" y1="458" x2="530.2" y2="449.9"/>
				<polygon class="st55" points="249,353.7 432.9,445.6 432.9,528.4 249,436.4 				"/>
				<polygon class="st55" points="469.7,400 727.1,271.2 727.1,335.3 469.7,464 				"/>
				<g class="st31">
					<polygon class="st56" points="451.3,537.6 396.1,565.1 120.3,427.2 175.4,399.6 					"/>
					<polygon class="st56" points="377.7,629.5 451.3,666.3 396.1,693.9 322.6,657.1 					"/>
					<polygon class="st56" points="469.7,316.9 727.1,188.2 469.7,59.5 212.2,188.2 					"/>
					<polygon class="st56" points="892.6,316.9 837.4,344.5 727.1,289.3 727.1,234.1 					"/>
					<polygon class="st56" points="892.6,445.6 837.4,473.2 763.9,436.4 819,408.8 					"/>
				</g>
				<g class="st0">
					<polygon points="837.4,344.5 837.4,381.3 763.9,344.5 763.9,436.4 837.4,473.2 837.4,510 727.1,454.8 727.1,289.3 					"/>
					<polygon points="120.3,427.2 120.3,592.7 396.1,730.6 396.1,693.9 322.6,657.1 322.6,565.1 396.1,601.9 396.1,565.1 					"/>
					<polygon points="212.2,188.2 212.2,335.3 432.9,445.6 432.9,528.4 451.3,537.6 451.3,574.3 432.9,583.5 432.9,592.7 
						469.7,611.1 469.7,316.9 					"/>
				</g>
				<line class="st52" x1="763.9" y1="344.5" x2="837.4" y2="381.3"/>
				<line class="st52" x1="892.6" y1="482.4" x2="837.4" y2="510"/>
				<line class="st52" x1="763.9" y1="473.2" x2="837.4" y2="510"/>
				<path class="st54" d="M815.6,449.9c7.3,3.6,14.6,7.3,21.8,10.9c6.8-3.4,13.7-6.8,20.5-10.3"/>
				<path class="st54" d="M857.9,321.8c-6.8,3.4-13.7,6.8-20.5,10.3c-10.6-5.3-21.2-10.6-31.8-15.9"/>
				<line class="st52" x1="819" y1="280.1" x2="892.6" y2="316.9"/>
				<line class="st52" x1="763.9" y1="307.7" x2="819" y2="280.1"/>
				<line class="st52" x1="819" y1="408.8" x2="892.6" y2="445.6"/>
				<line class="st52" x1="763.9" y1="436.4" x2="819" y2="408.8"/>
				<line class="st52" x1="819" y1="408.8" x2="819" y2="372.1"/>
				<polyline class="st52" points="837.4,381.3 892.6,353.7 892.6,316.9 				"/>
				<polyline class="st52" points="727.1,188.2 727.1,482.4 469.7,611.1 				"/>
				<line class="st52" x1="763.9" y1="473.2" x2="763.9" y2="307.7"/>
				<line class="st52" x1="819" y1="280.1" x2="727.1" y2="234.1"/>
				<polyline class="st52" points="212.2,188.2 469.7,59.5 727.1,188.2 				"/>
				<path class="st57" d="M340.9,555.9"/>
				<polygon class="st55" points="285.8,188.2 322.6,206.6 506.4,114.6 469.7,96.2 				"/>
				<polygon class="st52" points="285.8,188.2 322.6,206.6 506.4,114.6 469.7,96.2 				"/>
				<polygon class="st58" points="506.4,390.4 506.4,445.6 570.8,413.4 570.8,358.3 				"/>
				<polygon class="st58" points="626,330.7 626,385.9 690.3,353.7 690.3,298.5 				"/>
				<path class="st0" d="M120.3,516.5v76.3l119,59.5C172,585.9,137.6,572,120.3,516.5z"/>
				<line class="st52" x1="322.6" y1="565.1" x2="396.1" y2="601.9"/>
				<polyline class="st52" points="451.3,666.3 451.3,703.1 396.1,730.6 				"/>
				<line class="st52" x1="322.6" y1="693.9" x2="396.1" y2="730.6"/>
				<path class="st54" d="M376.3,671.5c6.6,3.3,13.2,6.6,19.8,9.9c5.4-2.7,10.8-5.4,16.3-8.1"/>
				<line class="st52" x1="377.7" y1="500.8" x2="322.6" y2="528.4"/>
				<polyline class="st52" points="120.3,427.2 175.4,399.6 377.7,500.8 				"/>
				<path class="st53" d="M297.2,460.5l18.8-28.6c7.7-11.6,4.4-27.3-7.2-35c-4.1-2.7-8.9-4.2-13.9-4.2c-8.5,0-16.4,4.3-21.1,11.4
					l-22.2,33.6L297.2,460.5z"/>
				<g class="st0">
					<path d="M295,392.7c-8.5,0-16.4,4.3-21.1,11.4l-22.2,33.6l14.2,7.1l34-51.6C298.3,392.9,296.7,392.7,295,392.7z"/>
				</g>
				<path class="st52" d="M297.2,460.5l18.8-28.6c7.7-11.6,4.4-27.3-7.2-35c-4.1-2.7-8.9-4.2-13.9-4.2c-8.5,0-16.4,4.3-21.1,11.4
					l-22.2,33.6L297.2,460.5z"/>
				<line class="st52" x1="377.7" y1="500.8" x2="451.3" y2="537.6"/>
				<line class="st52" x1="377.7" y1="629.5" x2="451.3" y2="666.3"/>
				<line class="st52" x1="322.6" y1="657.1" x2="377.7" y2="629.5"/>
				<line class="st52" x1="377.7" y1="629.5" x2="377.7" y2="592.7"/>
				<polyline class="st52" points="120.3,427.2 120.3,592.7 322.6,693.9 				"/>
				<line class="st52" x1="322.6" y1="693.9" x2="322.6" y2="528.4"/>
				<polyline class="st52" points="451.3,537.6 451.3,574.3 396.1,601.9 				"/>
				<line class="st54" x1="318.4" y1="227.1" x2="302.5" y2="219.1"/>
				<polyline class="st54" points="336.9,238.1 469.7,304.5 673.8,202.4 				"/>
				<g class="st0">
					<path d="M212.2,259.6v75.7l159.9,80C272,352.2,229.8,314.2,212.2,259.6z"/>
				</g>
				<polyline class="st52" points="212.2,188.2 212.2,335.3 432.9,445.6 432.9,528.4 451.3,537.6 451.3,574.3 432.9,583.5 
					432.9,592.7 469.7,611.1 				"/>
				<line class="st52" x1="249" y1="353.7" x2="249" y2="436.4"/>
				<path class="st54" d="M418,541.8c-7.3,3.7-14.6,7.3-21.9,11c-7.8-3.9-15.6-7.8-23.4-11.7"/>
				<line class="st54" x1="209.8" y1="457.8" x2="190.4" y2="448.1"/>
				<line class="st54" x1="306.9" y1="506.4" x2="228.8" y2="467.3"/>
			</g>
		</g>
	</g>
	<g class="st59">
		<path class="st56" d="M287.9,36.6c18.6,0,210,0,228.6,0c13.6,0,16.5,11.3,17.1,17.4c-0.2-7.8-0.6-15.6-1.1-23.3l0-0.1v-0.1
			c0-8.8-7.1-15.9-15.9-15.9H287.8c-8.8,0-15.9,7.1-15.9,15.9v0.1l0,0.1c-0.5,7.7-0.8,15.5-1.1,23.2
			C271.4,47.9,274.3,36.6,287.9,36.6z"/>
	</g>
	<g>
		<defs>
			<path id="SVGID_3_" d="M826.6,560.6c-8.1,0-14.7-6.6-14.7-14.7V285c0-8.1,6.6-14.7,14.7-14.7h118.8c8.1,0,14.7,6.6,14.7,14.7
				v260.9c0,8.1-6.6,14.7-14.7,14.7H826.6z M301.2,544.5c9.2,0,16.7-7.5,16.7-16.7V188.6c0-9.2-7.5-16.7-16.7-16.7H85.1
				c-9.2,0-16.7,7.5-16.7,16.7v339.2c0,9.2,7.5,16.7,16.7,16.7H301.2z M373.6,462.7c0,4.8,3.9,8.6,8.6,8.6h401.5
				c4.8,0,8.6-3.9,8.6-8.6V201c0-4.8-3.9-8.6-8.6-8.6H382.2c-4.8,0-8.6,3.9-8.6,8.6V462.7z M760,782.3c6,0,10.9-4.9,10.9-10.9V507
				c0-6-4.9-10.9-10.9-10.9H355.6c-6,0-10.9,4.9-10.9,10.9v264.3c0,6,4.9,10.9,10.9,10.9H760z M285.4,581.7H56.5
				c-0.5,0-0.9,0.4-0.9,0.9v123.4c0,0.5,0.4,0.9,0.9,0.9h228.9c0.5,0,0.9-0.4,0.9-0.9V582.7C286.3,582.2,285.9,581.7,285.4,581.7z
				 M829.6,70.4c0-9.5-7.7-17.2-17.2-17.2H590.1c-9.5,0-17.2,7.7-17.2,17.2v88.2c0,9.5,7.7,17.2,17.2,17.2h222.3
				c9.5,0,17.2-7.7,17.2-17.2V70.4z M270.4,124.1L270.4,124.1l0,0.1c0,9.6,7.8,17.4,17.4,17.4h228.7c9.6,0,17.4-7.8,17.4-17.4v-0.1
				l0-0.1c1-15.6,1.5-31.4,1.5-46.9c0-15.5-0.5-31.2-1.5-46.6l0-0.1v-0.1c0-9.6-7.8-17.4-17.4-17.4H287.8c-9.6,0-17.4,7.8-17.4,17.4
				v0.1l0,0.1c-1,15.6-1.5,31.4-1.5,46.9C269,93.1,269.5,108.7,270.4,124.1z"/>
		</defs>
		<clipPath id="SVGID_4_">
			<use xlink:href="#SVGID_3_"  style="overflow:visible;"/>
		</clipPath>
		<g class="st60">
			<path class="st56" d="M-84.9,541.7L90.6,154.1h244.9L17.3,549.3L-84.9,541.7z M360.9,150L443.4,3.6H321.8l-40.4,147.5L360.9,150z
				 M1115.4,553.8L998.2,240h-21.1l-72.2,313.7L1115.4,553.8z M-142.6,752.9L66.5,546.3h-174.6l-97.4,208.3L-142.6,752.9z M765,44.5
				H631.5l-52.1,139.9l153.1,0.1L765,44.5z M208.5,694.3l-36.5,97.3l248.5-2.2L619.7,480h-84.2l-159.9,0.5L208.5,694.3z M387.9,480
				h212.9l29.5-0.3l116.2-294.9H555.8L387.9,480z"/>
		</g>
		<polygon class="st61" points="448.8,480 353.6,480 353.6,481.1 448.6,480.5 		"/>
		<polygon class="st61" points="448.8,480 353.6,480 353.6,481.1 448.6,480.5 		"/>
		<polygon class="st61" points="448.6,480.5 543.2,480 448.8,480 		"/>
		<polygon class="st61" points="448.6,480.5 543.2,480 448.8,480 		"/>
	</g>
</g>
</svg>
