<svg xmlns="http://www.w3.org/2000/svg" viewBox="0 0 605.04 114.75"><defs><style>.cls-1{fill:#231f20}</style></defs><title>logo_horizontal</title><g id="Layer_2" data-name="Layer 2"><g id="Layer_1-2" data-name="Layer 1"><path class="cls-1" d="M20.15 72l-12.9 35.55c-.15.6-.45.75-.9.75H.65c-.6 0-.75-.3-.6-.9l34.5-94a11.94 11.94 0 0 0 .75-4.2.65.65 0 0 1 .6-.6h8.7c.6 0 .75.15.9.6l35.85 98.2c.15.6 0 .9-.6.9H74.6a.82.82 0 0 1-.9-.6L60.65 72zm38.4-6.75c-3.45-9.75-15.15-41.4-18-51.15h-.15c-2.7 9.45-10.95 31.65-18 51.15zM89.9 72.9c0-22.2 16.8-37.8 39.3-37.8a50.26 50.26 0 0 1 12.3 1.2V.75c0-.6.15-.75.75-.75H148c.75 0 .75.15.75.75V99c0 1.2 0 2.55.15 4.65 0 .45-.15.6-.6.9a48.09 48.09 0 0 1-22.5 5.25c-20.15 0-35.9-12.6-35.9-36.9zm51.6-29.25c-3-1.5-7.5-2.1-12.6-2.1-20.7 0-31.65 14.4-31.65 30.9 0 22.5 14.7 30.75 29.1 30.75 4.8 0 10.95-.6 15.15-2.55zM231.2 72.45c0 22.2-13.2 37.35-32.4 37.35-23.1 0-33-19.65-33-37.35 0-21.3 13.35-37.35 32.85-37.35s32.55 14.85 32.55 37.35zm-58.2-.3c0 16.5 9.3 31 26.25 31 11.7 0 24.75-9 24.75-30.6 0-15.45-7.35-31-25.8-31-15 0-25.2 12.6-25.2 30.6zM254.9 0c.45 0 .75 0 .75.6v38.25a44.49 44.49 0 0 1 18.45-3.75c19.95 0 33.15 14.25 33.15 34.65 0 26.25-19.35 40-39.45 40a55.66 55.66 0 0 1-18.6-2.85 1.19 1.19 0 0 1-.75-1.2V.6c0-.45.3-.6.9-.6zm18.45 41.55c-7.65 0-12.9 1.35-17.7 3.6v56.55a42.07 42.07 0 0 0 12.6 1.65c16.5 0 31.8-11.25 31.8-33.15-.05-16.5-9.9-28.65-26.7-28.65zM327.2 71.25C326.45 89.4 336 103 354.65 103c6.45 0 12.9-1 18.75-4.2.45-.3.75-.15.75.45v4.95c0 .6-.15.9-.6 1-4.5 2.55-11.1 4.5-19.95 4.5-24.45.1-33.6-18.7-33.6-36.8 0-21.15 12.15-37.8 31.2-37.8 20.7 0 27.75 17.1 27.75 28.5a27.93 27.93 0 0 1-.45 6.3 1 1 0 0 1-1 .9c-2.25.3-9.6.45-15.45.45zm33.45-5.85c9.15 0 10.65-.15 11.1-.3a8.53 8.53 0 0 0 .15-1.95c0-6.6-3.9-21.75-20.85-21.75-14.4 0-21.9 11.55-23.55 24zM448.09 106.95c0 1.05-.3 1.35-1.2 1.35h-15.74c-.9 0-1.2-.45-1.2-1.35v-96c0-1 .45-1.2 1.2-1.2h15.75c.9 0 1.2.3 1.2 1.2zM479 114c-.15.6-.45.75-1 .75h-12.51c-.75 0-.9-.3-.75-.9L494.29 3.9c.15-.6.3-.6.9-.6h12.6c.6 0 .75.15.6.75zM605 58.5c.15 31-19 51.3-46.35 51.3-29.1 0-46.5-21.6-46.5-50.85 0-28.8 18.9-50.7 46.5-50.7 29.44 0 46.24 22.5 46.35 50.25zm-45.71 35.25c16.95 0 27.15-13.95 27-34.8s-10.35-34.65-27.9-34.65c-15.9 0-27.45 12.45-27.45 34.65 0 19.35 9.9 34.8 28.35 34.8z"/></g></g></svg>