<svg id="Layer_1" xmlns="http://www.w3.org/2000/svg" viewBox="-531 365 216 72"><style>.st0{fill:gray}.st1{fill:#737373}</style><path class="st0" d="M-429 418.1c-1 0-1.6-.5-1.6-1.6l-.9-20.3c-.1-2.4-.1-4.4-.1-5.7-.5 1.4-1.1 3-1.9 5.1l-8.7 21.2c-.3.8-.9 1.3-1.8 1.3h-3.6c-.9 0-1.5-.4-1.8-1.3l-8.5-21.3c-.7-1.9-1.4-3.6-1.8-5 0 1.3 0 3.5-.1 5.6l-.8 20.4c0 1.1-.6 1.6-1.6 1.6h-2.6c-1 0-1.6-.5-1.5-1.6l1.2-31.9c0-1 .6-1.6 1.6-1.6h5.6c.9 0 1.5.4 1.8 1.3l10.4 26.5 10.7-26.5c.3-.8.9-1.3 1.8-1.3h5.6c1 0 1.6.5 1.6 1.6l1.3 31.9c0 1.1-.5 1.6-1.5 1.6h-2.8zm19.5.5c-6.1 0-12.3-4.3-12.3-13 0-8.6 5.7-13 12.8-13 7 0 12.1 4.4 12.1 12.4 0 9.2-5.9 13.6-12.6 13.6zm.1-21.5c-3.4 0-6.5 2.3-6.5 8.1 0 5.3 2.8 8.7 6.5 8.7h.3c3.6 0 6.3-3 6.3-8.4 0-5.1-2.5-8.4-6.6-8.4zm24.9 21.5c-2.4 0-5.6-.4-8.1-1.1-1.2-.3-1.5-.8-1.5-1.8 0-.8.1-1.8.1-3.4v-30.8c0-.8.5-1.4 1.4-1.5l2.9-.2c.9-.1 1.5.4 1.5 1.4v11.2c0 1.9-.1 3.1-.1 3.5 2.1-2.5 4.8-3.3 7.4-3.3 5.7 0 10.4 4.3 10.4 12.3.1 8.2-4.8 13.7-14 13.7zm2.1-21.2c-1.8 0-3.8.6-5.6 2.5v13.5c1.5.5 3 .6 4.4.6 4.5 0 7.4-3 7.4-8.4-.1-5.6-3.1-8.2-6.2-8.2zm21.8-12.6c0 2.1-1.6 3.5-3.7 3.5-2.3 0-3.7-1.5-3.7-3.6 0-2 1.5-3.5 3.7-3.5s3.7 1.5 3.7 3.6zm-5.2 33.3c-.9 0-1.4-.5-1.4-1.4V396c0-.9.5-1.4 1.4-1.5l2.9-.2c.9-.1 1.5.4 1.5 1.4v21c0 .9-.5 1.4-1.4 1.4h-3zm25.5-35.1c0 .8-.5 1.3-1.2 1.3-.4 0-1.4-.2-2.8-.2-3 0-4.9 1.2-5.3 4.4-.2.8-.2 1.8-.2 3.3v1.9h5c.9 0 1.4.5 1.4 1.5l-.1 1.6c-.1.9-.5 1.4-1.4 1.4h-4.8v18.5c0 .9-.5 1.4-1.4 1.4h-2.9c-.9 0-1.4-.5-1.4-1.4v-18.6h-1.6c-.9 0-1.4-.5-1.4-1.4v-1.4c0-.9.4-1.4 1.3-1.5l1.4-.1v-1.4c0-2.5.1-4.3.7-6.1 1.3-4.6 5.2-6.8 10.3-6.8 1 0 2.2 0 3.4.3.9.1 1.3.7 1.2 1.6l-.2 1.7zm24 10.7h-3.6c-.8 0-1.3.4-1.6 1.2-.6 1.5-3.5 8.2-6.8 15.8-3.4-7.5-6.5-14.3-7.1-15.8-.3-.8-.7-1.2-1.6-1.2h-3.6c-1 0-1.5.6-1.2 1.6.8 2.5 6.1 13.7 10.3 22.8-2.6 5.9-4.7 11-5.2 12.5-.3 1 .1 1.6 1.2 1.6h3.6c.8 0 1.3-.4 1.6-1.2 1-3.2 14-31.9 15.3-35.8.2-.9-.3-1.5-1.3-1.5z"/><path class="st1" d="M-487.5 395.7s6.7 11 6.6 12.7c-.1 1.7-7.7 6.7-7.7 6.7l1.1-19.4z"/><path class="st0" d="M-500.1 398.5c1.4 6.2 11.6 16.6 11.6 16.6s2.3-32.3 1.4-33.8c-.9-1.4-9.9-2.6-9.9-2.6s-4.6 13.7-3.1 19.8z"/><path class="st1" d="M-510.9 417.8s-12.9.3-14.3-.6c-1.4-1-2-10-2-10l16.3 10.6z"/><path class="st0" d="M-507.1 405.4c-6.1-1.9-20.1 1.7-20.1 1.7s26.8 18.2 28.5 18.1c1.7 0 7.3-7.2 7.3-7.2s-9.6-10.8-15.7-12.6z"/><path class="st1" d="M-518.3 386.3s6.2-11.3 7.7-12.1c1.5-.7 9.7 3.3 9.7 3.3l-17.4 8.8z"/><path class="st0" d="M-509.5 395.8c4.6-4.3 8.6-18.3 8.6-18.3s-29.1 14.2-30 15.7c-.8 1.4 2.6 9.8 2.6 9.8s14.2-2.8 18.8-7.2z"/></svg>