<svg id="logo" xmlns="http://www.w3.org/2000/svg" viewBox="-579 380 120 42"><style>.st0{fill:gray}.st1{fill:#fff}</style><path class="st0" d="M-539.2 409.8h.2l.2.4h.2l-.3-.4c.1 0 .2-.1.2-.3s-.1-.3-.3-.3h-.4v.9h.1l.1-.3zm0-.1v-.3h.2c.1 0 .2 0 .2.1s-.1.2-.2.2h-.2z"/><path class="st0" d="M-538.1 409.8c0 .5-.4.9-.9.9s-.9-.4-.9-.9.4-.9.9-.9.9.4.9.9zm-.9-.8c-.4 0-.7.3-.7.7 0 .4.3.7.7.7s.7-.3.7-.7c0-.4-.3-.7-.7-.7z"/><path class="st1" d="M-544.1 410.5c-1.3 0-2.4.2-3.3.6-.1 0-.2.1-.2.3v.1c.1.3-.1.6-.9.8-1.2.3-2 1.5-2.4 2-.5.5-2 .8-1.8.5.2-.2.8-.9 1.2-1.7.4-.7.7-.9 1.1-1.6.1-.2.6-.9.8-1.4.2-.5.1-1.2.2-1.5.1-.4.5-1.2.5-1.7 0-.3-1.1.4-1.7.4-.5 0-1.1-.3-1.6-.4-.6 0-1 .5-1.5.4-.3 0-.6-.3-1.1-.3-.8 0-1.7.4-3.5.4-1.8-.1-3.4-2.2-3.6-2.6-.3-.4-.6-.4-.9-.1-.3.3-.8.1-.9-.1-.2-.4-.8-1.6-1.8-1.8-1.3-.3-2 .7-1.9 1.6.1.9.6 1.1.9 1.6s.4.8.9 1c.3.1.5.4.4.6-.1.2-.4.3-.7.3-.5 0-.9-.1-1.1-.3-.3-.2-.5-.5-.8-.9-.3-.5-.8-.7-1.3-.7-.3 0-.5.1-.7.2-.9.5-1.9.7-3 .7h-1.3c2.4 7 9.2 12.1 17.1 12.1 6.3 0 11.9-3.3 15.1-8.2-.7-.2-1.4-.3-2.2-.3z"/><path class="st0" d="M-553.1 409.1l-.5.5c-.4.3-.9 0-1.2-.2-.7-.4-1.2-.1-1.3.2-.1.3 0 .7.4.6.5-.1.5 0 .9.2.7.4 1.2.2 1.4 0 .2-.2.3-.3.4-.5.2-.4.1-.7-.1-.8.1 0 0 0 0 0zM-558.8 390.4c-.9 0-1.6.1-2.1.1-.6 0-1-.4-1.2-.6-.2-.2-.7-.3-1 .3-.3.6.3 1.3.7 1.4 0 0 .8 1.4 1.3.8.4-.4.6-.6 2.7-.8 1-.1 1.1-.3 1.1-.6s-.6-.6-1.5-.6zM-553.9 387.4h-.7c-.7.1-1.3.3-1.7.5 0 .1.1.1.1.1h.4c1.1-.1 2.1.1 2.1.4 0 .3-.5.5-1.2.7-.1 0-.1.1-.1.1 0 .1.1.1.1.1.3.1.6.2 1 .2 1.2 0 2.1-.4 2.1-1.1 0-.5-.9-1-2.1-1z"/><path class="st0" d="M-557 383c-9.9 0-18 8.1-18 18 0 2 .3 3.9.9 5.8h1.3c1.1 0 2.1-.3 3-.7.2-.1.5-.2.7-.2.6 0 1 .2 1.3.7.3.4.5.7.8.9s.6.3 1.1.3c.2 0 .6-.1.7-.3.1-.3 0-.5-.4-.6-.5-.2-.6-.5-.9-1s-.8-.7-.9-1.6c-.1-.9.6-1.9 1.9-1.6 1 .2 1.6 1.4 1.8 1.8.1.2.5.5.9.1.3-.3.7-.3.9.1.2.3 1.8 2.5 3.6 2.6 1.8.1 2.7-.4 3.5-.4.5 0 .8.3 1.1.3.5.1.9-.4 1.5-.4.5 0 1 .3 1.6.3.5 0 1.7-.7 1.7-.4 0 .5-.4 1.3-.5 1.7-.1.3 0 .9-.2 1.5-.1.5-.6 1.2-.8 1.4-.4.7-.8.9-1.1 1.6-.4.8-1.1 1.5-1.2 1.7-.2.3 1.2 0 1.8-.5.4-.4 1.2-1.7 2.4-2 .8-.2 1-.5.9-.8v-.1c0-.1.1-.2.2-.3.9-.4 2-.6 3.3-.6.7 0 1.5.1 2.2.3 1.8-2.6 2.9-6 2.9-9.6 0-9.9-8.1-18-18-18zm14.7 17.7c-.9 4.7-8.7 6.3-16.2 4-7.2-2.1-13.5-6.5-12.8-9 .4-1.5 2.8-2.1 5.9-1.8-.5 1-.5 2.1 1.6 3.4 2.6 1.4 6.8 2.6 8 2.5.4 0 .8-.2.4-.5-.3-.3-.7-.8-.9-1.7-.1-.5-.3-1.2-3-1.7-5.8-1.1-5.6-2.8-5.4-3.7 0 0 .5-2.3.7-3.1.2-.9.7-2.7 4.5-1.9 2.1.5 3.3-.1 3.9-.3 1.6-.4 3.4-.1 4.4.9s2.4 4.3 3.1 6.7c.4 1.2.3 1.8.1 2.2-.1.3-.2.5-.6 1.2 0 .1 0 .3.2.2 1.2-.5 1.4-1.3 1.6-1.9 3 .7 4.8 2.3 4.5 4.5z"/><g><path class="st0" d="M-529.8 402.1c0-1.7 0-2.9-.1-4h2.7l.1 2.3h.1c.6-1.7 2-2.6 3.4-2.6.3 0 .5 0 .7.1v2.9c-.3-.1-.6-.1-.9-.1-1.5 0-2.5.9-2.8 2.4-.1.3-.1.6-.1.9v6.4h-3.1v-8.3zM-519.1 405.2c.1 2.2 1.8 3.2 3.8 3.2 1.4 0 2.5-.2 3.4-.6l.5 2.1c-1.1.4-2.5.8-4.3.8-4 0-6.4-2.5-6.4-6.3 0-3.4 2.1-6.6 6-6.6 4 0 5.3 3.3 5.3 6 0 .6-.1 1-.1 1.3l-8.2.1zm5.4-2.2c0-1.1-.5-3-2.6-3-1.9 0-2.7 1.7-2.9 3h5.5zM-473.9 407.6c0 1 0 2 .2 2.9h-1.1l-.2-1.8c-.6 1-2 2-3.9 2-2.5 0-3.6-1.7-3.6-3.4 0-2.8 2.5-4.6 7.5-4.5v-.3c0-1.2-.2-3.7-3.2-3.6-1.1 0-2.2.3-3.1.9l-.4-.9c1.1-.8 2.5-1.1 3.6-1.1 3.6 0 4.2 2.7 4.2 4.9v4.9zm-1.2-3.7c-2.7-.1-6.2.3-6.2 3.3 0 1.8 1.2 2.6 2.5 2.6 2.1 0 3.2-1.3 3.7-2.5.1-.3.1-.5.1-.7v-2.7h-.1zM-469 395.4v2.7h3.5v1h-3.5v8c0 1.6.5 2.6 1.8 2.6.6 0 1.1-.1 1.4-.2l.1.9c-.4.2-1 .3-1.7.3-.9 0-1.6-.3-2.1-.9-.6-.6-.7-1.7-.7-2.9v-7.8h-2.1v-1h2.1v-2.3l1.2-.4zM-463.9 409.8h.2l.2.4h.2l-.3-.4c.1 0 .2-.1.2-.3s-.1-.3-.3-.3h-.4v.9h.1v-.3h.1zm0-.1v-.3h.2c.1 0 .2 0 .2.1s-.1.2-.2.2h-.2z"/><path class="st0" d="M-462.9 409.8c0 .5-.4.9-.9.9s-.9-.4-.9-.9.4-.9.9-.9.9.4.9.9zm-.9-.8c-.4 0-.7.3-.7.7 0 .4.3.7.7.7.4 0 .7-.3.7-.7.1-.3-.3-.7-.7-.7zM-500.5 399.5c-.6-.9-1.8-1.6-3.5-1.6-3 0-5.5 2.5-5.5 6.6 0 3.8 2.3 6.3 5.3 6.3 1.8 0 3.3-.8 4-2.2h.1l.1 2h2.8c-.1-.8-.1-2.2-.1-3.5v-13.7l-3.1-.9v7h-.1zm0 5.7c0 .3 0 .6-.1.9-.3 1.3-1.4 2.2-2.7 2.2-2 0-3.1-1.7-3.1-3.9 0-2.3 1.1-4.1 3.1-4.1 1.4 0 2.4 1 2.7 2.2.1.3.1.6.1.8v1.9zM-489.1 397.9c-.9 0-1.8.3-2.5.7-.7.4-1.3 1.1-1.7 1.8v-5.8l-1.2-.4v16.3h1.2V403c0-.5 0-.8.2-1.2.5-1.5 2-2.8 3.7-2.8 2.5 0 3.4 2 3.4 4.2v7.3h1.2v-7.4c0-4.6-3.1-5.2-4.3-5.2z"/></g></svg>