<svg id="Layer_1" xmlns="http://www.w3.org/2000/svg" viewBox="-376 281 527 240"><style>.st0{fill:gray}.st1{fill:#fff}</style><circle class="st0" cx="118.4" cy="340" r="31.4"/><path class="st1" d="M97 335.8c-2.3 0-4.2 1.9-4.2 4.2 0 2.3 1.9 4.2 4.2 4.2s4.2-1.9 4.2-4.2c0-2.3-1.9-4.2-4.2-4.2zm29.9 19c-2 1.2-2.7 3.7-1.5 5.7s3.7 2.7 5.7 1.5c2-1.2 2.7-3.7 1.5-5.7-1.1-1.9-3.7-2.6-5.7-1.5zM106.1 340c0-4.1 2.1-7.8 5.2-10l-3.1-5.1c-3.7 2.5-6.4 6.2-7.5 10.6 1.3 1.1 2.2 2.7 2.2 4.6 0 1.8-.8 3.5-2.2 4.6 1.1 4.4 3.9 8.1 7.5 10.6l3.1-5.1c-3.1-2.4-5.2-6.1-5.2-10.2zm12.3-12.3c6.4 0 11.6 4.9 12.2 11.2l6-.1c-.3-4.6-2.3-8.8-5.4-11.8-1.6.6-3.4.5-5-.4s-2.6-2.5-2.9-4.2c-1.5-.4-3.2-.7-4.9-.7-2.9 0-5.6.7-8.1 1.9l2.9 5.2c1.6-.7 3.3-1.1 5.2-1.1zm0 24.5c-1.8 0-3.6-.4-5.2-1.1l-2.9 5.2c2.4 1.2 5.2 1.9 8.1 1.9 1.7 0 3.3-.2 4.9-.7.3-1.7 1.3-3.2 2.9-4.2 1.6-.9 3.4-1 5-.4 3.1-3 5.1-7.2 5.4-11.8l-6-.1c-.6 6.3-5.8 11.2-12.2 11.2zm8.5-27.1c2 1.2 4.6.5 5.7-1.5 1.2-2 .5-4.6-1.5-5.7-2-1.2-4.6-.5-5.7 1.5-1.2 2-.5 4.6 1.5 5.7z"/><path class="st0" d="M-312 422.3c-3.2.8-7.4 1.6-12.6 2.5s-11.3 1.3-18.2 1.3c-6 0-11-.9-15.1-2.6-4.1-1.7-7.4-4.2-9.9-7.4s-4.3-7-5.4-11.3c-1.1-4.3-1.6-9.1-1.6-14.4v-43.6h13.9v40.7c0 9.5 1.5 16.2 4.5 20.3s8 6.1 15.1 6.1c1.5 0 3-.1 4.6-.2 1.6-.1 3.1-.2 4.5-.4 1.4-.1 2.7-.3 3.8-.4s2-.3 2.5-.5v-65.6h13.9v75.5zm34-72c1.7-1.1 4.3-2.2 7.7-3.4 3.4-1.2 7.4-1.8 11.9-1.8 5.6 0 10.5 1 14.9 3 4.3 2 8 4.8 11 8.4 3 3.6 5.3 7.9 6.8 12.9s2.3 10.5 2.3 16.4c0 6.3-.9 11.9-2.8 17-1.8 5-4.5 9.3-7.8 12.8-3.4 3.5-7.5 6.2-12.3 8.1-4.8 1.9-10.2 2.8-16.1 2.8-6.5 0-12.2-.4-17.2-1.3s-9.1-1.8-12.3-2.7V311l13.9-2.4v41.7zm0 62.2c1.4.4 3.4.8 5.9 1.1 2.5.4 5.7.5 9.5.5 7.5 0 13.5-2.5 17.9-7.4 4.5-4.9 6.7-11.9 6.7-21 0-4-.4-7.7-1.2-11.2-.8-3.5-2.1-6.5-3.9-9s-4.1-4.5-7-6c-2.8-1.4-6.3-2.2-10.2-2.2-3.8 0-7.3.6-10.5 1.9-3.2 1.3-5.6 2.6-7.3 4l.1 49.3zm132.1 9.8c-3.2.8-7.4 1.6-12.6 2.5s-11.3 1.3-18.2 1.3c-6 0-11-.9-15.1-2.6-4.1-1.7-7.4-4.2-9.9-7.4s-4.3-7-5.4-11.3c-1.1-4.3-1.6-9.1-1.6-14.4v-43.6h13.9v40.7c0 9.5 1.5 16.2 4.5 20.3s8 6.1 15.1 6.1c1.5 0 3-.1 4.6-.2s3.1-.2 4.5-.4c1.4-.1 2.7-.3 3.8-.4 1.1-.1 2-.3 2.5-.5v-65.6h13.9v75.5zm20-73.2c3.2-.8 7.4-1.6 12.7-2.5s11.4-1.3 18.2-1.3c6.2 0 11.3.9 15.4 2.6 4.1 1.7 7.3 4.2 9.8 7.3 2.4 3.1 4.2 6.9 5.2 11.3s1.5 9.2 1.5 14.5v43.6H-77v-40.7c0-4.8-.3-8.9-1-12.3-.6-3.4-1.7-6.1-3.2-8.2s-3.5-3.6-6-4.6c-2.5-.9-5.6-1.4-9.3-1.4-1.5 0-3 .1-4.6.1-1.6.1-3.1.2-4.6.4-1.4.1-2.7.3-3.9.5-1.1.2-2 .3-2.5.4v65.6H-126l.1-75.3zm94.9-2.3h29.4v11.7H-31v35.9c0 3.9.3 7.1.9 9.6.6 2.5 1.5 4.5 2.7 6 1.2 1.4 2.7 2.5 4.5 3.1s3.9.9 6.3.9c4.3 0 7.7-.5 10.2-1.4s4.2-1.6 5.1-2l3 11.4c-1.4.7-3.9 1.6-7.4 2.7-3.5 1.1-7.5 1.6-12 1.6-5.3 0-9.6-.7-13.1-2-3.4-1.3-6.2-3.4-8.3-6.1-2.1-2.7-3.6-6-4.4-9.9-.8-3.9-1.3-8.5-1.3-13.7v-69.4l13.9-2.4-.1 24zm105.1 75.5c-3.2.8-7.4 1.6-12.6 2.5-5.2.9-11.3 1.3-18.2 1.3-6 0-11-.9-15.1-2.6-4.1-1.7-7.4-4.2-9.9-7.4s-4.3-7-5.4-11.3c-1.1-4.3-1.6-9.1-1.6-14.4v-43.6h13.9v40.7c0 9.5 1.5 16.2 4.5 20.3s8 6.1 15.1 6.1c1.5 0 3-.1 4.6-.2s3.1-.2 4.5-.4c1.4-.1 2.7-.3 3.8-.4s2-.3 2.5-.5v-65.6h13.9v75.5zM-346.1 468.6c0 2.7-.4 5.1-1.3 7.1s-2.1 3.7-3.6 5.1c-1.6 1.3-3.4 2.4-5.5 3-2.1.7-4.5 1-7.1 1-1.3 0-2.6-.1-4.1-.2s-2.7-.3-3.7-.6v-30.8c1.1-.3 2.3-.5 3.7-.7 1.4-.1 2.8-.2 4.1-.2 2.6 0 4.9.3 7.1 1 2.1.7 4 1.7 5.5 3 1.5 1.4 2.8 3 3.6 5.1.9 2.1 1.3 4.5 1.3 7.2zm-22.2 13.2c.2 0 .7.1 1.4.2.8.1 2 .1 3.6.1 2.3 0 4.3-.3 6-.9s3.2-1.5 4.3-2.7c1.2-1.2 2-2.6 2.6-4.3.6-1.7.9-3.6.9-5.6 0-2.1-.3-4-.9-5.6-.6-1.7-1.5-3.1-2.6-4.2-1.2-1.2-2.6-2.1-4.3-2.7-1.7-.6-3.7-.9-6-.9-1.7 0-2.9 0-3.6.1l-1.4.2v26.3zm26.9-9.2c0-2.1.3-3.9.9-5.5.6-1.6 1.4-2.8 2.3-3.9 1-1 2.1-1.8 3.3-2.3s2.5-.8 3.8-.8c2.9 0 5.2.9 7 2.9 1.7 1.9 2.6 4.8 2.6 8.8v.7c0 .2 0 .5-.1.7h-16.7c.1 2.9.8 5.2 2.2 6.7 1.3 1.6 3.5 2.3 6.4 2.3 1.6 0 2.9-.2 3.9-.5s1.6-.6 2.1-.8l.6 2.6c-.4.2-1.2.5-2.4.9-1.2.3-2.6.5-4.2.5-2.1 0-3.9-.3-5.3-.9-1.5-.6-2.7-1.5-3.6-2.6-1-1.1-1.6-2.4-2.1-3.9-.5-1.4-.7-3-.7-4.9zm16.9-1.8c-.1-2.5-.6-4.4-1.7-5.8-1.1-1.4-2.7-2.1-4.7-2.1-1.1 0-2 .2-2.9.6-.8.4-1.6 1-2.2 1.7-.6.7-1.1 1.6-1.5 2.5-.4 1-.6 1.9-.6 3l13.6.1zm14.7 14.2c-1 0-1.9-.2-2.6-.4-.8-.2-1.4-.6-1.9-1.1s-.9-1.1-1.2-1.8c-.3-.8-.4-1.7-.4-2.8v-29.5l3-.6v29.9c0 .7.1 1.3.2 1.8.1.4.3.8.6 1.1.3.3.6.5 1.1.6.4.1 1 .2 1.6.3l-.4 2.5zm8.7-31.4c0 .7-.2 1.3-.6 1.7-.4.4-1 .6-1.6.6-.6 0-1.1-.2-1.6-.6-.4-.4-.6-1-.6-1.7s.2-1.3.6-1.7c.4-.4.9-.6 1.6-.6.6 0 1.1.2 1.6.6.4.4.6 1 .6 1.7zm-.7 31h-3v-23.8h3v23.8zm14.6-3.3c.6-1.3 1.3-2.8 2-4.5s1.3-3.5 2-5.3l1.8-5.5c.5-1.9 1-3.6 1.4-5.2h3c-.6 2.2-1.2 4.3-1.9 6.4-.7 2.1-1.4 4.2-2.2 6.2s-1.5 4-2.4 5.8c-.8 1.9-1.6 3.6-2.4 5.3h-2.8c-.8-1.7-1.6-3.4-2.4-5.3s-1.6-3.8-2.3-5.8c-.8-2-1.5-4.1-2.2-6.2s-1.3-4.3-1.9-6.4h3.2c.4 1.6.8 3.4 1.4 5.2.5 1.9 1.1 3.7 1.8 5.5.6 1.8 1.3 3.6 2 5.3.6 1.7 1.3 3.2 1.9 4.5zm12.5-8.7c0-2.1.3-3.9.9-5.5.6-1.6 1.4-2.8 2.3-3.9 1-1 2.1-1.8 3.3-2.3 1.2-.5 2.5-.8 3.8-.8 2.9 0 5.2.9 7 2.9 1.7 1.9 2.6 4.8 2.6 8.8v.7c0 .2 0 .5-.1.7h-16.7c.1 2.9.8 5.2 2.2 6.7 1.3 1.6 3.5 2.3 6.4 2.3 1.6 0 2.9-.2 3.9-.5s1.6-.6 2.1-.8l.6 2.6c-.4.2-1.2.5-2.4.9-1.2.3-2.6.5-4.2.5-2.1 0-3.9-.3-5.3-.9-1.5-.6-2.7-1.5-3.6-2.6-1-1.1-1.6-2.4-2.1-3.9-.5-1.4-.7-3-.7-4.9zm16.9-1.8c-.1-2.5-.6-4.4-1.7-5.8-1.1-1.4-2.7-2.1-4.7-2.1-1.1 0-2 .2-2.9.6-.8.4-1.6 1-2.2 1.7-.6.7-1.1 1.6-1.5 2.5-.4 1-.6 1.9-.6 3l13.6.1zm16.8-10.5c1 0 1.9.1 2.8.2.9.2 1.5.3 1.8.5l-.6 2.6c-.2-.1-.7-.3-1.5-.4s-1.7-.2-3-.2-2.3.1-3.1.3c-.8.2-1.3.3-1.5.5v20.9h-3v-22.8c.8-.3 1.8-.7 3.2-1 1.3-.4 3-.6 4.9-.6zm6.5 12.3c0-2.1.3-3.9.9-5.5s1.4-2.8 2.3-3.9c1-1 2.1-1.8 3.3-2.3 1.2-.5 2.5-.8 3.8-.8 2.9 0 5.2.9 7 2.9 1.7 1.9 2.6 4.8 2.6 8.8v.7c0 .2 0 .5-.1.7h-16.7c.1 2.9.8 5.2 2.2 6.7 1.4 1.6 3.5 2.3 6.4 2.3 1.6 0 2.9-.2 3.9-.5s1.6-.6 2.1-.8l.6 2.6c-.4.2-1.2.5-2.4.9-1.2.3-2.6.5-4.2.5-2.1 0-3.9-.3-5.3-.9-1.5-.6-2.7-1.5-3.6-2.6s-1.6-2.4-2.1-3.9c-.4-1.4-.7-3-.7-4.9zm16.9-1.8c-.1-2.5-.6-4.4-1.7-5.8s-2.7-2.1-4.7-2.1c-1.1 0-2 .2-2.9.6-.8.4-1.6 1-2.2 1.7s-1.1 1.6-1.5 2.5c-.4 1-.6 1.9-.6 3l13.6.1zm28 13c-.9.3-2 .6-3.4.9s-3.1.4-5.2.4c-1.7 0-3.3-.3-4.8-.9-1.4-.6-2.7-1.4-3.7-2.5s-1.8-2.4-2.4-3.9-.9-3.3-.9-5.2c0-1.8.2-3.5.7-5s1.2-2.8 2.1-3.9 2-2 3.4-2.6c1.3-.6 2.9-.9 4.6-.9 1.6 0 2.9.2 4.1.7 1.2.4 2 .9 2.5 1.3v-12.8l3-.6v35zm-3-18.7c-.3-.2-.6-.4-1-.7-.4-.2-.9-.5-1.5-.7s-1.2-.4-1.8-.5c-.6-.1-1.3-.2-2-.2-1.5 0-2.7.3-3.7.8s-1.8 1.2-2.4 2.1-1.1 1.9-1.3 3.1c-.3 1.2-.4 2.4-.4 3.8 0 3.1.8 5.5 2.3 7.2 1.6 1.7 3.6 2.5 6.2 2.5 1.5 0 2.7-.1 3.6-.2s1.6-.3 2-.4v-16.8zm24.4-2.9c.5-.4 1.4-.8 2.5-1.3 1.2-.4 2.5-.7 4.1-.7 1.7 0 3.2.3 4.6.9 1.3.6 2.5 1.5 3.4 2.6s1.6 2.4 2.1 3.9.7 3.2.7 5c0 1.9-.3 3.7-.9 5.2s-1.4 2.8-2.4 3.9-2.3 1.9-3.7 2.5c-1.4.6-3 .9-4.8.9-2.1 0-3.9-.1-5.2-.4-1.4-.3-2.5-.6-3.4-.9v-34.4l3-.6v13.4zm0 19.6c.5.2 1.1.3 2 .4s2.1.2 3.6.2c2.6 0 4.6-.8 6.2-2.5s2.3-4.1 2.3-7.2c0-1.3-.1-2.6-.4-3.8-.3-1.2-.7-2.2-1.3-3.1-.6-.9-1.4-1.6-2.4-2.1s-2.2-.8-3.7-.8c-.7 0-1.4.1-2 .2s-1.2.3-1.8.5c-.6.2-1 .4-1.4.7-.4.2-.8.5-1 .7l-.1 16.8zm29.4 3.3c-1-1.9-2-3.8-2.9-5.9-.9-2-1.8-4.1-2.6-6.1-.8-2.1-1.6-4.1-2.2-6.2-.7-2.1-1.3-4.1-1.7-6.1h3.2c.3 1.5.8 3.1 1.3 4.8.5 1.7 1.1 3.5 1.8 5.3.7 1.8 1.4 3.7 2.2 5.6.8 1.9 1.7 3.8 2.6 5.6.7-1.9 1.3-3.7 1.8-5.4.5-1.7 1-3.4 1.5-5 .5-1.7.9-3.4 1.3-5.1s.8-3.6 1.3-5.7h3c-1 4.5-2.1 8.8-3.4 13-1.2 4.2-2.6 8.1-4.1 11.5-.6 1.4-1.2 2.6-1.8 3.6-.6 1-1.3 1.8-2.1 2.5-.8.6-1.6 1.1-2.6 1.4s-2.2.5-3.5.5c-.8 0-1.5-.1-2.1-.3-.6-.2-1-.3-1.2-.4l.6-2.5c.1.1.5.2 1 .4.6.2 1.2.3 1.8.3.9 0 1.6-.1 2.3-.3.7-.2 1.3-.5 1.9-.9s1.1-1 1.5-1.7c.2-1 .6-1.8 1.1-2.9zm39.2.2c-2.1 0-4-.4-5.7-1.1-1.8-.7-3.3-1.8-4.6-3.2-1.3-1.4-2.3-3.2-3.1-5.2-.8-2.1-1.1-4.4-1.1-7.1s.4-5 1.2-7.1 1.9-3.8 3.2-5.2 2.9-2.5 4.7-3.2c1.8-.7 3.6-1.1 5.6-1.1 1.2 0 2.3.1 3.3.2s1.8.3 2.6.6c.7.2 1.4.5 1.9.7.5.2.9.4 1.2.6l-1 2.7c-.8-.5-1.7-.9-2.9-1.4-1.2-.4-2.6-.7-4.4-.7-2 0-3.7.3-5.2 1s-2.7 1.6-3.8 2.9c-1 1.2-1.8 2.7-2.3 4.4-.5 1.7-.8 3.6-.8 5.6 0 2.1.3 4 .8 5.7s1.3 3.2 2.2 4.3c1 1.2 2.2 2.1 3.6 2.8 1.4.6 3.1 1 4.9 1 2 0 3.7-.2 5.1-.6 1.4-.4 2.4-.8 3.1-1.2l.9 2.7c-.2.2-.6.3-1.1.5s-1.2.4-2 .6-1.7.4-2.8.5c-1 .2-2.2.3-3.5.3zm21.7-25.1c1.6 0 2.9.2 4 .7 1.1.4 2 1.1 2.6 1.8.7.8 1.2 1.7 1.5 2.8.3 1.1.5 2.2.5 3.5v15c-.3.1-.8.2-1.3.3-.6.1-1.3.2-2 .3-.8.1-1.6.2-2.6.3-.9.1-1.9.1-2.9.1-1.3 0-2.4-.1-3.5-.4s-2-.7-2.8-1.3c-.8-.6-1.4-1.4-1.8-2.3s-.7-2.1-.7-3.4.2-2.4.7-3.3 1.2-1.7 2.1-2.3c.9-.6 1.9-1 3.2-1.3 1.2-.3 2.6-.4 4-.4.4 0 .9 0 1.4.1.5 0 .9.1 1.4.2.4.1.8.2 1.2.2.3.1.5.1.7.2v-1.5c0-.8-.1-1.6-.2-2.4-.1-.8-.4-1.5-.8-2.1-.4-.6-1-1.1-1.7-1.5-.8-.4-1.7-.6-3-.6-1.7 0-3.1.1-3.9.4-.9.2-1.5.4-1.9.6l-.4-2.6c.5-.2 1.3-.5 2.4-.7.9-.3 2.2-.4 3.8-.4zm.3 22.2c1.2 0 2.2 0 3.1-.1.9-.1 1.6-.2 2.2-.3v-8.4c-.3-.2-.9-.3-1.6-.5-.7-.2-1.7-.3-3-.3-.7 0-1.5.1-2.3.2s-1.5.3-2.2.7c-.7.4-1.2.8-1.7 1.4-.4.6-.6 1.4-.6 2.4 0 .9.1 1.6.4 2.3.3.6.7 1.1 1.2 1.5s1.2.6 1.9.8c.8.2 1.6.3 2.6.3zm15.1-20.8c.9-.2 2.1-.5 3.6-.8s3.3-.5 5.5-.5c1.8 0 3.3.3 4.5.8s2.2 1.3 2.9 2.2c.7 1 1.2 2.1 1.5 3.5s.5 2.8.5 4.5v13.3h-3v-12.3c0-1.7-.1-3.1-.3-4.3-.2-1.2-.6-2.1-1.2-2.9-.5-.7-1.2-1.3-2.1-1.6-.9-.3-2-.5-3.3-.5-1.4 0-2.6.1-3.7.2-1 .2-1.7.3-2 .4v20.9h-3l.1-22.9zm45.8 11.1c0 1.9-.3 3.6-.8 5.1s-1.3 2.8-2.3 3.9-2.1 1.9-3.4 2.5c-1.3.6-2.8.9-4.4.9s-3.1-.3-4.4-.9c-1.3-.6-2.5-1.4-3.4-2.5-1-1.1-1.7-2.4-2.3-3.9-.5-1.5-.8-3.2-.8-5.1s.3-3.6.8-5.1 1.3-2.8 2.3-3.9 2.1-1.9 3.4-2.5c1.3-.6 2.8-.9 4.4-.9s3.1.3 4.4.9c1.3.6 2.5 1.4 3.4 2.5 1 1.1 1.7 2.4 2.3 3.9.5 1.5.8 3.2.8 5.1zm-3.2 0c0-3-.7-5.3-2.1-7.1-1.4-1.8-3.3-2.7-5.6-2.7-2.4 0-4.2.9-5.6 2.7-1.4 1.8-2.1 4.1-2.1 7.1s.7 5.3 2.1 7.1c1.4 1.7 3.3 2.6 5.6 2.6 2.4 0 4.2-.9 5.6-2.6 1.4-1.8 2.1-4.1 2.1-7.1zm8.9-11.1c.9-.2 2.1-.5 3.6-.8s3.3-.5 5.5-.5c1.8 0 3.3.3 4.5.8s2.2 1.3 2.9 2.2c.7 1 1.2 2.1 1.5 3.5s.5 2.8.5 4.5v13.3h-3v-12.3c0-1.7-.1-3.1-.3-4.3-.2-1.2-.6-2.1-1.2-2.9-.5-.7-1.2-1.3-2.1-1.6-.9-.3-2-.5-3.3-.5-1.4 0-2.6.1-3.7.2-1 .2-1.7.3-2 .4v20.9h-3l.1-22.9zm29-8c0 .7-.2 1.3-.6 1.7-.4.4-1 .6-1.6.6s-1.1-.2-1.6-.6c-.4-.4-.6-1-.6-1.7s.2-1.3.6-1.7c.4-.4.9-.6 1.6-.6s1.1.2 1.6.6c.3.4.6 1 .6 1.7zm-.7 31h-3v-23.8h3v23.8zm16.9.5c-1.8 0-3.5-.3-4.9-.9s-2.6-1.4-3.5-2.5-1.6-2.4-2.1-3.9-.7-3.2-.7-5c0-1.9.3-3.6.8-5.1s1.2-2.9 2.2-4 2.1-2 3.5-2.6c1.3-.6 2.9-.9 4.6-.9 1.3 0 2.5.1 3.6.3 1.1.2 2 .5 2.6.8l-.8 2.6c-.6-.3-1.3-.6-2.1-.7-.8-.2-1.8-.3-3.1-.3-2.6 0-4.6.9-6 2.6s-2 4.1-2 7.3c0 1.4.2 2.7.5 3.9.3 1.2.8 2.2 1.5 3s1.6 1.5 2.7 2 2.4.7 4 .7c1.3 0 2.4-.1 3.2-.4.9-.3 1.5-.5 1.9-.8l.6 2.6c-.6.3-1.4.6-2.6.9-1.4.2-2.6.4-3.9.4zm18.3-24.9c1.6 0 2.9.2 4 .7 1.1.4 2 1.1 2.6 1.8.7.8 1.2 1.7 1.5 2.8.3 1.1.5 2.2.5 3.5v15c-.3.1-.8.2-1.3.3-.6.1-1.3.2-2 .3-.8.1-1.6.2-2.6.3-.9.1-1.9.1-2.9.1-1.3 0-2.4-.1-3.5-.4s-2-.7-2.8-1.3c-.8-.6-1.4-1.4-1.8-2.3-.4-.9-.7-2.1-.7-3.4s.2-2.4.7-3.3 1.2-1.7 2.1-2.3c.9-.6 1.9-1 3.2-1.3 1.2-.3 2.6-.4 4-.4.4 0 .9 0 1.4.1.5 0 .9.1 1.4.2.4.1.8.2 1.2.2.3.1.5.1.7.2v-1.5c0-.8-.1-1.6-.2-2.4-.1-.8-.4-1.5-.8-2.1-.4-.6-1-1.1-1.7-1.5-.8-.4-1.7-.6-3-.6-1.7 0-3.1.1-3.9.4-.9.2-1.5.4-1.9.6l-.4-2.6c.5-.2 1.3-.5 2.4-.7 1-.3 2.3-.4 3.8-.4zm.3 22.2c1.2 0 2.2 0 3.1-.1.9-.1 1.6-.2 2.2-.3v-8.4c-.3-.2-.9-.3-1.6-.5-.7-.2-1.7-.3-3-.3-.7 0-1.5.1-2.3.2s-1.5.3-2.2.7c-.7.4-1.2.8-1.7 1.4-.4.6-.6 1.4-.6 2.4 0 .9.1 1.6.4 2.3.3.6.7 1.1 1.2 1.5s1.2.6 1.9.8c.8.2 1.6.3 2.6.3zm21.1 2.6c-1 0-1.9-.2-2.6-.4-.8-.2-1.4-.6-1.9-1.1s-.9-1.1-1.2-1.8c-.3-.8-.4-1.7-.4-2.8v-29.5l3-.6v29.9c0 .7.1 1.3.2 1.8.1.4.3.8.6 1.1.3.3.6.5 1.1.6.4.1 1 .2 1.6.3l-.4 2.5z"/></svg>