<svg xmlns="http://www.w3.org/2000/svg" viewBox="0 0 372 188" enable-background="new 0 0 372 188"><style type="text/css">.st0{opacity:0.2;} .st1{fill:#333333;} .st2{fill:#464646;} .st3{fill:#1A1A1A;} .st4{fill:#CCCCCC;} .st5{fill:none;}</style><path d="M30.2 186.8c-15.5 0-28.2-12.6-28.2-28.2v-122.2c0-15.5 12.6-28.2 28.2-28.2h306.8c15.5 0 28.2 12.6 28.2 28.2v122.3c0 15.5-12.6 28.2-28.2 28.2h-306.8z" class="st0"/><path class="st1" d="M36.5 179.3c-15.5 0-28.2-12.6-28.2-28.2v-122.2c0-15.5 12.6-28.2 28.2-28.2h306.8c15.5 0 28.2 12.6 28.2 28.2v122.3c0 15.5-12.6 28.2-28.2 28.2h-306.8z"/><path class="st2" d="M366.5 151.1c0 12.8-10.4 23.2-23.2 23.2h-306.8c-12.8 0-23.2-10.4-23.2-23.2v-122.2c0-12.8 10.4-23.2 23.2-23.2h306.8c12.8 0 23.2 10.4 23.2 23.2v122.2z"/><circle class="st3" cx="26" cy="136.4" r=".5"/><circle class="st3" cx="28" cy="136.4" r=".5"/><circle class="st3" cx="30" cy="136.4" r=".5"/><circle class="st3" cx="32" cy="136.4" r=".5"/><circle class="st3" cx="26" cy="134.4" r=".5"/><circle class="st3" cx="28" cy="134.4" r=".5"/><circle class="st3" cx="30" cy="134.4" r=".5"/><circle class="st3" cx="32" cy="134.4" r=".5"/><circle class="st3" cx="26" cy="132.3" r=".5"/><circle class="st3" cx="28" cy="132.3" r=".5"/><circle class="st3" cx="30" cy="132.3" r=".5"/><circle class="st3" cx="32" cy="132.3" r=".5"/><circle class="st3" cx="26" cy="130.3" r=".5"/><circle class="st3" cx="28" cy="130.3" r=".5"/><circle class="st3" cx="30" cy="130.3" r=".5"/><circle class="st3" cx="32" cy="130.3" r=".5"/><circle class="st3" cx="26" cy="128.3" r=".5"/><circle class="st3" cx="28" cy="128.3" r=".5"/><circle class="st3" cx="30" cy="128.3" r=".5"/><circle class="st3" cx="32" cy="128.3" r=".5"/><circle class="st3" cx="26" cy="126.3" r=".5"/><circle class="st3" cx="28" cy="126.3" r=".5"/><circle class="st3" cx="30" cy="126.3" r=".5"/><circle class="st3" cx="32" cy="126.3" r=".5"/><circle class="st3" cx="26" cy="124.3" r=".5"/><circle class="st3" cx="28" cy="124.3" r=".5"/><circle class="st3" cx="30" cy="124.3" r=".5"/><circle class="st3" cx="32" cy="124.3" r=".5"/><circle class="st3" cx="26" cy="122.3" r=".5"/><circle class="st3" cx="28" cy="122.3" r=".5"/><circle class="st3" cx="30" cy="122.3" r=".5"/><circle class="st3" cx="32" cy="122.3" r=".5"/><circle class="st3" cx="26" cy="120.3" r=".5"/><circle class="st3" cx="28" cy="120.3" r=".5"/><circle class="st3" cx="30" cy="120.3" r=".5"/><circle class="st3" cx="32" cy="120.3" r=".5"/><circle class="st3" cx="26" cy="118.3" r=".5"/><circle class="st3" cx="28" cy="118.3" r=".5"/><circle class="st3" cx="30" cy="118.3" r=".5"/><circle class="st3" cx="32" cy="118.3" r=".5"/><circle class="st3" cx="26" cy="116.3" r=".5"/><circle class="st3" cx="28" cy="116.3" r=".5"/><circle class="st3" cx="30" cy="116.3" r=".5"/><circle class="st3" cx="32" cy="116.3" r=".5"/><circle class="st3" cx="26" cy="114.3" r=".5"/><circle class="st3" cx="28" cy="114.3" r=".5"/><circle class="st3" cx="30" cy="114.3" r=".5"/><circle class="st3" cx="32" cy="114.3" r=".5"/><circle class="st3" cx="26" cy="112.3" r=".5"/><circle class="st3" cx="28" cy="112.3" r=".5"/><circle class="st3" cx="30" cy="112.3" r=".5"/><circle class="st3" cx="32" cy="112.3" r=".5"/><circle class="st3" cx="26" cy="110.3" r=".5"/><circle class="st3" cx="28" cy="110.3" r=".5"/><circle class="st3" cx="30" cy="110.3" r=".5"/><circle class="st3" cx="32" cy="110.3" r=".5"/><circle class="st3" cx="26" cy="108.2" r=".5"/><circle class="st3" cx="28" cy="108.2" r=".5"/><circle class="st3" cx="30" cy="108.2" r=".5"/><circle class="st3" cx="32" cy="108.2" r=".5"/><circle class="st3" cx="26" cy="106.2" r=".5"/><circle class="st3" cx="28" cy="106.2" r=".5"/><circle class="st3" cx="30" cy="106.2" r=".5"/><circle class="st3" cx="32" cy="106.2" r=".5"/><circle class="st3" cx="26" cy="104.2" r=".5"/><circle class="st3" cx="28" cy="104.2" r=".5"/><circle class="st3" cx="30" cy="104.2" r=".5"/><circle class="st3" cx="32" cy="104.2" r=".5"/><circle class="st3" cx="26" cy="102.2" r=".5"/><circle class="st3" cx="28" cy="102.2" r=".5"/><circle class="st3" cx="30" cy="102.2" r=".5"/><circle class="st3" cx="32" cy="102.2" r=".5"/><circle class="st3" cx="26" cy="100.2" r=".5"/><circle class="st3" cx="28" cy="100.2" r=".5"/><circle class="st3" cx="30" cy="100.2" r=".5"/><circle class="st3" cx="32" cy="100.2" r=".5"/><circle class="st3" cx="26" cy="98.2" r=".5"/><circle class="st3" cx="28" cy="98.2" r=".5"/><circle class="st3" cx="30" cy="98.2" r=".5"/><circle class="st3" cx="32" cy="98.2" r=".5"/><circle class="st3" cx="26" cy="96.2" r=".5"/><circle class="st3" cx="28" cy="96.2" r=".5"/><circle class="st3" cx="30" cy="96.2" r=".5"/><circle class="st3" cx="32" cy="96.2" r=".5"/><circle class="st3" cx="26" cy="94.2" r=".5"/><circle class="st3" cx="28" cy="94.2" r=".5"/><circle class="st3" cx="30" cy="94.2" r=".5"/><circle class="st3" cx="32" cy="94.2" r=".5"/><circle class="st3" cx="26" cy="92.2" r=".5"/><circle class="st3" cx="28" cy="92.2" r=".5"/><circle class="st3" cx="30" cy="92.2" r=".5"/><circle class="st3" cx="32" cy="92.2" r=".5"/><circle class="st3" cx="26" cy="90.2" r=".5"/><circle class="st3" cx="28" cy="90.2" r=".5"/><circle class="st3" cx="30" cy="90.2" r=".5"/><circle class="st3" cx="32" cy="90.2" r=".5"/><circle class="st3" cx="26" cy="88.2" r=".5"/><circle class="st3" cx="28" cy="88.2" r=".5"/><circle class="st3" cx="30" cy="88.2" r=".5"/><circle class="st3" cx="32" cy="88.2" r=".5"/><circle class="st3" cx="26" cy="86.2" r=".5"/><circle class="st3" cx="28" cy="86.2" r=".5"/><circle class="st3" cx="30" cy="86.2" r=".5"/><circle class="st3" cx="32" cy="86.2" r=".5"/><circle class="st3" cx="26" cy="84.1" r=".5"/><circle class="st3" cx="28" cy="84.1" r=".5"/><circle class="st3" cx="30" cy="84.1" r=".5"/><circle class="st3" cx="32" cy="84.1" r=".5"/><circle class="st3" cx="26" cy="82.1" r=".5"/><circle class="st3" cx="28" cy="82.1" r=".5"/><circle class="st3" cx="30" cy="82.1" r=".5"/><circle class="st3" cx="32" cy="82.1" r=".5"/><circle class="st3" cx="26" cy="80.1" r=".5"/><circle class="st3" cx="28" cy="80.1" r=".5"/><circle class="st3" cx="30" cy="80.1" r=".5"/><circle class="st3" cx="32" cy="80.1" r=".5"/><circle class="st3" cx="26" cy="78.1" r=".5"/><circle class="st3" cx="28" cy="78.1" r=".5"/><circle class="st3" cx="30" cy="78.1" r=".5"/><circle class="st3" cx="32" cy="78.1" r=".5"/><circle class="st3" cx="26" cy="76.1" r=".5"/><circle class="st3" cx="28" cy="76.1" r=".5"/><circle class="st3" cx="30" cy="76.1" r=".5"/><circle class="st3" cx="32" cy="76.1" r=".5"/><circle class="st3" cx="26" cy="74.1" r=".5"/><circle class="st3" cx="28" cy="74.1" r=".5"/><circle class="st3" cx="30" cy="74.1" r=".5"/><circle class="st3" cx="32" cy="74.1" r=".5"/><circle class="st3" cx="26" cy="72.1" r=".5"/><circle class="st3" cx="28" cy="72.1" r=".5"/><circle class="st3" cx="30" cy="72.1" r=".5"/><circle class="st3" cx="32" cy="72.1" r=".5"/><path class="st3" d="M35.3 65.8c0 1.3-1 2.3-2.3 2.3h-7.7c-1.3 0-2.3-1-2.3-2.3 0-1.3 1-2.3 2.3-2.3h7.7c1.2-.1 2.3 1 2.3 2.3z"/><circle class="st3" cx="28.9" cy="50.9" r="6.4"/><path class="st1" d="M32.8 50.9c0 2.1-1.7 3.9-3.9 3.9s-3.9-1.8-3.9-3.9c0-2.1 1.7-3.9 3.9-3.9s3.9 1.7 3.9 3.9z"/><circle class="st3" cx="28.9" cy="50.9" r="2.6"/><ellipse class="st4" cx="29.2" cy="50.2" rx=".8" ry=".7"/><ellipse class="st4" cx="28.8" cy="52.5" rx=".3" ry=".7"/><circle class="st3" cx="349.9" cy="136.3" r=".5"/><circle class="st3" cx="351.9" cy="136.3" r=".5"/><circle class="st3" cx="353.9" cy="136.3" r=".5"/><circle class="st3" cx="355.9" cy="136.3" r=".5"/><circle class="st3" cx="349.9" cy="134.3" r=".5"/><circle class="st3" cx="351.9" cy="134.3" r=".5"/><circle class="st3" cx="353.9" cy="134.3" r=".5"/><circle class="st3" cx="355.9" cy="134.3" r=".5"/><circle class="st3" cx="349.9" cy="132.3" r=".5"/><circle class="st3" cx="351.9" cy="132.3" r=".5"/><circle class="st3" cx="353.9" cy="132.3" r=".5"/><circle class="st3" cx="355.9" cy="132.3" r=".5"/><circle class="st3" cx="349.9" cy="130.3" r=".5"/><circle class="st3" cx="351.9" cy="130.3" r=".5"/><circle class="st3" cx="353.9" cy="130.3" r=".5"/><circle class="st3" cx="355.9" cy="130.3" r=".5"/><circle class="st3" cx="349.9" cy="128.3" r=".5"/><circle class="st3" cx="351.9" cy="128.3" r=".5"/><circle class="st3" cx="353.9" cy="128.3" r=".5"/><circle class="st3" cx="355.9" cy="128.3" r=".5"/><circle class="st3" cx="349.9" cy="126.3" r=".5"/><circle class="st3" cx="351.9" cy="126.3" r=".5"/><circle class="st3" cx="353.9" cy="126.3" r=".5"/><circle class="st3" cx="355.9" cy="126.3" r=".5"/><circle class="st3" cx="349.9" cy="124.3" r=".5"/><circle class="st3" cx="351.9" cy="124.3" r=".5"/><circle class="st3" cx="353.9" cy="124.3" r=".5"/><circle class="st3" cx="355.9" cy="124.3" r=".5"/><circle class="st3" cx="349.9" cy="122.3" r=".5"/><circle class="st3" cx="351.9" cy="122.3" r=".5"/><circle class="st3" cx="353.9" cy="122.3" r=".5"/><circle class="st3" cx="355.9" cy="122.3" r=".5"/><circle class="st3" cx="349.9" cy="120.3" r=".5"/><circle class="st3" cx="351.9" cy="120.3" r=".5"/><circle class="st3" cx="353.9" cy="120.3" r=".5"/><circle class="st3" cx="355.9" cy="120.3" r=".5"/><circle class="st3" cx="349.9" cy="118.2" r=".5"/><circle class="st3" cx="351.9" cy="118.2" r=".5"/><circle class="st3" cx="353.9" cy="118.2" r=".5"/><circle class="st3" cx="355.9" cy="118.2" r=".5"/><circle class="st3" cx="349.9" cy="116.2" r=".5"/><circle class="st3" cx="351.9" cy="116.2" r=".5"/><circle class="st3" cx="353.9" cy="116.2" r=".5"/><circle class="st3" cx="355.9" cy="116.2" r=".5"/><circle class="st3" cx="349.9" cy="114.2" r=".5"/><circle class="st3" cx="351.9" cy="114.2" r=".5"/><circle class="st3" cx="353.9" cy="114.2" r=".5"/><circle class="st3" cx="355.9" cy="114.2" r=".5"/><circle class="st3" cx="349.9" cy="112.2" r=".5"/><circle class="st3" cx="351.9" cy="112.2" r=".5"/><circle class="st3" cx="353.9" cy="112.2" r=".5"/><circle class="st3" cx="355.9" cy="112.2" r=".5"/><circle class="st3" cx="349.9" cy="110.2" r=".5"/><circle class="st3" cx="351.9" cy="110.2" r=".5"/><circle class="st3" cx="353.9" cy="110.2" r=".5"/><circle class="st3" cx="355.9" cy="110.2" r=".5"/><circle class="st3" cx="349.9" cy="108.2" r=".5"/><circle class="st3" cx="351.9" cy="108.2" r=".5"/><circle class="st3" cx="353.9" cy="108.2" r=".5"/><circle class="st3" cx="355.9" cy="108.2" r=".5"/><circle class="st3" cx="349.9" cy="106.2" r=".5"/><circle class="st3" cx="351.9" cy="106.2" r=".5"/><circle class="st3" cx="353.9" cy="106.2" r=".5"/><circle class="st3" cx="355.9" cy="106.2" r=".5"/><circle class="st3" cx="349.9" cy="104.2" r=".5"/><circle class="st3" cx="351.9" cy="104.2" r=".5"/><circle class="st3" cx="353.9" cy="104.2" r=".5"/><circle class="st3" cx="355.9" cy="104.2" r=".5"/><circle class="st3" cx="349.9" cy="102.2" r=".5"/><circle class="st3" cx="351.9" cy="102.2" r=".5"/><circle class="st3" cx="353.9" cy="102.2" r=".5"/><circle class="st3" cx="355.9" cy="102.2" r=".5"/><circle class="st3" cx="349.9" cy="100.2" r=".5"/><circle class="st3" cx="351.9" cy="100.2" r=".5"/><circle class="st3" cx="353.9" cy="100.2" r=".5"/><circle class="st3" cx="355.9" cy="100.2" r=".5"/><circle class="st3" cx="349.9" cy="98.2" r=".5"/><circle class="st3" cx="351.9" cy="98.2" r=".5"/><circle class="st3" cx="353.9" cy="98.2" r=".5"/><circle class="st3" cx="355.9" cy="98.2" r=".5"/><circle class="st3" cx="349.9" cy="96.2" r=".5"/><circle class="st3" cx="351.9" cy="96.2" r=".5"/><circle class="st3" cx="353.9" cy="96.2" r=".5"/><circle class="st3" cx="355.9" cy="96.2" r=".5"/><circle class="st3" cx="349.9" cy="94.1" r=".5"/><circle class="st3" cx="351.9" cy="94.1" r=".5"/><circle class="st3" cx="353.9" cy="94.1" r=".5"/><circle class="st3" cx="355.9" cy="94.1" r=".5"/><circle class="st3" cx="349.9" cy="92.1" r=".5"/><circle class="st3" cx="351.9" cy="92.1" r=".5"/><circle class="st3" cx="353.9" cy="92.1" r=".5"/><circle class="st3" cx="355.9" cy="92.1" r=".5"/><circle class="st3" cx="349.9" cy="90.1" r=".5"/><circle class="st3" cx="351.9" cy="90.1" r=".5"/><circle class="st3" cx="353.9" cy="90.1" r=".5"/><circle class="st3" cx="355.9" cy="90.1" r=".5"/><circle class="st3" cx="349.9" cy="88.1" r=".5"/><circle class="st3" cx="351.9" cy="88.1" r=".5"/><circle class="st3" cx="353.9" cy="88.1" r=".5"/><circle class="st3" cx="355.9" cy="88.1" r=".5"/><circle class="st3" cx="349.9" cy="86.1" r=".5"/><circle class="st3" cx="351.9" cy="86.1" r=".5"/><circle class="st3" cx="353.9" cy="86.1" r=".5"/><circle class="st3" cx="355.9" cy="86.1" r=".5"/><circle class="st3" cx="349.9" cy="84.1" r=".5"/><circle class="st3" cx="351.9" cy="84.1" r=".5"/><circle class="st3" cx="353.9" cy="84.1" r=".5"/><circle class="st3" cx="355.9" cy="84.1" r=".5"/><circle class="st3" cx="349.9" cy="82.1" r=".5"/><circle class="st3" cx="351.9" cy="82.1" r=".5"/><circle class="st3" cx="353.9" cy="82.1" r=".5"/><circle class="st3" cx="355.9" cy="82.1" r=".5"/><circle class="st3" cx="349.9" cy="80.1" r=".5"/><circle class="st3" cx="351.9" cy="80.1" r=".5"/><circle class="st3" cx="353.9" cy="80.1" r=".5"/><circle class="st3" cx="355.9" cy="80.1" r=".5"/><circle class="st3" cx="349.9" cy="78.1" r=".5"/><circle class="st3" cx="351.9" cy="78.1" r=".5"/><circle class="st3" cx="353.9" cy="78.1" r=".5"/><circle class="st3" cx="355.9" cy="78.1" r=".5"/><circle class="st3" cx="349.9" cy="76.1" r=".5"/><circle class="st3" cx="351.9" cy="76.1" r=".5"/><circle class="st3" cx="353.9" cy="76.1" r=".5"/><circle class="st3" cx="355.9" cy="76.1" r=".5"/><circle class="st3" cx="349.9" cy="74.1" r=".5"/><circle class="st3" cx="351.9" cy="74.1" r=".5"/><circle class="st3" cx="353.9" cy="74.1" r=".5"/><circle class="st3" cx="355.9" cy="74.1" r=".5"/><circle class="st3" cx="349.9" cy="72.1" r=".5"/><circle class="st3" cx="351.9" cy="72.1" r=".5"/><circle class="st3" cx="353.9" cy="72.1" r=".5"/><circle class="st3" cx="355.9" cy="72.1" r=".5"/><circle class="st3" cx="349.9" cy="70" r=".5"/><circle class="st3" cx="351.9" cy="70" r=".5"/><circle class="st3" cx="353.9" cy="70" r=".5"/><circle class="st3" cx="355.9" cy="70" r=".5"/><circle class="st3" cx="349.9" cy="68" r=".5"/><circle class="st3" cx="351.9" cy="68" r=".5"/><circle class="st3" cx="353.9" cy="68" r=".5"/><circle class="st3" cx="355.9" cy="68" r=".5"/><circle class="st3" cx="349.9" cy="66" r=".5"/><circle class="st3" cx="351.9" cy="66" r=".5"/><circle class="st3" cx="353.9" cy="66" r=".5"/><circle class="st3" cx="355.9" cy="66" r=".5"/><circle class="st3" cx="349.9" cy="64" r=".5"/><circle class="st3" cx="351.9" cy="64" r=".5"/><circle class="st3" cx="353.9" cy="64" r=".5"/><circle class="st3" cx="355.9" cy="64" r=".5"/><circle class="st3" cx="349.9" cy="62" r=".5"/><circle class="st3" cx="351.9" cy="62" r=".5"/><circle class="st3" cx="353.9" cy="62" r=".5"/><circle class="st3" cx="355.9" cy="62" r=".5"/><circle class="st3" cx="349.9" cy="60" r=".5"/><circle class="st3" cx="351.9" cy="60" r=".5"/><circle class="st3" cx="353.9" cy="60" r=".5"/><circle class="st3" cx="355.9" cy="60" r=".5"/><circle class="st3" cx="349.9" cy="58" r=".5"/><circle class="st3" cx="351.9" cy="58" r=".5"/><circle class="st3" cx="353.9" cy="58" r=".5"/><circle class="st3" cx="355.9" cy="58" r=".5"/><circle class="st3" cx="349.9" cy="56" r=".5"/><circle class="st3" cx="351.9" cy="56" r=".5"/><circle class="st3" cx="353.9" cy="56" r=".5"/><circle class="st3" cx="355.9" cy="56" r=".5"/><circle class="st3" cx="349.9" cy="54" r=".5"/><circle class="st3" cx="351.9" cy="54" r=".5"/><circle class="st3" cx="353.9" cy="54" r=".5"/><circle class="st3" cx="355.9" cy="54" r=".5"/><circle class="st3" cx="349.9" cy="52" r=".5"/><circle class="st3" cx="351.9" cy="52" r=".5"/><circle class="st3" cx="353.9" cy="52" r=".5"/><circle class="st3" cx="355.9" cy="52" r=".5"/><circle class="st3" cx="349.9" cy="50" r=".5"/><circle class="st3" cx="351.9" cy="50" r=".5"/><circle class="st3" cx="353.9" cy="50" r=".5"/><circle class="st3" cx="355.9" cy="50" r=".5"/><circle class="st3" cx="349.9" cy="48" r=".5"/><circle class="st3" cx="351.9" cy="48" r=".5"/><circle class="st3" cx="353.9" cy="48" r=".5"/><circle class="st3" cx="355.9" cy="48" r=".5"/><circle class="st3" cx="349.9" cy="45.9" r=".5"/><circle class="st3" cx="351.9" cy="45.9" r=".5"/><circle class="st3" cx="353.9" cy="45.9" r=".5"/><circle class="st3" cx="355.9" cy="45.9" r=".5"/><circle class="st3" cx="349.9" cy="43.9" r=".5"/><circle class="st3" cx="351.9" cy="43.9" r=".5"/><circle class="st3" cx="353.9" cy="43.9" r=".5"/><circle class="st3" cx="355.9" cy="43.9" r=".5"/><path d="M342.9 8.7v162.6c0 .7-.6 1.3-1.3 1.3h-301.5c-.7 0-1.3-.6-1.3-1.3v-162.6c0-.7.6-1.3 1.3-1.3h301.5c.8.1 1.3.6 1.3 1.3z"/><path class="st1" d="M329.3 86.4v7.1h1.3v-2.9h4.6v-1.3h-4.6v-2.9zm0-8.3v4.5c0 1.8 1 2.7 3 2.7 1.7 0 3-.6 3-2.8v-4.4h-1.3v4.3c0 1-.2 1.6-1.7 1.6-1.6 0-1.8-.9-1.8-1.5v-4.5h-1.2zm0 19.4v2c0 .3.1.9.4 1.1h-2.3v1.2h7.9v-1.2h-3.4c-.6 0-1.4-.4-1.4-1.3v-1.9c0-.8.4-1.4 1.4-1.4h3.4v-1.2h-3.5c-1.3 0-2.5.8-2.5 2.7z" id="htc_2_"/><path class="st5" d="M46 12h276v156h-276z"/></svg>