<svg xmlns="http://www.w3.org/2000/svg" viewBox="0 0 605.04 114.75"><defs><style>.cls-1{fill:#231f20;}</style></defs><title>logo_horizontal</title><g id="Layer_2" data-name="Layer 2"><g id="Layer_1-2" data-name="Layer 1"><path class="cls-1" d="M20.15,72,7.25,107.55c-.15.6-.45.75-.9.75H.65c-.6,0-.75-.3-.6-.9l34.5-94a11.94,11.94,0,0,0,.75-4.2.65.65,0,0,1,.6-.6h8.7c.6,0,.75.15.9.6L81.35,107.4c.15.6,0,.9-.6.9H74.6a.82.82,0,0,1-.9-.6L60.65,72Zm38.4-6.75c-3.45-9.75-15.15-41.4-18-51.15H40.4c-2.7,9.45-10.95,31.65-18,51.15Z"/><path class="cls-1" d="M89.9,72.9c0-22.2,16.8-37.8,39.3-37.8a50.26,50.26,0,0,1,12.3,1.2V.75c0-.6.15-.75.75-.75H148c.75,0,.75.15.75.75V99c0,1.2,0,2.55.15,4.65,0,.45-.15.6-.6.9a48.09,48.09,0,0,1-22.5,5.25C105.65,109.8,89.9,97.2,89.9,72.9Zm51.6-29.25c-3-1.5-7.5-2.1-12.6-2.1-20.7,0-31.65,14.4-31.65,30.9,0,22.5,14.7,30.75,29.1,30.75,4.8,0,10.95-.6,15.15-2.55Z"/><path class="cls-1" d="M231.2,72.45c0,22.2-13.2,37.35-32.4,37.35-23.1,0-33-19.65-33-37.35,0-21.3,13.35-37.35,32.85-37.35S231.2,49.95,231.2,72.45Zm-58.2-.3c0,16.5,9.3,31,26.25,31,11.7,0,24.75-9,24.75-30.6,0-15.45-7.35-31-25.8-31C183.2,41.55,173,54.15,173,72.15Z"/><path class="cls-1" d="M254.9,0c.45,0,.75,0,.75.6V38.85A44.49,44.49,0,0,1,274.1,35.1c19.95,0,33.15,14.25,33.15,34.65,0,26.25-19.35,40-39.45,40a55.66,55.66,0,0,1-18.6-2.85,1.19,1.19,0,0,1-.75-1.2V.6c0-.45.3-.6.9-.6Zm18.45,41.55c-7.65,0-12.9,1.35-17.7,3.6V101.7a42.07,42.07,0,0,0,12.6,1.65c16.5,0,31.8-11.25,31.8-33.15C300,53.7,290.15,41.55,273.35,41.55Z"/><path class="cls-1" d="M327.2,71.25C326.45,89.4,336,103,354.65,103c6.45,0,12.9-1,18.75-4.2.45-.3.75-.15.75.45v4.95c0,.6-.15.9-.6,1-4.5,2.55-11.1,4.5-19.95,4.5C329.15,109.8,320,91,320,72.9c0-21.15,12.15-37.8,31.2-37.8,20.7,0,27.75,17.1,27.75,28.5a27.93,27.93,0,0,1-.45,6.3,1,1,0,0,1-1,.9c-2.25.3-9.6.45-15.45.45Zm33.45-5.85c9.15,0,10.65-.15,11.1-.3a8.53,8.53,0,0,0,.15-1.95c0-6.6-3.9-21.75-20.85-21.75-14.4,0-21.9,11.55-23.55,24Z"/><path class="cls-1" d="M448.09,106.95c0,1.05-.3,1.35-1.2,1.35H431.15c-.9,0-1.2-.45-1.2-1.35v-96c0-1,.45-1.2,1.2-1.2h15.75c.9,0,1.2.3,1.2,1.2Z"/><path class="cls-1" d="M479,114c-.15.6-.45.75-1,.75H465.49c-.75,0-.9-.3-.75-.9L494.29,3.9c.15-.6.3-.6.9-.6h12.6c.6,0,.75.15.6.75Z"/><path class="cls-1" d="M605,58.5c.15,31-19,51.3-46.35,51.3-29.1,0-46.5-21.6-46.5-50.85,0-28.8,18.9-50.7,46.5-50.7C588.09,8.25,604.89,30.75,605,58.5ZM559.29,93.75c16.95,0,27.15-13.95,27-34.8S575.94,24.3,558.39,24.3c-15.9,0-27.45,12.45-27.45,34.65C530.94,78.3,540.84,93.75,559.29,93.75Z"/></g></g></svg>