<?xml version="1.0" encoding="utf-8"?>
<!-- Generator: Adobe Illustrator 19.1.0, SVG Export Plug-In . SVG Version: 6.00 Build 0)  -->
<!DOCTYPE svg PUBLIC "-//W3C//DTD SVG 1.1//EN" "http://www.w3.org/Graphics/SVG/1.1/DTD/svg11.dtd">
<svg version="1.1" id="Layer_1" xmlns="http://www.w3.org/2000/svg" xmlns:xlink="http://www.w3.org/1999/xlink" x="0px" y="0px"
	 viewBox="-376 341 527 120" style="enable-background:new -376 341 527 120;" xml:space="preserve">
<style type="text/css">
	.st0{fill:#808080;}
	.st1{fill:#BFBFBF;}
	.st2{fill:#999999;}
</style>
<path class="st0" d="M-154.5,396.1c-0.7,1.1-1.5,2.1-2.4,3.1s-2,1.8-3.2,2.5c-1.2,0.7-2.6,1.3-4.3,1.7c-1.6,0.4-3.5,0.6-5.7,0.6
	c-6.3,0-11-1.8-14-5.4s-4.6-8.9-4.6-16.1s1.5-12.6,4.6-16.1c3.1-3.6,7.6-5.3,13.7-5.3c2.1,0,3.9,0.2,5.5,0.6s3,0.9,4.3,1.6
	c1.2,0.7,2.3,1.5,3.2,2.4s1.6,1.9,2.3,3l-5.5,4c-0.4-0.7-0.9-1.3-1.4-2c-0.5-0.7-1.2-1.2-1.9-1.7s-1.6-0.9-2.6-1.2s-2.2-0.5-3.6-0.5
	c-3.9,0-6.7,1.3-8.5,3.8c-1.8,2.6-2.7,6.4-2.7,11.5c0,2.7,0.2,5,0.7,7c0.5,1.9,1.2,3.5,2.2,4.8c1,1.2,2.1,2.1,3.5,2.7
	c1.4,0.6,3,0.9,4.9,0.9c1.4,0,2.6-0.1,3.6-0.4c1-0.3,1.9-0.7,2.7-1.2s1.5-1.1,2.1-1.8c0.6-0.7,1.2-1.4,1.7-2.2L-154.5,396.1z"/>
<path class="st0" d="M-125.5,403.1l-10.5-16.2h-5.7v16.2h-6.9v-41.2h13.9c2.5,0,4.6,0.2,6.5,0.6s3.4,1.1,4.6,2.1
	c1.2,0.9,2.2,2.2,2.8,3.7s0.9,3.4,0.9,5.6c0,1.9-0.2,3.6-0.6,5c-0.4,1.4-1,2.6-1.8,3.6s-1.7,1.7-2.7,2.3c-1.1,0.6-2.2,1-3.4,1.2
	l11.1,17.1H-125.5z M-127.1,374.2c0-1.2-0.1-2.2-0.4-3c-0.3-0.8-0.8-1.4-1.4-1.9c-0.6-0.5-1.4-0.8-2.4-1c-1-0.2-2.1-0.3-3.5-0.3
	h-6.9v12.8h6.5c1.6,0,2.9-0.1,3.9-0.3s1.9-0.6,2.5-1.1s1.1-1.2,1.3-2C-127.2,376.4-127.1,375.4-127.1,374.2z"/>
<path class="st0" d="M-79.9,382.5c0,3.4-0.3,6.4-1,9c-0.6,2.7-1.7,4.9-3.1,6.7c-1.4,1.8-3.2,3.3-5.4,4.2c-2.2,1-4.8,1.5-7.9,1.5
	s-5.7-0.5-7.8-1.5c-2.2-1-4-2.4-5.4-4.2c-1.4-1.8-2.4-4.1-3.1-6.7c-0.7-2.7-1-5.7-1-9c0-3.4,0.3-6.4,1-9.1c0.7-2.7,1.7-4.9,3.1-6.7
	c1.4-1.8,3.2-3.2,5.4-4.2c2.2-1,4.8-1.5,7.8-1.5c3.1,0,5.7,0.5,7.9,1.4c2.2,1,4,2.4,5.4,4.2c1.4,1.8,2.4,4.1,3.1,6.7
	C-80.2,376.1-79.9,379.1-79.9,382.5z M-87.1,382.5c0-2.6-0.2-4.8-0.5-6.7c-0.4-1.9-0.9-3.5-1.7-4.8c-0.8-1.3-1.8-2.2-3.1-2.9
	c-1.3-0.6-2.8-1-4.6-1c-1.8,0-3.4,0.3-4.7,1c-1.3,0.6-2.3,1.6-3.1,2.9c-0.8,1.3-1.4,2.9-1.7,4.8c-0.4,1.9-0.5,4.2-0.5,6.7
	s0.2,4.8,0.5,6.7c0.4,1.9,0.9,3.5,1.7,4.8c0.8,1.3,1.8,2.2,3.1,2.9c1.3,0.6,2.8,1,4.7,1c1.8,0,3.4-0.3,4.6-0.9
	c1.3-0.6,2.3-1.6,3.1-2.8c0.8-1.3,1.4-2.9,1.7-4.8C-87.3,387.3-87.1,385.1-87.1,382.5z"/>
<path class="st0" d="M-44.4,391.5c0,2.3-0.4,4.3-1.2,5.9c-0.8,1.6-1.9,2.9-3.4,3.8c-1.4,1-3.1,1.7-4.9,2.1c-1.9,0.4-3.9,0.6-6,0.6
	c-2.2,0-4.2-0.2-5.8-0.6c-1.6-0.4-3.1-1-4.4-1.7c-1.3-0.7-2.3-1.5-3.2-2.5c-0.9-1-1.7-2-2.3-3.1l5.5-4c0.5,0.8,1,1.5,1.7,2.2
	c0.6,0.7,1.3,1.3,2.1,1.8c0.8,0.5,1.7,0.9,2.8,1.2c1.1,0.3,2.3,0.5,3.7,0.5c1.1,0,2.1-0.1,3.1-0.3c1-0.2,1.9-0.5,2.7-1
	c0.8-0.5,1.4-1.1,1.9-1.8c0.5-0.7,0.7-1.6,0.7-2.7c0-1-0.2-1.9-0.7-2.6c-0.4-0.7-1-1.3-1.8-1.8s-1.6-0.9-2.7-1.2
	c-1-0.3-2.1-0.6-3.2-0.9c-2.1-0.5-4.1-1.1-5.9-1.7c-1.8-0.6-3.4-1.3-4.7-2.2c-1.3-0.9-2.4-2-3.1-3.3c-0.8-1.4-1.1-3.1-1.1-5.2
	c0-1.9,0.3-3.5,1-5c0.6-1.5,1.6-2.8,2.8-3.8c1.2-1.1,2.8-1.9,4.6-2.4c1.8-0.6,3.9-0.8,6.3-0.8c1.8,0,3.4,0.2,4.9,0.5s2.8,0.8,4,1.4
	s2.3,1.4,3.2,2.3c1,0.9,1.8,2,2.5,3.1l-5.4,4c-1.1-1.7-2.4-3.1-3.9-3.9c-1.5-0.9-3.3-1.3-5.5-1.3c-2.3,0-4.2,0.5-5.5,1.4
	c-1.4,1-2,2.3-2,4.1c0,0.9,0.2,1.6,0.6,2.2c0.4,0.6,0.9,1.1,1.7,1.5c0.8,0.4,1.7,0.8,2.9,1.2c1.2,0.3,2.5,0.7,4.1,1.1
	c1.2,0.3,2.4,0.6,3.6,1c1.2,0.3,2.3,0.7,3.3,1.2c1,0.4,2,1,2.9,1.6s1.6,1.3,2.2,2.2s1.1,1.9,1.5,3C-44.6,388.7-44.4,390-44.4,391.5z
	"/>
<path class="st0" d="M-8.4,391.5c0,2.3-0.4,4.3-1.2,5.9c-0.8,1.6-1.9,2.9-3.4,3.8c-1.4,1-3.1,1.7-4.9,2.1c-1.9,0.4-3.9,0.6-6,0.6
	c-2.2,0-4.2-0.2-5.8-0.6c-1.6-0.4-3.1-1-4.4-1.7c-1.3-0.7-2.3-1.5-3.2-2.5c-0.9-1-1.7-2-2.3-3.1l5.5-4c0.5,0.8,1,1.5,1.7,2.2
	c0.6,0.7,1.3,1.3,2.1,1.8c0.8,0.5,1.7,0.9,2.8,1.2c1.1,0.3,2.3,0.5,3.7,0.5c1.1,0,2.1-0.1,3.1-0.3c1-0.2,1.9-0.5,2.7-1
	c0.8-0.5,1.4-1.1,1.9-1.8c0.5-0.7,0.7-1.6,0.7-2.7c0-1-0.2-1.9-0.7-2.6c-0.4-0.7-1-1.3-1.8-1.8s-1.6-0.9-2.7-1.2
	c-1-0.3-2.1-0.6-3.2-0.9c-2.1-0.5-4.1-1.1-5.9-1.7c-1.8-0.6-3.4-1.3-4.7-2.2c-1.3-0.9-2.4-2-3.1-3.3c-0.8-1.4-1.1-3.1-1.1-5.2
	c0-1.9,0.3-3.5,1-5c0.6-1.5,1.6-2.8,2.8-3.8c1.2-1.1,2.8-1.9,4.6-2.4c1.8-0.6,3.9-0.8,6.3-0.8c1.8,0,3.4,0.2,4.9,0.5s2.8,0.8,4,1.4
	s2.3,1.4,3.2,2.3c1,0.9,1.8,2,2.5,3.1l-5.4,4c-1.1-1.7-2.4-3.1-3.9-3.9c-1.5-0.9-3.3-1.3-5.5-1.3c-2.3,0-4.2,0.5-5.5,1.4
	c-1.4,1-2,2.3-2,4.1c0,0.9,0.2,1.6,0.6,2.2c0.4,0.6,0.9,1.1,1.7,1.5c0.8,0.4,1.7,0.8,2.9,1.2c1.2,0.3,2.5,0.7,4.1,1.1
	c1.2,0.3,2.4,0.6,3.6,1c1.2,0.3,2.3,0.7,3.3,1.2c1,0.4,2,1,2.9,1.6s1.6,1.3,2.2,2.2s1.1,1.9,1.5,3C-8.6,388.7-8.4,390-8.4,391.5z"/>
<path class="st0" d="M34.9,403.1h-7.6L20,372.9L12.6,403H5.1L-5,361.9h6.9L9,392l7.3-30.1h7.3l7.4,30.3l7.2-30.3h6.9L34.9,403.1z"/>
<path class="st0" d="M44.3,403.1l13.8-41.2h9L81,403.1h-7.2l-3.2-9.5H54.2l-3.1,9.5H44.3z M56.4,387.4h12.3l-6.1-18.6L56.4,387.4z"
	/>
<path class="st0" d="M86.5,403.1v-41.2h6.9v34.9h18v6.3C111.4,403.1,86.5,403.1,86.5,403.1z"/>
<path class="st0" d="M139.7,403.1l-12.8-17.8l-3.2,3.7v14.1h-6.9v-41.2h6.9V380l15.5-18.2h8.3l-16.1,18.3l17.1,22.9h-8.8V403.1z"/>
<path class="st0" d="M-167.1,420.5c0,1.6-0.2,3-0.6,4.2c-0.4,1.2-1,2.2-1.7,2.9c-0.8,0.8-1.8,1.3-3,1.7s-2.7,0.6-4.4,0.6h-4.4v8.8
	h-4.6v-27h9.1c1.5,0,2.9,0.2,4.1,0.5c1.2,0.3,2.2,0.8,3,1.5c0.8,0.7,1.4,1.6,1.9,2.7C-167.3,417.5-167.1,418.9-167.1,420.5z
	 M-171.8,420.5c0-1-0.1-1.8-0.4-2.4c-0.3-0.6-0.7-1.1-1.2-1.5s-1.1-0.6-1.9-0.8c-0.7-0.1-1.6-0.2-2.6-0.2h-3.4v10.2h2.9
	c1.1,0,2.1-0.1,3-0.2c0.8-0.1,1.5-0.4,2-0.7c0.5-0.3,0.9-0.9,1.2-1.6C-172,422.6-171.8,421.7-171.8,420.5z"/>
<path class="st0" d="M-147.7,438.6l-6.9-10.6h-3.8v10.6h-4.6v-27h9.1c1.6,0,3,0.1,4.2,0.4s2.2,0.7,3,1.3c0.8,0.6,1.4,1.4,1.8,2.4
	c0.4,1,0.6,2.2,0.6,3.6c0,1.3-0.1,2.4-0.4,3.3c-0.3,0.9-0.7,1.7-1.2,2.3c-0.5,0.6-1.1,1.1-1.8,1.5c-0.7,0.4-1.4,0.6-2.2,0.8
	l7.3,11.2h-5.1V438.6z M-148.7,419.7c0-0.8-0.1-1.5-0.3-2s-0.5-0.9-0.9-1.2s-0.9-0.5-1.6-0.7c-0.6-0.1-1.4-0.2-2.3-0.2h-4.5v8.4h4.3
	c1,0,1.9-0.1,2.6-0.2c0.7-0.1,1.2-0.4,1.6-0.7c0.4-0.3,0.7-0.8,0.9-1.3C-148.8,421.2-148.7,420.5-148.7,419.7z"/>
<path class="st0" d="M-117.5,425.1c0,2.2-0.2,4.2-0.6,5.9s-1.1,3.2-2,4.4c-0.9,1.2-2.1,2.1-3.5,2.8c-1.4,0.6-3.2,1-5.2,1
	s-3.7-0.3-5.1-1c-1.4-0.7-2.6-1.6-3.5-2.8c-0.9-1.2-1.6-2.7-2-4.4s-0.6-3.7-0.6-5.9c0-2.2,0.2-4.2,0.6-5.9c0.4-1.7,1.1-3.2,2-4.4
	c0.9-1.2,2.1-2.1,3.5-2.8c1.4-0.6,3.1-1,5.1-1s3.7,0.3,5.2,0.9c1.4,0.6,2.6,1.5,3.5,2.8c0.9,1.2,1.6,2.7,2,4.4
	C-117.7,420.9-117.5,422.9-117.5,425.1z M-122.3,425.1c0-1.7-0.1-3.1-0.4-4.4c-0.2-1.3-0.6-2.3-1.1-3.1c-0.5-0.8-1.2-1.5-2-1.9
	c-0.8-0.4-1.8-0.6-3-0.6s-2.2,0.2-3.1,0.6c-0.8,0.4-1.5,1-2,1.9c-0.5,0.8-0.9,1.9-1.1,3.1c-0.2,1.3-0.4,2.7-0.4,4.4
	c0,1.7,0.1,3.1,0.4,4.4c0.2,1.3,0.6,2.3,1.1,3.1c0.5,0.8,1.2,1.5,2.1,1.9c0.8,0.4,1.9,0.6,3.1,0.6c1.2,0,2.2-0.2,3-0.6s1.5-1,2-1.9
	c0.5-0.8,0.9-1.9,1.1-3.1C-122.4,428.3-122.3,426.8-122.3,425.1z"/>
<path class="st0" d="M-102.3,431.3c0,1.4-0.2,2.6-0.5,3.6s-0.8,1.8-1.5,2.5c-0.7,0.7-1.5,1.1-2.6,1.5c-1,0.3-2.3,0.5-3.7,0.5
	c-0.4,0-0.8,0-1.2-0.1c-0.5,0-0.9-0.1-1.4-0.2s-1-0.2-1.5-0.3c-0.5-0.1-0.9-0.3-1.3-0.4l1.5-4c0.2,0.1,0.5,0.2,0.8,0.3
	c0.3,0.1,0.7,0.2,1,0.3c0.4,0.1,0.7,0.2,1.1,0.2c0.4,0.1,0.7,0.1,1,0.1c0.7,0,1.4-0.1,1.8-0.3c0.5-0.2,0.9-0.5,1.1-0.9
	c0.3-0.4,0.5-1,0.6-1.7c0.1-0.7,0.2-1.6,0.2-2.6v-18.2h4.6V431.3z"/>
<path class="st0" d="M-96.3,438.6v-27h17v4.1h-12.5v6.9h10.6v4.1h-10.6v7.9h12.5v4.2h-17V438.6z"/>
<path class="st0" d="M-53.7,434c-0.5,0.7-1,1.4-1.6,2s-1.3,1.2-2.1,1.6c-0.8,0.5-1.7,0.8-2.8,1.1c-1.1,0.3-2.3,0.4-3.7,0.4
	c-4.1,0-7.2-1.2-9.2-3.5c-2-2.3-3-5.9-3-10.6s1-8.3,3-10.6c2-2.3,5-3.5,9-3.5c1.4,0,2.6,0.1,3.6,0.4c1,0.3,2,0.6,2.8,1
	c0.8,0.4,1.5,1,2.1,1.6s1.1,1.3,1.5,2l-3.6,2.6c-0.3-0.4-0.6-0.9-0.9-1.3c-0.3-0.4-0.8-0.8-1.2-1.1c-0.4-0.3-1.1-0.6-1.7-0.8
	c-0.7-0.2-1.5-0.3-2.4-0.3c-2.5,0-4.4,0.8-5.6,2.5c-1.2,1.7-1.8,4.2-1.8,7.5c0,1.8,0.2,3.3,0.5,4.6c0.3,1.3,0.8,2.3,1.4,3.1
	c0.6,0.8,1.4,1.4,2.3,1.8c0.9,0.4,2,0.6,3.2,0.6c0.9,0,1.7-0.1,2.4-0.3c0.7-0.2,1.3-0.5,1.8-0.8c0.5-0.3,1-0.7,1.4-1.2
	s0.8-0.9,1.1-1.4L-53.7,434z"/>
<path class="st0" d="M-37.9,415.8v22.9h-4.6v-22.9h-8.6v-4.2h21.8v4.2H-37.9z"/>
<polygon class="st1" points="-262.5,361 -290.9,399.3 -262.4,437.7 -206,361 "/>
<polygon class="st2" points="-319.3,361 -376,361 -319.2,437.7 -290.9,399.3 "/>
<polygon class="st0" points="-319.3,361 -262.5,361 -290.9,399.3 "/>
<polygon class="st2" points="-262.5,361 -282.8,410.2 -290.9,399.3 "/>
</svg>
