<?xml version="1.0" encoding="utf-8"?>
<!-- Generator: Adobe Illustrator 19.1.0, SVG Export Plug-In . SVG Version: 6.00 Build 0)  -->
<!DOCTYPE svg PUBLIC "-//W3C//DTD SVG 1.1//EN" "http://www.w3.org/Graphics/SVG/1.1/DTD/svg11.dtd">
<svg version="1.1" id="Layer_1" xmlns="http://www.w3.org/2000/svg" xmlns:xlink="http://www.w3.org/1999/xlink" x="0px" y="0px"
	 viewBox="-383 312.2 512 177.8" style="enable-background:new -383 312.2 512 177.8;" xml:space="preserve">
<style type="text/css">
	.st0{fill:#808080;}
</style>
<g>
	<path class="st0" d="M-155.2,378.2h3.7v69.6h-3.7V378.2z M-99.3,376.5c-20.9,0-36.6,15.8-36.6,36.5c0,20.9,15.8,36.5,36.6,36.5
		c20.9,0,36.6-15.6,36.6-36.5C-62.6,392.2-78.4,376.5-99.3,376.5z M-99.3,446.1c-18.8,0-33-14.2-33-33.1c0-18.9,14.2-33.1,33-33.1
		c18.8,0,33,14.2,33,33.1C-66.3,431.9-80.5,446.1-99.3,446.1z M6.8,383.4c-7.9-6.4-17.3-7-22.2-7c-11,0-23.2,5.1-27.6,15.1h-0.3
		v-13.4h-3.7v69.6h3.7v-40.1c0-17.5,10.8-27.8,28.2-27.8c10.5,0,16.1,3.4,19.7,6.6c5.3,4.7,8.5,12.5,8.5,24.6v36.8h3.7V411
		C16.9,398.5,13.7,389.2,6.8,383.4L6.8,383.4z M37.3,378.2H41v69.6h-3.7V378.2z M93.2,446.1c-17.7,0-33-13.4-33-33.1
		c0-9.5,3.9-18.6,9.6-23.8c7.2-6.4,13.7-9.3,23.5-9.3c13.7,0,25.7,7.6,30.5,20.9h4.1c-5.5-16.4-20.5-24.3-34.7-24.3
		c-21.1,0-36.6,16-36.6,36.6c0,21.7,16.4,36.4,36.6,36.4c16.5,0,29.7-9.5,34.5-23.6h-4.1C120.3,436.2,109,446.1,93.2,446.1
		L93.2,446.1z"/>
	<circle class="st0" cx="-153.4" cy="356.6" r="4"/>
	<circle class="st0" cx="39.1" cy="356.6" r="4"/>
	<circle class="st0" cx="-293" cy="401.1" r="36.3"/>
	<path class="st0" d="M-218.9,339.5c0-6.9-5.6-12.5-12.5-12.5c-3.1,0-6,1.2-8.2,3.1c-14.9-11.2-33.4-17.9-53.4-17.9
		c-49,0-88.9,39.9-88.9,88.9c0,49,39.9,88.9,88.9,88.9s88.9-39.9,88.9-88.9c0-20-6.7-38.5-17.9-53.4
		C-220,345.5-218.9,342.6-218.9,339.5L-218.9,339.5z M-293,487c-47.4,0-85.9-38.5-85.9-85.9s38.5-85.9,85.9-85.9
		c19.3,0,37.1,6.4,51.4,17.1c-1.4,2-2.3,4.5-2.3,7.2c0,6.9,5.6,12.5,12.5,12.5c2.7,0,5.2-0.9,7.2-2.3c10.7,14.3,17.1,32.2,17.1,51.4
		C-207,448.5-245.6,487-293,487z"/>
</g>
</svg>
