<?xml version="1.0" encoding="utf-8"?>
<!-- Generator: Adobe Illustrator 19.1.0, SVG Export Plug-In . SVG Version: 6.00 Build 0)  -->
<!DOCTYPE svg PUBLIC "-//W3C//DTD SVG 1.1//EN" "http://www.w3.org/Graphics/SVG/1.1/DTD/svg11.dtd">
<svg version="1.1" id="svg5358" xmlns:svg="http://www.w3.org/2000/svg"
	 xmlns="http://www.w3.org/2000/svg" xmlns:xlink="http://www.w3.org/1999/xlink" x="0px" y="0px" viewBox="-122 251 1033.7 300"
	 style="enable-background:new -122 251 1033.7 300;" xml:space="preserve">
<style type="text/css">
	.st0{fill:#808080;}
</style>
<g>
	<path id="path5056" class="st0" d="M911.7,390.5v-18.1h-22.6v-28.3l-0.8,0.2l-21.2,6.5l-0.4,0.1v21.5h-33.5v-12
		c0-5.6,1.2-9.8,3.7-12.6c2.4-2.8,5.9-4.2,10.3-4.2c3.2,0,6.5,0.8,9.8,2.2l0.8,0.4V327l-0.4-0.1c-3.1-1.1-7.3-1.7-12.5-1.7
		c-6.6,0-12.6,1.4-17.8,4.3c-5.2,2.8-9.3,6.9-12.2,12.1s-4.3,11.1-4.3,17.7v13H795v18.2h15.7v76.6h22.6v-76.6h33.5v48.7
		c0,20,9.5,30.2,28.1,30.2c3.1,0,6.3-0.4,9.6-1.1c3.4-0.7,5.6-1.4,7-2.2l0.3-0.2v-18.3l-0.9,0.6c-1.2,0.8-2.8,1.5-4.5,2
		c-1.8,0.5-3.3,0.8-4.5,0.8c-4.4,0-7.6-1.2-9.6-3.5s-3.1-6.4-3.1-12.2v-44.7L911.7,390.5L911.7,390.5z M744.5,451
		c-8.2,0-14.6-2.7-19.2-8.1c-4.6-5.4-6.9-13-6.9-22.8c0-10,2.3-17.9,6.9-23.4c4.6-5.4,11-8.2,19-8.2c7.8,0,14.1,2.6,18.5,7.8
		c4.5,5.2,6.8,13,6.8,23.2c0,10.3-2.1,18.2-6.4,23.5C759.2,448.2,752.9,451,744.5,451 M745.5,370.1c-15.6,0-28,4.6-36.9,13.6
		c-8.8,9-13.3,21.5-13.3,37.2c0,14.8,4.4,26.8,13,35.5s20.4,13.1,34.9,13.1c15.1,0,27.3-4.6,36.2-13.8c8.8-9.1,13.3-21.5,13.3-36.8
		c0-15.1-4.2-27.1-12.5-35.7C772,374.5,760.4,370.1,745.5,370.1 M659,370.1c-10.6,0-19.4,2.7-26.1,8.1c-6.8,5.4-10.2,12.5-10.2,21
		c0,4.4,0.7,8.4,2.2,11.8s3.7,6.3,6.7,8.8s7.6,5,13.7,7.7c5.1,2.1,9,3.9,11.4,5.3s4.1,2.8,5,4.1c0.9,1.3,1.4,3.1,1.4,5.4
		c0,6.4-4.8,9.5-14.6,9.5c-3.6,0-7.8-0.8-12.3-2.3s-8.8-3.6-12.6-6.4l-0.9-0.7v21.7l0.3,0.2c3.2,1.5,7.2,2.7,12,3.7
		c4.7,1,9,1.5,12.8,1.5c11.5,0,20.8-2.7,27.6-8.1s10.3-12.7,10.3-21.5c0-6.4-1.9-11.9-5.5-16.3s-10-8.4-18.8-12
		c-7-2.8-11.5-5.2-13.4-7c-1.8-1.7-2.7-4.2-2.7-7.3c0-2.8,1.1-5,3.4-6.8c2.3-1.8,5.6-2.7,9.6-2.7c3.8,0,7.6,0.6,11.4,1.8
		c3.8,1.2,7.2,2.7,10,4.6l0.9,0.6v-20.6l-0.4-0.2c-2.6-1.1-6-2.1-10.1-2.8C666,370.5,662.2,370.1,659,370.1 M563.9,451
		c-8.2,0-14.6-2.7-19.2-8.1c-4.6-5.4-6.9-13-6.9-22.8c0-10,2.3-17.9,6.9-23.4c4.5-5.4,10.9-8.2,19-8.2c7.8,0,14.1,2.6,18.5,7.8
		c4.5,5.2,6.8,13,6.8,23.2c0,10.3-2.1,18.2-6.4,23.5C578.4,448.2,572,451,563.9,451 M564.9,370.1c-15.6,0-28,4.6-36.9,13.6
		c-8.8,9-13.3,21.5-13.3,37.2c0,14.8,4.4,26.8,13,35.5s20.4,13.1,34.9,13.1c15.1,0,27.3-4.6,36.2-13.8c8.8-9.1,13.3-21.5,13.3-36.8
		c0-15.1-4.2-27.1-12.5-35.7C591.2,374.5,579.5,370.1,564.9,370.1 M480.4,388.8v-16.4h-22.3v94.8h22.3v-48.5c0-8.2,1.9-15,5.6-20.1
		c3.6-5.1,8.5-7.6,14.4-7.6c2,0,4.3,0.3,6.7,1c2.4,0.7,4.2,1.4,5.2,2.1l0.9,0.7v-22.5l-0.4-0.2c-2.1-0.9-5-1.3-8.7-1.3
		c-5.6,0-10.6,1.8-14.9,5.3c-3.8,3.1-6.5,7.4-8.6,12.7C480.6,388.8,480.4,388.8,480.4,388.8z M418.2,370.1
		c-10.2,0-19.3,2.2-27.1,6.5c-7.8,4.3-13.8,10.5-17.9,18.4c-4.1,7.8-6.1,17-6.1,27.2c0,9,2,17.2,6,24.4c4,7.3,9.6,12.9,16.7,16.9
		c7.1,3.9,15.3,5.9,24.4,5.9c10.6,0,19.6-2.1,26.9-6.3l0.3-0.2v-20.4l-0.9,0.7c-3.3,2.4-7,4.3-10.9,5.7c-3.9,1.4-7.5,2.1-10.7,2.1
		c-8.7,0-15.8-2.7-20.9-8.1s-7.7-13-7.7-22.5c0-9.6,2.7-17.4,8-23.1s12.3-8.6,20.9-8.6c7.3,0,14.5,2.5,21.2,7.4l0.9,0.7v-21.5
		l-0.3-0.2c-2.5-1.4-6-2.6-10.3-3.5C426.4,370.5,422.2,370.1,418.2,370.1 M351.7,372.4h-22.3v94.8h22.3V372.4z M340.8,332
		c-3.7,0-6.9,1.2-9.5,3.7s-4,5.6-4,9.3c0,3.6,1.3,6.7,3.9,9.1s5.8,3.6,9.5,3.6s7-1.2,9.6-3.6s4-5.5,4-9.1s-1.3-6.7-3.9-9.2
		C347.9,333.2,344.7,332,340.8,332 M285.2,365.4v101.8H308V334.9h-31.5l-40,98.2l-38.8-98.2h-32.8v132.2h21.4V365.4h0.7l41,101.8
		h16.1l40.3-101.8H285.2L285.2,365.4z"/>
	<path id="path5058" class="st0" d="M-17.1,395.6H-122V290.6h104.9C-17.1,290.6-17.1,395.6-17.1,395.6z"/>
	<path id="path5060" class="st0" d="M98.7,395.6H-6.2V290.6H98.7V395.6z"/>
	<path id="path5062" class="st0" d="M-17.1,511.4H-122V406.5h104.9C-17.1,406.5-17.1,511.4-17.1,511.4z"/>
	<path id="path5064" class="st0" d="M98.7,511.4H-6.2V406.5H98.7V511.4z"/>
</g>
</svg>
