<?xml version="1.0" encoding="utf-8"?>
<!-- Generator: Adobe Illustrator 19.1.0, SVG Export Plug-In . SVG Version: 6.00 Build 0)  -->
<!DOCTYPE svg PUBLIC "-//W3C//DTD SVG 1.1//EN" "http://www.w3.org/Graphics/SVG/1.1/DTD/svg11.dtd">
<svg version="1.1" id="Layer_1" xmlns="http://www.w3.org/2000/svg" xmlns:xlink="http://www.w3.org/1999/xlink" x="0px" y="0px"
	 viewBox="-531 365 216 72" style="enable-background:new -531 365 216 72;" xml:space="preserve">
<style type="text/css">
	.st0{fill:#808080;}
	.st1{fill:#737373;}
</style>
<path class="st0" d="M-429,418.1c-1,0-1.6-0.5-1.6-1.6l-0.9-20.3c-0.1-2.4-0.1-4.4-0.1-5.7c-0.5,1.4-1.1,3-1.9,5.1l-8.7,21.2
	c-0.3,0.8-0.9,1.3-1.8,1.3h-3.6c-0.9,0-1.5-0.4-1.8-1.3l-8.5-21.3c-0.7-1.9-1.4-3.6-1.8-5c0,1.3,0,3.5-0.1,5.6l-0.8,20.4
	c0,1.1-0.6,1.6-1.6,1.6h-2.6c-1,0-1.6-0.5-1.5-1.6l1.2-31.9c0-1,0.6-1.6,1.6-1.6h5.6c0.9,0,1.5,0.4,1.8,1.3l10.4,26.5l10.7-26.5
	c0.3-0.8,0.9-1.3,1.8-1.3h5.6c1,0,1.6,0.5,1.6,1.6l1.3,31.9c0,1.1-0.5,1.6-1.5,1.6C-426.2,418.1-429,418.1-429,418.1z M-409.5,418.6
	c-6.1,0-12.3-4.3-12.3-13c0-8.6,5.7-13,12.8-13c7,0,12.1,4.4,12.1,12.4C-396.9,414.2-402.8,418.6-409.5,418.6z M-409.4,397.1
	c-3.4,0-6.5,2.3-6.5,8.1c0,5.3,2.8,8.7,6.5,8.7h0.3c3.6,0,6.3-3,6.3-8.4C-402.8,400.4-405.3,397.1-409.4,397.1z M-384.5,418.6
	c-2.4,0-5.6-0.4-8.1-1.1c-1.2-0.3-1.5-0.8-1.5-1.8c0-0.8,0.1-1.8,0.1-3.4v-30.8c0-0.8,0.5-1.4,1.4-1.5l2.9-0.2
	c0.9-0.1,1.5,0.4,1.5,1.4v11.2c0,1.9-0.1,3.1-0.1,3.5c2.1-2.5,4.8-3.3,7.4-3.3c5.7,0,10.4,4.3,10.4,12.3
	C-370.4,413.1-375.3,418.6-384.5,418.6L-384.5,418.6z M-382.4,397.4c-1.8,0-3.8,0.6-5.6,2.5v13.5c1.5,0.5,3,0.6,4.4,0.6
	c4.5,0,7.4-3,7.4-8.4C-376.3,400-379.3,397.4-382.4,397.4L-382.4,397.4z M-360.6,384.8c0,2.1-1.6,3.5-3.7,3.5
	c-2.3,0-3.7-1.5-3.7-3.6c0-2,1.5-3.5,3.7-3.5C-362.1,381.2-360.6,382.7-360.6,384.8z M-365.8,418.1c-0.9,0-1.4-0.5-1.4-1.4V396
	c0-0.9,0.5-1.4,1.4-1.5l2.9-0.2c0.9-0.1,1.5,0.4,1.5,1.4v21c0,0.9-0.5,1.4-1.4,1.4H-365.8z M-340.3,383c0,0.8-0.5,1.3-1.2,1.3
	c-0.4,0-1.4-0.2-2.8-0.2c-3,0-4.9,1.2-5.3,4.4c-0.2,0.8-0.2,1.8-0.2,3.3v1.9h5c0.9,0,1.4,0.5,1.4,1.5l-0.1,1.6
	c-0.1,0.9-0.5,1.4-1.4,1.4h-4.8v18.5c0,0.9-0.5,1.4-1.4,1.4h-2.9c-0.9,0-1.4-0.5-1.4-1.4v-18.6h-1.6c-0.9,0-1.4-0.5-1.4-1.4v-1.4
	c0-0.9,0.4-1.4,1.3-1.5l1.4-0.1v-1.4c0-2.5,0.1-4.3,0.7-6.1c1.3-4.6,5.2-6.8,10.3-6.8c1,0,2.2,0,3.4,0.3c0.9,0.1,1.3,0.7,1.2,1.6
	L-340.3,383z M-316.3,393.7h-3.6c-0.8,0-1.3,0.4-1.6,1.2c-0.6,1.5-3.5,8.2-6.8,15.8c-3.4-7.5-6.5-14.3-7.1-15.8
	c-0.3-0.8-0.7-1.2-1.6-1.2h-3.6c-1,0-1.5,0.6-1.2,1.6c0.8,2.5,6.1,13.7,10.3,22.8c-2.6,5.9-4.7,11-5.2,12.5c-0.3,1,0.1,1.6,1.2,1.6
	h3.6c0.8,0,1.3-0.4,1.6-1.2c1-3.2,14-31.9,15.3-35.8C-314.8,394.3-315.3,393.7-316.3,393.7L-316.3,393.7z"/>
<path class="st1" d="M-487.5,395.7c0,0,6.7,11,6.6,12.7c-0.1,1.7-7.7,6.7-7.7,6.7S-487.5,395.7-487.5,395.7z"/>
<path class="st0" d="M-500.1,398.5c1.4,6.2,11.6,16.6,11.6,16.6s2.3-32.3,1.4-33.8c-0.9-1.4-9.9-2.6-9.9-2.6
	S-501.6,392.4-500.1,398.5z"/>
<path class="st1" d="M-510.9,417.8c0,0-12.9,0.3-14.3-0.6c-1.4-1-2-10-2-10S-510.9,417.8-510.9,417.8z"/>
<path class="st0" d="M-507.1,405.4c-6.1-1.9-20.1,1.7-20.1,1.7s26.8,18.2,28.5,18.1c1.7,0,7.3-7.2,7.3-7.2S-501,407.2-507.1,405.4z"
	/>
<path class="st1" d="M-518.3,386.3c0,0,6.2-11.3,7.7-12.1c1.5-0.7,9.7,3.3,9.7,3.3S-518.3,386.3-518.3,386.3z"/>
<path class="st0" d="M-509.5,395.8c4.6-4.3,8.6-18.3,8.6-18.3s-29.1,14.2-30,15.7c-0.8,1.4,2.6,9.8,2.6,9.8
	S-514.1,400.2-509.5,395.8z"/>
</svg>
