<?xml version="1.0" encoding="utf-8"?>
<!-- Generator: Adobe Illustrator 19.1.0, SVG Export Plug-In . SVG Version: 6.00 Build 0)  -->
<!DOCTYPE svg PUBLIC "-//W3C//DTD SVG 1.1//EN" "http://www.w3.org/Graphics/SVG/1.1/DTD/svg11.dtd">
<svg version="1.1" id="Layer_1" xmlns="http://www.w3.org/2000/svg" xmlns:xlink="http://www.w3.org/1999/xlink" x="0px" y="0px"
	 viewBox="-489 356 300 90" style="enable-background:new -489 356 300 90;" xml:space="preserve">
<style type="text/css">
	.st0{fill:#808080;}
</style>
<g>
	<g>
		<g>
			<path class="st0" d="M-315.5,388.4c0-1.4,0.7-2.1,2.1-2.1h1.8c1.4,0,2.1,0.7,2.1,2.1v2.9v0.7h0.1c0.8-1.9,1.1-2.4,3.1-4.3
				c2.1-2,3.2-2.3,6.4-2.3c7.5,0,11.2,4.2,11.2,12.6v18.9c0,1.4-0.7,2.1-2.1,2.1h-2c-1.4,0-2.1-0.7-2.1-2.1v-17.4
				c0-5.3-1.3-8.2-6.2-8.2c-3.2,0-4.4,1.8-5.4,3.4c-1.4,2.2-2.7,5.3-2.7,8.7V417c0,1.4-0.7,2.1-2.1,2.1h-2c-1.4,0-2.1-0.7-2.1-2.1
				v-28.6H-315.5z"/>
			<path class="st0" d="M-278.1,401.7c1.4-0.8,3-1.4,4.9-1.8c3.8-1,6.5-1.1,9.8-1.1h1.7V398c0-4.8-2.4-7.2-7.1-7.2
				c-2.5,0-4.9,0.7-7.4,2.1c-1.2,0.6-2.2,0.3-2.9-0.8l-0.5-0.9c-0.7-1.3-0.5-2.3,0.7-2.9c3.3-1.9,6.8-2.8,10.6-2.8
				c8.2,0,12.9,4.5,12.9,12.8v18.6c0,1.4-0.7,2.1-2.1,2.1h-1.6c-1.4,0-2.1-0.7-2.1-2.1V415l0.2-2h-0.1c-0.2,0.3-0.3,0.8-1.6,2.4
				c-1.6,2-4.5,4.5-9.1,4.5c-3,0-5.6-0.9-7.8-2.7c-2.1-1.8-3.2-4.1-3.2-7.1C-282.9,406.2-280.7,403.2-278.1,401.7z M-270.5,414.8
				c2.6,0,4.7-1.1,6.4-3.2c1.7-2.1,2.5-4.5,2.5-7.2V403h-1.7c-8.9,0-13.3,2.2-13.3,6.6C-276.6,412.4-274.3,414.8-270.5,414.8z"/>
			<path class="st0" d="M-244.9,390.4c3.3-3.3,7.5-4.9,12.6-4.9c4.2,0,7.8,1.2,10.8,3.5c1.1,0.7,1.2,1.7,0.4,2.9l-0.6,1
				c-0.7,1.1-1.7,1.2-2.9,0.5c-2.3-1.6-4.7-2.5-7.3-2.5c-3.3,0-6,1.1-8.2,3.3c-2.1,2.2-3.2,5-3.2,8.4s1.1,6.2,3.2,8.4
				c2.2,2.3,5,3.4,8.3,3.4c2.9,0,5.7-1,8.4-3c1.2-0.8,2.2-0.6,2.9,0.6l0.5,1c0.7,1.2,0.5,2.1-0.6,2.9c-3.2,2.7-7.1,4-11.7,4
				c-5.1,0-9.3-1.6-12.6-4.9c-3.2-3.2-4.9-7.3-4.9-12.3C-249.8,397.8-248.2,393.7-244.9,390.4z"/>
			<path class="st0" d="M-211.7,401.7c1.4-0.8,3-1.4,4.9-1.8c3.8-1,6.5-1.1,9.8-1.1h1.7V398c0-4.8-2.4-7.2-7.1-7.2
				c-2.5,0-4.9,0.7-7.4,2.1c-1.2,0.6-2.2,0.3-2.9-0.8l-0.5-0.9c-0.7-1.3-0.5-2.3,0.7-2.9c3.3-1.9,6.8-2.8,10.6-2.8
				c8.2,0,12.9,4.5,12.9,12.8v18.6c0,1.4-0.7,2.1-2.1,2.1h-1.6c-1.4,0-2.1-0.7-2.1-2.1V415l0.2-2h-0.1c-0.2,0.3-0.3,0.8-1.6,2.4
				c-1.6,2-4.5,4.5-9.1,4.5c-3,0-5.6-0.9-7.8-2.7c-2.1-1.8-3.2-4.1-3.2-7.1C-216.6,406.2-214.4,403.2-211.7,401.7z M-204.1,414.8
				c2.6,0,4.7-1.1,6.4-3.2c1.7-2.1,2.5-4.5,2.5-7.2V403h-1.7c-8.9,0-13.3,2.2-13.3,6.6C-210.2,412.4-207.9,414.8-204.1,414.8z"/>
		</g>
		<path class="st0" d="M-338.5,391.4c4.9,0,9,4.9,9,10.9s-4,10.9-9,10.9c-4.9,0-9-4.9-9-10.9S-343.5,391.4-338.5,391.4
			 M-338.5,385.3c-8.3,0-15,7.6-15,16.9s6.7,16.9,15,16.9s15-7.6,15-16.9S-330.2,385.3-338.5,385.3L-338.5,385.3z"/>
		<path class="st0" d="M-364,382.3c-0.2-0.1-0.5-0.2-0.8-0.2h-4.2c-0.8,0-1.5,0.4-1.8,1l-12,20.1c-0.4,0.7-1.4,0.7-1.8,0l-12-20.1
			c-0.4-0.6-1.1-1-1.8-1h-4.3c-0.3,0-0.6,0.1-0.8,0.2c-0.8,0.3-1.3,1.1-1.3,2V417c0,1.2,1,2.1,2.1,2.1h3.4c0.4,0,0.7-0.3,0.7-0.7
			v-26.8c0-0.3,0.4-0.5,0.6-0.2l11.2,18.8c1.4,2.3,4.7,2.3,6.1,0l11.2-18.8c0.2-0.3,0.6-0.2,0.6,0.2v26.8c0,0.4,0.3,0.7,0.7,0.7h3.4
			c1.2,0,2.1-1,2.1-2.1v-32.7C-362.6,383.4-363.2,382.6-364,382.3z"/>
	</g>
	<path class="st0" d="M-436.6,368.1h-39c-7.4,0-13.4,6-13.4,13.4v39c0,7.4,6,13.4,13.4,13.4h39c7.4,0,13.4-6,13.4-13.4v-39
		C-423.2,374.1-429.2,368.1-436.6,368.1z M-443.2,414h-25.9v-26h25.9V414z"/>
</g>
</svg>
