<?xml version="1.0" encoding="utf-8"?>
<!-- Generator: Adobe Illustrator 19.1.0, SVG Export Plug-In . SVG Version: 6.00 Build 0)  -->
<!DOCTYPE svg PUBLIC "-//W3C//DTD SVG 1.1//EN" "http://www.w3.org/Graphics/SVG/1.1/DTD/svg11.dtd">
<svg version="1.1" id="Layer_1" xmlns="http://www.w3.org/2000/svg" xmlns:xlink="http://www.w3.org/1999/xlink" x="0px" y="0px"
	 viewBox="-489 361 300 80" style="enable-background:new -489 361 300 80;" xml:space="preserve">
<style type="text/css">
	.st0{fill:#808080;}
</style>
<g>
	<g id="icn_frameworkssvg">
		<path id="path-3" class="st0" d="M-454.6,427.7c-16.3,4.7-31,0.5-33.9-10.1c-1.9-6.6,3.3-13.4,2.6-10.2c-0.4,2-0.6,4.2,0,6.1
			c2.6,9.2,16.3,13,30.4,9c14.1-4,23.7-14.6,21.1-23.7c-0.5-1.9-1.8-3.8-3.2-5.2c-2.3-2.3,5.7,0.8,7.5,7.3
			C-427.3,411.5-438.3,423-454.6,427.7z M-452.9,411.1c10.4-13.9,2.3-29.6,4.7-34.4s10.5-4.4,10.5-4.4
			C-446.5,381.6-433.6,401.6-452.9,411.1z M-456.8,409.4c-0.6,0.9-1.3,1.5-1.9,2c-5.3,4.5-13.2,3.8-22.7,1.3
			c4.5-5.4,1.7-12.7,2.9-19.4c1.1-6.4,7.6-12,14.9-14.1c-9,7.4-8.1,20-6.6,25c0.8,2.8,2.3,4.4,4,5.4c9.3,4.4-6.5-25.3,14.3-33.7
			C-459.1,386.5-452.3,403.1-456.8,409.4z"/>
	</g>
	<g>
		<path class="st0" d="M-416.8,404c0-6.7,1.9-12.2,5.8-16.3c3.9-4.2,8.6-6.2,14.1-6.2c4.7,0,8.5,1.5,11.5,4.6s4.4,7.2,4.4,12.3
			c0,3.7-0.7,7.1-2.2,10.2c-1.1,2.4-2.5,4.4-4.2,6.1s-3.5,3-5.5,4c-2.6,1.2-5.3,1.9-8.2,1.9c-3,0-5.8-0.7-8.2-2.2s-4.4-3.5-5.6-6
			C-416.2,409.6-416.8,406.9-416.8,404z M-411.9,404.2c0,2.2,0.5,4.2,1.4,6.1s2.3,3.3,4.1,4.3c1.8,1,3.7,1.6,5.7,1.6
			c1.9,0,3.8-0.5,5.5-1.4c1.8-0.9,3.3-2.2,4.7-3.8c1.4-1.6,2.5-3.7,3.3-6c0.8-2.4,1.2-4.7,1.2-7.1c0-3.8-1.1-6.8-3.2-9
			s-4.7-3.3-7.8-3.3c-3.9,0-7.4,1.7-10.5,5.1C-410.4,394-411.9,398.5-411.9,404.2z"/>
		<path class="st0" d="M-377.1,419.8l5.7-27.3h4.2l-1,4.8c1.8-1.9,3.6-3.2,5.1-4.1c1.6-0.9,3.2-1.3,4.9-1.3c2.2,0,4,0.6,5.2,1.8
			c1.3,1.2,1.9,2.8,1.9,4.8c0,1-0.2,2.6-0.7,4.8l-3.5,16.6h-4.7l3.6-17.3c0.4-1.7,0.5-2.9,0.5-3.7c0-0.9-0.3-1.6-0.9-2.2
			s-1.5-0.8-2.7-0.8c-2.4,0-4.5,0.9-6.4,2.6s-3.2,4.7-4.1,8.8l-2.7,12.7h-4.4V419.8z"/>
		<path class="st0" d="M-346,410.4l4.7-0.3c0,1.3,0.2,2.5,0.6,3.4s1.2,1.7,2.3,2.3c1.1,0.6,2.4,0.9,3.9,0.9c2.1,0,3.6-0.4,4.6-1.2
			c1-0.8,1.5-1.8,1.5-2.9c0-0.8-0.3-1.6-0.9-2.3c-0.6-0.7-2.2-1.6-4.6-2.7c-2.5-1.1-4-1.8-4.7-2.2c-1.1-0.7-2-1.5-2.6-2.5
			s-0.9-2-0.9-3.3c0-2.2,0.9-4,2.6-5.6c1.7-1.5,4.1-2.3,7.2-2.3c3.4,0,6,0.8,7.8,2.4s2.7,3.7,2.8,6.3l-4.6,0.3
			c-0.1-1.6-0.7-3-1.8-3.9c-1.1-1-2.7-1.4-4.7-1.4c-1.6,0-2.9,0.4-3.8,1.1s-1.3,1.5-1.3,2.4s0.4,1.6,1.2,2.3c0.5,0.4,1.8,1.1,4,2.1
			c3.6,1.5,5.8,2.8,6.7,3.7c1.5,1.4,2.2,3.2,2.2,5.2c0,1.4-0.4,2.7-1.2,4c-0.8,1.3-2.1,2.3-3.8,3.1c-1.7,0.8-3.7,1.2-6,1.2
			c-3.2,0-5.8-0.8-8.1-2.3C-345,416.5-346.1,413.9-346,410.4z"/>
		<path class="st0" d="M-297.7,410.5l4.5,0.5c-0.7,2.2-2.1,4.4-4.5,6.4c-2.3,2-5.1,3-8.4,3c-2,0-3.9-0.5-5.6-1.4s-3-2.3-3.9-4.1
			c-0.9-1.8-1.3-3.8-1.3-6.1c0-3,0.7-5.9,2.1-8.7c1.4-2.8,3.2-4.9,5.4-6.3c2.2-1.4,4.6-2,7.1-2c3.3,0,5.9,1,7.8,3s2.9,4.8,2.9,8.3
			c0,1.3-0.1,2.7-0.4,4.1h-20c-0.1,0.5-0.1,1-0.1,1.4c0,2.6,0.6,4.5,1.8,5.9c1.2,1.3,2.6,2,4.3,2c1.6,0,3.2-0.5,4.7-1.6
			C-299.8,414-298.6,412.4-297.7,410.5z M-311.3,403.7h15.3c0-0.5,0-0.8,0-1c0-2.3-0.6-4.1-1.8-5.4c-1.2-1.2-2.7-1.9-4.5-1.9
			c-2,0-3.8,0.7-5.4,2.1C-309.2,398.9-310.5,400.9-311.3,403.7z"/>
		<path class="st0" d="M-288.8,419.8l5.7-27.3h4.2l-1,4.8c1.8-1.9,3.6-3.2,5.1-4.1c1.6-0.9,3.2-1.3,4.9-1.3c2.2,0,4,0.6,5.2,1.8
			c1.3,1.2,1.9,2.8,1.9,4.8c0,1-0.2,2.6-0.7,4.8l-3.5,16.6h-4.7l3.6-17.3c0.4-1.7,0.5-2.9,0.5-3.7c0-0.9-0.3-1.6-0.9-2.2
			s-1.5-0.8-2.7-0.8c-2.4,0-4.5,0.9-6.4,2.6s-3.2,4.7-4.1,8.8l-2.7,12.7h-4.4V419.8z"/>
		<path class="st0" d="M-239.4,382h7.7l-4.3,20.5l-1.1,5c-0.1,0.4-0.1,0.8-0.1,1.2c0,1.5,0.5,2.7,1.6,3.7s2.7,1.5,4.7,1.5
			c1.9,0,3.4-0.4,4.6-1.1s2.2-1.8,2.8-3.1c0.7-1.4,1.3-3.7,2-7.1l4.3-20.6h7.7l-4.3,20.6c-0.9,4.3-2,7.7-3.1,10
			c-1.2,2.3-3,4.2-5.4,5.6s-5.4,2.2-9.1,2.2c-4.4,0-7.8-1.1-10.1-3.2c-2.3-2.2-3.5-4.9-3.5-8.3c0-0.7,0.1-1.5,0.2-2.3
			c0.1-0.5,0.4-2.1,0.9-4.7L-239.4,382z"/>
		<path class="st0" d="M-204.6,419.8l7.9-37.7h7.7l-7.9,37.7H-204.6z"/>
	</g>
</g>
</svg>
