<?xml version="1.0" encoding="utf-8"?>
<!-- Generator: Adobe Illustrator 19.1.0, SVG Export Plug-In . SVG Version: 6.00 Build 0)  -->
<!DOCTYPE svg PUBLIC "-//W3C//DTD SVG 1.1//EN" "http://www.w3.org/Graphics/SVG/1.1/DTD/svg11.dtd">
<svg version="1.1" id="logo" xmlns="http://www.w3.org/2000/svg" xmlns:xlink="http://www.w3.org/1999/xlink" x="0px" y="0px"
	 viewBox="-579 380 120 42" style="enable-background:new -579 380 120 42;" xml:space="preserve">
<style type="text/css">
	.st0{fill:#808080;}
	.st1{fill:#FFFFFF;}
</style>
<g>
	<g>
		<path class="st0" d="M-539.2,409.8h0.2l0.2,0.4h0.2l-0.3-0.4c0.1,0,0.2-0.1,0.2-0.3s-0.1-0.3-0.3-0.3h-0.4v0.9h0.1L-539.2,409.8
			L-539.2,409.8z M-539.2,409.7v-0.3h0.2c0.1,0,0.2,0,0.2,0.1s-0.1,0.2-0.2,0.2C-539,409.7-539.2,409.7-539.2,409.7z"/>
		<path class="st0" d="M-538.1,409.8c0,0.5-0.4,0.9-0.9,0.9s-0.9-0.4-0.9-0.9s0.4-0.9,0.9-0.9S-538.1,409.3-538.1,409.8z M-539,409
			c-0.4,0-0.7,0.3-0.7,0.7c0,0.4,0.3,0.7,0.7,0.7s0.7-0.3,0.7-0.7C-538.3,409.3-538.6,409-539,409z"/>
		<path class="st1" d="M-544.1,410.5c-1.3,0-2.4,0.2-3.3,0.6c-0.1,0-0.2,0.1-0.2,0.3v0.1c0.1,0.3-0.1,0.6-0.9,0.8
			c-1.2,0.3-2,1.5-2.4,2c-0.5,0.5-2,0.8-1.8,0.5c0.2-0.2,0.8-0.9,1.2-1.7c0.4-0.7,0.7-0.9,1.1-1.6c0.1-0.2,0.6-0.9,0.8-1.4
			c0.2-0.5,0.1-1.2,0.2-1.5c0.1-0.4,0.5-1.2,0.5-1.7c0-0.3-1.1,0.4-1.7,0.4c-0.5,0-1.1-0.3-1.6-0.4c-0.6,0-1,0.5-1.5,0.4
			c-0.3,0-0.6-0.3-1.1-0.3c-0.8,0-1.7,0.4-3.5,0.4c-1.8-0.1-3.4-2.2-3.6-2.6c-0.3-0.4-0.6-0.4-0.9-0.1c-0.3,0.3-0.8,0.1-0.9-0.1
			c-0.2-0.4-0.8-1.6-1.8-1.8c-1.3-0.3-2,0.7-1.9,1.6c0.1,0.9,0.6,1.1,0.9,1.6s0.4,0.8,0.9,1c0.3,0.1,0.5,0.4,0.4,0.6
			c-0.1,0.2-0.4,0.3-0.7,0.3c-0.5,0-0.9-0.1-1.1-0.3c-0.3-0.2-0.5-0.5-0.8-0.9c-0.3-0.5-0.8-0.7-1.3-0.7c-0.3,0-0.5,0.1-0.7,0.2
			c-0.9,0.5-1.9,0.7-3,0.7h-1.3c2.4,7,9.2,12.1,17.1,12.1c6.3,0,11.9-3.3,15.1-8.2C-542.6,410.6-543.3,410.5-544.1,410.5z"/>
		<path class="st0" d="M-553.1,409.1L-553.1,409.1c-0.3,0.3-0.4,0.4-0.5,0.5c-0.4,0.3-0.9,0-1.2-0.2c-0.7-0.4-1.2-0.1-1.3,0.2
			c-0.1,0.3,0,0.7,0.4,0.6c0.5-0.1,0.5,0,0.9,0.2c0.7,0.4,1.2,0.2,1.4,0c0.2-0.2,0.3-0.3,0.4-0.5
			C-552.8,409.5-552.9,409.2-553.1,409.1C-553,409.1-553.1,409.1-553.1,409.1z"/>
		<g>
			<path class="st0" d="M-558.8,390.4c-0.9,0-1.6,0.1-2.1,0.1c-0.6,0-1-0.4-1.2-0.6c-0.2-0.2-0.7-0.3-1,0.3
				c-0.3,0.6,0.3,1.3,0.7,1.4c0,0,0.8,1.4,1.3,0.8c0.4-0.4,0.6-0.6,2.7-0.8c1-0.1,1.1-0.3,1.1-0.6S-557.9,390.4-558.8,390.4z"/>
			<path class="st0" d="M-553.9,387.4L-553.9,387.4c-0.3,0-0.5,0-0.7,0c-0.7,0.1-1.3,0.3-1.7,0.5c0,0.1,0.1,0.1,0.1,0.1
				c0.2,0,0.3,0,0.4,0c1.1-0.1,2.1,0.1,2.1,0.4c0,0.3-0.5,0.5-1.2,0.7c-0.1,0-0.1,0.1-0.1,0.1c0,0.1,0.1,0.1,0.1,0.1
				c0.3,0.1,0.6,0.2,1,0.2c1.2,0,2.1-0.4,2.1-1.1C-551.8,387.9-552.7,387.4-553.9,387.4z"/>
			<path class="st0" d="M-557,383c-9.9,0-18,8.1-18,18c0,2,0.3,3.9,0.9,5.8h1.3c1.1,0,2.1-0.3,3-0.7c0.2-0.1,0.5-0.2,0.7-0.2
				c0.6,0,1,0.2,1.3,0.7c0.3,0.4,0.5,0.7,0.8,0.9s0.6,0.3,1.1,0.3c0.2,0,0.6-0.1,0.7-0.3c0.1-0.3,0-0.5-0.4-0.6
				c-0.5-0.2-0.6-0.5-0.9-1s-0.8-0.7-0.9-1.6c-0.1-0.9,0.6-1.9,1.9-1.6c1,0.2,1.6,1.4,1.8,1.8c0.1,0.2,0.5,0.5,0.9,0.1
				c0.3-0.3,0.7-0.3,0.9,0.1c0.2,0.3,1.8,2.5,3.6,2.6c1.8,0.1,2.7-0.4,3.5-0.4c0.5,0,0.8,0.3,1.1,0.3c0.5,0.1,0.9-0.4,1.5-0.4
				c0.5,0,1,0.3,1.6,0.3c0.5,0,1.7-0.7,1.7-0.4c0,0.5-0.4,1.3-0.5,1.7c-0.1,0.3,0,0.9-0.2,1.5c-0.1,0.5-0.6,1.2-0.8,1.4
				c-0.4,0.7-0.8,0.9-1.1,1.6c-0.4,0.8-1.1,1.5-1.2,1.7c-0.2,0.3,1.2,0,1.8-0.5c0.4-0.4,1.2-1.7,2.4-2c0.8-0.2,1-0.5,0.9-0.8v-0.1
				c0-0.1,0.1-0.2,0.2-0.3c0.9-0.4,2-0.6,3.3-0.6c0.7,0,1.5,0.1,2.2,0.3c1.8-2.6,2.9-6,2.9-9.6C-539,391.1-547.1,383-557,383z
				 M-542.3,400.7c-0.9,4.7-8.7,6.3-16.2,4c-7.2-2.1-13.5-6.5-12.8-9c0.4-1.5,2.8-2.1,5.9-1.8c-0.5,1-0.5,2.1,1.6,3.4
				c2.6,1.4,6.8,2.6,8,2.5c0.4,0,0.8-0.2,0.4-0.5c-0.3-0.3-0.7-0.8-0.9-1.7c-0.1-0.5-0.3-1.2-3-1.7c-5.8-1.1-5.6-2.8-5.4-3.7
				c0,0,0.5-2.3,0.7-3.1c0.2-0.9,0.7-2.7,4.5-1.9c2.1,0.5,3.3-0.1,3.9-0.3c1.6-0.4,3.4-0.1,4.4,0.9s2.4,4.3,3.1,6.7
				c0.4,1.2,0.3,1.8,0.1,2.2c-0.1,0.3-0.2,0.5-0.6,1.2c0,0.1,0,0.3,0.2,0.2c1.2-0.5,1.4-1.3,1.6-1.9
				C-543.8,396.9-542,398.5-542.3,400.7z"/>
		</g>
	</g>
	<g>
		<path class="st0" d="M-529.8,402.1c0-1.7,0-2.9-0.1-4h2.7l0.1,2.3h0.1c0.6-1.7,2-2.6,3.4-2.6c0.3,0,0.5,0,0.7,0.1v2.9
			c-0.3-0.1-0.6-0.1-0.9-0.1c-1.5,0-2.5,0.9-2.8,2.4c-0.1,0.3-0.1,0.6-0.1,0.9v6.4h-3.1V402.1z"/>
		<path class="st0" d="M-519.1,405.2c0.1,2.2,1.8,3.2,3.8,3.2c1.4,0,2.5-0.2,3.4-0.6l0.5,2.1c-1.1,0.4-2.5,0.8-4.3,0.8
			c-4,0-6.4-2.5-6.4-6.3c0-3.4,2.1-6.6,6-6.6c4,0,5.3,3.3,5.3,6c0,0.6-0.1,1-0.1,1.3L-519.1,405.2z M-513.7,403c0-1.1-0.5-3-2.6-3
			c-1.9,0-2.7,1.7-2.9,3H-513.7z"/>
		<path class="st0" d="M-473.9,407.6c0,1,0,2,0.2,2.9h-1.1l-0.2-1.8l0,0c-0.6,1-2,2-3.9,2c-2.5,0-3.6-1.7-3.6-3.4
			c0-2.8,2.5-4.6,7.5-4.5v-0.3c0-1.2-0.2-3.7-3.2-3.6c-1.1,0-2.2,0.3-3.1,0.9l-0.4-0.9c1.1-0.8,2.5-1.1,3.6-1.1
			c3.6,0,4.2,2.7,4.2,4.9V407.6z M-475.1,403.9c-2.7-0.1-6.2,0.3-6.2,3.3c0,1.8,1.2,2.6,2.5,2.6c2.1,0,3.2-1.3,3.7-2.5
			c0.1-0.3,0.1-0.5,0.1-0.7v-2.7H-475.1z"/>
		<path class="st0" d="M-469,395.4v2.7h3.5v1h-3.5v8c0,1.6,0.5,2.6,1.8,2.6c0.6,0,1.1-0.1,1.4-0.2l0.1,0.9c-0.4,0.2-1,0.3-1.7,0.3
			c-0.9,0-1.6-0.3-2.1-0.9c-0.6-0.6-0.7-1.7-0.7-2.9v-7.8h-2.1v-1h2.1v-2.3L-469,395.4z"/>
		<path class="st0" d="M-463.9,409.8h0.2l0.2,0.4h0.2l-0.3-0.4c0.1,0,0.2-0.1,0.2-0.3s-0.1-0.3-0.3-0.3h-0.4v0.9h0.1v-0.3H-463.9z
			 M-463.9,409.7v-0.3h0.2c0.1,0,0.2,0,0.2,0.1s-0.1,0.2-0.2,0.2C-463.7,409.7-463.9,409.7-463.9,409.7z"/>
		<path class="st0" d="M-462.9,409.8c0,0.5-0.4,0.9-0.9,0.9s-0.9-0.4-0.9-0.9s0.4-0.9,0.9-0.9S-462.9,409.3-462.9,409.8z
			 M-463.8,409c-0.4,0-0.7,0.3-0.7,0.7c0,0.4,0.3,0.7,0.7,0.7c0.4,0,0.7-0.3,0.7-0.7C-463,409.4-463.4,409-463.8,409z"/>
		<path class="st0" d="M-500.5,399.5L-500.5,399.5c-0.6-0.9-1.8-1.6-3.5-1.6c-3,0-5.5,2.5-5.5,6.6c0,3.8,2.3,6.3,5.3,6.3
			c1.8,0,3.3-0.8,4-2.2h0.1l0.1,2h2.8c-0.1-0.8-0.1-2.2-0.1-3.5v-13.7l-3.1-0.9v7H-500.5z M-500.5,405.2c0,0.3,0,0.6-0.1,0.9
			c-0.3,1.3-1.4,2.2-2.7,2.2c-2,0-3.1-1.7-3.1-3.9c0-2.3,1.1-4.1,3.1-4.1c1.4,0,2.4,1,2.7,2.2c0.1,0.3,0.1,0.6,0.1,0.8V405.2z"/>
		<path class="st0" d="M-489.1,397.9c-0.9,0-1.8,0.3-2.5,0.7c-0.7,0.4-1.3,1.1-1.7,1.8l0,0v-5.8l-1.2-0.4v16.3h1.2V403
			c0-0.5,0-0.8,0.2-1.2c0.5-1.5,2-2.8,3.7-2.8c2.5,0,3.4,2,3.4,4.2v7.3h1.2v-7.4C-484.8,398.5-487.9,397.9-489.1,397.9z"/>
	</g>
</g>
</svg>
