<?xml version="1.0" encoding="utf-8"?>
<!-- Generator: Adobe Illustrator 19.1.0, SVG Export Plug-In . SVG Version: 6.00 Build 0)  -->
<!DOCTYPE svg PUBLIC "-//W3C//DTD SVG 1.1//EN" "http://www.w3.org/Graphics/SVG/1.1/DTD/svg11.dtd">
<svg version="1.1" id="Layer_1" xmlns="http://www.w3.org/2000/svg" xmlns:xlink="http://www.w3.org/1999/xlink" x="0px" y="0px"
	 viewBox="212 147 1704 507" style="enable-background:new 212 147 1704 507;" xml:space="preserve">
<style type="text/css">
	.st0{fill:#808080;}
</style>
<path class="st0" d="M1537,373.1c27.6,32.9,54.9,65.5,82.9,98.9h-55.6c-22.1-26.1-44.4-52.5-66.8-78.9c-0.5,0.1-1,0.3-1.4,0.4
	c-0.3,26,0.1,52-0.2,78.5H1452c-1.2-3.8-1.6-239.5-0.4-246.2h43.9c0.2,2.3,0.5,4.7,0.5,7.1v116c0,2.3,0.2,4.5,0.3,6.8l1.1,0.6
	c21-21.9,42-43.8,62.9-65.7h56.1c0.2,0.3,0.4,0.6,0.7,0.8C1590.8,318.7,1563.8,345.4,1537,373.1z M1196.3,418.6v41.3
	c-9.9,7.6-21.3,12.1-33.5,14.5c-17.4,3.3-34.8,3.8-52-0.8c-32.4-8.6-53.3-29.5-61.7-61.8c-8.2-31.6-5.1-62.2,12.2-90.4
	c13.3-21.7,33.1-34,58.6-37.1c14.2-1.7,28-0.4,41.2,4.7c22.2,8.5,35.3,25.4,42.2,47.5c3.6,11.3,5.1,23,5.1,34.9v19.5
	c-2.9,0.2-5.3,0.4-7.7,0.5h-103c-2.5,0-4.9,0.2-8.2,0.4c0.9,4,1.3,7.6,2.4,11c6.4,21.1,22.9,31.9,43.6,33.7
	c21.2,1.9,40.2-3.7,57.3-16.1C1193.8,419.9,1194.7,419.5,1196.3,418.6L1196.3,418.6z M1164.8,355.3c-0.9-9-3.7-16.7-9.7-23
	c-8.2-8.6-18.5-10.3-29.8-9.3c-15.2,1.4-30.4,16.7-31.9,32.2C1117.1,355.3,1140.7,355.3,1164.8,355.3z M931.8,419.3v40.4
	c-5.6,4.9-12.3,8.3-19.4,10.7c-25.1,8.4-50.3,9.1-75.4,0.2c-21.6-7.7-37.7-22.2-46.7-43.3c-14.7-34.5-13.3-69,4.4-102
	c13-24.1,33.8-37.8,61.4-41c11.8-1.4,23.3-0.5,34.6,2.7c20.3,5.7,34.7,18.6,43.7,37.5c9.9,20.9,10.5,43.4,10.1,66.6
	c-2.7,0.2-5.1,0.4-7.5,0.5H833.5c-2.4,0-4.9,0.2-8.1,0.4c0.8,3.9,1.4,7.3,2.3,10.6c5.8,20,21.4,32.1,43.3,34.1
	c21.1,2,40.2-3.4,57.3-15.9c0.5-0.4,1.1-0.7,1.7-1.1C930.3,419.5,930.6,419.5,931.8,419.3L931.8,419.3z M900.4,355.4
	c-0.2-2.1-0.2-3.8-0.5-5.3c-5.2-22.8-23.2-30.3-42-26.3c-13.8,2.9-22,12.4-27.1,24.9c-0.8,2-1.3,4.2-2.1,6.8
	C852.8,355.4,876.2,355.4,900.4,355.4L900.4,355.4z M686.7,471.7V267.4h-81.4c-1.5-4.1-1.8-35.4-0.5-41.5h211.5v41.2h-82.4v204.1
	C729.4,472.7,694.3,473.1,686.7,471.7z M973.4,225.7h44.7v246.4c-14.8,0.7-29.6,0.4-44.7,0.2V225.7L973.4,225.7z M1283.9,303.3
	c9.9-11.2,21.3-19.4,36.9-19c7.4,0.1,15,0,21.7,4.2v47.1c-1.2-0.5-2.1-0.8-2.9-1.3c-9.7-6-20.2-7.7-31.1-5
	c-14.9,3.7-25.8,18.1-25.8,33.5v108.6c-4.3,1.5-38.9,1.8-45,0.5V291h44.9v11.8C1283,302.9,1283.4,303.1,1283.9,303.3z M1417.4,472
	H1374c-1.5-3.8-2-174-0.5-181.1h43.9V472z M1422.8,245.2c-0.1,14.9-12.4,26.9-27.6,26.9c-15.1,0-27.4-12.3-27.4-27.2
	c0-14.8,12.5-27.2,27.4-27.2C1410.4,217.6,1422.8,230,1422.8,245.2z M687.1,623.6V521.7c2.1-0.2,3.8-0.6,5.6-0.6c10,0.1,20,0,30,0.3
	c22.5,0.8,40.1,16.2,44.1,38.3c2.2,12.3,1.9,24.6-3.1,36.2c-7.3,17.1-20.8,26.2-38.9,27.8c-11.6,1-23.3,0.3-34.9,0.3
	C689.1,624.1,688.5,623.9,687.1,623.6L687.1,623.6z M694.9,616.7c9.6,0,18.9,0.4,28.1-0.1c19-1.1,31.5-14.1,35.2-30.1
	c1.8-7.7,2.1-15.4,1-23.2c-2.4-17.1-14.2-30.8-31-33.5c-10.6-1.7-21.5-0.9-32.3-1.1c-0.3,0-0.5,0.4-1,0.7V616.7L694.9,616.7z
	 M1108.4,550.2c0.3,3.6,0.4,6.2,0.7,9.7c1.5-1.2,2.5-1.8,3.3-2.7c15.2-14.8,39-10.9,48,8.3c6.7,14.3,6.6,29.1-0.1,43.4
	c-9,19-33.8,22.5-47.8,8.1c-0.8-0.8-1.7-1.5-3.5-3.1c-0.4,13.4,0,25.8-0.3,38.6h-7.2V550.6C1103.6,550.5,1105.8,550.4,1108.4,550.2
	L1108.4,550.2z M1108.8,587.1c0,4-0.1,8,0.1,12c0.1,2.1,0.2,4.5,1.3,6.2c5.3,8.7,12.7,13.9,23.4,13.3c9.8-0.6,16.6-5.8,20.4-14.5
	c4.9-11.2,4.9-22.7,0-33.9c-3.8-8.8-10.7-13.6-20.4-14.6c-11.2-1.2-27.1,9.7-24.8,22.6C1109.2,581,1108.8,584.1,1108.8,587.1z
	 M1362.7,614v38.7c-2.5,0.1-4.7,0.2-6.8,0.3c-1.5-4.5-1.7-96.9-0.2-102.4h6.5c0.2,2.9,0.5,5.8,0.8,9.4c1.4-1.3,2.2-2,3-2.8
	c13.3-14.5,40.4-11.3,48.9,10.3c5.3,13.5,5.2,27-0.5,40.3c-8.5,19.7-34.2,24.4-48.9,8.8C1364.9,616,1364.3,615.5,1362.7,614
	L1362.7,614z M1384.4,618.7c10.2,0,17.3-4.1,21.7-12.2c6.5-12.3,6.5-25,0.7-37.4c-4.1-8.7-11.4-13.4-21.1-13.4
	c-9.9-0.1-17.1,4.8-22,13.1c-0.8,1.3-1,3.1-1.1,4.7c-0.1,9.2-0.1,18.3,0,27.5c0,1.6,0.3,3.4,1.1,4.7
	C1368.7,613.6,1375.5,618.6,1384.4,618.7L1384.4,618.7z M1485.3,612.8v6.7c-7.5,5.8-16.4,7.2-25.7,6.1
	c-20.1-2.4-29.1-16.8-30.3-34.4c-0.7-10,1-19.6,6.2-28.3c8.8-15,26.7-17.4,38.8-11.8c3.1,1.4,6.1,3.7,8.2,6.3c7,8.4,8.7,18.3,8,29.8
	h-53.6c0,10.1,1.9,18.8,9.2,25C1458.6,622.7,1471.8,620.4,1485.3,612.8L1485.3,612.8z M1483.3,581c-0.7-9.5-2.7-17.8-10.9-22.9
	c-7.6-4.7-15.7-4.3-23.1,0.6c-7.8,5.1-11,12.8-11.8,22.3H1483.3z M835.4,612.4c0.1,1.2,0.2,1.9,0.2,2.6v4.3
	c-7.7,6.1-16.6,7.6-25.8,6.5c-22.2-2.7-29.3-18.8-30.5-33.8c-0.8-9.2,0.6-18.2,4.8-26.7c7.6-15.1,23.6-20.1,38.5-14.9
	c6.1,2.2,10.5,6.4,13.3,12.1c3.8,7.4,5.3,15.3,4.5,24.6h-53.5c0.1,11.4,2.5,21,11.6,27C810.6,622.2,823,620.3,835.4,612.4z
	 M833.1,581.1c-0.3-9.7-2.7-17.7-10.7-22.9c-7-4.7-16.9-4.2-23.9,1c-7.2,5.3-10.6,12.7-10.9,22C802.9,581.1,817.6,581.1,833.1,581.1
	L833.1,581.1z M1848.3,612.7v6.8c-7.4,5.8-16.3,7.3-25.3,6.2c-17.4-2.2-27.4-12.8-30.1-30.3c-1.6-10.2-0.3-20,3.9-29.2
	c6.6-14.4,21.4-21,36.6-16.6c6,1.7,10.8,5.2,14.2,10.4c5.2,8,6.7,16.9,5.9,27.1h-53.4c0,10.7,2.1,19.9,10.2,26
	C1822.5,622.3,1835.2,620.4,1848.3,612.7L1848.3,612.7z M1846,581c0.2-9.2-2.3-16.9-9.6-22.1c-7.3-5.2-15.4-5.1-23.1-0.7
	c-8.5,4.9-11.7,13-12.9,22.8H1846L1846,581z M979,587.2h-52.4c-0.6,10.5,1.8,19.4,9.6,25.6c12.2,9.7,25,7.5,38,0.3
	c0.2,1.2,0.3,2.1,0.4,3.1c0.1,1,0,2,0,3.3c-7.5,5.9-16.3,7.4-25.3,6.3c-18.1-2.3-28.8-14-30.3-32.2c-0.7-8.7-0.2-17.3,3.2-25.5
	c6.4-15.5,21.5-23.1,37.4-18.3c4,1.2,7.7,3.8,11,6.4C976.7,560.9,981.9,576.5,979,587.2L979,587.2z M927.2,580.9H972
	c1.4-14.1-7.8-25.5-20.5-25.9C938.4,554.7,926.6,567,927.2,580.9z M1265.7,619.5c-7.8,5.7-16.4,7.3-25.3,6.1
	c-18.4-2.5-28.9-14.1-30.3-32.7c-0.7-9.1,0-17.9,3.8-26.3c7.3-15.8,22.3-21.1,37.7-16.9c1.9,0.5,3.7,1.6,5.4,2.5
	c10,5.4,16.1,22.3,13,34.8h-52.5c-0.3,11,2.1,20.4,10.8,26.5c11.8,8.4,24.1,6.7,37-0.8C1265.4,615.4,1265.6,617.4,1265.7,619.5
	L1265.7,619.5z M1263.1,581c0.9-14.7-8.2-25.7-20.9-25.9c-13-0.2-24.4,11.9-23.9,25.9H1263.1z M1638,587.3h-52.4
	c-0.3,10.5,1.9,19.5,10.1,25.8c12.1,9.4,24.8,7.1,37.7,0v6.6c-5.1,4.7-12,5.9-19,6.2c-20.2,0.9-34.7-12.3-36.3-32.4
	c-0.8-9.9,0-19.6,4.7-28.6c7.5-14.5,22.6-19.3,37.3-14.9c1.1,0.3,2.1,0.9,3.2,1.4C1635.2,556.7,1641.1,575,1638,587.3L1638,587.3z
	 M1586.2,580.4c3.8,1.3,40.2,1.5,44.8,0.2c1.6-13.2-7.4-24.7-19.9-25.5C1597.8,554.2,1586.1,566.1,1586.2,580.4z M1085.5,587.3
	c-0.4,10-2.5,19.2-8.8,27.2c-13.7,17.3-44.2,15.6-53.8-8.6c-4.5-11.4-4.7-23-1-34.7c3.7-12,14.4-23.9,33-22.7
	c13.6,0.8,25,10.4,28.7,25.1C1084.6,578,1084.9,582.7,1085.5,587.3L1085.5,587.3z M1077.2,587.3c0.4-7.2-1-14.3-4.9-20.8
	c-9.3-15.3-30.7-15.6-39.6-0.2c-7.8,13.5-7.8,27.9,0,41.4c8.8,15.2,30,15.1,39.4,0.3C1076,601.9,1077.5,595,1077.2,587.3
	L1077.2,587.3z M1655.4,550.6h6.9c0.2,3.2,0.4,6.1,0.7,10.1c1.8-1.7,3.1-2.8,4.3-4c7.5-7.3,16.5-9.7,26.6-7.5
	c11,2.4,18.1,10.2,18.5,21.9c0.5,17.1,0.1,34.3,0.1,51.5c0,0.3-0.2,0.6-0.5,1.3h-6.5c-0.1-1.8-0.3-3.6-0.3-5.4v-43
	c-0.7-16.3-15-24.8-29.7-17.4c-5.3,2.6-9.2,6.6-11.7,11.9c-0.8,1.7-1,3.8-1,5.8c-0.1,14,0,28,0,42v6.1c-2.4,0.1-4.6,0.3-7.2,0.4
	C1655.4,599.5,1655.4,575.4,1655.4,550.6L1655.4,550.6z M1911.4,554.7v8.1c-2.1-1.3-3.7-2.3-5.4-3.2c-8.1-4.4-16.4-6.3-25.3-2.6
	c-6.8,2.9-9.9,9.6-6.6,15.3c1.5,2.7,4.5,5,7.3,6.3c5.5,2.7,11.4,4.6,17.1,6.8c2,0.8,4,1.6,5.9,2.6c7,3.9,10.7,9.8,10.3,17.9
	c-0.4,7.9-4.4,13.6-11.5,16.7c-13.1,5.7-25.6,3.5-37.7-3.7v-8c1.7,1,3.2,1.8,4.5,2.6c7.7,4.8,16.1,6.2,24.9,4.7
	c10.1-1.7,15.5-11.3,10.4-19c-1.8-2.7-5-4.8-8-6.3c-4.3-2.1-9-3.4-13.5-5.2c-3.2-1.3-6.5-2.6-9.5-4.3c-6.2-3.5-9.1-9-9-16.1
	c0.2-7.1,3.4-12.7,9.7-15.7C1887.6,545.8,1899.7,547.8,1911.4,554.7L1911.4,554.7z M1313.6,586.2c8.8,12.3,17.6,24.6,26.9,37.5h-8.5
	c-7.2-9.9-14.7-20.2-22.7-31.2c-8.7,10.2-15.4,21.3-23.6,31.4h-7.9c9.2-12.8,17.9-24.8,27.1-37.4c-8.4-11.7-16.7-23.4-25.7-35.8h8.5
	c6.9,9.5,14,19.3,21.6,29.9c7.6-10.4,14.8-20.2,22-30.1h7.8C1330.8,563,1321.8,574.1,1313.6,586.2L1313.6,586.2z M880.2,612.2
	c8-20.5,16-40.9,24.1-61.6h7.9c-9.8,24.9-19.4,49-29,73.3H876c-9.6-24-19.2-48.2-29.2-73.2c3-0.2,5.3-0.4,8-0.6
	C863,571,871,591.5,879,612L880.2,612.2z M1781.5,612.7v7.1c-6.9,5.2-14.8,7.1-23.3,5.8c-17.9-2.7-29.1-15.6-30.2-33.7
	c-0.6-9.3,0.3-18.2,4.9-26.6c9.4-17,29-20.2,43.2-14.2c1.9,0.8,3.7,2.2,5.6,3.3v4.7c0,0.6-0.2,1.2-0.4,2.2c-2.3-1.2-4.3-2.4-6.3-3.4
	c-14-6.6-29.8-1.1-36.1,13c-4.9,10.9-4.9,22.1,0.3,32.9c8.1,17,26.3,17.7,37.4,11.7C1777.9,614.8,1779.3,614,1781.5,612.7z
	 M1629.2,318.8c0-19.7,14.4-34.3,33.8-34.2c19.2,0,33.8,14.9,33.7,34.4c0,16.4-11.3,33.6-33.9,33.7
	C1641,352.8,1628.8,335.7,1629.2,318.8L1629.2,318.8z M1662.9,347.6c15.9,0,28.2-12.6,28.2-28.8c0-16.4-12.6-29.3-28.4-29.3
	c-16.1,0.1-28.1,12.7-28.1,29.4C1634.7,335.3,1646.9,347.6,1662.9,347.6L1662.9,347.6z M995.7,515.6h7.6v108h-7.6V515.6z
	 M1513.7,623.7c-1.8,0.2-3,0.4-4.1,0.4c-1,0-1.9-0.3-3.1-0.4v-73c2.2-0.1,4.4-0.2,6.9-0.4c0.4,3.4,0.8,6.3,1.4,10.5
	c6.6-9.6,14.6-14.2,25.8-11.5v6.6c-1.7,0-3,0.1-4.3,0c-11.9-0.6-22,8.6-22.1,20.6l-0.1,40.4C1514.1,619,1513.9,621.2,1513.7,623.7
	L1513.7,623.7z M1554.4,550.6h6.9v73.2c-2.1,0.1-4.2,0.2-6.9,0.4V550.6L1554.4,550.6z M1552.2,526.9c1.9-4.7,3.4-6,6.7-5.3
	c2.7,0.5,3.9,2.4,4,5c0.1,2.6-1.1,4.5-3.6,5.3C1556.2,532.8,1554.3,531.4,1552.2,526.9z M1649.5,300.7c6.4,0,12.6-0.4,18.7,0.1
	c5.2,0.4,9.1,3.5,10.2,8.9c1,5.2,0.3,10-4.6,13.2l-1.5,1.4c2.2,3.6,4.3,7.2,6.9,11.4h-9.7c-4-2.7-3.7-9.9-10.8-10.8v10.8h-9.1
	C1649.5,324.3,1649.5,312.9,1649.5,300.7L1649.5,300.7z M1668.8,315.3c1-6.3-1.9-8.1-9.9-6v8
	C1662.7,317.4,1666.2,318.5,1668.8,315.3z"/>
<path class="st0" d="M383.5,232.7L297.8,147L212,232.8l33.9,33.9l51.9-51.9l51.8,51.8l-85.9,85.9l119.7,119.7l119.9-119.9
	l-85.7-85.7l51.4-51.4l51.9,51.9l33.9-33.9l-85.9-85.8L383.5,232.7L383.5,232.7z M435.3,352.5l-51.9,51.9l-51.8-51.8l51.9-51.9
	L435.3,352.5L435.3,352.5z"/>
</svg>
