<?xml version="1.0" encoding="utf-8"?>
<!-- Generator: Adobe Illustrator 19.1.0, SVG Export Plug-In . SVG Version: 6.00 Build 0)  -->
<!DOCTYPE svg PUBLIC "-//W3C//DTD SVG 1.1//EN" "http://www.w3.org/Graphics/SVG/1.1/DTD/svg11.dtd">
<svg version="1.1" id="Layer_1" xmlns="http://www.w3.org/2000/svg" xmlns:xlink="http://www.w3.org/1999/xlink" x="0px" y="0px"
	 viewBox="-376 281 527 240" style="enable-background:new -376 281 527 240;" xml:space="preserve">
<style type="text/css">
	.st0{fill:#808080;}
	.st1{fill:#FFFFFF;}
</style>
<g>
	<circle class="st0" cx="118.4" cy="340" r="31.4"/>
	<path class="st1" d="M97,335.8c-2.3,0-4.2,1.9-4.2,4.2c0,2.3,1.9,4.2,4.2,4.2s4.2-1.9,4.2-4.2C101.2,337.7,99.3,335.8,97,335.8z
		 M126.9,354.8c-2,1.2-2.7,3.7-1.5,5.7s3.7,2.7,5.7,1.5c2-1.2,2.7-3.7,1.5-5.7C131.5,354.4,128.9,353.7,126.9,354.8z M106.1,340
		c0-4.1,2.1-7.8,5.2-10l-3.1-5.1c-3.7,2.5-6.4,6.2-7.5,10.6c1.3,1.1,2.2,2.7,2.2,4.6c0,1.8-0.8,3.5-2.2,4.6
		c1.1,4.4,3.9,8.1,7.5,10.6l3.1-5.1C108.2,347.8,106.1,344.1,106.1,340L106.1,340z M118.4,327.7c6.4,0,11.6,4.9,12.2,11.2l6-0.1
		c-0.3-4.6-2.3-8.8-5.4-11.8c-1.6,0.6-3.4,0.5-5-0.4c-1.6-0.9-2.6-2.5-2.9-4.2c-1.5-0.4-3.2-0.7-4.9-0.7c-2.9,0-5.6,0.7-8.1,1.9
		l2.9,5.2C114.8,328.1,116.5,327.7,118.4,327.7z M118.4,352.2c-1.8,0-3.6-0.4-5.2-1.1l-2.9,5.2c2.4,1.2,5.2,1.9,8.1,1.9
		c1.7,0,3.3-0.2,4.9-0.7c0.3-1.7,1.3-3.2,2.9-4.2c1.6-0.9,3.4-1,5-0.4c3.1-3,5.1-7.2,5.4-11.8l-6-0.1
		C130,347.3,124.8,352.2,118.4,352.2L118.4,352.2z M126.9,325.1c2,1.2,4.6,0.5,5.7-1.5c1.2-2,0.5-4.6-1.5-5.7
		c-2-1.2-4.6-0.5-5.7,1.5C124.2,321.4,124.9,324,126.9,325.1z"/>
	<path class="st0" d="M-312,422.3c-3.2,0.8-7.4,1.6-12.6,2.5s-11.3,1.3-18.2,1.3c-6,0-11-0.9-15.1-2.6c-4.1-1.7-7.4-4.2-9.9-7.4
		c-2.5-3.2-4.3-7-5.4-11.3c-1.1-4.3-1.6-9.1-1.6-14.4v-43.6h13.9v40.7c0,9.5,1.5,16.2,4.5,20.3s8,6.1,15.1,6.1c1.5,0,3-0.1,4.6-0.2
		c1.6-0.1,3.1-0.2,4.5-0.4c1.4-0.1,2.7-0.3,3.8-0.4s2-0.3,2.5-0.5v-65.6h13.9L-312,422.3L-312,422.3z M-278,350.3
		c1.7-1.1,4.3-2.2,7.7-3.4c3.4-1.2,7.4-1.8,11.9-1.8c5.6,0,10.5,1,14.9,3c4.3,2,8,4.8,11,8.4c3,3.6,5.3,7.9,6.8,12.9
		s2.3,10.5,2.3,16.4c0,6.3-0.9,11.9-2.8,17c-1.8,5-4.5,9.3-7.8,12.8c-3.4,3.5-7.5,6.2-12.3,8.1c-4.8,1.9-10.2,2.8-16.1,2.8
		c-6.5,0-12.2-0.4-17.2-1.3c-5-0.9-9.1-1.8-12.3-2.7V311l13.9-2.4V350.3z M-278,412.5c1.4,0.4,3.4,0.8,5.9,1.1
		c2.5,0.4,5.7,0.5,9.5,0.5c7.5,0,13.5-2.5,17.9-7.4c4.5-4.9,6.7-11.9,6.7-21c0-4-0.4-7.7-1.2-11.2c-0.8-3.5-2.1-6.5-3.9-9
		s-4.1-4.5-7-6c-2.8-1.4-6.3-2.2-10.2-2.2c-3.8,0-7.3,0.6-10.5,1.9c-3.2,1.3-5.6,2.6-7.3,4L-278,412.5L-278,412.5z M-145.9,422.3
		c-3.2,0.8-7.4,1.6-12.6,2.5s-11.3,1.3-18.2,1.3c-6,0-11-0.9-15.1-2.6c-4.1-1.7-7.4-4.2-9.9-7.4c-2.5-3.2-4.3-7-5.4-11.3
		c-1.1-4.3-1.6-9.1-1.6-14.4v-43.6h13.9v40.7c0,9.5,1.5,16.2,4.5,20.3s8,6.1,15.1,6.1c1.5,0,3-0.1,4.6-0.2s3.1-0.2,4.5-0.4
		c1.4-0.1,2.7-0.3,3.8-0.4c1.1-0.1,2-0.3,2.5-0.5v-65.6h13.9L-145.9,422.3L-145.9,422.3z M-125.9,349.1c3.2-0.8,7.4-1.6,12.7-2.5
		s11.4-1.3,18.2-1.3c6.2,0,11.3,0.9,15.4,2.6c4.1,1.7,7.3,4.2,9.8,7.3c2.4,3.1,4.2,6.9,5.2,11.3c1,4.4,1.5,9.2,1.5,14.5v43.6H-77
		v-40.7c0-4.8-0.3-8.9-1-12.3c-0.6-3.4-1.7-6.1-3.2-8.2s-3.5-3.6-6-4.6c-2.5-0.9-5.6-1.4-9.3-1.4c-1.5,0-3,0.1-4.6,0.1
		c-1.6,0.1-3.1,0.2-4.6,0.4c-1.4,0.1-2.7,0.3-3.9,0.5c-1.1,0.2-2,0.3-2.5,0.4v65.6H-126L-125.9,349.1L-125.9,349.1z M-31,346.8h29.4
		v11.7H-31v35.9c0,3.9,0.3,7.1,0.9,9.6c0.6,2.5,1.5,4.5,2.7,6c1.2,1.4,2.7,2.5,4.5,3.1s3.9,0.9,6.3,0.9c4.3,0,7.7-0.5,10.2-1.4
		s4.2-1.6,5.1-2l3,11.4c-1.4,0.7-3.9,1.6-7.4,2.7c-3.5,1.1-7.5,1.6-12,1.6c-5.3,0-9.6-0.7-13.1-2c-3.4-1.3-6.2-3.4-8.3-6.1
		c-2.1-2.7-3.6-6-4.4-9.9c-0.8-3.9-1.3-8.5-1.3-13.7v-69.4l13.9-2.4L-31,346.8L-31,346.8z M74.1,422.3c-3.2,0.8-7.4,1.6-12.6,2.5
		c-5.2,0.9-11.3,1.3-18.2,1.3c-6,0-11-0.9-15.1-2.6c-4.1-1.7-7.4-4.2-9.9-7.4c-2.5-3.2-4.3-7-5.4-11.3c-1.1-4.3-1.6-9.1-1.6-14.4
		v-43.6h13.9v40.7c0,9.5,1.5,16.2,4.5,20.3s8,6.1,15.1,6.1c1.5,0,3-0.1,4.6-0.2s3.1-0.2,4.5-0.4c1.4-0.1,2.7-0.3,3.8-0.4
		s2-0.3,2.5-0.5v-65.6h13.9V422.3L74.1,422.3z"/>
	<path class="st0" d="M-346.1,468.6c0,2.7-0.4,5.1-1.3,7.1c-0.9,2-2.1,3.7-3.6,5.1c-1.6,1.3-3.4,2.4-5.5,3c-2.1,0.7-4.5,1-7.1,1
		c-1.3,0-2.6-0.1-4.1-0.2s-2.7-0.3-3.7-0.6v-30.8c1.1-0.3,2.3-0.5,3.7-0.7c1.4-0.1,2.8-0.2,4.1-0.2c2.6,0,4.9,0.3,7.1,1
		c2.1,0.7,4,1.7,5.5,3c1.5,1.4,2.8,3,3.6,5.1C-346.5,463.5-346.1,465.9-346.1,468.6z M-368.3,481.8c0.2,0,0.7,0.1,1.4,0.2
		c0.8,0.1,2,0.1,3.6,0.1c2.3,0,4.3-0.3,6-0.9s3.2-1.5,4.3-2.7c1.2-1.2,2-2.6,2.6-4.3c0.6-1.7,0.9-3.6,0.9-5.6c0-2.1-0.3-4-0.9-5.6
		c-0.6-1.7-1.5-3.1-2.6-4.2c-1.2-1.2-2.6-2.1-4.3-2.7c-1.7-0.6-3.7-0.9-6-0.9c-1.7,0-2.9,0-3.6,0.1l-1.4,0.2V481.8L-368.3,481.8z
		 M-341.4,472.6c0-2.1,0.3-3.9,0.9-5.5c0.6-1.6,1.4-2.8,2.3-3.9c1-1,2.1-1.8,3.3-2.3s2.5-0.8,3.8-0.8c2.9,0,5.2,0.9,7,2.9
		c1.7,1.9,2.6,4.8,2.6,8.8v0.7c0,0.2,0,0.5-0.1,0.7h-16.7c0.1,2.9,0.8,5.2,2.2,6.7c1.3,1.6,3.5,2.3,6.4,2.3c1.6,0,2.9-0.2,3.9-0.5
		s1.6-0.6,2.1-0.8l0.6,2.6c-0.4,0.2-1.2,0.5-2.4,0.9c-1.2,0.3-2.6,0.5-4.2,0.5c-2.1,0-3.9-0.3-5.3-0.9c-1.5-0.6-2.7-1.5-3.6-2.6
		c-1-1.1-1.6-2.4-2.1-3.9C-341.2,476.1-341.4,474.5-341.4,472.6L-341.4,472.6z M-324.5,470.8c-0.1-2.5-0.6-4.4-1.7-5.8
		c-1.1-1.4-2.7-2.1-4.7-2.1c-1.1,0-2,0.2-2.9,0.6c-0.8,0.4-1.6,1-2.2,1.7c-0.6,0.7-1.1,1.6-1.5,2.5c-0.4,1-0.6,1.9-0.6,3
		L-324.5,470.8L-324.5,470.8L-324.5,470.8z M-309.8,485c-1,0-1.9-0.2-2.6-0.4c-0.8-0.2-1.4-0.6-1.9-1.1s-0.9-1.1-1.2-1.8
		c-0.3-0.8-0.4-1.7-0.4-2.8v-29.5l3-0.6v29.9c0,0.7,0.1,1.3,0.2,1.8c0.1,0.4,0.3,0.8,0.6,1.1c0.3,0.3,0.6,0.5,1.1,0.6
		c0.4,0.1,1,0.2,1.6,0.3L-309.8,485L-309.8,485z M-301.1,453.6c0,0.7-0.2,1.3-0.6,1.7c-0.4,0.4-1,0.6-1.6,0.6
		c-0.6,0-1.1-0.2-1.6-0.6c-0.4-0.4-0.6-1-0.6-1.7c0-0.7,0.2-1.3,0.6-1.7c0.4-0.4,0.9-0.6,1.6-0.6c0.6,0,1.1,0.2,1.6,0.6
		C-301.3,452.3-301.1,452.9-301.1,453.6z M-301.8,484.6h-3v-23.8h3V484.6z M-287.2,481.3c0.6-1.3,1.3-2.8,2-4.5s1.3-3.5,2-5.3
		l1.8-5.5c0.5-1.9,1-3.6,1.4-5.2h3c-0.6,2.2-1.2,4.3-1.9,6.4c-0.7,2.1-1.4,4.2-2.2,6.2s-1.5,4-2.4,5.8c-0.8,1.9-1.6,3.6-2.4,5.3
		h-2.8c-0.8-1.7-1.6-3.4-2.4-5.3s-1.6-3.8-2.3-5.8c-0.8-2-1.5-4.1-2.2-6.2s-1.3-4.3-1.9-6.4h3.2c0.4,1.6,0.8,3.4,1.4,5.2
		c0.5,1.9,1.1,3.7,1.8,5.5c0.6,1.8,1.3,3.6,2,5.3C-288.5,478.5-287.8,480-287.2,481.3z M-274.7,472.6c0-2.1,0.3-3.9,0.9-5.5
		c0.6-1.6,1.4-2.8,2.3-3.9c1-1,2.1-1.8,3.3-2.3c1.2-0.5,2.5-0.8,3.8-0.8c2.9,0,5.2,0.9,7,2.9c1.7,1.9,2.6,4.8,2.6,8.8v0.7
		c0,0.2,0,0.5-0.1,0.7h-16.7c0.1,2.9,0.8,5.2,2.2,6.7c1.3,1.6,3.5,2.3,6.4,2.3c1.6,0,2.9-0.2,3.9-0.5s1.6-0.6,2.1-0.8l0.6,2.6
		c-0.4,0.2-1.2,0.5-2.4,0.9c-1.2,0.3-2.6,0.5-4.2,0.5c-2.1,0-3.9-0.3-5.3-0.9c-1.5-0.6-2.7-1.5-3.6-2.6c-1-1.1-1.6-2.4-2.1-3.9
		C-274.5,476.1-274.7,474.5-274.7,472.6L-274.7,472.6z M-257.8,470.8c-0.1-2.5-0.6-4.4-1.7-5.8c-1.1-1.4-2.7-2.1-4.7-2.1
		c-1.1,0-2,0.2-2.9,0.6c-0.8,0.4-1.6,1-2.2,1.7c-0.6,0.7-1.1,1.6-1.5,2.5c-0.4,1-0.6,1.9-0.6,3L-257.8,470.8L-257.8,470.8
		L-257.8,470.8z M-241,460.3c1,0,1.9,0.1,2.8,0.2c0.9,0.2,1.5,0.3,1.8,0.5l-0.6,2.6c-0.2-0.1-0.7-0.3-1.5-0.4s-1.7-0.2-3-0.2
		s-2.3,0.1-3.1,0.3c-0.8,0.2-1.3,0.3-1.5,0.5v20.9h-3v-22.8c0.8-0.3,1.8-0.7,3.2-1C-244.6,460.5-242.9,460.3-241,460.3L-241,460.3z
		 M-234.5,472.6c0-2.1,0.3-3.9,0.9-5.5s1.4-2.8,2.3-3.9c1-1,2.1-1.8,3.3-2.3c1.2-0.5,2.5-0.8,3.8-0.8c2.9,0,5.2,0.9,7,2.9
		c1.7,1.9,2.6,4.8,2.6,8.8v0.7c0,0.2,0,0.5-0.1,0.7h-16.7c0.1,2.9,0.8,5.2,2.2,6.7c1.4,1.6,3.5,2.3,6.4,2.3c1.6,0,2.9-0.2,3.9-0.5
		s1.6-0.6,2.1-0.8l0.6,2.6c-0.4,0.2-1.2,0.5-2.4,0.9c-1.2,0.3-2.6,0.5-4.2,0.5c-2.1,0-3.9-0.3-5.3-0.9c-1.5-0.6-2.7-1.5-3.6-2.6
		s-1.6-2.4-2.1-3.9C-234.2,476.1-234.5,474.5-234.5,472.6L-234.5,472.6z M-217.6,470.8c-0.1-2.5-0.6-4.4-1.7-5.8s-2.7-2.1-4.7-2.1
		c-1.1,0-2,0.2-2.9,0.6c-0.8,0.4-1.6,1-2.2,1.7s-1.1,1.6-1.5,2.5c-0.4,1-0.6,1.9-0.6,3L-217.6,470.8L-217.6,470.8L-217.6,470.8z
		 M-189.6,483.8c-0.9,0.3-2,0.6-3.4,0.9s-3.1,0.4-5.2,0.4c-1.7,0-3.3-0.3-4.8-0.9c-1.4-0.6-2.7-1.4-3.7-2.5s-1.8-2.4-2.4-3.9
		s-0.9-3.3-0.9-5.2c0-1.8,0.2-3.5,0.7-5s1.2-2.8,2.1-3.9s2-2,3.4-2.6c1.3-0.6,2.9-0.9,4.6-0.9c1.6,0,2.9,0.2,4.1,0.7
		c1.2,0.4,2,0.9,2.5,1.3v-12.8l3-0.6L-189.6,483.8L-189.6,483.8z M-192.6,465.1c-0.3-0.2-0.6-0.4-1-0.7c-0.4-0.2-0.9-0.5-1.5-0.7
		s-1.2-0.4-1.8-0.5c-0.6-0.1-1.3-0.2-2-0.2c-1.5,0-2.7,0.3-3.7,0.8s-1.8,1.2-2.4,2.1s-1.1,1.9-1.3,3.1c-0.3,1.2-0.4,2.4-0.4,3.8
		c0,3.1,0.8,5.5,2.3,7.2c1.6,1.7,3.6,2.5,6.2,2.5c1.5,0,2.7-0.1,3.6-0.2s1.6-0.3,2-0.4L-192.6,465.1L-192.6,465.1z M-168.2,462.2
		c0.5-0.4,1.4-0.8,2.5-1.3c1.2-0.4,2.5-0.7,4.1-0.7c1.7,0,3.2,0.3,4.6,0.9c1.3,0.6,2.5,1.5,3.4,2.6s1.6,2.4,2.1,3.9s0.7,3.2,0.7,5
		c0,1.9-0.3,3.7-0.9,5.2s-1.4,2.8-2.4,3.9s-2.3,1.9-3.7,2.5c-1.4,0.6-3,0.9-4.8,0.9c-2.1,0-3.9-0.1-5.2-0.4
		c-1.4-0.3-2.5-0.6-3.4-0.9v-34.4l3-0.6L-168.2,462.2L-168.2,462.2z M-168.2,481.8c0.5,0.2,1.1,0.3,2,0.4s2.1,0.2,3.6,0.2
		c2.6,0,4.6-0.8,6.2-2.5s2.3-4.1,2.3-7.2c0-1.3-0.1-2.6-0.4-3.8c-0.3-1.2-0.7-2.2-1.3-3.1c-0.6-0.9-1.4-1.6-2.4-2.1
		s-2.2-0.8-3.7-0.8c-0.7,0-1.4,0.1-2,0.2s-1.2,0.3-1.8,0.5c-0.6,0.2-1,0.4-1.4,0.7c-0.4,0.2-0.8,0.5-1,0.7L-168.2,481.8
		L-168.2,481.8z M-138.8,485.1c-1-1.9-2-3.8-2.9-5.9c-0.9-2-1.8-4.1-2.6-6.1c-0.8-2.1-1.6-4.1-2.2-6.2c-0.7-2.1-1.3-4.1-1.7-6.1h3.2
		c0.3,1.5,0.8,3.1,1.3,4.8c0.5,1.7,1.1,3.5,1.8,5.3c0.7,1.8,1.4,3.7,2.2,5.6c0.8,1.9,1.7,3.8,2.6,5.6c0.7-1.9,1.3-3.7,1.8-5.4
		c0.5-1.7,1-3.4,1.5-5c0.5-1.7,0.9-3.4,1.3-5.1s0.8-3.6,1.3-5.7h3c-1,4.5-2.1,8.8-3.4,13c-1.2,4.2-2.6,8.1-4.1,11.5
		c-0.6,1.4-1.2,2.6-1.8,3.6c-0.6,1-1.3,1.8-2.1,2.5c-0.8,0.6-1.6,1.1-2.6,1.4s-2.2,0.5-3.5,0.5c-0.8,0-1.5-0.1-2.1-0.3
		c-0.6-0.2-1-0.3-1.2-0.4l0.6-2.5c0.1,0.1,0.5,0.2,1,0.4c0.6,0.2,1.2,0.3,1.8,0.3c0.9,0,1.6-0.1,2.3-0.3c0.7-0.2,1.3-0.5,1.9-0.9
		s1.1-1,1.5-1.7C-139.7,487-139.3,486.2-138.8,485.1L-138.8,485.1z M-99.6,485.3c-2.1,0-4-0.4-5.7-1.1c-1.8-0.7-3.3-1.8-4.6-3.2
		c-1.3-1.4-2.3-3.2-3.1-5.2c-0.8-2.1-1.1-4.4-1.1-7.1s0.4-5,1.2-7.1s1.9-3.8,3.2-5.2s2.9-2.5,4.7-3.2c1.8-0.7,3.6-1.1,5.6-1.1
		c1.2,0,2.3,0.1,3.3,0.2c1,0.1,1.8,0.3,2.6,0.6c0.7,0.2,1.4,0.5,1.9,0.7c0.5,0.2,0.9,0.4,1.2,0.6l-1,2.7c-0.8-0.5-1.7-0.9-2.9-1.4
		c-1.2-0.4-2.6-0.7-4.4-0.7c-2,0-3.7,0.3-5.2,1c-1.5,0.7-2.7,1.6-3.8,2.9c-1,1.2-1.8,2.7-2.3,4.4c-0.5,1.7-0.8,3.6-0.8,5.6
		c0,2.1,0.3,4,0.8,5.7s1.3,3.2,2.2,4.3c1,1.2,2.2,2.1,3.6,2.8c1.4,0.6,3.1,1,4.9,1c2,0,3.7-0.2,5.1-0.6c1.4-0.4,2.4-0.8,3.1-1.2
		l0.9,2.7c-0.2,0.2-0.6,0.3-1.1,0.5s-1.2,0.4-2,0.6s-1.7,0.4-2.8,0.5C-97.1,485.2-98.3,485.3-99.6,485.3L-99.6,485.3z M-77.9,460.2
		c1.6,0,2.9,0.2,4,0.7c1.1,0.4,2,1.1,2.6,1.8c0.7,0.8,1.2,1.7,1.5,2.8c0.3,1.1,0.5,2.2,0.5,3.5v15c-0.3,0.1-0.8,0.2-1.3,0.3
		c-0.6,0.1-1.3,0.2-2,0.3c-0.8,0.1-1.6,0.2-2.6,0.3c-0.9,0.1-1.9,0.1-2.9,0.1c-1.3,0-2.4-0.1-3.5-0.4s-2-0.7-2.8-1.3
		c-0.8-0.6-1.4-1.4-1.8-2.3s-0.7-2.1-0.7-3.4s0.2-2.4,0.7-3.3s1.2-1.7,2.1-2.3c0.9-0.6,1.9-1,3.2-1.3c1.2-0.3,2.6-0.4,4-0.4
		c0.4,0,0.9,0,1.4,0.1c0.5,0,0.9,0.1,1.4,0.2c0.4,0.1,0.8,0.2,1.2,0.2c0.3,0.1,0.5,0.1,0.7,0.2v-1.5c0-0.8-0.1-1.6-0.2-2.4
		c-0.1-0.8-0.4-1.5-0.8-2.1c-0.4-0.6-1-1.1-1.7-1.5c-0.8-0.4-1.7-0.6-3-0.6c-1.7,0-3.1,0.1-3.9,0.4c-0.9,0.2-1.5,0.4-1.9,0.6
		l-0.4-2.6c0.5-0.2,1.3-0.5,2.4-0.7C-80.8,460.3-79.5,460.2-77.9,460.2L-77.9,460.2z M-77.6,482.4c1.2,0,2.2,0,3.1-0.1
		c0.9-0.1,1.6-0.2,2.2-0.3v-8.4c-0.3-0.2-0.9-0.3-1.6-0.5c-0.7-0.2-1.7-0.3-3-0.3c-0.7,0-1.5,0.1-2.3,0.2s-1.5,0.3-2.2,0.7
		c-0.7,0.4-1.2,0.8-1.7,1.4c-0.4,0.6-0.6,1.4-0.6,2.4c0,0.9,0.1,1.6,0.4,2.3c0.3,0.6,0.7,1.1,1.2,1.5s1.2,0.6,1.9,0.8
		C-79.4,482.3-78.6,482.4-77.6,482.4L-77.6,482.4z M-62.5,461.6c0.9-0.2,2.1-0.5,3.6-0.8s3.3-0.5,5.5-0.5c1.8,0,3.3,0.3,4.5,0.8
		s2.2,1.3,2.9,2.2c0.7,1,1.2,2.1,1.5,3.5s0.5,2.8,0.5,4.5v13.3h-3v-12.3c0-1.7-0.1-3.1-0.3-4.3c-0.2-1.2-0.6-2.1-1.2-2.9
		c-0.5-0.7-1.2-1.3-2.1-1.6c-0.9-0.3-2-0.5-3.3-0.5c-1.4,0-2.6,0.1-3.7,0.2c-1,0.2-1.7,0.3-2,0.4v20.9h-3L-62.5,461.6L-62.5,461.6z
		 M-16.7,472.7c0,1.9-0.3,3.6-0.8,5.1s-1.3,2.8-2.3,3.9s-2.1,1.9-3.4,2.5c-1.3,0.6-2.8,0.9-4.4,0.9s-3.1-0.3-4.4-0.9
		c-1.3-0.6-2.5-1.4-3.4-2.5c-1-1.1-1.7-2.4-2.3-3.9c-0.5-1.5-0.8-3.2-0.8-5.1s0.3-3.6,0.8-5.1s1.3-2.8,2.3-3.9s2.1-1.9,3.4-2.5
		c1.3-0.6,2.8-0.9,4.4-0.9s3.1,0.3,4.4,0.9c1.3,0.6,2.5,1.4,3.4,2.5c1,1.1,1.7,2.4,2.3,3.9C-17,469.1-16.7,470.8-16.7,472.7z
		 M-19.9,472.7c0-3-0.7-5.3-2.1-7.1c-1.4-1.8-3.3-2.7-5.6-2.7c-2.4,0-4.2,0.9-5.6,2.7c-1.4,1.8-2.1,4.1-2.1,7.1s0.7,5.3,2.1,7.1
		c1.4,1.7,3.3,2.6,5.6,2.6c2.4,0,4.2-0.9,5.6-2.6C-20.6,478-19.9,475.7-19.9,472.7z M-11,461.6c0.9-0.2,2.1-0.5,3.6-0.8
		s3.3-0.5,5.5-0.5c1.8,0,3.3,0.3,4.5,0.8s2.2,1.3,2.9,2.2c0.7,1,1.2,2.1,1.5,3.5s0.5,2.8,0.5,4.5v13.3h-3v-12.3
		c0-1.7-0.1-3.1-0.3-4.3c-0.2-1.2-0.6-2.1-1.2-2.9c-0.5-0.7-1.2-1.3-2.1-1.6c-0.9-0.3-2-0.5-3.3-0.5c-1.4,0-2.6,0.1-3.7,0.2
		c-1,0.2-1.7,0.3-2,0.4v20.9h-3L-11,461.6L-11,461.6z M18,453.6c0,0.7-0.2,1.3-0.6,1.7c-0.4,0.4-1,0.6-1.6,0.6s-1.1-0.2-1.6-0.6
		c-0.4-0.4-0.6-1-0.6-1.7c0-0.7,0.2-1.3,0.6-1.7c0.4-0.4,0.9-0.6,1.6-0.6s1.1,0.2,1.6,0.6C17.7,452.3,18,452.9,18,453.6z
		 M17.3,484.6h-3v-23.8h3V484.6z M34.2,485.1c-1.8,0-3.5-0.3-4.9-0.9s-2.6-1.4-3.5-2.5s-1.6-2.4-2.1-3.9s-0.7-3.2-0.7-5
		c0-1.9,0.3-3.6,0.8-5.1s1.2-2.9,2.2-4s2.1-2,3.5-2.6c1.3-0.6,2.9-0.9,4.6-0.9c1.3,0,2.5,0.1,3.6,0.3c1.1,0.2,2,0.5,2.6,0.8
		l-0.8,2.6c-0.6-0.3-1.3-0.6-2.1-0.7c-0.8-0.2-1.8-0.3-3.1-0.3c-2.6,0-4.6,0.9-6,2.6s-2,4.1-2,7.3c0,1.4,0.2,2.7,0.5,3.9
		c0.3,1.2,0.8,2.2,1.5,3s1.6,1.5,2.7,2s2.4,0.7,4,0.7c1.3,0,2.4-0.1,3.2-0.4c0.9-0.3,1.5-0.5,1.9-0.8l0.6,2.6
		c-0.6,0.3-1.4,0.6-2.6,0.9C36.7,484.9,35.5,485.1,34.2,485.1z M52.5,460.2c1.6,0,2.9,0.2,4,0.7c1.1,0.4,2,1.1,2.6,1.8
		c0.7,0.8,1.2,1.7,1.5,2.8c0.3,1.1,0.5,2.2,0.5,3.5v15c-0.3,0.1-0.8,0.2-1.3,0.3c-0.6,0.1-1.3,0.2-2,0.3c-0.8,0.1-1.6,0.2-2.6,0.3
		c-0.9,0.1-1.9,0.1-2.9,0.1c-1.3,0-2.4-0.1-3.5-0.4s-2-0.7-2.8-1.3c-0.8-0.6-1.4-1.4-1.8-2.3c-0.4-0.9-0.7-2.1-0.7-3.4
		s0.2-2.4,0.7-3.3s1.2-1.7,2.1-2.3c0.9-0.6,1.9-1,3.2-1.3c1.2-0.3,2.6-0.4,4-0.4c0.4,0,0.9,0,1.4,0.1c0.5,0,0.9,0.1,1.4,0.2
		c0.4,0.1,0.8,0.2,1.2,0.2c0.3,0.1,0.5,0.1,0.7,0.2v-1.5c0-0.8-0.1-1.6-0.2-2.4c-0.1-0.8-0.4-1.5-0.8-2.1c-0.4-0.6-1-1.1-1.7-1.5
		c-0.8-0.4-1.7-0.6-3-0.6c-1.7,0-3.1,0.1-3.9,0.4c-0.9,0.2-1.5,0.4-1.9,0.6l-0.4-2.6c0.5-0.2,1.3-0.5,2.4-0.7
		C49.7,460.3,51,460.2,52.5,460.2L52.5,460.2z M52.8,482.4c1.2,0,2.2,0,3.1-0.1c0.9-0.1,1.6-0.2,2.2-0.3v-8.4
		c-0.3-0.2-0.9-0.3-1.6-0.5c-0.7-0.2-1.7-0.3-3-0.3c-0.7,0-1.5,0.1-2.3,0.2s-1.5,0.3-2.2,0.7c-0.7,0.4-1.2,0.8-1.7,1.4
		c-0.4,0.6-0.6,1.4-0.6,2.4c0,0.9,0.1,1.6,0.4,2.3c0.3,0.6,0.7,1.1,1.2,1.5s1.2,0.6,1.9,0.8C51,482.3,51.8,482.4,52.8,482.4
		L52.8,482.4z M73.9,485c-1,0-1.9-0.2-2.6-0.4c-0.8-0.2-1.4-0.6-1.9-1.1s-0.9-1.1-1.2-1.8c-0.3-0.8-0.4-1.7-0.4-2.8v-29.5l3-0.6
		v29.9c0,0.7,0.1,1.3,0.2,1.8c0.1,0.4,0.3,0.8,0.6,1.1c0.3,0.3,0.6,0.5,1.1,0.6c0.4,0.1,1,0.2,1.6,0.3L73.9,485L73.9,485z"/>
</g>
</svg>
