<?xml version="1.0" encoding="utf-8"?>
<!-- Generator: Adobe Illustrator 19.1.0, SVG Export Plug-In . SVG Version: 6.00 Build 0)  -->
<!DOCTYPE svg PUBLIC "-//W3C//DTD SVG 1.1//EN" "http://www.w3.org/Graphics/SVG/1.1/DTD/svg11.dtd">
<svg version="1.1" id="Layer_1" xmlns="http://www.w3.org/2000/svg" xmlns:xlink="http://www.w3.org/1999/xlink" x="0px" y="0px"
	 viewBox="-489 366 300 70" style="enable-background:new -489 366 300 70;" xml:space="preserve">
<style type="text/css">
	.st0{display:none;}
	.st1{display:inline;fill:#662D91;}
	.st2{fill:#808080;}
</style>
<g>
	<g>
		<g class="st0">
			<path class="st1" d="M-237.7,1109.8h-2.6l1.1-4.8l-2.4,4.8h-1.8l-0.1-4.8l-1.2,4.8h-2.6l2-9h3.6l0.1,5l2.4-5h3.6L-237.7,1109.8z
				 M-234.6,1109.8h-2.4l1.5-6.7h2.4L-234.6,1109.8z M-233,1102.3h-2.4l0.3-1.5h2.4L-233,1102.3z M-228.9,1105.7
				c0-0.1,0.1-1.1-0.7-1.1c-1.5,0-2.5,3.7-0.9,3.7c0.8,0,1.1-0.8,1.2-1h2.5c0,0.1-0.8,2.7-4.1,2.7c-4.5-0.1-3.3-7.3,1.8-7
				c2.9,0.2,2.7,2.6,2.7,2.7L-228.9,1105.7L-228.9,1105.7z M-221.7,1104.5c0.8-1,2-1.7,3.7-1.6c2.3,0.1,3.2,1.8,2.8,3.6
				c0,0.2-0.2,0.2-0.4,0.3l-2,0.7h4.5c0,0-0.4,1,1.1,1c1,0,1.4-1.1,0-1.3c-0.6-0.1-2.9-0.5-2.7-2.3c0.2-1.5,1.8-2,3.5-2
				c3.5,0.1,2.8,2.1,2.9,2.2h-2.3c0,0,0.2-0.8-0.8-0.8s-1.2,0.8-0.1,1.1c1.3,0.3,2.9,0.4,3,2.1c0,0.5-0.2,2.7-3.7,2.7
				c-3.1,0-3.4-1.4-3.4-2.2c-0.6,1.2-2.1,2.2-4,2.2c-2.9-0.1-3.6-2.8-2.5-4.8c-0.5,0-1.6,0.3-2.1,2.3l-0.5,2.4h-2.3l1.5-6.7h2.2
				l-0.2,0.8c0.3-0.4,0.7-0.6,1.1-0.8c0.4-0.1,0.7-0.2,1.1-0.2L-221.7,1104.5z M-219.5,1108.3c1.7,0.4,2.9-3.6,1.3-3.9
				C-219.8,1104.2-221,1108-219.5,1108.3z M-205.3,1110c-4.9-0.2-3.4-7.4,1.6-7.1C-199.1,1103.2-200.4,1110.3-205.3,1110z
				 M-205.2,1108.3c1.7,0.4,2.8-3.6,1.3-3.9C-205.5,1104.2-206.7,1108-205.2,1108.3z M-192.7,1104.7h-1.1l-0.6,2.9
				c0,0.1-0.1,0.3,0,0.5c0.1,0.3,1,0.2,1,0.2l-0.4,1.5c0,0-1.9,0.2-2.6-0.2c-0.3-0.2-0.6-0.6-0.4-1.5l0.7-3.4h-1.3l-1.1,5.1h-2.4
				l1.1-5.1h-1.2l0.3-1.6h1.2c0.2-1,0.4-1.4,0.9-1.8c0.8-0.6,2.6-0.3,2.6-0.3l-0.3,1.2c-0.8,0-0.8,0.3-0.9,0.8v0.2h1.4l0.4-1.6h2.2
				l-0.4,1.6h1.2L-192.7,1104.7z M-191.3,1104.6c-0.4,0-0.7-0.3-0.7-0.7c0-0.4,0.3-0.7,0.7-0.7c0.4,0,0.7,0.3,0.7,0.7
				C-190.5,1104.2-190.9,1104.6-191.3,1104.6z M-191.3,1103.2c-0.3,0-0.6,0.3-0.6,0.6c0,0.3,0.3,0.6,0.6,0.6c0.3,0,0.6-0.3,0.6-0.6
				C-190.6,1103.5-190.9,1103.2-191.3,1103.2z M-191.2,1103.9l0.2,0.3h-0.1L-191.2,1103.9h-0.1l-0.1,0.3h-0.1l0.2-0.8h0.3
				c0.2,0,0.2,0.1,0.2,0.2C-191,1103.8-191,1103.9-191.2,1103.9z M-191.2,1103.5h-0.2v0.2h0.1c0.1,0,0.2,0,0.3-0.1
				C-191,1103.6-191.1,1103.5-191.2,1103.5z"/>
		</g>
	</g>
	<g>
		<g>
			<path class="st2" d="M-394.3,385.5l-11.5,31.2h-4l-11.4-31.2h4.1l8.7,24.8c0.3,0.9,0.5,1.8,0.6,2.8h0.1c0.1-0.7,0.3-1.6,0.7-2.8
				l8.8-24.7L-394.3,385.5L-394.3,385.5z"/>
			<path class="st2" d="M-369.6,410.8c0,1.9-0.7,3.5-2.2,4.7s-3.5,1.8-5.9,1.8c-2.1,0-4-0.5-5.5-1.4V412c1.8,1.4,3.7,2.1,5.8,2.1
				c2.8,0,4.2-1,4.2-3.1c0-0.8-0.3-1.5-0.8-2.1c-0.6-0.5-1.8-1.2-3.8-2.1c-2-0.8-3.4-1.7-4.2-2.7s-1.2-2.2-1.2-3.8
				c0-1.8,0.7-3.4,2.2-4.6c1.5-1.2,3.4-1.9,5.6-1.9c1.8,0,3.3,0.3,4.8,1v3.6c-1.5-1.1-3.1-1.6-5.1-1.6c-1.2,0-2.1,0.3-2.8,0.9
				c-0.7,0.6-1.1,1.3-1.1,2.2c0,1,0.3,1.7,0.8,2.3c0.6,0.5,1.7,1.2,3.4,1.9c2.1,0.9,3.6,1.8,4.5,2.8
				C-370.1,408-369.6,409.2-369.6,410.8z"/>
			<path class="st2" d="M-347.8,416.6h-3.6v-3.5h-0.1c-1.5,2.7-3.8,4.1-6.9,4.1c-5.3,0-8-3.2-8-9.5v-13.3h3.6v12.8
				c0,4.7,1.8,7,5.4,7c1.8,0,3.2-0.6,4.3-1.9c1.1-1.3,1.7-3,1.7-5v-12.9h3.6V416.6z"/>
			<path class="st2" d="M-326.4,416.6h-3.6v-3.5h-0.1c-1.6,2.7-3.8,4-6.9,4c-2.1,0-3.9-0.6-5.2-1.8c-1.3-1.2-1.9-2.7-1.9-4.7
				c0-4.2,2.5-6.6,7.4-7.3l6.7-0.9c0-3.8-1.5-5.7-4.6-5.7c-2.7,0-5.1,0.9-7.3,2.7v-3.7c0.7-0.5,1.8-1,3.4-1.4c1.6-0.5,3-0.7,4.2-0.7
				c5.2,0,7.9,2.8,7.9,8.3V416.6L-326.4,416.6z M-330,405.3l-5.4,0.8c-1.8,0.3-3.1,0.7-3.9,1.3c-0.7,0.6-1.1,1.6-1.1,3
				c0,1.1,0.4,2,1.2,2.7c0.8,0.7,1.8,1,3.1,1c1.8,0,3.2-0.6,4.4-1.9c1.2-1.2,1.7-2.8,1.7-4.7V405.3L-330,405.3z"/>
			<path class="st2" d="M-317.6,416.6h-3.6v-33h3.6V416.6z"/>
			<path class="st2" d="M-289.3,408.8c0,2.6-0.9,4.7-2.8,6.2s-4.4,2.2-7.6,2.2c-1.2,0-2.5-0.2-3.9-0.6c-1.5-0.4-2.5-0.8-3.1-1.2
				v-4.3c0.9,0.8,2.1,1.5,3.5,2s2.8,0.8,4,0.8c4,0,6-1.6,6-4.7c0-1.3-0.4-2.4-1.3-3.4c-0.9-0.9-2.6-2.2-5.3-3.7
				c-2.6-1.5-4.4-2.8-5.4-4.1s-1.5-2.9-1.5-4.8c0-2.5,0.9-4.5,2.8-6c1.8-1.5,4.2-2.3,7.1-2.3c2.8,0,4.9,0.4,6.1,1.1v4.1
				c-1.6-1.3-3.7-1.9-6.3-1.9c-1.7,0-3.1,0.4-4.2,1.3c-1.1,0.9-1.6,2-1.6,3.4c0,1,0.2,1.9,0.5,2.5c0.3,0.6,0.9,1.2,1.7,1.9
				c0.8,0.6,2.1,1.4,3.9,2.5c2.8,1.5,4.7,3,5.8,4.4C-289.8,405.5-289.3,407-289.3,408.8z"/>
			<path class="st2" d="M-275,416.5c-0.9,0.5-2,0.7-3.4,0.7c-3.9,0-5.8-2.2-5.8-6.6v-13.2h-3.8v-3h3.8V389l3.6-1.2v6.6h5.6v3h-5.6
				v12.6c0,1.5,0.3,2.6,0.8,3.2c0.5,0.6,1.4,0.9,2.5,0.9c0.9,0,1.7-0.2,2.3-0.7V416.5L-275,416.5z"/>
			<path class="st2" d="M-253.5,416.6h-3.5v-3.5h-0.1c-1.5,2.7-3.8,4.1-6.9,4.1c-5.3,0-8-3.2-8-9.5v-13.3h3.6v12.8
				c0,4.7,1.8,7,5.4,7c1.8,0,3.2-0.6,4.3-1.9c1.1-1.3,1.7-3,1.7-5v-12.9h3.6L-253.5,416.6L-253.5,416.6z"/>
			<path class="st2" d="M-229,416.6h-3.6v-3.8h-0.1c-1.7,2.9-4.2,4.3-7.7,4.3c-2.8,0-5.1-1-6.7-3c-1.7-2-2.5-4.7-2.5-8.1
				c0-3.7,0.9-6.7,2.8-8.9c1.9-2.2,4.3-3.4,7.4-3.4c3.1,0,5.3,1.2,6.7,3.6h0.1v-13.8h3.6V416.6L-229,416.6z M-232.6,406.5v-3.3
				c0-1.8-0.6-3.4-1.8-4.6c-1.2-1.2-2.7-1.8-4.5-1.8c-2.2,0-3.9,0.8-5.1,2.4c-1.3,1.6-1.9,3.8-1.9,6.6c0,2.6,0.6,4.6,1.8,6.1
				s2.8,2.2,4.8,2.2s3.6-0.7,4.8-2.1C-233.2,410.6-232.6,408.8-232.6,406.5z"/>
			<path class="st2" d="M-194,405.5c0,3.5-1,6.4-3,8.6c-2,2.2-4.7,3.2-8.1,3.2c-3.3,0-5.9-1-7.9-3.1s-3-4.9-3-8.3c0-3.7,1-6.6,3-8.7
				c2-2.1,4.8-3.2,8.3-3.2c3.3,0,5.9,1,7.8,3.1C-194.9,399-194,401.8-194,405.5z M-197.7,405.5c0-2.8-0.6-5-1.9-6.4
				c-1.2-1.5-3-2.2-5.3-2.2s-4.1,0.8-5.4,2.3c-1.3,1.5-2,3.7-2,6.5c0,2.7,0.7,4.8,2,6.3s3.2,2.3,5.4,2.3c2.3,0,4.1-0.7,5.3-2.2
				C-198.3,410.5-197.7,408.3-197.7,405.5z"/>
			<path class="st2" d="M-387.1,387c0,0.7-0.2,1.2-0.7,1.7c-0.5,0.4-1,0.7-1.7,0.7s-1.2-0.2-1.7-0.6c-0.5-0.4-0.7-1-0.7-1.7
				c0-0.6,0.2-1.2,0.7-1.6c0.4-0.5,1-0.7,1.7-0.7s1.2,0.2,1.7,0.7C-387.4,385.8-387.1,386.3-387.1,387z M-387.8,416.8h-3.6v-22.3
				h3.6V416.8z"/>
			<path class="st2" d="M-219.4,387c0,0.7-0.2,1.2-0.7,1.7c-0.5,0.4-1,0.7-1.7,0.7s-1.2-0.2-1.7-0.6c-0.5-0.4-0.7-1-0.7-1.7
				c0-0.6,0.2-1.2,0.7-1.6c0.4-0.5,1-0.7,1.7-0.7s1.2,0.2,1.7,0.7C-219.7,385.8-219.4,386.3-219.4,387z M-220,416.8h-3.6v-22.3h3.6
				V416.8z"/>
			<path class="st2" d="M-449.9,375l-20.7,20.7l-13.2-10.3l-5.2,2.7v26l5.2,2.6l13.2-10.3l20.7,20.7l13-5.2v-41.7L-449.9,375z
				 M-483.8,408.8v-15.6l7.8,7.8L-483.8,408.8z M-463.7,401l13.8-10.7v21.4L-463.7,401z"/>
		</g>
		<g>
			<path class="st2" d="M-189,396.2c0,1.4-1.1,2.5-2.6,2.5c-1.4,0-2.6-1.1-2.6-2.5s1.1-2.5,2.6-2.5S-189,394.8-189,396.2z
				 M-193.5,396.2c0,1.1,0.8,2,2,2c1.1,0,1.9-0.9,1.9-2s-0.8-2-1.9-2C-192.7,394.2-193.5,395.1-193.5,396.2z M-192,397.6h-0.6V395
				c0.2,0,0.6-0.1,1-0.1c0.5,0,0.7,0.1,0.9,0.2c0.1,0.1,0.2,0.3,0.2,0.6s-0.2,0.5-0.5,0.6l0,0c0.2,0.1,0.4,0.3,0.5,0.6
				c0.1,0.4,0.1,0.5,0.2,0.6h-0.7c-0.1-0.1-0.1-0.3-0.2-0.6c0-0.3-0.2-0.4-0.5-0.4h-0.3V397.6z M-192,396.1h0.3
				c0.3,0,0.6-0.1,0.6-0.4c0-0.2-0.2-0.4-0.5-0.4c-0.2,0-0.3,0-0.3,0v0.8H-192z"/>
		</g>
		<g>
			<path class="st2" d="M-432.1,417.8v0.5h-0.9v2.5h-0.6v-2.5h-0.9v-0.5H-432.1z M-428.9,420.8l-0.1-1.7c0-0.2,0-0.5,0-0.8l0,0
				c-0.1,0.3-0.2,0.6-0.2,0.9l-0.5,1.6h-0.6l-0.7-1.7c-0.1-0.2-0.1-0.6-0.2-0.8l0,0c0,0.3,0,0.6,0,0.8l-0.1,1.7h-0.6l0.2-2.9h0.9
				l0.5,1.4c0.1,0.2,0.1,0.4,0.2,0.7l0,0c0.1-0.3,0.1-0.5,0.2-0.7l0.5-1.5h0.8l0.2,2.9L-428.9,420.8L-428.9,420.8z"/>
		</g>
	</g>
</g>
</svg>
