<svg xmlns="http://www.w3.org/2000/svg" xmlns:xlink="http://www.w3.org/1999/xlink" viewBox="0 0 980 670" enable-background="new 0 0 980 670"><style type="text/css">.st0{fill:#97D4D9;}</style><symbol id="build-bot" viewBox="-42.4 -37.1 84.7 74.1"><path class="st0" d="M-4.3 7.9l-13.6 6.8c-.2.1-.3.4-.2.7.1.2.4.3.7.2l13.7-6.8 21.1 10.6c.2.1.5 0 .7-.2.1-.2 0-.5-.2-.7l-21.2-10.6v-4.6c0-.3-.2-.5-.5-.5s-.5.2-.5.5v4.6zm4.5 21l-19.2-9.7-.2-.1s-.2 0-.2.1l-3.8 1.9c-.2.1-.3.3-.3.4s.1.4.3.4l19.2 9.6c.1.1.3.1.4 0l3.8-1.9c.2-.1.3-.3.3-.4s-.1-.3-.3-.3zm-1.3.4l-2.7 1.4-18.1-9 2.7-1.4 18.1 9zm-29.7-36.9l-2 1c-.2.1-.5 0-.7-.2-.1-.2 0-.5.2-.7l2-1 .2-.1c.2 0 .4.1.4.3.3.3.2.6-.1.7zm11.4 24.1l-1.7.8c-.2.1-.5 0-.7-.2-.1-.2 0-.5.2-.7l1.7-.8.2-.1c.2 0 .4.1.4.3.2.3.1.6-.1.7zm54.9-16.8l-.3-.1 6.1-3c.7-.3 1.1-1 1.1-1.8v-3.8c0-.8-.4-1.5-1.1-1.8l-5.8-2.9c-.3-.1-.6-.2-.9-.2-.3 0-.6.1-.9.2l-7.7 3.7-1 .5c-.1-.6-.5-1.2-1.1-1.4l-26.8-13.5c-.3-.1-.6-.2-.9-.2-.3 0-.6.1-.9.2l-3.8 1.9h-.1l-2-1-.3-.1 6.1-3c.7-.3 1.1-1 1.1-1.8v-3.8c0-.8-.4-1.5-1.1-1.8l-5.8-2.9c-.3-.1-.6-.2-.9-.2-.3 0-.6.1-.9.2l-7.7 3.8-21.1 10.6c-.7.3-1.1 1-1.1 1.8v17.3c0 .8.4 1.5 1.1 1.8l5.8 2.9c.3.1.6.2.9.2s.6-.1.9-.2l4.8-2.4v4.2l-2.7 1.4c-.7.3-1.1 1-1.1 1.8v15.4c0 .8.4 1.5 1.1 1.8l26.9 13.5c.3.1.6.2.9.2s.6-.1.9-.2l26.8-13.6c.7-.3 1.1-1 1.1-1.8v-3.6l8.5-4.3 7.7-3.8c.7-.3 1.1-1 1.1-1.8v-3.8c0-.8-.4-1.5-1.1-1.8l-5.8-2.8zm-75.4-20l20.1-10.1v16.2l-9.5 4.8c-.2.1-.3.4-.2.7.1.2.4.3.7.2l9.6-4.8 4.6 2.3-7.5 3.8-4.8 2.4-7.7 3.8-4.6-2.3 2.5-1.2c.2-.1.3-.4.2-.7-.1-.2-.3-.3-.4-.3-.1 0-.2 0-.2.1l-2.7 1.3v-16.2zm17.9 14.1l1.7 2.6c.7 1 .4 2.3-.6 3-1 .6-2.3.3-3-.6l-2-3 3.9-2zm15.7-25.7v2.7l-.9-.4-.2-.1c-.2 0-.4.1-.4.3-.1.2 0 .5.2.7l.7.3-6.6 3.3-4.6-2.3.8-.4c.2-.1.3-.4.2-.7-.1-.2-.3-.3-.4-.3-.1 0-.2 0-.2.1l-.9.5v-2.7l6.7-3.3v2.7l-4.1 2c-.2.1-.3.4-.2.7.1.2.4.3.7.2l4.1-2.1 2.4 1.2c.2.1.5 0 .7-.2.1-.2 0-.5-.2-.7l-2.3-1.2v-2.7l4.5 2.4zm-7.7 10.9l-4.8 2.4v-8l4.8 2.4v3.2zm3.9.7l2.9 1.4.9.5v2.7l-.7-.4-.2-.1c-.2 0-.4.1-.4.3-.1.2 0 .5.2.7l.6.3-6.6 3.3-4.6-2.3 1.8-.9c.2-.1.3-.4.2-.7-.1-.2-.3-.3-.4-.3-.1 0-.2 0-.2.1l-2 1v-2.7l4.8-2.4 1.6-.8.3-.2v2.7l-2.2 1.1c-.2.1-.3.4-.2.7.1.2.4.3.7.2l2.2-1.1 2.1 1c.2.1.5 0 .7-.2.1-.2 0-.5-.2-.7l-2-1v-2.7l.7.5zm1.9 14.7l-18.2 9.1v-6.7l1.7 2.5c.6.9 1.6 1.4 2.6 1.4.6 0 1.2-.2 1.7-.5 1.4-1 1.8-2.9.9-4.4l-1.7-2.5 7.9-3.9h.1l5-2.5v7.5zm30.8.2v10.8l-25.9-13v-3.4c0-.3-.2-.5-.5-.5s-.5.2-.5.5v12c0 .3.2.5.5.5s.5-.3.5-.5v-1.6l3.1 1.6 6.7 3.4 5.8 2.9 6.7 3.4 3.6 1.8v8.5l-1.7-.9-.2-.1c-.2 0-.4.1-.4.3-.1.2 0 .5.2.7l1.6.8-25.9 12.7-25.8-12.9 4.2-2.1c.2-.1.3-.4.2-.7-.1-.2-.3-.3-.4-.3-.1 0-.2 0-.2.1l-4.4 2.2v-14.2l3.5-1.8.3-.1 18.9-9.5c.2-.1.3-.3.3-.4v-8.3l1.6-.8h.1v-4.1c0-.2-.1-.4-.3-.4l-1.4-1.2v-.3l2.8-1.4v8.1c0 .3.2.5.5.5s.5-.2.5-.5v-8.1l25.9 13v3.3zm17.3-.2l-7.2 3.6-4.7-2.3.9-.4c.2-.1.3-.4.2-.7-.1-.2-.3-.3-.4-.3-.1 0-.2 0-.2.1l-1.1.5v-2.7l3.9-2 2.8-1.4v2.7l-3.5 1.7c-.2.1-.3.4-.2.7.1.2.4.3.7.2l3.5-1.8 1.9 1c.2.1.5 0 .7-.2.1-.2 0-.5-.2-.7l-1.9-.9v-2.7l4.8 2.4v3.2zm-27.9 6.9v4.6l-4.8-2.4v-4.6l4.8 2.4zm-15.3-7.7l2.8 1.4v4.6l-2.8-1.4v-4.6zm3.8 6.6v-4.6l5.7 2.9v4.5l-5.7-2.8zm12.5 1.6l5.7 2.9v4.6l-5.7-2.9v-4.6zm6.7 3.3l2.8 1.4v4.7l-2.8-1.4v-4.7zm20.2-.5v3.2l-7.2 3.6-4.7-2.3 1.1-.6c.2-.1.3-.4.2-.7-.1-.2-.3-.3-.4-.3-.1 0-.2 0-.2.1l-1.3.7v-2.7l6.7-3.3v2.7l-3 1.5c-.2.1-.3.4-.2.7.1.2.4.3.7.2l3.1-1.5 1.9 1c.2.1.5 0 .7-.2.1-.2 0-.5-.2-.7l-2-1v-2.8l4.8 2.4zm-16.3 6.8l3.3-1.7 4.6 2.3-8 4v-4.6zm8.6-9.3l-4.8 2.4v-8l4.8 2.4v3.2zm-8.6-8l2.8-1.4v16.1l-2.8 1.4v-16.1z"/></symbol><symbol id="fire-hdx" viewBox="-61.7 -42.5 123.4 85"><path class="st0" d="M55.4 42.5h-110.8c-3.5 0-6.3-2.8-6.3-6.3v-72.4c0-3.5 2.8-6.3 6.3-6.3h110.8c3.5 0 6.3 2.8 6.3 6.3v72.4c0 3.5-2.8 6.3-6.3 6.3zm2.5-6.3v-72.4c0-1.4-1.1-2.5-2.5-2.5h-110.8c-1.4 0-2.5 1.1-2.5 2.5v72.4c0 1.4 1.1 2.5 2.5 2.5h110.8c1.4 0 2.5-1.1 2.5-2.5zm-7.6-68.2h-100.6v63.3h100.6v-63.3zm-99.6 1h98.5v61.3h-98.5v-61.3zm99.6-1h-100.6v63.3h100.6v-63.3zm-99.6 1h98.5v61.3h-98.5v-61.3zm50.2 66.1c0-.5-.4-.9-.9-.9s-.9.4-.9.9.4.9.9.9.9-.4.9-.9z"/></symbol><symbol id="galaxy" viewBox="-20.2 -39.1 40.5 78.3"><path class="st0" d="M-6.9 33.3c.3 0 .6.2.8.4.2-.2.5-.4.8-.4.4 0 .7.2.8.5.2-.6.7-1 1.4-1h6.2c.8 0 1.5.7 1.5 1.5s-.7 1.5-1.5 1.5h-6.2c-.6 0-1.2-.4-1.4-.9-.2.3-.5.5-.9.5-.3 0-.6-.2-.8-.4-.2.2-.5.4-.8.4-.6 0-1-.5-1-1 0-.6.5-1.1 1.1-1.1zm3.8 1.5h6.2c.3 0 .5-.2.5-.5s-.2-.5-.5-.5h-6.2c-.3 0-.5.2-.5.5s.2.5.5.5zm11.7-1.7c.7 0 1.2.5 1.2 1.2s-.5 1.2-1.2 1.2-1.2-.5-1.2-1.2.5-1.2 1.2-1.2zm.2 1.2c0-.1-.1-.2-.2-.2s-.2.1-.2.2c0 .3.4.3.4 0zm4.1 4.4c-4.3.3-8.7.4-12.9.4-4.3 0-8.6-.1-12.9-.4-4.1 0-7.3-3.3-7.3-7.4v-62.7c0-4.1 3.3-7.4 7.3-7.4 4.3-.3 8.7-.4 13-.4 4.3 0 8.6.1 12.9.4 4.1 0 7.3 3.3 7.3 7.4v62.7c-.1 4.1-3.3 7.4-7.4 7.4zm5.3-70c0-3-2.4-5.4-5.4-5.4-4.2-.3-8.5-.4-12.8-.4-4.3 0-8.6.1-12.9.4-3 0-5.4 2.4-5.4 5.4v62.7c0 3 2.4 5.4 5.4 5.4 4.3.2 8.6.3 12.9.3 4.3 0 8.6-.1 12.9-.4 3 0 5.4-2.4 5.4-5.4v-62.6zm-6.9-1.9c0-.3-.2-.5-.5-.5h-1.2v.2h1.2c.2 0 .4.2.4.4s-.2.4-.4.4h-.7v-.2l-.7.2s-.1 0-.1.1.1.1.1.1l.7.2v-.2h.7c.3-.2.5-.4.5-.7zm-27.9 3.7h33.3v58.9h-33.3v-58.9zm1 57.8h31.3v-56.9h-31.3v56.9zm18.1-59.1h-4.8c-1.3 0-2.3-1-2.3-2.3s1-2.3 2.3-2.3h4.8c1.3 0 2.3 1 2.3 2.3s-1 2.3-2.3 2.3zm0-3.6h-4.8c-.7 0-1.3.6-1.3 1.3 0 .7.6 1.3 1.3 1.3h4.8c.7 0 1.3-.6 1.3-1.3 0-.7-.6-1.3-1.3-1.3zm-11.7 2v-.9s0-.1-.1-.1h-.1v.9h-1.5v.1s0 .1.1.1h1.5l.1-.1zm-.4-.2h-1.7000000000000002s-.1 0-.1-.1v-.8999999999999999s0-.1.1-.1h1.7000000000000002s.1 0 .1.1v.7999999999999999l-.1.2zm-.1-.3v-.6h-1.5v.7h1.5v-.1z"/></symbol><symbol id="htc-one" viewBox="-20.6 -39.8 41.1 79.5"><path class="st0" d="M12.7 39.8h-25.4c-4.3 0-7.9-3.5-7.9-7.9v-63.8c0-4.3 3.5-7.9 7.9-7.9h25.4c4.3 0 7.9 3.5 7.9 7.9v63.8c0 4.3-3.6 7.9-7.9 7.9zm5.9-71.7c0-3.2-2.6-5.9-5.9-5.9h-25.4c-3.2 0-5.9 2.6-5.9 5.9v63.8c0 3.2 2.6 5.9 5.9 5.9h25.4c3.2 0 5.9-2.6 5.9-5.9v-63.8zm-5.9 69.1h-25.4c-2.9 0-5.3-2.4-5.3-5.3v-63.8c0-2.9 2.4-5.3 5.3-5.3h25.4c2.9 0 5.3 2.4 5.3 5.3v63.8c0 2.9-2.4 5.3-5.3 5.3zm0-73.4h-25.4c-2.2 0-4.1 1.7-4.3 3.9h34c-.2-2.2-2-3.9-4.3-3.9zm-4.6 69.4c-.2 0-.3.1-.3.3 0 .2.1.3.3.3.2 0 .3-.1.3-.3 0-.2-.1-.3-.3-.3zm-24.8-64.5v62.2h33.3v-62.2h-33.3zm33.7 63.2h-8c.5.3.9.9.9 1.6 0 1-.8 1.8-1.8 1.8s-1.8-.8-1.8-1.8c0-.7.4-1.3.9-1.6h-1.5c.2.2.3.4.3.7v1.6c0 .5-.4 1-1 1s-1-.4-1-1v-1.6c0-.3.1-.6.4-.7h-21.400000000000002c0 2.4 1.9 4.3 4.3 4.3h25.4c2.4 0 4.3-1.9 4.3-4.3zm-13.6 2.7c0-.3-.2-.5-.5-.5h-12.8c-.3 0-.5.2-.5.5s.2.5.5.5h12.8c.3 0 .5-.3.5-.5zm0-1.6c0-.3-.2-.5-.5-.5h-12.8c-.3 0-.5.2-.5.5s.2.5.5.5h12.8c.3 0 .5-.3.5-.5zm6.4-66.3c0-.3-.2-.5-.5-.5h-19.2c-.3 0-.5.2-.5.5s.2.5.5.5h19.2c.2 0 .5-.2.5-.5zm0-1.4c0-.3-.2-.5-.5-.5h-19.2c-.3 0-.5.2-.5.5s.2.5.5.5h19.2c.2 0 .5-.2.5-.5z"/></symbol><symbol id="ipad" viewBox="-36.8 -53.7 73.6 107.4"><path class="st0" d="M29.6 51.7c2.9 0 5.2-2.3 5.2-5.2v-92.9c0-2.9-2.3-5.2-5.2-5.2h-59.2c-2.9 0-5.2 2.3-5.2 5.2v92.9c0 2.9 2.3 5.2 5.2 5.2h59.2m0 2h-59.2c-4 0-7.2-3.2-7.2-7.2v-92.9c0-4 3.2-7.2 7.2-7.2h59.2c4 0 7.2 3.2 7.2 7.2v92.9c0 3.9-3.2 7.2-7.2 7.2zm1.4-96h-62c-.4 0-.8.3-.8.8v82.9c0 .4.3.8.8.8h62c.4 0 .8-.3.8-.8v-82.9c-.1-.4-.4-.8-.8-.8zm-61.9 1h61.6v82.4h-61.6v-82.4zm60.5 92.3h-59.2c-2.5 0-4.6-2-4.6-4.6v-92.9c0-2.5 2-4.6 4.6-4.6h59.2c2.5 0 4.6 2 4.6 4.6v92.9c0 2.6-2.1 4.6-4.6 4.6zm-29.6-99.9c-1 0-1.8.8-1.8 1.8s.8 1.9 1.8 1.9 1.8-.8 1.8-1.8-.8-1.9-1.8-1.9zm33.2 2.4c0-2-1.6-3.6-3.6-3.6h-28.5c1.2.5 2.1 1.6 2.1 3 0 1.8-1.4 3.2-3.2 3.2s-3.2-1.4-3.2-3.2c0-1.4.9-2.6 2.1-3h-28.5c-2 0-3.6 1.6-3.6 3.6v92.9c0 2 1.6 3.6 3.6 3.6h59.2c2 0 3.6-1.6 3.6-3.6v-92.9zm-33.3 93.3c-.4 0-.6-.3-.6-.6 0-.4.3-.6.6-.6s.6.3.6.6c.1.4-.2.6-.6.6zm-2-1.4c-.4 0-.8.4-.8.8s.4.8.8.8.8-.4.8-.8-.4-.8-.8-.8zm0 1c-.1 0-.2-.1-.2-.2 0-.2.4-.2.4 0 0 .1-.1.2-.2.2z"/></symbol><symbol id="iphone" viewBox="-36.8 -18.8 73.6 37.6"><path class="st0" d="M30.4 18.4h-44.7v.4h-7.3v-.4h-8.9c-3.5 0-6.4-2.9-6.4-6.4v-24.2c0-3.5 2.9-6.4 6.4-6.4h2.7v-.4h4.9v.4h1.3v-.4h13.8v.4h38.2c3.5 0 6.4 2.9 6.4 6.4v24.2c0 3.6-2.8 6.4-6.4 6.4zm0-34.7h-60.9c-2.3 0-4.2 1.9-4.2 4.2v24.2c0 2.3 1.9 4.2 4.2 4.2h60.9c2.3 0 4.2-1.9 4.2-4.2v-24.2c.1-2.3-1.8-4.2-4.2-4.2zm-58 .7h55v31.3h-55v-31.3zm1 30.2h53v-29.3h-53v29.3zm57.5-11.5c-1.8 0-3.2-1.4-3.2-3.2s1.4-3.2 3.2-3.2 3.2 1.4 3.2 3.2-1.4 3.2-3.2 3.2zm0-5c-1 0-1.8.8-1.8 1.8s.8 1.8 1.8 1.8 1.8-.8 1.8-1.8-.8-1.8-1.8-1.8zm-62.9-.5v4.8c0 .5.4.8.8.8.5 0 .8-.4.8-.8v-4.8c0-.5-.4-.8-.8-.8s-.8.3-.8.8zm1.9-3.2c0-.6-.5-1.1-1.1-1.1-.6 0-1.1.5-1.1 1.1 0 .6.5 1.1 1.1 1.1.6 0 1.1-.5 1.1-1.1zm-3.2 6.4c-.4 0-.8-.3-.8-.8s.3-.8.8-.8.8.3.8.8-.4.8-.8.8zm-.2-.8c0 .1.1.2.2.2s.2-.1.2-.2c0-.3-.4-.3-.4 0z"/></symbol><symbol id="lumia" viewBox="-23.3 -42.8 46.7 85.6"><path class="st0" d="M16.3 42.8h-32.6c-3.9 0-7.1-3.2-7.1-7.1v-71.5c0-3.9 3.2-7.1 7.1-7.1h32.6c3.9 0 7.1 3.2 7.1 7.1v71.5c-.1 3.9-3.2 7.1-7.1 7.1zm0-83.6h-32.6c-2.8 0-5.1 2.3-5.1 5.1v71.5c0 2.8 2.3 5.1 5.1 5.1h32.6c2.8 0 5.1-2.3 5.1-5.1v-13.5l-.5.3v-14.7l.5.3v-4.6l-.5.3v-8.3l.5.3v-31.6c-.1-2.8-2.3-5.1-5.1-5.1zm0 81.1h-32.6c-2.5 0-4.5-2-4.5-4.5v-71.5c0-2.5 2-4.5 4.5-4.5h32.6c2.5 0 4.5 2 4.5 4.5v71.5c0 2.4-2 4.5-4.5 4.5zm3.5-76c0-1.9-1.6-3.5-3.5-3.5h-10.5l-.7 1c-.1.2-.4.4-.7.4h-.4c-.3 0-.6-.2-.7-.4l-.7-1h-18.8c-1.9 0-3.5 1.6-3.5 3.5v71.5c0 1.9 1.6 3.5 3.5 3.5h32.6c1.9 0 3.5-1.6 3.5-3.5v-71.5zm-22.3 73.3c0 .4.3.8.8.8h3.1c.4 0 .8-.3.8-.8 0-.4-.3-.8-.8-.8h-3.1c-.5.1-.8.4-.8.8zm6.3-1.1c.4 0 .8.3.8.8 0 .4-.3.8-.8.8-.4 0-.8-.3-.8-.8 0-.4.3-.8.8-.8zm0 1c.1 0 .2-.1.2-.2 0-.2-.5-.2-.5 0 0 .1.1.2.3.2zm4-1.2h1.2c.6 0 1.1.5 1.1 1.1s-.5 1.1-1.1 1.1h-1.2c-.6 0-1.1-.5-1.1-1.1s.5-1.1 1.1-1.1zm0 1.1h1.2s.1 0 .1-.1 0-.1-.1-.1h-1.2v.2zm-25.6-70.4h35.6v66h-35.6v-66zm1 65h33.6v-64h-33.6v64z"/></symbol><symbol id="nexus-9" viewBox="-60.4 -41.4 120.8 82.8"><path class="st0" d="M55 41.4h-110c-3 0-5.4-2.4-5.4-5.4v-71.7c0-3 2.4-5.4 5.4-5.4h72.1l.2-.3h15l.2.3h1l.2-.3h6.9l.2.3h14.2c3 0 5.4 2.4 5.4 5.4v71.7c0 3-2.4 5.4-5.4 5.4zm-111.9-77.1v24.9l.7.5v21l-.7.5v24.8c0 1 .8 1.9 1.9 1.9h110c1 0 1.9-.8 1.9-1.9v-24.7l-.7-.5v-21l.7-.5v-24.9c0-1-.8-1.9-1.9-1.9h-110c-1 0-1.9.8-1.9 1.8zm88.1-3.7h-12.8l-.2.3h13.299999999999999l-.3-.3zm8.3 0h-4.7l-.2.3h5.1l-.2-.3zm7.5 74.9h-93.9v-70.7h93.9v70.7zm-1-69.7h-91.9v68.7h91.9v-68.7zm4.9 34.4c0 .5.4.9.9.9s.9-.4.9-.9-.4-.9-.9-.9-.9.4-.9.9zm-103.7 0c0 .6.5 1 1 1s1-.5 1-1c0-.6-.5-1-1-1s-1 .4-1 1z"/></symbol><use xlink:href="#iphone" width="73.6" height="37.6" x="-36.8" y="-18.8" transform="matrix(1 0 0 -1 161.292 318.43)" overflow="visible"/><use xlink:href="#iphone" width="73.6" height="37.6" x="-36.8" y="-18.8" transform="matrix(1 0 0 -1 506.683 286.912)" overflow="visible"/><use xlink:href="#iphone" width="73.6" height="37.6" x="-36.8" y="-18.8" transform="matrix(0 1 1 0 524.427 73.463)" overflow="visible"/><use xlink:href="#galaxy" width="40.5" height="78.3" x="-20.2" y="-39.1" transform="matrix(1 0 0 -1 238.715 177.998)" overflow="visible"/><use xlink:href="#galaxy" width="40.5" height="78.3" x="-20.2" y="-39.1" transform="matrix(0 1 1 0 301.613 533.529)" overflow="visible"/><use xlink:href="#galaxy" width="40.5" height="78.3" x="-20.2" y="-39.1" transform="matrix(0 1 1 0 399.63 95.555)" overflow="visible"/><use xlink:href="#galaxy" width="40.5" height="78.3" x="-20.2" y="-39.1" transform="matrix(0 1 1 0 647.004 502.011)" overflow="visible"/><use xlink:href="#galaxy" width="40.5" height="78.3" x="-20.2" y="-39.1" transform="matrix(1 0 0 -1 486.09 584.454)" overflow="visible"/><use xlink:href="#galaxy" width="40.5" height="78.3" x="-20.2" y="-39.1" transform="matrix(1 0 0 -1 130.032 623.438)" overflow="visible"/><use xlink:href="#htc-one" width="41.1" height="79.5" x="-20.6" y="-39.8" transform="matrix(0 -1 -1 0 81.609 411.382)" overflow="visible"/><use xlink:href="#htc-one" width="41.1" height="79.5" x="-20.6" y="-39.8" transform="matrix(0 -1 -1 0 427 379.864)" overflow="visible"/><use xlink:href="#htc-one" width="41.1" height="79.5" x="-20.6" y="-39.8" transform="matrix(0 -1 -1 0 784.007 430)" overflow="visible"/><use xlink:href="#htc-one" width="41.1" height="79.5" x="-20.6" y="-39.8" transform="matrix(1 0 0 -1 465.276 23.517)" overflow="visible"/><use xlink:href="#htc-one" width="41.1" height="79.5" x="-20.6" y="-39.8" transform="matrix(1 0 0 -1 308.616 166.299)" overflow="visible"/><use xlink:href="#htc-one" width="41.1" height="79.5" x="-20.6" y="-39.8" transform="matrix(1 0 0 -1 210.599 604.273)" overflow="visible"/><use xlink:href="#htc-one" width="41.1" height="79.5" x="-20.6" y="-39.8" transform="matrix(1 0 0 -1 560.723 601.864)" overflow="visible"/><use xlink:href="#nexus-9" width="120.8" height="82.8" x="-60.4" y="-41.4" transform="matrix(1 0 0 -1 275.785 62.937)" overflow="visible"/><use xlink:href="#nexus-9" width="120.8" height="82.8" x="-60.4" y="-41.4" transform="matrix(1 0 0 -1 723.403 113.851)" overflow="visible"/><use xlink:href="#nexus-9" width="120.8" height="82.8" x="-60.4" y="-41.4" transform="matrix(1 0 0 -1 177.768 500.911)" overflow="visible"/><use xlink:href="#nexus-9" width="120.8" height="82.8" x="-60.4" y="-41.4" transform="matrix(1 0 0 -1 523.159 469.392)" overflow="visible"/><use xlink:href="#lumia" width="46.7" height="85.6" x="-23.3" y="-42.8" transform="matrix(1 0 0 -1 390.278 -.291)" overflow="visible"/><use xlink:href="#lumia" width="46.7" height="85.6" x="-23.3" y="-42.8" transform="matrix(1 0 0 -1 506.682 191.606)" overflow="visible"/><use xlink:href="#lumia" width="46.7" height="85.6" x="-23.3" y="-42.8" transform="matrix(1 0 0 -1 292.261 437.683)" overflow="visible"/><use xlink:href="#lumia" width="46.7" height="85.6" x="-23.3" y="-42.8" transform="matrix(1 0 0 -1 411.965 636.163)" overflow="visible"/><use xlink:href="#lumia" width="46.7" height="85.6" x="-23.3" y="-42.8" transform="matrix(1 0 0 -1 161.291 223.124)" overflow="visible"/><use xlink:href="#ipad" width="73.6" height="107.4" x="-36.8" y="-53.7" transform="matrix(1 0 0 -1 67.423 191.274)" overflow="visible"/><use xlink:href="#ipad" width="73.6" height="107.4" x="-36.8" y="-53.7" transform="matrix(1 0 0 -1 58.784 517.39)" overflow="visible"/><use xlink:href="#ipad" width="73.6" height="107.4" x="-36.8" y="-53.7" transform="matrix(1 0 0 -1 404.175 485.872)" overflow="visible"/><use xlink:href="#ipad" width="73.6" height="107.4" x="-36.8" y="-53.7" transform="matrix(1 0 0 -1 264.481 297.682)" overflow="visible"/><use xlink:href="#ipad" width="73.6" height="107.4" x="-36.8" y="-53.7" transform="matrix(1 0 0 -1 609.872 266.164)" overflow="visible"/><use xlink:href="#ipad" width="73.6" height="107.4" x="-36.8" y="-53.7" transform="matrix(1 0 0 -1 604.419 130.331)" overflow="visible"/><use xlink:href="#ipad" width="73.6" height="107.4" x="-36.8" y="-53.7" transform="matrix(1 0 0 -1 156.801 79.417)" overflow="visible"/><use xlink:href="#fire-hdx" width="123.4" height="85" id="XMLID_8_" x="-61.7" y="-42.5" transform="matrix(1 0 0 -1 746.25 334.402)" overflow="visible"/><use xlink:href="#fire-hdx" width="123.4" height="85" id="XMLID_9_" x="-61.7" y="-42.5" transform="matrix(1 0 0 -1 43.852 315.783)" overflow="visible"/><use xlink:href="#fire-hdx" width="123.4" height="85" id="XMLID_10_" x="-61.7" y="-42.5" transform="matrix(1 0 0 -1 36.067 22.537)" overflow="visible"/><use xlink:href="#fire-hdx" width="123.4" height="85" id="XMLID_11_" x="-61.7" y="-42.5" transform="matrix(1 0 0 -1 389.243 284.265)" overflow="visible"/><use xlink:href="#build-bot" width="84.7" height="74.1" x="-42.4" y="-37.1" transform="matrix(1 0 0 -1 309.27 615.971)" overflow="visible"/><use xlink:href="#build-bot" width="84.7" height="74.1" x="-42.4" y="-37.1" transform="matrix(1 0 0 -1 543.642 373.019)" overflow="visible"/><use xlink:href="#build-bot" width="84.7" height="74.1" x="-42.4" y="-37.1" transform="matrix(-1 0 0 -1 743.885 17.477)" overflow="visible"/><use xlink:href="#build-bot" width="84.7" height="74.1" x="-42.4" y="-37.1" transform="matrix(-1 0 0 -1 407.286 177.998)" overflow="visible"/><use xlink:href="#build-bot" width="84.7" height="74.1" x="-42.4" y="-37.1" transform="matrix(-1 0 0 -1 198.249 404.537)" overflow="visible"/><use xlink:href="#build-bot" width="84.7" height="74.1" x="-42.4" y="-37.1" transform="matrix(-1 0 0 -1 654.66 584.453)" overflow="visible"/><use xlink:href="#nexus-9" width="120.8" height="82.8" id="XMLID_3_" x="-60.4" y="-41.4" transform="matrix(1 0 0 -1 974.944 279.818)" overflow="visible"/><use xlink:href="#ipad" width="73.6" height="107.4" id="XMLID_2_" x="-36.8" y="-53.7" transform="matrix(1 0 0 -1 956.785 141.114)" overflow="visible"/><use xlink:href="#lumia" width="46.7" height="85.6" id="XMLID_5_" x="-23.3" y="-42.8" transform="matrix(1 0 0 -1 837.605 50.623)" overflow="visible"/><use xlink:href="#fire-hdx" width="123.4" height="85" id="XMLID_1_" x="-61.7" y="-42.5" transform="matrix(1 0 0 -1 943.264 22.744)" overflow="visible"/><use xlink:href="#galaxy" width="40.5" height="78.3" x="-20.2" y="-39.1" transform="matrix(1 0 0 -1 686.334 228.912)" overflow="visible"/><use xlink:href="#htc-one" width="41.1" height="79.5" x="-20.6" y="-39.8" transform="matrix(1 0 0 -1 756.235 217.213)" overflow="visible"/><use xlink:href="#iphone" width="73.6" height="37.6" x="-36.8" y="-18.8" transform="matrix(1 0 0 -1 863.689 337.048)" overflow="visible"/><use xlink:href="#build-bot" width="84.7" height="74.1" x="-42.4" y="-37.1" transform="matrix(1 0 0 -1 854.905 228.912)" overflow="visible"/><use xlink:href="#build-bot" width="84.7" height="74.1" id="XMLID_4_" x="-42.4" y="-37.1" transform="matrix(-1 0 0 -1 900.648 423.155)" overflow="visible"/><use xlink:href="#nexus-9" width="120.8" height="82.8" x="-60.4" y="-41.4" transform="matrix(1 0 0 -1 880.165 519.529)" overflow="visible"/><use xlink:href="#fire-hdx" width="123.4" height="85" x="-61.7" y="-42.5" transform="matrix(1 0 0 -1 887.571 636.164)" overflow="visible"/><use xlink:href="#galaxy" width="40.5" height="78.3" id="XMLID_6_" x="-20.2" y="-39.1" transform="matrix(0 1 1 0 847.249 146.469)" overflow="visible"/><use xlink:href="#lumia" width="46.7" height="85.6" id="XMLID_7_" x="-23.3" y="-42.8" transform="matrix(1 0 0 -1 761.302 659.285)" overflow="visible"/><use xlink:href="#ipad" width="73.6" height="107.4" x="-36.8" y="-53.7" transform="matrix(1 0 0 -1 761.182 536.009)" overflow="visible"/><use xlink:href="#lumia" width="46.7" height="85.6" x="-23.3" y="-42.8" transform="matrix(1 0 0 -1 637.653 406.165)" overflow="visible"/><use xlink:href="#htc-one" width="41.1" height="79.5" x="-20.6" y="-39.8" transform="matrix(0 -1 -1 0 627.244 24.322)" overflow="visible"/></svg>