<?xml version="1.0" encoding="utf-8"?>
<!-- Generator: Adobe Illustrator 19.1.0, SVG Export Plug-In . SVG Version: 6.00 Build 0)  -->
<!DOCTYPE svg PUBLIC "-//W3C//DTD SVG 1.1//EN" "http://www.w3.org/Graphics/SVG/1.1/DTD/svg11.dtd">
<svg version="1.1" id="Layer_1" xmlns="http://www.w3.org/2000/svg" xmlns:xlink="http://www.w3.org/1999/xlink" x="0px" y="0px"
	 viewBox="0 0 400 160" enable-background="new 0 0 400 160" xml:space="preserve">
<path fill="#E25665" d="M51.5,20.1c16.8,0,29.4,8.7,29.4,26.5c0,17.7-12.6,27.7-29.4,27.7H39.7v31.9H20.1V20.1H51.5z M45.3,58.6
	c7.7,0,15-2.6,15-11.4c0-8.9-7.3-11.5-15-11.5h-5.5v22.9H45.3z M167.5,76.6c-4.7,21.8-22.9,31.1-39.8,31.1c-23.2,0-42-19.9-42-44.6
	c0-24.7,17.7-44.7,42-44.7c15.1,0,25.7,5.6,33.2,14.7l-12.8,14.1c-5-8-11.6-11.1-19.2-11.1c-12.1,0-21.9,12-21.9,26.9
	c0,14.6,9.8,26.5,21.9,26.5c9.4,0,18.7-6.1,18.7-16.6h-19.8V58h39.8V76.6z M201.1,20.1c23.6,0,43.4,18,43.4,43
	c0,25.2-19.7,43.1-43.4,43.1h-24.9V20.1H201.1z M198.8,88.6c14.5,0,24.4-11.1,24.5-25.5c0-14.4-9.9-25.6-24.5-25.6h-3v51H198.8z
	 M302.4,37.3h-29.6v17.1h28.4v17.2h-28.4V89h29.6v17.2h-49.3V20.1h49.3V37.3z M379.9,75.6c0,21.3-11.7,32.1-33.6,32.1
	s-33.6-10.9-33.6-32.1V20.1h19.6v49.8c0,14.4,4.4,18.6,14,18.6s14-4.2,14-18.6V20.1h19.6V75.6z M23.2,116.4h1.9
	c0.1,0,0.1,0.1,0.2,0.1c1.1,3.2,5.8,16.2,6.5,18.5h0c0.7-2.4,5.6-15.4,6.7-18.5c0.1-0.1,0.1-0.2,0.2-0.2h1.8c0.1,0,0.1,0,0.1,0.1
	l1.3,20.1c0,0.1-0.1,0.1-0.1,0.1h-1.2c-0.1,0-0.2,0-0.2-0.1c-0.4-7.3-1-17.5-1-19.2h0c-0.8,2.5-5.6,15.6-6.9,19.2
	c-0.1,0.1-0.1,0.1-0.2,0.1h-1.2c-0.2,0-0.2-0.1-0.2-0.1c-1.9-5.4-5.9-16.8-6.7-19.3h0c0,2.2-0.7,13-1.1,19.3c0,0.1-0.1,0.1-0.2,0.1
	h-1.1c-0.1,0-0.1,0-0.1-0.1l1.4-20.1C23,116.4,23.1,116.4,23.2,116.4z M49.5,129.2l-2.7,7.4c0,0.1-0.1,0.1-0.2,0.1h-1.1
	c-0.1,0-0.1-0.1-0.1-0.2l7-19.2c0.1-0.1,0.1-0.3,0.1-0.8c0-0.1,0.1-0.1,0.1-0.1h1.7c0.1,0,0.1,0,0.1,0.1l7.3,20.1
	c0,0.1,0,0.2-0.1,0.2h-1.2c-0.1,0-0.1,0-0.2-0.1l-2.7-7.4H49.5z M57.2,128c-0.7-1.9-3.1-8.5-3.7-10.5h0c-0.5,1.7-2.3,6.6-3.6,10.5
	H57.2z M61.3,116.6c-0.1-0.1,0-0.2,0.1-0.2h1.3c0.1,0,0.1,0.1,0.1,0.1c4.1,7.2,5.6,9.8,6.1,10.9c0.5-1,1.9-3.5,6.1-10.8
	c0-0.1,0.1-0.1,0.2-0.1h1.3c0.1,0,0.1,0.1,0.1,0.1l-6.8,11.7c-0.1,0.3-0.2,0.4-0.2,0.7c0,2.4,0,7.7,0,7.7c0,0.1-0.1,0.2-0.1,0.2
	h-1.1c-0.2,0-0.2-0.1-0.2-0.2v-7.7c0-0.3,0-0.4-0.2-0.6L61.3,116.6z M91.5,117.9c-1,0.7-2.9,1.4-3.9,1.6c-0.1,0-0.2,0-0.2-0.1v-0.9
	c0-0.1,0-0.1,0.1-0.2c1.7-0.4,3.2-1.2,4.1-1.9c0.1-0.1,0.2-0.1,0.4-0.1h0.8c0.1,0,0.1,0.1,0.1,0.1v19h4c0.1,0,0.1,0,0.2,0.1v0.9
	c0,0.1,0,0.2-0.1,0.2h-9.7c-0.1,0-0.1,0-0.1-0.2v-0.9c0-0.1,0.1-0.1,0.2-0.1h4.1V117.9z M102.5,135.8c0-0.1,0.1-0.1,0.2-0.1
	c5.3-0.1,8.5-3.5,9.2-8.4c-1.4,1.2-3.3,1.6-5,1.6c-3.8,0-6.1-2.6-6.1-6.3c0-3.6,2.5-6.5,6.3-6.5c3.9,0,6.4,3.1,6.4,8.6
	c0,8.4-5.1,12.3-10.8,12.4c-0.1,0-0.2-0.1-0.2-0.2V135.8z M111.9,126c0.1-0.5,0.1-1.2,0.1-1.3c0-4.3-1.7-7.3-5-7.3
	c-3,0-4.8,2.2-4.8,5.3c0,3.5,2.4,5.1,5,5.1C109.1,127.7,110.8,127.1,111.9,126z M115.1,141.5c-0.1,0-0.2,0-0.1-0.1
	c1.4-2.5,1.9-4.7,1.7-7.2c0-0.1,0-0.1,0.1-0.1h1.1c0.1,0,0.1,0,0.2,0.2c0.2,2.6-0.4,5.2-1.8,7.2c0,0.1-0.1,0.1-0.1,0.1H115.1z
	 M128.1,136.8c-0.1,0-0.1-0.1-0.1-0.2v-0.7c0-0.1,0-0.1,0.1-0.2c1.1-1,3.7-3.6,6-6.3c2.4-2.7,3.5-5,3.5-7.4c0-2.5-1.4-4.7-4.3-4.7
	c-1.7,0-3.1,0.5-4.4,1.5c-0.1,0.1-0.1,0-0.1-0.1v-1c0-0.1,0-0.1,0.1-0.2c1.3-0.9,2.9-1.4,4.7-1.4c3.8,0,5.5,2.8,5.5,5.8
	c0,2.6-0.9,4.9-3.7,8.1c-1.9,2.2-4,4.3-5.2,5.5c1.9,0,3.8,0,5.7,0h4.4c0.1,0,0.1,0,0.1,0.1l-0.3,1c0,0.1-0.1,0.1-0.2,0.1H128.1z
	 M143.4,126.5c0-5.4,1.9-10.4,6.3-10.4c5.3,0,6.1,6.4,6.1,10.4c0,4.7-1.1,10.5-6.1,10.5C145.2,137.1,143.4,132,143.4,126.5z
	 M144.8,126.5c0,4.9,1.5,9.4,4.9,9.4s4.6-4.4,4.6-9.3c0-5.7-1.6-9.3-4.8-9.3C146.7,117.3,144.8,120.7,144.8,126.5z M164.5,117.9
	c-1,0.7-2.9,1.4-3.9,1.6c-0.1,0-0.2,0-0.2-0.1v-0.9c0-0.1,0-0.1,0.1-0.2c1.7-0.4,3.2-1.2,4.1-1.9c0.1-0.1,0.2-0.1,0.4-0.1h0.8
	c0.1,0,0.1,0.1,0.1,0.1v19h4c0.1,0,0.1,0,0.2,0.1v0.9c0,0.1,0,0.2-0.1,0.2h-9.7c-0.1,0-0.1,0-0.1-0.2v-0.9c0-0.1,0.1-0.1,0.2-0.1
	h4.1V117.9z M185.1,117.3c0,0.1,0,0.1-0.1,0.1c-5.5-0.1-8.8,3.1-9.6,8.7c1.3-1.2,3-2,5.2-2c3.6,0,5.9,2.8,5.9,6.4
	c0,3.6-2.2,6.6-6.3,6.6c-4,0-6.4-3.4-6.4-8.6c0-7,3.8-12.4,11.2-12.4c0.1,0,0.1,0.1,0.1,0.1V117.3z M175.2,127.4c0,0.2,0,0.4,0,1
	c0,4.8,2.2,7.4,5,7.4c2.9,0,4.8-2.2,4.8-5.3c0-3.2-2.1-5.2-4.8-5.2C178.5,125.3,176.7,125.9,175.2,127.4z M198.8,127.4
	c1.3,0,1.9,0.9,1.9,1.9s-0.7,1.9-1.9,1.9c-1.3,0-2-0.9-2-1.9S197.5,127.4,198.8,127.4z M215.1,129.2l-2.7,7.4c0,0.1-0.1,0.1-0.2,0.1
	h-1.1c-0.1,0-0.2-0.1-0.1-0.2l7-19.2c0.1-0.1,0.1-0.3,0.1-0.8c0-0.1,0.1-0.1,0.1-0.1h1.7c0.1,0,0.1,0,0.1,0.1l7.3,20.1
	c0,0.1,0,0.2-0.1,0.2h-1.2c-0.1,0-0.1,0-0.2-0.1l-2.7-7.4H215.1z M222.8,128c-0.7-1.9-3.1-8.5-3.7-10.5h0c-0.5,1.7-2.3,6.6-3.6,10.5
	H222.8z M232.3,116.4h1.9c0.1,0,0.1,0.1,0.2,0.1c1.1,3.2,5.8,16.2,6.5,18.5h0c0.7-2.4,5.6-15.4,6.7-18.5c0.1-0.1,0.1-0.2,0.2-0.2
	h1.8c0.1,0,0.1,0,0.1,0.1l1.3,20.1c0,0.1-0.1,0.1-0.1,0.1h-1.2c-0.1,0-0.2,0-0.2-0.1c-0.4-7.3-1-17.5-1-19.2h0
	c-0.8,2.5-5.6,15.6-6.9,19.2c-0.1,0.1-0.1,0.1-0.2,0.1h-1.2c-0.2,0-0.2-0.1-0.2-0.1c-1.9-5.4-5.9-16.8-6.7-19.3h0
	c0,2.2-0.7,13-1.1,19.3c0,0.1-0.1,0.1-0.2,0.1h-1.1c-0.1,0-0.1,0-0.1-0.1l1.4-20.1C232.2,116.4,232.3,116.4,232.3,116.4z
	 M254.9,135.7c-0.1-0.1-0.1-0.1-0.1-0.3v-1.2c0-0.1,0.1-0.1,0.2-0.1c1.6,1.2,3.6,1.7,5.1,1.7c3.3,0,4.9-1.8,4.9-3.9
	c0-2.1-1-3.2-4.1-4.7l-1.3-0.6c-3.4-1.6-4.3-3.3-4.3-5.5c0.1-3,2.4-5,5.9-5c1.9,0,3.4,0.5,4.2,1c0.1,0.1,0.1,0.1,0.1,0.3v1.1
	c0,0.1-0.1,0.2-0.2,0.1c-1-0.7-2.5-1.2-4.2-1.2c-3.6,0-4.5,2.4-4.5,3.6c0,1.9,0.9,3.1,3.7,4.4l1.7,0.8c3.5,1.6,4.4,3.3,4.4,5.6
	c0,2.9-2.1,5.4-6.4,5.4C257.8,137.1,256.1,136.5,254.9,135.7z M275.2,117.7h-6.9c-0.1,0-0.1-0.1-0.1-0.2l0.2-0.9
	c0-0.1,0.1-0.1,0.2-0.1h14.7c0.1,0,0.2,0.1,0.2,0.1l0.1,0.9c0,0.1,0,0.2-0.1,0.2h-6.9v18.9c0,0.1-0.1,0.2-0.2,0.2h-1.1
	c-0.1,0-0.1,0-0.1-0.2V117.7z M298.2,136.6c0,0.1-0.1,0.1-0.2,0.1h-10.9c-0.2,0-0.2-0.1-0.2-0.2v-19.9c0-0.1,0-0.2,0.2-0.2h10.3
	c0.1,0,0.1,0,0.2,0.1l0.2,0.9c0,0.1,0,0.2-0.1,0.2h-9.3v8.1h8.2c0.1,0,0.1,0,0.1,0.1v1c0,0.1-0.1,0.1-0.1,0.1h-8.1v8.6h10
	c0.1,0,0.1,0,0.1,0.1L298.2,136.6z M302.1,136.8c-0.1,0-0.2,0-0.2-0.1v-20c0-0.1,0-0.2,0.1-0.2c1.1,0,2.7-0.1,4.7-0.1
	c3.9,0,6.8,1.7,6.8,5.5c0,3.1-2,4.8-4.8,5.5c1.2,1.4,6.7,8.5,7.4,9.3c0.1,0.1,0,0.2-0.1,0.2h-1.5c-0.1,0-0.2,0-0.2-0.1
	c-1-1.2-4.9-6.3-6.8-8.6c-0.2-0.3-0.4-0.4-0.9-0.4h-3.4v9c0,0.1-0.1,0.1-0.2,0.1H302.1z M306.8,126.4c3.9,0,5.4-2,5.4-4.5
	c0-2.6-1.8-4.3-5.5-4.3c-2.2,0-3.2,0-3.3,0v8.8H306.8z M319.4,116.6c0-0.1,0-0.2,0.1-0.2c0.9,0,2.8-0.1,5.2-0.1
	c6.9,0,10.1,4.2,10.1,10c0,8.4-6,10.6-10.8,10.6c-2.1,0-3.7-0.1-4.5-0.1c-0.1,0-0.1-0.1-0.1-0.2V116.6z M320.8,135.5
	c0.4,0,1.8,0.1,3.2,0.1c5.7,0,9.3-3,9.3-9.3c0-5.9-3.5-8.8-8.7-8.8c-1.9,0-3.5,0-3.8,0.1V135.5z M341.4,129.2l-2.7,7.4
	c0,0.1-0.1,0.1-0.2,0.1h-1.1c-0.1,0-0.2-0.1-0.1-0.2l7-19.2c0.1-0.1,0.1-0.3,0.1-0.8c0-0.1,0.1-0.1,0.1-0.1h1.7c0.1,0,0.1,0,0.2,0.1
	l7.3,20.1c0,0.1,0,0.2-0.1,0.2h-1.2c-0.1,0-0.1,0-0.2-0.1l-2.7-7.4H341.4z M349.1,128c-0.7-1.9-3.1-8.5-3.7-10.5h0
	c-0.5,1.7-2.3,6.6-3.6,10.5H349.1z M358.6,116.4h1.9c0.1,0,0.2,0.1,0.2,0.1c1.1,3.2,5.8,16.2,6.5,18.5h0c0.7-2.4,5.6-15.4,6.7-18.5
	c0.1-0.1,0.1-0.2,0.2-0.2h1.8c0.1,0,0.1,0,0.2,0.1l1.3,20.1c0,0.1-0.1,0.1-0.1,0.1h-1.2c-0.2,0-0.2,0-0.2-0.1
	c-0.4-7.3-1-17.5-1-19.2h0c-0.8,2.5-5.6,15.6-6.9,19.2c-0.1,0.1-0.1,0.1-0.2,0.1h-1.2c-0.2,0-0.2-0.1-0.2-0.1
	c-1.9-5.4-5.9-16.8-6.7-19.3h0c0,2.2-0.7,13-1.1,19.3c0,0.1-0.1,0.1-0.2,0.1h-1.1c-0.1,0-0.1,0-0.1-0.1l1.4-20.1
	C358.5,116.4,358.5,116.4,358.6,116.4z"/>
</svg>
