<svg xmlns="http://www.w3.org/2000/svg" viewBox="0 0 52 87"><style>.st0{fill:red}.st1{fill:#fff}</style><path class="st0" d="M0 0h52v87H0z"/><path class="st1" d="M31.8 64.6h-3.6l-2-4.5H22l4-9.3 5.8 13.8zm6.6-.1V42h-9.5l9.5 22.5zM23 42h-9.5v22.3L23 42zm15.5 32.6h-2.7c.1.9.4 1.4 1.2 1.4.4 0 .7-.1 1-.3l.3 1.2c-.3.2-.5.3-1.4.4-1.7 0-2.5-1.3-2.5-3s.8-3.1 2.1-3.1c1.5 0 1.9 1.4 1.9 3.1.1.1.1.2.1.3zm-1.4-1.1c-.1-.7-.3-1.1-.6-1.1s-.6.5-.7 1.1h1.3zm-8.3.8c0 1.7-.7 3.1-2.1 3.1-1.4 0-2.1-1.4-2.1-3.1 0-1.7.7-3.1 2.1-3.1 1.4 0 2.1 1.4 2.1 3.1zm-1.5 0c0-1-.3-1.9-.7-1.9s-.7.8-.7 1.9.3 1.9.7 1.9.7-.9.7-1.9zm6.4 0c0 1.2-.6 3-1.9 3-.4 0-.8-.2-1.1-.4v.3h-1.3v-8.4H31v2.6c.3-.1.5-.2.8-.2 1.4 0 1.9 1.9 1.9 3.1zm-1.4.1c0-.7-.2-1.8-.7-1.9-.3 0-.5.2-.6.5v2.5c.1.4.3.7.6.6.4.1.7-1.1.7-1.7zm-8.7-5.5v8.4h-1.3V77c-.3.2-.6.4-1.1.4-1.2 0-1.9-1.8-1.9-3s.6-3.1 1.9-3.1c.3 0 .6.1.8.2v-2.6h1.6zM22.1 73c-.1-.3-.3-.6-.6-.5-.5.1-.7 1.2-.7 1.9s.3 1.8.7 1.8c.3 0 .5-.3.6-.6V73zm-3 4.3h-1.5l-.4-2.1h-1.4l-.4 2.1H14l1.8-8.2h1.5l1.8 8.2zm-2-3.4l-.5-2.5-.5 2.5h1z"/></svg>