<svg xmlns="http://www.w3.org/2000/svg" viewBox="247 -264 1074 928"><style>.st0,.st1{fill:none;stroke:#000;stroke-width:12.127;stroke-linecap:round;stroke-linejoin:round}.st1{stroke:#333;stroke-width:6.0635}.st2{fill:#000}</style><g opacity=".06"><path class="st0" d="M1124 132.1l97 48.5m-71.3-84.2L1124 83.5m97 48.6l-41.9-21m41.9 69.5v-48.5m0 218.3v-48.6m72.7 12.2l-72.7 36.4m72.7-84.9V314m-72.7-12.2c9-4.5 18-9 27.1-13.5M1124 301.8l97 48.6m-74.6-85.9l-22.4-11.2m97 48.5l-47.6-23.8m74.6-159.5c-9 4.5-18 9-27.1 13.5m-24.2-84.8l97 48.5M1124 83.6l72.7-36.4m0 0zm0 169.8l97 48.5M1124 253.3l72.7-36.3m0 0v-48.6m97-72.7v48.5l-72.7 36.4m-485.1-23.3V95.7m0 240.9v-150m0 297.1V371.4m339.5-445.5V314L735.9 483.7m308.7-542.4l30.8-15.4M735.9 95.7l269.2-134.6M1124 83.6l-48.6-24.3m48.6 242.5V83.6m-48.6-24.3v218.3l48.6 24.2m72.7-254.6l-121.3-60.7v72.8l48.6 24.3M396.3-74.1l339.6-169.8 339.5 169.8"/><path class="st0" d="M493.4-74.1l48.5 24.3 242.5-121.3-48.5-24.3zm291 266.8v72.8l84.9-42.5v-72.7zm157.7-78.8v72.7l84.8-42.4V71.4zm-365.7 278l-34.5-17.3m97 48.5L608 407.6m30.9 64v-48.5m-97 0l97 48.5m0 169.8v-48.5m72.7-36.4V605l-72.7 36.4m52.7-74.9l20-10m-72.7 36.4l32.6-16.3m-129.6 16.3l97 48.5m-76.2-86.6l-20.8-10.4m97 48.5l-55.1-27.6m30.8-227.1l-72.7 36.4M275.1 241.2l72.7-36.4 266.8 133.4m-106.1-53.1l24.9-37.7c10.1-15.3 5.9-36.1-9.5-46.2-5.5-3.6-11.8-5.5-18.3-5.5-11.3 0-21.7 5.6-27.9 15l-29.2 44.4 60 30zm159.3 123.6c-9.6 4.8-19.3 9.6-28.9 14.5m72.7-36.5l-18.3 9.2m-78.7-57.7l97 48.5m-97-48.5zm0 169.8l97 48.5m-169.7-12.1l72.7-36.4m0 0v-48.5M275.1 241.2v218.3l266.8 133.4m-224-330.3l-42.8-21.4m118.1 59.1l-25.6-12.8m174.3 87.1l-123.8-61.9m123.8 280.2V374.6m169.7 12.1v48.5l-72.7 36.4M460.6-42l-64.3-32.1m140.1 70l-21-10.5M735.9 95.7L560.8 8.1M396.3-74.1v194l291.1 145.6v109.1l24.2 12.1v48.5l-24.2 12.2v12.1l48.5 24.2M444.8 144.2v109.1"/><path class="st2" d="M735.9-243.9l339.6 169.8v60.6l121.3 60.6 97 48.5v48.5l-72.8 36.4-24.3-12.1V217l97 48.5V314l-72.8 36.4-97-48.5-48.5-24.3V314L735.9 483.7l-48.5-24.3v-12.1l-48.5 24.3-24.3-12.1V508l97 48.5V605l-72.8 36.4-97-48.5-266.7-133.4V241.2l72.8-36.4 97 48.5V144.2l-48.5-24.3v-194l339.5-169.8m0-18.2c-2.8 0-5.6.6-8.1 1.9L388.2-90.4c-6.2 3.1-10.1 9.4-10.1 16.3v194c0 6.9 3.9 13.2 10.1 16.3l38.5 19.2v68.5L356 188.6c-2.6-1.3-5.3-1.9-8.1-1.9s-5.6.6-8.1 1.9L267 225c-6.2 3.1-10.1 9.4-10.1 16.3v218.3c0 6.9 3.9 13.2 10.1 16.3l266.8 133.4 97 48.5c2.6 1.3 5.3 1.9 8.1 1.9s5.6-.6 8.1-1.9l72.8-36.4c6.2-3.1 10.1-9.4 10.1-16.3v-48.5c0-6.9-3.9-13.2-10.1-16.3l-87-43.5v-8c2 .7 4 1 6.1 1 2.8 0 5.6-.6 8.1-1.9l28.8-14.4c1.1.9 2.2 1.6 3.5 2.3l48.5 24.3c2.6 1.3 5.3 1.9 8.1 1.9s5.6-.6 8.1-1.9l339.6-169.8c6.2-3.1 10.1-9.4 10.1-16.3v-7l22.2 11.1 97 48.5c2.6 1.3 5.3 1.9 8.1 1.9s5.6-.6 8.1-1.9l72.8-36.4c6.2-3.1 10.1-9.4 10.1-16.3v-48.5c0-6.9-3.9-13.2-10.1-16.3l-87-43.5v-8c2 .7 4 1 6.1 1 2.8 0 5.6-.6 8.1-1.9l72.8-36.4c6.2-3.1 10.1-9.4 10.1-16.3V95.7c0-6.9-3.9-13.2-10.1-16.3l-97-48.5-111.2-55.6v-49.4c0-6.9-3.9-13.2-10.1-16.3L744-260.1c-2.5-1.3-5.3-2-8.1-2z"/><path class="st0" d="M735.9 217l339.5-169.8v72.7L735.9 289.7z"/></g></svg>