<svg xmlns="http://www.w3.org/2000/svg" viewBox="0 0 1074 928"><style>.st0{fill:#333}.st1{fill:#b3b3b3}.st2{opacity:.2}.st3{opacity:.6;fill:none;stroke:#FFF;stroke-width:11.6939;stroke-linecap:round;stroke-linejoin:round}.st4{fill:#999}.st5{opacity:.4}.st6{fill:#FFF}.st7{stroke-width:11.6939}.st7,.st8{fill:none;stroke:#333;stroke-linecap:round;stroke-linejoin:round}.st8{stroke-width:6.0566}.st9{fill:#46a3bd}</style><path class="st0" d="M488.9 21.1l339.2 169.6v60.6l121.1 60.6 96.9 48.5v48.5l-72.7 36.3-24.2-12.2v48.5l96.9 48.5v48.5l-72.7 36.3-96.9-48.5-48.4-24.3v36.3L488.9 747.9l-48.5-24.2v-12.1L392 735.8l-24.2-12.1v48.5l96.9 48.5v48.5L392 905.4l-96.9-48.5L28.6 723.7v-218l72.7-36.3 96.9 48.5v-109l-48.5-24.2v-194L488.9 21.1m0-18.1c-2.8 0-5.6.6-8.1 1.9L141.7 174.5c-6.2 3.1-10 9.4-10 16.3v193.8c0 6.9 3.9 13.2 10 16.3l38.4 19.2v68.4l-70.6-35.3c-2.6-1.3-5.3-1.9-8.1-1.9s-5.6.6-8.1 1.9l-72.7 36.3c-6.2 3.1-10 9.4-10 16.3v218c0 6.9 3.9 13.2 10 16.3L287 873.2l96.9 48.5c2.6 1.3 5.3 1.9 8.1 1.9s5.6-.6 8.1-1.9l72.7-36.3c6.2-3.1 10-9.4 10-16.3v-48.5c0-6.9-3.9-13.2-10-16.3L386 760.9v-8c2 .7 4 1 6.1 1 2.8 0 5.6-.6 8.1-1.9l28.7-14.4c1.1.9 2.2 1.6 3.5 2.3l48.5 24.2c2.6 1.3 5.3 1.9 8.1 1.9s5.6-.6 8.1-1.9l339.2-169.6c6.2-3.1 10-9.4 10-16.3v-6.9l22.2 11.1 96.9 48.5c2.6 1.3 5.3 1.9 8.1 1.9s5.6-.6 8.1-1.9l72.7-36.3c6.2-3.1 10-9.4 10-16.3v-48.5c0-6.9-3.9-13.2-10-16.3l-86.9-43.4v-8c2 .7 4 1 6.1 1 2.8 0 5.6-.6 8.1-1.9l72.7-36.3c6.2-3.1 10-9.4 10-16.3v-48.5c0-6.9-3.9-13.2-10-16.3l-96.9-48.5-111.1-55.5v-49.3c0-6.9-3.9-13.2-10-16.3L497.1 4.9c-2.6-1.3-5.4-1.9-8.2-1.9z"/><path class="st1" d="M488.9 21.1l339.2 169.6v60.6l121.1 60.6 96.9 48.5v48.5l-72.7 36.3-24.2-12.2v48.5l96.9 48.5v48.5l-72.7 36.3-96.9-48.5-48.4-24.3v36.3L488.9 747.9l-48.5-24.2v-12.1L392 735.8l-24.2-12.1v48.5l96.9 48.5v48.5L392 905.4l-96.9-48.5L28.6 723.7v-218l72.7-36.3 96.9 48.5v-109l-48.5-24.2v-194L488.9 21.1"/><path d="M295.1 687.4v89.8c0-36.9 33.8-53.3 58.7-60.4l-58.7-29.4z" class="st2"/><path class="st3" d="M604.4 517.8l133.3-66.7m-190.4 95.2l21.5-10.7"/><path class="st4" d="M198.2 408.8l242.3 121.1v109L198.2 517.8zm290.7 60.9l339.2-169.5v84.3L488.9 554.1z"/><path class="st6" d="M464.7 651L392 687.4 28.6 505.7l72.7-36.4zm-96.9 121.2l96.9 48.4-72.7 36.3-96.9-48.4zm121.1-411.9l339.2-169.6L488.9 21.1 149.8 190.7zm557.3 0l-72.7 36.3L828.1 324v-72.7zm0 169.6l-72.7 36.3-96.9-48.4 72.6-36.4z"/><path d="M973.5 396.6v48.5l-96.9-48.5v121.2l96.9 48.4v48.5L828.1 542V324zM28.6 505.7v218L392 905.4v-48.5l-96.9-48.4V687.4l96.9 48.4v-48.4zm121.2-315v193.8l290.7 145.4v109l24.2 12.1v48.5l-24.2 12.1v12.1l48.4 24.2V360.3z" class="st2"/><path class="st7" d="M876.6 396.6l96.9 48.5m72.7 133.2l-72.7 36.4m-96.9-48.5l96.9 48.5"/><path class="st3" d="M944.7 535.5l28.8 14.4 27-13.5m0-169.6l-27 13.5c-14-7-27.9-14-41.9-20.9"/><path class="st7" d="M949.2 311.9l97 48.4m-169.6-12.1l72.6-36.3m0 169.5l97 48.5m-169.6-12.1l72.6-36.4m0 0V433m24.3 12.1l72.7-36.3v-48.5M828.1 190.7v387.6L488.9 747.9m387.7-181.7v-218m72.6-36.3l-121.1-60.6m-678.3-60.6L488.9 21.1l339.2 169.6"/><path class="st4" d="M246.7 190.7l48.4 24.2L537.4 93.8l-48.5-24.2z"/><path class="st7" d="M246.7 190.7l48.4 24.2L537.4 93.8l-48.5-24.2z"/><path class="st9" d="M537.4 457.2v72.7l84.8-42.4v-72.7zm157.5-78.7v72.7l84.8-42.4v-72.7z"/><path class="st2" d="M28.6 623.2v100.5l156.8 78.4c-88.6-87.3-134-105.7-156.8-178.9z"/><path class="st7" d="M295.1 687.4l96.9 48.4m72.7 84.8v48.5L392 905.4m-96.9-48.5l96.9 48.5"/><path class="st3" d="M365.9 827.5l26.1 13.1 21.4-10.7"/><path class="st7" d="M367.8 602.6l-72.7 36.3M28.6 505.7l72.7-36.4 266.5 133.3"/><path class="st1" d="M261.8 549.6l24.8-37.7c10.1-15.3 5.8-36-9.5-46.1-5.5-3.6-11.8-5.5-18.3-5.5-11.3 0-21.7 5.6-27.9 15l-29.2 44.3 60.1 30z"/><path d="M258.8 460.2c-11.3 0-21.7 5.6-27.9 15l-29.2 44.3 18.8 9.4 44.8-68c-2.1-.4-4.3-.7-6.5-.7z" class="st2"/><path class="st7" d="M261.8 549.6l24.8-37.7c10.1-15.3 5.8-36-9.5-46.1-5.5-3.6-11.8-5.5-18.3-5.5-11.3 0-21.7 5.6-27.9 15l-29.2 44.3 60.1 30zm106 53l96.9 48.4m-96.9 121.2l96.9 48.4m-169.6-12.1l72.7-36.3m0 0v-48.5m-339.2-218v218l266.5 133.2m0 0v-218M464.7 651v48.5L392 735.8"/><path class="st3" d="M289.6 241.9l-20.9-10.4m45.3 25l174.9 87.4 268.9-134.4"/><path d="M149.8 284.8v99.7l210.7 105.4C228.6 406.8 173 356.7 149.8 284.8z" class="st2"/><path class="st7" d="M149.8 190.7v193.8l290.7 145.4v109l24.2 12.1v48.5l-24.2 12.1v12.1l48.4 24.2M198.2 408.7v109.1"/><path class="st3" d="M420.9 656.6c-9.6 4.8-19.2 9.6-28.9 14.4l-30.9-15.4M146.6 545.9l-25.5-12.7m153.5 76.7l-103-51.5"/><path class="st7" d="M1046.2 578.3v-48.4"/></svg>