<svg id="Layer_1" xmlns="http://www.w3.org/2000/svg" viewBox="-38 664 300 90"><style>.st0{fill:#0075ff}</style><path class="st0" d="M135.5 696.4c0-1.4.7-2.1 2.1-2.1h1.8c1.4 0 2.1.7 2.1 2.1V700h.1c.8-1.9 1.1-2.4 3.1-4.3 2.1-2 3.2-2.3 6.4-2.3 7.5 0 11.2 4.2 11.2 12.6v18.9c0 1.4-.7 2.1-2.1 2.1h-2c-1.4 0-2.1-.7-2.1-2.1v-17.4c0-5.3-1.3-8.2-6.2-8.2-3.2 0-4.4 1.8-5.4 3.4-1.4 2.2-2.7 5.3-2.7 8.7V725c0 1.4-.7 2.1-2.1 2.1h-2c-1.4 0-2.1-.7-2.1-2.1v-28.6zM172.9 709.7c1.4-.8 3-1.4 4.9-1.8 3.8-1 6.5-1.1 9.8-1.1h1.7v-.8c0-4.8-2.4-7.2-7.1-7.2-2.5 0-4.9.7-7.4 2.1-1.2.6-2.2.3-2.9-.8l-.5-.9c-.7-1.3-.5-2.3.7-2.9 3.3-1.9 6.8-2.8 10.6-2.8 8.2 0 12.9 4.5 12.9 12.8v18.6c0 1.4-.7 2.1-2.1 2.1h-1.6c-1.4 0-2.1-.7-2.1-2.1V723l.2-2h-.1c-.2.3-.3.8-1.6 2.4-1.6 2-4.5 4.5-9.1 4.5-3 0-5.6-.9-7.8-2.7-2.1-1.8-3.2-4.1-3.2-7.1-.1-3.9 2.1-6.9 4.7-8.4zm7.6 13.1c2.6 0 4.7-1.1 6.4-3.2 1.7-2.1 2.5-4.5 2.5-7.2V711h-1.7c-8.9 0-13.3 2.2-13.3 6.6 0 2.8 2.3 5.2 6.1 5.2zM206.1 698.4c3.3-3.3 7.5-4.9 12.6-4.9 4.2 0 7.8 1.2 10.8 3.5 1.1.7 1.2 1.7.4 2.9l-.6 1c-.7 1.1-1.7 1.2-2.9.5-2.3-1.6-4.7-2.5-7.3-2.5-3.3 0-6 1.1-8.2 3.3-2.1 2.2-3.2 5-3.2 8.4 0 3.4 1.1 6.2 3.2 8.4 2.2 2.3 5 3.4 8.3 3.4 2.9 0 5.7-1 8.4-3 1.2-.8 2.2-.6 2.9.6l.5 1c.7 1.2.5 2.1-.6 2.9-3.2 2.7-7.1 4-11.7 4-5.1 0-9.3-1.6-12.6-4.9-3.2-3.2-4.9-7.3-4.9-12.3 0-4.9 1.6-9 4.9-12.3zM239.3 709.7c1.4-.8 3-1.4 4.9-1.8 3.8-1 6.5-1.1 9.8-1.1h1.7v-.8c0-4.8-2.4-7.2-7.1-7.2-2.5 0-4.9.7-7.4 2.1-1.2.6-2.2.3-2.9-.8l-.5-.9c-.7-1.3-.5-2.3.7-2.9 3.3-1.9 6.8-2.8 10.6-2.8 8.2 0 12.9 4.5 12.9 12.8v18.6c0 1.4-.7 2.1-2.1 2.1h-1.6c-1.4 0-2.1-.7-2.1-2.1V723l.2-2h-.1c-.2.3-.3.8-1.6 2.4-1.6 2-4.5 4.5-9.1 4.5-3 0-5.6-.9-7.8-2.7-2.1-1.8-3.2-4.1-3.2-7.1-.2-3.9 2-6.9 4.7-8.4zm7.6 13.1c2.6 0 4.7-1.1 6.4-3.2 1.7-2.1 2.5-4.5 2.5-7.2V711h-1.7c-8.9 0-13.3 2.2-13.3 6.6 0 2.8 2.3 5.2 6.1 5.2zM112.5 699.4c4.9 0 9 4.9 9 10.9s-4 10.9-9 10.9c-4.9 0-9-4.9-9-10.9s4-10.9 9-10.9m0-6.1c-8.3 0-15 7.6-15 16.9s6.7 16.9 15 16.9 15-7.6 15-16.9-6.7-16.9-15-16.9zM87 690.3c-.2-.1-.5-.2-.8-.2H82c-.8 0-1.5.4-1.8 1l-12 20.1c-.4.7-1.4.7-1.8 0l-12-20.1c-.4-.6-1.1-1-1.8-1h-4.3c-.3 0-.6.1-.8.2-.8.3-1.3 1.1-1.3 2V725c0 1.2 1 2.1 2.1 2.1h3.4c.4 0 .7-.3.7-.7v-26.8c0-.3.4-.5.6-.2l11.2 18.8c1.4 2.3 4.7 2.3 6.1 0l11.2-18.8c.2-.3.6-.2.6.2v26.8c0 .4.3.7.7.7h3.4c1.2 0 2.1-1 2.1-2.1v-32.7c.1-.9-.5-1.7-1.3-2zM14.4 676.1h-39c-7.4 0-13.4 6-13.4 13.4v39c0 7.4 6 13.4 13.4 13.4h39c7.4 0 13.4-6 13.4-13.4v-39c0-7.4-6-13.4-13.4-13.4zM7.8 722h-25.9v-26H7.8v26z"/></svg>