<svg id="Layer_1" xmlns="http://www.w3.org/2000/svg" viewBox="0 0 283 152"><style>.st0{opacity:.9}.st1{fill:#FFF}</style><g class="st0"><path class="st1" d="M40.5 5.6c21.1 0 37 10.9 37 33.3 0 22.3-15.9 34.8-37 34.8H25.7v40.1H1V5.6h39.5zM32.6 54c9.7 0 18.9-3.3 18.9-14.3 0-11.1-9.2-14.4-18.9-14.4h-7V54h7zM186.2 76.7c-5.9 27.4-28.7 39.1-50 39.1-29.1 0-52.7-25.1-52.7-56 0-31.1 22.3-56.1 52.7-56.1 19 0 32.3 7.1 41.7 18.5l-16.1 17.7C155.5 29.8 147.2 26 137.7 26c-15.2 0-27.5 15.1-27.5 33.8 0 18.4 12.3 33.3 27.5 33.3 11.8 0 23.5-7.6 23.5-20.9h-24.9v-19h50v23.5zM228.4 5.6c29.6 0 54.6 22.6 54.6 54 0 31.6-24.8 54.2-54.6 54.2h-31.3V5.6h31.3zm-2.8 86.2c18.2 0 30.7-13.9 30.8-32 0-18.1-12.5-32.1-30.8-32.1h-3.8v64.1h3.8z"/></g><g class="st0"><path class="st1" d="M15 135.7c0 5.9-3.3 8.9-7.4 8.9-4.7 0-7.6-3.6-7.6-8.9 0-5.6 3.3-8.8 7.5-8.8 4.6 0 7.5 3.7 7.5 8.8zm-7.4 7.9c3.9 0 6.2-3.1 6.2-7.9 0-4.6-2.6-7.7-6.3-7.7-3.3 0-6.2 2.6-6.2 7.7-.1 4.3 2.1 7.9 6.3 7.9zM30.1 143.8c0 .1 0 .2-.1.2-.8.4-2.2.6-3.7.6-3.7 0-8.4-2.2-8.4-9 0-5.1 3.4-8.7 8.6-8.7 1.7 0 3.2.3 3.7.6.1 0 .1.1.1.2v1c0 .1-.1.1-.1.1-.6-.4-1.9-.8-3.7-.8-4.3 0-7.4 2.9-7.4 7.6 0 6.4 4.6 7.9 7.3 7.9 1.3 0 2.6-.2 3.6-.6.1 0 .1 0 .1.1v.8zM38.1 128.3h-5.9c-.1 0-.1-.1-.1-.2l.2-.8c0-.1.1-.1.2-.1h12.4c.1 0 .2 0 .2.1l.1.8c0 .1 0 .2-.1.2h-5.8v16c0 .1-.1.2-.2.2h-.9c-.1 0-.1 0-.1-.2v-16zM57.6 128.5c-.9.6-2.4 1.2-3.3 1.4-.1 0-.2 0-.2-.1v-.8c0-.1 0-.1.1-.2 1.4-.4 2.7-1 3.5-1.6.1-.1.2-.1.3-.1h.7s.1 0 .1.1v16h3.4c.1 0 .1 0 .2.1v.8c0 .1 0 .2-.1.2H54c-.1 0-.1 0-.1-.2v-.8c0-.1.1-.1.2-.1h3.5v-14.7zM65.4 144.4c-.1 0-.1-.1-.1-.2v-.6c0-.1 0-.1.1-.2.9-.8 3.1-3 5.1-5.3 2-2.3 3-4.2 3-6.3 0-2.1-1.2-3.9-3.7-3.9-1.4 0-2.6.5-3.7 1.3-.1.1-.1 0-.1-.1v-.9c0-.1 0-.1.1-.2 1.1-.8 2.4-1.2 4-1.2 3.2 0 4.6 2.4 4.6 4.9 0 2.2-.7 4.2-3.1 6.8-1.6 1.9-3.4 3.7-4.4 4.7h8.5s.1 0 .1.1l-.2.8c0 .1-.1.1-.2.1h-10zM77.5 148.4c-.1 0-.2 0-.1-.1 1.2-2.1 1.6-4 1.4-6.1 0-.1 0-.1.1-.1h.9c.1 0 .1 0 .2.2.2 2.2-.4 4.4-1.5 6.1 0 .1 0 .1-.1.1h-.9zM88.4 144.4c-.1 0-.1-.1-.1-.2v-.6c0-.1 0-.1.1-.2.9-.8 3.1-3 5.1-5.3 2-2.3 3-4.2 3-6.3 0-2.1-1.2-3.9-3.7-3.9-1.4 0-2.6.5-3.7 1.3-.1.1-.1 0-.1-.1v-.9c0-.1 0-.1.1-.2 1.1-.8 2.4-1.2 4-1.2 3.2 0 4.6 2.4 4.6 4.9 0 2.2-.7 4.2-3.1 6.8-1.6 1.9-3.4 3.7-4.4 4.7h8.5s.1 0 .1.1l-.2.8c0 .1-.1.1-.2.1h-10zM101.3 135.7c0-4.5 1.6-8.8 5.3-8.8 4.4 0 5.2 5.4 5.2 8.8 0 4-.9 8.9-5.1 8.9-3.8 0-5.4-4.2-5.4-8.9zm1.2 0c0 4.1 1.3 7.9 4.2 7.9s3.9-3.7 3.9-7.8c0-4.8-1.3-7.8-4-7.8-2.5-.1-4.1 2.8-4.1 7.7zM119.2 128.5c-.9.6-2.4 1.2-3.3 1.4-.1 0-.2 0-.2-.1v-.8c0-.1 0-.1.1-.2 1.4-.4 2.7-1 3.5-1.6.1-.1.2-.1.3-.1h.7s.1 0 .1.1v16h3.4c.1 0 .1 0 .2.1v.8c0 .1 0 .2-.1.2h-8.2c-.1 0-.1 0-.1-.2v-.8c0-.1.1-.1.2-.1h3.5v-14.7zM137.2 127.2c.1 0 .1 0 .1.1v.6c0 .1 0 .2-.1.3-2.1 4.9-4.8 11.2-7.1 16.1 0 .1-.1.1-.2.1h-1c-.1 0-.1-.1-.1-.2 5.4-11.6 6.7-14.8 7.2-16h-9c-.1 0-.1 0-.1-.1l.1-.8c0-.1 0-.1.1-.1h10.1zM148.1 136.5c1.1 0 1.6.8 1.6 1.6 0 .9-.6 1.6-1.6 1.6-1.1 0-1.7-.7-1.7-1.6 0-.9.6-1.6 1.7-1.6zM159.8 144.4c-.1 0-.2 0-.2-.2v-16.9c0-.1 0-.1.1-.1h1.5c.1 0 .1 0 .2.1 2.5 4.2 8.3 13.7 9.5 15.8 0-.6-.1-1.8-.1-3.8v-12c0-.1 0-.1.2-.1h.9c.1 0 .1.1.1.2v16.9c0 .1 0 .2-.2.2h-1.4c-.1 0-.2 0-.2-.1-1-1.8-8.9-14.8-9.5-16 0 .7.1 2.1.1 4.2v11.8c0 .1-.1.2-.1.2h-.9zM186.2 144.3c0 .1-.1.1-.2.1h-9.2c-.2 0-.2-.1-.2-.2v-16.8c0-.1 0-.2.2-.2h8.7c.1 0 .1 0 .2.1l.1.8c0 .1 0 .2-.1.2h-7.9v6.8h6.9c.1 0 .1 0 .1.1v.8c0 .1 0 .1-.1.1h-6.9v7.2h8.4c.1 0 .1 0 .1.1l-.1.9zM203.4 143.2c.4-1.4 1.4-5.4 4.1-15.9 0-.1 0-.1.2-.1h1c.1 0 .1 0 .1.1l-4.5 16.9c0 .1-.1.1-.2.1h-1.3c-.1 0-.2 0-.2-.1-.8-3-3.4-14.2-3.9-16-.4 1.9-3.5 13.3-4.3 16 0 .1-.1.2-.2.2h-1.3c-.1 0-.2-.1-.2-.2l-4.4-16.9c0-.1 0-.1.1-.1h1c.1 0 .1 0 .2.1 3 11.5 3.8 14.9 4 15.9.3-1.1 1.3-4.8 4.3-15.9 0-.1.1-.1.2-.1h1.3c.1 0 .1 0 .1.1l3.9 15.9zM215.9 127.3c-.1-.1 0-.2.1-.2h1.1c.1 0 .1 0 .1.1 3.5 6.1 4.7 8.3 5.1 9.2.4-.8 1.6-3 5.1-9.1 0-.1.1-.1.2-.1h1.1c.1 0 .1 0 .1.1l-5.7 9.8c-.1.2-.2.4-.2.6v6.5c0 .1 0 .2-.1.2h-.9c-.2 0-.2-.1-.2-.2v-6.5c0-.2 0-.3-.2-.5l-5.6-9.9zM245.2 135.7c0 5.9-3.3 8.9-7.4 8.9-4.7 0-7.6-3.6-7.6-8.9 0-5.6 3.3-8.8 7.5-8.8 4.5 0 7.5 3.7 7.5 8.8zm-7.4 7.9c3.9 0 6.2-3.1 6.2-7.9 0-4.6-2.6-7.7-6.3-7.7-3.3 0-6.2 2.6-6.2 7.7-.1 4.3 2 7.9 6.3 7.9zM249 144.4c-.1 0-.2 0-.2-.1v-16.9c0-.1 0-.2.1-.2.9 0 2.3-.1 4-.1 3.3 0 5.8 1.4 5.8 4.6 0 2.6-1.7 4.1-4 4.6 1 1.2 5.7 7.1 6.2 7.8.1.1 0 .2 0 .2h-1.2c-.1 0-.2 0-.2-.1-.8-1-4.1-5.3-5.7-7.3-.2-.3-.4-.4-.8-.4h-3v7.6c0 .1-.1.1-.1.1h-.9zm3.9-8.8c3.3 0 4.6-1.7 4.6-3.8 0-2.2-1.5-3.7-4.6-3.7h-2.8v7.4h2.8zM263.7 144.4c-.1 0-.2-.1-.2-.2v-16.9c0-.1 0-.1.2-.1h.9c.1 0 .1 0 .1.2v7.8h1c.4 0 .5 0 .8-.3 1.9-2.1 4.8-5.3 6.9-7.5.1-.1.1-.1.2-.1h1.1c.1 0 .1.1.1.2-2.2 2.4-5.3 5.9-7.5 8.2-.1 0-.1.1 0 .2l8.5 8.5c.1.1.1.2-.1.2h-1.3c-.1 0-.2 0-.3-.1l-7.8-7.8c-.3-.3-.4-.3-.8-.3h-.9v8c0 .1 0 .2-.1.2h-.8z"/></g></svg>