<svg id="Layer_1" xmlns="http://www.w3.org/2000/svg" viewBox="-498 325 283 100"><style>.st0{fill:#fff}</style><path class="st0" d="M-469.8 329.3c12.8 0 22.4 6.6 22.4 20.2 0 13.5-9.6 21.1-22.4 21.1h-9V395h-15v-65.7h24zm-4.8 29.4c5.9 0 11.4-2 11.4-8.7 0-6.8-5.6-8.8-11.4-8.8h-4.2v17.5h4.2zm93.3 13.7c-3.6 16.6-17.5 23.7-30.4 23.7-17.7 0-32.1-15.2-32.1-34s13.5-34.1 32.1-34.1c11.5 0 19.6 4.3 25.3 11.2l-9.8 10.8c-3.8-6.1-8.9-8.5-14.7-8.5-9.2 0-16.7 9.2-16.7 20.5 0 11.1 7.5 20.2 16.7 20.2 7.2 0 14.3-4.7 14.3-12.7h-15.1v-11.4h30.4v14.3zm25.6-43.1c18 0 33.1 13.7 33.1 32.8 0 19.2-15 32.9-33.1 32.9h-19v-65.7h19zm-1.7 52.3c11.1 0 18.6-8.5 18.7-19.5 0-11-7.6-19.5-18.7-19.5h-2.3v38.9l2.3.1zm79.1-39.2h-22.6v13.1h21.7v13.1h-21.7v13.3h22.6V395H-316v-65.7h37.6v13.1zm59.1 29.3c0 16.3-8.9 24.5-25.6 24.5s-25.6-8.3-25.6-24.5v-42.4h15v38c0 11 3.4 14.2 10.7 14.2 7.3 0 10.7-3.2 10.7-14.2v-38h15v42.4zm-272.2 31.1h1.5c.1 0 .1.1.2.1.8 2.4 4.4 12.4 5 14.1.5-1.8 4.3-11.8 5.1-14.1.1-.1.1-.2.2-.2h1.4c.1 0 .1 0 .1.1l1 15.3c0 .1-.1.1-.1.1h-.9c-.1 0-.2 0-.2-.1-.3-5.6-.8-13.4-.8-14.7-.6 1.9-4.3 11.9-5.3 14.7-.1.1-.1.1-.2.1h-.9c-.2 0-.2-.1-.2-.1-1.5-4.1-4.5-12.8-5.1-14.7 0 1.7-.5 9.9-.8 14.7 0 .1-.1.1-.2.1h-.8c-.1 0-.1 0-.1-.1l1.1-15.3c-.2 0-.1 0 0 0zm20 9.8l-2.1 5.6c0 .1-.1.1-.2.1h-.8c-.1 0-.1-.1-.1-.2l5.3-14.7c.1-.1.1-.2.1-.6 0-.1.1-.1.1-.1h1.3c.1 0 .1 0 .1.1l5.6 15.3c0 .1 0 .2-.1.2h-.9c-.1 0-.1 0-.2-.1l-2.1-5.6h-6zm5.9-1c-.5-1.5-2.4-6.5-2.8-8-.4 1.3-1.8 5-2.7 8h5.5zm3.1-8.7c-.1-.1 0-.2.1-.2h1c.1 0 .1.1.1.1 3.1 5.5 4.3 7.5 4.7 8.3.4-.8 1.5-2.7 4.7-8.2 0-.1.1-.1.2-.1h1c.1 0 .1.1.1.1l-5.2 8.9c-.1.2-.2.3-.2.5v5.9c0 .1-.1.2-.1.2h-.8c-.2 0-.2-.1-.2-.2v-5.9c0-.2 0-.3-.2-.5l-5.2-8.9zm23.1 1c-.8.5-2.2 1.1-3 1.2-.1 0-.2 0-.2-.1v-.7c0-.1 0-.1.1-.2 1.3-.3 2.4-.9 3.1-1.5.1-.1.2-.1.3-.1h.6c.1 0 .1.1.1.1v14.5h3.1c.1 0 .1 0 .2.1v.7c0 .1 0 .2-.1.2h-7.4c-.1 0-.1 0-.1-.2v-.7c0-.1.1-.1.2-.1h3.1v-13.2zm8.4 13.7c0-.1.1-.1.2-.1 4-.1 6.5-2.7 7-6.4-1.1.9-2.5 1.2-3.8 1.2-2.9 0-4.7-2-4.7-4.8 0-2.7 1.9-5 4.8-5 3 0 4.9 2.4 4.9 6.6 0 6.4-3.9 9.4-8.2 9.5-.1 0-.2-.1-.2-.2v-.8zm7.2-7.5c.1-.4.1-.9.1-1 0-3.3-1.3-5.6-3.8-5.6-2.3 0-3.7 1.7-3.7 4 0 2.7 1.8 3.9 3.8 3.9 1.4 0 2.7-.4 3.6-1.3zm2.4 11.9c-.1 0-.1 0 0 0 1-2 1.4-3.7 1.2-5.6 0-.1 0-.1.1-.1h.8c.1 0 .1 0 .2.2.2 2-.3 4-1.4 5.5 0 .1-.1.1-.1.1l-.8-.1zm9.9-3.6c-.1 0-.1-.1-.1-.2v-.5c0-.1 0-.1.1-.2.8-.8 2.8-2.7 4.6-4.8 1.8-2.1 2.7-3.8 2.7-5.6 0-1.9-1.1-3.6-3.3-3.6-1.3 0-2.4.4-3.4 1.1-.1.1-.1 0-.1-.1v-.8c0-.1 0-.1.1-.2 1-.7 2.2-1.1 3.6-1.1 2.9 0 4.2 2.1 4.2 4.4 0 2-.7 3.7-2.8 6.2-1.5 1.7-3.1 3.3-4 4.2H-402c.1 0 .1 0 .1.1l-.2.8c0 .1-.1.1-.2.1l-9.1.2zm11.7-7.9c0-4.1 1.5-7.9 4.8-7.9 4 0 4.7 4.9 4.7 7.9 0 3.6-.8 8-4.7 8-3.4.1-4.8-3.8-4.8-8zm1.1 0c0 3.7 1.1 7.2 3.7 7.2s3.5-3.4 3.5-7.1c0-4.4-1.2-7.1-3.7-7.1-2.1 0-3.5 2.6-3.5 7zm15-6.6c-.8.5-2.2 1.1-3 1.2-.1 0-.2 0-.2-.1v-.7c0-.1 0-.1.1-.2 1.3-.3 2.4-.9 3.1-1.5.1-.1.2-.1.3-.1h.6c.1 0 .1.1.1.1v14.5h3.1c.1 0 .1 0 .2.1v.7c0 .1 0 .2-.1.2h-7.4c-.1 0-.1 0-.1-.2v-.7c0-.1.1-.1.2-.1h3.1v-13.2zm15.7-.4c0 .1 0 .1 0 0-4.3 0-6.8 2.4-7.4 6.7 1-.9 2.3-1.5 4-1.5 2.7 0 4.5 2.1 4.5 4.9s-1.7 5-4.8 5c-3.1 0-4.9-2.6-4.9-6.6 0-5.3 2.9-9.5 8.5-9.5.1 0 .1.1.1.1v.9zm-7.5 7.7v.8c0 3.7 1.7 5.6 3.8 5.6 2.2 0 3.7-1.7 3.7-4 0-2.4-1.6-4-3.7-4-1.3 0-2.7.4-3.8 1.6zm18 0c1 0 1.5.7 1.5 1.5s-.5 1.5-1.5 1.5-1.5-.7-1.5-1.5.5-1.5 1.5-1.5zm12.4 1.4l-2.1 5.6c0 .1-.1.1-.2.1h-.8c-.1 0-.2-.1-.1-.2l5.3-14.7c.1-.1.1-.2.1-.6 0-.1.1-.1.1-.1h1.3c.1 0 .1 0 .1.1l5.6 15.3c0 .1 0 .2-.1.2h-.9c-.1 0-.1 0-.2-.1l-2.1-5.6h-6zm5.9-1c-.5-1.5-2.4-6.5-2.8-8-.4 1.3-1.8 5-2.7 8h5.5zm7.3-8.8h1.5c.1 0 .1.1.2.1.8 2.4 4.4 12.4 5 14.1.5-1.8 4.3-11.8 5.1-14.1.1-.1.1-.2.2-.2h1.4c.1 0 .1 0 .1.1l1 15.3c0 .1-.1.1-.1.1h-.9c-.1 0-.2 0-.2-.1-.3-5.6-.8-13.4-.8-14.7-.6 1.9-4.3 11.9-5.3 14.7-.1.1-.1.1-.2.1h-.9c-.2 0-.2-.1-.2-.1-1.5-4.1-4.5-12.8-5.1-14.7 0 1.7-.5 9.9-.8 14.7 0 .1-.1.1-.2.1h-.8c-.1 0-.1 0-.1-.1l1.1-15.3zm17.2 14.7c-.1-.1-.1-.1-.1-.2v-.9c0-.1.1-.1.2-.1 1.2.9 2.7 1.3 3.9 1.3 2.5 0 3.7-1.4 3.7-3s-.8-2.4-3.1-3.6l-1-.5c-2.6-1.2-3.3-2.5-3.3-4.2.1-2.3 1.8-3.8 4.5-3.8 1.5 0 2.6.4 3.2.8.1.1.1.1.1.2v.8c0 .1-.1.2-.2.1-.8-.5-1.9-.9-3.2-.9-2.7 0-3.4 1.8-3.4 2.7 0 1.5.7 2.4 2.8 3.4l1.3.6c2.7 1.2 3.4 2.5 3.4 4.3 0 2.2-1.6 4.1-4.9 4.1-1.7 0-3-.5-3.9-1.1zm15.5-13.7h-5.3c-.1 0-.1-.1-.1-.2l.2-.7c0-.1.1-.1.2-.1h11.2c.1 0 .2.1.2.1l.1.7c0 .1 0 .2-.1.2h-5.3v14.4c0 .1-.1.2-.2.2h-.8c-.1 0-.1 0-.1-.2v-14.4zm17.5 14.4c0 .1-.1.1-.2.1h-8.3c-.2 0-.2-.1-.2-.2v-15.2c0-.1 0-.2.2-.2h7.9c.1 0 .1 0 .2.1l.2.7c0 .1 0 .2-.1.2h-7.1v6.2h6.3c.1 0 .1 0 .1.1v.8c0 .1-.1.1-.1.1h-6.2v6.6h7.6c.1 0 .1 0 .1.1l-.4.6zm3 .2c-.1 0-.2 0-.2-.1V403c0-.1 0-.2.1-.2.8 0 2.1-.1 3.6-.1 3 0 5.2 1.3 5.2 4.2 0 2.4-1.5 3.7-3.7 4.2.9 1.1 5.1 6.5 5.6 7.1.1.1 0 .2-.1.2h-1.1c-.1 0-.2 0-.2-.1-.8-.9-3.7-4.8-5.2-6.6-.2-.2-.3-.3-.7-.3h-2.6v6.9c0 .1-.1.1-.2.1h-.5zm3.6-8c3 0 4.1-1.5 4.1-3.4 0-2-1.4-3.3-4.2-3.3h-2.5v6.7h2.6zm9.6-7.5c0-.1 0-.2.1-.2.7 0 2.1-.1 4-.1 5.3 0 7.7 3.2 7.7 7.6 0 6.4-4.6 8.1-8.2 8.1-1.6 0-2.8-.1-3.4-.1-.1 0-.1-.1-.1-.2l-.1-15.1zm1.1 14.5c.3 0 1.4.1 2.4.1 4.4 0 7.1-2.3 7.1-7.1 0-4.5-2.7-6.7-6.6-6.7-1.5 0-2.7 0-2.9.1v13.6zm15.7-4.8l-2.1 5.6c0 .1-.1.1-.2.1h-.8c-.1 0-.2-.1-.1-.2l5.3-14.7c.1-.1.1-.2.1-.6 0-.1.1-.1.1-.1h1.3c.1 0 .1 0 .2.1l5.6 15.3c0 .1 0 .2-.1.2h-.9c-.1 0-.1 0-.2-.1l-2.1-5.6h-6.1zm5.9-1c-.5-1.5-2.4-6.5-2.8-8-.4 1.3-1.8 5-2.7 8h5.5zm7.2-8.8h1.5c.1 0 .2.1.2.1.8 2.4 4.4 12.4 5 14.1.5-1.8 4.3-11.8 5.1-14.1.1-.1.1-.2.2-.2h1.4c.1 0 .1 0 .2.1l1 15.3c0 .1-.1.1-.1.1h-.9c-.2 0-.2 0-.2-.1-.3-5.6-.8-13.4-.8-14.7-.6 1.9-4.3 11.9-5.3 14.7-.1.1-.1.1-.2.1h-.9c-.2 0-.2-.1-.2-.1-1.5-4.1-4.5-12.8-5.1-14.7 0 1.7-.5 9.9-.8 14.7 0 .1-.1.1-.2.1h-.8c-.1 0-.1 0-.1-.1l1-15.3z"/></svg>