<svg id="Layer_1" xmlns="http://www.w3.org/2000/svg" viewBox="0 0 283 100"><style>.st0{fill:#fff}</style><path class="st0" d="M29.9 5.7C42.5 5.7 52 12.2 52 25.6c0 13.3-9.5 20.8-22.1 20.8H21v24H6.3V5.7h23.6zm-4.6 28.9c5.8 0 11.3-2 11.3-8.6 0-6.7-5.5-8.6-11.3-8.6h-4.1v17.2h4.1zm91.8 13.5c-3.5 16.4-17.2 23.4-29.9 23.4-17.4 0-31.6-15-31.6-33.5S68.9 4.4 87.2 4.4c11.3 0 19.3 4.2 24.9 11L102.5 26c-3.8-6-8.7-8.3-14.4-8.3-9.1 0-16.5 9-16.5 20.2 0 11 7.4 19.9 16.5 19.9 7.1 0 14.1-4.6 14.1-12.5H87.3V34.1h29.9l-.1 14zm25.2-42.4c17.7 0 32.6 13.5 32.6 32.3 0 18.9-14.8 32.4-32.6 32.4h-18.7V5.7h18.7zm-1.7 51.4c10.9 0 18.3-8.3 18.4-19.2 0-10.8-7.4-19.2-18.4-19.2h-2.3V57l2.3.1zm77.8-38.5h-22.2v12.8h21.3v12.9h-21.3v13.1h22.2v12.9h-37V5.7h37v12.9zm58.3 28.8c0 16-8.8 24.1-25.2 24.1s-25.2-8.2-25.2-24.1V5.7H241v37.4c0 10.8 3.3 14 10.5 14s10.5-3.2 10.5-14V5.7h14.7v41.7zM5.1 79.2h1.3c.1 0 .1 0 .1.1.7 2.1 3.8 10.6 4.2 12.1.5-1.6 3.7-10.1 4.4-12.1 0-.1 0-.1.1-.1h1.2c.1 0 .1 0 .1.1l.8 13.1c0 .1 0 .1-.1.1h-.8c-.1 0-.1 0-.1-.1-.3-4.8-.6-11.4-.6-12.6-.5 1.6-3.7 10.2-4.5 12.6 0 .1-.1.1-.1.1h-.8c-.1 0-.1 0-.2-.1-1.2-3.5-3.8-11-4.4-12.6 0 1.4-.5 8.5-.7 12.6 0 .1 0 .1-.1.1h-.7c-.1 0-.1 0-.1-.1l1-13.2c-.1 0 0 0 0 0zm17.2 8.4l-1.8 4.8c0 .1 0 .1-.1.1h-.7c-.1 0-.1 0-.1-.1l4.6-12.6c0-.1.1-.2.1-.5 0 0 0-.1.1-.1h1.1c.1 0 .1 0 .1.1l4.7 13.1c0 .1 0 .1-.1.1h-.8c-.1 0-.1 0-.1-.1l-1.8-4.8h-5.2zm5.1-.8c-.4-1.3-2-5.6-2.4-6.8-.3 1.1-1.5 4.3-2.4 6.8h4.8zm2.6-7.5c-.1-.1 0-.1.1-.1h.9c.1 0 .1 0 .1.1 2.7 4.7 3.7 6.4 4 7.1.3-.6 1.3-2.3 4-7.1 0-.1.1-.1.1-.1h.8c.1 0 .1 0 0 .1l-4.4 7.6c-.1.2-.1.3-.1.4v5c0 .1 0 .1-.1.1h-.7c-.1 0-.1 0-.1-.1v-5.1c0-.2 0-.2-.1-.4L30 79.3zm19.8.9c-.7.4-1.9.9-2.5 1.1-.1 0-.1 0-.1-.1v-.6c0-.1 0-.1.1-.1 1.1-.3 2.1-.8 2.7-1.2.1-.1.2-.1.2-.1h.5s.1 0 .1.1v12.4h2.6c.1 0 .1 0 .1.1v.6c0 .1 0 .1-.1.1H47c-.1 0-.1 0-.1-.1v-.6l.1-.1h2.7V80.2zm13.5 2.3c0 1.5-.8 2.6-1.7 3.1 1.2.5 2.2 1.6 2.2 3.4 0 2.2-1.6 3.8-3.9 3.8-2.4 0-3.9-1.7-3.9-3.7 0-1.4.8-2.8 2.2-3.4-1.1-.5-1.8-1.7-1.8-3.1 0-1.8 1.2-3.5 3.5-3.5 2.2-.1 3.4 1.5 3.4 3.4zm-.4 6.5c0-1.7-.9-2.5-1.8-2.9-.1-.1-.3-.1-.5-.1h-1.2c-.3 0-.4 0-.5.1-1.1.4-1.9 1.5-1.9 2.9 0 1.9 1.5 2.9 3 2.9 1.9 0 2.9-1.4 2.9-2.9zm-5.5-6.5c0 1.2.5 2 1.4 2.5.2.1.4.2.6.2h1.1c.3 0 .5-.1.7-.2.8-.5 1.2-1.3 1.2-2.5 0-1.9-1.2-2.7-2.5-2.7-1.6 0-2.5 1.2-2.5 2.7zm18.5 3.1c1 .7 2.4 2.6 3.2 4 1.1 1.8 1.7 2.3 2.5 2.3.3 0 .5 0 .6-.1.1 0 .1 0 .1.1v.6c0 .1 0 .1-.1.2-.2.1-.4.1-.8.1-.9 0-1.6-.2-3.1-2.8-1.7-2.9-3.5-4.4-3.8-4.4-1.1 0-2.9.9-2.9 3.2 0 1.5 1.1 3.1 3.2 3.1 1.1 0 1.8-.2 2.4-.5.1 0 .1 0 .1.1v.6c0 .1 0 .1-.1.1-.4.2-1.2.5-2.5.5-2.3 0-4-1.5-4-3.9 0-2 1.2-3.5 3.2-3.9-.6-.5-1.6-1.5-1.6-2.9 0-1.9 1.4-3 3.2-3 .9 0 1.6.2 2.1.5.1 0 .1.1.1.1v.8c0 .1-.1.1-.1.1-.4-.3-1-.6-2-.6-1.3 0-2.3.6-2.3 2.1 0 1.2 1 2.2 2 2.8h6.3c.1 0 .1 0 .1.1l-.1.6c0 .1-.1.1-.1.1h-5.6zm16.3-5.4c-.7.4-1.9.9-2.5 1.1-.1 0-.1 0-.1-.1v-.6c0-.1 0-.1.1-.1 1.1-.3 2.1-.8 2.7-1.2.1-.1.2-.1.2-.1h.5s.1 0 .1.1v12.4h2.6c.1 0 .1 0 .1.1v.6c0 .1 0 .1-.1.1h-6.3c-.1 0-.1 0-.1-.1v-.6l.1-.1h2.7V80.2zm7.1 11.7s.1 0 0 0c3.6-.1 5.6-2.4 6.1-5.5-.9.8-2.2 1.1-3.2 1.1-2.5 0-4-1.7-4-4.1 0-2.4 1.6-4.3 4.1-4.3 2.6 0 4.2 2.1 4.2 5.6 0 5.5-3.3 8-7.1 8.1-.1 0-.1-.1-.1-.1v-.8zm6.2-6.4v-.9c0-2.8-1.1-4.8-3.3-4.8-1.9 0-3.1 1.5-3.1 3.5 0 2.3 1.6 3.4 3.2 3.4 1.4-.1 2.5-.5 3.2-1.2zm2.1 10.1c-.1 0-.1 0 0 0 .8-1.8 1.1-3.2 1-4.8 0-.1 0-.1.1-.1h.7c.1 0 .1 0 .1.1.1 1.7-.3 3.4-1.2 4.7 0 0 0 .1-.1.1h-.6zm8.5-3.1c-.1 0-.1 0-.1-.1V92c0-.1 0-.1.1-.1.7-.6 2.4-2.3 3.9-4.1 1.6-1.8 2.3-3.3 2.3-4.9 0-1.6-.9-3-2.8-3-1.1 0-2 .4-2.9 1-.1 0-.1 0-.1-.1v-.7c0-.1 0-.1.1-.1.8-.6 1.9-.9 3.1-.9 2.5 0 3.6 1.8 3.6 3.8 0 1.7-.6 3.2-2.4 5.3-1.3 1.5-2.6 2.8-3.4 3.6h6.6s.1 0 .1.1l-.2.6c0 .1 0 .1-.1.1h-7.8zm10-6.7c0-3.5 1.2-6.8 4.1-6.8 3.4 0 4 4.2 4 6.8 0 3.1-.7 6.9-4 6.9-3 0-4.1-3.3-4.1-6.9zm.9 0c0 3.2 1 6.1 3.2 6.1s3-2.9 3-6.1c0-3.7-1-6.1-3.1-6.1-1.9.1-3.1 2.3-3.1 6.1zm12.9-5.6c-.7.4-1.9.9-2.5 1.1-.1 0-.1 0-.1-.1v-.6c0-.1 0-.1.1-.1 1.1-.3 2.1-.8 2.7-1.2.1-.1.2-.1.2-.1h.5s.1 0 .1.1v12.4h2.6c.1 0 .1 0 .1.1v.6c0 .1 0 .1-.1.1h-6.3c-.1 0-.1 0-.1-.1v-.6l.1-.1h2.7V80.2zm13.9-1c.1 0 .1 0 0 0l.1.6v.2c-1.6 3.8-3.8 8.7-5.5 12.4 0 .1-.1.1-.1.1h-.8c-.1 0-.1 0-.1-.1 4.2-9 5.2-11.5 5.6-12.4h-7c-.1 0-.1 0-.1-.1l.1-.6c0-.1 0-.1.1-.1h7.7zm8.5 7.2c.8 0 1.3.6 1.3 1.3s-.4 1.3-1.3 1.3c-.8 0-1.3-.6-1.3-1.3s.4-1.3 1.3-1.3zm10.6 1.2l-1.8 4.8c0 .1 0 .1-.1.1h-.7c-.1 0-.1 0-.1-.1l4.6-12.6c0-.1.1-.2.1-.5 0 0 0-.1.1-.1h1.1c.1 0 .1 0 .1.1l4.7 13.1c0 .1 0 .1-.1.1h-.8c-.1 0-.1 0-.1-.1l-1.8-4.8h-5.2zm5.1-.8c-.4-1.3-2-5.6-2.4-6.8-.3 1.1-1.5 4.3-2.4 6.8h4.8zm6.2-7.6h1.3c.1 0 .1 0 .1.1.7 2.1 3.8 10.6 4.2 12.1.5-1.6 3.7-10.1 4.4-12.1 0-.1 0-.1.1-.1h1.2c.1 0 .1 0 .1.1l.8 13.1c0 .1 0 .1-.1.1h-.8c-.1 0-.1 0-.1-.1-.3-4.8-.6-11.4-.6-12.6-.5 1.6-3.7 10.2-4.5 12.6 0 .1-.1.1-.1.1h-.8c-.1 0-.1 0-.2-.1-1.2-3.5-3.8-11-4.4-12.6 0 1.4-.5 8.5-.7 12.6 0 .1 0 .1-.1.1h-.7c-.1 0-.1 0-.1-.1l1-13.2c-.1 0-.1 0 0 0zm14.7 12.6c-.1 0-.1-.1-.1-.2v-.8c0-.1.1-.1.1 0 1 .8 2.4 1.1 3.3 1.1 2.2 0 3.2-1.2 3.2-2.5 0-1.4-.6-2.1-2.7-3.1l-.9-.4c-2.2-1-2.8-2.2-2.8-3.6 0-2 1.6-3.2 3.8-3.2 1.3 0 2.2.3 2.8.6.1 0 .1.1.1.2v.7c0 .1-.1.1-.1.1-.7-.4-1.6-.8-2.8-.8-2.4 0-2.9 1.6-2.9 2.3 0 1.3.6 2 2.4 2.9l1.1.5c2.3 1.1 2.9 2.1 2.9 3.7 0 1.9-1.4 3.5-4.2 3.5-1.3-.1-2.4-.5-3.2-1zM212.1 80h-4.5c-.1 0-.1 0-.1-.1l.1-.6c0-.1 0-.1.1-.1h9.6c.1 0 .1 0 .1.1l.1.6c0 .1 0 .1-.1.1h-4.5v12.4c0 .1 0 .1-.1.1h-.7c-.1 0-.1 0-.1-.1V80zm15.1 12.4c0 .1-.1.1-.1.1H220c-.1 0-.1 0-.1-.1v-13c0-.1 0-.1.1-.1h6.8c.1 0 .1 0 .1.1l.1.6c0 .1 0 .1-.1.1h-6.1v5.3h5.3c.1 0 .1 0 .1.1v.5c0 .1 0 .1-.1.1h-5.3v5.6h6.5c.1 0 .1 0 .1.1l-.2.6zm2.6.1c-.1 0-.1 0-.1-.1v-13c0-.1 0-.1.1-.1h3.1c2.6 0 4.5 1.1 4.5 3.6 0 2-1.3 3.1-3.1 3.6.8.9 4.4 5.5 4.8 6.1v.1h-1c-.1 0-.1 0-.2-.1-.6-.8-3.2-4.1-4.4-5.6-.2-.2-.3-.3-.6-.3h-2.2v5.9c0 .1 0 .1-.1.1h-.8zm3-6.8c2.5 0 3.5-1.3 3.5-2.9 0-1.7-1.2-2.8-3.6-2.8h-2.2v5.7h2.3zm8.2-6.3c0-.1 0-.1.1-.1h3.4c4.5 0 6.6 2.8 6.6 6.5 0 5.5-3.9 6.9-7 6.9-1.4 0-2.4 0-2.9-.1-.1 0-.1 0-.1-.1V79.4zm1 12.3c.2 0 1.2.1 2.1.1 3.7 0 6.1-2 6.1-6.1 0-3.8-2.3-5.7-5.7-5.7H242v11.7zm13.4-4.1l-1.8 4.8c0 .1 0 .1-.1.1h-.7c-.1 0-.1 0-.1-.1l4.6-12.6c0-.1.1-.2.1-.5 0 0 0-.1.1-.1h1.1c.1 0 .1 0 .1.1l4.7 13.1c0 .1 0 .1-.1.1h-.8c-.1 0-.1 0-.1-.1l-1.8-4.8h-5.2zm5-.8c-.4-1.3-2-5.6-2.4-6.8-.3 1.1-1.5 4.3-2.4 6.8h4.8zm6.3-7.6h1.3c.1 0 .1 0 .1.1.7 2.1 3.8 10.6 4.2 12.1.5-1.6 3.7-10.1 4.4-12.1 0-.1 0-.1.1-.1h1.2c.1 0 .1 0 .1.1l.8 13.1c0 .1 0 .1-.1.1h-.8c-.1 0-.1 0-.1-.1-.3-4.8-.6-11.4-.6-12.6-.5 1.6-3.7 10.2-4.5 12.6 0 .1-.1.1-.1.1h-.8c-.1 0-.1 0-.2-.1-1.2-3.5-3.8-11-4.4-12.6 0 1.4-.5 8.5-.7 12.6 0 .1 0 .1-.1.1h-.7c-.1 0-.1 0-.1-.1l1-13.2c-.1 0-.1 0 0 0z"/></svg>