<svg id="Layer_1" xmlns="http://www.w3.org/2000/svg" xmlns:xlink="http://www.w3.org/1999/xlink" viewBox="-149 66 980 670"><style>.st0{opacity:.15;fill:#FFF}</style><symbol id="build-bot" viewBox="-42.3 -37.1 84.7 74.3"><path class="st0" d="M-4.3 7.9l-13.6 6.8c-.2.1-.3.4-.2.7.1.2.4.3.7.2l13.7-6.8 21.1 10.6c.2.1.5 0 .7-.2.1-.2 0-.5-.2-.7L-3.3 7.9V3.3c0-.3-.2-.5-.5-.5s-.5.2-.5.5v4.6zm4.5 21L-19 19.2l-.2-.1s-.2 0-.2.1l-3.8 1.9c-.2.1-.3.3-.3.4s.1.4.3.4L-4 31.5c.1.1.3.1.4 0l3.8-1.9c.2-.1.3-.3.3-.4s-.1-.3-.3-.3zm-1.3.4l-2.7 1.4-18.1-9 2.7-1.4 18.1 9zM-30.8-7.6l-2 1c-.2.1-.5 0-.7-.2-.1-.2 0-.5.2-.7l2-1 .2-.1c.2 0 .4.1.4.3.3.3.2.6-.1.7zm11.4 24.1l-1.7.8c-.2.1-.5 0-.7-.2-.1-.2 0-.5.2-.7l1.7-.8.2-.1c.2 0 .4.1.4.3.2.3.1.6-.1.7zM35.5-.3l-.3-.1 6.1-3c.7-.3 1.1-1 1.1-1.8V-9c0-.8-.4-1.5-1.1-1.8l-5.8-2.9c-.3-.1-.6-.2-.9-.2s-.6.1-.9.2L26-10l-1 .5c-.1-.6-.5-1.2-1.1-1.4L-2.9-24.4c-.3-.1-.6-.2-.9-.2s-.6.1-.9.2l-3.8 1.9h-.1l-2-1-.3-.1 6.1-3c.7-.3 1.1-1 1.1-1.8v-3.8c0-.8-.4-1.5-1.1-1.8l-5.8-2.9c-.3-.1-.6-.2-.9-.2-.3 0-.6.1-.9.2l-7.7 3.8-21.1 10.6c-.7.3-1.1 1-1.1 1.8v17.3c0 .8.4 1.5 1.1 1.8l5.8 2.9c.3.1.6.2.9.2s.6-.1.9-.2l4.8-2.4v4.2l-2.7 1.4c-.7.3-1.1 1-1.1 1.8v15.4c0 .8.4 1.5 1.1 1.8L-4.6 37c.3.1.6.2.9.2s.6-.1.9-.2L24 23.4c.7-.3 1.1-1 1.1-1.8V18l8.5-4.3 7.7-3.8c.7-.3 1.1-1 1.1-1.8V4.3c0-.8-.4-1.5-1.1-1.8L35.5-.3zm-75.4-20l20.1-10.1v16.2l-9.5 4.8c-.2.1-.3.4-.2.7.1.2.4.3.7.2l9.6-4.8 4.6 2.3-7.5 3.8-4.8 2.4-7.7 3.8-4.6-2.3 2.5-1.2c.2-.1.3-.4.2-.7-.1-.2-.3-.3-.4-.3s-.2 0-.2.1l-2.7 1.3-.1-16.2zM-22-6.2l1.7 2.6c.7 1 .4 2.3-.6 3-1 .6-2.3.3-3-.6l-2-3 3.9-2zm15.7-25.7v2.7l-.9-.4-.2-.1c-.2 0-.4.1-.4.3-.1.2 0 .5.2.7l.7.3-6.6 3.3-4.6-2.3.8-.4c.2-.1.3-.4.2-.7-.1-.2-.3-.3-.4-.3s-.2 0-.2.1l-.9.5v-2.7l6.7-3.3v2.7l-4.1 2c-.2.1-.3.4-.2.7.1.2.4.3.7.2l4.1-2.1 2.4 1.2c.2.1.5 0 .7-.2.1-.2 0-.5-.2-.7l-2.3-1.2v-2.7l4.5 2.4zM-14-21l-4.8 2.4v-8l4.8 2.4v3.2zm3.9.7l2.9 1.4.9.5v2.7l-.7-.4-.2-.1c-.2 0-.4.1-.4.3-.1.2 0 .5.2.7l.6.3-6.6 3.3-4.6-2.3 1.8-.9c.2-.1.3-.4.2-.7-.1-.2-.3-.3-.4-.3s-.2 0-.2.1l-2 1v-2.7l4.8-2.4 1.6-.8.3-.2v2.7l-2.2 1.1c-.2.1-.3.4-.2.7.1.2.4.3.7.2l2.2-1.1 2.1 1c.2.1.5 0 .7-.2.1-.2 0-.5-.2-.7l-2-1v-2.7l.7.5zm1.9 14.7l-18.2 9.1v-6.7l1.7 2.5c.6.9 1.6 1.4 2.6 1.4.6 0 1.2-.2 1.7-.5 1.4-1 1.8-2.9.9-4.4l-1.7-2.5 7.9-3.9h.1l5-2.5v7.5zm30.8.2V5.4l-25.9-13V-11c0-.3-.2-.5-.5-.5s-.5.2-.5.5V1c0 .3.2.5.5.5s.5-.3.5-.5V-.6L-.2 1l6.7 3.4 5.8 2.9 6.7 3.4 3.6 1.8V21l-1.7-.9-.2-.1c-.2 0-.4.1-.4.3-.1.2 0 .5.2.7l1.6.8-25.9 12.7-25.8-12.9 4.2-2.1c.2-.1.3-.4.2-.7-.1-.2-.3-.3-.4-.3s-.2 0-.2.1l-4.4 2.2V6.6l3.5-1.8.3-.1 18.9-9.5c.2-.1.3-.3.3-.4v-8.3l1.6-.8h.1v-4.1c0-.2-.1-.4-.3-.4L-7.2-20v-.3l2.8-1.4v8.1c0 .3.2.5.5.5s.5-.2.5-.5v-8.1l25.9 13v3.3h.1zm17.3-.2L32.7-2 28-4.3l.9-.4c.2-.1.3-.4.2-.7-.1-.2-.3-.3-.4-.3s-.2 0-.2.1l-1.1.5v-2.7l3.9-2 2.8-1.4v2.7l-3.5 1.7c-.2.1-.3.4-.2.7.1.2.4.3.7.2l3.5-1.8 1.9 1c.2.1.5 0 .7-.2.1-.2 0-.5-.2-.7l-1.9-.9v-2.7l4.8 2.4v3.2zM12 1.3v4.6L7.2 3.5v-4.6L12 1.3zM-3.3-6.4L-.5-5v4.6l-2.8-1.4v-4.6zM.5.2v-4.6l5.7 2.9V3L.5.2zM13 1.8l5.7 2.9v4.6L13 6.4V1.8zm6.7 3.3l2.8 1.4v4.7l-2.8-1.4V5.1zm20.2-.5v3.2l-7.2 3.6L28 9.1l1.1-.6c.2-.1.3-.4.2-.7-.1-.2-.3-.3-.4-.3s-.2 0-.2.1l-1.3.7V5.6l6.7-3.3V5l-3 1.5c-.2.1-.3.4-.2.7.1.2.4.3.7.2l3.1-1.5 1.9 1c.2.1.5 0 .7-.2.1-.2 0-.5-.2-.7l-2-1V2.2l4.8 2.4zm-16.3 6.8l3.3-1.7 4.6 2.3-8 4v-4.6h.1zm8.6-9.3l-4.8 2.4v-8l4.8 2.4v3.2zm-8.6-8l2.8-1.4V8.8l-2.8 1.4V-5.9z"/></symbol><symbol id="fire-hdx" viewBox="-61.7 -42.5 123.4 85"><path class="st0" d="M55.4 42.5H-55.4c-3.5 0-6.3-2.8-6.3-6.3v-72.4c0-3.5 2.8-6.3 6.3-6.3H55.4c3.5 0 6.3 2.8 6.3 6.3v72.4c0 3.5-2.8 6.3-6.3 6.3zm2.5-6.3v-72.4c0-1.4-1.1-2.5-2.5-2.5H-55.4c-1.4 0-2.5 1.1-2.5 2.5v72.4c0 1.4 1.1 2.5 2.5 2.5H55.4c1.4 0 2.5-1.1 2.5-2.5zM50.3-32H-50.3v63.3H50.3V-32zm-99.6 1h98.5v61.3h-98.5V-31zm99.6-1H-50.3v63.3H50.3V-32zm-99.6 1h98.5v61.3h-98.5V-31zM.9 35.1c0-.5-.4-.9-.9-.9s-.9.4-.9.9.4.9.9.9.9-.4.9-.9z"/></symbol><symbol id="galaxy" viewBox="-20.2 -39.2 40.5 78.3"><path class="st0" d="M-7 33.3c.3 0 .6.2.8.4.2-.2.5-.4.8-.4.4 0 .7.2.8.5.2-.6.7-1 1.4-1H3c.8 0 1.5.7 1.5 1.5s-.7 1.5-1.5 1.5h-6.2c-.6 0-1.2-.4-1.4-.9-.2.3-.5.5-.9.5-.3 0-.6-.2-.8-.4-.2.2-.5.4-.8.4-.6 0-1-.5-1-1 0-.6.5-1.1 1.1-1.1zm3.8 1.5H3c.3 0 .5-.2.5-.5s-.2-.5-.5-.5h-6.2c-.3 0-.5.2-.5.5s.2.5.5.5zm11.7-1.7c.7 0 1.2.5 1.2 1.2s-.5 1.2-1.2 1.2-1.2-.5-1.2-1.2.5-1.2 1.2-1.2zm.2 1.2c0-.1-.1-.2-.2-.2s-.2.1-.2.2c0 .3.4.3.4 0zm4.1 4.4c-4.3.3-8.7.4-12.9.4-4.3 0-8.6-.1-12.9-.4-4.1 0-7.3-3.3-7.3-7.4v-62.7c0-4.1 3.3-7.4 7.3-7.4 4.3-.3 8.7-.4 13-.4s8.6.1 12.9.4c4.1 0 7.3 3.3 7.3 7.4v62.7c-.1 4.1-3.3 7.4-7.4 7.4zm5.3-70c0-3-2.4-5.4-5.4-5.4-4.2-.3-8.5-.4-12.8-.4s-8.6.1-12.9.4c-3 0-5.4 2.4-5.4 5.4v62.7c0 3 2.4 5.4 5.4 5.4 4.3.2 8.6.3 12.9.3s8.6-.1 12.9-.4c3 0 5.4-2.4 5.4-5.4l-.1-62.6zm-6.9-1.9c0-.3-.2-.5-.5-.5H9.5v.2h1.2c.2 0 .4.2.4.4s-.2.4-.4.4H10v-.2l-.7.2s-.1 0-.1.1.1.1.1.1l.7.2v-.2h.7c.3-.2.5-.4.5-.7zm-27.9 3.7h33.3v58.9h-33.3v-58.9zm1 57.8h31.3v-56.9h-31.3v56.9zM2.4-30.8h-4.8c-1.3 0-2.3-1-2.3-2.3s1-2.3 2.3-2.3h4.8c1.3 0 2.3 1 2.3 2.3s-1 2.3-2.3 2.3zm0-3.6h-4.8c-.7 0-1.3.6-1.3 1.3s.6 1.3 1.3 1.3h4.8c.7 0 1.3-.6 1.3-1.3s-.6-1.3-1.3-1.3zm-11.7 2v-.9s0-.1-.1-.1h-.1v.9H-11v.1s0 .1.1.1h1.5l.1-.1zm-.4-.2h-1.7s-.1 0-.1-.1v-.9s0-.1.1-.1h1.7s.1 0 .1.1v.8l-.1.2zm-.1-.3v-.6h-1.5v.7h1.5v-.1z"/></symbol><symbol id="htc-one" viewBox="-20.6 -39.8 41.2 79.6"><path class="st0" d="M12.7 39.8h-25.4c-4.3 0-7.9-3.5-7.9-7.9v-63.8c0-4.3 3.5-7.9 7.9-7.9h25.4c4.3 0 7.9 3.5 7.9 7.9v63.8c0 4.3-3.6 7.9-7.9 7.9zm5.9-71.7c0-3.2-2.6-5.9-5.9-5.9h-25.4c-3.2 0-5.9 2.6-5.9 5.9v63.8c0 3.2 2.6 5.9 5.9 5.9h25.4c3.2 0 5.9-2.6 5.9-5.9v-63.8zm-5.9 69.1h-25.4c-2.9 0-5.3-2.4-5.3-5.3v-63.8c0-2.9 2.4-5.3 5.3-5.3h25.4c2.9 0 5.3 2.4 5.3 5.3v63.8c0 2.9-2.4 5.3-5.3 5.3zm0-73.4h-25.4c-2.2 0-4.1 1.7-4.3 3.9h34c-.2-2.2-2-3.9-4.3-3.9zM8.1 33.2c-.2 0-.3.1-.3.3s.1.3.3.3c.2 0 .3-.1.3-.3s-.1-.3-.3-.3zm-24.8-64.5v62.2h33.3v-62.2h-33.3zM17 31.9H9c.5.3.9.9.9 1.6 0 1-.8 1.8-1.8 1.8s-1.8-.8-1.8-1.8c0-.7.4-1.3.9-1.6H5.7c.2.2.3.4.3.7v1.6c0 .5-.4 1-1 1s-1-.4-1-1v-1.6c0-.3.1-.6.4-.7H-17c0 2.4 1.9 4.3 4.3 4.3h25.4c2.4 0 4.3-1.9 4.3-4.3zM3.4 34.6c0-.3-.2-.5-.5-.5H-9.9c-.3 0-.5.2-.5.5s.2.5.5.5H2.9c.3 0 .5-.3.5-.5zm0-1.6c0-.3-.2-.5-.5-.5H-9.9c-.3 0-.5.2-.5.5s.2.5.5.5H2.9c.3 0 .5-.3.5-.5zm6.4-66.3c0-.3-.2-.5-.5-.5H-9.9c-.3 0-.5.2-.5.5s.2.5.5.5H9.3c.2 0 .5-.2.5-.5zm0-1.4c0-.3-.2-.5-.5-.5H-9.9c-.3 0-.5.2-.5.5s.2.5.5.5H9.3c.2 0 .5-.2.5-.5z"/></symbol><symbol id="ipad" viewBox="-36.8 -53.6 73.6 107.3"><path class="st0" d="M29.6 51.7c2.9 0 5.2-2.3 5.2-5.2v-92.9c0-2.9-2.3-5.2-5.2-5.2h-59.2c-2.9 0-5.2 2.3-5.2 5.2v92.9c0 2.9 2.3 5.2 5.2 5.2h59.2m0 2h-59.2c-4 0-7.2-3.2-7.2-7.2v-92.9c0-4 3.2-7.2 7.2-7.2h59.2c4 0 7.2 3.2 7.2 7.2v92.9c0 3.9-3.2 7.2-7.2 7.2zm1.4-96h-62c-.4 0-.8.3-.8.8v82.9c0 .4.3.8.8.8h62c.4 0 .8-.3.8-.8v-82.9c-.1-.4-.4-.8-.8-.8zm-61.9 1h61.6v82.4h-61.6v-82.4zM29.6 51h-59.2c-2.5 0-4.6-2-4.6-4.6v-92.9c0-2.5 2-4.6 4.6-4.6h59.2c2.5 0 4.6 2 4.6 4.6v92.9c0 2.6-2.1 4.6-4.6 4.6zM0-48.9c-1 0-1.8.8-1.8 1.8s.8 1.9 1.8 1.9S1.8-46 1.8-47 1-48.9 0-48.9zm33.2 2.4c0-2-1.6-3.6-3.6-3.6H1.1c1.2.5 2.1 1.6 2.1 3 0 1.8-1.4 3.2-3.2 3.2s-3.2-1.4-3.2-3.2c0-1.4.9-2.6 2.1-3h-28.5c-2 0-3.6 1.6-3.6 3.6v92.9c0 2 1.6 3.6 3.6 3.6h59.2c2 0 3.6-1.6 3.6-3.6v-92.9zM-.1 46.8c-.4 0-.6-.3-.6-.6 0-.4.3-.6.6-.6s.6.3.6.6c.1.4-.2.6-.6.6zm-2-1.4c-.4 0-.8.4-.8.8s.4.8.8.8.8-.4.8-.8-.4-.8-.8-.8zm0 1c-.1 0-.2-.1-.2-.2 0-.2.4-.2.4 0 0 .1-.1.2-.2.2z"/></symbol><symbol id="iphone" viewBox="-36.9 -18.9 73.7 37.8"><path class="st0" d="M30.5 18.5h-44.7v.4h-7.3v-.4h-8.9c-3.5 0-6.4-2.9-6.4-6.4v-24.2c0-3.5 2.9-6.4 6.4-6.4h2.7v-.4h4.9v.4h1.3v-.4h13.8v.4h38.2c3.5 0 6.4 2.9 6.4 6.4v24.2c-.1 3.6-2.8 6.4-6.4 6.4zm0-34.7h-60.9c-2.3 0-4.2 1.9-4.2 4.2v24.2c0 2.3 1.9 4.2 4.2 4.2h60.9c2.3 0 4.2-1.9 4.2-4.2V-12c.1-2.3-1.8-4.2-4.2-4.2zm-58 .7h55v31.3h-55v-31.3zm1 30.2h53v-29.3h-53v29.3zM31 3.2c-1.8 0-3.2-1.4-3.2-3.2s1.4-3.2 3.2-3.2c1.8 0 3.2 1.4 3.2 3.2S32.8 3.2 31 3.2zm0-5c-1 0-1.8.8-1.8 1.8S30 1.8 31 1.8 32.8 1 32.8 0 32-1.8 31-1.8zm-62.9-.5v4.8c0 .5.4.8.8.8.5 0 .8-.4.8-.8v-4.8c0-.5-.4-.8-.8-.8s-.8.3-.8.8zm1.9-3.2c0-.6-.5-1.1-1.1-1.1s-1.1.5-1.1 1.1.5 1.1 1.1 1.1 1.1-.5 1.1-1.1zM-33.2.9c-.4 0-.8-.3-.8-.8s.3-.8.8-.8.8.3.8.8-.4.8-.8.8zm-.2-.8c0 .1.1.2.2.2s.2-.1.2-.2c0-.3-.4-.3-.4 0z"/></symbol><symbol id="lumia" viewBox="-23.4 -42.9 46.8 85.7"><path class="st0" d="M16.3 42.8h-32.6c-3.9 0-7.1-3.2-7.1-7.1v-71.5c0-3.9 3.2-7.1 7.1-7.1h32.6c3.9 0 7.1 3.2 7.1 7.1v71.5c-.1 3.9-3.2 7.1-7.1 7.1zm0-83.6h-32.6c-2.8 0-5.1 2.3-5.1 5.1v71.5c0 2.8 2.3 5.1 5.1 5.1h32.6c2.8 0 5.1-2.3 5.1-5.1V22.3l-.5.3V7.9l.5.3V3.6l-.5.3v-8.3l.5.3v-31.6c-.1-2.8-2.3-5.1-5.1-5.1zm0 81.1h-32.6c-2.5 0-4.5-2-4.5-4.5v-71.5c0-2.5 2-4.5 4.5-4.5h32.6c2.5 0 4.5 2 4.5 4.5v71.5c0 2.4-2 4.5-4.5 4.5zm3.5-76c0-1.9-1.6-3.5-3.5-3.5H5.8l-.7 1c-.1.2-.4.4-.7.4H4c-.3 0-.6-.2-.7-.4l-.7-1h-18.8c-1.9 0-3.5 1.6-3.5 3.5v71.5c0 1.9 1.6 3.5 3.5 3.5h32.6c1.9 0 3.5-1.6 3.5-3.5l-.1-71.5zM-2.5 37.6c0 .4.3.8.8.8h3.1c.4 0 .8-.3.8-.8 0-.4-.3-.8-.8-.8h-3.1c-.5.1-.8.4-.8.8zm6.3-1.1c.4 0 .8.3.8.8 0 .4-.3.8-.8.8-.4 0-.8-.3-.8-.8 0-.4.3-.8.8-.8zm0 1c.1 0 .2-.1.2-.2 0-.2-.5-.2-.5 0 0 .1.1.2.3.2zm4-1.2H9c.6 0 1.1.5 1.1 1.1s-.5 1.1-1.1 1.1H7.8c-.6 0-1.1-.5-1.1-1.1s.5-1.1 1.1-1.1zm0 1.1H9s.1 0 .1-.1 0-.1-.1-.1H7.8v.2zM-17.8-33h35.6v66h-35.6v-66zm1 65h33.6v-64h-33.6v64z"/></symbol><symbol id="nexus-9" viewBox="-60.4 -41.4 120.8 82.8"><path class="st0" d="M55 41.4H-55c-3 0-5.4-2.4-5.4-5.4v-71.7c0-3 2.4-5.4 5.4-5.4h72.1l.2-.3h15l.2.3h1l.2-.3h6.9l.2.3H55c3 0 5.4 2.4 5.4 5.4V36c0 3-2.4 5.4-5.4 5.4zM-56.9-35.7v24.9l.7.5v21l-.7.5V36c0 1 .8 1.9 1.9 1.9H55c1 0 1.9-.8 1.9-1.9V11.3l-.7-.5v-21l.7-.5v-24.9c0-1-.8-1.9-1.9-1.9H-55c-1 0-1.9.8-1.9 1.8zm88.1-3.7H18.4l-.2.3h13.3l-.3-.3zm8.3 0h-4.7l-.2.3h5.1l-.2-.3zM47 35.5h-93.9v-70.7H47v70.7zm-1-69.7h-91.9v68.7H46v-68.7zM50.9.2c0 .5.4.9.9.9s.9-.4.9-.9-.4-.9-.9-.9-.9.4-.9.9zM-52.8.2c0 .6.5 1 1 1s1-.5 1-1c0-.6-.5-1-1-1s-1 .4-1 1z"/></symbol><use xlink:href="#iphone" width="73.7" height="37.8" x="-36.9" y="-18.9" transform="matrix(.9947 0 0 -.9947 12.292 384.43)" overflow="visible"/><use xlink:href="#iphone" width="73.7" height="37.8" x="-36.9" y="-18.9" transform="matrix(.9947 0 0 -.9947 357.683 352.912)" overflow="visible"/><use xlink:href="#iphone" width="73.7" height="37.8" x="-36.9" y="-18.9" transform="matrix(0 .9947 .9947 0 375.427 139.463)" overflow="visible"/><use xlink:href="#galaxy" width="40.5" height="78.3" x="-20.2" y="-39.2" transform="matrix(1 0 0 -1 89.765 243.948)" overflow="visible"/><use xlink:href="#galaxy" width="40.5" height="78.3" x="-20.2" y="-39.2" transform="matrix(0 1 1 0 152.663 599.58)" overflow="visible"/><use xlink:href="#galaxy" width="40.5" height="78.3" x="-20.2" y="-39.2" transform="matrix(0 1 1 0 250.68 161.605)" overflow="visible"/><use xlink:href="#galaxy" width="40.5" height="78.3" x="-20.2" y="-39.2" transform="matrix(0 1 1 0 498.054 568.06)" overflow="visible"/><use xlink:href="#galaxy" width="40.5" height="78.3" x="-20.2" y="-39.2" transform="matrix(1 0 0 -1 337.14 650.404)" overflow="visible"/><use xlink:href="#galaxy" width="40.5" height="78.3" x="-20.2" y="-39.2" transform="matrix(1 0 0 -1 -18.918 689.388)" overflow="visible"/><use xlink:href="#htc-one" width="41.2" height="79.6" x="-20.6" y="-39.8" transform="matrix(0 -.9976 -.9976 0 -67.34 477.432)" overflow="visible"/><use xlink:href="#htc-one" width="41.2" height="79.6" x="-20.6" y="-39.8" transform="matrix(0 -.9976 -.9976 0 278.05 445.914)" overflow="visible"/><use xlink:href="#htc-one" width="41.2" height="79.6" x="-20.6" y="-39.8" transform="matrix(0 -.9976 -.9976 0 635.057 496.05)" overflow="visible"/><use xlink:href="#htc-one" width="41.2" height="79.6" x="-20.6" y="-39.8" transform="matrix(.9976 0 0 -.9976 316.226 89.567)" overflow="visible"/><use xlink:href="#htc-one" width="41.2" height="79.6" x="-20.6" y="-39.8" transform="matrix(.9976 0 0 -.9976 159.566 232.35)" overflow="visible"/><use xlink:href="#htc-one" width="41.2" height="79.6" x="-20.6" y="-39.8" transform="matrix(.9976 0 0 -.9976 61.55 670.323)" overflow="visible"/><use xlink:href="#htc-one" width="41.2" height="79.6" x="-20.6" y="-39.8" transform="matrix(.9976 0 0 -.9976 411.673 667.914)" overflow="visible"/><use xlink:href="#nexus-9" width="120.8" height="82.8" x="-60.4" y="-41.4" transform="matrix(1 0 0 -1 126.785 128.937)" overflow="visible"/><use xlink:href="#nexus-9" width="120.8" height="82.8" x="-60.4" y="-41.4" transform="matrix(1 0 0 -1 574.403 179.85)" overflow="visible"/><use xlink:href="#nexus-9" width="120.8" height="82.8" x="-60.4" y="-41.4" transform="matrix(1 0 0 -1 28.768 566.91)" overflow="visible"/><use xlink:href="#nexus-9" width="120.8" height="82.8" x="-60.4" y="-41.4" transform="matrix(1 0 0 -1 374.16 535.392)" overflow="visible"/><use xlink:href="#lumia" width="46.8" height="85.7" x="-23.4" y="-42.9" transform="matrix(.998 0 0 -.998 241.328 65.71)" overflow="visible"/><use xlink:href="#lumia" width="46.8" height="85.7" x="-23.4" y="-42.9" transform="matrix(.998 0 0 -.998 357.732 257.606)" overflow="visible"/><use xlink:href="#lumia" width="46.8" height="85.7" x="-23.4" y="-42.9" transform="matrix(.998 0 0 -.998 143.31 503.683)" overflow="visible"/><use xlink:href="#lumia" width="46.8" height="85.7" x="-23.4" y="-42.9" transform="matrix(.998 0 0 -.998 263.015 702.163)" overflow="visible"/><use xlink:href="#lumia" width="46.8" height="85.7" x="-23.4" y="-42.9" transform="matrix(.998 0 0 -.998 12.34 289.124)" overflow="visible"/><use xlink:href="#ipad" width="73.6" height="107.3" x="-36.8" y="-53.6" transform="matrix(1 0 0 -1 -81.577 257.274)" overflow="visible"/><use xlink:href="#ipad" width="73.6" height="107.3" x="-36.8" y="-53.6" transform="matrix(1 0 0 -1 -90.216 583.39)" overflow="visible"/><use xlink:href="#ipad" width="73.6" height="107.3" x="-36.8" y="-53.6" transform="matrix(1 0 0 -1 255.175 551.872)" overflow="visible"/><use xlink:href="#ipad" width="73.6" height="107.3" x="-36.8" y="-53.6" transform="matrix(1 0 0 -1 115.48 363.682)" overflow="visible"/><use xlink:href="#ipad" width="73.6" height="107.3" x="-36.8" y="-53.6" transform="matrix(1 0 0 -1 460.872 332.164)" overflow="visible"/><use xlink:href="#ipad" width="73.6" height="107.3" x="-36.8" y="-53.6" transform="matrix(1 0 0 -1 455.42 196.33)" overflow="visible"/><use xlink:href="#ipad" width="73.6" height="107.3" x="-36.8" y="-53.6" transform="matrix(1 0 0 -1 7.8 145.417)" overflow="visible"/><use xlink:href="#fire-hdx" width="123.4" height="85" id="XMLID_8_" x="-61.7" y="-42.5" transform="matrix(1 0 0 -1 597.25 400.402)" overflow="visible"/><use xlink:href="#fire-hdx" width="123.4" height="85" id="XMLID_9_" x="-61.7" y="-42.5" transform="matrix(1 0 0 -1 -105.148 381.783)" overflow="visible"/><use xlink:href="#fire-hdx" width="123.4" height="85" id="XMLID_10_" x="-61.7" y="-42.5" transform="matrix(1 0 0 -1 -112.933 88.537)" overflow="visible"/><use xlink:href="#fire-hdx" width="123.4" height="85" id="XMLID_11_" x="-61.7" y="-42.5" transform="matrix(1 0 0 -1 240.243 350.265)" overflow="visible"/><use xlink:href="#build-bot" width="84.7" height="74.3" x="-42.3" y="-37.1" transform="matrix(.9973 0 0 -.9973 160.22 682.02)" overflow="visible"/><use xlink:href="#build-bot" width="84.7" height="74.3" x="-42.3" y="-37.1" transform="matrix(.9973 0 0 -.9973 394.592 439.07)" overflow="visible"/><use xlink:href="#build-bot" width="84.7" height="74.3" id="XMLID_13_" x="-42.3" y="-37.1" transform="rotate(180 297.468 41.763) scale(.9973)" overflow="visible"/><use xlink:href="#build-bot" width="84.7" height="74.3" x="-42.3" y="-37.1" transform="rotate(180 129.168 122.024) scale(.9973)" overflow="visible"/><use xlink:href="#build-bot" width="84.7" height="74.3" x="-42.3" y="-37.1" transform="rotate(180 24.65 235.293) scale(.9973)" overflow="visible"/><use xlink:href="#build-bot" width="84.7" height="74.3" x="-42.3" y="-37.1" transform="rotate(180 252.855 325.25) scale(.9973)" overflow="visible"/><use xlink:href="#nexus-9" width="120.8" height="82.8" id="XMLID_3_" x="-60.4" y="-41.4" transform="matrix(1 0 0 -1 825.944 345.818)" overflow="visible"/><use xlink:href="#ipad" width="73.6" height="107.3" id="XMLID_2_" x="-36.8" y="-53.6" transform="matrix(1 0 0 -1 807.785 207.114)" overflow="visible"/><use xlink:href="#lumia" width="46.8" height="85.7" id="XMLID_5_" x="-23.4" y="-42.9" transform="matrix(.998 0 0 -.998 688.655 116.623)" overflow="visible"/><use xlink:href="#fire-hdx" width="123.4" height="85" id="XMLID_1_" x="-61.7" y="-42.5" transform="matrix(1 0 0 -1 794.264 88.744)" overflow="visible"/><use xlink:href="#galaxy" width="40.5" height="78.3" x="-20.2" y="-39.2" transform="matrix(1 0 0 -1 537.384 294.862)" overflow="visible"/><use xlink:href="#htc-one" width="41.2" height="79.6" x="-20.6" y="-39.8" transform="matrix(.9976 0 0 -.9976 607.185 283.263)" overflow="visible"/><use xlink:href="#iphone" width="73.7" height="37.8" x="-36.9" y="-18.9" transform="matrix(.9947 0 0 -.9947 714.69 403.048)" overflow="visible"/><use xlink:href="#build-bot" width="84.7" height="74.3" x="-42.3" y="-37.1" transform="matrix(.9973 0 0 -.9973 705.855 294.962)" overflow="visible"/><use xlink:href="#build-bot" width="84.7" height="74.3" id="XMLID_4_" x="-42.3" y="-37.1" transform="rotate(180 375.85 244.602) scale(.9973)" overflow="visible"/><use xlink:href="#nexus-9" width="120.8" height="82.8" x="-60.4" y="-41.4" transform="matrix(1 0 0 -1 731.165 585.53)" overflow="visible"/><use xlink:href="#fire-hdx" width="123.4" height="85" x="-61.7" y="-42.5" transform="matrix(1 0 0 -1 738.57 702.164)" overflow="visible"/><use xlink:href="#galaxy" width="40.5" height="78.3" id="XMLID_6_" x="-20.2" y="-39.2" transform="matrix(0 1 1 0 698.3 212.52)" overflow="visible"/><use xlink:href="#lumia" width="46.8" height="85.7" id="XMLID_7_" x="-23.4" y="-42.9" transform="matrix(.998 0 0 -.998 612.352 725.285)" overflow="visible"/><use xlink:href="#ipad" width="73.6" height="107.3" x="-36.8" y="-53.6" transform="matrix(1 0 0 -1 612.182 602.01)" overflow="visible"/><use xlink:href="#lumia" width="46.8" height="85.7" x="-23.4" y="-42.9" transform="matrix(.998 0 0 -.998 488.703 472.165)" overflow="visible"/><use xlink:href="#htc-one" width="41.2" height="79.6" id="XMLID_12_" x="-20.6" y="-39.8" transform="matrix(0 -.9976 -.9976 0 478.294 90.372)" overflow="visible"/></svg>