<svg xmlns="http://www.w3.org/2000/svg" viewBox="0 0 400 160"><path fill="#E25665" d="M51.5 20.1c16.8 0 29.4 8.7 29.4 26.5 0 17.7-12.6 27.7-29.4 27.7H39.7v31.9H20.1V20.1h31.4zm-6.2 38.5c7.7 0 15-2.6 15-11.4 0-8.9-7.3-11.5-15-11.5h-5.5v22.9h5.5zm122.2 18c-4.7 21.8-22.9 31.1-39.8 31.1-23.2 0-42-19.9-42-44.6 0-24.7 17.7-44.7 42-44.7 15.1 0 25.7 5.6 33.2 14.7l-12.8 14.1c-5-8-11.6-11.1-19.2-11.1-12.1 0-21.9 12-21.9 26.9 0 14.6 9.8 26.5 21.9 26.5 9.4 0 18.7-6.1 18.7-16.6h-19.8V58h39.8v18.6zm33.6-56.5c23.6 0 43.4 18 43.4 43 0 25.2-19.7 43.1-43.4 43.1h-24.9V20.1h24.9zm-2.3 68.5c14.5 0 24.4-11.1 24.5-25.5 0-14.4-9.9-25.6-24.5-25.6h-3v51h3zm103.6-51.3h-29.6v17.1h28.4v17.2h-28.4V89h29.6v17.2h-49.3V20.1h49.3v17.2zm77.5 38.3c0 21.3-11.7 32.1-33.6 32.1s-33.6-10.9-33.6-32.1V20.1h19.6v49.8c0 14.4 4.4 18.6 14 18.6s14-4.2 14-18.6V20.1h19.6v55.5zM23.2 116.4h1.9c.1 0 .1.1.2.1 1.1 3.2 5.8 16.2 6.5 18.5.7-2.4 5.6-15.4 6.7-18.5.1-.1.1-.2.2-.2h1.8c.1 0 .1 0 .1.1l1.3 20.1c0 .1-.1.1-.1.1h-1.2c-.1 0-.2 0-.2-.1-.4-7.3-1-17.5-1-19.2-.8 2.5-5.6 15.6-6.9 19.2-.1.1-.1.1-.2.1h-1.2c-.2 0-.2-.1-.2-.1-1.9-5.4-5.9-16.8-6.7-19.3 0 2.2-.7 13-1.1 19.3 0 .1-.1.1-.2.1h-1.1c-.1 0-.1 0-.1-.1l1.4-20.1h.1zm26.3 12.8l-2.7 7.4c0 .1-.1.1-.2.1h-1.1c-.1 0-.1-.1-.1-.2l7-19.2c.1-.1.1-.3.1-.8 0-.1.1-.1.1-.1h1.7c.1 0 .1 0 .1.1l7.3 20.1c0 .1 0 .2-.1.2h-1.2c-.1 0-.1 0-.2-.1l-2.7-7.4h-8zm7.7-1.2c-.7-1.9-3.1-8.5-3.7-10.5-.5 1.7-2.3 6.6-3.6 10.5h7.3zm4.1-11.4c-.1-.1 0-.2.1-.2h1.3c.1 0 .1.1.1.1 4.1 7.2 5.6 9.8 6.1 10.9.5-1 1.9-3.5 6.1-10.8 0-.1.1-.1.2-.1h1.3c.1 0 .1.1.1.1l-6.8 11.7c-.1.3-.2.4-.2.7v7.7c0 .1-.1.2-.1.2h-1.1c-.2 0-.2-.1-.2-.2V129c0-.3 0-.4-.2-.6l-6.7-11.8zm30.2 1.3c-1 .7-2.9 1.4-3.9 1.6-.1 0-.2 0-.2-.1v-.9c0-.1 0-.1.1-.2 1.7-.4 3.2-1.2 4.1-1.9.1-.1.2-.1.4-.1h.8c.1 0 .1.1.1.1v19h4c.1 0 .1 0 .2.1v.9c0 .1 0 .2-.1.2h-9.7c-.1 0-.1 0-.1-.2v-.9c0-.1.1-.1.2-.1h4.1v-17.5zm11 17.9c0-.1.1-.1.2-.1 5.3-.1 8.5-3.5 9.2-8.4-1.4 1.2-3.3 1.6-5 1.6-3.8 0-6.1-2.6-6.1-6.3 0-3.6 2.5-6.5 6.3-6.5 3.9 0 6.4 3.1 6.4 8.6 0 8.4-5.1 12.3-10.8 12.4-.1 0-.2-.1-.2-.2v-1.1zm9.4-9.8c.1-.5.1-1.2.1-1.3 0-4.3-1.7-7.3-5-7.3-3 0-4.8 2.2-4.8 5.3 0 3.5 2.4 5.1 5 5.1 1.9-.1 3.6-.7 4.7-1.8zm3.2 15.5c-.1 0-.2 0-.1-.1 1.4-2.5 1.9-4.7 1.7-7.2 0-.1 0-.1.1-.1h1.1c.1 0 .1 0 .2.2.2 2.6-.4 5.2-1.8 7.2 0 .1-.1.1-.1.1h-1.1zm13-4.7c-.1 0-.1-.1-.1-.2v-.7c0-.1 0-.1.1-.2 1.1-1 3.7-3.6 6-6.3 2.4-2.7 3.5-5 3.5-7.4 0-2.5-1.4-4.7-4.3-4.7-1.7 0-3.1.5-4.4 1.5-.1.1-.1 0-.1-.1v-1c0-.1 0-.1.1-.2 1.3-.9 2.9-1.4 4.7-1.4 3.8 0 5.5 2.8 5.5 5.8 0 2.6-.9 4.9-3.7 8.1-1.9 2.2-4 4.3-5.2 5.5H140.3c.1 0 .1 0 .1.1l-.3 1c0 .1-.1.1-.2.1h-11.8zm15.3-10.3c0-5.4 1.9-10.4 6.3-10.4 5.3 0 6.1 6.4 6.1 10.4 0 4.7-1.1 10.5-6.1 10.5-4.5.1-6.3-5-6.3-10.5zm1.4 0c0 4.9 1.5 9.4 4.9 9.4s4.6-4.4 4.6-9.3c0-5.7-1.6-9.3-4.8-9.3-2.8 0-4.7 3.4-4.7 9.2zm19.7-8.6c-1 .7-2.9 1.4-3.9 1.6-.1 0-.2 0-.2-.1v-.9c0-.1 0-.1.1-.2 1.7-.4 3.2-1.2 4.1-1.9.1-.1.2-.1.4-.1h.8c.1 0 .1.1.1.1v19h4c.1 0 .1 0 .2.1v.9c0 .1 0 .2-.1.2h-9.7c-.1 0-.1 0-.1-.2v-.9c0-.1.1-.1.2-.1h4.1v-17.5zm20.6-.6c0 .1 0 .1-.1.1-5.5-.1-8.8 3.1-9.6 8.7 1.3-1.2 3-2 5.2-2 3.6 0 5.9 2.8 5.9 6.4 0 3.6-2.2 6.6-6.3 6.6-4 0-6.4-3.4-6.4-8.6 0-7 3.8-12.4 11.2-12.4.1 0 .1.1.1.1v1.1zm-9.9 10.1v1c0 4.8 2.2 7.4 5 7.4 2.9 0 4.8-2.2 4.8-5.3 0-3.2-2.1-5.2-4.8-5.2-1.7 0-3.5.6-5 2.1zm23.6 0c1.3 0 1.9.9 1.9 1.9s-.7 1.9-1.9 1.9c-1.3 0-2-.9-2-1.9s.7-1.9 2-1.9zm16.3 1.8l-2.7 7.4c0 .1-.1.1-.2.1h-1.1c-.1 0-.2-.1-.1-.2l7-19.2c.1-.1.1-.3.1-.8 0-.1.1-.1.1-.1h1.7c.1 0 .1 0 .1.1l7.3 20.1c0 .1 0 .2-.1.2H226c-.1 0-.1 0-.2-.1l-2.7-7.4h-8zm7.7-1.2c-.7-1.9-3.1-8.5-3.7-10.5-.5 1.7-2.3 6.6-3.6 10.5h7.3zm9.5-11.6h1.9c.1 0 .1.1.2.1 1.1 3.2 5.8 16.2 6.5 18.5.7-2.4 5.6-15.4 6.7-18.5.1-.1.1-.2.2-.2h1.8c.1 0 .1 0 .1.1l1.3 20.1c0 .1-.1.1-.1.1h-1.2c-.1 0-.2 0-.2-.1-.4-7.3-1-17.5-1-19.2-.8 2.5-5.6 15.6-6.9 19.2-.1.1-.1.1-.2.1h-1.2c-.2 0-.2-.1-.2-.1-1.9-5.4-5.9-16.8-6.7-19.3 0 2.2-.7 13-1.1 19.3 0 .1-.1.1-.2.1h-1.1c-.1 0-.1 0-.1-.1l1.4-20.1h.1zm22.6 19.3c-.1-.1-.1-.1-.1-.3v-1.2c0-.1.1-.1.2-.1 1.6 1.2 3.6 1.7 5.1 1.7 3.3 0 4.9-1.8 4.9-3.9 0-2.1-1-3.2-4.1-4.7l-1.3-.6c-3.4-1.6-4.3-3.3-4.3-5.5.1-3 2.4-5 5.9-5 1.9 0 3.4.5 4.2 1 .1.1.1.1.1.3v1.1c0 .1-.1.2-.2.1-1-.7-2.5-1.2-4.2-1.2-3.6 0-4.5 2.4-4.5 3.6 0 1.9.9 3.1 3.7 4.4l1.7.8c3.5 1.6 4.4 3.3 4.4 5.6 0 2.9-2.1 5.4-6.4 5.4-2.2-.1-3.9-.7-5.1-1.5zm20.3-18h-6.9c-.1 0-.1-.1-.1-.2l.2-.9c0-.1.1-.1.2-.1h14.7c.1 0 .2.1.2.1l.1.9c0 .1 0 .2-.1.2h-6.9v18.9c0 .1-.1.2-.2.2h-1.1c-.1 0-.1 0-.1-.2v-18.9zm23 18.9c0 .1-.1.1-.2.1h-10.9c-.2 0-.2-.1-.2-.2v-19.9c0-.1 0-.2.2-.2h10.3c.1 0 .1 0 .2.1l.2.9c0 .1 0 .2-.1.2h-9.3v8.1h8.2c.1 0 .1 0 .1.1v1c0 .1-.1.1-.1.1h-8.1v8.6h10c.1 0 .1 0 .1.1l-.4 1zm3.9.2c-.1 0-.2 0-.2-.1v-20c0-.1 0-.2.1-.2 1.1 0 2.7-.1 4.7-.1 3.9 0 6.8 1.7 6.8 5.5 0 3.1-2 4.8-4.8 5.5 1.2 1.4 6.7 8.5 7.4 9.3.1.1 0 .2-.1.2h-1.5c-.1 0-.2 0-.2-.1-1-1.2-4.9-6.3-6.8-8.6-.2-.3-.4-.4-.9-.4h-3.4v9c0 .1-.1.1-.2.1h-.9zm4.7-10.4c3.9 0 5.4-2 5.4-4.5 0-2.6-1.8-4.3-5.5-4.3h-3.3v8.8h3.4zm12.6-9.8c0-.1 0-.2.1-.2.9 0 2.8-.1 5.2-.1 6.9 0 10.1 4.2 10.1 10 0 8.4-6 10.6-10.8 10.6-2.1 0-3.7-.1-4.5-.1-.1 0-.1-.1-.1-.2v-20zm1.4 18.9c.4 0 1.8.1 3.2.1 5.7 0 9.3-3 9.3-9.3 0-5.9-3.5-8.8-8.7-8.8-1.9 0-3.5 0-3.8.1v17.9zm20.6-6.3l-2.7 7.4c0 .1-.1.1-.2.1h-1.1c-.1 0-.2-.1-.1-.2l7-19.2c.1-.1.1-.3.1-.8 0-.1.1-.1.1-.1h1.7c.1 0 .1 0 .2.1l7.3 20.1c0 .1 0 .2-.1.2h-1.2c-.1 0-.1 0-.2-.1l-2.7-7.4h-8.1zm7.7-1.2c-.7-1.9-3.1-8.5-3.7-10.5-.5 1.7-2.3 6.6-3.6 10.5h7.3zm9.5-11.6h1.9c.1 0 .2.1.2.1 1.1 3.2 5.8 16.2 6.5 18.5.7-2.4 5.6-15.4 6.7-18.5.1-.1.1-.2.2-.2h1.8c.1 0 .1 0 .2.1l1.3 20.1c0 .1-.1.1-.1.1h-1.2c-.2 0-.2 0-.2-.1-.4-7.3-1-17.5-1-19.2-.8 2.5-5.6 15.6-6.9 19.2-.1.1-.1.1-.2.1h-1.2c-.2 0-.2-.1-.2-.1-1.9-5.4-5.9-16.8-6.7-19.3 0 2.2-.7 13-1.1 19.3 0 .1-.1.1-.2.1h-1.1c-.1 0-.1 0-.1-.1l1.4-20.1c-.1 0-.1 0 0 0z"/></svg>