<svg xmlns="http://www.w3.org/2000/svg" viewBox="0 0 400 160"><style>.st0{fill:#e25665}.st1{opacity:.9}</style><path class="st0" d="M51.5 20.1c16.8 0 29.4 8.7 29.4 26.5 0 17.7-12.6 27.7-29.4 27.7H39.7v31.9H20.1V20.1h31.4zm-6.2 38.5c7.7 0 15-2.6 15-11.4 0-8.9-7.3-11.5-15-11.5h-5.5v22.9h5.5zm122.2 18c-4.7 21.8-22.9 31.1-39.8 31.1-23.2 0-42-19.9-42-44.6s17.7-44.7 42-44.7c15.1 0 25.7 5.6 33.2 14.7l-12.8 14.1c-5-8-11.6-11.1-19.2-11.1-12.1 0-21.9 12-21.9 26.9 0 14.6 9.8 26.5 21.9 26.5 9.4 0 18.7-6.1 18.7-16.6h-19.8V58h39.8l-.1 18.6zm33.6-56.5c23.6 0 43.4 18 43.4 43 0 25.2-19.7 43.1-43.4 43.1h-24.9V20.1h24.9zm-2.3 68.5c14.5 0 24.4-11.1 24.5-25.5 0-14.4-9.9-25.6-24.5-25.6h-3v51l3 .1zm103.6-51.3h-29.6v17.1h28.4v17.2h-28.4V89h29.6v17.2h-49.3V20.1h49.3v17.2zm77.5 38.3c0 21.3-11.7 32.1-33.6 32.1s-33.6-10.9-33.6-32.1V20.1h19.6v49.8c0 14.4 4.4 18.6 14 18.6s14-4.2 14-18.6V20.1h19.6v55.5z"/><path class="st1 st0" d="M18.5 118h1.7l.2.1c1 2.8 5 14.1 5.6 16.1.6-2.1 4.9-13.4 5.8-16.1.1-.1.1-.2.2-.2h1.6c.1 0 .1 0 .1.1l1.1 17.4c0 .1-.1.1-.1.1h-1c-.1 0-.2 0-.2-.1-.4-6.4-.9-15.2-.9-16.7-.7 2.2-4.9 13.5-6 16.7-.1.1-.1.1-.2.1h-1.1c-.2 0-.2-.1-.2-.1-1.6-4.7-5.1-14.6-5.8-16.7 0 1.9-.6 11.3-1 16.7 0 .1-.1.1-.2.1h-1c-.1 0-.1 0-.1-.1l1.2-17.4h.3zm22.9 11.2l-2.3 6.4c0 .1-.1.1-.2.1h-1c-.1 0-.1-.1-.1-.2l6.1-16.7c.1-.1.1-.3.1-.7 0-.1.1-.1.1-.1h1.5c.1 0 .1 0 .1.1l6.3 17.4c0 .1 0 .2-.1.2h-1.1c-.1 0-.1 0-.2-.1l-2.3-6.4h-6.9zm6.7-1.1c-.6-1.7-2.7-7.4-3.2-9.1-.4 1.5-2 5.7-3.2 9.1h6.4zm3.5-9.9c-.1-.1 0-.2.1-.2h1.2c.1 0 .1.1.1.1 3.6 6.2 4.9 8.6 5.3 9.4.4-.8 1.7-3.1 5.3-9.4 0-.1.1-.1.2-.1h1.1c.1 0 .1.1.1.1l-6 10.2c-.1.2-.2.4-.2.6v6.7c0 .1-.1.2-.1.2h-1c-.2 0-.2-.1-.2-.2v-6.7c0-.2 0-.3-.2-.5l-5.7-10.2zm26.3 1.1c-.9.6-2.5 1.2-3.4 1.4-.1 0-.2 0-.2-.1v-.8c0-.1 0-.1.1-.2 1.5-.4 2.8-1.1 3.6-1.6.1-.1.2-.1.3-.1h.7c.1 0 .1.1.1.1v16.5h3.5c.1 0 .1 0 .2.1v.8c0 .1 0 .2-.1.2h-8.5c-.1 0-.1 0-.1-.2v-.8c0-.1.1-.1.2-.1h3.6v-15.2zm18.1 3c0 2.1-1 3.4-2.3 4.1 1.6.6 3 2.1 3 4.5 0 3-2.2 5-5.2 5-3.2 0-5.2-2.2-5.2-4.9 0-1.9 1.1-3.7 3-4.5-1.5-.7-2.4-2.2-2.4-4.1 0-2.3 1.6-4.6 4.6-4.6 2.8-.1 4.5 2 4.5 4.5zm-.6 8.7c0-2.2-1.2-3.4-2.3-3.9-.2-.1-.5-.2-.8-.2h-1.6c-.3 0-.5.1-.7.1-1.5.6-2.5 2-2.5 3.9 0 2.5 2 3.9 4 3.9 2.6.1 3.9-1.8 3.9-3.8zm-7.4-8.6c0 1.6.7 2.7 1.8 3.4.2.1.5.2.9.2h1.5c.4 0 .7-.1 1-.3 1-.6 1.6-1.8 1.6-3.3 0-2.5-1.6-3.6-3.3-3.6-2.2 0-3.5 1.5-3.5 3.6zm24.7 4.1c1.4 1 3.2 3.5 4.3 5.3 1.4 2.4 2.2 3.1 3.3 3.1l.9-.1c.1 0 .1 0 .1.1v.8c0 .1 0 .2-.1.2-.2.1-.6.2-1.1.2-1.2 0-2.2-.3-4.2-3.7-2.3-3.8-4.6-5.8-5.1-5.8-1.4 0-3.8 1.1-3.8 4.2 0 2 1.5 4.1 4.3 4.1 1.5 0 2.4-.3 3.2-.7.1-.1.1 0 .1.1v.9l-.1.2c-.5.3-1.6.7-3.3.7-3 0-5.4-2.1-5.4-5.2 0-2.6 1.6-4.6 4.3-5.2-.8-.7-2.1-2.1-2.1-3.8 0-2.6 1.8-4 4.2-4 1.1 0 2.2.3 2.8.7.1.1.1.1.1.2v1c0 .1-.1.2-.2.1-.5-.4-1.3-.9-2.7-.9-1.8 0-3 .9-3 2.8 0 1.6 1.4 2.9 2.6 3.7h8.3c.1 0 .1.1.1.2l-.2.8c0 .1-.1.1-.2.1h-7.1zm21.7-7.2c-.9.6-2.5 1.2-3.4 1.4-.1 0-.2 0-.2-.1v-.8c0-.1 0-.1.1-.2 1.5-.4 2.8-1.1 3.6-1.6.1-.1.2-.1.3-.1h.7c.1 0 .1.1.1.1v16.5h3.5c.1 0 .1 0 .2.1v.8c0 .1 0 .2-.1.2h-8.5c-.1 0-.1 0-.1-.2v-.8c0-.1.1-.1.2-.1h3.6v-15.2zm9.5 15.6c0-.1.1-.1.1-.1 4.6-.1 7.4-3.1 8-7.3-1.2 1-2.9 1.4-4.3 1.4-3.3 0-5.3-2.2-5.3-5.5 0-3.1 2.1-5.7 5.5-5.7s5.5 2.7 5.5 7.5c0 7.3-4.4 10.7-9.4 10.7-.1 0-.1-.1-.1-.2v-.8zm8.2-8.6c.1-.5.1-1 .1-1.2 0-3.8-1.5-6.4-4.4-6.4-2.6 0-4.2 2-4.2 4.6 0 3.1 2.1 4.5 4.3 4.5 1.8.1 3.2-.5 4.2-1.5zm2.8 13.5c-.1 0-.2 0-.1-.1 1.2-2.2 1.6-4.1 1.5-6.3 0-.1 0-.1.1-.1h.9c.1 0 .1 0 .2.2.2 2.3-.4 4.5-1.6 6.3 0 .1-.1.1-.1.1h-.9zm11.2-4.1c-.1 0-.1-.1-.1-.2v-.5c0-.1 0-.1.1-.2.9-.9 3.2-3.1 5.2-5.4 2.1-2.4 3-4.3 3-6.5s-1.2-4.1-3.8-4.1c-1.5 0-2.7.5-3.8 1.3-.1.1-.1 0-.1-.1v-.9c0-.1 0-.1.1-.2 1.1-.8 2.5-1.2 4.1-1.2 3.3 0 4.8 2.4 4.8 5 0 2.3-.8 4.3-3.2 7-1.7 2-3.5 3.8-4.6 4.8h8.8c.1 0 .1 0 .1.1l-.2.8c0 .1-.1.1-.2.1h-10.2zm13.3-8.9c0-4.7 1.6-9.1 5.4-9.1 4.6 0 5.3 5.5 5.3 9.1 0 4.1-1 9.2-5.3 9.2-3.8 0-5.4-4.4-5.4-9.2zm1.3 0c0 4.2 1.3 8.1 4.3 8.1s4-3.8 4-8.1c0-4.9-1.4-8.1-4.1-8.1-2.5.1-4.2 3.1-4.2 8.1zm17.1-7.5c-.9.6-2.5 1.2-3.4 1.4-.1 0-.2 0-.2-.1v-.8c0-.1 0-.1.1-.2 1.5-.4 2.8-1.1 3.6-1.6.1-.1.2-.1.3-.1h.7c.1 0 .1.1.1.1v16.5h3.5c.1 0 .1 0 .2.1v.8c0 .1 0 .2-.1.2h-8.5c-.1 0-.1 0-.1-.2v-.8c0-.1.1-.1.2-.1h3.6v-15.2zm18.6-1.3c.1 0 .1 0 .1.1v.6c0 .1 0 .2-.1.3-2.1 5-5 11.5-7.4 16.6-.1.1-.1.1-.2.1h-1.1c-.1 0-.1-.1-.1-.2 5.5-12 6.9-15.3 7.4-16.5h-9.4c-.1 0-.1 0-.1-.1l.1-.8c0-.1.1-.1.1-.1h10.7zm11.2 9.6c1.1 0 1.7.8 1.7 1.7s-.6 1.7-1.7 1.7-1.7-.8-1.7-1.7.6-1.7 1.7-1.7zm14.2 1.6l-2.3 6.4c0 .1-.1.1-.2.1h-1c-.1 0-.1-.1-.1-.2l6.1-16.7c.1-.1.1-.3.1-.7 0-.1.1-.1.1-.1h1.5c.1 0 .1 0 .1.1l6.3 17.4c0 .1 0 .2-.1.2h-1.1c-.1 0-.1 0-.2-.1l-2.3-6.4h-6.9zm6.7-1.1c-.6-1.7-2.7-7.4-3.2-9.1-.4 1.5-2 5.7-3.2 9.1h6.4zm8.3-10.1h1.7l.2.1c1 2.8 5 14.1 5.6 16.1.6-2.1 4.9-13.4 5.9-16.1.1-.1.1-.2.2-.2h1.6c.1 0 .1 0 .1.1l1.1 17.4c0 .1-.1.1-.1.1h-1c-.1 0-.2 0-.2-.1-.4-6.4-.9-15.2-.9-16.7-.7 2.2-4.9 13.5-6 16.7-.1.1-.1.1-.2.1h-1.1c-.2 0-.2-.1-.2-.1-1.6-4.7-5.1-14.6-5.8-16.7 0 1.9-.7 11.3-1 16.7 0 .1-.1.1-.2.1h-1c-.1 0-.1 0-.1-.1l1.2-17.4h.2zm19.6 16.8c-.1-.1-.1-.1-.1-.3v-1.1c0-.1.1-.1.2-.1 1.4 1.1 3.1 1.5 4.4 1.5 2.9 0 4.2-1.5 4.2-3.4s-.9-2.8-3.6-4.1l-1.2-.5c-3-1.4-3.8-2.9-3.7-4.8.1-2.6 2.1-4.3 5.1-4.3 1.7 0 3 .4 3.7.8.1.1.1.1.1.2v1c0 .1-.1.2-.2.1-.9-.6-2.2-1.1-3.7-1.1-3.1 0-3.9 2.1-3.9 3.1 0 1.7.8 2.7 3.3 3.8l1.5.7c3 1.4 3.8 2.8 3.8 4.9 0 2.5-1.8 4.7-5.5 4.7-1.9.1-3.4-.4-4.4-1.1zm17.6-15.7h-6c-.1 0-.1-.1-.1-.2l.2-.8c0-.1.1-.1.2-.1h12.8c.1 0 .2.1.2.1l.1.8c0 .1 0 .2-.1.2h-6v16.5c0 .1-.1.2-.2.2h-1c-.1 0-.1 0-.1-.2v-16.5zm20 16.5c0 .1-.1.1-.2.1h-9.4c-.2 0-.2-.1-.2-.2v-17.3c0-.1 0-.2.2-.2h9c.1 0 .1 0 .2.1l.1.8c0 .1 0 .2-.1.2h-8.1v7h7.1c.1 0 .1 0 .1.1v.8c0 .1-.1.1-.1.1h-7.1v7.4h8.7c.1 0 .1 0 .1.1l-.3 1zm3.5.1c-.1 0-.2 0-.2-.1v-17.4c0-.1 0-.2.1-.2.9 0 2.4-.1 4.1-.1 3.4 0 5.9 1.5 5.9 4.8 0 2.7-1.7 4.2-4.1 4.8 1 1.2 5.8 7.4 6.4 8.1.1.1 0 .2-.1.2h-1.3c-.1 0-.2 0-.2-.1-.9-1-4.3-5.4-5.9-7.5-.2-.3-.4-.4-.8-.4h-3v7.9c0 .1-.1.1-.1.1h-.8zm4-9c3.4 0 4.7-1.8 4.7-3.9 0-2.3-1.6-3.8-4.8-3.8h-2.9v7.6h3zm11-8.5c0-.1 0-.2.1-.2.8 0 2.5-.1 4.5-.1 6 0 8.8 3.7 8.8 8.7 0 7.3-5.2 9.2-9.4 9.2-1.8 0-3.2-.1-3.9-.1-.1 0-.1-.1-.1-.2v-17.3zm1.2 16.4c.3 0 1.6.1 2.8.1 4.9 0 8.1-2.6 8.1-8.1 0-5.1-3.1-7.6-7.6-7.6-1.7 0-3 0-3.3.1v15.5zm17.9-5.4l-2.3 6.4c0 .1-.1.1-.2.1h-1c-.1 0-.1-.1-.1-.2l6.1-16.7c.1-.1.1-.3.1-.7 0-.1.1-.1.1-.1h1.5c.1 0 .1 0 .1.1l6.3 17.4c0 .1 0 .2-.1.2H361c-.1 0-.1 0-.2-.1l-2.3-6.4h-6.9zm6.7-1.1c-.6-1.7-2.7-7.4-3.2-9.1-.4 1.5-2 5.7-3.2 9.1h6.4zm8.3-10.1h1.7l.2.1c1 2.8 5 14.1 5.6 16.1.6-2.1 4.9-13.4 5.8-16.1.1-.1.1-.2.2-.2h1.6c.1 0 .1 0 .1.1l1.1 17.4c0 .1-.1.1-.1.1h-1c-.1 0-.2 0-.2-.1-.4-6.4-.9-15.2-.9-16.7-.7 2.2-4.9 13.5-6 16.7-.1.1-.1.1-.2.1h-1.1c-.2 0-.2-.1-.2-.1-1.6-4.7-5.1-14.6-5.8-16.7 0 1.9-.6 11.3-1 16.7 0 .1-.1.1-.2.1h-1c-.1 0-.1 0-.1-.1l1.2-17.4h.3z"/></svg>