<svg xmlns="http://www.w3.org/2000/svg" xmlns:xlink="http://www.w3.org/1999/xlink" viewBox="100 0 1000 800"><path d="M921.9 570.1c-10.2 0-18.5-8.3-18.5-18.5V290.7c0-10.2 8.3-18.5 18.5-18.5h118.8c10.2 0 18.5 8.3 18.5 18.5v260.9c0 10.2-8.3 18.5-18.5 18.5H921.9z" opacity=".2"/><path fill="#FF7F54" d="M926.6 564.4c-10.2 0-18.5-8.3-18.5-18.5V285c0-10.2 8.3-18.5 18.5-18.5h118.8c10.2 0 18.5 8.3 18.5 18.5v260.9c0 10.2-8.3 18.5-18.5 18.5H926.6z"/><path fill="#444" d="M926.6 560.6c-8.1 0-14.7-6.6-14.7-14.7V285c0-8.1 6.6-14.7 14.7-14.7h118.8c8.1 0 14.7 6.6 14.7 14.7v260.9c0 8.1-6.6 14.7-14.7 14.7H926.6z"/><path opacity=".2" fill="none" stroke="#FFF" stroke-width="1.423" stroke-linecap="round" stroke-miterlimit="10" d="M914.3 362.6V285c0-6.8 5.5-12.3 12.3-12.3h99.6M966 558.3h-5.2M1057.8 449.4v96.5c0 6.8-5.5 12.3-12.3 12.3h-72.3M1057.8 429v12.8"/><path fill="none" stroke="#000" stroke-width="1.898" stroke-linecap="round" stroke-miterlimit="10" d="M1041 274.1h4.5c6 0 10.9 4.9 10.9 10.9v60M947.5 556.8h-20.9c-6 0-10.9-4.9-10.9-10.9V374.4"/><path d="M991.1 279h-11.4c-.5 0-1-.4-1-1s.4-1 1-1h11.4c.5 0 1 .4 1 1s-.4 1-1 1z"/><circle opacity=".2" fill="#FFF" cx="999.8" cy="279.2" r="1"/><path opacity=".2" fill="#FFF" d="M1019.2 281.3h-4.5c-1.2 0-2.1-.9-2.1-2.1 0-1.2.9-2.1 2.1-2.1h4.5c1.2 0 2.1.9 2.1 2.1 0 1.1-1 2.1-2.1 2.1z"/><path d="M998.4 557.6l1-1.5c.3-.4.7-.6 1.2-.6h1.6c.5 0 .9.2 1.2.6l1 1.5h-6zM1064 336.4l1.5 1c.4.3.6.7.6 1.2v42.5c0 .5-.2.9-.6 1.2l-1.5 1v-46.9zM1064 404.7l1.5 1c.4.3.6.7.6 1.2v19.4c0 .5-.2.9-.6 1.2l-1.5 1v-23.8z"/><path fill="#222" d="M922.9 296.8h126.3V534H922.9z"/><path opacity=".05" fill="#FFF" d="M999.1 287.1v-.6h-.8v-1l-.7.2v.7h-1.2v-.4c0-.2 0-.3.1-.4s.2-.1.4-.1c.1 0 .2 0 .3.1v-.7c-.1 0-.3-.1-.4-.1-.2 0-.4.1-.6.1-.2.1-.3.2-.4.4-.1.2-.2.4-.2.6v.5h-.6v.6h.5v2.7h.8V287h1.2v1.7c0 .7.3 1.1 1 1.1h.3c.1 0 .2-.1.2-.1v-.6s-.1.1-.2.1h-.2c-.2 0-.3 0-.3-.1-.1-.1-.1-.2-.1-.4v-1.6h.9zm-5.8 2.1c-.3 0-.5-.1-.7-.3-.2-.2-.2-.5-.2-.8 0-.4.1-.6.2-.8.2-.2.4-.3.7-.3s.5.1.6.3c.2.2.2.5.2.8 0 .4-.1.6-.2.8-.1.2-.3.3-.6.3m0-2.8c-.5 0-1 .2-1.3.5s-.5.8-.5 1.3.2.9.5 1.2c.3.3.7.5 1.2.5s1-.2 1.3-.5.5-.8.5-1.3-.1-.9-.4-1.2c-.4-.4-.8-.5-1.3-.5m-3 0c-.4 0-.7.1-.9.3-.2.2-.4.4-.4.7 0 .2 0 .3.1.4s.1.2.2.3c.1.1.3.2.5.3.2.1.3.1.4.2.1 0 .1.1.2.1v.2c0 .2-.2.3-.5.3-.1 0-.3 0-.4-.1-.2-.1-.3-.1-.4-.2v.8c.1.1.3.1.4.1.2 0 .3.1.4.1.4 0 .7-.1 1-.3.2-.2.4-.4.4-.8 0-.2-.1-.4-.2-.6-.1-.2-.3-.3-.7-.4-.2-.1-.4-.2-.5-.2-.1-.1-.1-.1-.1-.3 0-.1 0-.2.1-.2.1-.1.2-.1.3-.1s.3 0 .4.1c.1 0 .3.1.3.2v-.7c-.1 0-.2-.1-.4-.1 0-.1-.1-.1-.2-.1m-3.3 2.8c-.3 0-.5-.1-.7-.3-.2-.2-.2-.5-.2-.8 0-.4.1-.6.2-.8.2-.2.4-.3.7-.3s.5.1.6.3c.2.2.2.5.2.8 0 .4-.1.6-.2.8-.1.2-.4.3-.6.3m0-2.8c-.5 0-1 .2-1.3.5s-.5.8-.5 1.3.2.9.5 1.2c.3.3.7.5 1.2.5s1-.2 1.3-.5.5-.8.5-1.3-.1-.9-.4-1.2c-.4-.4-.8-.5-1.3-.5m-3 .6v-.6h-.8v3.3h.8V288c0-.3.1-.5.2-.7.1-.2.3-.3.5-.3h.2c.1 0 .1 0 .2.1v-.8h-.3c-.2 0-.4.1-.5.2-.1.2-.2.4-.3.5zm-2.1-.6c-.4 0-.7.1-.9.2-.3.2-.5.4-.6.6-.1.3-.2.6-.2 1 0 .3.1.6.2.9.1.3.3.5.6.6.2.1.5.2.9.2s.7-.1.9-.2v-.7c-.1.1-.2.2-.4.2-.1 0-.3.1-.4.1-.3 0-.6-.1-.7-.3-.2-.2-.3-.5-.3-.8s.1-.6.3-.8c.2-.2.4-.3.7-.3s.5.1.7.3v-.8c-.1 0-.2-.1-.4-.1-.1-.1-.3-.1-.4-.1m-2.4.1h-.8v3.3h.8v-3.3zm-.3-1.4c-.1 0-.2 0-.3.1s-.1.2-.1.3c0 .1 0 .2.1.3.1.1.2.1.3.1s.2 0 .3-.1.1-.2.1-.3c0-.1 0-.2-.1-.3-.1-.1-.2-.1-.3-.1m-2 1.1v3.6h.8v-4.6h-1.1l-1.4 3.4-1.4-3.4H973v4.6h.7v-3.6l1.4 3.6h.6l1.5-3.6z"/><path opacity=".3" fill="none" stroke="#FFF" stroke-width=".949" stroke-linecap="round" stroke-miterlimit="10" d="M1065.3 339.3v35.5M1065.3 407.5v11.6"/><g><g opacity=".2"><path d="M180.3 553.5c-11 0-20-9-20-20V194.3c0-11 9-20 20-20h216.1c11 0 20 9 20 20v339.2c0 11-9 20-20 20H180.3z"/><path d="M396.5 175.3c10.5 0 19.1 8.5 19.1 19.1v339.2c0 10.5-8.5 19-19.1 19H180.3c-10.5 0-19.1-8.5-19.1-19V194.3c0-10.5 8.5-19.1 19.1-19.1h216.2m0-1.8H180.3c-11.6 0-20.9 9.4-20.9 20.9v339.2c0 11.6 9.4 20.9 20.9 20.9h216.1c11.6 0 20.9-9.4 20.9-20.9V194.3c.1-11.5-9.3-20.9-20.8-20.9z"/></g><path fill="#E9D19C" d="M185.1 547.9c-11 0-20-9-20-20V188.6c0-11 9-20 20-20h216.1c11 0 20 9 20 20v339.2c0 11-9 20-20 20l-216.1.1z"/><path fill="#333" d="M401.2 169.6c10.5 0 19.1 8.5 19.1 19.1v339.2c0 10.5-8.5 19-19.1 19H185.1c-10.5 0-19.1-8.5-19.1-19V188.6c0-10.5 8.5-19.1 19.1-19.1h216.1m0-1.8H185.1c-11.6 0-20.9 9.4-20.9 20.9v339.2c0 11.6 9.4 20.9 20.9 20.9h216.1c11.6 0 20.9-9.4 20.9-20.9V188.6c.1-11.5-9.3-20.9-20.9-20.9z"/><path fill="#6A5944" d="M420.3 527.9v-34.6L197.8 169.6h-12.7c-10.5 0-19 8.5-19 19.1v18.1l233.8 340.1h1.4c10.4 0 19-8.5 19-19z"/><path fill="#F7EBDE" d="M415.6 540.3c2-2.3 3.5-5.1 4.2-8.3L173.4 173.6c-2.2 1.7-4.1 4-5.4 6.5l247.6 360.2z"/><path fill="#6A5944" d="M166 527.9v-34.6l222.5-323.7h12.7c10.5 0 19 8.5 19 19.1v18.1L186.5 546.9h-1.4c-10.6 0-19.1-8.5-19.1-19z"/><path fill="#F7EBDE" d="M170.6 540.3c-2-2.3-3.5-5.1-4.2-8.3l246.4-358.5c2.2 1.7 4.1 4 5.4 6.5L170.6 540.3z"/><path fill="#F5F6F8" d="M185.1 544.1c-8.9 0-16.2-7.3-16.2-16.2V188.6c0-8.9 7.3-16.2 16.2-16.2h216.1c8.9 0 16.2 7.3 16.2 16.2v339.2c0 8.9-7.3 16.2-16.2 16.2l-216.1.1z"/><path fill="#666" d="M401.2 172.9c8.7 0 15.7 7.1 15.7 15.7v339.2c0 8.7-7.1 15.7-15.7 15.7H185.1c-8.7 0-15.7-7.1-15.7-15.7V188.6c0-8.7 7.1-15.7 15.7-15.7h216.1m0-1H185.1c-9.2 0-16.7 7.5-16.7 16.7v339.2c0 9.2 7.5 16.7 16.7 16.7h216.1c9.2 0 16.7-7.5 16.7-16.7V188.6c0-9.2-7.5-16.7-16.7-16.7z"/><path fill="#4D4D4D" d="M406.1 510.8H179.6c-.5 0-.9-.4-.9-.9V207.2c0-.5.4-.9.9-.9h226.5c.5 0 .9.4.9.9v302.7c.1.5-.3.9-.9.9z"/><circle fill="#6A5944" cx="293.1" cy="529.9" r="10"/><path fill="#E9D19C" d="M285.5 536.2l16.9-2.6c.5-1.1.7-2.4.7-3.7 0-1.6-.4-3.1-1.1-4.5-5.8 2-14.6 5-18.7 6.3.4 1.7 1.1 3.3 2.2 4.5z"/><circle fill="#F5F6F8" cx="293.1" cy="529.9" r="8.5"/><g><circle fill="#4C7070" cx="292.9" cy="189.6" r="1.7"/><path fill="#474747" d="M292.9 188.6c.6 0 1 .5 1 1s-.5 1-1 1c-.6 0-1-.5-1-1s.4-1 1-1m0-1.4c-1.3 0-2.4 1.1-2.4 2.4s1.1 2.4 2.4 2.4c1.3 0 2.4-1.1 2.4-2.4s-1.1-2.4-2.4-2.4z"/></g><circle fill="#474747" cx="285.4" cy="189.8" r="1.1"/></g><g><path d="M465.1 468.4V206.7c0-6.9 5.6-12.4 12.4-12.4H879c6.9 0 12.4 5.6 12.4 12.4v261.7c0 6.9-5.6 12.4-12.4 12.4H477.5c-6.9 0-12.4-5.6-12.4-12.4z" opacity=".2"/><path fill="#868991" d="M469.8 462.7V201c0-6.9 5.6-12.4 12.4-12.4h401.5c6.9 0 12.4 5.6 12.4 12.4v261.7c0 6.9-5.6 12.4-12.4 12.4H482.2c-6.8 0-12.4-5.6-12.4-12.4z"/><g fill="#474747"><path d="M896.2 434L540.4 188.5h-36.7l392.5 270.9zM868.9 475.1l-399-275.3c0 .4-.1.8-.1 1.2v24.1l362.4 250h36.7z"/></g><path fill="#444" d="M471.7 201c0-5.8 4.7-10.5 10.5-10.5h401.5c5.8 0 10.5 4.7 10.5 10.5v261.7c0 5.8-4.7 10.5-10.5 10.5H482.2c-5.8 0-10.5-4.7-10.5-10.5V201z"/><path fill="#292929" d="M473.6 201c0-4.8 3.9-8.6 8.6-8.6h401.5c4.8 0 8.6 3.9 8.6 8.6v261.7c0 4.8-3.9 8.6-8.6 8.6H482.2c-4.8 0-8.6-3.9-8.6-8.6V201z"/><path fill="#1A1A1A" d="M892.4 292.2l-2.5 1.8v75l2.5 1.9zM473.6 370.9l2.5-1.9v-75l-2.5-1.8zM513.5 204.7h339.2V459H513.5z"/><path fill="#5A9C9C" d="M872.2 334c-1.2 0-2.1-1-2.1-2.1s1-2.1 2.1-2.1c1.2 0 2.1 1 2.1 2.1s-.9 2.1-2.1 2.1z"/><path fill="#474747" d="M872.2 330.9c.5 0 .9.4.9.9s-.4.9-.9.9-.9-.4-.9-.9.4-.9.9-.9m0-2.4c-1.8 0-3.3 1.5-3.3 3.3s1.5 3.3 3.3 3.3 3.3-1.5 3.3-3.3-1.5-3.3-3.3-3.3z"/><circle fill="#474747" cx="494.1" cy="331.8" r="1.9"/><path fill="#868991" d="M810.2 476.4l-1-1.6h19l-1 1.6zM750.3 476.4l-1-1.6h48.6l-.9 1.6z"/><path fill="#444" d="M810.2 474.3l-1 .5h19l-1-.5zM750.3 474.3l-1 .5h48.6l-.9-.5z"/></g><g><path fill="none" d="M860 787H455.6c-8.7 0-15.7-7-15.7-15.7V507c0-8.7 7-15.7 15.7-15.7H860c8.7 0 15.7 7 15.7 15.7v264.3c0 8.7-7 15.7-15.7 15.7z"/><path d="M855.3 792.7H450.8c-8.7 0-15.7-7-15.7-15.7V512.7c0-8.7 7-15.7 15.7-15.7h404.5c8.7 0 15.7 7 15.7 15.7V777c0 8.7-7.1 15.7-15.7 15.7z" opacity=".2"/><path fill="#545454" d="M860 787H455.6c-8.7 0-15.7-7-15.7-15.7V507c0-8.7 7-15.7 15.7-15.7H860c8.7 0 15.7 7 15.7 15.7v264.3c0 8.7-7 15.7-15.7 15.7z"/><path fill="#333" d="M455.6 785.1c-7.6 0-13.8-6.2-13.8-13.8V507c0-7.6 6.2-13.8 13.8-13.8H860c7.6 0 13.8 6.2 13.8 13.8v264.3c0 7.6-6.2 13.8-13.8 13.8H455.6z"/><path fill="#1A1A1A" d="M455.6 782.3c-6 0-10.9-4.9-10.9-10.9V507c0-6 4.9-10.9 10.9-10.9H860c6 0 10.9 4.9 10.9 10.9v264.3c0 6-4.9 10.9-10.9 10.9l-404.4.1z"/><path d="M476.2 526.6h363.3v227.6H476.2z"/><path d="M476.2 526.6h363.3v227.6H476.2z"/><g><path fill="#4C7070" d="M657.8 513.3c-1.2 0-2.1-1-2.1-2.1 0-1.2 1-2.1 2.1-2.1 1.2 0 2.1 1 2.1 2.1 0 1.2-.9 2.1-2.1 2.1z"/><path fill="#474747" d="M657.8 510.2c.5 0 .9.4.9.9s-.4.9-.9.9-.9-.4-.9-.9.4-.9.9-.9m0-2.3c-1.8 0-3.3 1.5-3.3 3.3 0 1.8 1.5 3.3 3.3 3.3s3.3-1.5 3.3-3.3c0-1.8-1.5-3.3-3.3-3.3z"/></g></g><g><path d="M149 717.9c-11.8 0-21.4-9.6-21.4-21.4v-92.8c0-11.8 9.6-21.4 21.4-21.4h232.9c11.8 0 21.4 9.6 21.4 21.4v92.8c0 11.8-9.6 21.4-21.4 21.4H149z" opacity=".2"/><path fill="#333" d="M153.7 712.2c-11.8 0-21.4-9.6-21.4-21.4V598c0-11.8 9.6-21.4 21.4-21.4h232.9c11.8 0 21.4 9.6 21.4 21.4v92.8c0 11.8-9.6 21.4-21.4 21.4H153.7z"/><path fill="#464646" d="M404.2 690.8c0 9.7-7.9 17.6-17.6 17.6H153.7c-9.7 0-17.6-7.9-17.6-17.6V598c0-9.7 7.9-17.6 17.6-17.6h232.9c9.7 0 17.6 7.9 17.6 17.6v92.8z"/><g fill="#1A1A1A"><circle cx="145.8" cy="679.6" r=".4"/><circle cx="147.3" cy="679.6" r=".4"/><circle cx="148.8" cy="679.6" r=".4"/><circle cx="150.3" cy="679.6" r=".4"/><circle cx="145.8" cy="678.1" r=".4"/><circle cx="147.3" cy="678.1" r=".4"/><circle cx="148.8" cy="678.1" r=".4"/><circle cx="150.3" cy="678.1" r=".4"/><circle cx="145.8" cy="676.5" r=".4"/><circle cx="147.3" cy="676.5" r=".4"/><circle cx="148.8" cy="676.5" r=".4"/><circle cx="150.3" cy="676.5" r=".4"/><circle cx="145.8" cy="675" r=".4"/><circle cx="147.3" cy="675" r=".4"/><circle cx="148.8" cy="675" r=".4"/><circle cx="150.3" cy="675" r=".4"/><circle cx="145.8" cy="673.5" r=".4"/><circle cx="147.3" cy="673.5" r=".4"/><circle cx="148.8" cy="673.5" r=".4"/><circle cx="150.3" cy="673.5" r=".4"/><circle cx="145.8" cy="672" r=".4"/><circle cx="147.3" cy="672" r=".4"/><circle cx="148.8" cy="672" r=".4"/><circle cx="150.3" cy="672" r=".4"/><circle cx="145.8" cy="670.4" r=".4"/><circle cx="147.3" cy="670.4" r=".4"/><circle cx="148.8" cy="670.4" r=".4"/><circle cx="150.3" cy="670.4" r=".4"/><circle cx="145.8" cy="668.9" r=".4"/><circle cx="147.3" cy="668.9" r=".4"/><circle cx="148.8" cy="668.9" r=".4"/><circle cx="150.3" cy="668.9" r=".4"/><circle cx="145.8" cy="667.4" r=".4"/><circle cx="147.3" cy="667.4" r=".4"/><circle cx="148.8" cy="667.4" r=".4"/><circle cx="150.3" cy="667.4" r=".4"/><circle cx="145.8" cy="665.9" r=".4"/><circle cx="147.3" cy="665.9" r=".4"/><circle cx="148.8" cy="665.9" r=".4"/><circle cx="150.3" cy="665.9" r=".4"/><circle cx="145.8" cy="664.3" r=".4"/><circle cx="147.3" cy="664.3" r=".4"/><circle cx="148.8" cy="664.3" r=".4"/><circle cx="150.3" cy="664.3" r=".4"/><circle cx="145.8" cy="662.8" r=".4"/><circle cx="147.3" cy="662.8" r=".4"/><circle cx="148.8" cy="662.8" r=".4"/><circle cx="150.3" cy="662.8" r=".4"/><circle cx="145.8" cy="661.3" r=".4"/><circle cx="147.3" cy="661.3" r=".4"/><circle cx="148.8" cy="661.3" r=".4"/><circle cx="150.3" cy="661.3" r=".4"/><circle cx="145.8" cy="659.8" r=".4"/><circle cx="147.3" cy="659.8" r=".4"/><circle cx="148.8" cy="659.8" r=".4"/><circle cx="150.3" cy="659.8" r=".4"/><circle cx="145.8" cy="658.2" r=".4"/><circle cx="147.3" cy="658.2" r=".4"/><circle cx="148.8" cy="658.2" r=".4"/><circle cx="150.3" cy="658.2" r=".4"/><circle cx="145.8" cy="656.7" r=".4"/><circle cx="147.3" cy="656.7" r=".4"/><circle cx="148.8" cy="656.7" r=".4"/><circle cx="150.3" cy="656.7" r=".4"/><circle cx="145.8" cy="655.2" r=".4"/><circle cx="147.3" cy="655.2" r=".4"/><circle cx="148.8" cy="655.2" r=".4"/><circle cx="150.3" cy="655.2" r=".4"/><circle cx="145.8" cy="653.7" r=".4"/><circle cx="147.3" cy="653.7" r=".4"/><circle cx="148.8" cy="653.7" r=".4"/><circle cx="150.3" cy="653.7" r=".4"/><circle cx="145.8" cy="652.1" r=".4"/><circle cx="147.3" cy="652.1" r=".4"/><circle cx="148.8" cy="652.1" r=".4"/><circle cx="150.3" cy="652.1" r=".4"/><circle cx="145.8" cy="650.6" r=".4"/><circle cx="147.3" cy="650.6" r=".4"/><circle cx="148.8" cy="650.6" r=".4"/><circle cx="150.3" cy="650.6" r=".4"/><circle cx="145.8" cy="649.1" r=".4"/><circle cx="147.3" cy="649.1" r=".4"/><circle cx="148.8" cy="649.1" r=".4"/><circle cx="150.3" cy="649.1" r=".4"/><circle cx="145.8" cy="647.6" r=".4"/><circle cx="147.3" cy="647.6" r=".4"/><circle cx="148.8" cy="647.6" r=".4"/><circle cx="150.3" cy="647.6" r=".4"/><circle cx="145.8" cy="646.1" r=".4"/><circle cx="147.3" cy="646.1" r=".4"/><circle cx="148.8" cy="646.1" r=".4"/><circle cx="150.3" cy="646.1" r=".4"/><circle cx="145.8" cy="644.5" r=".4"/><circle cx="147.3" cy="644.5" r=".4"/><circle cx="148.8" cy="644.5" r=".4"/><circle cx="150.3" cy="644.5" r=".4"/><circle cx="145.8" cy="643" r=".4"/><circle cx="147.3" cy="643" r=".4"/><circle cx="148.8" cy="643" r=".4"/><circle cx="150.3" cy="643" r=".4"/><circle cx="145.8" cy="641.5" r=".4"/><circle cx="147.3" cy="641.5" r=".4"/><circle cx="148.8" cy="641.5" r=".4"/><circle cx="150.3" cy="641.5" r=".4"/><circle cx="145.8" cy="640" r=".4"/><circle cx="147.3" cy="640" r=".4"/><circle cx="148.8" cy="640" r=".4"/><circle cx="150.3" cy="640" r=".4"/><circle cx="145.8" cy="638.4" r=".4"/><circle cx="147.3" cy="638.4" r=".4"/><circle cx="148.8" cy="638.4" r=".4"/><circle cx="150.3" cy="638.4" r=".4"/><circle cx="145.8" cy="636.9" r=".4"/><circle cx="147.3" cy="636.9" r=".4"/><circle cx="148.8" cy="636.9" r=".4"/><circle cx="150.3" cy="636.9" r=".4"/><circle cx="145.8" cy="635.4" r=".4"/><circle cx="147.3" cy="635.4" r=".4"/><circle cx="148.8" cy="635.4" r=".4"/><circle cx="150.3" cy="635.4" r=".4"/><circle cx="145.8" cy="633.9" r=".4"/><circle cx="147.3" cy="633.9" r=".4"/><circle cx="148.8" cy="633.9" r=".4"/><circle cx="150.3" cy="633.9" r=".4"/><circle cx="145.8" cy="632.3" r=".4"/><circle cx="147.3" cy="632.3" r=".4"/><circle cx="148.8" cy="632.3" r=".4"/><circle cx="150.3" cy="632.3" r=".4"/><circle cx="145.8" cy="630.8" r=".4"/><circle cx="147.3" cy="630.8" r=".4"/><circle cx="148.8" cy="630.8" r=".4"/><circle cx="150.3" cy="630.8" r=".4"/></g><path fill="#1A1A1A" d="M152.8 626c0 1-.8 1.8-1.8 1.8h-5.9c-1 0-1.8-.8-1.8-1.8s.8-1.8 1.8-1.8h5.9c1 0 1.8.8 1.8 1.8z"/><circle fill="#1A1A1A" cx="148" cy="614.7" r="4.8"/><circle fill="#333" cx="148" cy="614.7" r="2.9"/><circle fill="#1A1A1A" cx="148" cy="614.7" r="2"/><ellipse fill="#CCC" cx="148.2" cy="614.2" rx=".6" ry=".5"/><ellipse fill="#CCC" cx="147.9" cy="615.9" rx=".3" ry=".5"/><g fill="#1A1A1A"><circle cx="391.7" cy="679.6" r=".4"/><circle cx="393.2" cy="679.6" r=".4"/><circle cx="394.7" cy="679.6" r=".4"/><circle cx="396.2" cy="679.6" r=".4"/><circle cx="391.7" cy="678" r=".4"/><circle cx="393.2" cy="678" r=".4"/><circle cx="394.7" cy="678" r=".4"/><circle cx="396.2" cy="678" r=".4"/><circle cx="391.7" cy="676.5" r=".4"/><circle cx="393.2" cy="676.5" r=".4"/><circle cx="394.7" cy="676.5" r=".4"/><circle cx="396.2" cy="676.5" r=".4"/><circle cx="391.7" cy="675" r=".4"/><circle cx="393.2" cy="675" r=".4"/><circle cx="394.7" cy="675" r=".4"/><circle cx="396.2" cy="675" r=".4"/><circle cx="391.7" cy="673.5" r=".4"/><circle cx="393.2" cy="673.5" r=".4"/><circle cx="394.7" cy="673.5" r=".4"/><circle cx="396.2" cy="673.5" r=".4"/><circle cx="391.7" cy="671.9" r=".4"/><circle cx="393.2" cy="671.9" r=".4"/><circle cx="394.7" cy="671.9" r=".4"/><circle cx="396.2" cy="671.9" r=".4"/><circle cx="391.7" cy="670.4" r=".4"/><circle cx="393.2" cy="670.4" r=".4"/><circle cx="394.7" cy="670.4" r=".4"/><circle cx="396.2" cy="670.4" r=".4"/><circle cx="391.7" cy="668.9" r=".4"/><circle cx="393.2" cy="668.9" r=".4"/><circle cx="394.7" cy="668.9" r=".4"/><circle cx="396.2" cy="668.9" r=".4"/><circle cx="391.7" cy="667.4" r=".4"/><circle cx="393.2" cy="667.4" r=".4"/><circle cx="394.7" cy="667.4" r=".4"/><circle cx="396.2" cy="667.4" r=".4"/><circle cx="391.7" cy="665.8" r=".4"/><circle cx="393.2" cy="665.8" r=".4"/><circle cx="394.7" cy="665.8" r=".4"/><circle cx="396.2" cy="665.8" r=".4"/><circle cx="391.7" cy="664.3" r=".4"/><circle cx="393.2" cy="664.3" r=".4"/><circle cx="394.7" cy="664.3" r=".4"/><circle cx="396.2" cy="664.3" r=".4"/><circle cx="391.7" cy="662.8" r=".4"/><circle cx="393.2" cy="662.8" r=".4"/><circle cx="394.7" cy="662.8" r=".4"/><circle cx="396.2" cy="662.8" r=".4"/><circle cx="391.7" cy="661.3" r=".4"/><circle cx="393.2" cy="661.3" r=".4"/><circle cx="394.7" cy="661.3" r=".4"/><circle cx="396.2" cy="661.3" r=".4"/><circle cx="391.7" cy="659.7" r=".4"/><circle cx="393.2" cy="659.7" r=".4"/><circle cx="394.7" cy="659.7" r=".4"/><circle cx="396.2" cy="659.7" r=".4"/><circle cx="391.7" cy="658.2" r=".4"/><circle cx="393.2" cy="658.2" r=".4"/><circle cx="394.7" cy="658.2" r=".4"/><circle cx="396.2" cy="658.2" r=".4"/><circle cx="391.7" cy="656.7" r=".4"/><circle cx="393.2" cy="656.7" r=".4"/><circle cx="394.7" cy="656.7" r=".4"/><circle cx="396.2" cy="656.7" r=".4"/><circle cx="391.7" cy="655.2" r=".4"/><circle cx="393.2" cy="655.2" r=".4"/><circle cx="394.7" cy="655.2" r=".4"/><circle cx="396.2" cy="655.2" r=".4"/><circle cx="391.7" cy="653.6" r=".4"/><circle cx="393.2" cy="653.6" r=".4"/><circle cx="394.7" cy="653.6" r=".4"/><circle cx="396.2" cy="653.6" r=".4"/><circle cx="391.7" cy="652.1" r=".4"/><circle cx="393.2" cy="652.1" r=".4"/><circle cx="394.7" cy="652.1" r=".4"/><circle cx="396.2" cy="652.1" r=".4"/><circle cx="391.7" cy="650.6" r=".4"/><circle cx="393.2" cy="650.6" r=".4"/><circle cx="394.7" cy="650.6" r=".4"/><circle cx="396.2" cy="650.6" r=".4"/><circle cx="391.7" cy="649.1" r=".4"/><circle cx="393.2" cy="649.1" r=".4"/><circle cx="394.7" cy="649.1" r=".4"/><circle cx="396.2" cy="649.1" r=".4"/><circle cx="391.7" cy="647.5" r=".4"/><circle cx="393.2" cy="647.5" r=".4"/><circle cx="394.7" cy="647.5" r=".4"/><circle cx="396.2" cy="647.5" r=".4"/><circle cx="391.7" cy="646" r=".4"/><circle cx="393.2" cy="646" r=".4"/><circle cx="394.7" cy="646" r=".4"/><circle cx="396.2" cy="646" r=".4"/><circle cx="391.7" cy="644.5" r=".4"/><circle cx="393.2" cy="644.5" r=".4"/><circle cx="394.7" cy="644.5" r=".4"/><circle cx="396.2" cy="644.5" r=".4"/><circle cx="391.7" cy="643" r=".4"/><circle cx="393.2" cy="643" r=".4"/><circle cx="394.7" cy="643" r=".4"/><circle cx="396.2" cy="643" r=".4"/><circle cx="391.7" cy="641.4" r=".4"/><circle cx="393.2" cy="641.4" r=".4"/><circle cx="394.7" cy="641.4" r=".4"/><circle cx="396.2" cy="641.4" r=".4"/><circle cx="391.7" cy="639.9" r=".4"/><circle cx="393.2" cy="639.9" r=".4"/><circle cx="394.7" cy="639.9" r=".4"/><circle cx="396.2" cy="639.9" r=".4"/><circle cx="391.7" cy="638.4" r=".4"/><circle cx="393.2" cy="638.4" r=".4"/><circle cx="394.7" cy="638.4" r=".4"/><circle cx="396.2" cy="638.4" r=".4"/><circle cx="391.7" cy="636.9" r=".4"/><circle cx="393.2" cy="636.9" r=".4"/><circle cx="394.7" cy="636.9" r=".4"/><circle cx="396.2" cy="636.9" r=".4"/><circle cx="391.7" cy="635.3" r=".4"/><circle cx="393.2" cy="635.3" r=".4"/><circle cx="394.7" cy="635.3" r=".4"/><circle cx="396.2" cy="635.3" r=".4"/><circle cx="391.7" cy="633.8" r=".4"/><circle cx="393.2" cy="633.8" r=".4"/><circle cx="394.7" cy="633.8" r=".4"/><circle cx="396.2" cy="633.8" r=".4"/><circle cx="391.7" cy="632.3" r=".4"/><circle cx="393.2" cy="632.3" r=".4"/><circle cx="394.7" cy="632.3" r=".4"/><circle cx="396.2" cy="632.3" r=".4"/><circle cx="391.7" cy="630.8" r=".4"/><circle cx="393.2" cy="630.8" r=".4"/><circle cx="394.7" cy="630.8" r=".4"/><circle cx="396.2" cy="630.8" r=".4"/><circle cx="391.7" cy="629.3" r=".4"/><circle cx="393.2" cy="629.3" r=".4"/><circle cx="394.7" cy="629.3" r=".4"/><circle cx="396.2" cy="629.3" r=".4"/><circle cx="391.7" cy="627.7" r=".4"/><circle cx="393.2" cy="627.7" r=".4"/><circle cx="394.7" cy="627.7" r=".4"/><circle cx="396.2" cy="627.7" r=".4"/><circle cx="391.7" cy="626.2" r=".4"/><circle cx="393.2" cy="626.2" r=".4"/><circle cx="394.7" cy="626.2" r=".4"/><circle cx="396.2" cy="626.2" r=".4"/><circle cx="391.7" cy="624.7" r=".4"/><circle cx="393.2" cy="624.7" r=".4"/><circle cx="394.7" cy="624.7" r=".4"/><circle cx="396.2" cy="624.7" r=".4"/><circle cx="391.7" cy="623.2" r=".4"/><circle cx="393.2" cy="623.2" r=".4"/><circle cx="394.7" cy="623.2" r=".4"/><circle cx="396.2" cy="623.2" r=".4"/><circle cx="391.7" cy="621.6" r=".4"/><circle cx="393.2" cy="621.6" r=".4"/><circle cx="394.7" cy="621.6" r=".4"/><circle cx="396.2" cy="621.6" r=".4"/><circle cx="391.7" cy="620.1" r=".4"/><circle cx="393.2" cy="620.1" r=".4"/><circle cx="394.7" cy="620.1" r=".4"/><circle cx="396.2" cy="620.1" r=".4"/><circle cx="391.7" cy="618.6" r=".4"/><circle cx="393.2" cy="618.6" r=".4"/><circle cx="394.7" cy="618.6" r=".4"/><circle cx="396.2" cy="618.6" r=".4"/><circle cx="391.7" cy="617.1" r=".4"/><circle cx="393.2" cy="617.1" r=".4"/><circle cx="394.7" cy="617.1" r=".4"/><circle cx="396.2" cy="617.1" r=".4"/><circle cx="391.7" cy="615.5" r=".4"/><circle cx="393.2" cy="615.5" r=".4"/><circle cx="394.7" cy="615.5" r=".4"/><circle cx="396.2" cy="615.5" r=".4"/><circle cx="391.7" cy="614" r=".4"/><circle cx="393.2" cy="614" r=".4"/><circle cx="394.7" cy="614" r=".4"/><circle cx="396.2" cy="614" r=".4"/><circle cx="391.7" cy="612.5" r=".4"/><circle cx="393.2" cy="612.5" r=".4"/><circle cx="394.7" cy="612.5" r=".4"/><circle cx="396.2" cy="612.5" r=".4"/><circle cx="391.7" cy="611" r=".4"/><circle cx="393.2" cy="611" r=".4"/><circle cx="394.7" cy="611" r=".4"/><circle cx="396.2" cy="611" r=".4"/><circle cx="391.7" cy="609.4" r=".4"/><circle cx="393.2" cy="609.4" r=".4"/><circle cx="394.7" cy="609.4" r=".4"/><circle cx="396.2" cy="609.4" r=".4"/></g><path d="M386.3 582.7v123.4c0 .5-.4.9-.9.9H156.5c-.5 0-.9-.4-.9-.9V582.7c0-.5.4-.9.9-.9h228.9c.5-.1.9.4.9.9z"/><path fill="none" d="M161.4 585.1h210.3v118.6H161.4z"/><g fill="#333"><path d="M376 641.7v5.3h1v-2.2h3.5v-.9H377v-2.2zM376 635.4v3.4c0 1.3.7 2.1 2.2 2.1 1.3 0 2.3-.5 2.3-2.1v-3.3h-.9v3.3c0 .7-.1 1.2-1.3 1.2s-1.3-.7-1.3-1.1v-3.4h-1v-.1zM376 650.1v1.5c0 .3.1.6.3.9h-1.7v.9h6v-.9H378c-.5 0-1-.3-1-1V650c0-.6.3-1.1 1.1-1.1h2.6v-.9h-2.6c-1.2 0-2.1.7-2.1 2.1z"/></g></g><g><circle fill="none" cx="687.4" cy="134.8" r="1.1"/><path fill="#94959A" d="M703.8 178.1h10.4v1.3h-10.4zM749.9 178.1h19.4v1.3h-19.4zM726.4 49.5h19.4v1.3h-19.4zM726.4 178.1h19.4v1.3h-19.4z"/><g opacity=".2"><path d="M907.7 183.8c10.8 0 19.5-8.8 19.5-19.5V76.1c0-10.8-8.8-19.5-19.5-19.5h-1.4v127.3l1.4-.1zM689.4 56.5h213.1v127.3H689.4zM685.4 56.5c-10.8 0-19.5 8.8-19.5 19.5v88.2c0 10.8 8.8 19.5 19.5 19.5h.2V56.5h-.2zM685.6 56.5h3.8v127.3h-3.8zM902.5 56.5h3.8v127.3h-3.8z"/></g><path fill="#94959A" d="M912.5 178.1c10.8 0 19.5-8.8 19.5-19.5V70.4c0-10.8-8.8-19.5-19.5-19.5h-1.4v127.3h1.4v-.1zM694.1 50.8h213.1v127.3H694.1zM690.1 50.8c-10.8 0-19.5 8.8-19.5 19.5v88.2c0 10.8 8.8 19.5 19.5 19.5h.2V50.8h-.2z"/><path fill="#787A7D" d="M690.4 50.8h3.8v127.3h-3.8zM907.3 50.8h3.8v127.3h-3.8z"/><path fill="#292929" d="M929.6 158.6c0 9.5-7.7 17.2-17.2 17.2H690.1c-9.5 0-17.2-7.7-17.2-17.2V70.4c0-9.5 7.7-17.2 17.2-17.2h222.3c9.5 0 17.2 7.7 17.2 17.2v88.2z"/><path fill="#333" d="M702.4 59.2h197v110.5h-197z"/><path fill="#333" d="M702.4 59.2h197v110.5h-197z"/><path fill="#333" d="M702.9 59.7H899v109.5H702.9z"/><path fill="#333" d="M702.9 59.7H899v109.5H702.9z"/><path opacity=".4" fill="none" stroke="#333" stroke-width=".949" stroke-linecap="round" stroke-miterlimit="10" d="M880.3 175.2H690.1c-4.6 0-8.8-1.9-11.8-4.9M929.2 82.9v75.7c0 6.9-4.2 12.8-10.2 15.4M850.4 53.7h58.8M842 53.7h3.1M690.1 53.7h106.1"/><path opacity=".4" fill="none" stroke="#333" stroke-width=".949" stroke-linecap="round" stroke-linejoin="round" stroke-miterlimit="10" d="M680.4 56.8c1.2-.9 2.5-1.6 3.8-2.1"/><path fill="none" d="M901.1 54.6h11.3c8.7 0 15.7 7.1 15.7 15.7M928.2 70.4v88.2c0 8.7-7.1 15.7-15.7 15.7H690.1c-8.7 0-15.7-7.1-15.7-15.7V70.4c0-8.7 7.1-15.7 15.7-15.7h211"/><circle fill="#666" cx="914.1" cy="114.8" r="10"/><path opacity=".4" fill="#333" d="M904.2 114.8c0 5.1 3.8 9.2 8.7 9.9l-6.5-16.1c-1.4 1.7-2.2 3.8-2.2 6.2zM923.8 117.1c.2-.8.3-1.5.3-2.3 0-3.5-1.8-6.6-4.6-8.4l4.3 10.7z"/><circle fill="#292929" cx="914.1" cy="114.8" r="8.5"/><path fill="#333" d="M688.7 105.7v17.6c0 .7-.5 1.2-1.2 1.2s-1.2-.5-1.2-1.2v-17.6c0-.7.5-1.2 1.2-1.2s1.2.5 1.2 1.2z"/><circle fill="#333" cx="687.4" cy="134.8" r="2.1"/><circle fill="#333" cx="679.8" cy="114.5" r=".9"/><path opacity=".4" fill="#333" d="M714.2 178.1l-.5-.4h-9.3l-.6.4M745.8 178.1l-.6-.4h-18.3l-.5.4M726.4 50.8l.5.4h18.3l.6-.4M769.3 178.1l-.5-.4h-18.3l-.6.4"/><path opacity=".05" fill="#FFF" d="M708.6 53.2h-18.4c-9.5 0-17.2 7.7-17.2 17.2v88.2c0 9.5 7.7 17.2 17.2 17.2H855L708.6 53.2z"/><g opacity=".4" fill="none" stroke="#FFF" stroke-width="1.423" stroke-linecap="round" stroke-miterlimit="10"><path opacity=".5" d="M921.2 170.5c-2.4 1.8-5.5 2.8-8.7 2.8H690.1c-5.2 0-9.8-2.7-12.4-6.8M926.7 162.7c-.4 1.3-1 2.6-1.7 3.7M898.8 55.6h13.7c8.2 0 14.8 6.6 14.8 14.8v5.9M887.4 55.6h6.6M676 65.9c1.9-6 7.5-10.3 14.1-10.3h132.7M676.5 164.3c-.5-1.1-.8-2.4-1-3.6"/></g></g><g><g opacity=".2"><path d="M383.1 150.4c-11.3 0-20.4-9.2-20.4-20.4-1.9-30.9-1.9-62.5 0-93.8 0-11.2 9.2-20.4 20.4-20.4h228.7c11.3 0 20.4 9.2 20.4 20.4 1.9 30.9 1.9 62.5 0 93.8 0 11.2-9.2 20.4-20.4 20.4H383.1z"/><path d="M611.8 16.5c10.9 0 19.7 8.8 19.7 19.7 2 31.1 1.9 62.4 0 93.8 0 10.9-8.8 19.7-19.7 19.7H383.1c-10.9 0-19.7-8.8-19.7-19.7-2-31.1-1.9-62.4 0-93.8 0-10.9 8.8-19.7 19.7-19.7h228.7m0-1.5H383.1c-11.7 0-21.1 9.5-21.2 21.1-1.9 31.4-1.9 62.9 0 93.9 0 11.6 9.5 21.1 21.2 21.1h228.7c11.7 0 21.1-9.5 21.2-21.1 1.9-31.4 1.9-62.9 0-93.9-.1-11.6-9.6-21.1-21.2-21.1z"/></g><path fill="gray" d="M387.8 144.7c-11.3 0-20.4-9.2-20.4-20.4-1.9-30.9-1.9-62.5 0-93.8 0-11.2 9.2-20.4 20.4-20.4h228.7c11.3 0 20.4 9.2 20.4 20.4 1.9 30.9 1.9 62.5 0 93.8 0 11.2-9.2 20.4-20.4 20.4H387.8z"/><path fill="#4D4D4D" d="M616.5 10.8c10.9 0 19.7 8.8 19.7 19.7 2 31.1 1.9 62.4 0 93.8 0 10.9-8.8 19.7-19.7 19.7H387.8c-10.9 0-19.7-8.8-19.7-19.7-2-31.1-1.9-62.4 0-93.8 0-10.9 8.8-19.7 19.7-19.7h228.7m0-1.5H387.8c-11.7 0-21.1 9.5-21.2 21.1-1.9 31.4-1.9 62.9 0 93.9 0 11.6 9.5 21.1 21.2 21.1h228.7c11.7 0 21.1-9.5 21.2-21.1 1.9-31.4 1.9-62.9 0-93.9 0-11.6-9.5-21.1-21.2-21.1z"/><g opacity=".2"><path d="M636.2 124.9h-6.9v3.3h6.5c.2-.8.3-1.6.4-3.3zM635.9 26.6h-6.5v3.7h6.9c-.2-2.2-.3-3-.4-3.7z"/></g><g opacity=".2"><path d="M368.2 124.9h6.9v3.3h-6.5c-.2-.8-.3-1.6-.4-3.3zM368.6 26.6h6.5v3.7h-6.9c.1-2.2.2-3 .4-3.7z"/></g><path fill="#132133" d="M369 77.5c0-15.5.5-31.3 1.5-46.9v-.2c0-9.6 7.8-17.4 17.4-17.4h228.7c9.6 0 17.4 7.8 17.4 17.4v.2c1 15.4 1.5 31.1 1.5 46.6s-.5 31.3-1.5 46.9v.2c0 9.6-7.8 17.4-17.4 17.4H387.8c-9.6 0-17.4-7.8-17.4-17.4v-.2c-.9-15.4-1.4-31-1.4-46.6z"/><path fill="#B6C3D4" d="M374.7 86.5V68.8c0-3.6 2.9-6.5 6.5-6.5s6.5 2.9 6.5 6.5v17.7c0 3.6-2.9 6.5-6.5 6.5s-6.5-2.9-6.5-6.5z"/><path fill="none" stroke="#333" stroke-width=".313" stroke-miterlimit="10" d="M394.7 17h214.1v120.7H394.7z"/><path fill="#333" d="M396.1 18.5h211.2v117.8H396.1z"/><path fill="none" stroke="#CCC" stroke-width=".949" stroke-linecap="round" stroke-miterlimit="10" d="M378 14.5c2.9-1.8 6.2-2.8 9.8-2.8h228.7c4.2 0 8 1.4 11.1 3.7M372.9 135.6c-2.4-3.2-3.8-7.1-3.8-11.4v-.1c-1-15.4-1.5-31.1-1.5-46.7 0-15.5.5-31.3 1.5-47v-.1c0-4.3 1.4-8.2 3.9-11.4M380.3 141.5c-.8-.3-1.5-.7-2.2-1.1M628 139.1c-3.2 2.5-7.2 3.9-11.5 3.9H387.8c-1.1 0-2.2-.1-3.3-.3"/><path fill="none" stroke="#CCC" stroke-width=".949" stroke-linecap="round" stroke-linejoin="round" stroke-miterlimit="10" d="M632.4 20.4c1.9 2.9 2.9 6.4 2.9 10.1v.1c1 15.4 1.5 31.1 1.5 46.7 0 15.5-.5 31.3-1.5 47v.1c0 3.7-1.1 7.2-3 10.1"/><path fill="#02050A" d="M378 87.2s-.4 2-1.2 4.1c1.1 1.1 2.7 1.7 4.4 1.7-1-2.3-1.9-4.9-1.9-6.7.1-3.5 0-19.6 0-19.6s-.1-1.9-.1-4.1c-1.1.4-2.1 1-2.8 1.8.8 2 1.6 4.8 1.6 7.5v15.3z"/><path fill="#071829" d="M376.1 68.8c0-2.8 2.3-5.1 5.1-5.1s5.1 2.3 5.1 5.1v17.7c0 2.8-2.3 5.1-5.1 5.1s-5.1-2.3-5.1-5.1V68.8z"/><circle cx="627.4" cy="52" r="1.9"/><circle fill="#181C21" cx="627.4" cy="57.8" r="1.9"/><circle fill="#31302C" cx="627.4" cy="108.8" r="2.6"/><path fill="#3E5D7E" d="M627.3 64.2c1 0 1.8.8 1.8 1.8v22.8c0 1-.8 1.8-1.8 1.8s-1.8-.8-1.8-1.8V66c.1-1 .9-1.8 1.8-1.8m0-.7c-1.4 0-2.5 1.1-2.5 2.5v22.8c0 1.4 1.1 2.5 2.5 2.5s2.5-1.1 2.5-2.5V66c0-1.4-1.1-2.5-2.5-2.5z"/><path opacity=".5" fill="#FAFEFF" d="M626 88.8V66c0-.7.6-1.3 1.3-1.3.7 0 1.3.6 1.3 1.3v22.8c0 .7-.6 1.3-1.3 1.3-.7 0-1.3-.6-1.3-1.3z"/><circle cx="627.4" cy="67.1" r=".5"/><circle cx="627.4" cy="68.6" r=".5"/><circle cx="627.4" cy="70.1" r=".5"/><circle cx="627.4" cy="71.6" r=".5"/><circle cx="627.4" cy="73.1" r=".5"/><circle cx="627.4" cy="74.7" r=".5"/><circle cx="627.4" cy="76.2" r=".5"/><circle cx="627.4" cy="77.7" r=".5"/><circle cx="627.4" cy="79.2" r=".5"/><circle cx="627.4" cy="80.7" r=".5"/><circle cx="627.4" cy="82.2" r=".5"/><circle cx="627.4" cy="83.7" r=".5"/><circle cx="627.4" cy="85.2" r=".5"/><circle cx="627.4" cy="86.8" r=".5"/><circle cx="627.4" cy="88.3" r=".5"/><g opacity=".5" fill="#798B99"><path d="M383.1 42.2v-5.8c0-.2-.1-.3-.3-.3h-3.3c-.2 0-.3.1-.3.3v5.8c0 .2.1.3.3.3H382.7c.2 0 .4-.1.4-.3zm-1.1-.3h-2.2V36.7h2.6V41.9h-.4z"/><path d="M384.4 43.5s-.1 0 0 0c-.1 0 0-.1 0 0v-5.7c0-.2-.1-.3-.3-.3h-.3v5.7h-3.2v.3c0 .2.1.3.3.3h3.2c.1 0 .3-.1.3-.3zM382.8 116.8v-2.4h.8l-.9-2.5s-.1-.2-.3-.2c-.2 0-.3.2-.3.2l-.9 2.5h.8v2.4c0 .7-.6 1.3-1.3 1.3-.7 0-1.3-.6-1.3-1.3v-4.5h-.6v4.5c0 1.1.9 1.9 1.9 1.9 1.2 0 2.1-.8 2.1-1.9z"/></g><g opacity=".25" fill="#E6E6E6"><path d="M616.7 80s.2-.3.3-.5c0 0 .3-.6.4-.7 0 0 .2-.2.5-.1 0 0 .2.1.2.3 0 0 0 .3-.3.3h-.4v1.1h.5s.9.1.9-1.3c0 0 .1-1.1-.5-1.4 0 0-.1-.1-.6-.1h-.3s-.4 0-.7.2c0 0-.2.1-.4.4 0 0-.3.5-.5.9 0 0-.2.3-.5.3 0 0-.3 0-.3-.3 0 0 0-.3.3-.3h.4v-1.2h-.5s-1 0-1 1.5c0 0 0 1.4 1.1 1.5h.4c-.1-.1.6-.1 1-.6zM618.7 74.3l-2.4-.3v-.1l2.4-.4v-1.8l-4.4-.1v1.1h3.3v.1l-3.3.6v1.1l3.3.6v.1h-3.3v1.1l4.4-.1zM618.7 67.9l-4.4-.7v1.1l3.4.5-3.4.5v1.1l4.4-.7zM616.7 92.4h-.6v.3h-.7c-.3 0-.3-.3-.3-.3 0-.3.3-.3.3-.3h2.4c.2 0 .3.3.3.3 0 .3-.3.3-.3.3h-.4v1.1c.7 0 .9-.1.9-.1.6-.3.6-1.3.6-1.3 0-1.6-1.3-1.4-1.3-1.4h-2.3c-1.2 0-1.1 1.6-1.1 1.6.1.7.3.9.3.9.2.2.4.2.4.2.1.1.5.1.5.1h1.4v-1.4h-.1zM616 88.7l2.7-1.1v-1.4h-4.4v1.1h2.7l-2.7 1.2v1.3h4.4v-1.1zM615.4 83.6s-.4 0-.4-.3c0 0 0-.3.4-.3h3.3v-1.2h-3.3s-1.2-.1-1.2 1.5c0 0 0 1.5 1.2 1.5h3.3v-1.2h-3.3zM616.7 65.6s.2-.3.3-.5c0 0 .3-.6.4-.7 0 0 .2-.2.5-.1 0 0 .2.1.2.3 0 0 0 .3-.3.3h-.4V66h.5s.9.1.9-1.3v-.3s0-.8-.5-1.1c0 0-.1-.1-.6-.1h-.3s-.4 0-.7.2c0 0-.2.1-.4.4 0 0-.3.5-.5.9 0 0-.2.3-.5.3 0 0-.3 0-.3-.3 0 0 0-.3.3-.3h.4v-1.2h-.5s-1 0-1 1.5c0 0 0 1.4 1.1 1.5h.4c-.1-.1.6 0 1-.6z"/></g><circle fill="#0F0E14" cx="627.4" cy="108.8" r="1.9"/></g><g><defs><path id="a" d="M1049.2 534H922.9V296.8h126.3V534zM396.1 18.5h211.2v117.8H396.1V18.5zm443.3 735.6H476.2V526.6h363.3l-.1 227.5zm-467.8-169v118.6H161.4V585.1h210.2zm34.2-377.2H180v301.2h225.8V207.9zM513.5 459V204.7h339.2V459H513.5zM899 169.2H702.9V59.7H899v109.5z"/></defs><clipPath id="b"><use xlink:href="#a" overflow="visible"/></clipPath><path clip-path="url(#b)" fill="#F4B504" d="M-115.7-102.1h1460.3V901.4H-115.7z"/><g><defs><path id="c" d="M1049.2 534H922.9V296.8h126.3V534zM396.1 18.5h211.2v117.8H396.1V18.5zm443.3 735.6H476.2V526.6h363.3l-.1 227.5zm-467.8-169v118.6H161.4V585.1h210.2zm34.2-377.2H180v301.2h225.8V207.9zM513.5 459V204.7h339.2V459H513.5zM899 169.2H702.9V59.7H899v109.5z"/></defs><clipPath id="d"><use xlink:href="#c" overflow="visible"/></clipPath><g clip-path="url(#d)"><path fill="none" stroke="#333" stroke-width="8.876" stroke-linecap="round" stroke-linejoin="round" d="M992.6 482.4v-36.8"/><path fill="#333" d="M569.7 59.5l257.4 128.7v46l91.9 46 73.6 36.8v36.8l-55.2 27.6-18.4-9.2V409l73.6 36.8v36.8L937.4 510l-73.6-36.8-36.8-18.4v27.6L569.7 611.1l-36.8-18.4v-9.2l-36.8 18.4-18.4-9.2v36.8l73.6 36.8v36.8l-55.2 27.6-73.6-36.8-202.2-101.2V427.2l55.2-27.6 73.6 36.8v-82.7l-36.8-18.4V188.2L569.7 59.5m0-13.8c-2.1 0-4.2.5-6.2 1.5L306.1 175.8c-4.7 2.3-7.6 7.1-7.6 12.3v147.1c0 5.2 3 10 7.6 12.3l29.2 14.6V414l-53.6-26.8c-1.9-1-4.1-1.5-6.2-1.5-2.1 0-4.2.5-6.2 1.5l-55.2 27.6c-4.7 2.3-7.6 7.1-7.6 12.3v165.5c0 5.2 3 10 7.6 12.3L416.4 706l73.6 36.8c1.9 1 4.1 1.5 6.2 1.5s4.2-.5 6.2-1.5l55.2-27.6c4.7-2.3 7.6-7.1 7.6-12.3v-36.8c0-5.2-3-10-7.6-12.3l-65.9-33v-6.1c1.5.5 3 .8 4.6.8 2.1 0 4.2-.5 6.2-1.5l21.8-10.9c.8.7 1.7 1.2 2.6 1.7l36.8 18.4c1.9 1 4.1 1.5 6.2 1.5s4.2-.5 6.2-1.5l257.4-128.7c4.7-2.3 7.6-7.1 7.6-12.3v-5.3l16.8 8.4 73.6 36.8c1.9 1 4.1 1.5 6.2 1.5s4.2-.5 6.2-1.5l55.2-27.6c4.7-2.3 7.6-7.1 7.6-12.3v-36.8c0-5.2-3-10-7.6-12.3l-65.9-33V394c1.5.5 3 .8 4.6.8 2.1 0 4.2-.5 6.2-1.5l55.2-27.6c4.7-2.3 7.6-7.1 7.6-12.3v-36.8c0-5.2-3-10-7.6-12.3l-73.6-36.8-84.3-42.2v-37.4c0-5.2-3-10-7.6-12.3L575.8 47.1c-1.9-.9-4-1.4-6.1-1.4z"/><path fill="#B3B3B3" d="M569.7 59.5l257.4 128.7v46l91.9 46 73.6 36.8v36.8l-55.2 27.6-18.4-9.2V409l73.6 36.8v36.8L937.4 510l-73.6-36.8-36.8-18.4v27.6L569.7 611.1l-36.8-18.4v-9.2l-36.8 18.4-18.4-9.2v36.8l73.6 36.8v36.8l-55.2 27.6-73.6-36.8-202.2-101.2V427.2l55.2-27.6 73.6 36.8v-82.7l-36.8-18.4V188.2L569.7 59.5"/><path d="M422.6 565.1v68.2c0-28 25.7-40.5 44.6-45.9l-44.6-22.3z" opacity=".2"/><path opacity=".6" fill="none" stroke="#FFF" stroke-width="8.876" stroke-linecap="round" stroke-linejoin="round" d="M657.3 436.4l101.1-50.6M614 458l16.2-8.1"/><path fill="#999" d="M349 353.7l183.9 91.9v82.8l-183.9-92zM569.7 400l257.4-128.8v64.1L569.7 464z"/><g opacity=".4" fill="#FFF"><path d="M551.3 537.6l-55.2 27.5-275.8-137.9 55.1-27.6zM477.7 629.5l73.6 36.8-55.2 27.6-73.5-36.8zM569.7 316.9l257.4-128.7L569.7 59.5 312.2 188.2zM992.6 316.9l-55.2 27.6-110.3-55.2v-55.2zM992.6 445.6l-55.2 27.6-73.5-36.8 55.1-27.6z"/></g><g opacity=".2"><path d="M937.4 344.5v36.8l-73.5-36.8v91.9l73.5 36.8V510l-110.3-55.2V289.3zM220.3 427.2v165.5l275.8 137.9v-36.7l-73.5-36.8v-92l73.5 36.8v-36.8zM312.2 188.2v147.1l220.7 110.3v82.8l18.4 9.2v36.7l-18.4 9.2v9.2l36.8 18.4V316.9z"/></g><path fill="none" stroke="#333" stroke-width="8.876" stroke-linecap="round" stroke-linejoin="round" d="M863.9 344.5l73.5 36.8M992.6 482.4L937.4 510M863.9 473.2l73.5 36.8"/><path opacity=".6" fill="none" stroke="#FFF" stroke-width="8.876" stroke-linecap="round" stroke-linejoin="round" d="M915.6 449.9c7.3 3.6 14.6 7.3 21.8 10.9 6.8-3.4 13.7-6.8 20.5-10.3M957.9 321.8c-6.8 3.4-13.7 6.8-20.5 10.3l-31.8-15.9"/><path fill="none" stroke="#333" stroke-width="8.876" stroke-linecap="round" stroke-linejoin="round" d="M919 280.1l73.6 36.8M863.9 307.7l55.1-27.6M919 408.8l73.6 36.8M863.9 436.4l55.1-27.6M919 408.8v-36.7M937.4 381.3l55.2-27.6v-36.8M827.1 188.2v294.2L569.7 611.1M863.9 473.2V307.7M919 280.1l-91.9-46M312.2 188.2L569.7 59.5l257.4 128.7"/><path fill="#999" d="M385.8 188.2l36.8 18.4 183.8-92-36.7-18.4z"/><path fill="none" stroke="#333" stroke-width="8.876" stroke-linecap="round" stroke-linejoin="round" d="M385.8 188.2l36.8 18.4 183.8-92-36.7-18.4z"/><path fill="#46A3BD" d="M606.4 390.4v55.2l64.4-32.2v-55.1zM726 330.7v55.2l64.3-32.2v-55.2z"/><path opacity=".2" d="M220.3 516.5v76.3l119 59.5c-67.3-66.4-101.7-80.3-119-135.8z"/><path fill="none" stroke="#333" stroke-width="8.876" stroke-linecap="round" stroke-linejoin="round" d="M422.6 565.1l73.5 36.8M551.3 666.3v36.8l-55.2 27.5M422.6 693.9l73.5 36.7"/><path opacity=".6" fill="none" stroke="#FFF" stroke-width="8.876" stroke-linecap="round" stroke-linejoin="round" d="M476.3 671.5l19.8 9.9c5.4-2.7 10.8-5.4 16.3-8.1"/><path fill="none" stroke="#333" stroke-width="8.876" stroke-linecap="round" stroke-linejoin="round" d="M477.7 500.8l-55.1 27.6M220.3 427.2l55.1-27.6 202.3 101.2"/><path fill="#B3B3B3" d="M397.2 460.5l18.8-28.6c7.7-11.6 4.4-27.3-7.2-35-4.1-2.7-8.9-4.2-13.9-4.2-8.5 0-16.4 4.3-21.1 11.4l-22.2 33.6 45.6 22.8z"/><path d="M395 392.7c-8.5 0-16.4 4.3-21.1 11.4l-22.2 33.6 14.2 7.1 34-51.6c-1.6-.3-3.2-.5-4.9-.5z" opacity=".2"/><path fill="none" stroke="#333" stroke-width="8.876" stroke-linecap="round" stroke-linejoin="round" d="M397.2 460.5l18.8-28.6c7.7-11.6 4.4-27.3-7.2-35-4.1-2.7-8.9-4.2-13.9-4.2-8.5 0-16.4 4.3-21.1 11.4l-22.2 33.6 45.6 22.8zM477.7 500.8l73.6 36.8M477.7 629.5l73.6 36.8M422.6 657.1l55.1-27.6M477.7 629.5v-36.8M220.3 427.2v165.5l202.3 101.2M422.6 693.9V528.4M551.3 537.6v36.7l-55.2 27.6"/><path opacity=".6" fill="none" stroke="#FFF" stroke-width="8.876" stroke-linecap="round" stroke-linejoin="round" d="M418.4 227.1l-15.9-8M436.9 238.1l132.8 66.4 204.1-102.1"/><path d="M312.2 259.6v75.7l159.9 80C372 352.2 329.8 314.2 312.2 259.6z" opacity=".2"/><path fill="none" stroke="#333" stroke-width="8.876" stroke-linecap="round" stroke-linejoin="round" d="M312.2 188.2v147.1l220.7 110.3v82.8l18.4 9.2v36.7l-18.4 9.2v9.2l36.8 18.4M349 353.7v82.7"/><path opacity=".6" fill="none" stroke="#FFF" stroke-width="8.876" stroke-linecap="round" stroke-linejoin="round" d="M518 541.8c-7.3 3.7-14.6 7.3-21.9 11l-23.4-11.7M309.8 457.8l-19.4-9.7M406.9 506.4l-78.1-39.1"/></g></g></g><g opacity=".1"><path fill="#FFF" d="M387.9 36.6h228.6c13.6 0 16.5 11.3 17.1 17.4-.2-7.8-.6-15.6-1.1-23.3v-.2c0-8.8-7.1-15.9-15.9-15.9H387.8c-8.8 0-15.9 7.1-15.9 15.9v.2c-.5 7.7-.8 15.5-1.1 23.2.6-6 3.5-17.3 17.1-17.3z"/></g><g><defs><path id="e" d="M926.6 560.6c-8.1 0-14.7-6.6-14.7-14.7V285c0-8.1 6.6-14.7 14.7-14.7h118.8c8.1 0 14.7 6.6 14.7 14.7v260.9c0 8.1-6.6 14.7-14.7 14.7H926.6zm-525.4-16.1c9.2 0 16.7-7.5 16.7-16.7V188.6c0-9.2-7.5-16.7-16.7-16.7H185.1c-9.2 0-16.7 7.5-16.7 16.7v339.2c0 9.2 7.5 16.7 16.7 16.7h216.1zm72.4-81.8c0 4.8 3.9 8.6 8.6 8.6h401.5c4.8 0 8.6-3.9 8.6-8.6V201c0-4.8-3.9-8.6-8.6-8.6H482.2c-4.8 0-8.6 3.9-8.6 8.6v261.7zM860 782.3c6 0 10.9-4.9 10.9-10.9V507c0-6-4.9-10.9-10.9-10.9H455.6c-6 0-10.9 4.9-10.9 10.9v264.3c0 6 4.9 10.9 10.9 10.9l404.4.1zM385.4 581.7H156.5c-.5 0-.9.4-.9.9V706c0 .5.4.9.9.9h228.9c.5 0 .9-.4.9-.9V582.7c0-.5-.4-1-.9-1zM929.6 70.4c0-9.5-7.7-17.2-17.2-17.2H690.1c-9.5 0-17.2 7.7-17.2 17.2v88.2c0 9.5 7.7 17.2 17.2 17.2h222.3c9.5 0 17.2-7.7 17.2-17.2V70.4zm-559.2 53.7c0 9.7 7.8 17.5 17.4 17.5h228.7c9.6 0 17.4-7.8 17.4-17.4v-.2c1-15.6 1.5-31.4 1.5-46.9s-.5-31.2-1.5-46.6v-.2c0-9.6-7.8-17.4-17.4-17.4H387.8c-9.6 0-17.4 7.8-17.4 17.4v.2c-1 15.6-1.5 31.4-1.5 46.9.1 15.7.6 31.3 1.5 46.7z"/></defs><clipPath id="f"><use xlink:href="#e" overflow="visible"/></clipPath><g opacity=".15" clip-path="url(#f)"><path fill="#FFF" d="M15.1 541.7l175.5-387.6h244.9L117.3 549.3l-102.2-7.6zM460.9 150L543.4 3.6H421.8l-40.4 147.5 79.5-1.1zm754.5 403.8L1098.2 240h-21.1l-72.2 313.7 210.5.1zm-1258 199.1l209.1-206.6H-8.1l-97.4 208.3 62.9-1.7zM865 44.5H731.5l-52.1 139.9 153.1.1 32.5-140zM308.5 694.3L272 791.6l248.5-2.2L719.7 480h-84.2l-159.9.5-167.1 213.8zM487.9 480h212.9l29.5-.3 116.2-294.9H655.8L487.9 480z"/></g><defs><path id="g" d="M926.6 560.6c-8.1 0-14.7-6.6-14.7-14.7V285c0-8.1 6.6-14.7 14.7-14.7h118.8c8.1 0 14.7 6.6 14.7 14.7v260.9c0 8.1-6.6 14.7-14.7 14.7H926.6zm-525.4-16.1c9.2 0 16.7-7.5 16.7-16.7V188.6c0-9.2-7.5-16.7-16.7-16.7H185.1c-9.2 0-16.7 7.5-16.7 16.7v339.2c0 9.2 7.5 16.7 16.7 16.7h216.1zm72.4-81.8c0 4.8 3.9 8.6 8.6 8.6h401.5c4.8 0 8.6-3.9 8.6-8.6V201c0-4.8-3.9-8.6-8.6-8.6H482.2c-4.8 0-8.6 3.9-8.6 8.6v261.7zM860 782.3c6 0 10.9-4.9 10.9-10.9V507c0-6-4.9-10.9-10.9-10.9H455.6c-6 0-10.9 4.9-10.9 10.9v264.3c0 6 4.9 10.9 10.9 10.9l404.4.1zM385.4 581.7H156.5c-.5 0-.9.4-.9.9V706c0 .5.4.9.9.9h228.9c.5 0 .9-.4.9-.9V582.7c0-.5-.4-1-.9-1zM929.6 70.4c0-9.5-7.7-17.2-17.2-17.2H690.1c-9.5 0-17.2 7.7-17.2 17.2v88.2c0 9.5 7.7 17.2 17.2 17.2h222.3c9.5 0 17.2-7.7 17.2-17.2V70.4zm-559.2 53.7c0 9.7 7.8 17.5 17.4 17.5h228.7c9.6 0 17.4-7.8 17.4-17.4v-.2c1-15.6 1.5-31.4 1.5-46.9s-.5-31.2-1.5-46.6v-.2c0-9.6-7.8-17.4-17.4-17.4H387.8c-9.6 0-17.4 7.8-17.4 17.4v.2c-1 15.6-1.5 31.4-1.5 46.9.1 15.7.6 31.3 1.5 46.7z"/></defs><clipPath id="h"><use xlink:href="#g" overflow="visible"/></clipPath><path opacity=".2" clip-path="url(#h)" fill="#FFF" d="M548.8 480h-95.2v1.1l95-.6z"/><g><defs><path id="i" d="M926.6 560.6c-8.1 0-14.7-6.6-14.7-14.7V285c0-8.1 6.6-14.7 14.7-14.7h118.8c8.1 0 14.7 6.6 14.7 14.7v260.9c0 8.1-6.6 14.7-14.7 14.7H926.6zm-525.4-16.1c9.2 0 16.7-7.5 16.7-16.7V188.6c0-9.2-7.5-16.7-16.7-16.7H185.1c-9.2 0-16.7 7.5-16.7 16.7v339.2c0 9.2 7.5 16.7 16.7 16.7h216.1zm72.4-81.8c0 4.8 3.9 8.6 8.6 8.6h401.5c4.8 0 8.6-3.9 8.6-8.6V201c0-4.8-3.9-8.6-8.6-8.6H482.2c-4.8 0-8.6 3.9-8.6 8.6v261.7zM860 782.3c6 0 10.9-4.9 10.9-10.9V507c0-6-4.9-10.9-10.9-10.9H455.6c-6 0-10.9 4.9-10.9 10.9v264.3c0 6 4.9 10.9 10.9 10.9l404.4.1zM385.4 581.7H156.5c-.5 0-.9.4-.9.9V706c0 .5.4.9.9.9h228.9c.5 0 .9-.4.9-.9V582.7c0-.5-.4-1-.9-1zM929.6 70.4c0-9.5-7.7-17.2-17.2-17.2H690.1c-9.5 0-17.2 7.7-17.2 17.2v88.2c0 9.5 7.7 17.2 17.2 17.2h222.3c9.5 0 17.2-7.7 17.2-17.2V70.4zm-559.2 53.7c0 9.7 7.8 17.5 17.4 17.5h228.7c9.6 0 17.4-7.8 17.4-17.4v-.2c1-15.6 1.5-31.4 1.5-46.9s-.5-31.2-1.5-46.6v-.2c0-9.6-7.8-17.4-17.4-17.4H387.8c-9.6 0-17.4 7.8-17.4 17.4v.2c-1 15.6-1.5 31.4-1.5 46.9.1 15.7.6 31.3 1.5 46.7z"/></defs><clipPath id="j"><use xlink:href="#i" overflow="visible"/></clipPath><path opacity=".2" clip-path="url(#j)" fill="#FFF" d="M548.8 480h-95.2v1.1l95-.6z"/></g><g><defs><path id="k" d="M926.6 560.6c-8.1 0-14.7-6.6-14.7-14.7V285c0-8.1 6.6-14.7 14.7-14.7h118.8c8.1 0 14.7 6.6 14.7 14.7v260.9c0 8.1-6.6 14.7-14.7 14.7H926.6zm-525.4-16.1c9.2 0 16.7-7.5 16.7-16.7V188.6c0-9.2-7.5-16.7-16.7-16.7H185.1c-9.2 0-16.7 7.5-16.7 16.7v339.2c0 9.2 7.5 16.7 16.7 16.7h216.1zm72.4-81.8c0 4.8 3.9 8.6 8.6 8.6h401.5c4.8 0 8.6-3.9 8.6-8.6V201c0-4.8-3.9-8.6-8.6-8.6H482.2c-4.8 0-8.6 3.9-8.6 8.6v261.7zM860 782.3c6 0 10.9-4.9 10.9-10.9V507c0-6-4.9-10.9-10.9-10.9H455.6c-6 0-10.9 4.9-10.9 10.9v264.3c0 6 4.9 10.9 10.9 10.9l404.4.1zM385.4 581.7H156.5c-.5 0-.9.4-.9.9V706c0 .5.4.9.9.9h228.9c.5 0 .9-.4.9-.9V582.7c0-.5-.4-1-.9-1zM929.6 70.4c0-9.5-7.7-17.2-17.2-17.2H690.1c-9.5 0-17.2 7.7-17.2 17.2v88.2c0 9.5 7.7 17.2 17.2 17.2h222.3c9.5 0 17.2-7.7 17.2-17.2V70.4zm-559.2 53.7c0 9.7 7.8 17.5 17.4 17.5h228.7c9.6 0 17.4-7.8 17.4-17.4v-.2c1-15.6 1.5-31.4 1.5-46.9s-.5-31.2-1.5-46.6v-.2c0-9.6-7.8-17.4-17.4-17.4H387.8c-9.6 0-17.4 7.8-17.4 17.4v.2c-1 15.6-1.5 31.4-1.5 46.9.1 15.7.6 31.3 1.5 46.7z"/></defs><clipPath id="l"><use xlink:href="#k" overflow="visible"/></clipPath><path opacity=".2" clip-path="url(#l)" fill="#FFF" d="M548.6 480.5l94.6-.5h-94.4z"/></g><g><defs><path id="m" d="M926.6 560.6c-8.1 0-14.7-6.6-14.7-14.7V285c0-8.1 6.6-14.7 14.7-14.7h118.8c8.1 0 14.7 6.6 14.7 14.7v260.9c0 8.1-6.6 14.7-14.7 14.7H926.6zm-525.4-16.1c9.2 0 16.7-7.5 16.7-16.7V188.6c0-9.2-7.5-16.7-16.7-16.7H185.1c-9.2 0-16.7 7.5-16.7 16.7v339.2c0 9.2 7.5 16.7 16.7 16.7h216.1zm72.4-81.8c0 4.8 3.9 8.6 8.6 8.6h401.5c4.8 0 8.6-3.9 8.6-8.6V201c0-4.8-3.9-8.6-8.6-8.6H482.2c-4.8 0-8.6 3.9-8.6 8.6v261.7zM860 782.3c6 0 10.9-4.9 10.9-10.9V507c0-6-4.9-10.9-10.9-10.9H455.6c-6 0-10.9 4.9-10.9 10.9v264.3c0 6 4.9 10.9 10.9 10.9l404.4.1zM385.4 581.7H156.5c-.5 0-.9.4-.9.9V706c0 .5.4.9.9.9h228.9c.5 0 .9-.4.9-.9V582.7c0-.5-.4-1-.9-1zM929.6 70.4c0-9.5-7.7-17.2-17.2-17.2H690.1c-9.5 0-17.2 7.7-17.2 17.2v88.2c0 9.5 7.7 17.2 17.2 17.2h222.3c9.5 0 17.2-7.7 17.2-17.2V70.4zm-559.2 53.7c0 9.7 7.8 17.5 17.4 17.5h228.7c9.6 0 17.4-7.8 17.4-17.4v-.2c1-15.6 1.5-31.4 1.5-46.9s-.5-31.2-1.5-46.6v-.2c0-9.6-7.8-17.4-17.4-17.4H387.8c-9.6 0-17.4 7.8-17.4 17.4v.2c-1 15.6-1.5 31.4-1.5 46.9.1 15.7.6 31.3 1.5 46.7z"/></defs><clipPath id="n"><use xlink:href="#m" overflow="visible"/></clipPath><path opacity=".2" clip-path="url(#n)" fill="#FFF" d="M548.6 480.5l94.6-.5h-94.4z"/></g></g></svg>