<svg id="Layer_1" xmlns="http://www.w3.org/2000/svg" viewBox="0 0 300 70"><style>.st0{fill:#3b254b}.st1{fill:#e3303d}</style><path class="st0" d="M8.4 53.2c0 .9 0 1.5-.4 2.2-.4.6-1.3 1-2.4 1-1.1 0-2-.4-2.4-1-.4-.6-.4-1.3-.4-2.2V18c0-1.8 0-2.9 2.8-3.6 1.4-.4 3.6-.6 6.3-.6 3.2 0 7 .4 10 1.9 3.7 1.9 5.9 5.3 5.9 9.9 0 5.3-2.8 9.4-8.2 11.4l11.6 16c1 1.4.8 3.2-2.2 3.2-2.3 0-3.1-1-4.1-2.5l-7.5-10.8c-2-2.8-3.1-4.7-3.1-4.7s-1.3.3-3.3.3c-1.7 0-2.4-.1-2.4-.1v14.9h-.2zm0-19.4s.9.1 2.4.1c6.9 0 11-2.4 11-7.9 0-5.8-4.6-7.4-9.6-7.4-2 0-3.8.3-3.8.3v14.9zM83.7 53.2c0 .9 0 1.5-.4 2.2-.5.8-1.5 1-2.3 1-1.1 0-1.9-.4-2.3-1-.4-.6-.4-1.3-.4-2.2V16.1c0-1.5.9-2.4 2.6-2.4 1.9 0 2.7 1 4.1 2.8l23.6 29.7V16.9c0-.9 0-1.5.4-2.2.5-.8 1.5-1 2.3-1 1.1 0 1.9.4 2.3 1 .4.6.4 1.3.4 2.2V54c0 1.5-.9 2.3-2.4 2.3-1.7 0-2.6-.9-4-2.8L83.7 23.6v29.6zM158.8 50.4c0 2-.5 3-3.8 4.2-3.1 1.1-6.6 1.9-10.5 1.9-12.4 0-22.3-7.2-22.3-21.7 0-15.5 11.5-21.6 22.3-21.6 4.1 0 8 .9 11.4 2.7 1.9 1 2.7 1.8 2.7 2.9 0 1.3-.9 2.8-2.3 2.8-1.1 0-2.2-1-4.6-2-1.8-.8-4.5-1.4-7.7-1.4-7.7 0-16.1 4.3-16.1 16.4 0 11.4 7.5 17 16.5 17 5.1 0 8.7-1.8 8.7-1.8v-7.4c0-.9 0-1.5.4-2.2.4-.6 1.3-1 2.4-1s2 .4 2.4 1c.4.6.4 1.3.4 2.2v8h.1zM187.9 50.9c.9 0 1.5.1 2 .5s.9 1 .9 2-.4 1.7-.9 2c-.6.4-1.3.5-2 .5h-17.2c-2 0-2.7-.9-2.7-2.7V16.9c0-.9 0-1.5.4-2.2.4-.6 1.3-1 2.4-1 1.1 0 2 .4 2.4 1 .4.6.4 1.3.4 2.2V51h14.3zM202.6 31h10.2c.9 0 1.5 0 2 .5.5.4.9 1 .9 2s-.4 1.7-.9 2c-.6.4-1.3.5-2 .5h-10.2v15H217c.9 0 1.5.1 2 .5s.9 1 .9 2-.4 1.7-.9 2c-.6.4-1.3.5-2 .5h-17.2c-2 0-2.7-.9-2.7-2.7V17c0-1.9.8-2.7 2.7-2.7h15.3c.9 0 1.5 0 2 .5.5.4.9 1 .9 2s-.4 1.7-.9 2c-.6.4-1.3.5-2 .5h-12.5V31z"/><path class="st1" d="M229.4 56.5c-2 0-3.4-1.4-3.4-3.4s1.4-3.4 3.4-3.4 3.4 1.5 3.4 3.4c-.1 2-1.5 3.4-3.4 3.4zM246.9 53.2c0 .9 0 1.5-.4 2.2-.4.6-1.3 1-2.4 1s-2-.4-2.4-1c-.4-.6-.4-1.3-.4-2.2V16.9c0-.9 0-1.5.4-2.2.4-.6 1.3-1 2.4-1s2 .4 2.4 1c.4.6.4 1.3.4 2.2v36.3zM276.6 13.2c13.1 0 21.4 9 21.4 21.7 0 12.8-8.4 21.9-21.7 21.9-13.1 0-21.4-9-21.4-21.7.2-12.9 8.6-21.9 21.7-21.9zm0 38.9c9.6 0 15.7-6.2 15.7-17 0-10.9-6.3-17.2-15.8-17.2-9.6 0-15.7 6.2-15.7 17 0 11 6.3 17.2 15.8 17.2z"/><path class="st0" d="M71.6 52.7L57.7 16.9c-.8-1.9-1.4-3.2-3.3-3.2-2 0-2.7 1.4-3.4 3.3L36.4 52.9c-.4.9-.5 1.3-.5 1.8 0 1 .8 1.8 2.6 1.8 2.2 0 2.7-1.1 3.3-2.7l2.2-5.6.1-.5 2-5.3 2.6-6.5L54 22.1l5.9 15.2h-8.2c-.1 0-.3.1-.3.1l-1.7 4.3c-.1.3.1.4.3.4h11.5l4.3 11.4c.8 1.9 1.4 2.7 3.4 2.7 1.8 0 2.7-.8 2.7-1.8.1-.3 0-.9-.3-1.7z"/></svg>