<svg id="logo" xmlns="http://www.w3.org/2000/svg" viewBox="0 0 120 42"><style>.st0{fill:#FFF}.st1{fill:#d62526}</style><path d="M39.8 29.8h.2l.2.4h.2l-.3-.4c.1 0 .2-.1.2-.3 0-.2-.1-.3-.3-.3h-.4v.9h.1v-.3zm0-.1v-.3h.2c.1 0 .2 0 .2.1s-.1.2-.2.2h-.2z"/><path d="M40.9 29.8c0 .5-.4.9-.9.9s-.9-.4-.9-.9.4-.9.9-.9.9.4.9.9zM40 29c-.4 0-.7.3-.7.7 0 .4.3.7.7.7.4 0 .7-.3.7-.7 0-.4-.3-.7-.7-.7z"/><path class="st0" d="M34.9 30.5c-1.3 0-2.4.2-3.3.6-.1 0-.2.1-.2.3v.1c.1.3-.1.6-.9.8-1.2.3-2 1.5-2.4 2-.5.5-2 .8-1.8.5.2-.2.8-.9 1.2-1.7.4-.7.7-.9 1.1-1.6.1-.2.6-.9.8-1.4.2-.5.1-1.2.2-1.5.1-.4.5-1.2.5-1.7 0-.3-1.1.4-1.7.4-.5 0-1.1-.3-1.6-.4-.6 0-1 .5-1.5.4-.3 0-.6-.3-1.1-.3-.8 0-1.7.4-3.5.4-1.8-.1-3.4-2.2-3.6-2.6-.3-.4-.6-.4-.9-.1-.3.3-.8.1-.9-.1-.2-.4-.8-1.6-1.8-1.8-1.3-.3-2 .7-1.9 1.6.1.9.6 1.1.9 1.6.3.5.4.8.9 1 .3.1.5.4.4.6-.1.2-.4.3-.7.3-.5 0-.9-.1-1.1-.3-.3-.2-.5-.5-.8-.9-.3-.5-.8-.7-1.3-.7-.3 0-.5.1-.7.2-.9.5-1.9.7-3 .7H4.9C7.3 33.9 14.1 39 22 39c6.3 0 11.9-3.3 15.1-8.2-.7-.2-1.4-.3-2.2-.3z"/><path d="M25.9 29.1l-.5.5c-.4.3-.9 0-1.2-.2-.7-.4-1.2-.1-1.3.2-.1.3 0 .7.4.6.5-.1.5 0 .9.2.7.4 1.2.2 1.4 0 .2-.2.3-.3.4-.5.2-.4.1-.7-.1-.8.1 0 0 0 0 0z"/><path d="M22 3C12.1 3 4 11.1 4 21c0 2 .3 3.9.9 5.8h1.3c1.1 0 2.1-.3 3-.7.2-.1.5-.2.7-.2.6 0 1 .2 1.3.7.3.4.5.7.8.9.3.2.6.3 1.1.3.2 0 .6-.1.7-.3.1-.3 0-.5-.4-.6-.5-.2-.6-.5-.9-1-.3-.5-.8-.7-.9-1.6-.1-.9.6-1.9 1.9-1.6 1 .2 1.6 1.4 1.8 1.8.1.2.5.5.9.1.3-.3.7-.3.9.1.2.3 1.8 2.5 3.6 2.6 1.8.1 2.7-.4 3.5-.4.5 0 .8.3 1.1.3.5.1.9-.4 1.5-.4.5 0 1 .3 1.6.3.5 0 1.7-.7 1.7-.4 0 .5-.4 1.3-.5 1.7-.1.3 0 .9-.2 1.5-.1.5-.6 1.2-.8 1.4-.4.7-.8.9-1.1 1.6-.4.8-1.1 1.5-1.2 1.7-.2.3 1.2 0 1.8-.5.4-.4 1.2-1.7 2.4-2 .8-.2 1-.5.9-.8v-.1c0-.1.1-.2.2-.3.9-.4 2-.6 3.3-.6.7 0 1.5.1 2.2.3 1.8-2.6 2.9-6 2.9-9.6 0-9.9-8.1-18-18-18z"/><path class="st1" d="M32.2 16.2c-.2.6-.4 1.4-1.6 1.9-.2.1-.2-.1-.2-.2.4-.7.5-.9.6-1.2.2-.4.3-1-.1-2.2-.7-2.4-2.1-5.7-3.1-6.7s-2.8-1.3-4.4-.9c-.6.2-1.8.8-3.9.3-3.8-.8-4.3 1-4.5 1.9-.2.8-.7 3.1-.7 3.1-.2.9-.4 2.6 5.4 3.7 2.7.5 2.9 1.2 3 1.7.2.9.6 1.4.9 1.7.4.3 0 .5-.4.5-1.2.1-5.4-1.1-8-2.5-2.1-1.3-2.1-2.4-1.6-3.4-3.1-.3-5.5.3-5.9 1.8-.7 2.5 5.6 6.9 12.8 9 7.5 2.3 15.3.7 16.2-4 .3-2.2-1.5-3.8-4.5-4.5zm-11.6-4.6c-2.1.2-2.3.4-2.7.8-.5.6-1.3-.8-1.3-.8-.4-.1-1-.8-.7-1.4.3-.6.8-.5 1-.3.2.2.6.6 1.2.6.5 0 1.2-.1 2.1-.1.9 0 1.5.3 1.5.6s-.1.5-1.1.6zm4.5-2.1c-.4 0-.7-.1-1-.2 0 0-.1 0-.1-.1 0 0 0-.1.1-.1.7-.2 1.2-.4 1.2-.7 0-.3-1-.5-2.1-.4h-.4s-.1 0-.1-.1c.4-.2 1-.4 1.7-.5h.7c1.2 0 2.1.5 2.1 1 0 .7-.9 1.1-2.1 1.1z"/><g><path d="M49.2 22.1c0-1.7 0-2.9-.1-4h2.7l.1 2.3h.1c.6-1.7 2-2.6 3.4-2.6.3 0 .5 0 .7.1v2.9c-.3-.1-.6-.1-.9-.1-1.5 0-2.5.9-2.8 2.4-.1.3-.1.6-.1.9v6.4h-3.1v-8.3zM59.9 25.2c.1 2.2 1.8 3.2 3.8 3.2 1.4 0 2.5-.2 3.4-.6l.5 2.1c-1.1.4-2.5.8-4.3.8-4 0-6.4-2.5-6.4-6.3 0-3.4 2.1-6.6 6-6.6 4 0 5.3 3.3 5.3 6 0 .6-.1 1-.1 1.3l-8.2.1zm5.4-2.2c0-1.1-.5-3-2.6-3-1.9 0-2.7 1.7-2.9 3h5.5zM105.1 27.6c0 1 0 2 .2 2.9h-1.1l-.2-1.8c-.6 1-2 2-3.9 2-2.5 0-3.6-1.7-3.6-3.4 0-2.8 2.5-4.6 7.5-4.5v-.3c0-1.2-.2-3.7-3.2-3.6-1.1 0-2.2.3-3.1.9l-.4-.9c1.1-.8 2.5-1.1 3.6-1.1 3.6 0 4.2 2.7 4.2 4.9v4.9zm-1.2-3.7c-2.7-.1-6.2.3-6.2 3.3 0 1.8 1.2 2.6 2.5 2.6 2.1 0 3.2-1.3 3.7-2.5.1-.3.1-.5.1-.7v-2.7zM110 15.4v2.7h3.5v1H110v8c0 1.6.5 2.6 1.8 2.6.6 0 1.1-.1 1.4-.2l.1.9c-.4.2-1 .3-1.7.3-.9 0-1.6-.3-2.1-.9-.6-.6-.7-1.7-.7-2.9v-7.8h-2.1v-1h2.1v-2.3l1.2-.4zM115.1 29.8h.2l.2.4h.2l-.3-.4c.1 0 .2-.1.2-.3 0-.2-.1-.3-.3-.3h-.4v.9h.1v-.3zm0-.1v-.3h.2c.1 0 .2 0 .2.1s-.1.2-.2.2h-.2z"/><path d="M116.1 29.8c0 .5-.4.9-.9.9s-.9-.4-.9-.9.4-.9.9-.9.9.4.9.9zm-.9-.8c-.4 0-.7.3-.7.7 0 .4.3.7.7.7.4 0 .7-.3.7-.7.1-.3-.3-.7-.7-.7zM78.5 19.5c-.6-.9-1.8-1.6-3.5-1.6-3 0-5.5 2.5-5.5 6.6 0 3.8 2.3 6.3 5.3 6.3 1.8 0 3.3-.8 4-2.2h.1l.1 2h2.8c-.1-.8-.1-2.2-.1-3.5V13.4l-3.1-.9v7zm0 5.7c0 .3 0 .6-.1.9-.3 1.3-1.4 2.2-2.7 2.2-2 0-3.1-1.7-3.1-3.9 0-2.3 1.1-4.1 3.1-4.1 1.4 0 2.4 1 2.7 2.2.1.3.1.6.1.8v1.9zM89.9 17.9c-.9 0-1.8.3-2.5.7-.7.4-1.3 1.1-1.7 1.8v-5.8l-1.2-.4v16.3h1.2V23c0-.5 0-.8.2-1.2.5-1.5 2-2.8 3.7-2.8 2.5 0 3.4 2 3.4 4.2v7.3h1.2v-7.4c0-4.6-3.1-5.2-4.3-5.2z"/></g></svg>