<?xml version="1.0" encoding="utf-8"?>
<!-- Generator: Adobe Illustrator 19.1.0, SVG Export Plug-In . SVG Version: 6.00 Build 0)  -->
<!DOCTYPE svg PUBLIC "-//W3C//DTD SVG 1.1//EN" "http://www.w3.org/Graphics/SVG/1.1/DTD/svg11.dtd">
<svg version="1.1" id="Layer_1" xmlns="http://www.w3.org/2000/svg" xmlns:xlink="http://www.w3.org/1999/xlink" x="0px" y="0px"
	 viewBox="247 -264 1074 928" style="enable-background:new 247 -264 1074 928;" xml:space="preserve">
<style type="text/css">
	.st0{fill:none;stroke:#FFFFFF;stroke-width:12.127;stroke-linecap:round;stroke-linejoin:round;}
	.st1{fill:none;stroke:#333333;stroke-width:6.0635;stroke-linecap:round;stroke-linejoin:round;}
	.st2{fill:#FFFFFF;}
</style>
<g opacity="0.3">
	<line class="st0" x1="1124" y1="132.1" x2="1221" y2="180.6"/>
	<path class="st0" d="M1149.7,96.4c-8.6-4.3-17.1-8.6-25.7-12.9"/>
	<path class="st0" d="M1221,132.1c-14-7-27.9-14-41.9-21"/>
	<line class="st0" x1="1221" y1="180.6" x2="1221" y2="132.1"/>
	<line class="st0" x1="1221" y1="350.4" x2="1221" y2="301.8"/>
	<line class="st0" x1="1293.7" y1="314" x2="1221" y2="350.4"/>
	<line class="st0" x1="1293.7" y1="265.5" x2="1293.7" y2="314"/>
	<path class="st0" d="M1221,301.8c9-4.5,18-9,27.1-13.5"/>
	<line class="st0" x1="1124" y1="301.8" x2="1221" y2="350.4"/>
	<path class="st0" d="M1146.4,264.5c-7.5-3.7-14.9-7.5-22.4-11.2"/>
	<path class="st0" d="M1221,301.8c-15.9-7.9-31.7-15.9-47.6-23.8"/>
	<path class="st0" d="M1248,118.5c-9,4.5-18,9-27.1,13.5"/>
	<line class="st0" x1="1196.7" y1="47.2" x2="1293.7" y2="95.7"/>
	<line class="st0" x1="1124" y1="83.6" x2="1196.7" y2="47.2"/>
	<polygon class="st0" points="1196.7,47.2 1196.7,47.2 1196.7,47.2 	"/>
	<line class="st0" x1="1196.7" y1="217" x2="1293.7" y2="265.5"/>
	<line class="st0" x1="1124" y1="253.3" x2="1196.7" y2="217"/>
	<line class="st0" x1="1196.7" y1="217" x2="1196.7" y2="168.4"/>
	<polyline class="st0" points="1293.7,95.7 1293.7,144.2 1221,180.6 	"/>
	<line class="st0" x1="735.9" y1="157.3" x2="735.9" y2="95.7"/>
	<line class="st0" x1="735.9" y1="336.6" x2="735.9" y2="186.6"/>
	<line class="st0" x1="735.9" y1="483.7" x2="735.9" y2="371.4"/>
	<polyline class="st0" points="1075.4,-74.1 1075.4,314 735.9,483.7 	"/>
	<line class="st0" x1="1044.6" y1="-58.7" x2="1075.4" y2="-74.1"/>
	<line class="st0" x1="735.9" y1="95.7" x2="1005.1" y2="-38.9"/>
	<line class="st0" x1="1124" y1="83.6" x2="1075.4" y2="59.3"/>
	<line class="st0" x1="1124" y1="301.8" x2="1124" y2="83.6"/>
	<polyline class="st0" points="1075.4,59.3 1075.4,277.6 1124,301.8 	"/>
	<polyline class="st0" points="1196.7,47.2 1075.4,-13.5 1075.4,59.3 1124,83.6 	"/>
	<polyline class="st0" points="396.3,-74.1 735.9,-243.9 1075.4,-74.1 	"/>
	<path class="st1" d="M566.1,411"/>
	<polygon class="st0" points="493.4,-74.1 541.9,-49.8 784.4,-171.1 735.9,-195.4 	"/>
	<polygon class="st0" points="784.4,192.7 784.4,265.5 869.3,223 869.3,150.3 	"/>
	<polygon class="st0" points="942.1,113.9 942.1,186.6 1026.9,144.2 1026.9,71.4 	"/>
	<path class="st0" d="M576.4,391.9c-11.5-5.8-23-11.5-34.5-17.3"/>
	<path class="st0" d="M638.9,423.1c-10.3-5.2-20.6-10.3-30.9-15.5"/>
	<line class="st0" x1="638.9" y1="471.6" x2="638.9" y2="423.1"/>
	<line class="st0" x1="541.9" y1="423.1" x2="638.9" y2="471.6"/>
	<line class="st0" x1="638.9" y1="641.4" x2="638.9" y2="592.9"/>
	<polyline class="st0" points="711.6,556.5 711.6,605 638.9,641.4 	"/>
	<path class="st0" d="M691.6,566.5c6.7-3.3,13.3-6.7,20-10"/>
	<path class="st0" d="M638.9,592.9c10.9-5.4,21.7-10.9,32.6-16.3"/>
	<line class="st0" x1="541.9" y1="592.9" x2="638.9" y2="641.4"/>
	<path class="st0" d="M562.7,554.8c-6.9-3.5-13.9-6.9-20.8-10.4"/>
	<path class="st0" d="M638.9,592.9c-18.4-9.2-36.7-18.4-55.1-27.6"/>
	<line class="st0" x1="614.6" y1="338.2" x2="541.9" y2="374.6"/>
	<polyline class="st0" points="275.1,241.2 347.8,204.8 614.6,338.2 	"/>
	<path class="st0" d="M508.5,285.1l24.9-37.7c10.1-15.3,5.9-36.1-9.5-46.2c-5.5-3.6-11.8-5.5-18.3-5.5c-11.3,0-21.7,5.6-27.9,15
		l-29.2,44.4L508.5,285.1z"/>
	<path class="st0" d="M667.8,408.7c-9.6,4.8-19.3,9.6-28.9,14.5"/>
	<path class="st0" d="M711.6,386.7c-6.1,3.1-12.2,6.1-18.3,9.2"/>
	<line class="st0" x1="614.6" y1="338.2" x2="711.6" y2="386.7"/>
	<polygon class="st0" points="614.6,338.2 614.6,338.2 614.6,338.2 	"/>
	<line class="st0" x1="614.6" y1="508" x2="711.6" y2="556.5"/>
	<line class="st0" x1="541.9" y1="544.4" x2="614.6" y2="508"/>
	<line class="st0" x1="614.6" y1="508" x2="614.6" y2="459.5"/>
	<polyline class="st0" points="275.1,241.2 275.1,459.5 541.9,592.9 	"/>
	<line class="st0" x1="317.9" y1="262.6" x2="275.1" y2="241.2"/>
	<line class="st0" x1="393.2" y1="300.3" x2="367.6" y2="287.5"/>
	<line class="st0" x1="541.9" y1="374.6" x2="418.1" y2="312.7"/>
	<line class="st0" x1="541.9" y1="592.9" x2="541.9" y2="374.6"/>
	<polyline class="st0" points="711.6,386.7 711.6,435.2 638.9,471.6 	"/>
	<line class="st0" x1="460.6" y1="-42" x2="396.3" y2="-74.1"/>
	<line class="st0" x1="536.4" y1="-4.1" x2="515.4" y2="-14.6"/>
	<line class="st0" x1="735.9" y1="95.7" x2="560.8" y2="8.1"/>
	<polyline class="st0" points="396.3,-74.1 396.3,119.9 687.4,265.5 687.4,374.6 711.6,386.7 711.6,435.2 687.4,447.4 687.4,459.5
		735.9,483.7 	"/>
	<line class="st0" x1="444.8" y1="144.2" x2="444.8" y2="253.3"/>
	<g>
		<path class="st2" d="M735.9-243.9l339.6,169.8v60.6l121.3,60.6l97,48.5v48.5l-72.8,36.4l-24.3-12.1V217l97,48.5V314l-72.8,36.4
			l-97-48.5l-48.5-24.3V314L735.9,483.7l-48.5-24.3v-12.1l-48.5,24.3l-24.3-12.1V508l97,48.5V605l-72.8,36.4l-97-48.5L275.1,459.5
			V241.2l72.8-36.4l97,48.5V144.2l-48.5-24.3v-194L735.9-243.9 M735.9-262.1c-2.8,0-5.6,0.6-8.1,1.9L388.2-90.4
			c-6.2,3.1-10.1,9.4-10.1,16.3v194c0,6.9,3.9,13.2,10.1,16.3l38.5,19.2v68.5L356,188.6c-2.6-1.3-5.3-1.9-8.1-1.9
			c-2.8,0-5.6,0.6-8.1,1.9l-72.8,36.4c-6.2,3.1-10.1,9.4-10.1,16.3v218.3c0,6.9,3.9,13.2,10.1,16.3l266.8,133.4l97,48.5
			c2.6,1.3,5.3,1.9,8.1,1.9c2.8,0,5.6-0.6,8.1-1.9l72.8-36.4c6.2-3.1,10.1-9.4,10.1-16.3v-48.5c0-6.9-3.9-13.2-10.1-16.3l-87-43.5
			v-8c2,0.7,4,1,6.1,1c2.8,0,5.6-0.6,8.1-1.9l28.8-14.4c1.1,0.9,2.2,1.6,3.5,2.3l48.5,24.3c2.6,1.3,5.3,1.9,8.1,1.9
			c2.8,0,5.6-0.6,8.1-1.9l339.6-169.8c6.2-3.1,10.1-9.4,10.1-16.3V307l22.2,11.1l97,48.5c2.6,1.3,5.3,1.9,8.1,1.9
			c2.8,0,5.6-0.6,8.1-1.9l72.8-36.4c6.2-3.1,10.1-9.4,10.1-16.3v-48.5c0-6.9-3.9-13.2-10.1-16.3l-87-43.5v-8c2,0.7,4,1,6.1,1
			c2.8,0,5.6-0.6,8.1-1.9l72.8-36.4c6.2-3.1,10.1-9.4,10.1-16.3V95.7c0-6.9-3.9-13.2-10.1-16.3l-97-48.5l-111.2-55.6v-49.4
			c0-6.9-3.9-13.2-10.1-16.3L744-260.1C741.5-261.4,738.7-262.1,735.9-262.1L735.9-262.1z"/>
	</g>
	<polygon class="st0" points="735.9,217 1075.4,47.2 1075.4,119.9 735.9,289.7 	"/>
</g>
</svg>
