<?xml version="1.0" encoding="utf-8"?>
<!-- Generator: Adobe Illustrator 19.1.0, SVG Export Plug-In . SVG Version: 6.00 Build 0)  -->
<!DOCTYPE svg PUBLIC "-//W3C//DTD SVG 1.1//EN" "http://www.w3.org/Graphics/SVG/1.1/DTD/svg11.dtd">
<svg version="1.1" id="Layer_1" xmlns="http://www.w3.org/2000/svg" xmlns:xlink="http://www.w3.org/1999/xlink" x="0px" y="0px"
	 viewBox="0 0 527 120" style="enable-background:new 0 0 527 120;" xml:space="preserve">
<style type="text/css">
	.st0{fill:#474240;}
	.st1{fill:#3BECEA;}
	.st2{fill:#EC543B;}
	.st3{fill:#3EC6C2;}
</style>
<g>
	<path class="st0" d="M221.5,55.1c-0.7,1.1-1.5,2.1-2.4,3.1c-0.9,1-2,1.8-3.2,2.5c-1.2,0.7-2.6,1.3-4.3,1.7
		c-1.6,0.4-3.5,0.6-5.7,0.6c-6.3,0-11-1.8-14-5.4c-3-3.6-4.6-8.9-4.6-16.1c0-7.2,1.5-12.6,4.6-16.1c3.1-3.6,7.6-5.3,13.7-5.3
		c2.1,0,3.9,0.2,5.5,0.6c1.6,0.4,3,0.9,4.3,1.6c1.2,0.7,2.3,1.5,3.2,2.4c0.9,0.9,1.6,1.9,2.3,3l-5.5,4c-0.4-0.7-0.9-1.3-1.4-2
		c-0.5-0.7-1.2-1.2-1.9-1.7c-0.7-0.5-1.6-0.9-2.6-1.2c-1-0.3-2.2-0.5-3.6-0.5c-3.9,0-6.7,1.3-8.5,3.8c-1.8,2.6-2.7,6.4-2.7,11.5
		c0,2.7,0.2,5,0.7,7c0.5,1.9,1.2,3.5,2.2,4.8c1,1.2,2.1,2.1,3.5,2.7c1.4,0.6,3,0.9,4.9,0.9c1.4,0,2.6-0.1,3.6-0.4
		c1-0.3,1.9-0.7,2.7-1.2c0.8-0.5,1.5-1.1,2.1-1.8c0.6-0.7,1.2-1.4,1.7-2.2L221.5,55.1z"/>
	<path class="st0" d="M250.5,62.1L240,45.9h-5.7v16.2h-6.9V20.9h13.9c2.5,0,4.6,0.2,6.5,0.6c1.9,0.4,3.4,1.1,4.6,2.1
		c1.2,0.9,2.2,2.2,2.8,3.7c0.6,1.5,0.9,3.4,0.9,5.6c0,1.9-0.2,3.6-0.6,5c-0.4,1.4-1,2.6-1.8,3.6c-0.8,1-1.7,1.7-2.7,2.3
		c-1.1,0.6-2.2,1-3.4,1.2l11.1,17.1H250.5z M248.9,33.2c0-1.2-0.1-2.2-0.4-3c-0.3-0.8-0.8-1.4-1.4-1.9c-0.6-0.5-1.4-0.8-2.4-1
		c-1-0.2-2.1-0.3-3.5-0.3h-6.9v12.8h6.5c1.6,0,2.9-0.1,3.9-0.3c1-0.2,1.9-0.6,2.5-1.1c0.6-0.5,1.1-1.2,1.3-2
		C248.8,35.4,248.9,34.4,248.9,33.2z"/>
	<path class="st0" d="M296.1,41.5c0,3.4-0.3,6.4-1,9c-0.6,2.7-1.7,4.9-3.1,6.7c-1.4,1.8-3.2,3.3-5.4,4.2c-2.2,1-4.8,1.5-7.9,1.5
		c-3.1,0-5.7-0.5-7.8-1.5c-2.2-1-4-2.4-5.4-4.2c-1.4-1.8-2.4-4.1-3.1-6.7c-0.7-2.7-1-5.7-1-9c0-3.4,0.3-6.4,1-9.1
		c0.7-2.7,1.7-4.9,3.1-6.7c1.4-1.8,3.2-3.2,5.4-4.2c2.2-1,4.8-1.5,7.8-1.5c3.1,0,5.7,0.5,7.9,1.4c2.2,1,4,2.4,5.4,4.2
		c1.4,1.8,2.4,4.1,3.1,6.7C295.8,35.1,296.1,38.1,296.1,41.5z M288.9,41.5c0-2.6-0.2-4.8-0.5-6.7c-0.4-1.9-0.9-3.5-1.7-4.8
		c-0.8-1.3-1.8-2.2-3.1-2.9c-1.3-0.6-2.8-1-4.6-1c-1.8,0-3.4,0.3-4.7,1c-1.3,0.6-2.3,1.6-3.1,2.9c-0.8,1.3-1.4,2.9-1.7,4.8
		c-0.4,1.9-0.5,4.2-0.5,6.7s0.2,4.8,0.5,6.7c0.4,1.9,0.9,3.5,1.7,4.8c0.8,1.3,1.8,2.2,3.1,2.9c1.3,0.6,2.8,1,4.7,1
		c1.8,0,3.4-0.3,4.6-0.9c1.3-0.6,2.3-1.6,3.1-2.8c0.8-1.3,1.4-2.9,1.7-4.8C288.7,46.3,288.9,44.1,288.9,41.5z"/>
	<path class="st0" d="M331.6,50.5c0,2.3-0.4,4.3-1.2,5.9c-0.8,1.6-1.9,2.9-3.4,3.8c-1.4,1-3.1,1.7-4.9,2.1c-1.9,0.4-3.9,0.6-6,0.6
		c-2.2,0-4.2-0.2-5.8-0.6s-3.1-1-4.4-1.7s-2.3-1.5-3.2-2.5c-0.9-1-1.7-2-2.3-3.1l5.5-4c0.5,0.8,1,1.5,1.7,2.2
		c0.6,0.7,1.3,1.3,2.1,1.8c0.8,0.5,1.7,0.9,2.8,1.2c1.1,0.3,2.3,0.5,3.7,0.5c1.1,0,2.1-0.1,3.1-0.3c1-0.2,1.9-0.5,2.7-1
		c0.8-0.5,1.4-1.1,1.9-1.8c0.5-0.7,0.7-1.6,0.7-2.7c0-1-0.2-1.9-0.7-2.6c-0.4-0.7-1-1.3-1.8-1.8c-0.8-0.5-1.6-0.9-2.7-1.2
		c-1-0.3-2.1-0.6-3.2-0.9c-2.1-0.5-4.1-1.1-5.9-1.7c-1.8-0.6-3.4-1.3-4.7-2.2c-1.3-0.9-2.4-2-3.1-3.3c-0.8-1.4-1.1-3.1-1.1-5.2
		c0-1.9,0.3-3.5,1-5c0.6-1.5,1.6-2.8,2.8-3.8c1.2-1.1,2.8-1.9,4.6-2.4c1.8-0.6,3.9-0.8,6.3-0.8c1.8,0,3.4,0.2,4.9,0.5
		c1.5,0.3,2.8,0.8,4,1.4c1.2,0.6,2.3,1.4,3.2,2.3c1,0.9,1.8,2,2.5,3.1l-5.4,4c-1.1-1.7-2.4-3.1-3.9-3.9c-1.5-0.9-3.3-1.3-5.5-1.3
		c-2.3,0-4.2,0.5-5.5,1.4c-1.4,1-2,2.3-2,4.1c0,0.9,0.2,1.6,0.6,2.2c0.4,0.6,0.9,1.1,1.7,1.5c0.8,0.4,1.7,0.8,2.9,1.2
		c1.2,0.3,2.5,0.7,4.1,1.1c1.2,0.3,2.4,0.6,3.6,1c1.2,0.3,2.3,0.7,3.3,1.2c1,0.4,2,1,2.9,1.6c0.9,0.6,1.6,1.3,2.2,2.2
		c0.6,0.9,1.1,1.9,1.5,3C331.4,47.7,331.6,49,331.6,50.5z"/>
	<path class="st0" d="M367.6,50.5c0,2.3-0.4,4.3-1.2,5.9c-0.8,1.6-1.9,2.9-3.4,3.8c-1.4,1-3.1,1.7-4.9,2.1c-1.9,0.4-3.9,0.6-6,0.6
		c-2.2,0-4.2-0.2-5.8-0.6s-3.1-1-4.4-1.7s-2.3-1.5-3.2-2.5c-0.9-1-1.7-2-2.3-3.1l5.5-4c0.5,0.8,1,1.5,1.7,2.2
		c0.6,0.7,1.3,1.3,2.1,1.8c0.8,0.5,1.7,0.9,2.8,1.2c1.1,0.3,2.3,0.5,3.7,0.5c1.1,0,2.1-0.1,3.1-0.3c1-0.2,1.9-0.5,2.7-1
		c0.8-0.5,1.4-1.1,1.9-1.8c0.5-0.7,0.7-1.6,0.7-2.7c0-1-0.2-1.9-0.7-2.6c-0.4-0.7-1-1.3-1.8-1.8c-0.8-0.5-1.6-0.9-2.7-1.2
		c-1-0.3-2.1-0.6-3.2-0.9c-2.1-0.5-4.1-1.1-5.9-1.7c-1.8-0.6-3.4-1.3-4.7-2.2c-1.3-0.9-2.4-2-3.1-3.3c-0.8-1.4-1.1-3.1-1.1-5.2
		c0-1.9,0.3-3.5,1-5c0.6-1.5,1.6-2.8,2.8-3.8c1.2-1.1,2.8-1.9,4.6-2.4c1.8-0.6,3.9-0.8,6.3-0.8c1.8,0,3.4,0.2,4.9,0.5
		c1.5,0.3,2.8,0.8,4,1.4c1.2,0.6,2.3,1.4,3.2,2.3c1,0.9,1.8,2,2.5,3.1l-5.4,4c-1.1-1.7-2.4-3.1-3.9-3.9c-1.5-0.9-3.3-1.3-5.5-1.3
		c-2.3,0-4.2,0.5-5.5,1.4c-1.4,1-2,2.3-2,4.1c0,0.9,0.2,1.6,0.6,2.2c0.4,0.6,0.9,1.1,1.7,1.5c0.8,0.4,1.7,0.8,2.9,1.2
		c1.2,0.3,2.5,0.7,4.1,1.1c1.2,0.3,2.4,0.6,3.6,1c1.2,0.3,2.3,0.7,3.3,1.2c1,0.4,2,1,2.9,1.6c0.9,0.6,1.6,1.3,2.2,2.2
		c0.6,0.9,1.1,1.9,1.5,3C367.4,47.7,367.6,49,367.6,50.5z"/>
	<path class="st0" d="M410.9,62.1h-7.6L396,31.9l-7.4,30.1h-7.5L371,20.9h6.9l7.1,30.1l7.3-30.1h7.3l7.4,30.3l7.2-30.3h6.9
		L410.9,62.1z"/>
	<path class="st0" d="M420.3,62.1l13.8-41.2h9l13.9,41.2h-7.2l-3.2-9.5h-16.4l-3.1,9.5H420.3z M432.4,46.4h12.3l-6.1-18.6
		L432.4,46.4z"/>
	<path class="st0" d="M462.5,62.1V20.9h6.9v34.9h18v6.3H462.5z"/>
	<path class="st0" d="M515.7,62.1l-12.8-17.8l-3.2,3.7v14.1h-6.9V20.9h6.9V39l15.5-18.2h8.3l-16.1,18.3l17.1,22.9H515.7z"/>
</g>
<g>
	<path class="st0" d="M208.9,79.5c0,1.6-0.2,3-0.6,4.2c-0.4,1.2-1,2.2-1.7,2.9c-0.8,0.8-1.8,1.3-3,1.7s-2.7,0.6-4.4,0.6h-4.4v8.8
		h-4.6v-27h9.1c1.5,0,2.9,0.2,4.1,0.5c1.2,0.3,2.2,0.8,3,1.5c0.8,0.7,1.4,1.6,1.9,2.7C208.7,76.5,208.9,77.9,208.9,79.5z
		 M204.2,79.5c0-1-0.1-1.8-0.4-2.4c-0.3-0.6-0.7-1.1-1.2-1.5c-0.5-0.4-1.1-0.6-1.9-0.8c-0.7-0.1-1.6-0.2-2.6-0.2h-3.4v10.2h2.9
		c1.1,0,2.1-0.1,3-0.2c0.8-0.1,1.5-0.4,2-0.7s0.9-0.9,1.2-1.6C204,81.6,204.2,80.7,204.2,79.5z"/>
	<path class="st0" d="M228.3,97.6L221.4,87h-3.8v10.6h-4.6v-27h9.1c1.6,0,3,0.1,4.2,0.4c1.2,0.3,2.2,0.7,3,1.3
		c0.8,0.6,1.4,1.4,1.8,2.4c0.4,1,0.6,2.2,0.6,3.6c0,1.3-0.1,2.4-0.4,3.3c-0.3,0.9-0.7,1.7-1.2,2.3c-0.5,0.6-1.1,1.1-1.8,1.5
		c-0.7,0.4-1.4,0.6-2.2,0.8l7.3,11.2H228.3z M227.3,78.7c0-0.8-0.1-1.5-0.3-2c-0.2-0.5-0.5-0.9-0.9-1.2s-0.9-0.5-1.6-0.7
		c-0.6-0.1-1.4-0.2-2.3-0.2h-4.5V83h4.3c1,0,1.9-0.1,2.6-0.2c0.7-0.1,1.2-0.4,1.6-0.7c0.4-0.3,0.7-0.8,0.9-1.3
		C227.2,80.2,227.3,79.5,227.3,78.7z"/>
	<path class="st0" d="M258.5,84.1c0,2.2-0.2,4.2-0.6,5.9c-0.4,1.7-1.1,3.2-2,4.4s-2.1,2.1-3.5,2.8c-1.4,0.6-3.2,1-5.2,1
		c-2,0-3.7-0.3-5.1-1s-2.6-1.6-3.5-2.8s-1.6-2.7-2-4.4s-0.6-3.7-0.6-5.9c0-2.2,0.2-4.2,0.6-5.9c0.4-1.7,1.1-3.2,2-4.4
		c0.9-1.2,2.1-2.1,3.5-2.8c1.4-0.6,3.1-1,5.1-1c2,0,3.7,0.3,5.2,0.9c1.4,0.6,2.6,1.5,3.5,2.8c0.9,1.2,1.6,2.7,2,4.4
		C258.3,79.9,258.5,81.9,258.5,84.1z M253.7,84.1c0-1.7-0.1-3.1-0.4-4.4c-0.2-1.3-0.6-2.3-1.1-3.1c-0.5-0.8-1.2-1.5-2-1.9
		c-0.8-0.4-1.8-0.6-3-0.6c-1.2,0-2.2,0.2-3.1,0.6c-0.8,0.4-1.5,1-2,1.9c-0.5,0.8-0.9,1.9-1.1,3.1c-0.2,1.3-0.4,2.7-0.4,4.4
		s0.1,3.1,0.4,4.4c0.2,1.3,0.6,2.3,1.1,3.1c0.5,0.8,1.2,1.5,2.1,1.9c0.8,0.4,1.9,0.6,3.1,0.6c1.2,0,2.2-0.2,3-0.6
		c0.8-0.4,1.5-1,2-1.9c0.5-0.8,0.9-1.9,1.1-3.1C253.6,87.3,253.7,85.8,253.7,84.1z"/>
	<path class="st0" d="M273.7,90.3c0,1.4-0.2,2.6-0.5,3.6c-0.3,1-0.8,1.8-1.5,2.5c-0.7,0.7-1.5,1.1-2.6,1.5c-1,0.3-2.3,0.5-3.7,0.5
		c-0.4,0-0.8,0-1.2-0.1c-0.5,0-0.9-0.1-1.4-0.2c-0.5-0.1-1-0.2-1.5-0.3c-0.5-0.1-0.9-0.3-1.3-0.4l1.5-4c0.2,0.1,0.5,0.2,0.8,0.3
		c0.3,0.1,0.7,0.2,1,0.3c0.4,0.1,0.7,0.2,1.1,0.2c0.4,0.1,0.7,0.1,1,0.1c0.7,0,1.4-0.1,1.8-0.3c0.5-0.2,0.9-0.5,1.1-0.9
		c0.3-0.4,0.5-1,0.6-1.7c0.1-0.7,0.2-1.6,0.2-2.6V70.6h4.6V90.3z"/>
	<path class="st0" d="M279.7,97.6v-27h17v4.1h-12.5v6.9h10.6v4.1h-10.6v7.9h12.5v4.2H279.7z"/>
	<path class="st0" d="M322.3,93c-0.5,0.7-1,1.4-1.6,2c-0.6,0.6-1.3,1.2-2.1,1.6c-0.8,0.5-1.7,0.8-2.8,1.1c-1.1,0.3-2.3,0.4-3.7,0.4
		c-4.1,0-7.2-1.2-9.2-3.5c-2-2.3-3-5.9-3-10.6c0-4.7,1-8.3,3-10.6c2-2.3,5-3.5,9-3.5c1.4,0,2.6,0.1,3.6,0.4s2,0.6,2.8,1
		c0.8,0.4,1.5,1,2.1,1.6c0.6,0.6,1.1,1.3,1.5,2l-3.6,2.6c-0.3-0.4-0.6-0.9-0.9-1.3c-0.3-0.4-0.8-0.8-1.2-1.1s-1.1-0.6-1.7-0.8
		c-0.7-0.2-1.5-0.3-2.4-0.3c-2.5,0-4.4,0.8-5.6,2.5c-1.2,1.7-1.8,4.2-1.8,7.5c0,1.8,0.2,3.3,0.5,4.6c0.3,1.3,0.8,2.3,1.4,3.1
		c0.6,0.8,1.4,1.4,2.3,1.8c0.9,0.4,2,0.6,3.2,0.6c0.9,0,1.7-0.1,2.4-0.3c0.7-0.2,1.3-0.5,1.8-0.8c0.5-0.3,1-0.7,1.4-1.2
		s0.8-0.9,1.1-1.4L322.3,93z"/>
	<path class="st0" d="M338.1,74.8v22.9h-4.6V74.8h-8.6v-4.2h21.8v4.2H338.1z"/>
</g>
<g>
	<polygon class="st1" points="113.5,20 85.1,58.3 113.6,96.7 170,20 	"/>
	<polygon class="st2" points="56.7,20 0,20 56.8,96.7 85.1,58.3 	"/>
	<polygon class="st0" points="56.7,20 113.5,20 85.1,58.3 	"/>
	<polygon class="st3" points="113.5,20 93.2,69.2 85.1,58.3 	"/>
</g>
</svg>
