<svg xmlns="http://www.w3.org/2000/svg" viewBox="0 0 352 178" enable-background="new 0 0 352 178"><style type="text/css">.st0{fill:none;} .st1{fill:#94959A;} .st2{opacity:0.2;} .st3{fill:#787A7D;} .st4{fill:#292929;} .st5{fill:#333333;} .st6{opacity:0.4;fill:none;stroke:#333333;stroke-width:1.25;stroke-linecap:round;stroke-miterlimit:10;} .st7{opacity:0.4;fill:none;stroke:#333333;stroke-width:1.25;stroke-linecap:round;stroke-linejoin:round;stroke-miterlimit:10;} .st8{fill:#666666;} .st9{opacity:0.4;fill:#333333;} .st10{opacity:0.4;} .st11{opacity:0.5;fill:none;stroke:#FFFFFF;stroke-width:1.875;stroke-linecap:round;stroke-miterlimit:10;}</style><circle class="st0" cx="29.1" cy="112.5" r="1.4"/><path class="st1" d="M50.8 169.6h13.7v1.7h-13.7zM111.5 169.6h25.6v1.7h-25.6zM80.4.2h25.6v1.7h-25.6zM80.4 169.6h25.6v1.7h-25.6z"/><g class="st2"><path d="M319.4 177.1c14.2 0 25.7-11.6 25.7-25.7v-116.3c0-14.2-11.6-25.7-25.7-25.7h-1.8v167.7h1.8zM31.8 9.4h280.8v167.7h-280.8zM26.5 9.4c-14.2 0-25.8 11.5-25.8 25.7v116.2c0 14.2 11.6 25.7 25.7 25.7h.3v-167.6h-.2zM26.8 9.4h5v167.7h-5zM312.6 9.4h5v167.7h-5z"/></g><path class="st1" d="M325.6 169.6c14.2 0 25.7-11.6 25.7-25.7v-116.3c0-14.2-11.6-25.7-25.7-25.7h-1.8v167.7h1.8zM38 1.9h280.8v167.7h-280.8zM32.7 1.9c-14.1 0-25.7 11.5-25.7 25.7v116.2c0 14.2 11.6 25.7 25.7 25.7h.3v-167.6h-.3z"/><path class="st3" d="M33 1.9h5v167.7h-5zM318.8 1.9h5v167.7h-5z"/><path class="st4" d="M348.3 143.8c0 12.5-10.1 22.6-22.6 22.6h-293c-12.5 0-22.6-10.1-22.6-22.6v-116.2c0-12.4 10.2-22.6 22.6-22.6h292.9c12.5 0 22.6 10.1 22.6 22.6v116.2z"/><path class="st5" d="M48.9 12.9h259.6v145.6h-259.6zM48.9 12.9h259.6v145.6h-259.6zM49.6 13.5h258.4v144.3h-258.4z"/><path class="st6" d="M283.2 165.8h-250.5c-6.1 0-11.6-2.5-15.5-6.5M347.6 44.1v99.7c0 9.1-5.5 16.9-13.4 20.2M243.8 5.6h77.5M232.9 5.6h4.1M32.7 5.6h139.7"/><path class="st7" d="M19.9 9.8c1.6-1.1 3.3-2 5.1-2.7"/><path class="st0" d="M310.7 6.9h14.9c11.4 0 20.7 9.3 20.7 20.7M346.4 27.6v116.2c0 11.4-9.3 20.7-20.7 20.7h-293c-11.4 0-20.7-9.3-20.7-20.7v-116.2c0-11.4 9.3-20.7 20.7-20.7h278"/><circle class="st8" cx="327.9" cy="86.1" r="13.1"/><path class="st9" d="M314.7 86.1c0 6.7 5 12.2 11.4 13l-8.5-21.1c-1.8 2.2-2.9 5-2.9 8.1zM340.6 89.2c.2-1 .4-2 .4-3.1 0-4.7-2.4-8.7-6.1-11.1l5.7 14.2z"/><circle class="st4" cx="327.9" cy="86.1" r="11.3"/><path class="st5" d="M30.9 74.1v23.2c0 .9-.7 1.6-1.6 1.6-.9 0-1.6-.7-1.6-1.6v-23.2c0-.9.7-1.6 1.6-1.6.9.1 1.6.8 1.6 1.6z"/><circle class="st5" cx="29.1" cy="112.5" r="2.8"/><circle class="st5" cx="19.1" cy="85.7" r="1.3"/><path class="st9" d="M64.5 169.6l-.7-.6h-12.3l-.7.6M106 169.6l-.7-.6h-24.1l-.8.6M80.4 1.9l.8.6h24.1l.7-.6M137.1 169.6l-.7-.6h-24.2l-.7.6"/><g class="st10"><path class="st11" d="M337.1 159.6c-3.2 2.4-7.2 3.7-11.5 3.7h-292.9c-6.8 0-12.9-3.5-16.4-8.9M344.3 149.3c-.5 1.7-1.3 3.4-2.2 4.9M307.6 8.1h18.1c10.8 0 19.5 8.7 19.5 19.5v7.7M292.6 8.1h8.7M14.2 21.7c2.5-7.9 9.9-13.6 18.6-13.6h174.8M14.8 151.4c-.6-1.5-1.1-3.1-1.3-4.8"/></g><path id="Content" class="st5" d="M50 14h258v144h-258z"/></svg>