<svg xmlns="http://www.w3.org/2000/svg" viewBox="0 0 216 400" enable-background="new 0 0 216 400"><style type="text/css">.st0{opacity:0.2;} .st1{fill:#FF7F54;} .st2{fill:#444444;} .st3{opacity:0.2;fill:none;stroke:#FFFFFF;stroke-width:1.875;stroke-linecap:round;stroke-miterlimit:10;} .st4{fill:none;stroke:#000000;stroke-width:2.5001;stroke-linecap:round;stroke-miterlimit:10;} .st5{opacity:0.2;fill:#FFFFFF;} .st6{fill:#222222;} .st7{opacity:5.000000e-02;fill:#FFFFFF;} .st8{opacity:0.3;fill:none;stroke:#FFFFFF;stroke-width:1.25;stroke-linecap:round;stroke-miterlimit:10;}</style><path d="M24.5 400c-13.4 0-24.4-10.9-24.4-24.4v-343.7c0-13.4 10.9-24.4 24.4-24.4h156.6c13.4 0 24.4 10.9 24.4 24.4v343.8c0 13.4-10.9 24.4-24.4 24.4h-156.6z" class="st0"/><path class="st1" d="M30.8 392.5c-13.4 0-24.4-10.9-24.4-24.4v-343.7c0-13.5 10.9-24.4 24.4-24.4h156.6c13.4 0 24.4 10.9 24.4 24.4v343.8c0 13.4-10.9 24.4-24.4 24.4h-156.6z"/><path class="st2" d="M30.8 387.5c-10.7 0-19.4-8.7-19.4-19.4v-343.7c0-10.7 8.7-19.4 19.4-19.4h156.6c10.7 0 19.4 8.7 19.4 19.4v343.8c0 10.7-8.7 19.4-19.4 19.4h-156.6z"/><path class="st3" d="M14.5 126.6v-102.2c0-9 7.3-16.3 16.3-16.3h131.2M82.7 384.4h-6.9M203.6 240.9v127.2c0 9-7.3 16.3-16.3 16.3h-95.2M203.6 214.1v16.8"/><path class="st4" d="M181.4 10h5.9c7.9 0 14.4 6.4 14.4 14.4v79.1M58.3 382.5h-27.5c-7.9 0-14.4-6.4-14.4-14.4v-225.9"/><path d="M115.7 16.5h-15.1c-.7 0-1.3-.6-1.3-1.3 0-.7.6-1.3 1.3-1.3h15.1c.7 0 1.3.6 1.3 1.3 0 .7-.5 1.3-1.3 1.3z"/><circle class="st5" cx="127.1" cy="16.8" r="1.3"/><path class="st5" d="M152.7 19.4h-5.9c-1.5 0-2.8-1.2-2.8-2.8 0-1.5 1.2-2.8 2.8-2.8h5.9c1.5 0 2.8 1.2 2.8 2.8-.1 1.6-1.3 2.8-2.8 2.8z"/><path d="M125.3 383.5l1.3-2c.3-.5.9-.8 1.6-.8h2.2c.6 0 1.2.3 1.6.8l1.3 2h-8zM211.7 92l2 1.3c.5.3.8.9.8 1.6v56c0 .6-.3 1.2-.8 1.6l-2 1.3v-61.8zM211.7 182l2 1.3c.5.3.8.9.8 1.6v25.5c0 .6-.3 1.2-.8 1.6l-2 1.3v-31.3z"/><path class="st6" d="M25.9 39.9h166.4v312.5h-166.4z"/><path id="path5056_3_" class="st7" d="M126.3 27.1v-.8h-1v-1.3l-1 .3v1h-1.5v-.5c0-.3.1-.5.2-.6.1-.1.3-.2.5-.2.1 0 .3 0 .5.1v-.9c-.1-.1-.3-.1-.6-.1s-.6.1-.8.2c-.2.1-.4.3-.6.6-.1.2-.2.5-.2.8v.6h-.7v.8h.7v3.5h1v-3.5h1.5v2.2c0 .9.4 1.4 1.3 1.4h.4c.2 0 .3-.1.3-.1v-.8l-.2.1h-.2c-.2 0-.3-.1-.4-.2-.1-.1-.1-.3-.1-.6v-2.1l.9.1zm-7.7 2.8c-.4 0-.7-.1-.9-.4-.2-.2-.3-.6-.3-1 0-.5.1-.8.3-1.1.2-.3.5-.4.9-.4s.6.1.9.4c.2.2.3.6.3 1.1 0 .5-.1.8-.3 1.1-.3.2-.6.3-.9.3m0-3.7c-.7 0-1.3.2-1.7.6-.4.4-.6 1-.6 1.7s.2 1.2.6 1.6c.4.4.9.6 1.6.6.7 0 1.3-.2 1.7-.6.4-.4.6-1 .6-1.7s-.2-1.2-.6-1.6c-.4-.4-.9-.6-1.6-.6m-4 0c-.5 0-.9.1-1.2.4-.3.2-.5.6-.5 1 0 .2 0 .4.1.5.1.2.2.3.3.4.1.1.3.2.6.4.2.1.4.2.5.2.1.1.2.1.2.2l.1.2c0 .3-.2.4-.7.4-.2 0-.4 0-.6-.1l-.6-.3v1c.1.1.3.1.6.2l.6.1c.5 0 1-.1 1.3-.4.3-.2.5-.6.5-1 0-.3-.1-.5-.3-.7-.2-.2-.5-.4-.9-.6-.3-.1-.5-.2-.6-.3-.1-.1-.1-.2-.1-.3 0-.1.1-.2.2-.3.1-.1.3-.1.4-.1.2 0 .4 0 .5.1l.5.2v-.9c-.1-.1-.3-.1-.5-.1-.1-.2-.2-.2-.4-.2m-4.4 3.7c-.4 0-.7-.1-.9-.4-.2-.2-.3-.6-.3-1 0-.5.1-.8.3-1.1.2-.3.5-.4.9-.4s.6.1.9.4c.2.2.3.6.3 1.1 0 .5-.1.8-.3 1.1-.2.2-.5.3-.9.3m.1-3.7c-.7 0-1.3.2-1.7.6-.4.4-.6 1-.6 1.7s.2 1.2.6 1.6c.4.4.9.6 1.6.6.7 0 1.3-.2 1.7-.6.4-.4.6-1 .6-1.7s-.2-1.2-.6-1.6c-.4-.4-.9-.6-1.6-.6m-3.9.9v-.8h-1v4.4h1v-2.2c0-.4.1-.7.3-.9.2-.2.4-.4.7-.4h.3c.1 0 .2.1.2.1v-1c-.1 0-.2-.1-.4-.1-.3 0-.5.1-.7.2-.2.2-.3.4-.4.7zm-2.9-.9c-.5 0-.9.1-1.2.3-.4.2-.6.5-.8.8-.2.4-.3.8-.3 1.3 0 .4.1.8.3 1.1.2.3.4.6.8.8.3.2.7.3 1.1.3.5 0 .9-.1 1.2-.3v-.9l-.5.3c-.2.1-.3.1-.5.1-.4 0-.7-.1-1-.4-.2-.2-.4-.6-.4-1s.1-.8.4-1.1c.2-.3.6-.4 1-.4.3 0 .7.1 1 .3v-1c-.1-.1-.3-.1-.5-.2h-.6m-3 .1h-1v4.4h1v-4.4zm-.5-1.9c-.2 0-.3.1-.4.2-.1.1-.2.3-.2.4 0 .2.1.3.2.4.1.1.3.2.4.2.2 0 .3-.1.4-.2.1-.1.2-.3.2-.4 0-.2-.1-.3-.2-.4-.1-.1-.3-.2-.4-.2m-2.6 1.6v4.7h1v-6.1h-1.4l-1.8 4.5-1.8-4.5h-1.5v6.1h1v-4.7l1.9 4.7h.7l1.9-4.7z"/><path class="st8" d="M213.4 95.8v46.9M213.4 185.7v15.3"/><path id="Content" class="st6" d="M26 40h166v312h-166z"/></svg>