<?xml version="1.0" encoding="utf-8"?>
<!-- Generator: Adobe Illustrator 19.1.0, SVG Export Plug-In . SVG Version: 6.00 Build 0)  -->
<!DOCTYPE svg PUBLIC "-//W3C//DTD SVG 1.1//EN" "http://www.w3.org/Graphics/SVG/1.1/DTD/svg11.dtd">
<svg version="1.1" id="Layer_1" xmlns="http://www.w3.org/2000/svg" xmlns:xlink="http://www.w3.org/1999/xlink" x="0px" y="0px"
	 viewBox="-38 664 300 90" style="enable-background:new -38 664 300 90;" xml:space="preserve">
<style type="text/css">
	.st0{fill:#0075FF;}
</style>
<g>
	<g>
		<path class="st0" d="M135.5,696.4c0-1.4,0.7-2.1,2.1-2.1h1.8c1.4,0,2.1,0.7,2.1,2.1v2.9l0,0.7h0.1c0.8-1.9,1.1-2.4,3.1-4.3
			c2.1-2,3.2-2.3,6.4-2.3c7.5,0,11.2,4.2,11.2,12.6v18.9c0,1.4-0.7,2.1-2.1,2.1h-2c-1.4,0-2.1-0.7-2.1-2.1v-17.4
			c0-5.3-1.3-8.2-6.2-8.2c-3.2,0-4.4,1.8-5.4,3.4c-1.4,2.2-2.7,5.3-2.7,8.7v13.6c0,1.4-0.7,2.1-2.1,2.1h-2c-1.4,0-2.1-0.7-2.1-2.1
			V696.4z"/>
		<path class="st0" d="M172.9,709.7c1.4-0.8,3-1.4,4.9-1.8c3.8-1,6.5-1.1,9.8-1.1h1.7V706c0-4.8-2.4-7.2-7.1-7.2
			c-2.5,0-4.9,0.7-7.4,2.1c-1.2,0.6-2.2,0.3-2.9-0.8l-0.5-0.9c-0.7-1.3-0.5-2.3,0.7-2.9c3.3-1.9,6.8-2.8,10.6-2.8
			c8.2,0,12.9,4.5,12.9,12.8v18.6c0,1.4-0.7,2.1-2.1,2.1h-1.6c-1.4,0-2.1-0.7-2.1-2.1V723l0.2-2h-0.1c-0.2,0.3-0.3,0.8-1.6,2.4
			c-1.6,2-4.5,4.5-9.1,4.5c-3,0-5.6-0.9-7.8-2.7c-2.1-1.8-3.2-4.1-3.2-7.1C168.1,714.2,170.3,711.2,172.9,709.7z M180.5,722.8
			c2.6,0,4.7-1.1,6.4-3.2c1.7-2.1,2.5-4.5,2.5-7.2V711h-1.7c-8.9,0-13.3,2.2-13.3,6.6C174.4,720.4,176.7,722.8,180.5,722.8z"/>
		<path class="st0" d="M206.1,698.4c3.3-3.3,7.5-4.9,12.6-4.9c4.2,0,7.8,1.2,10.8,3.5c1.1,0.7,1.2,1.7,0.4,2.9l-0.6,1
			c-0.7,1.1-1.7,1.2-2.9,0.5c-2.3-1.6-4.7-2.5-7.3-2.5c-3.3,0-6,1.1-8.2,3.3c-2.1,2.2-3.2,5-3.2,8.4c0,3.4,1.1,6.2,3.2,8.4
			c2.2,2.3,5,3.4,8.3,3.4c2.9,0,5.7-1,8.4-3c1.2-0.8,2.2-0.6,2.9,0.6l0.5,1c0.7,1.2,0.5,2.1-0.6,2.9c-3.2,2.7-7.1,4-11.7,4
			c-5.1,0-9.3-1.6-12.6-4.9c-3.2-3.2-4.9-7.3-4.9-12.3C201.2,705.8,202.8,701.7,206.1,698.4z"/>
		<path class="st0" d="M239.3,709.7c1.4-0.8,3-1.4,4.9-1.8c3.8-1,6.5-1.1,9.8-1.1h1.7V706c0-4.8-2.4-7.2-7.1-7.2
			c-2.5,0-4.9,0.7-7.4,2.1c-1.2,0.6-2.2,0.3-2.9-0.8l-0.5-0.9c-0.7-1.3-0.5-2.3,0.7-2.9c3.3-1.9,6.8-2.8,10.6-2.8
			c8.2,0,12.9,4.5,12.9,12.8v18.6c0,1.4-0.7,2.1-2.1,2.1h-1.6c-1.4,0-2.1-0.7-2.1-2.1V723l0.2-2h-0.1c-0.2,0.3-0.3,0.8-1.6,2.4
			c-1.6,2-4.5,4.5-9.1,4.5c-3,0-5.6-0.9-7.8-2.7c-2.1-1.8-3.2-4.1-3.2-7.1C234.4,714.2,236.6,711.2,239.3,709.7z M246.9,722.8
			c2.6,0,4.7-1.1,6.4-3.2c1.7-2.1,2.5-4.5,2.5-7.2V711h-1.7c-8.9,0-13.3,2.2-13.3,6.6C240.8,720.4,243.1,722.8,246.9,722.8z"/>
	</g>
	<path class="st0" d="M112.5,699.4c4.9,0,9,4.9,9,10.9s-4,10.9-9,10.9c-4.9,0-9-4.9-9-10.9S107.5,699.4,112.5,699.4 M112.5,693.3
		c-8.3,0-15,7.6-15,16.9s6.7,16.9,15,16.9s15-7.6,15-16.9S120.8,693.3,112.5,693.3L112.5,693.3z"/>
	<path class="st0" d="M87,690.3c-0.2-0.1-0.5-0.2-0.8-0.2H82c-0.8,0-1.5,0.4-1.8,1l-12,20.1c-0.4,0.7-1.4,0.7-1.8,0l-12-20.1
		c-0.4-0.6-1.1-1-1.8-1h-4.3c-0.3,0-0.6,0.1-0.8,0.2c-0.8,0.3-1.3,1.1-1.3,2v32.7c0,1.2,1,2.1,2.1,2.1h3.4c0.4,0,0.7-0.3,0.7-0.7
		v-26.8c0-0.3,0.4-0.5,0.6-0.2l11.2,18.8c1.4,2.3,4.7,2.3,6.1,0l11.2-18.8c0.2-0.3,0.6-0.2,0.6,0.2v26.8c0,0.4,0.3,0.7,0.7,0.7h3.4
		c1.2,0,2.1-1,2.1-2.1v-32.7C88.4,691.4,87.8,690.6,87,690.3z"/>
</g>
<path class="st0" d="M14.4,676.1h-39c-7.4,0-13.4,6-13.4,13.4v39c0,7.4,6,13.4,13.4,13.4h39c7.4,0,13.4-6,13.4-13.4v-39
	C27.8,682.1,21.8,676.1,14.4,676.1z M7.8,722h-25.9V696H7.8V722z"/>
</svg>
