<?xml version="1.0" encoding="utf-8"?>
<!-- Generator: Adobe Illustrator 19.1.0, SVG Export Plug-In . SVG Version: 6.00 Build 0)  -->
<!DOCTYPE svg PUBLIC "-//W3C//DTD SVG 1.1//EN" "http://www.w3.org/Graphics/SVG/1.1/DTD/svg11.dtd">
<svg version="1.1" id="Layer_1" xmlns="http://www.w3.org/2000/svg" xmlns:xlink="http://www.w3.org/1999/xlink" x="0px" y="0px"
	 viewBox="-575 347 300 80" style="enable-background:new -575 347 300 80;" xml:space="preserve">
<style type="text/css">
	.st0{fill:#ED3427;}
</style>
<g id="icn_frameworkssvg">
	<path id="path-3" class="st0" d="M-540.6,413.8c-16.3,4.7-31,0.5-33.9-10.1c-1.9-6.6,3.3-13.4,2.6-10.2c-0.4,2-0.6,4.2,0,6.1
		c2.6,9.2,16.3,13,30.4,9c14.1-4,23.7-14.6,21.1-23.7c-0.5-1.9-1.8-3.8-3.2-5.2c-2.3-2.3,5.7,0.8,7.5,7.3
		C-513.3,397.6-524.3,409.1-540.6,413.8z M-538.9,397.2c10.4-13.9,2.3-29.6,4.7-34.4c2.4-4.8,10.5-4.4,10.5-4.4
		C-532.5,367.7-519.6,387.7-538.9,397.2z M-542.8,395.5c-0.6,0.9-1.3,1.5-1.9,2c-5.3,4.5-13.2,3.8-22.7,1.3
		c4.5-5.4,1.7-12.7,2.9-19.4c1.1-6.4,7.6-12,14.9-14.1c-9,7.4-8.1,20-6.6,25c0.8,2.8,2.3,4.4,4,5.4c9.3,4.4-6.5-25.3,14.3-33.7
		C-545.1,372.6-538.3,389.2-542.8,395.5z"/>
</g>
<g>
	<path class="st0" d="M-502.8,390.1c0-6.7,1.9-12.2,5.8-16.3c3.9-4.2,8.6-6.2,14.1-6.2c4.7,0,8.5,1.5,11.5,4.6
		c3,3.1,4.4,7.2,4.4,12.3c0,3.7-0.7,7.1-2.2,10.2c-1.1,2.4-2.5,4.4-4.2,6.1c-1.7,1.7-3.5,3-5.5,4c-2.6,1.2-5.3,1.9-8.2,1.9
		c-3,0-5.8-0.7-8.2-2.2s-4.4-3.5-5.6-6C-502.2,395.7-502.8,393-502.8,390.1z M-497.9,390.3c0,2.2,0.5,4.2,1.4,6.1
		c0.9,1.9,2.3,3.3,4.1,4.3c1.8,1,3.7,1.6,5.7,1.6c1.9,0,3.8-0.5,5.5-1.4c1.8-0.9,3.3-2.2,4.7-3.8c1.4-1.6,2.5-3.7,3.3-6
		c0.8-2.4,1.2-4.7,1.2-7.1c0-3.8-1.1-6.8-3.2-9c-2.1-2.2-4.7-3.3-7.8-3.3c-3.9,0-7.4,1.7-10.5,5.1
		C-496.4,380.1-497.9,384.6-497.9,390.3z"/>
	<path class="st0" d="M-463.1,405.9l5.7-27.3h4.2l-1,4.8c1.8-1.9,3.6-3.2,5.1-4.1c1.6-0.9,3.2-1.3,4.9-1.3c2.2,0,4,0.6,5.2,1.8
		c1.3,1.2,1.9,2.8,1.9,4.8c0,1-0.2,2.6-0.7,4.8l-3.5,16.6h-4.7l3.6-17.3c0.4-1.7,0.5-2.9,0.5-3.7c0-0.9-0.3-1.6-0.9-2.2
		c-0.6-0.6-1.5-0.8-2.7-0.8c-2.4,0-4.5,0.9-6.4,2.6c-1.9,1.7-3.2,4.7-4.1,8.8l-2.7,12.7H-463.1z"/>
	<path class="st0" d="M-432,396.5l4.7-0.3c0,1.3,0.2,2.5,0.6,3.4c0.4,0.9,1.2,1.7,2.3,2.3c1.1,0.6,2.4,0.9,3.9,0.9
		c2.1,0,3.6-0.4,4.6-1.2c1-0.8,1.5-1.8,1.5-2.9c0-0.8-0.3-1.6-0.9-2.3c-0.6-0.7-2.2-1.6-4.6-2.7c-2.5-1.1-4-1.8-4.7-2.2
		c-1.1-0.7-2-1.5-2.6-2.5c-0.6-1-0.9-2-0.9-3.3c0-2.2,0.9-4,2.6-5.6c1.7-1.5,4.1-2.3,7.2-2.3c3.4,0,6,0.8,7.8,2.4
		c1.8,1.6,2.7,3.7,2.8,6.3l-4.6,0.3c-0.1-1.6-0.7-3-1.8-3.9c-1.1-1-2.7-1.4-4.7-1.4c-1.6,0-2.9,0.4-3.8,1.1
		c-0.9,0.7-1.3,1.5-1.3,2.4c0,0.9,0.4,1.6,1.2,2.3c0.5,0.4,1.8,1.1,4,2.1c3.6,1.5,5.8,2.8,6.7,3.7c1.5,1.4,2.2,3.2,2.2,5.2
		c0,1.4-0.4,2.7-1.2,4c-0.8,1.3-2.1,2.3-3.8,3.1c-1.7,0.8-3.7,1.2-6,1.2c-3.2,0-5.8-0.8-8.1-2.3C-431,402.6-432.1,400-432,396.5z"/>
	<path class="st0" d="M-383.7,396.6l4.5,0.5c-0.7,2.2-2.1,4.4-4.5,6.4c-2.3,2-5.1,3-8.4,3c-2,0-3.9-0.5-5.6-1.4
		c-1.7-0.9-3-2.3-3.9-4.1c-0.9-1.8-1.3-3.8-1.3-6.1c0-3,0.7-5.9,2.1-8.7c1.4-2.8,3.2-4.9,5.4-6.3c2.2-1.4,4.6-2,7.1-2
		c3.3,0,5.9,1,7.8,3c1.9,2,2.9,4.8,2.9,8.3c0,1.3-0.1,2.7-0.4,4.1H-398c-0.1,0.5-0.1,1-0.1,1.4c0,2.6,0.6,4.5,1.8,5.9
		c1.2,1.3,2.6,2,4.3,2c1.6,0,3.2-0.5,4.7-1.6C-385.8,400.1-384.6,398.5-383.7,396.6z M-397.3,389.8h15.3c0-0.5,0-0.8,0-1
		c0-2.3-0.6-4.1-1.8-5.4c-1.2-1.2-2.7-1.9-4.5-1.9c-2,0-3.8,0.7-5.4,2.1C-395.2,385-396.5,387-397.3,389.8z"/>
	<path class="st0" d="M-374.8,405.9l5.7-27.3h4.2l-1,4.8c1.8-1.9,3.6-3.2,5.1-4.1c1.6-0.9,3.2-1.3,4.9-1.3c2.2,0,4,0.6,5.2,1.8
		c1.3,1.2,1.9,2.8,1.9,4.8c0,1-0.2,2.6-0.7,4.8l-3.5,16.6h-4.7l3.6-17.3c0.4-1.7,0.5-2.9,0.5-3.7c0-0.9-0.3-1.6-0.9-2.2
		c-0.6-0.6-1.5-0.8-2.7-0.8c-2.4,0-4.5,0.9-6.4,2.6c-1.9,1.7-3.2,4.7-4.1,8.8l-2.7,12.7H-374.8z"/>
	<path class="st0" d="M-325.4,368.1h7.7l-4.3,20.5l-1.1,5c-0.1,0.4-0.1,0.8-0.1,1.2c0,1.5,0.5,2.7,1.6,3.7c1.1,1,2.7,1.5,4.7,1.5
		c1.9,0,3.4-0.4,4.6-1.1c1.2-0.7,2.2-1.8,2.8-3.1c0.7-1.4,1.3-3.7,2-7.1l4.3-20.6h7.7l-4.3,20.6c-0.9,4.3-2,7.7-3.1,10
		c-1.2,2.3-3,4.2-5.4,5.6c-2.4,1.4-5.4,2.2-9.1,2.2c-4.4,0-7.8-1.1-10.1-3.2c-2.3-2.2-3.5-4.9-3.5-8.3c0-0.7,0.1-1.5,0.2-2.3
		c0.1-0.5,0.4-2.1,0.9-4.7L-325.4,368.1z"/>
	<path class="st0" d="M-290.6,405.9l7.9-37.7h7.7l-7.9,37.7H-290.6z"/>
</g>
</svg>
