<svg xmlns="http://www.w3.org/2000/svg" viewBox="0 0 283 152" enable-background="new 0 0 283 152"><style type="text/css">.st0{opacity:0.9;} .st1{fill:#FFFFFF;}</style><path class="st1" d="M39.6 2c21.2 0 37.1 10.9 37.1 33.4 0 22.4-15.9 34.9-37.1 34.9h-14.9v40.3h-24.7v-108.6h39.6zm-7.9 48.5c9.7 0 19-3.3 19-14.3 0-11.2-9.2-14.5-19-14.5h-7v28.8h7zm154.1 22.8c-5.9 27.5-28.8 39.2-50.1 39.2-29.2 0-52.9-25.1-52.9-56.2 0-31.2 22.4-56.3 52.9-56.3 19.1 0 32.4 7.1 41.9 18.6l-16.2 17.8c-6.3-10.1-14.6-14-24.2-14-15.3 0-27.6 15.1-27.6 34 0 18.4 12.4 33.4 27.6 33.4 11.8 0 23.6-7.6 23.6-20.9h-25v-19.1h50.1v23.5zm42.4-71.3c29.8 0 54.8 22.6 54.8 54.2 0 31.7-24.9 54.4-54.8 54.4h-31.5v-108.6h31.5zm-2.9 86.5c18.3 0 30.8-14 30.9-32.1 0-18.2-12.5-32.2-30.9-32.2h-3.8v64.4h3.8zM8.5 129.7c0-.1.1-.1.1-.1h1c.1 0 .1 0 .1.1v14c0 4.1-1.9 4.8-3.8 4.8-.6 0-1.1-.1-1.5-.2-.1-.1-.1-.1-.1-.2v-.9c0-.1.1-.1.1-.1.4.2 1 .3 1.4.3 1.8 0 2.6-1 2.6-3.8v-13.9zm7.9 10.9l-2.3 6.4c0 .1-.1.1-.2.1h-1c-.1 0-.1-.1-.1-.2l6-16.6c.1-.1.1-.3.1-.7 0-.1.1-.1.1-.1h1.5c.1 0 .1 0 .1.1l6.3 17.3c0 .1 0 .2-.1.2h-1.1c-.1 0-.1 0-.2-.1l-2.3-6.4h-6.8zm6.7-1.1c-.6-1.7-2.7-7.3-3.2-9-.4 1.5-2 5.7-3.1 9h6.3zm7.3 7.6c-.1 0-.2 0-.2-.2v-17.3c0-.1 0-.1.1-.1h1.5l.2.1c2.6 4.3 8.4 14 9.7 16.1-.1-.6-.1-1.9-.1-3.9v-12.2c0-.1.1-.1.2-.1h.9c.1 0 .1.1.1.2v17.3c0 .1 0 .2-.2.2h-1.4c-.1 0-.2 0-.2-.1-1-1.8-9.1-15.1-9.7-16.4.1.7.1 2.1.1 4.3v12c0 .1-.1.2-.1.2h-.9zm21.9 0c-.1 0-.1-.1-.1-.2v-.6c0-.1 0-.1.1-.2.9-.9 3.2-3.1 5.2-5.4 2.1-2.3 3-4.3 3-6.4 0-2.2-1.2-4-3.7-4-1.4 0-2.7.5-3.8 1.3-.1.1-.1 0-.1-.1v-.9c0-.1 0-.1.1-.2 1.1-.8 2.5-1.2 4-1.2 3.3 0 4.7 2.4 4.7 5 0 2.3-.7 4.3-3.2 7-1.7 1.9-3.4 3.7-4.5 4.8h8.7c.1 0 .1 0 .1.1l-.2.8c0 .1-.1.1-.2.1h-10.1zm14.6-.8c0-.1.1-.1.1-.1 4.6-.1 7.3-3 7.9-7.2-1.2 1-2.9 1.4-4.3 1.4-3.3 0-5.3-2.2-5.3-5.5 0-3.1 2.1-5.6 5.5-5.6s5.5 2.7 5.5 7.4c0 7.3-4.4 10.6-9.3 10.7-.1 0-.1-.1-.1-.2v-.9zm8.1-8.5c.1-.5.1-1 .1-1.2 0-3.7-1.4-6.3-4.3-6.3-2.6 0-4.2 1.9-4.2 4.6 0 3 2.1 4.4 4.3 4.4 1.7 0 3.2-.5 4.1-1.5zm2.7 13.4c-.1 0-.2 0-.1-.1 1.2-2.2 1.6-4 1.5-6.2 0-.1 0-.1.1-.1h.9c.1 0 .1 0 .2.2.2 2.3-.4 4.5-1.5 6.2 0 .1-.1.1-.1.1h-1zm11.2-4.1c-.1 0-.1-.1-.1-.2v-.6c0-.1 0-.1.1-.2.9-.9 3.2-3.1 5.2-5.4 2.1-2.3 3-4.3 3-6.4 0-2.2-1.2-4-3.7-4-1.4 0-2.7.5-3.8 1.3-.1.1-.1 0-.1-.1v-.9c0-.1 0-.1.1-.2 1.1-.8 2.5-1.2 4-1.2 3.3 0 4.7 2.4 4.7 5 0 2.3-.7 4.3-3.2 7-1.7 1.9-3.4 3.7-4.5 4.8h8.7c.1 0 .1 0 .1.1l-.2.8c0 .1-.1.1-.2.1h-10.1zm13.2-8.8c0-4.6 1.6-9 5.4-9 4.5 0 5.3 5.5 5.3 9 0 4.1-1 9.1-5.2 9.1-3.9 0-5.5-4.4-5.5-9.1zm1.3 0c0 4.2 1.3 8.1 4.3 8.1s3.9-3.8 3.9-8c0-4.9-1.3-8-4.1-8-2.5-.1-4.1 2.9-4.1 7.9zm17-7.4c-.9.6-2.5 1.2-3.4 1.4-.1 0-.2 0-.2-.1v-.8c0-.1 0-.1.1-.2 1.4-.4 2.8-1.1 3.6-1.6.1-.1.2-.1.3-.1h.7c.1 0 .1.1.1.1v16.4h3.5c.1 0 .1 0 .2.1v.8c0 .1 0 .2-.1.2h-8.4c-.1 0-.1 0-.1-.2v-.8c0-.1.1-.1.2-.1h3.6v-15.1zm17.7-.6c0 .1 0 .1-.1.1-4.7-.1-7.6 2.6-8.3 7.5 1.1-1 2.6-1.7 4.5-1.7 3.1 0 5.1 2.4 5.1 5.5s-1.9 5.7-5.4 5.7c-3.4 0-5.5-2.9-5.5-7.4 0-6 3.2-10.7 9.7-10.7.1 0 .1.1.1.1v.9zm-8.5 8.8v.9c0 4.2 1.9 6.4 4.3 6.4 2.5 0 4.1-1.9 4.1-4.6 0-2.8-1.8-4.5-4.2-4.5-1.3-.1-3 .5-4.2 1.8zm20.3 0c1.1 0 1.7.8 1.7 1.7s-.6 1.7-1.7 1.7-1.7-.7-1.7-1.7.6-1.7 1.7-1.7zm12 8c-.1 0-.2-.1-.2-.2v-17.2c0-.1 0-.2.1-.2h1c.1 0 .1.1.1.1v16.4h8.4c.1 0 .1.1.1.1l-.2.8c0 .1-.1.1-.2.1h-9.1zm22.2-.1c0 .1-.1.1-.2.1h-9.4c-.2 0-.2-.1-.2-.2v-17.2c0-.1 0-.2.2-.2h8.9c.1 0 .1 0 .2.1l.1.8c0 .1 0 .2-.1.2h-8v7h7c.1 0 .1 0 .1.1v.8c0 .1-.1.1-.1.1h-7v7.4h8.6c.1 0 .1 0 .1.1l-.2.9zm14.8.1c-.1 0-.1 0-.1-.1v-8.2h-10.1v8.2c0 .1 0 .2-.1.2h-1c-.1 0-.1-.1-.1-.2v-17.3c0-.1 0-.1.1-.1h1c.1 0 .1.1.1.1v8h10.1v-8c0-.1 0-.2.1-.2h1c.1 0 .1.1.1.2v17.3c0 .1-.1.1-.1.1h-1zm7.1-.1c0 .1 0 .2-.1.2h-1c-.1 0-.2 0-.2-.2v-17.3c0-.1.1-.2.1-.2h1c.1 0 .1.1.1.1v17.4zm2.7 4.2c-.1 0-.2 0-.1-.1 1.2-2.2 1.6-4 1.5-6.2 0-.1 0-.1.1-.1h.9c.1 0 .1 0 .2.2.2 2.3-.4 4.5-1.5 6.2 0 .1-.1.1-.1.1h-1zm13.5-10.1c0 3.3 2 5.2 5.1 5.2 2.2 0 5-1 5-5.4v-11.2c0-.1 0-.1.1-.1h1c.1 0 .1.1.1.1v11.4c0 4.5-2.8 6.3-6.3 6.3-3.7 0-6.3-2-6.3-6.2v-11.5c0-.1 0-.1.1-.1h1c.1 0 .1 0 .1.1v11.4zm20.1-10.5h-6c-.1 0-.1-.1-.1-.2l.2-.8c0-.1.1-.1.2-.1h12.7c.1 0 .2.1.2.1l.1.8c0 .1 0 .2-.1.2h-6v16.4c0 .1-.1.2-.2.2h-1c-.1 0-.1 0-.1-.2v-16.4zm10 10l-2.3 6.4c0 .1-.1.1-.2.1h-1c-.1 0-.1-.1-.1-.2l6-16.6c.1-.1.1-.3.1-.7 0-.1.1-.1.1-.1h1.5c.1 0 .1 0 .1.1l6.3 17.3c0 .1 0 .2-.1.2h-1.1c-.1 0-.1 0-.2-.1l-2.3-6.4h-6.8zm6.7-1.1c-.6-1.7-2.7-7.3-3.2-9-.4 1.5-2 5.7-3.1 9h6.3zm18.6 7.6c-.1 0-.1 0-.1-.1v-8.2h-10.1v8.2c0 .1 0 .2-.1.2h-1c-.1 0-.1-.1-.1-.2v-17.3c0-.1 0-.1.1-.1h1c.1 0 .1.1.1.1v8h10.1v-8c0-.1 0-.2.1-.2h1c.1 0 .1.1.1.2v17.3c0 .1-.1.1-.1.1h-1z"/></svg>