<svg xmlns="http://www.w3.org/2000/svg" viewBox="0 0 283 152"><defs><style>.a{opacity:0.9;isolation:isolate;}.b{fill:#fff;}</style></defs><title>Artboard 1</title><g class="a"><path class="b" d="M40.25,11.73c21.07,0,36.91,10.92,36.91,33.43S61.32,80,40.25,80H25.46v40.28H.85V11.73ZM32.39,60.3C42.08,60.3,51.24,57,51.24,46S42.08,31.47,32.39,31.47H25.46V60.3Z"/><path class="b" d="M185.65,83.07c-5.89,27.51-28.66,39.22-49.86,39.22-29.05,0-52.61-25.14-52.61-56.2S105.42,9.76,135.79,9.76c19,0,32.19,7.11,41.62,18.56l-16.1,17.77c-6.28-10.14-14.53-14-24.08-14-15.18,0-27.48,15.14-27.48,34,0,18.43,12.3,33.43,27.48,33.43,11.78,0,23.43-7.63,23.43-20.93H135.79V59.51h49.86Z"/><path class="b" d="M227.8,11.73c29.58,0,54.44,22.64,54.44,54.23s-24.74,54.36-54.44,54.36H196.52V11.73Zm-2.88,86.48c18.19,0,30.63-14,30.76-32.12s-12.43-32.25-30.76-32.25h-3.79V98.21Z"/></g><g class="a"><path class="b" d="M15.53,135.91c0,5.17-3,8-6.92,8-4.46,0-7.09-3.39-7.09-8,0-4.87,3.05-7.88,7-7.88C12.84,128.07,15.51,131.46,15.53,135.91Zm-6.92,7c3.65,0,5.75-2.81,5.75-7,0-3.92-2.36-6.84-5.87-6.84-3.15,0-5.8,2.34-5.8,6.84C2.7,139.64,4.72,142.89,8.61,142.89Z"/><path class="b" d="M29.07,143.31a.18.18,0,0,1-.12.19,8.22,8.22,0,0,1-3.13.44c-3.58,0-8-2-8-8,0-4.62,3.29-7.86,8.23-7.86a7.36,7.36,0,0,1,3,.42c.07,0,.1.07.1.16v.9c0,.12-.07.12-.12.07a7.11,7.11,0,0,0-3.05-.53c-4.08,0-7,2.67-7,6.8,0,5.66,4.39,7,6.9,7a7.82,7.82,0,0,0,3-.42c.07,0,.14,0,.14.07Z"/><path class="b" d="M36.11,129.32H30.72c-.07,0-.12,0-.1-.14l.19-.79c0-.07,0-.12.14-.12h11.5c.1,0,.12,0,.14.12l.12.79c0,.09,0,.14-.1.14H37.26v14.24a.12.12,0,0,1-.14.14h-.86c-.1,0-.14,0-.14-.14Z"/><path class="b" d="M51.91,143.7c-.1,0-.12,0-.12-.12V130a11.61,11.61,0,0,1-3.15,1.35c-.07,0-.12,0-.12-.09v-.77c0-.09,0-.12.07-.14a13.63,13.63,0,0,0,3.32-1.53.47.47,0,0,1,.29-.09h.67s.07,0,.07.12v14.73c0,.09,0,.12-.1.12Z"/><path class="b" d="M59.21,143.7c-.1,0-.12,0-.12-.12V130a11.61,11.61,0,0,1-3.15,1.35c-.07,0-.12,0-.12-.09v-.77c0-.09,0-.12.07-.14a13.63,13.63,0,0,0,3.32-1.53.47.47,0,0,1,.29-.09h.67s.07,0,.07.12v14.73c0,.09,0,.12-.1.12Z"/><path class="b" d="M75.9,135.65A23.21,23.21,0,0,1,80,140.43c1.19,1.74,1.86,2.44,2.89,2.44a2.68,2.68,0,0,0,.79-.12c.07,0,.12,0,.12.09v.74a.17.17,0,0,1-.12.19,2,2,0,0,1-1,.16c-1.15,0-2-.3-3.65-2.9a18.48,18.48,0,0,0-4.92-5.33,3.7,3.7,0,0,0-3.63,3.59c0,1.83,1.46,3.57,4,3.57a6.07,6.07,0,0,0,2.89-.58c.1,0,.12,0,.12.09v.83c0,.09,0,.12-.12.16a6.64,6.64,0,0,1-3,.56c-2.82,0-5.06-1.72-5.06-4.57,0-2.37,1.74-3.94,3.94-4.5a4.63,4.63,0,0,1-2-3.39c0-2.27,1.84-3.43,4-3.43a4.92,4.92,0,0,1,2.55.51.21.21,0,0,1,.1.19v.86c0,.12-.07.12-.14.07a5,5,0,0,0-2.53-.6c-1.62,0-2.86.7-2.86,2.39,0,1.32,1.19,2.46,2.34,3.18h7.8c.1,0,.12,0,.1.14l-.17.79a.13.13,0,0,1-.14.09Z"/><path class="b" d="M93.42,143.7c-.1,0-.12,0-.12-.12V130a11.61,11.61,0,0,1-3.15,1.35c-.07,0-.12,0-.12-.09v-.77c0-.09,0-.12.07-.14a13.64,13.64,0,0,0,3.32-1.53.47.47,0,0,1,.29-.09h.67s.07,0,.07.12v14.73c0,.09,0,.12-.1.12Z"/><path class="b" d="M97.52,143.7c-.1,0-.12,0-.12-.12V143c0-.09,0-.12.1-.16,1-.81,2.86-2.39,4.75-4.24,2.22-2.18,2.84-3.71,2.84-5.45a3.21,3.21,0,0,0-3.44-3.48,6.32,6.32,0,0,0-3.56,1.11c-.1,0-.17,0-.17-.07v-.86c0-.09,0-.09.12-.16a6.88,6.88,0,0,1,3.75-1.07,4.17,4.17,0,0,1,4.46,4.45c0,1.83-.67,3.57-3,5.87-1.62,1.65-3.22,3-4.15,3.8.74,0,1.38-.07,4-.07h3.82c.07,0,.12,0,.1.12l-.21.79c0,.09-.07.12-.17.12Z"/><path class="b" d="M108.38,147.37c-.1,0-.14,0-.1-.12a10.74,10.74,0,0,0,1.07-5.61c0-.09,0-.12.1-.12h.88c.1,0,.12,0,.12.14a10.11,10.11,0,0,1-1.15,5.61s0,.09-.12.09Z"/><path class="b" d="M117.52,143.7c-.1,0-.12,0-.12-.12V143c0-.09,0-.12.1-.16,1-.81,2.86-2.39,4.75-4.24,2.22-2.18,2.84-3.71,2.84-5.45a3.21,3.21,0,0,0-3.44-3.48,6.32,6.32,0,0,0-3.56,1.11c-.1,0-.17,0-.17-.07v-.86c0-.09,0-.09.12-.16a6.88,6.88,0,0,1,3.75-1.07,4.17,4.17,0,0,1,4.46,4.45c0,1.83-.67,3.57-3,5.87-1.62,1.65-3.22,3-4.15,3.8.74,0,1.38-.07,4-.07h3.82c.07,0,.12,0,.1.12l-.21.79c0,.09-.07.12-.17.12Z"/><path class="b" d="M128.86,136.26c0-4.1,1.58-7.63,4.92-7.63,4.13,0,4.87,4.52,4.87,7.63,0,3.59-.91,7.68-4.8,7.68C130.29,143.93,128.86,140.43,128.86,136.26Zm1.12,0c0,3.71,1.24,6.7,3.89,6.7s3.63-2.83,3.63-6.63c0-4.31-1.38-6.66-3.77-6.66C131.63,129.62,130,131.8,130,136.21Z"/><path class="b" d="M143.49,143.7c-.1,0-.12,0-.12-.12V130a11.63,11.63,0,0,1-3.15,1.35c-.07,0-.12,0-.12-.09v-.77c0-.09,0-.12.07-.14a13.62,13.62,0,0,0,3.32-1.53.47.47,0,0,1,.29-.09h.67s.07,0,.07.12v14.73c0,.09,0,.12-.1.12Z"/><path class="b" d="M156.57,128.83c.07,0,.07,0,.07.09v.6a.53.53,0,0,1,0,.25c-2,4.29-4.46,9.56-6.51,13.8,0,.09-.07.12-.14.12h-1c-.07,0-.09,0-.07-.12,3.13-6.19,6.09-12.62,6.63-13.71h-8.19c-.07,0-.07,0-.07-.12l.17-.86s0-.07.1-.07Z"/><path class="b" d="M165.81,136.44a1.44,1.44,0,0,1,1.53,1.51,1.42,1.42,0,0,1-1.53,1.48,1.5,1.5,0,1,1,0-3Z"/><path class="b" d="M176.84,143.7c-.07,0-.14,0-.14-.14V128.39c0-.07,0-.12.12-.12h1.38a.16.16,0,0,1,.17.09c2.41,3.78,7.85,12.27,8.92,14.13h0c0-.58-.07-1.6-.07-3.43V128.39c0-.07,0-.12.14-.12h.86c.1,0,.12,0,.12.14v15.14c0,.09,0,.14-.14.14h-1.31c-.09,0-.14,0-.19-.12-.91-1.55-8.38-13.1-9-14.36h0c0,.65.09,1.92.09,3.87v10.46c0,.12,0,.14-.09.14Z"/><path class="b" d="M201.54,143.59c0,.09,0,.12-.14.12h-8.66c-.14,0-.17,0-.17-.16v-15.1c0-.12,0-.16.14-.16H201a.13.13,0,0,1,.14.12l.12.79c0,.09,0,.14-.12.14h-7.4v6h6.66c.1,0,.12,0,.12.12v.79c0,.12,0,.14-.12.14h-6.66v6.33h7.9c.1,0,.12,0,.1.12Z"/><path class="b" d="M217.36,142.61h0c.36-1.28,1.26-4.55,3.82-14.24a.13.13,0,0,1,.14-.09h.93c.1,0,.12,0,.1.12l-4.25,15.19c0,.09,0,.12-.17.12h-1.24c-.12,0-.14,0-.19-.12-.69-2.71-3.22-12.52-3.63-14.24h0c-.36,1.76-3.29,11.71-4,14.22a.16.16,0,0,1-.17.14h-1.19c-.09,0-.12,0-.17-.14l-4.18-15.17c0-.07,0-.12.09-.12h1a.16.16,0,0,1,.17.09c2.79,10.51,3.58,13.29,3.77,14.24h0c.26-1.09,1.22-4.06,4-14.24a.18.18,0,0,1,.17-.09h1.22c.07,0,.1,0,.12.12C214.9,133.13,216.22,138,217.36,142.61Z"/><path class="b" d="M228.32,128.39c-.07-.07,0-.12.07-.12h1.05c.09,0,.12,0,.14.07,3.37,5.59,4.46,7.42,4.87,8.21.41-.77,1.48-2.6,4.84-8.19a.12.12,0,0,1,.12-.09h1.05c.07,0,.09,0,0,.09l-5.39,8.91a.81.81,0,0,0-.17.51v5.77c0,.12,0,.14-.1.14H234c-.14,0-.14,0-.14-.14v-5.8a.73.73,0,0,0-.14-.49Z"/><path class="b" d="M255.22,135.91c0,5.17-3,8-6.92,8-4.46,0-7.09-3.39-7.09-8,0-4.87,3.05-7.88,7-7.88C252.52,128.07,255.19,131.46,255.22,135.91Zm-6.92,7c3.65,0,5.75-2.81,5.75-7,0-3.92-2.36-6.84-5.87-6.84-3.15,0-5.8,2.34-5.8,6.84C242.38,139.64,244.41,142.89,248.3,142.89Z"/><path class="b" d="M258.42,143.7c-.07,0-.12,0-.12-.12V128.46c0-.09,0-.16.12-.16.84,0,2.27-.07,3.63-.07,3.22,0,5.63,1.34,5.63,4.29a4.24,4.24,0,0,1-3.48,4.1c.81,1.14,4.34,6.12,4.87,6.93.07.07,0,.14,0,.14h-1.07a.2.2,0,0,1-.19-.09c-.79-1.11-3.08-4.41-4.44-6.33-.17-.25-.29-.35-.53-.35h-3.36v6.66c0,.09,0,.12-.1.12Zm4-7.77c2.55,0,4.08-1.44,4.08-3.36s-1.48-3.34-4.56-3.34c-1,0-2,0-2.55.07v6.63Z"/><path class="b" d="M272.38,143.56c0,.12,0,.14-.12.14h-.88c-.12,0-.14,0-.14-.16V128.39c0-.07,0-.12.12-.12h.91c.1,0,.12,0,.12.14Zm9.4-15.28c.09,0,.12.09,0,.16l-7.52,7.28c-.07,0-.07.09,0,.14l8.16,7.68c0,.07,0,.16-.07.16h-1.19a.26.26,0,0,1-.24-.12L272.9,136c-.12-.09-.1-.19,0-.28l7.57-7.37a.23.23,0,0,1,.21-.12Z"/></g></svg>