<?xml version="1.0" encoding="utf-8"?>
<!-- Generator: Adobe Illustrator 21.0.0, SVG Export Plug-In . SVG Version: 6.00 Build 0)  -->
<svg version="1.1" id="Layer_1" xmlns="http://www.w3.org/2000/svg" xmlns:xlink="http://www.w3.org/1999/xlink" x="0px" y="0px"
	 viewBox="0 0 283 152" style="enable-background:new 0 0 283 152;" xml:space="preserve">
<style type="text/css">
	.st0{opacity:0.9;}
	.st1{fill:#FFFFFF;}
</style>
<g>
	<g class="st0">
		<g>
			<path class="st1" d="M40.5,5.6c21.1,0,37,10.9,37,33.3c0,22.3-15.9,34.8-37,34.8H25.7v40.1H1V5.6H40.5z M32.6,54
				c9.7,0,18.9-3.3,18.9-14.3c0-11.1-9.2-14.4-18.9-14.4h-7V54H32.6z"/>
			<path class="st1" d="M186.2,76.7c-5.9,27.4-28.7,39.1-50,39.1c-29.1,0-52.7-25.1-52.7-56c0-31.1,22.3-56.1,52.7-56.1
				c19,0,32.3,7.1,41.7,18.5l-16.1,17.7c-6.3-10.1-14.6-13.9-24.1-13.9c-15.2,0-27.5,15.1-27.5,33.8c0,18.4,12.3,33.3,27.5,33.3
				c11.8,0,23.5-7.6,23.5-20.9h-24.9v-19h50V76.7z"/>
			<path class="st1" d="M228.4,5.6c29.6,0,54.6,22.6,54.6,54c0,31.6-24.8,54.2-54.6,54.2h-31.3V5.6H228.4z M225.6,91.8
				c18.2,0,30.7-13.9,30.8-32c0-18.1-12.5-32.1-30.8-32.1h-3.8v64.1H225.6z"/>
		</g>
	</g>
	<g class="st0">
		<g>
			<path class="st1" d="M15,135.7c0,5.9-3.3,8.9-7.4,8.9c-4.7,0-7.6-3.6-7.6-8.9c0-5.6,3.3-8.8,7.5-8.8
				C12.1,126.9,15,130.6,15,135.7z M7.6,143.6c3.9,0,6.2-3.1,6.2-7.9c0-4.6-2.6-7.7-6.3-7.7c-3.3,0-6.2,2.6-6.2,7.7
				C1.2,140,3.4,143.6,7.6,143.6z"/>
			<path class="st1" d="M30.1,143.8c0,0.1,0,0.2-0.1,0.2c-0.8,0.4-2.2,0.6-3.7,0.6c-3.7,0-8.4-2.2-8.4-9c0-5.1,3.4-8.7,8.6-8.7
				c1.7,0,3.2,0.3,3.7,0.6c0.1,0,0.1,0.1,0.1,0.2v1c0,0.1-0.1,0.1-0.1,0.1c-0.6-0.4-1.9-0.8-3.7-0.8c-4.3,0-7.4,2.9-7.4,7.6
				c0,6.4,4.6,7.9,7.3,7.9c1.3,0,2.6-0.2,3.6-0.6c0.1,0,0.1,0,0.1,0.1V143.8z"/>
			<path class="st1" d="M38.1,128.3h-5.9c-0.1,0-0.1-0.1-0.1-0.2l0.2-0.8c0-0.1,0.1-0.1,0.2-0.1h12.4c0.1,0,0.2,0,0.2,0.1l0.1,0.8
				c0,0.1,0,0.2-0.1,0.2h-5.8v16c0,0.1-0.1,0.2-0.2,0.2h-0.9c-0.1,0-0.1,0-0.1-0.2V128.3z"/>
			<path class="st1" d="M57.6,128.5c-0.9,0.6-2.4,1.2-3.3,1.4c-0.1,0-0.2,0-0.2-0.1V129c0-0.1,0-0.1,0.1-0.2c1.4-0.4,2.7-1,3.5-1.6
				c0.1-0.1,0.2-0.1,0.3-0.1h0.7c0,0,0.1,0,0.1,0.1v16h3.4c0.1,0,0.1,0,0.2,0.1v0.8c0,0.1,0,0.2-0.1,0.2H54c-0.1,0-0.1,0-0.1-0.2
				v-0.8c0-0.1,0.1-0.1,0.2-0.1h3.5V128.5z"/>
			<path class="st1" d="M65.4,144.4c-0.1,0-0.1-0.1-0.1-0.2v-0.6c0-0.1,0-0.1,0.1-0.2c0.9-0.8,3.1-3,5.1-5.3c2-2.3,3-4.2,3-6.3
				c0-2.1-1.2-3.9-3.7-3.9c-1.4,0-2.6,0.5-3.7,1.3c-0.1,0.1-0.1,0-0.1-0.1v-0.9c0-0.1,0-0.1,0.1-0.2c1.1-0.8,2.4-1.2,4-1.2
				c3.2,0,4.6,2.4,4.6,4.9c0,2.2-0.7,4.2-3.1,6.8c-1.6,1.9-3.4,3.7-4.4,4.7c1.6,0,3.2,0,4.8,0h3.7c0,0,0.1,0,0.1,0.1l-0.2,0.8
				c0,0.1-0.1,0.1-0.2,0.1H65.4z"/>
			<path class="st1" d="M77.5,148.4c-0.1,0-0.2,0-0.1-0.1c1.2-2.1,1.6-4,1.4-6.1c0-0.1,0-0.1,0.1-0.1h0.9c0.1,0,0.1,0,0.2,0.2
				c0.2,2.2-0.4,4.4-1.5,6.1c0,0.1,0,0.1-0.1,0.1H77.5z"/>
			<path class="st1" d="M88.4,144.4c-0.1,0-0.1-0.1-0.1-0.2v-0.6c0-0.1,0-0.1,0.1-0.2c0.9-0.8,3.1-3,5.1-5.3c2-2.3,3-4.2,3-6.3
				c0-2.1-1.2-3.9-3.7-3.9c-1.4,0-2.6,0.5-3.7,1.3c-0.1,0.1-0.1,0-0.1-0.1v-0.9c0-0.1,0-0.1,0.1-0.2c1.1-0.8,2.4-1.2,4-1.2
				c3.2,0,4.6,2.4,4.6,4.9c0,2.2-0.7,4.2-3.1,6.8c-1.6,1.9-3.4,3.7-4.4,4.7c1.6,0,3.2,0,4.8,0h3.7c0,0,0.1,0,0.1,0.1l-0.2,0.8
				c0,0.1-0.1,0.1-0.2,0.1H88.4z"/>
			<path class="st1" d="M101.3,135.7c0-4.5,1.6-8.8,5.3-8.8c4.4,0,5.2,5.4,5.2,8.8c0,4-0.9,8.9-5.1,8.9
				C102.9,144.6,101.3,140.4,101.3,135.7z M102.5,135.7c0,4.1,1.3,7.9,4.2,7.9s3.9-3.7,3.9-7.8c0-4.8-1.3-7.8-4-7.8
				C104.1,127.9,102.5,130.8,102.5,135.7z"/>
			<path class="st1" d="M119.2,128.5c-0.9,0.6-2.4,1.2-3.3,1.4c-0.1,0-0.2,0-0.2-0.1V129c0-0.1,0-0.1,0.1-0.2c1.4-0.4,2.7-1,3.5-1.6
				c0.1-0.1,0.2-0.1,0.3-0.1h0.7c0,0,0.1,0,0.1,0.1v16h3.4c0.1,0,0.1,0,0.2,0.1v0.8c0,0.1,0,0.2-0.1,0.2h-8.2c-0.1,0-0.1,0-0.1-0.2
				v-0.8c0-0.1,0.1-0.1,0.2-0.1h3.5V128.5z"/>
			<path class="st1" d="M137.2,127.2c0.1,0,0.1,0,0.1,0.1v0.6c0,0.1,0,0.2-0.1,0.3c-2.1,4.9-4.8,11.2-7.1,16.1
				c0,0.1-0.1,0.1-0.2,0.1h-1c-0.1,0-0.1-0.1-0.1-0.2c5.4-11.6,6.7-14.8,7.2-16H127c-0.1,0-0.1,0-0.1-0.1l0.1-0.8
				c0-0.1,0-0.1,0.1-0.1H137.2z"/>
			<path class="st1" d="M148.1,136.5c1.1,0,1.6,0.8,1.6,1.6c0,0.9-0.6,1.6-1.6,1.6c-1.1,0-1.7-0.7-1.7-1.6
				C146.4,137.2,147,136.5,148.1,136.5z"/>
			<path class="st1" d="M159.8,144.4c-0.1,0-0.2,0-0.2-0.2v-16.9c0-0.1,0-0.1,0.1-0.1h1.5c0.1,0,0.1,0,0.2,0.1
				c2.5,4.2,8.3,13.7,9.5,15.8h0c0-0.6-0.1-1.8-0.1-3.8v-12c0-0.1,0-0.1,0.2-0.1h0.9c0.1,0,0.1,0.1,0.1,0.2v16.9
				c0,0.1,0,0.2-0.2,0.2h-1.4c-0.1,0-0.2,0-0.2-0.1c-1-1.8-8.9-14.8-9.5-16h0c0,0.7,0.1,2.1,0.1,4.2v11.8c0,0.1-0.1,0.2-0.1,0.2
				H159.8z"/>
			<path class="st1" d="M186.2,144.3c0,0.1-0.1,0.1-0.2,0.1h-9.2c-0.2,0-0.2-0.1-0.2-0.2v-16.8c0-0.1,0-0.2,0.2-0.2h8.7
				c0.1,0,0.1,0,0.2,0.1l0.1,0.8c0,0.1,0,0.2-0.1,0.2h-7.9v6.8h6.9c0.1,0,0.1,0,0.1,0.1v0.8c0,0.1,0,0.1-0.1,0.1h-6.9v7.2h8.4
				c0.1,0,0.1,0,0.1,0.1L186.2,144.3z"/>
			<path class="st1" d="M203.4,143.2L203.4,143.2c0.4-1.4,1.4-5.4,4.1-15.9c0-0.1,0-0.1,0.2-0.1h1c0.1,0,0.1,0,0.1,0.1l-4.5,16.9
				c0,0.1-0.1,0.1-0.2,0.1h-1.3c-0.1,0-0.2,0-0.2-0.1c-0.8-3-3.4-14.2-3.9-16h0c-0.4,1.9-3.5,13.3-4.3,16c0,0.1-0.1,0.2-0.2,0.2
				h-1.3c-0.1,0-0.2-0.1-0.2-0.2l-4.4-16.9c0-0.1,0-0.1,0.1-0.1h1c0.1,0,0.1,0,0.2,0.1c3,11.5,3.8,14.9,4,15.9h0
				c0.3-1.1,1.3-4.8,4.3-15.9c0-0.1,0.1-0.1,0.2-0.1h1.3c0.1,0,0.1,0,0.1,0.1L203.4,143.2z"/>
			<path class="st1" d="M215.9,127.3c-0.1-0.1,0-0.2,0.1-0.2h1.1c0.1,0,0.1,0,0.1,0.1c3.5,6.1,4.7,8.3,5.1,9.2
				c0.4-0.8,1.6-3,5.1-9.1c0-0.1,0.1-0.1,0.2-0.1h1.1c0.1,0,0.1,0,0.1,0.1l-5.7,9.8c-0.1,0.2-0.2,0.4-0.2,0.6c0,2,0,6.5,0,6.5
				c0,0.1,0,0.2-0.1,0.2h-0.9c-0.2,0-0.2-0.1-0.2-0.2v-6.5c0-0.2,0-0.3-0.2-0.5L215.9,127.3z"/>
			<path class="st1" d="M245.2,135.7c0,5.9-3.3,8.9-7.4,8.9c-4.7,0-7.6-3.6-7.6-8.9c0-5.6,3.3-8.8,7.5-8.8
				C242.2,126.9,245.2,130.6,245.2,135.7z M237.8,143.6c3.9,0,6.2-3.1,6.2-7.9c0-4.6-2.6-7.7-6.3-7.7c-3.3,0-6.2,2.6-6.2,7.7
				C231.4,140,233.5,143.6,237.8,143.6z"/>
			<path class="st1" d="M249,144.4c-0.1,0-0.2,0-0.2-0.1v-16.9c0-0.1,0-0.2,0.1-0.2c0.9,0,2.3-0.1,4-0.1c3.3,0,5.8,1.4,5.8,4.6
				c0,2.6-1.7,4.1-4,4.6c1,1.2,5.7,7.1,6.2,7.8c0.1,0.1,0,0.2,0,0.2h-1.2c-0.1,0-0.2,0-0.2-0.1c-0.8-1-4.1-5.3-5.7-7.3
				c-0.2-0.3-0.4-0.4-0.8-0.4H250v7.6c0,0.1-0.1,0.1-0.1,0.1H249z M252.9,135.6c3.3,0,4.6-1.7,4.6-3.8c0-2.2-1.5-3.7-4.6-3.7
				c-1.8,0-2.7,0-2.8,0v7.4H252.9z"/>
			<path class="st1" d="M263.7,144.4c-0.1,0-0.2-0.1-0.2-0.2v-16.9c0-0.1,0-0.1,0.2-0.1h0.9c0.1,0,0.1,0,0.1,0.2v7.8h1
				c0.4,0,0.5,0,0.8-0.3c1.9-2.1,4.8-5.3,6.9-7.5c0.1-0.1,0.1-0.1,0.2-0.1h1.1c0.1,0,0.1,0.1,0.1,0.2c-2.2,2.4-5.3,5.9-7.5,8.2
				c-0.1,0-0.1,0.1,0,0.2c2.6,2.6,6,6,8.5,8.5c0.1,0.1,0.1,0.2-0.1,0.2h-1.3c-0.1,0-0.2,0-0.3-0.1c-2.3-2.3-5.6-5.6-7.8-7.8
				c-0.3-0.3-0.4-0.3-0.8-0.3h-0.9v8c0,0.1,0,0.2-0.1,0.2H263.7z"/>
		</g>
	</g>
</g>
</svg>
