<?xml version="1.0" encoding="utf-8"?>
<!-- Generator: Adobe Illustrator 19.1.0, SVG Export Plug-In . SVG Version: 6.00 Build 0)  -->
<!DOCTYPE svg PUBLIC "-//W3C//DTD SVG 1.1//EN" "http://www.w3.org/Graphics/SVG/1.1/DTD/svg11.dtd">
<svg version="1.1" id="Layer_1" xmlns="http://www.w3.org/2000/svg" xmlns:xlink="http://www.w3.org/1999/xlink" x="0px" y="0px"
	 viewBox="-498 325 283 100" style="enable-background:new -498 325 283 100;" xml:space="preserve">
<style type="text/css">
	.st0{fill:#FFFFFF;}
</style>
<path class="st0" d="M-469.8,329.3c12.8,0,22.4,6.6,22.4,20.2c0,13.5-9.6,21.1-22.4,21.1h-9V395h-15v-65.7H-469.8z M-474.6,358.7
	c5.9,0,11.4-2,11.4-8.7c0-6.8-5.6-8.8-11.4-8.8h-4.2v17.5H-474.6z M-381.3,372.4c-3.6,16.6-17.5,23.7-30.4,23.7
	c-17.7,0-32.1-15.2-32.1-34s13.5-34.1,32.1-34.1c11.5,0,19.6,4.3,25.3,11.2l-9.8,10.8c-3.8-6.1-8.9-8.5-14.7-8.5
	c-9.2,0-16.7,9.2-16.7,20.5c0,11.1,7.5,20.2,16.7,20.2c7.2,0,14.3-4.7,14.3-12.7h-15.1v-11.4h30.4L-381.3,372.4L-381.3,372.4z
	 M-355.7,329.3c18,0,33.1,13.7,33.1,32.8c0,19.2-15,32.9-33.1,32.9h-19v-65.7H-355.7z M-357.4,381.6c11.1,0,18.6-8.5,18.7-19.5
	c0-11-7.6-19.5-18.7-19.5h-2.3v38.9L-357.4,381.6L-357.4,381.6z M-278.3,342.4h-22.6v13.1h21.7v13.1h-21.7v13.3h22.6V395H-316v-65.7
	h37.6V342.4z M-219.2,371.7c0,16.3-8.9,24.5-25.6,24.5s-25.6-8.3-25.6-24.5v-42.4h15v38c0,11,3.4,14.2,10.7,14.2
	c7.3,0,10.7-3.2,10.7-14.2v-38h15V371.7z M-491.4,402.8h1.5c0.1,0,0.1,0.1,0.2,0.1c0.8,2.4,4.4,12.4,5,14.1l0,0
	c0.5-1.8,4.3-11.8,5.1-14.1c0.1-0.1,0.1-0.2,0.2-0.2h1.4c0.1,0,0.1,0,0.1,0.1l1,15.3c0,0.1-0.1,0.1-0.1,0.1h-0.9
	c-0.1,0-0.2,0-0.2-0.1c-0.3-5.6-0.8-13.4-0.8-14.7l0,0c-0.6,1.9-4.3,11.9-5.3,14.7c-0.1,0.1-0.1,0.1-0.2,0.1h-0.9
	c-0.2,0-0.2-0.1-0.2-0.1c-1.5-4.1-4.5-12.8-5.1-14.7l0,0c0,1.7-0.5,9.9-0.8,14.7c0,0.1-0.1,0.1-0.2,0.1h-0.8c-0.1,0-0.1,0-0.1-0.1
	L-491.4,402.8C-491.6,402.8-491.5,402.8-491.4,402.8z M-471.4,412.6l-2.1,5.6c0,0.1-0.1,0.1-0.2,0.1h-0.8c-0.1,0-0.1-0.1-0.1-0.2
	l5.3-14.7c0.1-0.1,0.1-0.2,0.1-0.6c0-0.1,0.1-0.1,0.1-0.1h1.3c0.1,0,0.1,0,0.1,0.1l5.6,15.3c0,0.1,0,0.2-0.1,0.2h-0.9
	c-0.1,0-0.1,0-0.2-0.1l-2.1-5.6L-471.4,412.6L-471.4,412.6z M-465.5,411.6c-0.5-1.5-2.4-6.5-2.8-8l0,0c-0.4,1.3-1.8,5-2.7,8H-465.5z
	 M-462.4,402.9c-0.1-0.1,0-0.2,0.1-0.2h1c0.1,0,0.1,0.1,0.1,0.1c3.1,5.5,4.3,7.5,4.7,8.3c0.4-0.8,1.5-2.7,4.7-8.2
	c0-0.1,0.1-0.1,0.2-0.1h1c0.1,0,0.1,0.1,0.1,0.1l-5.2,8.9c-0.1,0.2-0.2,0.3-0.2,0.5c0,1.8,0,5.9,0,5.9c0,0.1-0.1,0.2-0.1,0.2h-0.8
	c-0.2,0-0.2-0.1-0.2-0.2v-5.9c0-0.2,0-0.3-0.2-0.5L-462.4,402.9z M-439.3,403.9c-0.8,0.5-2.2,1.1-3,1.2c-0.1,0-0.2,0-0.2-0.1v-0.7
	c0-0.1,0-0.1,0.1-0.2c1.3-0.3,2.4-0.9,3.1-1.5c0.1-0.1,0.2-0.1,0.3-0.1h0.6c0.1,0,0.1,0.1,0.1,0.1v14.5h3.1c0.1,0,0.1,0,0.2,0.1v0.7
	c0,0.1,0,0.2-0.1,0.2h-7.4c-0.1,0-0.1,0-0.1-0.2v-0.7c0-0.1,0.1-0.1,0.2-0.1h3.1V403.9z M-430.9,417.6c0-0.1,0.1-0.1,0.2-0.1
	c4-0.1,6.5-2.7,7-6.4c-1.1,0.9-2.5,1.2-3.8,1.2c-2.9,0-4.7-2-4.7-4.8c0-2.7,1.9-5,4.8-5c3,0,4.9,2.4,4.9,6.6c0,6.4-3.9,9.4-8.2,9.5
	c-0.1,0-0.2-0.1-0.2-0.2V417.6z M-423.7,410.1c0.1-0.4,0.1-0.9,0.1-1c0-3.3-1.3-5.6-3.8-5.6c-2.3,0-3.7,1.7-3.7,4
	c0,2.7,1.8,3.9,3.8,3.9C-425.9,411.4-424.6,411-423.7,410.1z M-421.3,422C-421.4,422-421.4,422-421.3,422c1-2,1.4-3.7,1.2-5.6
	c0-0.1,0-0.1,0.1-0.1h0.8c0.1,0,0.1,0,0.2,0.2c0.2,2-0.3,4-1.4,5.5c0,0.1-0.1,0.1-0.1,0.1L-421.3,422L-421.3,422z M-411.4,418.4
	c-0.1,0-0.1-0.1-0.1-0.2v-0.5c0-0.1,0-0.1,0.1-0.2c0.8-0.8,2.8-2.7,4.6-4.8c1.8-2.1,2.7-3.8,2.7-5.6c0-1.9-1.1-3.6-3.3-3.6
	c-1.3,0-2.4,0.4-3.4,1.1c-0.1,0.1-0.1,0-0.1-0.1v-0.8c0-0.1,0-0.1,0.1-0.2c1-0.7,2.2-1.1,3.6-1.1c2.9,0,4.2,2.1,4.2,4.4
	c0,2-0.7,3.7-2.8,6.2c-1.5,1.7-3.1,3.3-4,4.2c1.5,0,2.9,0,4.4,0h3.4c0.1,0,0.1,0,0.1,0.1l-0.2,0.8c0,0.1-0.1,0.1-0.2,0.1
	L-411.4,418.4L-411.4,418.4z M-399.7,410.5c0-4.1,1.5-7.9,4.8-7.9c4,0,4.7,4.9,4.7,7.9c0,3.6-0.8,8-4.7,8
	C-398.3,418.6-399.7,414.7-399.7,410.5z M-398.6,410.5c0,3.7,1.1,7.2,3.7,7.2s3.5-3.4,3.5-7.1c0-4.4-1.2-7.1-3.7-7.1
	C-397.2,403.5-398.6,406.1-398.6,410.5z M-383.6,403.9c-0.8,0.5-2.2,1.1-3,1.2c-0.1,0-0.2,0-0.2-0.1v-0.7c0-0.1,0-0.1,0.1-0.2
	c1.3-0.3,2.4-0.9,3.1-1.5c0.1-0.1,0.2-0.1,0.3-0.1h0.6c0.1,0,0.1,0.1,0.1,0.1v14.5h3.1c0.1,0,0.1,0,0.2,0.1v0.7c0,0.1,0,0.2-0.1,0.2
	h-7.4c-0.1,0-0.1,0-0.1-0.2v-0.7c0-0.1,0.1-0.1,0.2-0.1h3.1V403.9L-383.6,403.9z M-367.9,403.5
	C-367.9,403.6-367.9,403.6-367.9,403.5c-4.3,0-6.8,2.4-7.4,6.7c1-0.9,2.3-1.5,4-1.5c2.7,0,4.5,2.1,4.5,4.9s-1.7,5-4.8,5
	c-3.1,0-4.9-2.6-4.9-6.6c0-5.3,2.9-9.5,8.5-9.5c0.1,0,0.1,0.1,0.1,0.1V403.5L-367.9,403.5z M-375.4,411.2c0,0.2,0,0.3,0,0.8
	c0,3.7,1.7,5.6,3.8,5.6c2.2,0,3.7-1.7,3.7-4c0-2.4-1.6-4-3.7-4C-372.9,409.6-374.3,410-375.4,411.2z M-357.4,411.2
	c1,0,1.5,0.7,1.5,1.5c0,0.8-0.5,1.5-1.5,1.5c-1,0-1.5-0.7-1.5-1.5C-358.9,411.9-358.4,411.2-357.4,411.2z M-345,412.6l-2.1,5.6
	c0,0.1-0.1,0.1-0.2,0.1h-0.8c-0.1,0-0.2-0.1-0.1-0.2l5.3-14.7c0.1-0.1,0.1-0.2,0.1-0.6c0-0.1,0.1-0.1,0.1-0.1h1.3
	c0.1,0,0.1,0,0.1,0.1l5.6,15.3c0,0.1,0,0.2-0.1,0.2h-0.9c-0.1,0-0.1,0-0.2-0.1l-2.1-5.6L-345,412.6L-345,412.6z M-339.1,411.6
	c-0.5-1.5-2.4-6.5-2.8-8l0,0c-0.4,1.3-1.8,5-2.7,8H-339.1z M-331.8,402.8h1.5c0.1,0,0.1,0.1,0.2,0.1c0.8,2.4,4.4,12.4,5,14.1l0,0
	c0.5-1.8,4.3-11.8,5.1-14.1c0.1-0.1,0.1-0.2,0.2-0.2h1.4c0.1,0,0.1,0,0.1,0.1l1,15.3c0,0.1-0.1,0.1-0.1,0.1h-0.9
	c-0.1,0-0.2,0-0.2-0.1c-0.3-5.6-0.8-13.4-0.8-14.7l0,0c-0.6,1.9-4.3,11.9-5.3,14.7c-0.1,0.1-0.1,0.1-0.2,0.1h-0.9
	c-0.2,0-0.2-0.1-0.2-0.1c-1.5-4.1-4.5-12.8-5.1-14.7l0,0c0,1.7-0.5,9.9-0.8,14.7c0,0.1-0.1,0.1-0.2,0.1h-0.8c-0.1,0-0.1,0-0.1-0.1
	L-331.8,402.8L-331.8,402.8z M-314.6,417.5c-0.1-0.1-0.1-0.1-0.1-0.2v-0.9c0-0.1,0.1-0.1,0.2-0.1c1.2,0.9,2.7,1.3,3.9,1.3
	c2.5,0,3.7-1.4,3.7-3s-0.8-2.4-3.1-3.6l-1-0.5c-2.6-1.2-3.3-2.5-3.3-4.2c0.1-2.3,1.8-3.8,4.5-3.8c1.5,0,2.6,0.4,3.2,0.8
	c0.1,0.1,0.1,0.1,0.1,0.2v0.8c0,0.1-0.1,0.2-0.2,0.1c-0.8-0.5-1.9-0.9-3.2-0.9c-2.7,0-3.4,1.8-3.4,2.7c0,1.5,0.7,2.4,2.8,3.4
	l1.3,0.6c2.7,1.2,3.4,2.5,3.4,4.3c0,2.2-1.6,4.1-4.9,4.1C-312.4,418.6-313.7,418.1-314.6,417.5z M-299.1,403.8h-5.3
	c-0.1,0-0.1-0.1-0.1-0.2l0.2-0.7c0-0.1,0.1-0.1,0.2-0.1h11.2c0.1,0,0.2,0.1,0.2,0.1l0.1,0.7c0,0.1,0,0.2-0.1,0.2h-5.3v14.4
	c0,0.1-0.1,0.2-0.2,0.2h-0.8c-0.1,0-0.1,0-0.1-0.2V403.8L-299.1,403.8z M-281.6,418.2c0,0.1-0.1,0.1-0.2,0.1h-8.3
	c-0.2,0-0.2-0.1-0.2-0.2v-15.2c0-0.1,0-0.2,0.2-0.2h7.9c0.1,0,0.1,0,0.2,0.1l0.2,0.7c0,0.1,0,0.2-0.1,0.2h-7.1v6.2h6.3
	c0.1,0,0.1,0,0.1,0.1v0.8c0,0.1-0.1,0.1-0.1,0.1h-6.2v6.6h7.6c0.1,0,0.1,0,0.1,0.1L-281.6,418.2z M-278.6,418.4
	c-0.1,0-0.2,0-0.2-0.1V403c0-0.1,0-0.2,0.1-0.2c0.8,0,2.1-0.1,3.6-0.1c3,0,5.2,1.3,5.2,4.2c0,2.4-1.5,3.7-3.7,4.2
	c0.9,1.1,5.1,6.5,5.6,7.1c0.1,0.1,0,0.2-0.1,0.2h-1.1c-0.1,0-0.2,0-0.2-0.1c-0.8-0.9-3.7-4.8-5.2-6.6c-0.2-0.2-0.3-0.3-0.7-0.3h-2.6
	v6.9c0,0.1-0.1,0.1-0.2,0.1L-278.6,418.4L-278.6,418.4z M-275,410.4c3,0,4.1-1.5,4.1-3.4c0-2-1.4-3.3-4.2-3.3c-1.7,0-2.4,0-2.5,0
	v6.7H-275z M-265.4,402.9c0-0.1,0-0.2,0.1-0.2c0.7,0,2.1-0.1,4-0.1c5.3,0,7.7,3.2,7.7,7.6c0,6.4-4.6,8.1-8.2,8.1
	c-1.6,0-2.8-0.1-3.4-0.1c-0.1,0-0.1-0.1-0.1-0.2L-265.4,402.9L-265.4,402.9z M-264.3,417.4c0.3,0,1.4,0.1,2.4,0.1
	c4.4,0,7.1-2.3,7.1-7.1c0-4.5-2.7-6.7-6.6-6.7c-1.5,0-2.7,0-2.9,0.1V417.4z M-248.6,412.6l-2.1,5.6c0,0.1-0.1,0.1-0.2,0.1h-0.8
	c-0.1,0-0.2-0.1-0.1-0.2l5.3-14.7c0.1-0.1,0.1-0.2,0.1-0.6c0-0.1,0.1-0.1,0.1-0.1h1.3c0.1,0,0.1,0,0.2,0.1l5.6,15.3
	c0,0.1,0,0.2-0.1,0.2h-0.9c-0.1,0-0.1,0-0.2-0.1l-2.1-5.6L-248.6,412.6L-248.6,412.6z M-242.7,411.6c-0.5-1.5-2.4-6.5-2.8-8l0,0
	c-0.4,1.3-1.8,5-2.7,8H-242.7z M-235.5,402.8h1.5c0.1,0,0.2,0.1,0.2,0.1c0.8,2.4,4.4,12.4,5,14.1l0,0c0.5-1.8,4.3-11.8,5.1-14.1
	c0.1-0.1,0.1-0.2,0.2-0.2h1.4c0.1,0,0.1,0,0.2,0.1l1,15.3c0,0.1-0.1,0.1-0.1,0.1h-0.9c-0.2,0-0.2,0-0.2-0.1
	c-0.3-5.6-0.8-13.4-0.8-14.7l0,0c-0.6,1.9-4.3,11.9-5.3,14.7c-0.1,0.1-0.1,0.1-0.2,0.1h-0.9c-0.2,0-0.2-0.1-0.2-0.1
	c-1.5-4.1-4.5-12.8-5.1-14.7l0,0c0,1.7-0.5,9.9-0.8,14.7c0,0.1-0.1,0.1-0.2,0.1h-0.8c-0.1,0-0.1,0-0.1-0.1L-235.5,402.8
	C-235.5,402.8-235.5,402.8-235.5,402.8z"/>
</svg>
