<?xml version="1.0" encoding="utf-8"?>
<!-- Generator: Adobe Illustrator 19.1.0, SVG Export Plug-In . SVG Version: 6.00 Build 0)  -->
<!DOCTYPE svg PUBLIC "-//W3C//DTD SVG 1.1//EN" "http://www.w3.org/Graphics/SVG/1.1/DTD/svg11.dtd">
<svg version="1.1" id="Layer_1" xmlns="http://www.w3.org/2000/svg" xmlns:xlink="http://www.w3.org/1999/xlink" x="0px" y="0px"
	 viewBox="-149 66 980 670" style="enable-background:new -149 66 980 670;" xml:space="preserve">
<style type="text/css">
	.st0{opacity:0.1;}
</style>
<symbol  id="build-bot" viewBox="-42.3 -37.1 84.7 74.3">
	<path class="st0" d="M-4.3,7.9l-13.6,6.8c-0.2,0.1-0.3,0.4-0.2,0.7c0.1,0.2,0.4,0.3,0.7,0.2l13.7-6.8l21.1,10.6
		c0.2,0.1,0.5,0,0.7-0.2c0.1-0.2,0-0.5-0.2-0.7L-3.3,7.9V3.3c0-0.3-0.2-0.5-0.5-0.5S-4.3,3-4.3,3.3C-4.3,3.3-4.3,7.9-4.3,7.9z
		 M0.2,28.9L-19,19.2l-0.2-0.1c0,0-0.2,0-0.2,0.1l-3.8,1.9c-0.2,0.1-0.3,0.3-0.3,0.4s0.1,0.4,0.3,0.4L-4,31.5c0.1,0.1,0.3,0.1,0.4,0
		l3.8-1.9c0.2-0.1,0.3-0.3,0.3-0.4S0.4,28.9,0.2,28.9z M-1.1,29.3l-2.7,1.4l-18.1-9l2.7-1.4C-19.2,20.3-1.1,29.3-1.1,29.3z
		 M-30.8-7.6l-2,1c-0.2,0.1-0.5,0-0.7-0.2c-0.1-0.2,0-0.5,0.2-0.7l2-1l0.2-0.1c0.2,0,0.4,0.1,0.4,0.3C-30.4-8-30.5-7.7-30.8-7.6z
		 M-19.4,16.5l-1.7,0.8c-0.2,0.1-0.5,0-0.7-0.2c-0.1-0.2,0-0.5,0.2-0.7l1.7-0.8l0.2-0.1c0.2,0,0.4,0.1,0.4,0.3
		C-19.1,16.1-19.2,16.4-19.4,16.5z M35.5-0.3l-0.3-0.1l6.1-3c0.7-0.3,1.1-1,1.1-1.8V-9c0-0.8-0.4-1.5-1.1-1.8l-5.8-2.9
		c-0.3-0.1-0.6-0.2-0.9-0.2c-0.3,0-0.6,0.1-0.9,0.2L26-10l-1,0.5c-0.1-0.6-0.5-1.2-1.1-1.4L-2.9-24.4c-0.3-0.1-0.6-0.2-0.9-0.2
		s-0.6,0.1-0.9,0.2l-3.8,1.9h-0.1l-2-1l-0.3-0.1l6.1-3c0.7-0.3,1.1-1,1.1-1.8v-3.8c0-0.8-0.4-1.5-1.1-1.8l-5.8-2.9
		c-0.3-0.1-0.6-0.2-0.9-0.2c-0.3,0-0.6,0.1-0.9,0.2l-7.7,3.8l-21.1,10.6c-0.7,0.3-1.1,1-1.1,1.8v17.3c0,0.8,0.4,1.5,1.1,1.8l5.8,2.9
		c0.3,0.1,0.6,0.2,0.9,0.2s0.6-0.1,0.9-0.2l4.8-2.4v4.2l-2.7,1.4c-0.7,0.3-1.1,1-1.1,1.8v15.4c0,0.8,0.4,1.5,1.1,1.8L-4.6,37
		c0.3,0.1,0.6,0.2,0.9,0.2s0.6-0.1,0.9-0.2L24,23.4c0.7-0.3,1.1-1,1.1-1.8V18l8.5-4.3l7.7-3.8c0.7-0.3,1.1-1,1.1-1.8V4.3
		c0-0.8-0.4-1.5-1.1-1.8C41.3,2.5,35.5-0.3,35.5-0.3z M-39.9-20.3l20.1-10.1v16.2l-9.5,4.8c-0.2,0.1-0.3,0.4-0.2,0.7
		c0.1,0.2,0.4,0.3,0.7,0.2l9.6-4.8l4.6,2.3l-7.5,3.8l-4.8,2.4L-34.6-1l-4.6-2.3l2.5-1.2c0.2-0.1,0.3-0.4,0.2-0.7
		c-0.1-0.2-0.3-0.3-0.4-0.3c-0.1,0-0.2,0-0.2,0.1l-2.7,1.3L-39.9-20.3L-39.9-20.3z M-22-6.2l1.7,2.6c0.7,1,0.4,2.3-0.6,3
		c-1,0.6-2.3,0.3-3-0.6l-2-3L-22-6.2z M-6.3-31.9v2.7l-0.9-0.4l-0.2-0.1c-0.2,0-0.4,0.1-0.4,0.3c-0.1,0.2,0,0.5,0.2,0.7l0.7,0.3
		l-6.6,3.3l-4.6-2.3l0.8-0.4c0.2-0.1,0.3-0.4,0.2-0.7c-0.1-0.2-0.3-0.3-0.4-0.3s-0.2,0-0.2,0.1l-0.9,0.5v-2.7l6.7-3.3v2.7l-4.1,2
		c-0.2,0.1-0.3,0.4-0.2,0.7c0.1,0.2,0.4,0.3,0.7,0.2l4.1-2.1l2.4,1.2c0.2,0.1,0.5,0,0.7-0.2c0.1-0.2,0-0.5-0.2-0.7l-2.3-1.2v-2.7
		C-10.8-34.3-6.3-31.9-6.3-31.9z M-14-21l-4.8,2.4v-8l4.8,2.4C-14-24.2-14-21-14-21z M-10.1-20.3l2.9,1.4l0.9,0.5v2.7L-7-16.1
		l-0.2-0.1c-0.2,0-0.4,0.1-0.4,0.3c-0.1,0.2,0,0.5,0.2,0.7l0.6,0.3l-6.6,3.3l-4.6-2.3l1.8-0.9c0.2-0.1,0.3-0.4,0.2-0.7
		c-0.1-0.2-0.3-0.3-0.4-0.3s-0.2,0-0.2,0.1l-2,1v-2.7l4.8-2.4l1.6-0.8l0.3-0.2v2.7l-2.2,1.1c-0.2,0.1-0.3,0.4-0.2,0.7
		c0.1,0.2,0.4,0.3,0.7,0.2l2.2-1.1l2.1,1c0.2,0.1,0.5,0,0.7-0.2c0.1-0.2,0-0.5-0.2-0.7l-2-1v-2.7C-10.8-20.8-10.1-20.3-10.1-20.3z
		 M-8.2-5.6l-18.2,9.1v-6.7l1.7,2.5c0.6,0.9,1.6,1.4,2.6,1.4c0.6,0,1.2-0.2,1.7-0.5c1.4-1,1.8-2.9,0.9-4.4l-1.7-2.5l7.9-3.9h0.1
		l5-2.5C-8.2-13.1-8.2-5.6-8.2-5.6z M22.6-5.4V5.4l-25.9-13V-11c0-0.3-0.2-0.5-0.5-0.5s-0.5,0.2-0.5,0.5V1c0,0.3,0.2,0.5,0.5,0.5
		S-3.3,1.2-3.3,1v-1.6L-0.2,1l6.7,3.4l5.8,2.9l6.7,3.4l3.6,1.8V21l-1.7-0.9L20.7,20c-0.2,0-0.4,0.1-0.4,0.3c-0.1,0.2,0,0.5,0.2,0.7
		l1.6,0.8L-3.8,34.5l-25.8-12.9l4.2-2.1c0.2-0.1,0.3-0.4,0.2-0.7c-0.1-0.2-0.3-0.3-0.4-0.3s-0.2,0-0.2,0.1l-4.4,2.2V6.6l3.5-1.8
		l0.3-0.1l18.9-9.5c0.2-0.1,0.3-0.3,0.3-0.4v-8.3l1.6-0.8h0.1v-4.1c0-0.2-0.1-0.4-0.3-0.4L-7.2-20v-0.3l2.8-1.4v8.1
		c0,0.3,0.2,0.5,0.5,0.5s0.5-0.2,0.5-0.5v-8.1l25.9,13v3.3L22.6-5.4z M39.9-5.6L32.7-2L28-4.3l0.9-0.4c0.2-0.1,0.3-0.4,0.2-0.7
		c-0.1-0.2-0.3-0.3-0.4-0.3s-0.2,0-0.2,0.1l-1.1,0.5v-2.7l3.9-2l2.8-1.4v2.7l-3.5,1.7c-0.2,0.1-0.3,0.4-0.2,0.7
		c0.1,0.2,0.4,0.3,0.7,0.2l3.5-1.8l1.9,1c0.2,0.1,0.5,0,0.7-0.2c0.1-0.2,0-0.5-0.2-0.7l-1.9-0.9v-2.7l4.8,2.4
		C39.9-8.8,39.9-5.6,39.9-5.6z M12,1.3v4.6L7.2,3.5v-4.6L12,1.3z M-3.3-6.4L-0.5-5v4.6l-2.8-1.4V-6.4z M0.5,0.2v-4.6l5.7,2.9V3
		C6.2,3,0.5,0.2,0.5,0.2z M13,1.8l5.7,2.9v4.6L13,6.4C13,6.4,13,1.8,13,1.8z M19.7,5.1l2.8,1.4v4.7l-2.8-1.4
		C19.7,9.8,19.7,5.1,19.7,5.1z M39.9,4.6v3.2l-7.2,3.6L28,9.1l1.1-0.6c0.2-0.1,0.3-0.4,0.2-0.7c-0.1-0.2-0.3-0.3-0.4-0.3
		s-0.2,0-0.2,0.1l-1.3,0.7V5.6l6.7-3.3V5l-3,1.5c-0.2,0.1-0.3,0.4-0.2,0.7c0.1,0.2,0.4,0.3,0.7,0.2l3.1-1.5l1.9,1
		c0.2,0.1,0.5,0,0.7-0.2c0.1-0.2,0-0.5-0.2-0.7l-2-1V2.2C35.1,2.2,39.9,4.6,39.9,4.6z M23.6,11.4l3.3-1.7l4.6,2.3l-8,4v-4.6H23.6z
		 M32.2,2.1l-4.8,2.4v-8l4.8,2.4C32.2-1.1,32.2,2.1,32.2,2.1z M23.6-5.9l2.8-1.4V8.8l-2.8,1.4C23.6,10.2,23.6-5.9,23.6-5.9z"/>
</symbol>
<symbol  id="fire-hdx" viewBox="-61.7 -42.5 123.4 85">
	<path class="st0" d="M55.4,42.5H-55.4c-3.5,0-6.3-2.8-6.3-6.3v-72.4c0-3.5,2.8-6.3,6.3-6.3H55.4c3.5,0,6.3,2.8,6.3,6.3v72.4
		C61.7,39.7,58.9,42.5,55.4,42.5z M57.9,36.2v-72.4c0-1.4-1.1-2.5-2.5-2.5H-55.4c-1.4,0-2.5,1.1-2.5,2.5v72.4c0,1.4,1.1,2.5,2.5,2.5
		H55.4C56.8,38.7,57.9,37.6,57.9,36.2z M50.3-32H-50.3v63.3H50.3V-32z M-49.3-31h98.5v61.3h-98.5V-31z M50.3-32H-50.3v63.3H50.3V-32
		z M-49.3-31h98.5v61.3h-98.5V-31z M0.9,35.1c0-0.5-0.4-0.9-0.9-0.9s-0.9,0.4-0.9,0.9S-0.5,36,0,36S0.9,35.6,0.9,35.1z"/>
</symbol>
<symbol  id="galaxy" viewBox="-20.3 -39.2 40.5 78.3">
	<path class="st0" d="M-7,33.3c0.3,0,0.6,0.2,0.8,0.4c0.2-0.2,0.5-0.4,0.8-0.4c0.4,0,0.7,0.2,0.8,0.5c0.2-0.6,0.7-1,1.4-1H3
		c0.8,0,1.5,0.7,1.5,1.5S3.8,35.8,3,35.8h-6.2c-0.6,0-1.2-0.4-1.4-0.9c-0.2,0.3-0.5,0.5-0.9,0.5c-0.3,0-0.6-0.2-0.8-0.4
		c-0.2,0.2-0.5,0.4-0.8,0.4c-0.6,0-1-0.5-1-1C-8.1,33.8-7.6,33.3-7,33.3z M-3.2,34.8H3c0.3,0,0.5-0.2,0.5-0.5S3.3,33.8,3,33.8h-6.2
		c-0.3,0-0.5,0.2-0.5,0.5S-3.5,34.8-3.2,34.8z M8.5,33.1c0.7,0,1.2,0.5,1.2,1.2s-0.5,1.2-1.2,1.2S7.3,35,7.3,34.3S7.8,33.1,8.5,33.1
		z M8.7,34.3c0-0.1-0.1-0.2-0.2-0.2s-0.2,0.1-0.2,0.2C8.3,34.6,8.7,34.6,8.7,34.3z M12.8,38.7C8.5,39,4.1,39.1-0.1,39.1
		c-4.3,0-8.6-0.1-12.9-0.4c-4.1,0-7.3-3.3-7.3-7.4v-62.7c0-4.1,3.3-7.4,7.3-7.4c4.3-0.3,8.7-0.4,13-0.4s8.6,0.1,12.9,0.4
		c4.1,0,7.3,3.3,7.3,7.4v62.7C20.1,35.4,16.9,38.7,12.8,38.7z M18.1-31.3c0-3-2.4-5.4-5.4-5.4C8.5-37,4.2-37.1-0.1-37.1
		S-8.7-37-13-36.7c-3,0-5.4,2.4-5.4,5.4v62.7c0,3,2.4,5.4,5.4,5.4c4.3,0.2,8.6,0.3,12.9,0.3s8.6-0.1,12.9-0.4c3,0,5.4-2.4,5.4-5.4
		L18.1-31.3L18.1-31.3z M11.2-33.2c0-0.3-0.2-0.5-0.5-0.5H9.5v0.2h1.2c0.2,0,0.4,0.2,0.4,0.4s-0.2,0.4-0.4,0.4H10v-0.2l-0.7,0.2
		c0,0-0.1,0-0.1,0.1s0.1,0.1,0.1,0.1l0.7,0.2v-0.2h0.7C11-32.7,11.2-32.9,11.2-33.2z M-16.7-29.5h33.3v58.9h-33.3V-29.5z
		 M-15.7,28.3h31.3v-56.9h-31.3V28.3z M2.4-30.8h-4.8c-1.3,0-2.3-1-2.3-2.3c0-1.3,1-2.3,2.3-2.3h4.8c1.3,0,2.3,1,2.3,2.3
		C4.7-31.8,3.7-30.8,2.4-30.8z M2.4-34.4h-4.8c-0.7,0-1.3,0.6-1.3,1.3s0.6,1.3,1.3,1.3h4.8c0.7,0,1.3-0.6,1.3-1.3S3.1-34.4,2.4-34.4
		z M-9.3-32.4v-0.9c0,0,0-0.1-0.1-0.1h-0.1v0.9H-11v0.1c0,0,0,0.1,0.1,0.1h1.5L-9.3-32.4z M-9.7-32.6h-1.7c0,0-0.1,0-0.1-0.1v-0.9
		c0,0,0-0.1,0.1-0.1h1.7c0,0,0.1,0,0.1,0.1v0.8L-9.7-32.6z M-9.8-32.9v-0.6h-1.5v0.7h1.5C-9.8-32.8-9.8-32.9-9.8-32.9z"/>
</symbol>
<symbol  id="htc-one" viewBox="-20.6 -39.8 41.2 79.6">
	<path class="st0" d="M12.7,39.8h-25.4c-4.3,0-7.9-3.5-7.9-7.9v-63.8c0-4.3,3.5-7.9,7.9-7.9h25.4c4.3,0,7.9,3.5,7.9,7.9v63.8
		C20.6,36.2,17,39.8,12.7,39.8z M18.6-31.9c0-3.2-2.6-5.9-5.9-5.9h-25.4c-3.2,0-5.9,2.6-5.9,5.9v63.8c0,3.2,2.6,5.9,5.9,5.9h25.4
		c3.2,0,5.9-2.6,5.9-5.9C18.6,31.9,18.6-31.9,18.6-31.9z M12.7,37.2h-25.4c-2.9,0-5.3-2.4-5.3-5.3v-63.8c0-2.9,2.4-5.3,5.3-5.3h25.4
		c2.9,0,5.3,2.4,5.3,5.3v63.8C18,34.8,15.6,37.2,12.7,37.2z M12.7-36.2h-25.4c-2.2,0-4.1,1.7-4.3,3.9h34
		C16.8-34.5,15-36.2,12.7-36.2z M8.1,33.2c-0.2,0-0.3,0.1-0.3,0.3s0.1,0.3,0.3,0.3c0.2,0,0.3-0.1,0.3-0.3S8.3,33.2,8.1,33.2z
		 M-16.7-31.3v62.2h33.3v-62.2H-16.7z M17,31.9H9c0.5,0.3,0.9,0.9,0.9,1.6c0,1-0.8,1.8-1.8,1.8s-1.8-0.8-1.8-1.8
		c0-0.7,0.4-1.3,0.9-1.6H5.7C5.9,32.1,6,32.3,6,32.6v1.6c0,0.5-0.4,1-1,1s-1-0.4-1-1v-1.6c0-0.3,0.1-0.6,0.4-0.7H-17
		c0,2.4,1.9,4.3,4.3,4.3h25.4C15.1,36.2,17,34.3,17,31.9z M3.4,34.6c0-0.3-0.2-0.5-0.5-0.5H-9.9c-0.3,0-0.5,0.2-0.5,0.5
		s0.2,0.5,0.5,0.5H2.9C3.2,35.1,3.4,34.8,3.4,34.6z M3.4,33c0-0.3-0.2-0.5-0.5-0.5H-9.9c-0.3,0-0.5,0.2-0.5,0.5s0.2,0.5,0.5,0.5H2.9
		C3.2,33.5,3.4,33.2,3.4,33z M9.8-33.3c0-0.3-0.2-0.5-0.5-0.5H-9.9c-0.3,0-0.5,0.2-0.5,0.5s0.2,0.5,0.5,0.5H9.3
		C9.5-32.8,9.8-33,9.8-33.3z M9.8-34.7c0-0.3-0.2-0.5-0.5-0.5H-9.9c-0.3,0-0.5,0.2-0.5,0.5s0.2,0.5,0.5,0.5H9.3
		C9.5-34.2,9.8-34.4,9.8-34.7z"/>
</symbol>
<symbol  id="ipad" viewBox="-36.8 -53.6 73.6 107.3">
	<path class="st0" d="M29.6,51.7c2.9,0,5.2-2.3,5.2-5.2v-92.9c0-2.9-2.3-5.2-5.2-5.2h-59.2c-2.9,0-5.2,2.3-5.2,5.2v92.9
		c0,2.9,2.3,5.2,5.2,5.2H29.6 M29.6,53.7h-59.2c-4,0-7.2-3.2-7.2-7.2v-92.9c0-4,3.2-7.2,7.2-7.2h59.2c4,0,7.2,3.2,7.2,7.2v92.9
		C36.8,50.4,33.6,53.7,29.6,53.7z M31-42.3h-62c-0.4,0-0.8,0.3-0.8,0.8v82.9c0,0.4,0.3,0.8,0.8,0.8h62c0.4,0,0.8-0.3,0.8-0.8v-82.9
		C31.7-41.9,31.4-42.3,31-42.3z M-30.9-41.3h61.6v82.4h-61.6V-41.3z M29.6,51h-59.2c-2.5,0-4.6-2-4.6-4.6v-92.9c0-2.5,2-4.6,4.6-4.6
		h59.2c2.5,0,4.6,2,4.6,4.6v92.9C34.2,49,32.1,51,29.6,51z M0-48.9c-1,0-1.8,0.8-1.8,1.8S-1-45.2,0-45.2S1.8-46,1.8-47
		S1-48.9,0-48.9z M33.2-46.5c0-2-1.6-3.6-3.6-3.6H1.1c1.2,0.5,2.1,1.6,2.1,3c0,1.8-1.4,3.2-3.2,3.2s-3.2-1.4-3.2-3.2
		c0-1.4,0.9-2.6,2.1-3h-28.5c-2,0-3.6,1.6-3.6,3.6v92.9c0,2,1.6,3.6,3.6,3.6h59.2c2,0,3.6-1.6,3.6-3.6V-46.5z M-0.1,46.8
		c-0.4,0-0.6-0.3-0.6-0.6c0-0.4,0.3-0.6,0.6-0.6s0.6,0.3,0.6,0.6C0.6,46.6,0.3,46.8-0.1,46.8z M-2.1,45.4c-0.4,0-0.8,0.4-0.8,0.8
		S-2.5,47-2.1,47s0.8-0.4,0.8-0.8S-1.7,45.4-2.1,45.4z M-2.1,46.4c-0.1,0-0.2-0.1-0.2-0.2c0-0.2,0.4-0.2,0.4,0
		C-1.9,46.3-2,46.4-2.1,46.4z"/>
</symbol>
<symbol  id="iphone" viewBox="-36.8 -18.9 73.7 37.8">
	<path class="st0" d="M30.4,18.5h-44.7v0.4h-7.3v-0.4h-8.9c-3.5,0-6.4-2.9-6.4-6.4v-24.2c0-3.5,2.9-6.4,6.4-6.4h2.7v-0.4h4.9v0.4
		h1.3v-0.4h13.8v0.4h38.2c3.5,0,6.4,2.9,6.4,6.4v24.2C36.8,15.7,34,18.5,30.4,18.5z M30.4-16.2h-60.9c-2.3,0-4.2,1.9-4.2,4.2v24.2
		c0,2.3,1.9,4.2,4.2,4.2h60.9c2.3,0,4.2-1.9,4.2-4.2V-12C34.7-14.3,32.8-16.2,30.4-16.2z M-27.6-15.5h55v31.3h-55V-15.5z
		 M-26.6,14.7h53v-29.3h-53V14.7z M30.9,3.2c-1.8,0-3.2-1.4-3.2-3.2s1.4-3.2,3.2-3.2s3.2,1.4,3.2,3.2S32.7,3.2,30.9,3.2z M30.9-1.8
		c-1,0-1.8,0.8-1.8,1.8s0.8,1.8,1.8,1.8S32.7,1,32.7,0S31.9-1.8,30.9-1.8z M-32-2.3v4.8c0,0.5,0.4,0.8,0.8,0.8
		c0.5,0,0.8-0.4,0.8-0.8v-4.8c0-0.5-0.4-0.8-0.8-0.8S-32-2.8-32-2.3z M-30.1-5.5c0-0.6-0.5-1.1-1.1-1.1s-1.1,0.5-1.1,1.1
		s0.5,1.1,1.1,1.1S-30.1-4.9-30.1-5.5z M-33.3,0.9c-0.4,0-0.8-0.3-0.8-0.8s0.3-0.8,0.8-0.8s0.8,0.3,0.8,0.8S-32.9,0.9-33.3,0.9z
		 M-33.5,0.1c0,0.1,0.1,0.2,0.2,0.2s0.2-0.1,0.2-0.2C-33.1-0.2-33.5-0.2-33.5,0.1z"/>
</symbol>
<symbol  id="lumia" viewBox="-23.4 -42.9 46.8 85.7">
	<path class="st0" d="M16.3,42.8h-32.6c-3.9,0-7.1-3.2-7.1-7.1v-71.5c0-3.9,3.2-7.1,7.1-7.1h32.6c3.9,0,7.1,3.2,7.1,7.1v71.5
		C23.3,39.6,20.2,42.8,16.3,42.8z M16.3-40.8h-32.6c-2.8,0-5.1,2.3-5.1,5.1v71.5c0,2.8,2.3,5.1,5.1,5.1h32.6c2.8,0,5.1-2.3,5.1-5.1
		V22.3l-0.5,0.3V7.9l0.5,0.3V3.6l-0.5,0.3v-8.3l0.5,0.3v-31.6C21.3-38.5,19.1-40.8,16.3-40.8z M16.3,40.3h-32.6
		c-2.5,0-4.5-2-4.5-4.5v-71.5c0-2.5,2-4.5,4.5-4.5h32.6c2.5,0,4.5,2,4.5,4.5v71.5C20.8,38.2,18.8,40.3,16.3,40.3z M19.8-35.7
		c0-1.9-1.6-3.5-3.5-3.5H5.8l-0.7,1C5-38,4.7-37.8,4.4-37.8H4c-0.3,0-0.6-0.2-0.7-0.4l-0.7-1h-18.8c-1.9,0-3.5,1.6-3.5,3.5v71.5
		c0,1.9,1.6,3.5,3.5,3.5h32.6c1.9,0,3.5-1.6,3.5-3.5L19.8-35.7L19.8-35.7z M-2.5,37.6c0,0.4,0.3,0.8,0.8,0.8h3.1
		c0.4,0,0.8-0.3,0.8-0.8c0-0.4-0.3-0.8-0.8-0.8h-3.1C-2.2,36.9-2.5,37.2-2.5,37.6z M3.8,36.5c0.4,0,0.8,0.3,0.8,0.8
		c0,0.4-0.3,0.8-0.8,0.8c-0.4,0-0.8-0.3-0.8-0.8C3,36.9,3.3,36.5,3.8,36.5z M3.8,37.5c0.1,0,0.2-0.1,0.2-0.2c0-0.2-0.5-0.2-0.5,0
		C3.5,37.4,3.6,37.5,3.8,37.5z M7.8,36.3H9c0.6,0,1.1,0.5,1.1,1.1S9.6,38.5,9,38.5H7.8c-0.6,0-1.1-0.5-1.1-1.1S7.2,36.3,7.8,36.3z
		 M7.8,37.4H9c0,0,0.1,0,0.1-0.1s0-0.1-0.1-0.1H7.8C7.8,37.2,7.8,37.4,7.8,37.4z M-17.8-33h35.6v66h-35.6V-33z M-16.8,32h33.6v-64
		h-33.6V32z"/>
</symbol>
<symbol  id="nexus-9" viewBox="-60.4 -41.4 120.8 82.8">
	<path class="st0" d="M55,41.4H-55c-3,0-5.4-2.4-5.4-5.4v-71.7c0-3,2.4-5.4,5.4-5.4h72.1l0.2-0.3h15l0.2,0.3h1l0.2-0.3h6.9l0.2,0.3
		H55c3,0,5.4,2.4,5.4,5.4V36C60.4,39,58,41.4,55,41.4z M-56.9-35.7v24.9l0.7,0.5v21l-0.7,0.5V36c0,1,0.8,1.9,1.9,1.9H55
		c1,0,1.9-0.8,1.9-1.9V11.3l-0.7-0.5v-21l0.7-0.5v-24.9c0-1-0.8-1.9-1.9-1.9H-55C-56-37.5-56.9-36.7-56.9-35.7z M31.2-39.4H18.4
		l-0.2,0.3h13.3L31.2-39.4z M39.5-39.4h-4.7l-0.2,0.3h5.1C39.7-39.1,39.5-39.4,39.5-39.4z M47,35.5h-93.9v-70.7H47V35.5z M46-34.2
		h-91.9v68.7H46V-34.2z M50.9,0.2c0,0.5,0.4,0.9,0.9,0.9s0.9-0.4,0.9-0.9s-0.4-0.9-0.9-0.9S50.9-0.3,50.9,0.2z M-52.8,0.2
		c0,0.6,0.5,1,1,1s1-0.5,1-1c0-0.6-0.5-1-1-1S-52.8-0.4-52.8,0.2z"/>
</symbol>
<use xlink:href="#iphone"  width="73.7" height="37.8" x="-36.8" y="-18.9" transform="matrix(0.9947 0 0 -0.9947 12.2922 384.4304)" style="overflow:visible;opacity:0.5;"/>
<use xlink:href="#iphone"  width="73.7" height="37.8" x="-36.8" y="-18.9" transform="matrix(0.9947 0 0 -0.9947 357.6832 352.9124)" style="overflow:visible;opacity:0.5;enable-background:new    ;"/>
<use xlink:href="#iphone"  width="73.7" height="37.8" x="-36.8" y="-18.9" transform="matrix(0 0.9947 0.9947 0 375.4266 139.4632)" style="overflow:visible;opacity:0.5;enable-background:new    ;"/>
<use xlink:href="#galaxy"  width="40.5" height="78.3" x="-20.3" y="-39.2" transform="matrix(1 0 0 -1 89.7648 243.9482)" style="overflow:visible;opacity:0.5;"/>
<use xlink:href="#galaxy"  width="40.5" height="78.3" x="-20.3" y="-39.2" transform="matrix(0 1 1 0 152.6628 599.5788)" style="overflow:visible;opacity:0.5;enable-background:new    ;"/>
<use xlink:href="#galaxy"  width="40.5" height="78.3" x="-20.3" y="-39.2" transform="matrix(0 1 1 0 250.6798 161.6048)" style="overflow:visible;opacity:0.5;enable-background:new    ;"/>
<use xlink:href="#galaxy"  width="40.5" height="78.3" x="-20.3" y="-39.2" transform="matrix(0 1 1 0 498.0538 568.0608)" style="overflow:visible;opacity:0.5;enable-background:new    ;"/>
<use xlink:href="#galaxy"  width="40.5" height="78.3" x="-20.3" y="-39.2" transform="matrix(1 0 0 -1 337.1398 650.4042)" style="overflow:visible;opacity:0.5;enable-background:new    ;"/>
<use xlink:href="#galaxy"  width="40.5" height="78.3" x="-20.3" y="-39.2" transform="matrix(1 0 0 -1 -18.9182 689.3882)" style="overflow:visible;opacity:0.5;enable-background:new    ;"/>
<use xlink:href="#htc-one"  width="41.2" height="79.6" x="-20.6" y="-39.8" transform="matrix(0 -0.9976 -0.9976 0 -67.341 477.432)" style="overflow:visible;opacity:0.5;"/>
<use xlink:href="#htc-one"  width="41.2" height="79.6" x="-20.6" y="-39.8" transform="matrix(0 -0.9976 -0.9976 0 278.05 445.914)" style="overflow:visible;opacity:0.5;enable-background:new    ;"/>
<use xlink:href="#htc-one"  width="41.2" height="79.6" x="-20.6" y="-39.8" transform="matrix(0 -0.9976 -0.9976 0 635.057 496.05)" style="overflow:visible;opacity:0.5;enable-background:new    ;"/>
<use xlink:href="#htc-one"  width="41.2" height="79.6" x="-20.6" y="-39.8" transform="matrix(0.9976 0 0 -0.9976 316.226 89.567)" style="overflow:visible;opacity:0.5;enable-background:new    ;"/>
<use xlink:href="#htc-one"  width="41.2" height="79.6" x="-20.6" y="-39.8" transform="matrix(0.9976 0 0 -0.9976 159.566 232.349)" style="overflow:visible;opacity:0.5;enable-background:new    ;"/>
<use xlink:href="#htc-one"  width="41.2" height="79.6" x="-20.6" y="-39.8" transform="matrix(0.9976 0 0 -0.9976 61.549 670.323)" style="overflow:visible;opacity:0.5;enable-background:new    ;"/>
<use xlink:href="#htc-one"  width="41.2" height="79.6" x="-20.6" y="-39.8" transform="matrix(0.9976 0 0 -0.9976 411.673 667.914)" style="overflow:visible;opacity:0.5;enable-background:new    ;"/>
<use xlink:href="#nexus-9"  width="120.8" height="82.8" x="-60.4" y="-41.4" transform="matrix(1 0 0 -1 126.785 128.937)" style="overflow:visible;opacity:0.5;"/>
<use xlink:href="#nexus-9"  width="120.8" height="82.8" x="-60.4" y="-41.4" transform="matrix(1 0 0 -1 574.403 179.851)" style="overflow:visible;opacity:0.5;enable-background:new    ;"/>
<use xlink:href="#nexus-9"  width="120.8" height="82.8" x="-60.4" y="-41.4" transform="matrix(1 0 0 -1 28.768 566.911)" style="overflow:visible;opacity:0.5;enable-background:new    ;"/>
<use xlink:href="#nexus-9"  width="120.8" height="82.8" x="-60.4" y="-41.4" transform="matrix(1 0 0 -1 374.159 535.392)" style="overflow:visible;opacity:0.5;enable-background:new    ;"/>
<use xlink:href="#lumia"  width="46.8" height="85.7" x="-23.4" y="-42.9" transform="matrix(0.9979 0 0 -0.9979 241.328 65.7092)" style="overflow:visible;opacity:0.5;"/>
<use xlink:href="#lumia"  width="46.8" height="85.7" x="-23.4" y="-42.9" transform="matrix(0.9979 0 0 -0.9979 357.732 257.6062)" style="overflow:visible;opacity:0.5;enable-background:new    ;"/>
<use xlink:href="#lumia"  width="46.8" height="85.7" x="-23.4" y="-42.9" transform="matrix(0.9979 0 0 -0.9979 143.311 503.6832)" style="overflow:visible;opacity:0.5;enable-background:new    ;"/>
<use xlink:href="#lumia"  width="46.8" height="85.7" x="-23.4" y="-42.9" transform="matrix(0.9979 0 0 -0.9979 263.015 702.1632)" style="overflow:visible;opacity:0.5;enable-background:new    ;"/>
<use xlink:href="#lumia"  width="46.8" height="85.7" x="-23.4" y="-42.9" transform="matrix(0.9979 0 0 -0.9979 12.341 289.1242)" style="overflow:visible;opacity:0.5;enable-background:new    ;"/>
<use xlink:href="#ipad"  width="73.6" height="107.3" x="-36.8" y="-53.6" transform="matrix(1 0 0 -1 -81.577 257.2738)" style="overflow:visible;opacity:0.5;"/>
<use xlink:href="#ipad"  width="73.6" height="107.3" x="-36.8" y="-53.6" transform="matrix(1 0 0 -1 -90.216 583.3898)" style="overflow:visible;opacity:0.5;enable-background:new    ;"/>
<use xlink:href="#ipad"  width="73.6" height="107.3" x="-36.8" y="-53.6" transform="matrix(1 0 0 -1 255.175 551.8718)" style="overflow:visible;opacity:0.5;enable-background:new    ;"/>
<use xlink:href="#ipad"  width="73.6" height="107.3" x="-36.8" y="-53.6" transform="matrix(1 0 0 -1 115.481 363.6818)" style="overflow:visible;opacity:0.5;enable-background:new    ;"/>
<use xlink:href="#ipad"  width="73.6" height="107.3" x="-36.8" y="-53.6" transform="matrix(1 0 0 -1 460.872 332.1638)" style="overflow:visible;opacity:0.5;enable-background:new    ;"/>
<use xlink:href="#ipad"  width="73.6" height="107.3" x="-36.8" y="-53.6" transform="matrix(1 0 0 -1 455.419 196.3308)" style="overflow:visible;opacity:0.5;enable-background:new    ;"/>
<use xlink:href="#ipad"  width="73.6" height="107.3" x="-36.8" y="-53.6" transform="matrix(1 0 0 -1 7.801 145.4168)" style="overflow:visible;opacity:0.5;enable-background:new    ;"/>
<use xlink:href="#fire-hdx"  width="123.4" height="85" id="XMLID_8_" x="-61.7" y="-42.5" transform="matrix(1 0 0 -1 597.25 400.402)" style="overflow:visible;opacity:0.5;"/>
<use xlink:href="#fire-hdx"  width="123.4" height="85" id="XMLID_9_" x="-61.7" y="-42.5" transform="matrix(1 0 0 -1 -105.148 381.783)" style="overflow:visible;opacity:0.5;enable-background:new    ;"/>
<use xlink:href="#fire-hdx"  width="123.4" height="85" id="XMLID_10_" x="-61.7" y="-42.5" transform="matrix(1 0 0 -1 -112.933 88.537)" style="overflow:visible;opacity:0.5;enable-background:new    ;"/>
<use xlink:href="#fire-hdx"  width="123.4" height="85" id="XMLID_11_" x="-61.7" y="-42.5" transform="matrix(1 0 0 -1 240.243 350.265)" style="overflow:visible;opacity:0.5;enable-background:new    ;"/>
<use xlink:href="#build-bot"  width="84.7" height="74.3" x="-42.3" y="-37.1" transform="matrix(0.9973 0 0 -0.9973 160.2198 682.0208)" style="overflow:visible;opacity:0.5;"/>
<use xlink:href="#build-bot"  width="84.7" height="74.3" x="-42.3" y="-37.1" transform="matrix(0.9973 0 0 -0.9973 394.5918 439.0688)" style="overflow:visible;opacity:0.5;enable-background:new    ;"/>
<use xlink:href="#build-bot"  width="84.7" height="74.3" id="XMLID_13_" x="-42.3" y="-37.1" transform="matrix(-0.9973 0 0 -0.9973 594.9352 83.5268)" style="overflow:visible;opacity:0.5;enable-background:new    ;"/>
<use xlink:href="#build-bot"  width="84.7" height="74.3" x="-42.3" y="-37.1" transform="matrix(-0.9973 0 0 -0.9973 258.3362 244.0478)" style="overflow:visible;opacity:0.5;enable-background:new    ;"/>
<use xlink:href="#build-bot"  width="84.7" height="74.3" x="-42.3" y="-37.1" transform="matrix(-0.9973 0 0 -0.9973 49.2992 470.5868)" style="overflow:visible;opacity:0.5;enable-background:new    ;"/>
<use xlink:href="#build-bot"  width="84.7" height="74.3" x="-42.3" y="-37.1" transform="matrix(-0.9973 0 0 -0.9973 505.7102 650.5028)" style="overflow:visible;opacity:0.5;enable-background:new    ;"/>
<use xlink:href="#nexus-9"  width="120.8" height="82.8" id="XMLID_3_" x="-60.4" y="-41.4" transform="matrix(1 0 0 -1 825.944 345.818)" style="overflow:visible;opacity:0.5;enable-background:new    ;"/>
<use xlink:href="#ipad"  width="73.6" height="107.3" id="XMLID_2_" x="-36.8" y="-53.6" transform="matrix(1 0 0 -1 807.785 207.1138)" style="overflow:visible;opacity:0.5;enable-background:new    ;"/>
<use xlink:href="#lumia"  width="46.8" height="85.7" id="XMLID_5_" x="-23.4" y="-42.9" transform="matrix(0.9979 0 0 -0.9979 688.655 116.6232)" style="overflow:visible;opacity:0.5;enable-background:new    ;"/>
<use xlink:href="#fire-hdx"  width="123.4" height="85" id="XMLID_1_" x="-61.7" y="-42.5" transform="matrix(1 0 0 -1 794.264 88.744)" style="overflow:visible;opacity:0.5;enable-background:new    ;"/>
<use xlink:href="#galaxy"  width="40.5" height="78.3" x="-20.3" y="-39.2" transform="matrix(1 0 0 -1 537.3838 294.8622)" style="overflow:visible;opacity:0.5;enable-background:new    ;"/>
<use xlink:href="#htc-one"  width="41.2" height="79.6" x="-20.6" y="-39.8" transform="matrix(0.9976 0 0 -0.9976 607.185 283.263)" style="overflow:visible;opacity:0.5;enable-background:new    ;"/>
<use xlink:href="#iphone"  width="73.7" height="37.8" x="-36.8" y="-18.9" transform="matrix(0.9947 0 0 -0.9947 714.6892 403.0484)" style="overflow:visible;opacity:0.5;enable-background:new    ;"/>
<use xlink:href="#build-bot"  width="84.7" height="74.3" x="-42.3" y="-37.1" transform="matrix(0.9973 0 0 -0.9973 705.8549 294.9618)" style="overflow:visible;opacity:0.5;enable-background:new    ;"/>
<use xlink:href="#build-bot"  width="84.7" height="74.3" id="XMLID_4_" x="-42.3" y="-37.1" transform="matrix(-0.9973 0 0 -0.9973 751.6982 489.2048)" style="overflow:visible;opacity:0.5;enable-background:new    ;"/>
<use xlink:href="#nexus-9"  width="120.8" height="82.8" x="-60.4" y="-41.4" transform="matrix(1 0 0 -1 731.165 585.529)" style="overflow:visible;opacity:0.5;enable-background:new    ;"/>
<use xlink:href="#fire-hdx"  width="123.4" height="85" x="-61.7" y="-42.5" transform="matrix(1 0 0 -1 738.571 702.164)" style="overflow:visible;opacity:0.5;enable-background:new    ;"/>
<use xlink:href="#galaxy"  width="40.5" height="78.3" id="XMLID_6_" x="-20.3" y="-39.2" transform="matrix(0 1 1 0 698.2988 212.5188)" style="overflow:visible;opacity:0.5;enable-background:new    ;"/>
<use xlink:href="#lumia"  width="46.8" height="85.7" id="XMLID_7_" x="-23.4" y="-42.9" transform="matrix(0.9979 0 0 -0.9979 612.352 725.2852)" style="overflow:visible;opacity:0.5;enable-background:new    ;"/>
<use xlink:href="#ipad"  width="73.6" height="107.3" x="-36.8" y="-53.6" transform="matrix(1 0 0 -1 612.182 602.0088)" style="overflow:visible;opacity:0.5;enable-background:new    ;"/>
<use xlink:href="#lumia"  width="46.8" height="85.7" x="-23.4" y="-42.9" transform="matrix(0.9979 0 0 -0.9979 488.703 472.1652)" style="overflow:visible;opacity:0.5;enable-background:new    ;"/>
<use xlink:href="#htc-one"  width="41.2" height="79.6" id="XMLID_12_" x="-20.6" y="-39.8" transform="matrix(0 -0.9976 -0.9976 0 478.294 90.372)" style="overflow:visible;opacity:0.5;enable-background:new    ;"/>
</svg>
