<?xml version="1.0" encoding="utf-8"?>
<!-- Generator: Adobe Illustrator 19.1.0, SVG Export Plug-In . SVG Version: 6.00 Build 0)  -->
<!DOCTYPE svg PUBLIC "-//W3C//DTD SVG 1.1//EN" "http://www.w3.org/Graphics/SVG/1.1/DTD/svg11.dtd">
<svg version="1.1" id="Layer_1" xmlns="http://www.w3.org/2000/svg" xmlns:xlink="http://www.w3.org/1999/xlink" x="0px" y="0px"
	 viewBox="0 0 300 70" style="enable-background:new 0 0 300 70;" xml:space="preserve">
<style type="text/css">
	.st0{fill:#3B254B;}
	.st1{fill:#E3303D;}
</style>
<g>
	<g>
		<g>
			<path class="st0" d="M8.4,53.2c0,0.9,0,1.5-0.4,2.2c-0.4,0.6-1.3,1-2.4,1c-1.1,0-2-0.4-2.4-1c-0.4-0.6-0.4-1.3-0.4-2.2V18
				c0-1.8,0-2.9,2.8-3.6c1.4-0.4,3.6-0.6,6.3-0.6c3.2,0,7,0.4,10,1.9c3.7,1.9,5.9,5.3,5.9,9.9c0,5.3-2.8,9.4-8.2,11.4l11.6,16
				c1,1.4,0.8,3.2-2.2,3.2c-2.3,0-3.1-1-4.1-2.5l-7.5-10.8c-2-2.8-3.1-4.7-3.1-4.7S13,38.5,11,38.5c-1.7,0-2.4-0.1-2.4-0.1v14.9H8.4
				z M8.4,33.8c0,0,0.9,0.1,2.4,0.1c6.9,0,11-2.4,11-7.9c0-5.8-4.6-7.4-9.6-7.4c-2,0-3.8,0.3-3.8,0.3V33.8z"/>
		</g>
		<g>
			<path class="st0" d="M83.7,53.2c0,0.9,0,1.5-0.4,2.2c-0.5,0.8-1.5,1-2.3,1c-1.1,0-1.9-0.4-2.3-1c-0.4-0.6-0.4-1.3-0.4-2.2V16.1
				c0-1.5,0.9-2.4,2.6-2.4c1.9,0,2.7,1,4.1,2.8l23.6,29.7V16.9c0-0.9,0-1.5,0.4-2.2c0.5-0.8,1.5-1,2.3-1c1.1,0,1.9,0.4,2.3,1
				c0.4,0.6,0.4,1.3,0.4,2.2V54c0,1.5-0.9,2.3-2.4,2.3c-1.7,0-2.6-0.9-4-2.8L83.7,23.6V53.2z"/>
		</g>
		<g>
			<path class="st0" d="M158.8,50.4c0,2-0.5,3-3.8,4.2c-3.1,1.1-6.6,1.9-10.5,1.9c-12.4,0-22.3-7.2-22.3-21.7
				c0-15.5,11.5-21.6,22.3-21.6c4.1,0,8,0.9,11.4,2.7c1.9,1,2.7,1.8,2.7,2.9c0,1.3-0.9,2.8-2.3,2.8c-1.1,0-2.2-1-4.6-2
				c-1.8-0.8-4.5-1.4-7.7-1.4c-7.7,0-16.1,4.3-16.1,16.4c0,11.4,7.5,17,16.5,17c5.1,0,8.7-1.8,8.7-1.8v-7.4c0-0.9,0-1.5,0.4-2.2
				c0.4-0.6,1.3-1,2.4-1s2,0.4,2.4,1c0.4,0.6,0.4,1.3,0.4,2.2v8H158.8z"/>
		</g>
		<g>
			<path class="st0" d="M187.9,50.9c0.9,0,1.5,0.1,2,0.5c0.5,0.4,0.9,1,0.9,2c0,1-0.4,1.7-0.9,2c-0.6,0.4-1.3,0.5-2,0.5h-17.2
				c-2,0-2.7-0.9-2.7-2.7V16.9c0-0.9,0-1.5,0.4-2.2c0.4-0.6,1.3-1,2.4-1c1.1,0,2,0.4,2.4,1c0.4,0.6,0.4,1.3,0.4,2.2v34.1H187.9z"/>
		</g>
		<g>
			<path class="st0" d="M202.6,31h10.2c0.9,0,1.5,0,2,0.5c0.5,0.4,0.9,1,0.9,2c0,1-0.4,1.7-0.9,2c-0.6,0.4-1.3,0.5-2,0.5h-10.2v15
				H217c0.9,0,1.5,0.1,2,0.5c0.5,0.4,0.9,1,0.9,2c0,1-0.4,1.7-0.9,2c-0.6,0.4-1.3,0.5-2,0.5h-17.2c-2,0-2.7-0.9-2.7-2.7V17
				c0-1.9,0.8-2.7,2.7-2.7h15.3c0.9,0,1.5,0,2,0.5c0.5,0.4,0.9,1,0.9,2s-0.4,1.7-0.9,2c-0.6,0.4-1.3,0.5-2,0.5h-12.5V31z"/>
		</g>
		<g>
			<path class="st1" d="M229.4,56.5c-2,0-3.4-1.4-3.4-3.4c0-2,1.4-3.4,3.4-3.4c2,0,3.4,1.5,3.4,3.4
				C232.7,55.1,231.3,56.5,229.4,56.5z"/>
		</g>
		<g>
			<path class="st1" d="M246.9,53.2c0,0.9,0,1.5-0.4,2.2c-0.4,0.6-1.3,1-2.4,1s-2-0.4-2.4-1c-0.4-0.6-0.4-1.3-0.4-2.2V16.9
				c0-0.9,0-1.5,0.4-2.2c0.4-0.6,1.3-1,2.4-1s2,0.4,2.4,1c0.4,0.6,0.4,1.3,0.4,2.2V53.2z"/>
		</g>
		<g>
			<path class="st1" d="M276.6,13.2c13.1,0,21.4,9,21.4,21.7c0,12.8-8.4,21.9-21.7,21.9c-13.1,0-21.4-9-21.4-21.7
				C255.1,22.2,263.5,13.2,276.6,13.2z M276.6,52.1c9.6,0,15.7-6.2,15.7-17c0-10.9-6.3-17.2-15.8-17.2c-9.6,0-15.7,6.2-15.7,17
				C260.8,45.9,267.1,52.1,276.6,52.1z"/>
		</g>
		<g>
			<path class="st0" d="M71.6,52.7L57.7,16.9c-0.8-1.9-1.4-3.2-3.3-3.2c-2,0-2.7,1.4-3.4,3.3L36.4,52.9c-0.4,0.9-0.5,1.3-0.5,1.8
				c0,1,0.8,1.8,2.6,1.8c2.2,0,2.7-1.1,3.3-2.7l2.2-5.6l0,0l0.1-0.5l2-5.3l0,0l2.6-6.5l0,0L54,22.1l5.9,15.2h-8.2
				c-0.1,0-0.3,0.1-0.3,0.1l-1.7,4.3c-0.1,0.3,0.1,0.4,0.3,0.4h11.5l4.3,11.4c0.8,1.9,1.4,2.7,3.4,2.7c1.8,0,2.7-0.8,2.7-1.8
				C72,54.1,71.9,53.5,71.6,52.7z"/>
		</g>
	</g>
</g>
</svg>
