<?xml version="1.0" encoding="utf-8"?>
<!-- Generator: Adobe Illustrator 19.1.0, SVG Export Plug-In . SVG Version: 6.00 Build 0)  -->
<!DOCTYPE svg PUBLIC "-//W3C//DTD SVG 1.1//EN" "http://www.w3.org/Graphics/SVG/1.1/DTD/svg11.dtd">
<svg version="1.1" id="logo" xmlns="http://www.w3.org/2000/svg" xmlns:xlink="http://www.w3.org/1999/xlink" x="0px" y="0px"
	 viewBox="0 0 120 42" style="enable-background:new 0 0 120 42;" xml:space="preserve">
<style type="text/css">
	.st0{fill:#FFFFFF;}
	.st1{fill:#D62526;}
</style>
<g>
	<g>
		<path d="M39.8,29.8H40l0.2,0.4h0.2l-0.3-0.4c0.1,0,0.2-0.1,0.2-0.3c0-0.2-0.1-0.3-0.3-0.3h-0.4v0.9h0.1V29.8z M39.8,29.7v-0.3H40
			c0.1,0,0.2,0,0.2,0.1c0,0.1-0.1,0.2-0.2,0.2H39.8z"/>
		<path d="M40.9,29.8c0,0.5-0.4,0.9-0.9,0.9c-0.5,0-0.9-0.4-0.9-0.9c0-0.5,0.4-0.9,0.9-0.9C40.5,28.9,40.9,29.3,40.9,29.8z M40,29
			c-0.4,0-0.7,0.3-0.7,0.7c0,0.4,0.3,0.7,0.7,0.7c0.4,0,0.7-0.3,0.7-0.7C40.7,29.3,40.4,29,40,29z"/>
		<path class="st0" d="M34.9,30.5c-1.3,0-2.4,0.2-3.3,0.6c-0.1,0-0.2,0.1-0.2,0.3c0,0,0,0.1,0,0.1c0.1,0.3-0.1,0.6-0.9,0.8
			c-1.2,0.3-2,1.5-2.4,2c-0.5,0.5-2,0.8-1.8,0.5c0.2-0.2,0.8-0.9,1.2-1.7c0.4-0.7,0.7-0.9,1.1-1.6c0.1-0.2,0.6-0.9,0.8-1.4
			c0.2-0.5,0.1-1.2,0.2-1.5c0.1-0.4,0.5-1.2,0.5-1.7c0-0.3-1.1,0.4-1.7,0.4c-0.5,0-1.1-0.3-1.6-0.4c-0.6,0-1,0.5-1.5,0.4
			c-0.3,0-0.6-0.3-1.1-0.3c-0.8,0-1.7,0.4-3.5,0.4c-1.8-0.1-3.4-2.2-3.6-2.6c-0.3-0.4-0.6-0.4-0.9-0.1c-0.3,0.3-0.8,0.1-0.9-0.1
			c-0.2-0.4-0.8-1.6-1.8-1.8c-1.3-0.3-2,0.7-1.9,1.6c0.1,0.9,0.6,1.1,0.9,1.6c0.3,0.5,0.4,0.8,0.9,1c0.3,0.1,0.5,0.4,0.4,0.6
			c-0.1,0.2-0.4,0.3-0.7,0.3c-0.5,0-0.9-0.1-1.1-0.3c-0.3-0.2-0.5-0.5-0.8-0.9c-0.3-0.5-0.8-0.7-1.3-0.7c-0.3,0-0.5,0.1-0.7,0.2
			c-0.9,0.5-1.9,0.7-3,0.7l-1.3,0C7.3,33.9,14.1,39,22,39c6.3,0,11.9-3.3,15.1-8.2C36.4,30.6,35.7,30.5,34.9,30.5z"/>
		<path d="M25.9,29.1C25.9,29.1,25.9,29.1,25.9,29.1c-0.3,0.3-0.4,0.4-0.5,0.5c-0.4,0.3-0.9,0-1.2-0.2c-0.7-0.4-1.2-0.1-1.3,0.2
			c-0.1,0.3,0,0.7,0.4,0.6c0.5-0.1,0.5,0,0.9,0.2c0.7,0.4,1.2,0.2,1.4,0c0.2-0.2,0.3-0.3,0.4-0.5C26.2,29.5,26.1,29.2,25.9,29.1
			C26,29.1,25.9,29.1,25.9,29.1z"/>
		<path d="M22,3C12.1,3,4,11.1,4,21c0,2,0.3,3.9,0.9,5.8h1.3c1.1,0,2.1-0.3,3-0.7c0.2-0.1,0.5-0.2,0.7-0.2c0.6,0,1,0.2,1.3,0.7
			c0.3,0.4,0.5,0.7,0.8,0.9c0.3,0.2,0.6,0.3,1.1,0.3c0.2,0,0.6-0.1,0.7-0.3c0.1-0.3,0-0.5-0.4-0.6c-0.5-0.2-0.6-0.5-0.9-1
			c-0.3-0.5-0.8-0.7-0.9-1.6c-0.1-0.9,0.6-1.9,1.9-1.6c1,0.2,1.6,1.4,1.8,1.8c0.1,0.2,0.5,0.5,0.9,0.1c0.3-0.3,0.7-0.3,0.9,0.1
			c0.2,0.3,1.8,2.5,3.6,2.6c1.8,0.1,2.7-0.4,3.5-0.4c0.5,0,0.8,0.3,1.1,0.3c0.5,0.1,0.9-0.4,1.5-0.4c0.5,0,1,0.3,1.6,0.3
			c0.5,0,1.7-0.7,1.7-0.4c0,0.5-0.4,1.3-0.5,1.7c-0.1,0.3,0,0.9-0.2,1.5c-0.1,0.5-0.6,1.2-0.8,1.4c-0.4,0.7-0.8,0.9-1.1,1.6
			c-0.4,0.8-1.1,1.5-1.2,1.7c-0.2,0.3,1.2,0,1.8-0.5c0.4-0.4,1.2-1.7,2.4-2c0.8-0.2,1-0.5,0.9-0.8c0,0,0-0.1,0-0.1
			c0-0.1,0.1-0.2,0.2-0.3c0.9-0.4,2-0.6,3.3-0.6c0.7,0,1.5,0.1,2.2,0.3C38.9,28,40,24.6,40,21C40,11.1,31.9,3,22,3z"/>
		<path class="st1" d="M32.2,16.2c-0.2,0.6-0.4,1.4-1.6,1.9c-0.2,0.1-0.2-0.1-0.2-0.2c0.4-0.7,0.5-0.9,0.6-1.2
			c0.2-0.4,0.3-1-0.1-2.2c-0.7-2.4-2.1-5.7-3.1-6.7c-1-1-2.8-1.3-4.4-0.9c-0.6,0.2-1.8,0.8-3.9,0.3c-3.8-0.8-4.3,1-4.5,1.9
			c-0.2,0.8-0.7,3.1-0.7,3.1c-0.2,0.9-0.4,2.6,5.4,3.7c2.7,0.5,2.9,1.2,3,1.7c0.2,0.9,0.6,1.4,0.9,1.7c0.4,0.3,0,0.5-0.4,0.5
			c-1.2,0.1-5.4-1.1-8-2.5c-2.1-1.3-2.1-2.4-1.6-3.4c-3.1-0.3-5.5,0.3-5.9,1.8c-0.7,2.5,5.6,6.9,12.8,9c7.5,2.3,15.3,0.7,16.2-4
			C37,18.5,35.2,16.9,32.2,16.2z M20.6,11.6c-2.1,0.2-2.3,0.4-2.7,0.8c-0.5,0.6-1.3-0.8-1.3-0.8c-0.4-0.1-1-0.8-0.7-1.4
			c0.3-0.6,0.8-0.5,1-0.3c0.2,0.2,0.6,0.6,1.2,0.6c0.5,0,1.2-0.1,2.1-0.1c0.9,0,1.5,0.3,1.5,0.6C21.7,11.3,21.6,11.5,20.6,11.6z
			 M25.1,9.5c-0.4,0-0.7-0.1-1-0.2c0,0-0.1,0-0.1-0.1c0,0,0-0.1,0.1-0.1c0.7-0.2,1.2-0.4,1.2-0.7c0-0.3-1-0.5-2.1-0.4
			c-0.1,0-0.2,0-0.4,0c0,0,0,0,0,0c0,0-0.1,0-0.1-0.1c0,0,0,0,0,0c0.4-0.2,1-0.4,1.7-0.5c0.2,0,0.4,0,0.6,0c0,0,0.1,0,0.1,0
			c1.2,0,2.1,0.5,2.1,1C27.2,9.1,26.3,9.5,25.1,9.5z"/>
	</g>
	<g>
		<path d="M49.2,22.1c0-1.7,0-2.9-0.1-4h2.7l0.1,2.3H52c0.6-1.7,2-2.6,3.4-2.6c0.3,0,0.5,0,0.7,0.1v2.9c-0.3-0.1-0.6-0.1-0.9-0.1
			c-1.5,0-2.5,0.9-2.8,2.4c-0.1,0.3-0.1,0.6-0.1,0.9v6.4h-3.1L49.2,22.1z"/>
		<path d="M59.9,25.2c0.1,2.2,1.8,3.2,3.8,3.2c1.4,0,2.5-0.2,3.4-0.6l0.5,2.1c-1.1,0.4-2.5,0.8-4.3,0.8c-4,0-6.4-2.5-6.4-6.3
			c0-3.4,2.1-6.6,6-6.6c4,0,5.3,3.3,5.3,6c0,0.6-0.1,1-0.1,1.3L59.9,25.2z M65.3,23c0-1.1-0.5-3-2.6-3c-1.9,0-2.7,1.7-2.9,3H65.3z"
			/>
		<path d="M105.1,27.6c0,1,0,2,0.2,2.9h-1.1l-0.2-1.8H104c-0.6,1-2,2-3.9,2c-2.5,0-3.6-1.7-3.6-3.4c0-2.8,2.5-4.6,7.5-4.5v-0.3
			c0-1.2-0.2-3.7-3.2-3.6c-1.1,0-2.2,0.3-3.1,0.9l-0.4-0.9c1.1-0.8,2.5-1.1,3.6-1.1c3.6,0,4.2,2.7,4.2,4.9V27.6z M103.9,23.9
			c-2.7-0.1-6.2,0.3-6.2,3.3c0,1.8,1.2,2.6,2.5,2.6c2.1,0,3.2-1.3,3.7-2.5c0.1-0.3,0.1-0.5,0.1-0.7V23.9z"/>
		<path d="M110,15.4v2.7h3.5v1H110v8c0,1.6,0.5,2.6,1.8,2.6c0.6,0,1.1-0.1,1.4-0.2l0.1,0.9c-0.4,0.2-1,0.3-1.7,0.3
			c-0.9,0-1.6-0.3-2.1-0.9c-0.6-0.6-0.7-1.7-0.7-2.9v-7.8h-2.1v-1h2.1v-2.3L110,15.4z"/>
		<path d="M115.1,29.8h0.2l0.2,0.4h0.2l-0.3-0.4c0.1,0,0.2-0.1,0.2-0.3c0-0.2-0.1-0.3-0.3-0.3h-0.4v0.9h0.1V29.8z M115.1,29.7v-0.3
			h0.2c0.1,0,0.2,0,0.2,0.1c0,0.1-0.1,0.2-0.2,0.2H115.1z"/>
		<path d="M116.1,29.8c0,0.5-0.4,0.9-0.9,0.9c-0.5,0-0.9-0.4-0.9-0.9c0-0.5,0.4-0.9,0.9-0.9C115.7,28.9,116.1,29.3,116.1,29.8z
			 M115.2,29c-0.4,0-0.7,0.3-0.7,0.7c0,0.4,0.3,0.7,0.7,0.7c0.4,0,0.7-0.3,0.7-0.7C116,29.4,115.6,29,115.2,29z"/>
		<path d="M78.5,19.5L78.5,19.5c-0.6-0.9-1.8-1.6-3.5-1.6c-3,0-5.5,2.5-5.5,6.6c0,3.8,2.3,6.3,5.3,6.3c1.8,0,3.3-0.8,4-2.2h0.1
			l0.1,2h2.8c-0.1-0.8-0.1-2.2-0.1-3.5V13.4l-3.1-0.9V19.5z M78.5,25.2c0,0.3,0,0.6-0.1,0.9c-0.3,1.3-1.4,2.2-2.7,2.2
			c-2,0-3.1-1.7-3.1-3.9c0-2.3,1.1-4.1,3.1-4.1c1.4,0,2.4,1,2.7,2.2c0.1,0.3,0.1,0.6,0.1,0.8V25.2z"/>
		<path d="M89.9,17.9c-0.9,0-1.8,0.3-2.5,0.7c-0.7,0.4-1.3,1.1-1.7,1.8h0v-5.8l-1.2-0.4v16.3h1.2V23c0-0.5,0-0.8,0.2-1.2
			c0.5-1.5,2-2.8,3.7-2.8c2.5,0,3.4,2,3.4,4.2v7.3h1.2v-7.4C94.2,18.5,91.1,17.9,89.9,17.9z"/>
	</g>
</g>
</svg>
