<?xml version="1.0" encoding="utf-8"?>
<!-- Generator: Adobe Illustrator 19.1.0, SVG Export Plug-In . SVG Version: 6.00 Build 0)  -->
<!DOCTYPE svg PUBLIC "-//W3C//DTD SVG 1.1//EN" "http://www.w3.org/Graphics/SVG/1.1/DTD/svg11.dtd">
<svg version="1.1" id="Layer_1" xmlns="http://www.w3.org/2000/svg" xmlns:xlink="http://www.w3.org/1999/xlink" x="0px" y="0px"
	 viewBox="-38 674 300 70" style="enable-background:new -38 674 300 70;" xml:space="preserve">
<style type="text/css">
	.st0{display:none;}
	.st1{display:inline;fill:#662D91;}
	.st2{fill:#662D91;}
</style>
<g>
	<g>
		<g class="st0">
			<path class="st1" d="M213.3,743.8h-2.6l1.1-4.8l-2.4,4.8h-1.8l-0.1-4.8l-1.2,4.8h-2.6l2-9h3.6l0.1,5l2.4-5h3.6L213.3,743.8z
				 M216.4,743.8l-2.4,0l1.5-6.7h2.4L216.4,743.8z M218,736.3h-2.4l0.3-1.5h2.4L218,736.3z M222.1,739.7c0-0.1,0.1-1.1-0.7-1.1
				c-1.5,0-2.5,3.7-0.9,3.7c0.8,0,1.1-0.8,1.2-1h2.5c0,0.1-0.8,2.7-4.1,2.7c-4.5-0.1-3.3-7.3,1.8-7c2.9,0.2,2.7,2.6,2.7,2.7
				L222.1,739.7L222.1,739.7z M229.3,738.5c0.8-1,2-1.7,3.7-1.6c2.3,0.1,3.2,1.8,2.8,3.6c0,0.2-0.2,0.2-0.4,0.3l-2,0.7h4.5
				c0,0-0.4,1,1.1,1c1,0,1.4-1.1,0-1.3c-0.6-0.1-2.9-0.5-2.7-2.3c0.2-1.5,1.8-2,3.5-2c3.5,0.1,2.8,2.1,2.9,2.2h-2.3
				c0,0,0.2-0.8-0.8-0.8c-1,0-1.2,0.8-0.1,1.1c1.3,0.3,2.9,0.4,3,2.1c0,0.5-0.2,2.7-3.7,2.7c-3.1,0-3.4-1.4-3.4-2.2
				c-0.6,1.2-2.1,2.2-4,2.2c-2.9-0.1-3.6-2.8-2.5-4.8c-0.5,0-1.6,0.3-2.1,2.3l-0.5,2.4H224l1.5-6.7h2.2l-0.2,0.8
				c0.3-0.4,0.7-0.6,1.1-0.8c0.4-0.1,0.7-0.2,1.1-0.2L229.3,738.5z M231.5,742.3c1.7,0.4,2.9-3.6,1.3-3.9
				C231.2,738.2,230,742,231.5,742.3z M245.7,744c-4.9-0.2-3.4-7.4,1.6-7.1C251.9,737.2,250.6,744.3,245.7,744z M245.8,742.3
				c1.7,0.4,2.8-3.6,1.3-3.9C245.5,738.2,244.3,742,245.8,742.3z M258.3,738.7h-1.1l-0.6,2.9c0,0.1-0.1,0.3,0,0.5
				c0.1,0.3,1,0.2,1,0.2l-0.4,1.5c0,0-1.9,0.2-2.6-0.2c-0.3-0.2-0.6-0.6-0.4-1.5l0.7-3.4h-1.3l-1.1,5.1h-2.4l1.1-5.1h-1.2l0.3-1.6
				h1.2c0.2-1,0.4-1.4,0.9-1.8c0.8-0.6,2.6-0.3,2.6-0.3l-0.3,1.2c-0.8,0-0.8,0.3-0.9,0.8l0,0.2h1.4l0.4-1.6h2.2l-0.4,1.6h1.2
				L258.3,738.7z M259.7,738.6c-0.4,0-0.7-0.3-0.7-0.7c0-0.4,0.3-0.7,0.7-0.7c0.4,0,0.7,0.3,0.7,0.7
				C260.5,738.2,260.1,738.6,259.7,738.6z M259.7,737.2c-0.3,0-0.6,0.3-0.6,0.6c0,0.3,0.3,0.6,0.6,0.6c0.3,0,0.6-0.3,0.6-0.6
				C260.4,737.5,260.1,737.2,259.7,737.2z M259.8,737.9l0.2,0.3h-0.1l-0.1-0.3h-0.1l-0.1,0.3h-0.1l0.2-0.8l0.3,0
				c0.2,0,0.2,0.1,0.2,0.2C260,737.8,260,737.9,259.8,737.9z M259.8,737.5h-0.2l0,0.2h0.1c0.1,0,0.2,0,0.3-0.1
				C260,737.6,259.9,737.5,259.8,737.5z"/>
		</g>
	</g>
	<g>
		<g>
			<path class="st2" d="M56.7,693.4l-11.5,31.2h-4l-11.4-31.2h4.1l8.7,24.8c0.3,0.9,0.5,1.8,0.6,2.8h0.1c0.1-0.7,0.3-1.6,0.7-2.8
				l8.8-24.7H56.7z"/>
			<path class="st2" d="M81.4,718.7c0,1.9-0.7,3.5-2.2,4.7c-1.5,1.2-3.5,1.8-5.9,1.8c-2.1,0-4-0.5-5.5-1.4V720
				c1.8,1.4,3.7,2.1,5.8,2.1c2.8,0,4.2-1,4.2-3.1c0-0.8-0.3-1.5-0.8-2.1c-0.6-0.5-1.8-1.2-3.8-2.1c-2-0.8-3.4-1.7-4.2-2.7
				c-0.8-1-1.2-2.2-1.2-3.8c0-1.8,0.7-3.4,2.2-4.6c1.5-1.2,3.4-1.9,5.6-1.9c1.8,0,3.3,0.3,4.8,1v3.6c-1.5-1.1-3.1-1.6-5.1-1.6
				c-1.2,0-2.1,0.3-2.8,0.9c-0.7,0.6-1.1,1.3-1.1,2.2c0,1,0.3,1.7,0.8,2.3c0.6,0.5,1.7,1.2,3.4,1.9c2.1,0.9,3.6,1.8,4.5,2.8
				C80.9,715.9,81.4,717.2,81.4,718.7z"/>
			<path class="st2" d="M103.2,724.6h-3.6v-3.5h-0.1c-1.5,2.7-3.8,4.1-6.9,4.1c-5.3,0-8-3.2-8-9.5v-13.3h3.6v12.8c0,4.7,1.8,7,5.4,7
				c1.8,0,3.2-0.6,4.3-1.9c1.1-1.3,1.7-3,1.7-5v-12.9h3.6V724.6z"/>
			<path class="st2" d="M124.6,724.6H121v-3.5h-0.1c-1.6,2.7-3.8,4-6.9,4c-2.1,0-3.9-0.6-5.2-1.8c-1.3-1.2-1.9-2.7-1.9-4.7
				c0-4.2,2.5-6.6,7.4-7.3l6.7-0.9c0-3.8-1.5-5.7-4.6-5.7c-2.7,0-5.1,0.9-7.3,2.7v-3.7c0.7-0.5,1.8-1,3.4-1.4c1.6-0.5,3-0.7,4.2-0.7
				c5.2,0,7.9,2.8,7.9,8.3L124.6,724.6L124.6,724.6z M121,713.3l-5.4,0.8c-1.8,0.3-3.1,0.7-3.9,1.3c-0.7,0.6-1.1,1.6-1.1,3
				c0,1.1,0.4,2,1.2,2.7c0.8,0.7,1.8,1,3.1,1c1.8,0,3.2-0.6,4.4-1.9c1.2-1.2,1.7-2.8,1.7-4.7L121,713.3L121,713.3z"/>
			<path class="st2" d="M133.4,724.6h-3.6v-33h3.6V724.6z"/>
			<path class="st2" d="M161.7,716.7c0,2.6-0.9,4.7-2.8,6.2c-1.9,1.5-4.4,2.2-7.6,2.2c-1.2,0-2.5-0.2-3.9-0.6
				c-1.5-0.4-2.5-0.8-3.1-1.2v-4.3c0.9,0.8,2.1,1.5,3.5,2c1.4,0.5,2.8,0.8,4,0.8c4,0,6-1.6,6-4.7c0-1.3-0.4-2.4-1.3-3.4
				c-0.9-0.9-2.6-2.2-5.3-3.7c-2.6-1.5-4.4-2.8-5.4-4.1c-1-1.3-1.5-2.9-1.5-4.8c0-2.5,0.9-4.5,2.8-6c1.8-1.5,4.2-2.3,7.1-2.3
				c2.8,0,4.9,0.4,6.1,1.1v4.1c-1.6-1.3-3.7-1.9-6.3-1.9c-1.7,0-3.1,0.4-4.2,1.3c-1.1,0.9-1.6,2-1.6,3.4c0,1,0.2,1.9,0.5,2.5
				c0.3,0.6,0.9,1.2,1.7,1.9c0.8,0.6,2.1,1.4,3.9,2.5c2.8,1.5,4.7,3,5.8,4.4C161.2,713.4,161.7,715,161.7,716.7z"/>
			<path class="st2" d="M176,724.4c-0.9,0.5-2,0.7-3.4,0.7c-3.9,0-5.8-2.2-5.8-6.6v-13.2h-3.8v-3h3.8v-5.4l3.6-1.2v6.6h5.6v3h-5.6
				v12.6c0,1.5,0.3,2.6,0.8,3.2c0.5,0.6,1.4,0.9,2.5,0.9c0.9,0,1.7-0.2,2.3-0.7L176,724.4L176,724.4z"/>
			<path class="st2" d="M197.5,724.6H194v-3.5h-0.1c-1.5,2.7-3.8,4.1-6.9,4.1c-5.3,0-8-3.2-8-9.5v-13.3h3.6v12.8c0,4.7,1.8,7,5.4,7
				c1.8,0,3.2-0.6,4.3-1.9c1.1-1.3,1.7-3,1.7-5v-12.9h3.6L197.5,724.6L197.5,724.6z"/>
			<path class="st2" d="M222,724.6h-3.6v-3.8h-0.1c-1.7,2.9-4.2,4.3-7.7,4.3c-2.8,0-5.1-1-6.7-3c-1.7-2-2.5-4.7-2.5-8.1
				c0-3.7,0.9-6.7,2.8-8.9c1.9-2.2,4.3-3.4,7.4-3.4c3.1,0,5.3,1.2,6.7,3.6h0.1v-13.8h3.6L222,724.6L222,724.6z M218.4,714.5v-3.3
				c0-1.8-0.6-3.4-1.8-4.6c-1.2-1.2-2.7-1.8-4.5-1.8c-2.2,0-3.9,0.8-5.1,2.4c-1.3,1.6-1.9,3.8-1.9,6.6c0,2.6,0.6,4.6,1.8,6.1
				c1.2,1.5,2.8,2.2,4.8,2.2c2,0,3.6-0.7,4.8-2.1C217.8,718.6,218.4,716.8,218.4,714.5z"/>
			<path class="st2" d="M257,713.4c0,3.5-1,6.4-3,8.6c-2,2.2-4.7,3.2-8.1,3.2c-3.3,0-5.9-1-7.9-3.1c-2-2.1-3-4.9-3-8.3
				c0-3.7,1-6.6,3-8.7c2-2.1,4.8-3.2,8.3-3.2c3.3,0,5.9,1,7.8,3.1C256.1,707,257,709.8,257,713.4z M253.3,713.5c0-2.8-0.6-5-1.9-6.4
				c-1.2-1.5-3-2.2-5.3-2.2c-2.3,0-4.1,0.8-5.4,2.3c-1.3,1.5-2,3.7-2,6.5c0,2.7,0.7,4.8,2,6.3c1.3,1.5,3.2,2.3,5.4,2.3
				c2.3,0,4.1-0.7,5.3-2.2C252.7,718.4,253.3,716.3,253.3,713.5z"/>
			<path class="st2" d="M63.9,695c0,0.7-0.2,1.2-0.7,1.7c-0.5,0.4-1,0.7-1.7,0.7c-0.7,0-1.2-0.2-1.7-0.6c-0.5-0.4-0.7-1-0.7-1.7
				c0-0.6,0.2-1.2,0.7-1.6c0.4-0.5,1-0.7,1.7-0.7c0.7,0,1.2,0.2,1.7,0.7C63.6,693.8,63.9,694.3,63.9,695z M63.2,724.7h-3.6v-22.3
				h3.6V724.7z"/>
			<path class="st2" d="M231.6,695c0,0.7-0.2,1.2-0.7,1.7c-0.5,0.4-1,0.7-1.7,0.7c-0.7,0-1.2-0.2-1.7-0.6c-0.5-0.4-0.7-1-0.7-1.7
				c0-0.6,0.2-1.2,0.7-1.6c0.4-0.5,1-0.7,1.7-0.7c0.7,0,1.2,0.2,1.7,0.7C231.3,693.8,231.6,694.3,231.6,695z M231,724.7h-3.6v-22.3
				h3.6V724.7z"/>
			<path class="st2" d="M1.1,682.9l-20.7,20.7l-13.2-10.3L-38,696V722l5.2,2.6l13.2-10.3l20.7,20.7l13-5.2v-41.7L1.1,682.9z
				 M-32.8,716.8v-15.6l7.8,7.8L-32.8,716.8z M-12.7,709l13.8-10.7v21.4L-12.7,709z"/>
		</g>
		<g>
			<path class="st2" d="M262,704.2c0,1.4-1.1,2.5-2.6,2.5c-1.4,0-2.6-1.1-2.6-2.5c0-1.4,1.1-2.5,2.6-2.5
				C260.9,701.7,262,702.8,262,704.2z M257.5,704.2c0,1.1,0.8,2,2,2c1.1,0,1.9-0.9,1.9-2c0-1.1-0.8-2-1.9-2
				C258.3,702.2,257.5,703.1,257.5,704.2z M259,705.6h-0.6V703c0.2,0,0.6-0.1,1-0.1c0.5,0,0.7,0.1,0.9,0.2c0.1,0.1,0.2,0.3,0.2,0.6
				c0,0.3-0.2,0.5-0.5,0.6v0c0.2,0.1,0.4,0.3,0.5,0.6c0.1,0.4,0.1,0.5,0.2,0.6H260c-0.1-0.1-0.1-0.3-0.2-0.6c0-0.3-0.2-0.4-0.5-0.4
				H259V705.6z M259,704.1h0.3c0.3,0,0.6-0.1,0.6-0.4c0-0.2-0.2-0.4-0.5-0.4c-0.2,0-0.3,0-0.3,0V704.1z"/>
		</g>
		<g>
			<path class="st2" d="M18.9,725.8v0.5H18v2.5h-0.6v-2.5h-0.9v-0.5H18.9z M22.1,728.7L22,727c0-0.2,0-0.5,0-0.8h0
				c-0.1,0.3-0.2,0.6-0.2,0.9l-0.5,1.6h-0.6L20,727c-0.1-0.2-0.1-0.6-0.2-0.8h0c0,0.3,0,0.6,0,0.8l-0.1,1.7h-0.6l0.2-2.9h0.9
				l0.5,1.4c0.1,0.2,0.1,0.4,0.2,0.7h0c0.1-0.3,0.1-0.5,0.2-0.7l0.5-1.5h0.8l0.2,2.9H22.1z"/>
		</g>
	</g>
</g>
</svg>
